<?xml version="1.0" encoding="utf-8"?>
<!-- Generator: Adobe Illustrator 23.0.1, SVG Export Plug-In . SVG Version: 6.00 Build 0)  -->
<svg version="1.1" xmlns="http://www.w3.org/2000/svg" xmlns:xlink="http://www.w3.org/1999/xlink" x="0px" y="0px"
	 viewBox="0 0 266.8 200.3" style="enable-background:new 0 0 266.8 200.3;" xml:space="preserve">
<style type="text/css">
	.st0{fill-rule:evenodd;clip-rule:evenodd;fill:#008BFD;}
	.st1{fill-rule:evenodd;clip-rule:evenodd;fill:#0078D7;}
	.st2{fill-rule:evenodd;clip-rule:evenodd;fill:#808080;}
	.st3{fill-rule:evenodd;clip-rule:evenodd;fill:#505050;}
	.st4{fill:none;}
	.st5{fill:#505050;}
	.st6{enable-background:new    ;}
	.st7{font-family:'Calibri';}
	.st8{font-size:9px;}
	.st9{fill:#00B0F0;}
	.st10{display:none;}
	.st11{display:inline;}
	.st12{font-size:10px;}
</style>
<g id="shapes" xmlns:ev="http://www.w3.org/2001/xml-events" xmlns:v="http://schemas.microsoft.com/visio/2003/SVGExtensions/">
	<g id="group1278-2">
		<g id="shape1279-3">
			<path class="st0" d="M86.6,24.4c-2.2,1.7-4.8,2.5-7.3,2.5c-3.6,0-7.2-1.7-9.6-4.8c-4-5.4-3-13.1,2.2-17.3
				c2.2-1.7,4.8-2.5,7.3-2.5c3.6,0,7.2,1.7,9.6,4.8C92.9,12.5,91.9,20.3,86.6,24.4z M90.3,6c-2.7-3.6-6.8-5.6-11-5.6
				c-2.9,0-5.9,1-8.4,2.9c-6,4.8-7.2,13.7-2.5,19.9c2.7,3.6,6.8,5.6,11,5.6c2.9,0,5.9-0.9,8.4-2.9C93.8,21.1,94.9,12.2,90.3,6z"/>
		</g>
	</g>
	<g id="group1280-5" transform="translate(4.95554,-4.39536)">
		<g id="group1281-6" transform="translate(0.341805,-0.176482)">
			<g id="group1282-7" transform="translate(0.437248,3.12639E-13)">
				<g id="shape1283-8">
					<path class="st0" d="M67.4,21.8c-0.8-0.8-1.4-1.6-2-2.4c-1.2,2.4-1.6,4.9-1.7,6.9c0.1,0.2,0.1,0.3,0.2,0.4
						c0.6,0.8,1.3,1.5,2,2.1C65.9,27.2,66,24.5,67.4,21.8z"/>
				</g>
			</g>
			<g id="shape1284-10" transform="translate(3.29213,-8.97695)">
				<path class="st0" d="M68.7,21.3c-1.1,0.8-2.2,1.7-3.3,3c-0.6,0.7-1.1,1.4-1.6,2.1c0.5,0.8,1.1,1.6,1.9,2.5
					c0.6-0.9,1.3-1.7,2.2-2.6c1.1-1.1,2.2-1.9,3.1-2.6C70.2,22.9,69.4,22.1,68.7,21.3z"/>
			</g>
			<g id="group1285-12" transform="translate(9.93516,-15.1958)">
				<g id="shape1286-13">
					<path class="st0" d="M73.5,26.7c-0.5-0.7-1.1-1.3-1.7-1.8c-1.9-0.3-4.7-0.3-8,1.5c0.8,0.8,1.5,1.6,2.2,2.4
						C70.4,26.4,73.5,26.7,73.5,26.7z"/>
				</g>
			</g>
			<g id="group1287-15" transform="translate(1.10162E-13,-9.38012)">
				<g id="shape1288-16">
					<path class="st0" d="M65.8,28.8c0.3-0.7,0.7-1.4,1.2-2.1c-1.9-3.1-1.8-5.6-1.6-6.8c-0.5,0.5-0.9,1-1.3,1.6
						C63.8,23.1,63.7,25.7,65.8,28.8z"/>
				</g>
			</g>
			<g id="group1289-18" transform="translate(4.05148,-0.740211)">
				<g id="shape1290-19">
					<path class="st0" d="M67.2,22.7c-0.9-0.7-1.6-1.4-2.3-2.1c-0.5,0.7-0.8,1.3-1.1,1.9c0.6,0.6,1.3,1.3,2.1,1.9
						c4.9,4,9.8,4.4,12.6,4.4c0.2,0,1-1.2,1.5-1.9C78.7,27.1,73.4,27.8,67.2,22.7z"/>
				</g>
			</g>
			<g id="group1291-21" transform="translate(2.10339,-7.03041)">
				<g id="shape1292-22">
					<path class="st0" d="M63.7,26.4c0.5,0.8,1.1,1.5,2,2.4c0.3-0.6,0.7-1.3,1.1-1.9c-0.8-0.9-1.4-1.7-1.9-2.5
						C64.5,25.1,64.1,25.8,63.7,26.4z"/>
				</g>
			</g>
			<g id="group1293-24" transform="translate(10.5195,-5.3233)">
				<g id="shape1294-25">
					<path class="st0" d="M63.7,20c4.5,4.3,9.8,7.9,11.1,8.8c0.1-0.4,0.2-0.7,0.3-1.1c-1.4-1.1-5.3-4.2-9.8-8.8
						C64.9,19.2,64.3,19.6,63.7,20z"/>
				</g>
			</g>
			<g id="group1295-27" transform="translate(4.98729,-16.4714)">
				<g id="shape1296-28">
					<path class="st0" d="M68.7,27.7c-1.1-1.2-2.2-2.4-3.4-3.8c-0.6,0.2-1.1,0.4-1.6,0.7c0.8,1.4,2,2.8,3.2,4.2
						C67.6,28.4,68.1,28,68.7,27.7z"/>
				</g>
			</g>
			<g id="shape1297-30" transform="translate(8.13763,-14.0503)">
				<path class="st0" d="M65.6,25.2c-0.6,0.3-1.3,0.8-1.9,1.2c0.7,0.8,1.5,1.6,2.3,2.4c0.6-0.4,1.3-0.9,1.9-1.2
					C67.1,26.9,66.4,26.1,65.6,25.2z"/>
			</g>
			<g id="shape1298-32" transform="translate(8.1369,-14.0039)">
				<path class="st0" d="M65.4,25.1c-0.6,0.3-1.1,0.7-1.7,1.1c0.7,0.8,1.7,1.8,2.5,2.6c0.6-0.4,1.1-0.8,1.6-1.1
					C67.1,26.9,66.2,25.9,65.4,25.1z"/>
			</g>
		</g>
		<g id="group1299-34" transform="translate(14.8617,-6.23662)">
			<g id="shape1300-35">
				<path class="st0" d="M65.1,23.7c-1.1,0.9-1.3,2.6-0.5,3.7c0.9,1.2,2.5,1.4,3.6,0.5c1.1-0.9,1.3-2.6,0.5-3.7
					C67.8,23,66.2,22.8,65.1,23.7z"/>
			</g>
		</g>
		<g id="group1301-37" transform="translate(9.65099,-2.27374E-13)">
			<g id="shape1302-38">
				<path class="st0" d="M65,24.1c-1,0.8-1.2,2.4-0.5,3.4c0.8,1.1,2.3,1.3,3.4,0.4c1-0.8,1.2-2.4,0.4-3.4C67.5,23.5,66,23.3,65,24.1
					z"/>
			</g>
		</g>
		<g id="group1303-40" transform="translate(0,-5.36433)">
			<g id="shape1304-41">
				<path class="st0" d="M65.6,21.6c-1.6,1.3-1.9,3.6-0.7,5.2c1.2,1.6,3.5,1.9,5.1,0.7c1.6-1.3,1.9-3.6,0.7-5.2
					C69.5,20.7,67.2,20.4,65.6,21.6z"/>
			</g>
		</g>
	</g>
	<path class="st0" d="M233.5,79H213c-0.6,0-1.1,0.5-1.1,1.1v16.8c0,0.6,0.5,1.1,1.1,1.1h5.3c0.4,1.3,1.7,2.3,3.2,2.3
		c1.8,0,3.3-1.5,3.3-3.4s-1.5-3.4-3.3-3.4c-1.5,0-2.8,0.9-3.2,2.3h-4.2v-12h18.3v12h-3.4c-0.5-3.7-3.7-6.6-7.5-6.6
		c-1.3,0-2.6,0.4-3.6,0.9l1,2c0.7-0.4,1.7-0.7,2.5-0.7c2.9,0,5.4,2.5,5.4,5.5c0,3-2.4,5.4-5.4,5.4c-0.9,0-1.8-0.2-2.5-0.7l-1,2
		c1.1,0.6,2.4,0.9,3.6,0.9c3.8,0,7-2.9,7.5-6.6h4.6c0.6,0,1.1-0.5,1.1-1.1V80.1C234.6,79.6,234.1,79,233.5,79z"/>
	<g>
		<g id="shape1318-51">
			<path class="st1" d="M79.6,106H65.4V77.6h14.2v7.7h0.8v-8.4H64.7v29.9h15.7v-2.3h-0.8V106z"/>
		</g>
		<g id="shape1319-53" transform="translate(1.5606,-23.7593)">
			<path class="st1" d="M77.3,102.1H64.7v4.6h12.6V102.1z M67.7,104.1h6.5v0.8h-6.5V104.1z M74.3,105.9L74.3,105.9h-6.5h-0.1v-0.8
				h0.1h6.4h0.1V105.9z"/>
		</g>
		<g id="shape1320-55" transform="translate(1.52875,-19.9374)">
			<path class="st1" d="M64.7,103.7v3.1h8.6v-1.5h4.1v-1.5H64.7z"/>
		</g>
		<g id="shape1321-57" transform="translate(1.52875,-16.4978)">
			<rect x="64.7" y="104.1" class="st1" width="8.6" height="2.7"/>
		</g>
		<g id="shape1322-59" transform="translate(1.4969,-1.52875)">
			<path class="st1" d="M64.7,106.7h12.6v-0.8h-4.1V92.6h-8.6L64.7,106.7L64.7,106.7z M66.2,104h2.3v1.2h-2.3V104z"/>
		</g>
		<g id="shape1323-61" transform="translate(16.02,-3.43969)">
			<path class="st1" d="M73.4,105.6h-2.5v-1.9h-2.5v1.9H66c-0.7,0-1.3,0.6-1.3,1.2h10C74.7,106.2,74.1,105.6,73.4,105.6z"/>
		</g>
		<g id="shape1324-63" transform="translate(11.816,-7.22971)">
			<path class="st1" d="M82.4,95.4H65.3c-0.3,0-0.7,0.3-0.7,0.6v10.1c0,0.3,0.3,0.6,0.7,0.6h17.1c0.3,0,0.7-0.3,0.7-0.6V96
				C83.1,95.7,82.8,95.4,82.4,95.4z M81.4,105.2H66.4v-8.3h15.1V105.2z"/>
		</g>
		<g id="shape1325-65" transform="translate(17.931,-9.36359)">
			<path class="st1" d="M71.7,104.9v-3.4l-3.5-1.8l-3.5,1.8v3.5l3.5,1.8L71.7,104.9z M67.3,102.6l0.9-0.4l0.9,0.4l-0.9,0.5
				L67.3,102.6z M67.3,101.4l0.9-0.4l0.9,0.4l-0.9,0.5L67.3,101.4z M69.2,106l-0.9,0.5v-0.9l0.9-0.5V106z M69.2,104.8l-0.9,0.5v-0.9
				l0.9-0.5V104.8z M69.2,103.7l-0.9,0.5v-0.9l0.9-0.5V103.7z M68.4,102l0.9-0.4l0.9,0.4l-0.9,0.4L68.4,102z M70.4,105.4l-0.9,0.5
				V105l0.9-0.5V105.4z M70.4,104.2l-0.9,0.5v-0.9l0.9-0.5V104.2z M70.4,103l-0.9,0.5v-0.9l0.9-0.5V103z M71.4,104.8l-0.9,0.4v-0.9
				l0.9-0.5V104.8z M71.4,103.6l-0.9,0.4v-0.9l0.9-0.4V103.6z M71.4,102.5l-0.9,0.4V102l0.9-0.4V102.5z M71.3,101.4l-0.9,0.5
				l-0.9-0.5l0.9-0.4L71.3,101.4z M70.1,100.9l-0.9,0.4l-0.9-0.4l0.9-0.4L70.1,100.9z M68.2,99.8l0.9,0.4l-0.9,0.4l-0.9-0.4
				L68.2,99.8z M67.1,100.4l0.9,0.4l-0.9,0.4l-0.9-0.4L67.1,100.4z M66,101l0.9,0.4l-0.9,0.5l-0.9-0.5L66,101z M65.7,105.3l-0.9-0.4
				v-0.9l0.9,0.4V105.3z M65.7,104.1l-0.9-0.4v-0.9l0.9,0.4V104.1z M65.7,102.9l-0.9-0.4v-0.9l0.9,0.4V102.9z M66.9,105.9l-1-0.5
				v-0.9l1,0.5V105.9z M66.9,104.7l-1-0.5v-0.9l1,0.5V104.7z M66.9,103.6l-1-0.5v-0.9l1,0.5V103.6z M66.2,102l0.9-0.4l0.9,0.4
				l-0.9,0.5L66.2,102z M68.1,106.5l-1-0.5v-0.9l1,0.5V106.5z M68.1,105.3l-1-0.5v-0.9l1,0.5V105.3z M68.1,104.2l-1-0.5v-0.9l1,0.5
				V104.2z"/>
		</g>
	</g>
	<g>
		<g id="shape1338-71" transform="translate(-9.29257E-14,-5.02924)">
			<path class="st2" d="M18.9,21.5h-6.7c-0.3,0-0.6-0.3-0.6-0.6v-6.4h1.9v-1.8h12.4c0.3,0,0.6,0.3,0.6,0.6v0.1
				c0.3,0.1,0.6,0.2,1,0.3v-0.4c0-0.8-0.7-1.5-1.6-1.5H13L10.6,14v6.9c0,0.8,0.7,1.5,1.6,1.5h7.3C19.3,22.1,19.1,21.8,18.9,21.5z"/>
		</g>
		<g id="group1339-73" transform="translate(8.44762,0)">
			<g id="group1340-74" transform="translate(0.737786,0)">
				<g id="shape1341-75">
					<path class="st2" d="M18.1,18l2.3,3.3l-2.2-0.5l-0.6,1.6l-2.3-2.9l-1.8,2.9l-0.8-1.7l-2.2,0.5l2.1-3.4c0,0,0.6,0.9,2.7,0.9
						C17.6,18.7,18.1,18,18.1,18z"/>
				</g>
			</g>
			<g id="group1342-77" transform="translate(1.9839,-4.95422)">
				<g id="shape1343-78">
					<path class="st2" d="M14.3,22.4c-2,0-3.7-1.5-3.7-3.4c0-1.9,1.7-3.4,3.7-3.4c2.1,0,3.7,1.5,3.7,3.4
						C18.1,20.9,16.4,22.4,14.3,22.4z M14.3,16.3c-1.6,0-2.9,1.2-2.9,2.6s1.3,2.6,2.9,2.6c1.6,0,2.9-1.2,2.9-2.6
						S15.9,16.3,14.3,16.3z"/>
				</g>
			</g>
			<g id="group1344-80" transform="translate(0,-3.14179)">
				<g id="shape1345-81">
					<path class="st2" d="M16.3,22.4c-3.1,0-5.7-2.3-5.7-5.2c0-2.9,2.6-5.2,5.7-5.2s5.7,2.3,5.7,5.2C22,20.1,19.5,22.4,16.3,22.4z
						 M16.3,12.7c-2.7,0-4.9,2-4.9,4.5c0,2.5,2.2,4.5,4.9,4.5s4.9-2,4.9-4.5C21.2,14.7,19,12.7,16.3,12.7z"/>
				</g>
			</g>
		</g>
	</g>
	<path class="st0" d="M90,154.8H69.5c-0.6,0-1.1,0.5-1.1,1.1v16.8c0,0.6,0.5,1.1,1.1,1.1h5.3c0.4,1.3,1.7,2.3,3.2,2.3
		c1.8,0,3.3-1.5,3.3-3.4s-1.5-3.4-3.3-3.4c-1.5,0-2.8,0.9-3.2,2.3h-4.2v-12h18.3v12h-3.4c-0.5-3.7-3.7-6.6-7.5-6.6
		c-1.3,0-2.6,0.4-3.6,0.9l1,2c0.7-0.4,1.7-0.7,2.5-0.7c2.9,0,5.4,2.5,5.4,5.5c0,3-2.4,5.4-5.4,5.4c-0.9,0-1.8-0.2-2.5-0.7l-1,2
		c1.1,0.6,2.4,0.9,3.6,0.9c3.8,0,7-2.9,7.5-6.6H90c0.6,0,1.1-0.5,1.1-1.1v-16.8C91.1,155.3,90.6,154.8,90,154.8z"/>
	<g>
		<g id="shape1386-100" transform="translate(-9.29257E-14,-5.02924)">
			<path class="st2" d="M18.9,98.7h-6.7c-0.3,0-0.6-0.3-0.6-0.6v-6.4h1.9v-1.8h12.4c0.3,0,0.6,0.3,0.6,0.6v0.1
				c0.3,0.1,0.6,0.2,1,0.3v-0.4c0-0.8-0.7-1.5-1.6-1.5H13l-2.3,2.2v6.9c0,0.8,0.7,1.5,1.6,1.5h7.3C19.3,99.3,19.1,99,18.9,98.7z"/>
		</g>
		<g id="group1387-102" transform="translate(8.44762,0)">
			<g id="group1388-103" transform="translate(0.737786,0)">
				<g id="shape1389-104">
					<path class="st2" d="M18.1,95.2l2.3,3.3l-2.2-0.5l-0.6,1.6l-2.3-2.9l-1.8,2.9l-0.8-1.7l-2.2,0.5l2.1-3.4c0,0,0.6,0.9,2.7,0.9
						C17.6,95.9,18.1,95.2,18.1,95.2z"/>
				</g>
			</g>
			<g id="group1390-106" transform="translate(1.9839,-4.95422)">
				<g id="shape1391-107">
					<path class="st2" d="M14.3,99.6c-2,0-3.7-1.5-3.7-3.4c0-1.9,1.7-3.4,3.7-3.4c2.1,0,3.7,1.5,3.7,3.4
						C18.1,98.1,16.4,99.6,14.3,99.6z M14.3,93.5c-1.6,0-2.9,1.2-2.9,2.6s1.3,2.6,2.9,2.6c1.6,0,2.9-1.2,2.9-2.6
						S15.9,93.5,14.3,93.5z"/>
				</g>
			</g>
			<g id="group1392-109" transform="translate(0,-3.14179)">
				<g id="shape1393-110">
					<path class="st2" d="M16.3,99.6c-3.1,0-5.7-2.3-5.7-5.2c0-2.9,2.6-5.2,5.7-5.2s5.7,2.3,5.7,5.2C22,97.2,19.5,99.6,16.3,99.6z
						 M16.3,89.9c-2.7,0-4.9,2-4.9,4.5c0,2.5,2.2,4.5,4.9,4.5s4.9-2,4.9-4.5C21.2,91.9,19,89.9,16.3,89.9z"/>
				</g>
			</g>
		</g>
	</g>
	<g>
		<g id="shape1417-115" transform="translate(-9.29257E-14,-5.02924)">
			<path class="st2" d="M18.9,169.5h-6.7c-0.3,0-0.6-0.3-0.6-0.6v-6.4h1.9v-1.8h12.4c0.3,0,0.6,0.3,0.6,0.6v0.1
				c0.3,0.1,0.6,0.2,1,0.3v-0.4c0-0.8-0.7-1.5-1.6-1.5H13l-2.3,2.2v6.9c0,0.8,0.7,1.5,1.6,1.5h7.3C19.3,170.1,19.1,169.8,18.9,169.5
				z"/>
		</g>
		<g id="group1418-117" transform="translate(8.44762,0)">
			<g id="group1419-118" transform="translate(0.737786,0)">
				<g id="shape1420-119">
					<path class="st2" d="M18.1,166l2.3,3.3l-2.2-0.5l-0.6,1.6l-2.3-2.9l-1.8,2.9l-0.8-1.7l-2.2,0.5l2.1-3.4c0,0,0.6,0.9,2.7,0.9
						C17.6,166.7,18.1,166,18.1,166z"/>
				</g>
			</g>
			<g id="group1421-121" transform="translate(1.9839,-4.95422)">
				<g id="shape1422-122">
					<path class="st2" d="M14.3,170.4c-2,0-3.7-1.5-3.7-3.4c0-1.9,1.7-3.4,3.7-3.4c2.1,0,3.7,1.5,3.7,3.4
						C18.1,168.8,16.4,170.4,14.3,170.4z M14.3,164.3c-1.6,0-2.9,1.2-2.9,2.6s1.3,2.6,2.9,2.6c1.6,0,2.9-1.2,2.9-2.6
						S15.9,164.3,14.3,164.3z"/>
				</g>
			</g>
			<g id="group1423-124" transform="translate(0,-3.14179)">
				<g id="shape1424-125">
					<path class="st2" d="M16.3,170.4c-3.1,0-5.7-2.3-5.7-5.2c0-2.9,2.6-5.2,5.7-5.2s5.7,2.3,5.7,5.2C22,168,19.5,170.4,16.3,170.4z
						 M16.3,160.7c-2.7,0-4.9,2-4.9,4.5c0,2.5,2.2,4.5,4.9,4.5s4.9-2,4.9-4.5C21.2,162.7,19,160.7,16.3,160.7z"/>
				</g>
			</g>
		</g>
	</g>
	<g transform="scale(-2.68,-2.68) ">
		<g>
			<path class="st3" d="M201.4,87.8l8,4l-8,4C202.7,93.3,202.7,90.3,201.4,87.8"/>
		</g>
	</g>
	<rect x="151" y="63" class="st4" width="80.5" height="20"/>
	<g id="Arrow">
		<path class="st5" d="M202.6,90.9c-12,0-24.1,0-36.1,0c-0.7,0-1.5,0-2.2-0.1c-13.3-2.3-22.3-13-22.3-26.4c0-4.5,0-9,0-13.5
			c0-4.3,0.1-8.7-0.3-13c-1-10.7-9.6-20.3-20.1-22.9c-4.6-1.2-9.3-1-14-1c-2.1,0-4.2,0-6.4,0v1.3c5.4,0,10.8,0,16.2,0.3
			c12.3,0.8,23,12.2,23.2,24.6c0.1,7.8,0,15.7,0.1,23.5c0.2,12.7,5.9,21.8,17.7,26.8c0.2,0.1,0.4,0.3,0.8,0.6c-0.8,0-1.4,0-1.9,0
			c-18.2,0-37.4,0-56,0.1v1.1c18.6,0,37.9,0.1,56.1,0.1c0.5,0,1,0,1.6,0c-0.4,0.5-0.9,0.7-1.4,0.9c-10.1,4.8-16,12.6-16.7,23.8
			c-0.4,7.2-0.1,14.4-0.2,21.6c0,2-0.1,4-0.4,6c-1.6,12-12.5,21.8-24.6,22.1c-4.8,0.1-9.7,0.1-14.5,0.1v1.3c4.2,0,8.5,0,12.7,0
			c1.9,0,3.8-0.1,5.7-0.5c13.8-3,22.4-13.8,22.4-27.9c0-6.8,0-13.6,0-20.4c0-1.7,0.1-3.5,0.4-5.2c2.4-13.3,14.4-21.9,26.2-21.7
			c11.3,0.2,22.7,0.2,34,0.1V90.9z"/>
	</g>
	<g>
		<path class="st5" d="M202.6,91.8c0-2-0.8-3.1-1.4-4.3c2.8,1.5,5.5,2.9,8.2,4.3c-2.7,1.4-5.4,2.8-8.2,4.3
			C201.8,94.7,202.6,93.6,202.6,91.8z"/>
	</g>
</g>
<g id="txt" xmlns:ev="http://www.w3.org/2001/xml-events" xmlns:v="http://schemas.microsoft.com/visio/2003/SVGExtensions/">
	<text transform="matrix(1 0 0 1 64.5134 41.7853)" class="st6"><tspan x="0" y="0" class="st7 st8">Daemon</tspan><tspan x="-11.2" y="10.8" class="st7 st8">Aplicativo Web</tspan></text>
	<text transform="matrix(1 0 0 1 206.6246 117.5411)" class="st6"><tspan x="0" y="0" class="st7 st8">Daemon</tspan><tspan x="-13.9" y="10.8" class="st7 st8">Aplicativo de API</tspan></text>
	<g id="shape1317-67_2_">
		<text transform="matrix(1 0 0 1 46.843 117.0984)" class="st6"><tspan x="0" y="0" class="st7 st8">Daemon Aplicativo</tspan><tspan x="-2" y="10.8" class="st7 st8">da Área de Trabalho</tspan></text>
	</g>
	<g id="shape1337-83">
		<text transform="matrix(1 0 0 1 5.1363 35.4073)" class="st6 st7 st8">Segredo<v:paragraph  v:horizAlign="1"></v:paragraph><v:tabList></v:tabList></text>
	</g>
	<text transform="matrix(1 0 0 1 49.6541 193.2968)" class="st6 st7 st8">API Web Daemon<v:paragraph  v:horizAlign="1"></v:paragraph><v:tabList></v:tabList></text>
	<g id="shape1385-112">
		<text transform="matrix(1 0 0 1 5.1363 112.5803)" class="st6 st7 st8">Segredo<v:paragraph  v:horizAlign="1"></v:paragraph><v:tabList></v:tabList></text>
	</g>
	<g id="shape1416-127">
		<text transform="matrix(1 0 0 1 5.1363 183.3754)" class="st6 st7 st8">Segredo<v:paragraph  v:horizAlign="1"></v:paragraph><v:tabList></v:tabList></text>
	</g>
	<text transform="matrix(1 0 0 1 150.0814 69.9984)" class="st6"><tspan x="0" y="0" class="st9 st7 st8">Credenciais de cliente</tspan><tspan x="28.5" y="10.8" class="st9 st7 st8">fluxo</tspan></text>
</g>
<g id="source" xmlns:ev="http://www.w3.org/2001/xml-events" xmlns:v="http://schemas.microsoft.com/visio/2003/SVGExtensions/" class="st10">
	
		<g id="target_1_" xmlns:ev="http://www.w3.org/2001/xml-events" xmlns:v="http://schemas.microsoft.com/visio/2003/SVGExtensions/" class="st11">
		<g>
			<g id="group1277-1" transform="translate(56.698,-171.515)">
				<g id="group1278-2_1_">
					<g id="shape1279-3_1_">
						<path class="st0" d="M22.9,195.9c-2.2,1.7-4.8,2.5-7.3,2.5c-3.6,0-7.2-1.7-9.6-4.8c-4-5.4-3-13.1,2.2-17.3
							c2.2-1.7,4.8-2.5,7.3-2.5c3.6,0,7.2,1.7,9.5,4.8C29.2,184,28.2,191.8,22.9,195.9z M26.5,177.5c-2.7-3.6-6.8-5.6-11-5.6
							c-2.9,0-5.9,1-8.4,2.9c-6,4.8-7.2,13.7-2.6,19.9c2.7,3.6,6.8,5.6,11,5.6c2.9,0,5.9-0.9,8.4-2.9
							C30,192.6,31.2,183.7,26.5,177.5z"/>
					</g>
				</g>
				<g id="group1280-5_1_" transform="translate(4.95554,-4.39536)">
					<g id="group1281-6_1_" transform="translate(0.341805,-0.176482)">
						<g id="group1282-7_1_" transform="translate(0.437248,3.12639E-13)">
							<g id="shape1283-8_1_">
								<path class="st0" d="M3.6,193.3c-0.8-0.8-1.4-1.6-2-2.4c-1.1,2.4-1.6,4.9-1.7,6.9c0.1,0.2,0.1,0.3,0.2,0.4
									c0.6,0.8,1.3,1.5,2,2.1C2.1,198.7,2.3,196,3.6,193.3z"/>
							</g>
						</g>
						<g id="shape1284-10_1_" transform="translate(3.29213,-8.97695)">
							<path class="st0" d="M4.9,192.8c-1.1,0.8-2.2,1.7-3.3,3c-0.6,0.7-1.1,1.4-1.6,2.1c0.5,0.8,1.1,1.6,1.9,2.5
								c0.6-0.9,1.3-1.7,2.2-2.6c1.1-1.1,2.2-1.9,3.1-2.6C6.4,194.4,5.7,193.6,4.9,192.8z"/>
						</g>
						<g id="group1285-12_1_" transform="translate(9.93516,-15.1958)">
							<g id="shape1286-13_1_">
								<path class="st0" d="M9.8,198.2c-0.5-0.7-1.1-1.3-1.7-1.8c-1.9-0.3-4.7-0.3-8,1.5c0.8,0.8,1.5,1.6,2.2,2.4
									C6.6,197.9,9.8,198.2,9.8,198.2z"/>
							</g>
						</g>
						<g id="group1287-15_1_" transform="translate(1.10162E-13,-9.38012)">
							<g id="shape1288-16_1_">
								<path class="st0" d="M2.1,200.3c0.3-0.7,0.7-1.4,1.2-2.1c-1.9-3.1-1.8-5.6-1.6-6.8c-0.5,0.5-0.9,1-1.3,1.6
									C0,194.7,0,197.2,2.1,200.3z"/>
							</g>
						</g>
						<g id="group1289-18_1_" transform="translate(4.05148,-0.740211)">
							<g id="shape1290-19_1_">
								<path class="st0" d="M3.4,194.2c-0.9-0.7-1.6-1.4-2.3-2.1c-0.5,0.7-0.8,1.3-1.1,1.9c0.6,0.6,1.3,1.3,2.1,1.9
									c4.9,4,9.8,4.4,12.6,4.4c0.2,0,1-1.2,1.5-1.9C15,198.6,9.7,199.3,3.4,194.2z"/>
							</g>
						</g>
						<g id="group1291-21_1_" transform="translate(2.10339,-7.03041)">
							<g id="shape1292-22_1_">
								<path class="st0" d="M0,198c0.5,0.8,1.1,1.5,2,2.4c0.3-0.6,0.7-1.3,1.1-1.9c-0.8-0.9-1.4-1.7-1.9-2.5
									C0.7,196.6,0.3,197.3,0,198z"/>
							</g>
						</g>
						<g id="group1293-24_1_" transform="translate(10.5195,-5.3233)">
							<g id="shape1294-25_1_">
								<path class="st0" d="M0,191.5c4.5,4.3,9.8,7.9,11.1,8.8c0.1-0.4,0.2-0.7,0.3-1.1c-1.4-1.1-5.3-4.2-9.8-8.8
									C1.1,190.7,0.6,191.1,0,191.5z"/>
							</g>
						</g>
						<g id="group1295-27_1_" transform="translate(4.98729,-16.4714)">
							<g id="shape1296-28_1_">
								<path class="st0" d="M4.9,199.2c-1.1-1.2-2.2-2.4-3.4-3.8c-0.6,0.2-1.1,0.4-1.6,0.7c0.8,1.4,2,2.8,3.2,4.2
									C3.8,199.9,4.4,199.5,4.9,199.2z"/>
							</g>
						</g>
						<g id="shape1297-30_1_" transform="translate(8.13763,-14.0503)">
							<path class="st0" d="M1.9,196.8c-0.6,0.3-1.3,0.8-1.9,1.2c0.7,0.8,1.5,1.6,2.3,2.4c0.6-0.4,1.3-0.9,1.9-1.2
								C3.4,198.4,2.6,197.6,1.9,196.8z"/>
						</g>
						<g id="shape1298-32_1_" transform="translate(8.1369,-14.0039)">
							<path class="st0" d="M1.7,196.6c-0.6,0.3-1.1,0.7-1.7,1.1c0.7,0.8,1.7,1.8,2.5,2.6c0.6-0.4,1-0.8,1.6-1.1
								C3.4,198.5,2.4,197.4,1.7,196.6z"/>
						</g>
					</g>
					<g id="group1299-34_1_" transform="translate(14.8617,-6.23662)">
						<g id="shape1300-35_1_">
							<path class="st0" d="M1.3,195.2c-1.1,0.9-1.3,2.6-0.5,3.7c0.9,1.2,2.5,1.4,3.6,0.5s1.3-2.6,0.5-3.7S2.5,194.3,1.3,195.2z"/>
						</g>
					</g>
					<g id="group1301-37_1_" transform="translate(9.65099,-2.27374E-13)">
						<g id="shape1302-38_1_">
							<path class="st0" d="M1.2,195.6c-1,0.8-1.2,2.4-0.4,3.4c0.8,1.1,2.3,1.3,3.4,0.4c1-0.8,1.2-2.4,0.4-3.4S2.3,194.8,1.2,195.6z
								"/>
						</g>
					</g>
					<g id="group1303-40_1_" transform="translate(0,-5.36433)">
						<g id="shape1304-41_1_">
							<path class="st0" d="M1.9,193.1c-1.6,1.3-1.9,3.6-0.7,5.2c1.2,1.6,3.5,1.9,5.1,0.7s1.9-3.6,0.7-5.2
								C5.8,192.2,3.5,191.9,1.9,193.1z"/>
						</g>
					</g>
				</g>
				<text transform="matrix(1 0 0 1 -1.6267 213.3003)" class="st7 st12">Daemon</text>
				<text transform="matrix(1 0 0 1 -3.2267 225.3003)" class="st7 st12">Aplicativo Web</text>
			</g>
			<g id="shape1305-46" transform="translate(233.067,-95.7592)">
				<path class="st0" d="M21.6,174.8H1.1c-0.6,0-1.1,0.5-1.1,1.1v16.8c0,0.6,0.5,1.1,1.1,1.1h5.3c0.4,1.3,1.7,2.3,3.2,2.3
					c1.8,0,3.3-1.5,3.3-3.4s-1.5-3.4-3.3-3.4c-1.5,0-2.8,0.9-3.2,2.3H2.2v-12h18.3v12H17c-0.5-3.7-3.7-6.6-7.5-6.6
					c-1.3,0-2.5,0.4-3.6,0.9l1,2c0.7-0.4,1.7-0.7,2.6-0.7c2.9,0,5.4,2.5,5.4,5.5s-2.4,5.4-5.4,5.4c-0.9,0-1.8-0.2-2.6-0.7l-1,2
					c1.1,0.6,2.4,0.9,3.6,0.9c3.8,0,7-2.9,7.5-6.6h4.5c0.6,0,1.1-0.5,1.1-1.1v-16.8C22.7,175.3,22.2,174.8,21.6,174.8z"/>
				<text transform="matrix(1 0 0 1 -5.8773 213.3003)" class="st7 st12">Daemon</text>
				<text transform="matrix(1 0 0 1 -4.6773 225.3003)" class="st7 st12">Aplicativo de API</text>
			</g>
			<g id="group1317-50" transform="translate(57.6226,-93.562)">
				<g id="shape1318-51_1_">
					<path class="st1" d="M15,199.5H0.8v-28.4H15v7.7h0.8v-8.4H0v29.9h15.7V198H15V199.5z"/>
				</g>
				<g id="shape1319-53_1_" transform="translate(1.5606,-23.7593)">
					<path class="st1" d="M12.6,195.7H0v4.6h12.6V195.7z M3.1,197.6h6.5v0.8H3.1V197.6z M9.6,199.5L9.6,199.5H3.1H3v-0.8h0.1h6.4
						h0.1V199.5z"/>
				</g>
				<g id="shape1320-55_1_" transform="translate(1.52875,-19.9374)">
					<path class="st1" d="M0,197.2v3.1h8.6v-1.5h4.1v-1.5H0V197.2z"/>
				</g>
				<g id="shape1321-57_1_" transform="translate(1.52875,-16.4978)">
					<rect x="0" y="197.6" class="st1" width="8.6" height="2.7"/>
				</g>
				<g id="shape1322-59_1_" transform="translate(1.4969,-1.52875)">
					<path class="st1" d="M0,200.3h12.6v-0.8h-4v-13.4H0V200.3L0,200.3z M1.6,197.6h2.3v1.2H1.6V197.6z"/>
				</g>
				<g id="shape1323-61_1_" transform="translate(16.02,-3.43969)">
					<path class="st1" d="M8.7,199.2H6.3v-1.9H3.8v1.9H1.3c-0.7,0-1.3,0.6-1.3,1.2h10C10.1,199.7,9.4,199.2,8.7,199.2z"/>
				</g>
				<g id="shape1324-63_1_" transform="translate(11.816,-7.22971)">
					<path class="st1" d="M17.8,189H0.7c-0.3,0-0.7,0.3-0.7,0.6v10.1c0,0.3,0.3,0.6,0.7,0.6h17.1c0.4,0,0.7-0.3,0.7-0.6v-10.1
						C18.4,189.2,18.1,189,17.8,189z M16.8,198.8H1.7v-8.3h15.1L16.8,198.8z"/>
				</g>
				<g id="shape1325-65_1_" transform="translate(17.931,-9.36359)">
					<path class="st1" d="M7,198.5V195l-3.5-1.8L0,195v3.5l3.5,1.8L7,198.5z M2.6,196.2l0.9-0.4l0.9,0.4l-0.9,0.5L2.6,196.2z
						 M2.6,195l0.9-0.4l0.9,0.4l-0.9,0.5L2.6,195z M4.5,199.5l-1,0.5v-0.9l1-0.5V199.5z M4.5,198.4l-1,0.5V198l1-0.5V198.4z
						 M4.5,197.2l-1,0.5v-0.9l1-0.5V197.2z M3.7,195.6l0.9-0.4l0.9,0.4L4.6,196L3.7,195.6z M5.7,198.9l-0.9,0.5v-0.9l0.9-0.5V198.9z
						 M5.7,197.8l-0.9,0.5v-0.9l0.9-0.5V197.8z M5.7,196.6l-0.9,0.5v-0.9l0.9-0.5V196.6z M6.8,198.4l-0.9,0.4v-0.9l0.9-0.5V198.4z
						 M6.8,197.2l-0.9,0.4v-0.9l0.9-0.4V197.2z M6.8,196.1l-0.9,0.4v-0.9l0.9-0.4V196.1z M6.6,195l-0.9,0.5L4.8,195l0.9-0.4L6.6,195
						z M5.5,194.4l-0.9,0.4l-0.9-0.4l0.9-0.4L5.5,194.4z M3.5,193.4l0.9,0.4l-0.9,0.4l-0.9-0.4L3.5,193.4z M2.4,194l0.9,0.4
						l-0.9,0.4l-0.9-0.4L2.4,194z M1.3,194.6l0.9,0.4l-0.9,0.5L0.4,195L1.3,194.6z M1,198.8l-0.9-0.4v-0.9l0.9,0.4V198.8z M1,197.7
						l-0.9-0.4v-0.9l0.9,0.4V197.7z M1,196.5l-0.9-0.4v-0.9l0.9,0.4V196.5z M2.2,199.4l-1-0.5V198l1,0.5V199.4z M2.2,198.3l-1-0.5
						v-0.9l1,0.5V198.3z M2.2,197.1l-1-0.5v-0.9l1,0.5V197.1z M1.5,195.6l0.9-0.4l0.9,0.4l-0.9,0.5L1.5,195.6z M3.4,200.1l-1-0.5
						v-0.9l1,0.5V200.1z M3.4,198.9l-1-0.5v-0.9l1,0.5V198.9z M3.4,197.8l-1-0.5v-0.9l1,0.5V197.8z"/>
				</g>
				<g id="shape1317-67_1_">
					<text transform="matrix(1 0 0 1 -2.3221 210.6604)" class="st7 st12">Daemon</text>
					<text transform="matrix(1 0 0 1 -11.1221 222.6604)" class="st7 st12">Aplicativo da Área de Trabalho</text>
				</g>
			</g>
			<g id="group1337-70" transform="translate(8.01629,-177.893)">
				<g id="shape1338-71_1_" transform="translate(-9.29257E-14,-5.02924)">
					<path class="st2" d="M8.3,199.4H1.6c-0.3,0-0.6-0.3-0.6-0.6v-6.4h1.9v-1.8h12.4c0.3,0,0.6,0.3,0.6,0.6v0.1
						c0.3,0.1,0.7,0.2,1,0.3v-0.4c0-0.8-0.7-1.5-1.6-1.5h-13L0,191.9v6.9c0,0.8,0.7,1.5,1.6,1.5h7.3C8.6,200,8.4,199.7,8.3,199.4z"
						/>
				</g>
				<g id="group1339-73_1_" transform="translate(8.44762,0)">
					<g id="group1340-74_1_" transform="translate(0.737786,0)">
						<g id="shape1341-75_1_">
							<path class="st2" d="M7.5,195.9l2.3,3.3l-2.2-0.5L7,200.3l-2.3-2.9L3,200.3l-0.8-1.7L0,199.1l2.1-3.4c0,0,0.6,0.9,2.7,0.9
								S7.5,195.9,7.5,195.9z"/>
						</g>
					</g>
					<g id="group1342-77_1_" transform="translate(1.9839,-4.95422)">
						<g id="shape1343-78_1_">
							<path class="st2" d="M3.7,200.3c-2,0-3.7-1.5-3.7-3.4s1.7-3.4,3.7-3.4c2.1,0,3.7,1.5,3.7,3.4S5.8,200.3,3.7,200.3z
								 M3.7,194.2c-1.6,0-2.9,1.2-2.9,2.6s1.3,2.6,2.9,2.6s2.9-1.2,2.9-2.6S5.3,194.2,3.7,194.2z"/>
						</g>
					</g>
					<g id="group1344-80_1_" transform="translate(0,-3.14179)">
						<g id="shape1345-81_1_">
							<path class="st2" d="M5.7,200.3c-3.1,0-5.7-2.3-5.7-5.2s2.6-5.2,5.7-5.2s5.7,2.3,5.7,5.2S8.8,200.3,5.7,200.3z M5.7,190.6
								c-2.7,0-4.9,2-4.9,4.5s2.2,4.5,4.9,4.5s4.9-2,4.9-4.5S8.4,190.6,5.7,190.6z"/>
						</g>
					</g>
				</g>
				<g id="shape1337-83_1_">
					<text transform="matrix(1 0 0 1 -2.88 213.3004)" class="st7 st12">Segredo</text>
				</g>
			</g>
			<g id="shape1346-85" transform="translate(87.0703,-185.688)">
			</g>
			<g id="shape1348-91" transform="translate(89.0646,-101.429)">
			</g>
			<g id="shape1350-96" transform="translate(61.4123,-20.0036)">
				<path class="st0" d="M21.6,174.8H1.1c-0.6,0-1.1,0.5-1.1,1.1v16.8c0,0.6,0.5,1.1,1.1,1.1h5.3c0.4,1.3,1.7,2.3,3.2,2.3
					c1.8,0,3.3-1.5,3.3-3.4s-1.5-3.4-3.3-3.4c-1.5,0-2.8,0.9-3.2,2.3H2.2v-12h18.3v12H17c-0.5-3.7-3.7-6.6-7.5-6.6
					c-1.3,0-2.5,0.4-3.6,0.9l1,2c0.7-0.4,1.7-0.7,2.6-0.7c2.9,0,5.4,2.5,5.4,5.5s-2.4,5.4-5.4,5.4c-0.9,0-1.8-0.2-2.6-0.7l-1,2
					c1.1,0.6,2.4,0.9,3.6,0.9c3.8,0,7-2.9,7.5-6.6h4.5c0.6,0,1.1-0.5,1.1-1.1v-16.8C22.7,175.3,22.2,174.8,21.6,174.8z"/>
				<text transform="matrix(1 0 0 1 -24.44 213.3004)" class="st7 st12">API Web Daemon</text>
			</g>
			<g id="group1385-99" transform="translate(8.01629,-100.72)">
				<g id="shape1386-100_1_" transform="translate(-9.29257E-14,-5.02924)">
					<path class="st2" d="M8.3,199.4H1.6c-0.3,0-0.6-0.3-0.6-0.6v-6.4h1.9v-1.8h12.4c0.3,0,0.6,0.3,0.6,0.6v0.1
						c0.3,0.1,0.7,0.2,1,0.3v-0.4c0-0.8-0.7-1.5-1.6-1.5h-13L0,191.9v6.9c0,0.8,0.7,1.5,1.6,1.5h7.3C8.6,200,8.4,199.7,8.3,199.4z"
						/>
				</g>
				<g id="group1387-102_1_" transform="translate(8.44762,0)">
					<g id="group1388-103_1_" transform="translate(0.737786,0)">
						<g id="shape1389-104_1_">
							<path class="st2" d="M7.5,195.9l2.3,3.3l-2.2-0.5L7,200.3l-2.3-2.9L3,200.3l-0.8-1.7L0,199.1l2.1-3.4c0,0,0.6,0.9,2.7,0.9
								S7.5,195.9,7.5,195.9z"/>
						</g>
					</g>
					<g id="group1390-106_1_" transform="translate(1.9839,-4.95422)">
						<g id="shape1391-107_1_">
							<path class="st2" d="M3.7,200.3c-2,0-3.7-1.5-3.7-3.4s1.7-3.4,3.7-3.4c2.1,0,3.7,1.5,3.7,3.4S5.8,200.3,3.7,200.3z
								 M3.7,194.2c-1.6,0-2.9,1.2-2.9,2.6s1.3,2.6,2.9,2.6s2.9-1.2,2.9-2.6S5.3,194.2,3.7,194.2z"/>
						</g>
					</g>
					<g id="group1392-109_1_" transform="translate(0,-3.14179)">
						<g id="shape1393-110_1_">
							<path class="st2" d="M5.7,200.3c-3.1,0-5.7-2.3-5.7-5.2s2.6-5.2,5.7-5.2s5.7,2.3,5.7,5.2S8.8,200.3,5.7,200.3z M5.7,190.6
								c-2.7,0-4.9,2-4.9,4.5s2.2,4.5,4.9,4.5s4.9-2,4.9-4.5S8.4,190.6,5.7,190.6z"/>
						</g>
					</g>
				</g>
				<g id="shape1385-112_1_">
					<text transform="matrix(1 0 0 1 -2.88 213.3003)" class="st7 st12">Segredo</text>
				</g>
			</g>
			<g id="group1416-114" transform="translate(8.01629,-29.9249)">
				<g id="shape1417-115_1_" transform="translate(-9.29257E-14,-5.02924)">
					<path class="st2" d="M8.3,199.4H1.6c-0.3,0-0.6-0.3-0.6-0.6v-6.4h1.9v-1.8h12.4c0.3,0,0.6,0.3,0.6,0.6v0.1
						c0.3,0.1,0.7,0.2,1,0.3v-0.4c0-0.8-0.7-1.5-1.6-1.5h-13L0,191.9v6.9c0,0.8,0.7,1.5,1.6,1.5h7.3C8.6,200,8.4,199.7,8.3,199.4z"
						/>
				</g>
				<g id="group1418-117_1_" transform="translate(8.44762,0)">
					<g id="group1419-118_1_" transform="translate(0.737786,0)">
						<g id="shape1420-119_1_">
							<path class="st2" d="M7.5,195.9l2.3,3.3l-2.2-0.5L7,200.3l-2.3-2.9L3,200.3l-0.8-1.7L0,199.1l2.1-3.4c0,0,0.6,0.9,2.7,0.9
								S7.5,195.9,7.5,195.9z"/>
						</g>
					</g>
					<g id="group1421-121_1_" transform="translate(1.9839,-4.95422)">
						<g id="shape1422-122_1_">
							<path class="st2" d="M3.7,200.3c-2,0-3.7-1.5-3.7-3.4s1.7-3.4,3.7-3.4c2.1,0,3.7,1.5,3.7,3.4S5.8,200.3,3.7,200.3z
								 M3.7,194.2c-1.6,0-2.9,1.2-2.9,2.6s1.3,2.6,2.9,2.6s2.9-1.2,2.9-2.6S5.3,194.2,3.7,194.2z"/>
						</g>
					</g>
					<g id="group1423-124_1_" transform="translate(0,-3.14179)">
						<g id="shape1424-125_1_">
							<path class="st2" d="M5.7,200.3c-3.1,0-5.7-2.3-5.7-5.2s2.6-5.2,5.7-5.2s5.7,2.3,5.7,5.2S8.8,200.3,5.7,200.3z M5.7,190.6
								c-2.7,0-4.9,2-4.9,4.5s2.2,4.5,4.9,4.5s4.9-2,4.9-4.5S8.4,190.6,5.7,190.6z"/>
						</g>
					</g>
				</g>
				<g id="shape1416-127_1_">
					<text transform="matrix(1 0 0 1 -2.88 213.3003)" class="st7 st12">Segredo</text>
				</g>
			</g>
			<g id="shape1507-129" transform="translate(84.521,-32.7595)">
			</g>
			<g id="shape1658-134" transform="translate(151.019,-117.302)">
				<rect x="0" y="180.3" class="st4" width="80.5" height="20"/>
				<text transform="matrix(1 0 0 1 4.4384 187.3004)" class="st9 st7 st12">Credenciais de cliente</text>
				<text transform="matrix(1 0 0 1 31.3384 199.3004)" class="st9 st7 st12">fluxo</text>
			</g>
		</g>
	</g>
</g>
</svg>
