<svg xmlns="http://www.w3.org/2000/svg" xmlns:xlink="http://www.w3.org/1999/xlink" viewBox="0 0 475.7 150.2"><defs><symbol id="a" viewBox="0 0 20 20"><circle cx="10" cy="10" r="10" fill="#505050"/><path d="M12,14V8.6h1.2V7.4H12V5.6H10.6V7.4H6.8V8.6A13.1,13.1,0,0,1,7.9,9.8l1,1.4.9,1.4a10,10,0,0,1,.8,1.4ZM10.7,8.6v3.5l-1.3-2L8.2,8.6Z" fill="#fff"/></symbol><symbol id="b" viewBox="0 0 20 20"><circle cx="10" cy="10" r="10" fill="#505050"/><path d="M7.4,5.9V7.2a2.6,2.6,0,0,1,1.8-.7,2.3,2.3,0,0,1,1.4.4,1.2,1.2,0,0,1,.5,1c0,.9-.7,1.4-2.2,1.4H8.2v1.1h.7c1.3,0,1.9.5,1.9,1.4S10.3,13,9.3,13a2.3,2.3,0,0,1-1.6-.6v1.2a3.5,3.5,0,0,0,2,.5,3.5,3.5,0,0,0,1.8-.5,2.1,2.1,0,0,0-1-3.6h0a2.5,2.5,0,0,0,1.4-.6,2,2,0,0,0,.6-1.5,2.3,2.3,0,0,0-.9-1.8,3.4,3.4,0,0,0-2.2-.7A3.5,3.5,0,0,0,7.4,5.9Z" fill="#fff"/></symbol><symbol id="c" viewBox="0 0 20 20"><circle cx="10" cy="10" r="10" fill="#505050"/><path d="M12.5,5.6H7.2v.6c0,.3.1.5.1.8l.3.7.5.5.5.6.6.5.6.4.5.5.4.4.2.5a1.3,1.3,0,0,1,.1.6,1.3,1.3,0,0,1-.1.6l-.3.4-.4.2H9.6l-1-.2a3.9,3.9,0,0,1-1-.8v1.3a1,1,0,0,0,.5.4l.6.2.5.2h.7l1-.2.8-.4.5-.7a4.4,4.4,0,0,0,.2-1c0-.4-.1-.7-.1-1l-.4-.7-.6-.7-.7-.6-.7-.6-.6-.5-.4-.5a.8.8,0,0,1-.2-.5h3.8Z" fill="#fff"/></symbol><symbol id="d" viewBox="0 0 20 20"><circle cx="10" cy="10" r="10" fill="#505050"/><path d="M11.2,14.2V5.6H9.8v6.9L9,12l-1-.3v1.2l.7.2.6.3.6.3.7.5Z" fill="#fff"/></symbol></defs><title>OJ104329356</title><rect width="475.7" height="150.2" fill="#fff"/><rect y="0.2" width="105" height="150" fill="#ebebeb"/><rect x="371" y="0.2" width="104.7" height="90" fill="#0072c6"/><rect x="371" y="95.2" width="104.7" height="55" fill="#d2d2d2"/><line x1="105" y1="15.2" x2="365.6" y2="15.2" fill="none" stroke="#000" stroke-miterlimit="10"/><polygon points="364.5 18.9 370.9 15.2 364.5 11.5 364.5 18.9"/><line x1="110.4" y1="45.1" x2="371" y2="45.1" fill="none" stroke="#000" stroke-miterlimit="10"/><polygon points="111.5 48.8 105 45.1 111.5 41.3 111.5 48.8"/><line x1="105" y1="105.4" x2="365.6" y2="105.4" fill="none" stroke="#000" stroke-miterlimit="10"/><polygon points="364.5 109.1 370.9 105.4 364.5 101.6 364.5 109.1"/><line x1="110.4" y1="140.7" x2="371" y2="140.7" fill="none" stroke="#000" stroke-miterlimit="10"/><polygon points="111.5 144.4 105 140.7 111.5 136.9 111.5 144.4"/><use width="20" height="20" transform="matrix(1, 0, 0, -1, 158.88, 150.2)" xlink:href="#a"/><use width="20" height="20" transform="matrix(1, 0, 0, -1, 158.88, 115.36)" xlink:href="#b"/><use width="20" height="20" transform="matrix(1, 0, 0, -1, 158.88, 55.08)" xlink:href="#c"/><use width="20" height="20" transform="matrix(1, 0, 0, -1, 158.88, 25.2)" xlink:href="#d"/><path d="M20.5,28.7A1.6,1.6,0,0,1,22,27.1H84.9a1.6,1.6,0,0,1,1.6,1.5h0V65.9A1.5,1.5,0,0,1,85,67.4H22.1a1.6,1.6,0,0,1-1.6-1.5h0Zm-3.4-1.8V67.6a3.2,3.2,0,0,0,3.2,3.3H86.7A3.3,3.3,0,0,0,90,67.6h0V26.9a3.3,3.3,0,0,0-3.3-3.3H20.3A3.3,3.3,0,0,0,17,26.9Z" transform="translate(-1)" fill="#1a1a1f"/><path d="M14.4,74.4H92.6a.9.9,0,0,1,.9.8h0v2.5a.9.9,0,0,1-.9.9H14.4a.9.9,0,0,1-.9-.9h0V75.3a.9.9,0,0,1,.9-.9Z" transform="translate(-1)" fill="#1a1a1f"/><path d="M44.6,75.9H62.4a.3.3,0,0,1,.3.3v.7a.3.3,0,0,1-.3.3H44.6a.3.3,0,0,1-.3-.3v-.7A.3.3,0,0,1,44.6,75.9Z" transform="translate(-1)" fill="#fff"/><path d="M38,36.3l12.7-1.7V46.8H38ZM50.7,48.2V60.3L38,58.6V48.1Zm1.5-13.9L69,31.9V46.6H52.2ZM69,48.3V62.9L52.2,60.5V48.2Z" transform="translate(-1)" fill="#0078d4"/><polygon points="192.6 26.2 185 31.6 187.9 40.5 197.2 40.5 200.1 31.6 192.6 26.2" fill="#ebebeb" stroke="#000" stroke-miterlimit="10" stroke-width="0.75"/><polygon points="192.6 86.5 185 91.9 187.9 100.7 197.2 100.7 200.1 91.9 192.6 86.5" fill="#ebebeb" stroke="#000" stroke-miterlimit="10" stroke-width="0.75"/><path d="M24.9,99H22.8l-.6-1.9h-3L18.7,99H16.6l3.1-8.4h2.2Zm-3.1-3.3-.9-2.9a1.5,1.5,0,0,1-.1-.7h-.1c0,.2-.1.5-.1.7l-1,2.9Z" transform="translate(-1)" stroke="#000" stroke-miterlimit="10" stroke-width="0.05"/><path d="M27.6,98.3h0v3.5H25.8V93h1.8v.9h0a2.3,2.3,0,0,1,2-1.1,2.5,2.5,0,0,1,1.8.8,3.8,3.8,0,0,1,.6,2.2,3.6,3.6,0,0,1-.7,2.4,2.5,2.5,0,0,1-2,.9A1.9,1.9,0,0,1,27.6,98.3Zm0-2.5v.5a1.5,1.5,0,0,0,.3,1,1,1,0,0,0,.9.4,1.1,1.1,0,0,0,1-.5,2.6,2.6,0,0,0,.3-1.4q0-1.5-1.2-1.5a1.3,1.3,0,0,0-1,.4A2,2,0,0,0,27.6,95.8Z" transform="translate(-1)" stroke="#000" stroke-miterlimit="10" stroke-width="0.05"/><path d="M35.1,99H33.2V90.1h1.9Z" transform="translate(-1)" stroke="#000" stroke-miterlimit="10" stroke-width="0.05"/><path d="M37.5,92a.8.8,0,0,1-.7-.2,1,1,0,0,1,.7-1.7,1,1,0,0,1,.8.3,1,1,0,0,1,0,1.4C38.1,92,37.9,92,37.5,92Zm1,7H36.6V93h1.9Z" transform="translate(-1)" stroke="#000" stroke-miterlimit="10" stroke-width="0.05"/><path d="M44.6,98.8a4.8,4.8,0,0,1-1.8.3,3,3,0,0,1-2.3-.8,2.9,2.9,0,0,1-.8-2.2,3.5,3.5,0,0,1,4.9-3v1.6a2.2,2.2,0,0,0-1.3-.4,1.7,1.7,0,0,0-1.3.4,1.9,1.9,0,0,0,0,2.6,1.6,1.6,0,0,0,1.2.4,2.5,2.5,0,0,0,1.4-.4Z" transform="translate(-1)" stroke="#000" stroke-miterlimit="10" stroke-width="0.05"/><path d="M50.8,99H49v-.9h0a1.9,1.9,0,0,1-1.8,1,1.7,1.7,0,0,1-1.9-1.8c0-1.1.7-1.8,2.1-2l1.6-.2c0-.7-.3-1-1-1a4.2,4.2,0,0,0-2.1.6V93.4L47,93l1.2-.2a2.3,2.3,0,0,1,2.6,2.6ZM49,96.6v-.4H47.9c-.6.1-.9.3-.9.8a.5.5,0,0,0,.3.5c.1.2.3.2.6.2a1.1,1.1,0,0,0,.8-.3A1.6,1.6,0,0,0,49,96.6Z" transform="translate(-1)" stroke="#000" stroke-miterlimit="10" stroke-width="0.05"/><path d="M55.9,98.9a2.4,2.4,0,0,1-1.3.2c-1.3,0-1.9-.6-1.9-2V94.4h-1V93h1V91.7l1.8-.5V93h1.4v1.4H54.5v2.4c0,.6.3.9.8.9h.6Z" transform="translate(-1)" stroke="#000" stroke-miterlimit="10" stroke-width="0.05"/><path d="M57.8,92a.8.8,0,0,1-.7-.2,1,1,0,0,1,.7-1.7,1,1,0,0,1,.8.3,1,1,0,0,1,0,1.4C58.4,92,58.2,92,57.8,92Zm1,7H56.9V93h1.9Z" transform="translate(-1)" stroke="#000" stroke-miterlimit="10" stroke-width="0.05"/><path d="M66,93l-2.2,6H61.7l-2.1-6h1.9l1.1,3.7a5.2,5.2,0,0,1,.2,1.1h0a5.2,5.2,0,0,1,.2-1.1L64.1,93Z" transform="translate(-1)" stroke="#000" stroke-miterlimit="10" stroke-width="0.05"/><path d="M69.6,99.1a3.2,3.2,0,0,1-2.4-.8,3,3,0,0,1-.9-2.3,2.9,2.9,0,0,1,.9-2.3,3.7,3.7,0,0,1,4.8,0,2.7,2.7,0,0,1,.8,2.2,3.6,3.6,0,0,1-.8,2.4A3.2,3.2,0,0,1,69.6,99.1Zm0-4.8a1.2,1.2,0,0,0-1,.4,1.7,1.7,0,0,0-.4,1.3c0,1.1.5,1.7,1.4,1.7s1.4-.6,1.4-1.8S70.5,94.3,69.6,94.3Z" transform="translate(-1)" stroke="#000" stroke-miterlimit="10" stroke-width="0.05"/><path d="M83.2,99H81.4v-.8h-.1a2,2,0,0,1-1.8.9,1.9,1.9,0,0,1-1.8-.8,2.9,2.9,0,0,1-.7-2.2,3.6,3.6,0,0,1,.7-2.4,2.7,2.7,0,0,1,2-.9,1.6,1.6,0,0,1,1.6.9h.1V90.1h1.8Zm-1.8-2.9v-.5a1.2,1.2,0,0,0-1.2-1.3,1.3,1.3,0,0,0-1,.4,2.9,2.9,0,0,0-.3,1.4,2.1,2.1,0,0,0,.3,1.2,1,1,0,0,0,.9.4,1.3,1.3,0,0,0,1-.4A2.1,2.1,0,0,0,81.4,96.1Z" transform="translate(-1)" stroke="#000" stroke-miterlimit="10" stroke-width="0.05"/><path d="M89.8,99H88v-.9h0a1.9,1.9,0,0,1-1.8,1,1.7,1.7,0,0,1-1.9-1.8c0-1.1.7-1.8,2.1-2l1.6-.2c0-.7-.3-1-1-1a4.2,4.2,0,0,0-2.1.6V93.4L86,93l1.2-.2a2.3,2.3,0,0,1,2.6,2.6ZM88,96.6v-.4H86.9c-.6.1-.9.3-.9.8a.5.5,0,0,0,.3.5c.1.2.3.2.6.2a1.1,1.1,0,0,0,.8-.3A1.6,1.6,0,0,0,88,96.6Z" transform="translate(-1)" stroke="#000" stroke-miterlimit="10" stroke-width="0.05"/><path d="M40.2,113.4H38.1l-.6-1.9h-3l-.6,1.9h-2l3-8.4h2.3Zm-2.3-11.1-1.8,1.9H34.7l1.6-1.9Zm-.8,7.8-.9-2.9a6.4,6.4,0,0,1-.2-.7h0a1.9,1.9,0,0,1-.2.7l-.9,2.9Z" transform="translate(-1)" stroke="#000" stroke-miterlimit="10" stroke-width="0.05"/><path d="M45,109.1a1.2,1.2,0,0,0-.8-.2,1.3,1.3,0,0,0-1,.4,2.1,2.1,0,0,0-.3,1.2v2.9H41v-6h1.9v1.1h0a1.6,1.6,0,0,1,1.6-1.2H45Z" transform="translate(-1)" stroke="#000" stroke-miterlimit="10" stroke-width="0.05"/><path d="M51.2,110.9h-4c.1.9.7,1.3,1.7,1.3a3.1,3.1,0,0,0,1.7-.4v1.3a4.1,4.1,0,0,1-2.1.4,3,3,0,0,1-2.3-.8,3.1,3.1,0,0,1-.8-2.2,3.2,3.2,0,0,1,.9-2.4,2.9,2.9,0,0,1,2.1-.9,2.5,2.5,0,0,1,2,.8,3,3,0,0,1,.8,2.1Zm-1.8-1.1c0-.9-.3-1.3-1-1.3a.9.9,0,0,0-.8.4,1.9,1.9,0,0,0-.4.9Z" transform="translate(-1)" stroke="#000" stroke-miterlimit="10" stroke-width="0.05"/><path d="M57.3,113.4H55.5v-.9h0a1.9,1.9,0,0,1-1.8,1,1.7,1.7,0,0,1-1.9-1.8c0-1.1.7-1.8,2.1-2l1.6-.2c0-.7-.3-1-1.1-1a3.9,3.9,0,0,0-2,.6v-1.3l1.1-.4,1.2-.2a2.3,2.3,0,0,1,2.6,2.6ZM55.5,111v-.4H54.4c-.6.1-.9.3-.9.8a.8.8,0,0,0,.2.5.7.7,0,0,0,.6.2,1.2,1.2,0,0,0,.9-.3A1.6,1.6,0,0,0,55.5,111Z" transform="translate(-1)" stroke="#000" stroke-miterlimit="10" stroke-width="0.05"/><path d="M67.9,113.4H66.1v-.8H66a2,2,0,0,1-1.8.9,1.9,1.9,0,0,1-1.8-.8,2.9,2.9,0,0,1-.7-2.2,3.6,3.6,0,0,1,.7-2.4,2.5,2.5,0,0,1,2-.9,1.6,1.6,0,0,1,1.6.9h.1v-3.6h1.8Zm-1.8-2.9V110a1,1,0,0,0-.4-.9.9.9,0,0,0-.8-.4,1.2,1.2,0,0,0-1,.4,2.9,2.9,0,0,0-.3,1.4,2.1,2.1,0,0,0,.3,1.2,1.2,1.2,0,0,0,1.8,0A1.6,1.6,0,0,0,66.1,110.5Z" transform="translate(-1)" stroke="#000" stroke-miterlimit="10" stroke-width="0.05"/><path d="M74.9,110.9h-4c.1.9.6,1.3,1.7,1.3a3.3,3.3,0,0,0,1.7-.4v1.3a4.4,4.4,0,0,1-2.1.4,2.8,2.8,0,0,1-2.3-.8,3.1,3.1,0,0,1-.8-2.2,3.2,3.2,0,0,1,.9-2.4,2.7,2.7,0,0,1,2.1-.9,2.5,2.5,0,0,1,2,.8,3,3,0,0,1,.8,2.1Zm-1.8-1.1c0-.9-.3-1.3-1-1.3a.9.9,0,0,0-.8.4,1.9,1.9,0,0,0-.4.9Z" transform="translate(-1)" stroke="#000" stroke-miterlimit="10" stroke-width="0.05"/><path d="M26.8,120.9H24.4v6.9H22.5v-6.9H20.1v-1.5h6.7Z" transform="translate(-1)" stroke="#000" stroke-miterlimit="10" stroke-width="0.05"/><path d="M30.7,123.5a1.1,1.1,0,0,0-.8-.2,1,1,0,0,0-.9.4,2.1,2.1,0,0,0-.3,1.2v2.9H26.8v-6h1.9v1.1h0a1.6,1.6,0,0,1,1.6-1.2h.4Z" transform="translate(-1)" stroke="#000" stroke-miterlimit="10" stroke-width="0.05"/><path d="M36.6,127.8H34.8v-.9h0a1.9,1.9,0,0,1-1.8,1,1.7,1.7,0,0,1-1.9-1.8c0-1.1.7-1.8,2.1-2l1.6-.2c0-.7-.3-1-1-1a4.2,4.2,0,0,0-2.1.6v-1.3l1.1-.4,1.2-.2a2.3,2.3,0,0,1,2.6,2.6Zm-1.8-2.4V125h-1c-.7.1-1,.3-1,.8a.5.5,0,0,0,.3.5c.1.2.3.2.6.2a1.1,1.1,0,0,0,.8-.3A1.6,1.6,0,0,0,34.8,125.4Z" transform="translate(-1)" stroke="#000" stroke-miterlimit="10" stroke-width="0.05"/><path d="M39.9,127.1h0v.7H38v-8.9h1.9v3.8h0a2.3,2.3,0,0,1,2-1.1,2.5,2.5,0,0,1,1.8.8,3.8,3.8,0,0,1,.6,2.2,4.3,4.3,0,0,1-.7,2.4,2.5,2.5,0,0,1-2,.9A1.9,1.9,0,0,1,39.9,127.1Zm0-2.5v.6a1.2,1.2,0,0,0,.3.9,1,1,0,0,0,.9.4.9.9,0,0,0,.9-.5,2,2,0,0,0,.4-1.4,2,2,0,0,0-.3-1.1,1,1,0,0,0-.9-.4,1.3,1.3,0,0,0-1,.4A1.8,1.8,0,0,0,39.9,124.6Z" transform="translate(-1)" stroke="#000" stroke-miterlimit="10" stroke-width="0.05"/><path d="M50.4,127.8H48.6v-.9h0a1.9,1.9,0,0,1-1.8,1,1.7,1.7,0,0,1-1.9-1.8c0-1.1.7-1.8,2.1-2l1.6-.2c0-.7-.3-1-1-1a3.9,3.9,0,0,0-2.1.6v-1.3l1.1-.4,1.2-.2a2.3,2.3,0,0,1,2.6,2.6Zm-1.8-2.4V125H47.5c-.6.1-.9.3-.9.8a.8.8,0,0,0,.2.5.7.7,0,0,0,.6.2,1.2,1.2,0,0,0,.9-.3A1.6,1.6,0,0,0,48.6,125.4Z" transform="translate(-1)" stroke="#000" stroke-miterlimit="10" stroke-width="0.05"/><path d="M53.7,127.8H51.8v-8.9h1.9Z" transform="translate(-1)" stroke="#000" stroke-miterlimit="10" stroke-width="0.05"/><path d="M61,127.8H59.2v-3.4c0-.9-.4-1.3-1-1.3a1.1,1.1,0,0,0-.8.3,1.7,1.7,0,0,0-.3,1v3.4H55.2v-8.9h1.9v3.8h0a2.3,2.3,0,0,1,1.9-1.1c1.3,0,2,.9,2,2.5Z" transform="translate(-1)" stroke="#000" stroke-miterlimit="10" stroke-width="0.05"/><path d="M65.3,127.9a2.8,2.8,0,0,1-2.3-.8,3,3,0,0,1-.9-2.3,2.9,2.9,0,0,1,.9-2.3,3.2,3.2,0,0,1,2.4-.9,2.9,2.9,0,0,1,2.3.9,2.8,2.8,0,0,1,.9,2.2,3.2,3.2,0,0,1-.9,2.4A3.2,3.2,0,0,1,65.3,127.9Zm.1-4.8a1.4,1.4,0,0,0-1.1.4,2.3,2.3,0,0,0-.3,1.3c0,1.1.5,1.7,1.4,1.7s1.3-.6,1.3-1.8S66.3,123.1,65.4,123.1Z" transform="translate(-1)" stroke="#000" stroke-miterlimit="10" stroke-width="0.05"/><path d="M79,127.8H77.1V127h0a2.1,2.1,0,0,1-1.9.9,2.2,2.2,0,0,1-1.8-.8,3.4,3.4,0,0,1-.6-2.2,3.6,3.6,0,0,1,.7-2.4,2.5,2.5,0,0,1,2-.9,1.6,1.6,0,0,1,1.6.9h0v-3.6H79Zm-1.8-2.9v-.5a1.3,1.3,0,0,0-.4-.9,1.2,1.2,0,0,0-1.8,0,2.1,2.1,0,0,0-.4,1.4,1.6,1.6,0,0,0,.4,1.2,1.2,1.2,0,0,0,1.8,0A2.1,2.1,0,0,0,77.2,124.9Z" transform="translate(-1)" stroke="#000" stroke-miterlimit="10" stroke-width="0.05"/><path d="M83.4,127.9a3.2,3.2,0,0,1-2.4-.8,3.4,3.4,0,0,1-.8-2.3,2.9,2.9,0,0,1,.9-2.3,3.2,3.2,0,0,1,2.4-.9,2.9,2.9,0,0,1,2.3.9,2.8,2.8,0,0,1,.9,2.2,3.2,3.2,0,0,1-.9,2.4A3.2,3.2,0,0,1,83.4,127.9Zm0-4.8a1.3,1.3,0,0,0-1,.4,2.3,2.3,0,0,0-.3,1.3c0,1.1.4,1.7,1.4,1.7s1.3-.6,1.3-1.8S84.3,123.1,83.4,123.1Z" transform="translate(-1)" stroke="#000" stroke-miterlimit="10" stroke-width="0.05"/><path d="M39.3,133.8l-2.2,8.4H35l-1.4-5.4c-.1-.3-.1-.6-.2-.9h0c0,.3-.1.7-.1.9l-1.5,5.4H29.6l-2.2-8.4h2.1l1.2,5.6c0,.2.1.5.1.9h0a2.9,2.9,0,0,1,.2-.9l1.5-5.6h2.1l1.3,5.6a6.4,6.4,0,0,1,.2.9h0a2.8,2.8,0,0,1,.1-.9l1.2-5.6Z" transform="translate(-1)" stroke="#000" stroke-miterlimit="10" stroke-width="0.05"/><path d="M41.1,135.2a1.1,1.1,0,0,1-.8-.2,1,1,0,0,1,0-1.4,1.2,1.2,0,0,1,1.6,0,1,1,0,0,1,0,1.4A1.1,1.1,0,0,1,41.1,135.2Zm.9,7H40.2v-6H42Z" transform="translate(-1)" stroke="#000" stroke-miterlimit="10" stroke-width="0.05"/><path d="M49.4,142.2H47.5v-3.3c0-1-.3-1.4-1-1.4a1.1,1.1,0,0,0-.8.3,1.7,1.7,0,0,0-.3,1v3.4H43.6v-6h1.8v.9h.1a2,2,0,0,1,1.9-1.1c1.3,0,2,.9,2,2.5Z" transform="translate(-1)" stroke="#000" stroke-miterlimit="10" stroke-width="0.05"/><path d="M56.7,142.2H54.9v-.8h-.1a2,2,0,0,1-1.8.9,1.9,1.9,0,0,1-1.8-.8,2.9,2.9,0,0,1-.7-2.2,3.6,3.6,0,0,1,.7-2.4,2.5,2.5,0,0,1,2-.9,1.6,1.6,0,0,1,1.6.9h.1v-3.6h1.8Zm-1.8-2.9v-.5a1.2,1.2,0,0,0-1.2-1.3,1.2,1.2,0,0,0-1,.4,2.9,2.9,0,0,0-.3,1.4,2.1,2.1,0,0,0,.3,1.2,1.2,1.2,0,0,0,1.8,0A1.6,1.6,0,0,0,54.9,139.3Z" transform="translate(-1)" stroke="#000" stroke-miterlimit="10" stroke-width="0.05"/><path d="M61.1,142.3a2.8,2.8,0,0,1-2.3-.8,3,3,0,0,1-.9-2.3,2.9,2.9,0,0,1,.9-2.3,3.7,3.7,0,0,1,4.8,0,3.1,3.1,0,0,1,.8,2.2,3.2,3.2,0,0,1-.9,2.4A3.2,3.2,0,0,1,61.1,142.3Zm.1-4.8a1.1,1.1,0,0,0-1,.4,1.7,1.7,0,0,0-.4,1.3c0,1.1.5,1.7,1.4,1.7s1.3-.6,1.3-1.8S62.1,137.5,61.2,137.5Z" transform="translate(-1)" stroke="#000" stroke-miterlimit="10" stroke-width="0.05"/><path d="M74.3,136.2l-1.7,6h-2l-.9-3.5c0-.3-.1-.5-.1-.8h0c0,.3-.1.6-.1.8l-1,3.5H66.6l-1.7-6h1.9l.8,3.9a1.5,1.5,0,0,1,.1.7h.1a1.5,1.5,0,0,1,.1-.7l1-3.9h1.8l.9,3.9a2.6,2.6,0,0,0,.1.7h0c0-.2.1-.5.1-.7l.8-3.9Z" transform="translate(-1)" stroke="#000" stroke-miterlimit="10" stroke-width="0.05"/><path d="M74.8,142v-1.5a1.8,1.8,0,0,0,.9.4l.8.2.8-.2c.2,0,.3-.2.3-.4a.4.4,0,0,0-.1-.3l-.4-.2h-.4l-.5-.2-.6-.3-.4-.3c-.2-.2-.3-.3-.3-.5a1.3,1.3,0,0,1-.1-.6,2,2,0,0,1,.2-.9.9.9,0,0,1,.6-.6,1.1,1.1,0,0,1,.8-.3l1-.2h.8l.8.2v1.4l-.7-.3H76.9l-.2.2c-.1.1-.1.1-.1.2a.4.4,0,0,0,.1.3l.3.2h.3l.5.2.6.3.5.3.4.5c0,.2.1.4.1.7a2.9,2.9,0,0,1-.2.9l-.7.6a1.9,1.9,0,0,1-.8.3H76.6A5.2,5.2,0,0,1,74.8,142Z" transform="translate(-1)" stroke="#000" stroke-miterlimit="10" stroke-width="0.05"/><path d="M213.4,86.3h-1V82.5h-4.3v3.8h-1V77.9h1v3.7h4.3V77.9h1Z" transform="translate(-1)" fill="#1e1e1e" stroke="#1e1e1e" stroke-miterlimit="10" stroke-width="0.06"/><path d="M220.5,78.8h-2.4v7.5h-1V78.8h-2.4v-.9h5.8Z" transform="translate(-1)" fill="#1e1e1e" stroke="#1e1e1e" stroke-miterlimit="10" stroke-width="0.06"/><path d="M227,78.8h-2.5v7.5h-.9V78.8h-2.5v-.9H227Z" transform="translate(-1)" fill="#1e1e1e" stroke="#1e1e1e" stroke-miterlimit="10" stroke-width="0.06"/><path d="M229.2,83.1v3.2h-1V77.9h2.3a3.3,3.3,0,0,1,2.1.6,2.6,2.6,0,0,1,.8,1.9,2.7,2.7,0,0,1-.9,2,3.1,3.1,0,0,1-2.2.7Zm0-4.3v3.4h1a2.5,2.5,0,0,0,1.6-.4,2,2,0,0,0,.5-1.4c0-1.1-.6-1.6-1.9-1.6Z" transform="translate(-1)" fill="#1e1e1e" stroke="#1e1e1e" stroke-miterlimit="10" stroke-width="0.06"/><path d="M244.4,85.7a5.5,5.5,0,0,1-2.8.7,4.4,4.4,0,0,1-3-1.1,4.5,4.5,0,0,1-1.1-3.1,4.1,4.1,0,0,1,1.3-3.2,4.1,4.1,0,0,1,3.1-1.2,5.3,5.3,0,0,1,2.3.4v1.1a4.8,4.8,0,0,0-2.4-.7,3.1,3.1,0,0,0-2.3,1,3.7,3.7,0,0,0-.9,2.5,3.3,3.3,0,0,0,.8,2.5,3,3,0,0,0,2.3.9,4.7,4.7,0,0,0,1.7-.3V82.8h-1.9v-.9h2.9Z" transform="translate(-1)" fill="#1e1e1e" stroke="#1e1e1e" stroke-miterlimit="10" stroke-width="0.06"/><path d="M250.7,86.3h-4.5V77.9h4.3v.9h-3.3v2.8h3.1v.9h-3.1v2.9h3.5Z" transform="translate(-1)" fill="#1e1e1e" stroke="#1e1e1e" stroke-miterlimit="10" stroke-width="0.06"/><path d="M257.2,78.8h-2.4v7.5h-1V78.8h-2.4v-.9h5.8Z" transform="translate(-1)" fill="#1e1e1e" stroke="#1e1e1e" stroke-miterlimit="10" stroke-width="0.06"/><path d="M267.4,83.2h-2.3v2.3h-.8V83.2h-2.4v-.8h2.4V80h.8v2.4h2.3Z" transform="translate(-1)" fill="#1e1e1e" stroke="#1e1e1e" stroke-miterlimit="10" stroke-width="0.06"/><path d="M212.1,93h-2.5v7.5h-.9V93h-2.5v-.9h5.9Z" transform="translate(-1)" fill="#1e1e1e" stroke="#1e1e1e" stroke-miterlimit="10" stroke-width="0.06"/><path d="M214.5,100.6a2.5,2.5,0,0,1-2.1-.8,3.3,3.3,0,0,1-.8-2.2,3.6,3.6,0,0,1,.8-2.4,3,3,0,0,1,2.3-.8,2.5,2.5,0,0,1,2.1.8,3.2,3.2,0,0,1,.7,2.3,3.6,3.6,0,0,1-.8,2.3A3.1,3.1,0,0,1,214.5,100.6Zm.1-5.4a2,2,0,0,0-1.5.6,3.1,3.1,0,0,0,0,3.4,2,2,0,0,0,1.5.6,1.7,1.7,0,0,0,1.4-.6,3.1,3.1,0,0,0,0-3.4A1.7,1.7,0,0,0,214.6,95.2Z" transform="translate(-1)" fill="#1e1e1e" stroke="#1e1e1e" stroke-miterlimit="10" stroke-width="0.06"/><path d="M224,100.5h-1.4L220,97.6h-.1v2.9H219V91.6h.9v5.6h.1l2.5-2.7h1.2L221,97.4Z" transform="translate(-1)" fill="#1e1e1e" stroke="#1e1e1e" stroke-miterlimit="10" stroke-width="0.06"/><path d="M229.7,97.7h-4.2a2.5,2.5,0,0,0,.5,1.6,2,2,0,0,0,1.4.5,3.3,3.3,0,0,0,1.9-.6v.9a4.1,4.1,0,0,1-2.1.5,2.3,2.3,0,0,1-2-.8,3.2,3.2,0,0,1-.7-2.3,3.1,3.1,0,0,1,.8-2.3,2.2,2.2,0,0,1,1.9-.8,2.5,2.5,0,0,1,1.9.7,3.3,3.3,0,0,1,.6,2.1Zm-1-.8a1.8,1.8,0,0,0-.4-1.3,1.4,1.4,0,0,0-1.1-.4,1.5,1.5,0,0,0-1.1.4,1.8,1.8,0,0,0-.6,1.3Z" transform="translate(-1)" fill="#1e1e1e" stroke="#1e1e1e" stroke-miterlimit="10" stroke-width="0.06"/><path d="M236.1,100.5h-1V97.1c0-1.3-.5-1.9-1.4-1.9a1.3,1.3,0,0,0-1.2.5,2.2,2.2,0,0,0-.5,1.4v3.4h-.9v-6h.9v1h.1a2,2,0,0,1,1.9-1.1,1.8,1.8,0,0,1,1.5.6,2.4,2.4,0,0,1,.6,1.8Z" transform="translate(-1)" fill="#1e1e1e" stroke="#1e1e1e" stroke-miterlimit="10" stroke-width="0.06"/><path d="M246.1,100.5h-.9v-1h-.1a2.2,2.2,0,0,1-2,1.1,1.9,1.9,0,0,1-1.8-.8,2.9,2.9,0,0,1-.7-2.2,3.6,3.6,0,0,1,.7-2.4,2.8,2.8,0,0,1,2-.8,1.8,1.8,0,0,1,1.8.9h.1V91.6h.9Zm-.9-2.7v-.9a1.7,1.7,0,0,0-.5-1.2,1.3,1.3,0,0,0-1.2-.5,1.7,1.7,0,0,0-1.4.6,3,3,0,0,0-.5,1.8,2.1,2.1,0,0,0,.5,1.6,1.5,1.5,0,0,0,1.3.6,1.8,1.8,0,0,0,1.3-.6A2,2,0,0,0,245.2,97.8Z" transform="translate(-1)" fill="#1e1e1e" stroke="#1e1e1e" stroke-miterlimit="10" stroke-width="0.06"/><path d="M252.8,97.7h-4.2a2.5,2.5,0,0,0,.5,1.6,2.2,2.2,0,0,0,1.4.5,3.3,3.3,0,0,0,1.9-.6v.9a4.1,4.1,0,0,1-2.1.5,2.4,2.4,0,0,1-2-.8,3.2,3.2,0,0,1-.7-2.3,3.6,3.6,0,0,1,.8-2.3,2.4,2.4,0,0,1,2-.8,2.3,2.3,0,0,1,1.8.7,3.3,3.3,0,0,1,.6,2.1Zm-1-.8a1.8,1.8,0,0,0-.4-1.3,1.2,1.2,0,0,0-1.1-.4,1.5,1.5,0,0,0-1.1.4,3.1,3.1,0,0,0-.6,1.3Z" transform="translate(-1)" fill="#1e1e1e" stroke="#1e1e1e" stroke-miterlimit="10" stroke-width="0.06"/><path d="M261.7,100.5h-.9v-.9h-.1a1.9,1.9,0,0,1-1.8,1,2,2,0,0,1-1.4-.4,1.7,1.7,0,0,1-.5-1.3c0-1.1.6-1.8,2-2l1.8-.2c0-1-.5-1.5-1.3-1.5a2.6,2.6,0,0,0-1.9.7v-1a3.3,3.3,0,0,1,2-.5c1.4,0,2.1.7,2.1,2.2Zm-.9-3-1.5.2a1.5,1.5,0,0,0-1,.3c-.2.1-.3.4-.3.8a.8.8,0,0,0,.3.7,1.1,1.1,0,0,0,.8.3,1.3,1.3,0,0,0,1.2-.5,1.7,1.7,0,0,0,.5-1.2Z" transform="translate(-1)" fill="#1e1e1e" stroke="#1e1e1e" stroke-miterlimit="10" stroke-width="0.06"/><path d="M267.5,100.2a2.7,2.7,0,0,1-1.6.4,2.6,2.6,0,0,1-2.1-.8,3.3,3.3,0,0,1-.8-2.2,3.1,3.1,0,0,1,3.2-3.2l1.4.2v1a2.8,2.8,0,0,0-1.5-.4,2,2,0,0,0-1.5.6,2.6,2.6,0,0,0-.6,1.8,2.1,2.1,0,0,0,.6,1.6,2.2,2.2,0,0,0,2.9.1Z" transform="translate(-1)" fill="#1e1e1e" stroke="#1e1e1e" stroke-miterlimit="10" stroke-width="0.06"/><path d="M273.7,97.7h-4.2a2.1,2.1,0,0,0,.6,1.6,2,2,0,0,0,1.4.5,3,3,0,0,0,1.8-.6v.9a4.1,4.1,0,0,1-2.1.5,2.4,2.4,0,0,1-2-.8,3.7,3.7,0,0,1-.7-2.3,3.6,3.6,0,0,1,.8-2.3,2.4,2.4,0,0,1,2-.8,2.1,2.1,0,0,1,1.8.7,3.3,3.3,0,0,1,.6,2.1Zm-.9-.8a2.5,2.5,0,0,0-.4-1.3,1.5,1.5,0,0,0-1.1-.4,1.6,1.6,0,0,0-1.2.4,3.1,3.1,0,0,0-.6,1.3Z" transform="translate(-1)" fill="#1e1e1e" stroke="#1e1e1e" stroke-miterlimit="10" stroke-width="0.06"/><path d="M274.8,100.3V99.2a2.7,2.7,0,0,0,1.7.6c.8,0,1.3-.3,1.3-.8s-.1-.3-.1-.4l-.3-.3-.5-.3-.5-.2-.7-.3-.5-.3-.3-.5a1.3,1.3,0,0,1-.1-.6,1.2,1.2,0,0,1,.2-.8l.5-.5a.9.9,0,0,1,.7-.3h.9a3.2,3.2,0,0,1,1.4.2v1a2.9,2.9,0,0,0-1.6-.4h-.4l-.4.2-.3.3v.7l.3.3.4.2.5.2.7.3.6.4.3.5c.1.1.1.3.1.6a1.2,1.2,0,0,1-.2.8l-.5.5a.9.9,0,0,1-.7.3h-.9A3.8,3.8,0,0,1,274.8,100.3Z" transform="translate(-1)" fill="#1e1e1e" stroke="#1e1e1e" stroke-miterlimit="10" stroke-width="0.06"/><path d="M279.8,100.3V99.2a2.7,2.7,0,0,0,1.7.6c.9,0,1.3-.3,1.3-.8s-.1-.3-.1-.4l-.3-.3-.5-.3-.5-.2-.7-.3-.5-.3-.3-.5a1.3,1.3,0,0,1-.1-.6,2.4,2.4,0,0,1,.2-.8l.5-.5a1.1,1.1,0,0,1,.7-.3h.9a3.2,3.2,0,0,1,1.4.2v1a2.8,2.8,0,0,0-1.5-.4h-.5l-.4.2c-.1.1-.2.2-.2.3a.4.4,0,0,0-.1.3c0,.2,0,.3.1.4l.2.3.4.2.5.2.8.3.5.4a.5.5,0,0,1,.3.5.8.8,0,0,1,.2.6,2.4,2.4,0,0,1-.2.8c-.2.2-.3.4-.6.5a.9.9,0,0,1-.7.3h-.9A3.8,3.8,0,0,1,279.8,100.3Z" transform="translate(-1)" fill="#1e1e1e" stroke="#1e1e1e" stroke-miterlimit="10" stroke-width="0.06"/><path d="M287.7,100.6a2.5,2.5,0,0,1-2.1-.8,2.9,2.9,0,0,1-.8-2.2,3.2,3.2,0,0,1,.8-2.4,2.7,2.7,0,0,1,2.2-.8,2.5,2.5,0,0,1,2.1.8,3.2,3.2,0,0,1,.8,2.3,3.6,3.6,0,0,1-.8,2.3A3.3,3.3,0,0,1,287.7,100.6Zm0-5.4a1.7,1.7,0,0,0-1.4.6,2.7,2.7,0,0,0,0,3.4,1.8,1.8,0,0,0,1.4.6,1.9,1.9,0,0,0,1.5-.6,3.1,3.1,0,0,0,0-3.4A1.9,1.9,0,0,0,287.7,95.2Z" transform="translate(-1)" fill="#1e1e1e" stroke="#1e1e1e" stroke-miterlimit="10" stroke-width="0.06"/><path d="M396.1,30.3v2.9h-1.9V24.8h2.9c2.2,0,3.2.9,3.2,2.7a2.5,2.5,0,0,1-.9,2,3.2,3.2,0,0,1-2.4.8Zm0-4v2.6h.7c1,0,1.5-.5,1.5-1.3s-.5-1.3-1.5-1.3Z" transform="translate(-1)" fill="#fff" stroke="#fff" stroke-miterlimit="10" stroke-width="0.05"/><path d="M403.2,33.2h-1.8V24.3h1.8Z" transform="translate(-1)" fill="#fff" stroke="#fff" stroke-miterlimit="10" stroke-width="0.05"/><path d="M409.8,33.2H408v-.8h0a2.1,2.1,0,0,1-1.8,1,1.7,1.7,0,0,1-1.9-1.9c0-1.1.7-1.8,2.1-2l1.6-.2a.9.9,0,0,0-1-1,3.5,3.5,0,0,0-2.1.7V27.6l1.1-.4h1.2c1.7,0,2.6.8,2.6,2.5ZM408,30.8v-.4h-1.1c-.6.1-.9.4-.9.8a.5.5,0,0,0,.3.5c.1.2.3.2.6.2a1.1,1.1,0,0,0,.8-.3A1.6,1.6,0,0,0,408,30.8Z" transform="translate(-1)" fill="#fff" stroke="#fff" stroke-miterlimit="10" stroke-width="0.05"/><path d="M414.9,33.1a2.3,2.3,0,0,1-1.3.3c-1.3,0-1.9-.7-1.9-2.1V28.6h-1V27.2h1V25.9l1.8-.5v1.8h1.4v1.4h-1.4V31c0,.6.3.9.8.9h.6Z" transform="translate(-1)" fill="#fff" stroke="#fff" stroke-miterlimit="10" stroke-width="0.05"/><path d="M420.9,33.2h-1.8v-.8h0a2.1,2.1,0,0,1-1.8,1,1.9,1.9,0,0,1-1.3-.5,1.7,1.7,0,0,1-.5-1.4c0-1.1.7-1.8,2-2l1.7-.2a1,1,0,0,0-1.1-1,3.1,3.1,0,0,0-2,.7V27.6a2.3,2.3,0,0,1,1-.4h1.2c1.7,0,2.6.8,2.6,2.5Zm-1.7-2.4v-.4h-1.1c-.6.1-.9.4-.9.8s0,.4.2.5.3.2.6.2a1.1,1.1,0,0,0,.8-.3A1.8,1.8,0,0,0,419.2,30.8Z" transform="translate(-1)" fill="#fff" stroke="#fff" stroke-miterlimit="10" stroke-width="0.05"/><path d="M426.3,25.7h-.7c-.6,0-.9.3-.9,1v.6h1.4v1.4h-1.4v4.6h-1.8V28.6h-1.1V27.2h1.1v-.7a2.4,2.4,0,0,1,.6-1.7,2.8,2.8,0,0,1,1.8-.6h1Z" transform="translate(-1)" fill="#fff" stroke="#fff" stroke-miterlimit="10" stroke-width="0.05"/><path d="M429.8,33.4a3.1,3.1,0,0,1-3.2-3.2,3,3,0,0,1,.9-2.3,3.2,3.2,0,0,1,2.4-.8,2.8,2.8,0,0,1,2.3.8,2.9,2.9,0,0,1,.9,2.2,3.1,3.1,0,0,1-3.3,3.3Zm.1-4.9a1.1,1.1,0,0,0-1,.4,1.8,1.8,0,0,0-.4,1.3c0,1.2.5,1.7,1.4,1.7s1.3-.6,1.3-1.7S430.8,28.5,429.9,28.5Z" transform="translate(-1)" fill="#fff" stroke="#fff" stroke-miterlimit="10" stroke-width="0.05"/><path d="M438.2,28.9l-.8-.2a1,1,0,0,0-.9.4,2.1,2.1,0,0,0-.3,1.2v2.9h-1.9v-6h1.9v1.1h0a1.6,1.6,0,0,1,1.6-1.2h.4Z" transform="translate(-1)" fill="#fff" stroke="#fff" stroke-miterlimit="10" stroke-width="0.05"/><path d="M448.6,33.2h-1.8V29.8c0-.9-.3-1.3-1-1.3a.8.8,0,0,0-.7.4,1.5,1.5,0,0,0-.3,1v3.3h-1.9V29.8c0-.9-.3-1.3-.9-1.3a.9.9,0,0,0-.8.4,2.2,2.2,0,0,0-.2,1v3.3h-1.9v-6H441v1h0a1.6,1.6,0,0,1,.8-.8,2,2,0,0,1,1.1-.3,1.7,1.7,0,0,1,1.8,1.1,2,2,0,0,1,2-1.1c1.3,0,1.9.8,1.9,2.4Z" transform="translate(-1)" fill="#fff" stroke="#fff" stroke-miterlimit="10" stroke-width="0.05"/><path d="M455.1,33.2h-1.8v-.8h0a2.1,2.1,0,0,1-1.8,1,1.9,1.9,0,0,1-1.3-.5,1.7,1.7,0,0,1-.5-1.4c0-1.1.6-1.8,2-2l1.7-.2a1,1,0,0,0-1.1-1,3.5,3.5,0,0,0-2.1.7V27.6l1.1-.4h1.2c1.7,0,2.6.8,2.6,2.5Zm-1.7-2.4v-.4h-1.1c-.6.1-.9.4-.9.8s0,.4.2.5.3.2.6.2a1.1,1.1,0,0,0,.8-.3A1.8,1.8,0,0,0,453.4,30.8Z" transform="translate(-1)" fill="#fff" stroke="#fff" stroke-miterlimit="10" stroke-width="0.05"/><path d="M392.3,47.6h-1.9v-.8h0a2.1,2.1,0,0,1-1.8,1,2.2,2.2,0,0,1-1.8-.8,3.3,3.3,0,0,1-.7-2.3,3.5,3.5,0,0,1,.7-2.3,2.5,2.5,0,0,1,2-.9,1.5,1.5,0,0,1,1.6.8h0V38.7h1.9Zm-1.8-2.9v-.5a1.1,1.1,0,0,0-.4-.9.9.9,0,0,0-.8-.4c-.5,0-.8.1-1,.5a2.2,2.2,0,0,0-.4,1.3,2.1,2.1,0,0,0,.4,1.2,1.2,1.2,0,0,0,1.8,0A1.6,1.6,0,0,0,390.5,44.7Z" transform="translate(-1)" fill="#fff" stroke="#fff" stroke-miterlimit="10" stroke-width="0.05"/><path d="M399.2,45.1h-3.9c.1.9.6,1.3,1.7,1.3a3.3,3.3,0,0,0,1.7-.4v1.3a4.3,4.3,0,0,1-2.1.5,3.2,3.2,0,0,1-2.3-.8,3.4,3.4,0,0,1-.8-2.3,3.2,3.2,0,0,1,.9-2.4,3,3,0,0,1,2.1-.8,2.6,2.6,0,0,1,2,.7,3.2,3.2,0,0,1,.7,2.2ZM397.5,44c0-.9-.3-1.3-1-1.3a.9.9,0,0,0-.8.4,1.9,1.9,0,0,0-.4.9Z" transform="translate(-1)" fill="#fff" stroke="#fff" stroke-miterlimit="10" stroke-width="0.05"/><path d="M404.6,40.7a1.1,1.1,0,0,1-.8-.3,1,1,0,0,1,0-1.4,1.7,1.7,0,0,1,1.6,0,1,1,0,0,1,0,1.4A1.1,1.1,0,0,1,404.6,40.7Zm.9,6.9h-1.8v-6h1.8Z" transform="translate(-1)" fill="#fff" stroke="#fff" stroke-miterlimit="10" stroke-width="0.05"/><path d="M412.9,47.6h-1.8v-.8h0a2.4,2.4,0,0,1-1.9,1,2.5,2.5,0,0,1-1.8-.8,3.3,3.3,0,0,1-.7-2.3,3.6,3.6,0,0,1,.8-2.3,2.3,2.3,0,0,1,1.9-.9,1.7,1.7,0,0,1,1.7.8h0V38.7h1.8Zm-1.8-2.9v-.5a1.4,1.4,0,0,0-.3-.9,1,1,0,0,0-.9-.4,1.1,1.1,0,0,0-1,.5,2.3,2.3,0,0,0-.3,1.3,2.1,2.1,0,0,0,.3,1.2,1.1,1.1,0,0,0,.9.4,1.3,1.3,0,0,0,1-.4A2.1,2.1,0,0,0,411.1,44.7Z" transform="translate(-1)" fill="#fff" stroke="#fff" stroke-miterlimit="10" stroke-width="0.05"/><path d="M419.9,45.1H416c0,.9.6,1.3,1.6,1.3a3.4,3.4,0,0,0,1.8-.4v1.3a4.8,4.8,0,0,1-2.2.5,2.8,2.8,0,0,1-3.1-3.1,2.9,2.9,0,0,1,3-3.2,2.8,2.8,0,0,1,2.1.7,3.8,3.8,0,0,1,.7,2.2ZM418.2,44c0-.9-.4-1.3-1.1-1.3a.8.8,0,0,0-.7.4,1,1,0,0,0-.4.9Z" transform="translate(-1)" fill="#fff" stroke="#fff" stroke-miterlimit="10" stroke-width="0.05"/><path d="M426.8,47.6h-1.9V44.3c0-1-.3-1.4-1-1.4a1,1,0,0,0-.8.4,1.2,1.2,0,0,0-.3.9v3.4H421v-6h1.8v1h.1a1.9,1.9,0,0,1,1.9-1.1c1.3,0,2,.8,2,2.4Z" transform="translate(-1)" fill="#fff" stroke="#fff" stroke-miterlimit="10" stroke-width="0.05"/><path d="M431.9,47.5a2.3,2.3,0,0,1-1.3.3c-1.3,0-1.9-.7-1.9-2.1V43h-1V41.6h1V40.3l1.8-.5v1.8h1.4V43h-1.4v2.4c0,.6.3.9.8.9h.6Z" transform="translate(-1)" fill="#fff" stroke="#fff" stroke-miterlimit="10" stroke-width="0.05"/><path d="M433.9,40.7a1,1,0,0,1-.8-.3,1,1,0,0,1,0-1.4c.2-.2.4-.2.8-.2a.8.8,0,0,1,.7.2,1,1,0,0,1-.7,1.7Zm.9,6.9h-1.9v-6h1.9Z" transform="translate(-1)" fill="#fff" stroke="#fff" stroke-miterlimit="10" stroke-width="0.05"/><path d="M442.2,47.6h-1.9v-.8h0a2.1,2.1,0,0,1-1.8,1,2.2,2.2,0,0,1-1.8-.8,3.3,3.3,0,0,1-.7-2.3,3.5,3.5,0,0,1,.7-2.3,2.5,2.5,0,0,1,2-.9,1.5,1.5,0,0,1,1.6.8h0V38.7h1.9Zm-1.8-2.9v-.5a1.1,1.1,0,0,0-.4-.9.9.9,0,0,0-.8-.4c-.5,0-.8.1-1,.5a2.3,2.3,0,0,0-.3,1.3,2.1,2.1,0,0,0,.3,1.2,1.2,1.2,0,0,0,1.8,0A1.6,1.6,0,0,0,440.4,44.7Z" transform="translate(-1)" fill="#fff" stroke="#fff" stroke-miterlimit="10" stroke-width="0.05"/><path d="M448.7,47.6H447v-.8h0a2.1,2.1,0,0,1-1.8,1,2,2,0,0,1-1.4-.5,2.2,2.2,0,0,1-.5-1.4c0-1.1.7-1.8,2.1-2l1.6-.2c0-.6-.3-1-1.1-1a3.1,3.1,0,0,0-2,.7V42l1.1-.4h1.2a2.2,2.2,0,0,1,2.5,2.5ZM447,45.2v-.4h-1.1c-.6.1-.9.4-.9.8a.8.8,0,0,0,.2.5.7.7,0,0,0,.6.2,1.2,1.2,0,0,0,.9-.3A1.6,1.6,0,0,0,447,45.2Z" transform="translate(-1)" fill="#fff" stroke="#fff" stroke-miterlimit="10" stroke-width="0.05"/><path d="M456.1,47.6h-1.9v-.8h0a2.1,2.1,0,0,1-1.8,1,2.6,2.6,0,0,1-1.9-.8,3.9,3.9,0,0,1-.6-2.3,3.5,3.5,0,0,1,.7-2.3,2.5,2.5,0,0,1,2-.9,1.5,1.5,0,0,1,1.6.8h0V38.7h1.9Zm-1.8-2.9v-.5a1.1,1.1,0,0,0-.4-.9,1,1,0,0,0-.9-.4.9.9,0,0,0-.9.5,2.2,2.2,0,0,0-.4,1.3,1.6,1.6,0,0,0,.4,1.2,1.2,1.2,0,0,0,1.8,0A1.6,1.6,0,0,0,454.3,44.7Z" transform="translate(-1)" fill="#fff" stroke="#fff" stroke-miterlimit="10" stroke-width="0.05"/><path d="M463,45.1h-3.9c.1.9.6,1.3,1.7,1.3a3.3,3.3,0,0,0,1.7-.4v1.3a4.5,4.5,0,0,1-2.2.5,3.1,3.1,0,0,1-2.2-.8,3.4,3.4,0,0,1-.8-2.3,3.2,3.2,0,0,1,.9-2.4,2.9,2.9,0,0,1,2.1-.8,2.6,2.6,0,0,1,2,.7,3.2,3.2,0,0,1,.7,2.2ZM461.3,44c0-.9-.3-1.3-1-1.3a.9.9,0,0,0-.8.4,1.9,1.9,0,0,0-.4.9Z" transform="translate(-1)" fill="#fff" stroke="#fff" stroke-miterlimit="10" stroke-width="0.05"/><path d="M395.2,62h-1.8v-.8h0a2.4,2.4,0,0,1-1.9,1,2.2,2.2,0,0,1-1.8-.8,3.3,3.3,0,0,1-.7-2.3,3.6,3.6,0,0,1,.8-2.3,2.3,2.3,0,0,1,1.9-.9,1.8,1.8,0,0,1,1.7.8h0V53.1h1.8Zm-1.8-2.9v-.5a1.4,1.4,0,0,0-.3-.9,1.2,1.2,0,0,0-.9-.4,1.1,1.1,0,0,0-1,.5,2.3,2.3,0,0,0-.3,1.3,2.1,2.1,0,0,0,.3,1.2,1,1,0,0,0,.9.4,1.3,1.3,0,0,0,1-.4A2.1,2.1,0,0,0,393.4,59.1Z" transform="translate(-1)" fill="#fff" stroke="#fff" stroke-miterlimit="10" stroke-width="0.05"/><path d="M401.8,62H400v-.8h0a2.1,2.1,0,0,1-1.8,1,1.7,1.7,0,0,1-1.9-1.9c0-1.1.7-1.8,2.1-2l1.6-.2a.9.9,0,0,0-1-1,3.5,3.5,0,0,0-2.1.7V56.4L398,56h1.2c1.7,0,2.6.8,2.6,2.5ZM400,59.6v-.4h-1.1c-.6.1-.9.4-.9.8a.5.5,0,0,0,.3.5c.1.2.3.2.6.2a1.1,1.1,0,0,0,.8-.3A1.6,1.6,0,0,0,400,59.6Z" transform="translate(-1)" fill="#fff" stroke="#fff" stroke-miterlimit="10" stroke-width="0.05"/><path d="M416.3,62h-1.9V57c0-.6.1-1.2.1-1.8h0a5.3,5.3,0,0,1-.3,1.1l-2,5.7h-1.5l-2-5.6a5,5,0,0,1-.3-1.2h0V62h-1.7V53.6h2.8l1.7,5a2.7,2.7,0,0,1,.3,1.2h.1a10.4,10.4,0,0,1,.3-1.2l1.7-5h2.7Z" transform="translate(-1)" fill="#fff" stroke="#fff" stroke-miterlimit="10" stroke-width="0.05"/><path d="M419,55.1a1.1,1.1,0,0,1-.8-.3,1,1,0,0,1,0-1.4,1.1,1.1,0,0,1,.8-.2.8.8,0,0,1,.7.2,1,1,0,0,1-.7,1.7Zm.9,6.9H418V56h1.9Z" transform="translate(-1)" fill="#fff" stroke="#fff" stroke-miterlimit="10" stroke-width="0.05"/><path d="M426,61.8a4,4,0,0,1-1.8.4,3.2,3.2,0,0,1-2.3-.9,3,3,0,0,1-.8-2.1,3.3,3.3,0,0,1,.9-2.5,3.7,3.7,0,0,1,2.5-.8l1.5.2v1.6a2,2,0,0,0-1.3-.4,1.5,1.5,0,0,0-1.3.5A1.6,1.6,0,0,0,423,59a1.7,1.7,0,0,0,.4,1.3,1.6,1.6,0,0,0,1.2.4,2.3,2.3,0,0,0,1.4-.4Z" transform="translate(-1)" fill="#fff" stroke="#fff" stroke-miterlimit="10" stroke-width="0.05"/><path d="M431.1,57.7l-.8-.2a1,1,0,0,0-.9.4,2.1,2.1,0,0,0-.3,1.2V62h-1.9V56h1.9v1.1h0a1.6,1.6,0,0,1,1.6-1.2h.4Z" transform="translate(-1)" fill="#fff" stroke="#fff" stroke-miterlimit="10" stroke-width="0.05"/><path d="M434.8,62.2a3.2,3.2,0,0,1-2.4-.9,3.2,3.2,0,0,1-.8-2.3,3,3,0,0,1,.9-2.3,3.2,3.2,0,0,1,2.4-.8,2.8,2.8,0,0,1,2.3.8,2.9,2.9,0,0,1,.9,2.2,3.1,3.1,0,0,1-3.3,3.3Zm0-4.9a1.3,1.3,0,0,0-1,.4,2.5,2.5,0,0,0-.3,1.3c0,1.2.4,1.7,1.4,1.7s1.3-.6,1.3-1.7S435.7,57.3,434.8,57.3Z" transform="translate(-1)" fill="#fff" stroke="#fff" stroke-miterlimit="10" stroke-width="0.05"/><path d="M438.9,61.9V60.4l.9.4h1.6a.5.5,0,0,0,.3-.4c0-.2,0-.3-.1-.3l-.4-.2-.4-.2-.5-.2-.6-.2-.4-.4a.5.5,0,0,1-.3-.5,1.3,1.3,0,0,1-.1-.6,2.4,2.4,0,0,1,.2-.9,1.7,1.7,0,0,1,.6-.6,1.9,1.9,0,0,1,.8-.3h1.8l.8.2v1.4l-.7-.3H441c-.1,0-.2,0-.2.1s-.1.1-.1.2a.4.4,0,0,0,.1.3l.3.2.3.2h.5l.6.3.5.3.4.5c0,.2.1.4.1.7a2.9,2.9,0,0,1-.2.9l-.7.6-.8.4h-1.1A5.2,5.2,0,0,1,438.9,61.9Z" transform="translate(-1)" fill="#fff" stroke="#fff" stroke-miterlimit="10" stroke-width="0.05"/><path d="M447.4,62.2a3.1,3.1,0,0,1-3.2-3.2,3,3,0,0,1,.9-2.3,3.2,3.2,0,0,1,2.4-.8,2.8,2.8,0,0,1,2.3.8,2.9,2.9,0,0,1,.9,2.2,3.1,3.1,0,0,1-3.3,3.3Zm.1-4.9a1.4,1.4,0,0,0-1.1.4,2.5,2.5,0,0,0-.3,1.3c0,1.2.4,1.7,1.4,1.7s1.3-.6,1.3-1.7S448.4,57.3,447.5,57.3Z" transform="translate(-1)" fill="#fff" stroke="#fff" stroke-miterlimit="10" stroke-width="0.05"/><path d="M455.6,54.5h-.7c-.6,0-.9.3-.9,1V56h1.4v1.4H454V62h-1.8V57.4h-1V56h1v-.7a2.1,2.1,0,0,1,.7-1.7,2.4,2.4,0,0,1,1.8-.6h.9Z" transform="translate(-1)" fill="#fff" stroke="#fff" stroke-miterlimit="10" stroke-width="0.05"/><path d="M460.2,61.9a2.3,2.3,0,0,1-1.3.3c-1.3,0-1.9-.7-1.9-2.1V57.4h-1V56h1V54.7l1.8-.5V56h1.4v1.4h-1.4v2.4c0,.6.3.9.8.9h.6Z" transform="translate(-1)" fill="#fff" stroke="#fff" stroke-miterlimit="10" stroke-width="0.05"/><path d="M413.3,111.2h-2l-.6-1.8h-3l-.6,1.8h-2l3-8.4h2.3Zm-3-3.3-1-2.8c0-.2-.1-.5-.1-.8h0c-.1.3-.1.5-.2.8l-.9,2.8Z" transform="translate(-1)" fill="#0072c6" stroke="#0072c6" stroke-miterlimit="10" stroke-width="0.05"/><path d="M416.3,108.3v2.9h-1.9v-8.4h3c2.1,0,3.1.9,3.1,2.7a2.7,2.7,0,0,1-.9,2.1,3.6,3.6,0,0,1-2.4.7Zm0-4v2.6h.7c1,0,1.5-.4,1.5-1.3s-.5-1.3-1.5-1.3Z" transform="translate(-1)" fill="#0072c6" stroke="#0072c6" stroke-miterlimit="10" stroke-width="0.05"/><path d="M423.7,111.2h-1.9v-8.4h1.9Z" transform="translate(-1)" fill="#0072c6" stroke="#0072c6" stroke-miterlimit="10" stroke-width="0.05"/><path d="M434.6,111.2h-1.9v-.8h0a2,2,0,0,1-1.9,1,2.5,2.5,0,0,1-1.8-.8,3.6,3.6,0,0,1-.7-2.2,3.6,3.6,0,0,1,.8-2.4,2.5,2.5,0,0,1,2-.9,1.8,1.8,0,0,1,1.6.8h0v-3.6h1.9Zm-1.8-2.9v-.4a1.5,1.5,0,0,0-.4-1,1,1,0,0,0-.9-.4,1.1,1.1,0,0,0-.9.5,1.8,1.8,0,0,0-.4,1.3,1.6,1.6,0,0,0,.4,1.2,1.1,1.1,0,0,0,1.8,0A2.1,2.1,0,0,0,432.8,108.3Z" transform="translate(-1)" fill="#0072c6" stroke="#0072c6" stroke-miterlimit="10" stroke-width="0.05"/><path d="M439,111.4a3.2,3.2,0,0,1-2.4-.9,3.1,3.1,0,0,1-.8-2.2,3.2,3.2,0,0,1,.9-2.4,3.6,3.6,0,0,1,2.4-.8,3.4,3.4,0,0,1,2.3.8,3,3,0,0,1,.9,2.3,3.2,3.2,0,0,1-.9,2.3A3.2,3.2,0,0,1,439,111.4Zm0-4.9a1.4,1.4,0,0,0-1,.5,2.1,2.1,0,0,0-.3,1.2c0,1.2.4,1.8,1.3,1.8s1.4-.6,1.4-1.8S439.9,106.5,439,106.5Z" transform="translate(-1)" fill="#0072c6" stroke="#0072c6" stroke-miterlimit="10" stroke-width="0.05"/><path d="M407,125.6h-1.8v-5a12.1,12.1,0,0,1,.1-1.8h-.1a5.3,5.3,0,0,1-.3,1.1l-1.9,5.7h-1.6l-2-5.6c0-.2-.1-.6-.2-1.2h-.1a17.7,17.7,0,0,1,.1,2.2v4.6h-1.7v-8.4h2.7l1.8,5,.3,1.2h0a10.4,10.4,0,0,1,.3-1.2l1.7-5H407Z" transform="translate(-1)" fill="#0072c6" stroke="#0072c6" stroke-miterlimit="10" stroke-width="0.05"/><path d="M409.7,118.7a1.1,1.1,0,0,1-.8-.3,1,1,0,0,1,0-1.4l.8-.2.8.2a1,1,0,0,1,0,1.4A1.1,1.1,0,0,1,409.7,118.7Zm.9,6.9h-1.8v-6h1.8Z" transform="translate(-1)" fill="#0072c6" stroke="#0072c6" stroke-miterlimit="10" stroke-width="0.05"/><path d="M416.7,125.4a3,3,0,0,1-1.8.4,2.9,2.9,0,0,1-2.2-.9,2.6,2.6,0,0,1-.9-2.1,3.2,3.2,0,0,1,.9-2.4,3.7,3.7,0,0,1,2.5-.9,2.8,2.8,0,0,1,1.5.3v1.5a2,2,0,0,0-1.3-.4,1.7,1.7,0,0,0-1.2.5,1.7,1.7,0,0,0-.5,1.3,1.7,1.7,0,0,0,1.7,1.7,2.4,2.4,0,0,0,1.3-.5Z" transform="translate(-1)" fill="#0072c6" stroke="#0072c6" stroke-miterlimit="10" stroke-width="0.05"/><path d="M421.9,121.3l-.8-.2a1.4,1.4,0,0,0-1,.5,2.1,2.1,0,0,0-.3,1.2v2.8h-1.9v-6h1.9v1.1h0a1.6,1.6,0,0,1,1.6-1.2h.5Z" transform="translate(-1)" fill="#0072c6" stroke="#0072c6" stroke-miterlimit="10" stroke-width="0.05"/><path d="M425.5,125.8a3,3,0,0,1-2.3-.9,2.8,2.8,0,0,1-.9-2.2,3.2,3.2,0,0,1,.9-2.4,4,4,0,0,1,4.8,0,3.4,3.4,0,0,1,.8,2.3,3.2,3.2,0,0,1-.9,2.3A3,3,0,0,1,425.5,125.8Zm.1-4.9a1.1,1.1,0,0,0-1,.5,1.6,1.6,0,0,0-.4,1.2c0,1.2.5,1.8,1.4,1.8s1.3-.6,1.3-1.8S426.5,120.9,425.6,120.9Z" transform="translate(-1)" fill="#0072c6" stroke="#0072c6" stroke-miterlimit="10" stroke-width="0.05"/><path d="M429.6,125.5V124l.9.4h1.7c.2-.1.3-.2.3-.4l-.2-.3-.3-.2-.5-.2h-.4l-.6-.3-.5-.4-.3-.5c0-.1-.1-.4-.1-.6a2.9,2.9,0,0,1,.2-.9l.6-.6.9-.3h1.8l.8.2v1.5l-.8-.4h-1.6v.3a.3.3,0,0,0,.1.2l.3.2.4.2h.4l.7.3.5.4.3.4a1.5,1.5,0,0,1,.1.7,2,2,0,0,1-.2.9,1.7,1.7,0,0,1-.6.6l-.9.4h-1A5.8,5.8,0,0,1,429.6,125.5Z" transform="translate(-1)" fill="#0072c6" stroke="#0072c6" stroke-miterlimit="10" stroke-width="0.05"/><path d="M438.2,125.8a3.2,3.2,0,0,1-2.4-.9,2.8,2.8,0,0,1-.9-2.2,3.2,3.2,0,0,1,.9-2.4,4,4,0,0,1,4.8,0,3.4,3.4,0,0,1,.8,2.3,3.6,3.6,0,0,1-.8,2.3A3.2,3.2,0,0,1,438.2,125.8Zm0-4.9a1.2,1.2,0,0,0-1,.5,1.6,1.6,0,0,0-.4,1.2c0,1.2.5,1.8,1.4,1.8s1.3-.6,1.3-1.8S439.1,120.9,438.2,120.9Z" transform="translate(-1)" fill="#0072c6" stroke="#0072c6" stroke-miterlimit="10" stroke-width="0.05"/><path d="M446.4,118.2l-.7-.2c-.6,0-.9.3-.9,1v.6h1.4V121h-1.4v4.6h-1.9V121h-1v-1.4h1v-.7a2.6,2.6,0,0,1,.7-1.7,2.8,2.8,0,0,1,1.8-.6h1Z" transform="translate(-1)" fill="#0072c6" stroke="#0072c6" stroke-miterlimit="10" stroke-width="0.05"/><path d="M450.9,125.6l-1.2.2a1.8,1.8,0,0,1-2-2.1V121h-1v-1.4h1v-1.3l1.9-.5v1.8h1.3V121h-1.3v2.4c0,.6.2,1,.7,1l.6-.2Z" transform="translate(-1)" fill="#0072c6" stroke="#0072c6" stroke-miterlimit="10" stroke-width="0.05"/><path d="M414.5,139.5a7.1,7.1,0,0,1-3.1.7,4.8,4.8,0,0,1-3.2-1.1,4.1,4.1,0,0,1-1.1-3.1,4.6,4.6,0,0,1,1.2-3.3,4.9,4.9,0,0,1,3.4-1.2,6.1,6.1,0,0,1,2.4.4v1.7a6,6,0,0,0-2.4-.5,2.5,2.5,0,0,0-1.9.7,2.8,2.8,0,0,0-.7,2.1,3.2,3.2,0,0,0,.6,2,2.4,2.4,0,0,0,1.8.7l1.1-.2v-1.6h-1.7v-1.6h3.6Z" transform="translate(-1)" fill="#0072c6" stroke="#0072c6" stroke-miterlimit="10" stroke-width="0.05"/><path d="M419.8,135.7l-.7-.2a1.4,1.4,0,0,0-1,.5,2.1,2.1,0,0,0-.3,1.2V140h-1.9v-6h1.9v1.1h0a1.6,1.6,0,0,1,1.6-1.2h.4Z" transform="translate(-1)" fill="#0072c6" stroke="#0072c6" stroke-miterlimit="10" stroke-width="0.05"/><path d="M425.7,140H424v-.8h-.1a2.1,2.1,0,0,1-1.8,1,1.9,1.9,0,0,1-1.3-.5,1.5,1.5,0,0,1-.5-1.3,2,2,0,0,1,2-2.1l1.7-.2a1,1,0,0,0-1.1-1,3.7,3.7,0,0,0-2,.7v-1.4l1-.4h1.2c1.7,0,2.6.8,2.6,2.5Zm-1.7-2.4v-.4h-1.1c-.6.1-.9.4-.9.8s0,.4.2.6l.6.2a1.2,1.2,0,0,0,.8-.4A1,1,0,0,0,424,137.6Z" transform="translate(-1)" fill="#0072c6" stroke="#0072c6" stroke-miterlimit="10" stroke-width="0.05"/><path d="M429,139.3h0v3.5h-1.8V134H429v.9h0a2.2,2.2,0,0,1,2-1,2.5,2.5,0,0,1,1.8.8,3.4,3.4,0,0,1,.6,2.2,3.6,3.6,0,0,1-.7,2.4,2.5,2.5,0,0,1-2,.9A2,2,0,0,1,429,139.3Zm0-2.4v.5a1.7,1.7,0,0,0,.3,1,1.3,1.3,0,0,0,.9.4,1.4,1.4,0,0,0,1-.5,2.9,2.9,0,0,0,.3-1.4c0-1.1-.4-1.6-1.2-1.6a1,1,0,0,0-.9.4A1.6,1.6,0,0,0,429,136.9Z" transform="translate(-1)" fill="#0072c6" stroke="#0072c6" stroke-miterlimit="10" stroke-width="0.05"/><path d="M440.4,140h-1.9v-3.4c0-.9-.3-1.3-.9-1.3a.8.8,0,0,0-.8.4,1.2,1.2,0,0,0-.3.9V140h-1.9v-8.9h1.9v3.8h0a2,2,0,0,1,1.8-1q2.1,0,2.1,2.4Z" transform="translate(-1)" fill="#0072c6" stroke="#0072c6" stroke-miterlimit="10" stroke-width="0.05"/><path d="M193.5,10.6h-1.1l-.9-2.4H188l-.9,2.4H186l3.3-8.4h1Zm-2.3-3.3-1.3-3.6a.7.7,0,0,1-.1-.5h-.1a4.3,4.3,0,0,1-.1.5l-1.3,3.6Z" transform="translate(-1)" fill="#1e1e1e" stroke="#1e1e1e" stroke-miterlimit="10" stroke-width="0.06"/><path d="M199.6,10.6h-.9v-1h0a2.5,2.5,0,0,1-2.1,1.1,2.2,2.2,0,0,1-1.8-.8,3.1,3.1,0,0,1-.7-2.2,3.6,3.6,0,0,1,.8-2.4,2.4,2.4,0,0,1,2-.9,2.1,2.1,0,0,1,1.8,1h0V1.7h.9Zm-.9-2.7V7a2.1,2.1,0,0,0-.5-1.3,1.7,1.7,0,0,0-1.2-.5,1.7,1.7,0,0,0-1.4.7,3,3,0,0,0-.5,1.8,2.5,2.5,0,0,0,.5,1.6,1.5,1.5,0,0,0,1.3.6,1.8,1.8,0,0,0,1.3-.6A2.4,2.4,0,0,0,198.7,7.9Z" transform="translate(-1)" fill="#1e1e1e" stroke="#1e1e1e" stroke-miterlimit="10" stroke-width="0.06"/><path d="M206.6,13.3h-1V9.5h0a2.1,2.1,0,0,1-2,1.2,2.2,2.2,0,0,1-1.8-.8,3.1,3.1,0,0,1-.7-2.2,3.6,3.6,0,0,1,.7-2.4,2.5,2.5,0,0,1,2-.9,1.9,1.9,0,0,1,1.8,1h0V4.6h1Zm-1-5.4V7a2,2,0,0,0-.4-1.3,2.1,2.1,0,0,0-1.3-.5,1.7,1.7,0,0,0-1.3.7,2.4,2.4,0,0,0-.5,1.8,2.5,2.5,0,0,0,.4,1.6,1.8,1.8,0,0,0,1.3.6,1.5,1.5,0,0,0,1.3-.6A1.7,1.7,0,0,0,205.6,7.9Z" transform="translate(-1)" fill="#1e1e1e" stroke="#1e1e1e" stroke-miterlimit="10" stroke-width="0.06"/><path d="M213.3,10.6h-1v-1h0a2,2,0,0,1-1.8,1.1c-1.5,0-2.2-.8-2.2-2.5V4.6h1V8c0,1.3.5,1.9,1.4,1.9a1.7,1.7,0,0,0,1.2-.5,2.1,2.1,0,0,0,.4-1.4V4.6h1Z" transform="translate(-1)" fill="#1e1e1e" stroke="#1e1e1e" stroke-miterlimit="10" stroke-width="0.06"/><path d="M215.6,3h-.4a.8.8,0,0,1-.2-.5.5.5,0,0,1,.2-.4l.4-.2.5.2a.5.5,0,0,1,.2.4c0,.2-.1.3-.2.5Zm.5,7.6h-.9v-6h.9Z" transform="translate(-1)" fill="#1e1e1e" stroke="#1e1e1e" stroke-miterlimit="10" stroke-width="0.06"/><path d="M221.1,5.5l-.7-.2a1.4,1.4,0,0,0-1.1.6,3.4,3.4,0,0,0-.4,1.6v3.1H218v-6h.9V5.8h0a3.6,3.6,0,0,1,.7-1,1.6,1.6,0,0,1,.9-.3h.6Z" transform="translate(-1)" fill="#1e1e1e" stroke="#1e1e1e" stroke-miterlimit="10" stroke-width="0.06"/><path d="M222.5,3h-.4a.8.8,0,0,1-.2-.5.5.5,0,0,1,.2-.4l.4-.2.5.2a.5.5,0,0,1,.2.4c0,.2-.1.3-.2.5Zm.5,7.6h-1v-6h1Z" transform="translate(-1)" fill="#1e1e1e" stroke="#1e1e1e" stroke-miterlimit="10" stroke-width="0.06"/><path d="M228,5.5l-.7-.2a1.3,1.3,0,0,0-1.1.6,2.5,2.5,0,0,0-.4,1.6v3.1h-.9v-6h.9V5.8h0a3.6,3.6,0,0,1,.7-1,1.4,1.4,0,0,1,.9-.3h.6Z" transform="translate(-1)" fill="#1e1e1e" stroke="#1e1e1e" stroke-miterlimit="10" stroke-width="0.06"/><path d="M234.9,10.5l-.9.2c-1,0-1.6-.6-1.6-1.8V5.4h-1V4.6h1V3.1l1-.3V4.6h1.5v.8h-1.5V8.8a1.3,1.3,0,0,0,.2.8.8.8,0,0,0,.7.3l.6-.2Z" transform="translate(-1)" fill="#1e1e1e" stroke="#1e1e1e" stroke-miterlimit="10" stroke-width="0.06"/><path d="M238.6,10.7a2.9,2.9,0,0,1-2.1-.8,3,3,0,0,1-.8-2.3,3.2,3.2,0,0,1,.8-2.3,2.9,2.9,0,0,1,2.2-.9,2.6,2.6,0,0,1,2.1.9,3.1,3.1,0,0,1,.8,2.2,3.2,3.2,0,0,1-.8,2.3A2.9,2.9,0,0,1,238.6,10.7Zm.1-5.5a1.7,1.7,0,0,0-1.5.7,2.3,2.3,0,0,0-.5,1.7,2.3,2.3,0,0,0,.5,1.7,2,2,0,0,0,1.5.6,1.7,1.7,0,0,0,1.4-.6,2.9,2.9,0,0,0,.5-1.7,3.2,3.2,0,0,0-.5-1.8A1.7,1.7,0,0,0,238.7,5.2Z" transform="translate(-1)" fill="#1e1e1e" stroke="#1e1e1e" stroke-miterlimit="10" stroke-width="0.06"/><path d="M248,10.6h-1.3L244,7.7h0v2.9h-1V1.7h1V7.3h0l2.5-2.7h1.3L245,7.5Z" transform="translate(-1)" fill="#1e1e1e" stroke="#1e1e1e" stroke-miterlimit="10" stroke-width="0.06"/><path d="M253.7,7.8h-4.2a2.5,2.5,0,0,0,.5,1.6,2.2,2.2,0,0,0,1.4.5,2.8,2.8,0,0,0,1.9-.7v.9a3.3,3.3,0,0,1-2.1.6,2.8,2.8,0,0,1-2-.8,3.3,3.3,0,0,1-.7-2.3,3.1,3.1,0,0,1,.8-2.3,2.5,2.5,0,0,1,1.9-.9,2.6,2.6,0,0,1,1.9.8,3.3,3.3,0,0,1,.6,2.1Zm-1-.8a1.7,1.7,0,0,0-.4-1.3,1.3,1.3,0,0,0-1.1-.5,1.6,1.6,0,0,0-1.1.5,2.6,2.6,0,0,0-.6,1.3Z" transform="translate(-1)" fill="#1e1e1e" stroke="#1e1e1e" stroke-miterlimit="10" stroke-width="0.06"/><path d="M260.1,10.6h-1V7.1c0-1.2-.5-1.9-1.4-1.9a1.4,1.4,0,0,0-1.2.6,1.9,1.9,0,0,0-.5,1.3v3.5h-.9v-6h.9v1h.1A2.1,2.1,0,0,1,258,4.4a1.6,1.6,0,0,1,1.5.7,2.4,2.4,0,0,1,.6,1.8Z" transform="translate(-1)" fill="#1e1e1e" stroke="#1e1e1e" stroke-miterlimit="10" stroke-width="0.06"/><path d="M210.5,31.9H208v7.6h-.9V31.9h-2.5v-.8h5.9Z" transform="translate(-1)" fill="#1e1e1e" stroke="#1e1e1e" stroke-miterlimit="10" stroke-width="0.06"/><path d="M212.9,39.6a2.9,2.9,0,0,1-2.1-.8,3.4,3.4,0,0,1-.8-2.3,3.2,3.2,0,0,1,.8-2.3,3,3,0,0,1,2.3-.9,2.9,2.9,0,0,1,2.1.8,3.5,3.5,0,0,1,.7,2.3,3.2,3.2,0,0,1-.8,2.3A2.8,2.8,0,0,1,212.9,39.6Zm.1-5.5a1.8,1.8,0,0,0-1.5.7,3.1,3.1,0,0,0,0,3.4,2,2,0,0,0,1.5.6,1.7,1.7,0,0,0,1.4-.6,2.3,2.3,0,0,0,.5-1.7,2.4,2.4,0,0,0-.5-1.8A1.7,1.7,0,0,0,213,34.1Z" transform="translate(-1)" fill="#1e1e1e" stroke="#1e1e1e" stroke-miterlimit="10" stroke-width="0.06"/><path d="M222.4,39.5H221l-2.6-2.9h-.1v2.9h-.9V30.6h.9v5.6h.1l2.5-2.7h1.2l-2.7,2.9Z" transform="translate(-1)" fill="#1e1e1e" stroke="#1e1e1e" stroke-miterlimit="10" stroke-width="0.06"/><path d="M228.1,36.7h-4.2a2.1,2.1,0,0,0,.5,1.5,1.7,1.7,0,0,0,1.4.6,2.8,2.8,0,0,0,1.9-.7V39a3.3,3.3,0,0,1-2.1.6,2.6,2.6,0,0,1-2-.8,3.3,3.3,0,0,1-.7-2.3,3,3,0,0,1,.8-2.3,2.3,2.3,0,0,1,1.9-.9,2.6,2.6,0,0,1,1.9.8,3.3,3.3,0,0,1,.6,2.1Zm-1-.8a1.7,1.7,0,0,0-.4-1.3,1.4,1.4,0,0,0-1.1-.5,1.9,1.9,0,0,0-1.7,1.8Z" transform="translate(-1)" fill="#1e1e1e" stroke="#1e1e1e" stroke-miterlimit="10" stroke-width="0.06"/><path d="M234.5,39.5h-1V36c0-1.2-.5-1.9-1.4-1.9a1.4,1.4,0,0,0-1.2.6,1.9,1.9,0,0,0-.5,1.3v3.5h-.9v-6h.9v1h.1a2.1,2.1,0,0,1,1.9-1.2,1.6,1.6,0,0,1,1.5.7,2.4,2.4,0,0,1,.6,1.8Z" transform="translate(-1)" fill="#1e1e1e" stroke="#1e1e1e" stroke-miterlimit="10" stroke-width="0.06"/><path d="M244.5,39.5h-.9V38.4h-.1a2.1,2.1,0,0,1-2,1.2,2.2,2.2,0,0,1-1.8-.8,3.1,3.1,0,0,1-.7-2.2,3.6,3.6,0,0,1,.8-2.4,2.3,2.3,0,0,1,1.9-.9,1.7,1.7,0,0,1,1.8,1h.1V30.6h.9Zm-.9-2.8v-.8a2.1,2.1,0,0,0-.5-1.3,1.7,1.7,0,0,0-1.2-.5,1.5,1.5,0,0,0-1.4.7,3,3,0,0,0-.5,1.8,2.2,2.2,0,0,0,.5,1.6,1.5,1.5,0,0,0,1.3.6,1.8,1.8,0,0,0,1.3-.6A2.5,2.5,0,0,0,243.6,36.7Z" transform="translate(-1)" fill="#1e1e1e" stroke="#1e1e1e" stroke-miterlimit="10" stroke-width="0.06"/><path d="M251.2,36.7H247a2.1,2.1,0,0,0,.5,1.5,1.8,1.8,0,0,0,1.4.6,2.8,2.8,0,0,0,1.9-.7V39a3.3,3.3,0,0,1-2.1.6,2.8,2.8,0,0,1-2-.8,3.3,3.3,0,0,1-.7-2.3,3.4,3.4,0,0,1,.8-2.3,2.5,2.5,0,0,1,2-.9,2.3,2.3,0,0,1,1.8.8,3.3,3.3,0,0,1,.6,2.1Zm-1-.8a1.7,1.7,0,0,0-.4-1.3,1.3,1.3,0,0,0-1.1-.5,1.6,1.6,0,0,0-1.1.5,2.6,2.6,0,0,0-.6,1.3Z" transform="translate(-1)" fill="#1e1e1e" stroke="#1e1e1e" stroke-miterlimit="10" stroke-width="0.06"/><path d="M260.1,39.5h-.9v-1h-.1a2.1,2.1,0,0,1-3.2.6,1.3,1.3,0,0,1-.5-1.2c0-1.2.6-1.8,2-2l1.8-.2c0-1.1-.5-1.6-1.3-1.6a2.7,2.7,0,0,0-1.9.8v-1a3.4,3.4,0,0,1,2-.6c1.4,0,2.1.8,2.1,2.3Zm-.9-3.1-1.5.2a2.3,2.3,0,0,0-1,.4c-.2.1-.3.4-.3.8a.9.9,0,0,0,.3.7,1.1,1.1,0,0,0,.8.3,1.7,1.7,0,0,0,1.2-.5,1.9,1.9,0,0,0,.5-1.3Z" transform="translate(-1)" fill="#1e1e1e" stroke="#1e1e1e" stroke-miterlimit="10" stroke-width="0.06"/><path d="M265.9,39.2a2.7,2.7,0,0,1-1.6.4,3.2,3.2,0,0,1-2.1-.8,3.3,3.3,0,0,1-.8-2.2,3.2,3.2,0,0,1,.9-2.4,3,3,0,0,1,2.3-.9,3.2,3.2,0,0,1,1.4.3v1a3,3,0,0,0-1.5-.5,1.8,1.8,0,0,0-1.5.7,2.7,2.7,0,0,0,0,3.4,1.9,1.9,0,0,0,1.5.6,2.4,2.4,0,0,0,1.4-.5Z" transform="translate(-1)" fill="#1e1e1e" stroke="#1e1e1e" stroke-miterlimit="10" stroke-width="0.06"/><path d="M272.1,36.7h-4.2a1.8,1.8,0,0,0,.6,1.5,1.7,1.7,0,0,0,1.4.6,2.6,2.6,0,0,0,1.8-.7V39a3.3,3.3,0,0,1-2.1.6,2.8,2.8,0,0,1-2-.8,3.9,3.9,0,0,1-.7-2.3,3.4,3.4,0,0,1,.8-2.3,2.5,2.5,0,0,1,2-.9,2.2,2.2,0,0,1,1.8.8,3.3,3.3,0,0,1,.6,2.1Zm-.9-.8a2.2,2.2,0,0,0-.4-1.3,1.6,1.6,0,0,0-1.1-.5,1.7,1.7,0,0,0-1.2.5,2.6,2.6,0,0,0-.6,1.3Z" transform="translate(-1)" fill="#1e1e1e" stroke="#1e1e1e" stroke-miterlimit="10" stroke-width="0.06"/><path d="M273.2,39.2v-1a2.7,2.7,0,0,0,1.7.6c.8,0,1.3-.3,1.3-.9s-.1-.2-.1-.4l-.3-.3-.5-.2-.5-.2-.7-.3a1,1,0,0,1-.5-.4l-.3-.4a1.3,1.3,0,0,1-.1-.6,1.1,1.1,0,0,1,.2-.8l.5-.5.7-.4h.9a3.2,3.2,0,0,1,1.4.3v1a3,3,0,0,0-1.6-.5h-.4l-.4.2-.3.2v.8l.3.2.4.3.5.2.7.3.6.4.3.4a1.5,1.5,0,0,1,.1.7.8.8,0,0,1-.2.7l-.5.6-.7.3h-.9A2.7,2.7,0,0,1,273.2,39.2Z" transform="translate(-1)" fill="#1e1e1e" stroke="#1e1e1e" stroke-miterlimit="10" stroke-width="0.06"/><path d="M278.2,39.2v-1a2.7,2.7,0,0,0,1.7.6c.9,0,1.3-.3,1.3-.9s-.1-.2-.1-.4l-.3-.3-.5-.2-.5-.2-.7-.3a1,1,0,0,1-.5-.4l-.3-.4a1.3,1.3,0,0,1-.1-.6,1.9,1.9,0,0,1,.2-.8l.5-.5.7-.4h.9a3.2,3.2,0,0,1,1.4.3v1a3,3,0,0,0-1.5-.5h-.5l-.4.2a.2.2,0,0,0-.2.2c-.1.1-.1.2-.1.4a.6.6,0,0,0,.1.4.2.2,0,0,0,.2.2l.4.3.5.2.8.3a1,1,0,0,1,.5.4.5.5,0,0,1,.3.4,1.3,1.3,0,0,1,0,1.4l-.6.6-.7.3h-.9A2.7,2.7,0,0,1,278.2,39.2Z" transform="translate(-1)" fill="#1e1e1e" stroke="#1e1e1e" stroke-miterlimit="10" stroke-width="0.06"/><path d="M286.1,39.6a2.9,2.9,0,0,1-2.1-.8,3,3,0,0,1-.8-2.3,2.8,2.8,0,0,1,.8-2.3,2.8,2.8,0,0,1,2.2-.9,2.9,2.9,0,0,1,2.1.8,3.6,3.6,0,0,1,.8,2.3,3.2,3.2,0,0,1-.8,2.3A2.9,2.9,0,0,1,286.1,39.6Zm0-5.5a1.5,1.5,0,0,0-1.4.7,2.7,2.7,0,0,0,0,3.4,1.8,1.8,0,0,0,1.4.6,1.9,1.9,0,0,0,1.5-.6,2.9,2.9,0,0,0,.5-1.7,3,3,0,0,0-.5-1.8A1.9,1.9,0,0,0,286.1,34.1Z" transform="translate(-1)" fill="#1e1e1e" stroke="#1e1e1e" stroke-miterlimit="10" stroke-width="0.06"/><path d="M193,135.4h-1.1l-1.5-2.3-.3-.6-.4-.4-.4-.2H188v3.5h-1V127h2.5l1,.2.8.4a2,2,0,0,1,.6.7,3,3,0,0,1,.2,1,2.4,2.4,0,0,1-.2.8l-.3.6-.6.5c-.3.1-.5.3-.8.3h0l.4.2.3.2.2.4.3.5Zm-5-7.5V131h2a2.9,2.9,0,0,0,.9-.9,1.5,1.5,0,0,0,.1-.7,1.2,1.2,0,0,0-.4-1,1.7,1.7,0,0,0-1.3-.4Z" transform="translate(-1)" fill="#1e1e1e" stroke="#1e1e1e" stroke-miterlimit="10" stroke-width="0.06"/><path d="M198.5,132.7h-4.3a2.3,2.3,0,0,0,.6,1.5,1.7,1.7,0,0,0,1.4.6,3.4,3.4,0,0,0,1.9-.7v.9a3.7,3.7,0,0,1-2.1.6,2.6,2.6,0,0,1-2-.8,3.5,3.5,0,0,1-.7-2.3,3.3,3.3,0,0,1,.7-2.3,2.7,2.7,0,0,1,2-.9,1.9,1.9,0,0,1,1.8.8,2.8,2.8,0,0,1,.7,2.1Zm-1-.8a1.7,1.7,0,0,0-.4-1.3,1.4,1.4,0,0,0-1.1-.5,1.8,1.8,0,0,0-1.2.5,1.7,1.7,0,0,0-.5,1.3Z" transform="translate(-1)" fill="#1e1e1e" stroke="#1e1e1e" stroke-miterlimit="10" stroke-width="0.06"/><path d="M199.5,135.2v-1a3,3,0,0,0,1.8.6q1.2,0,1.2-.9a.6.6,0,0,0-.1-.4l-.3-.3-.4-.2-.5-.2-.7-.3-.5-.4a.5.5,0,0,1-.3-.5c-.1-.1-.1-.3-.1-.6a1.5,1.5,0,0,1,.1-.7l.6-.6.7-.3h.8a2.9,2.9,0,0,1,1.4.3v.9a2.4,2.4,0,0,0-1.5-.4h-.8l-.3.3v.3c0,.2.1.3.1.4l.3.3a.5.5,0,0,0,.4.2l.5.3.7.3.6.3.3.5a1.3,1.3,0,0,1,.1.6,1.1,1.1,0,0,1-.2.8l-.5.5a2,2,0,0,1-.8.4h-.9A2.9,2.9,0,0,1,199.5,135.2Z" transform="translate(-1)" fill="#1e1e1e" stroke="#1e1e1e" stroke-miterlimit="10" stroke-width="0.06"/><path d="M205.9,134.6h0v3.6H205v-8.8h.9v1.1h0a2.4,2.4,0,0,1,2.1-1.2,2.2,2.2,0,0,1,1.8.8,3.1,3.1,0,0,1,.7,2.2,3.6,3.6,0,0,1-.8,2.4,2.3,2.3,0,0,1-2,.9A2.4,2.4,0,0,1,205.9,134.6Zm0-2.5v.9a1.7,1.7,0,0,0,.5,1.2,1.4,1.4,0,0,0,1.2.6,1.7,1.7,0,0,0,1.4-.7,3.6,3.6,0,0,0,.5-1.9,2.3,2.3,0,0,0-.5-1.5,1.4,1.4,0,0,0-1.2-.6,1.8,1.8,0,0,0-1.4.6A2.4,2.4,0,0,0,205.9,132.1Z" transform="translate(-1)" fill="#1e1e1e" stroke="#1e1e1e" stroke-miterlimit="10" stroke-width="0.06"/><path d="M214.5,135.6a2.6,2.6,0,0,1-2.1-.9,2.7,2.7,0,0,1-.8-2.2,3.2,3.2,0,0,1,.8-2.4,3.1,3.1,0,0,1,2.2-.8,2.9,2.9,0,0,1,2.1.8,3.7,3.7,0,0,1,0,4.6A2.9,2.9,0,0,1,214.5,135.6Zm.1-5.5a1.9,1.9,0,0,0-1.5.6,2.4,2.4,0,0,0-.5,1.8,2.1,2.1,0,0,0,.5,1.6,1.9,1.9,0,0,0,2.9.1,3,3,0,0,0,.5-1.8,2.9,2.9,0,0,0-.5-1.7A1.7,1.7,0,0,0,214.6,130.1Z" transform="translate(-1)" fill="#1e1e1e" stroke="#1e1e1e" stroke-miterlimit="10" stroke-width="0.06"/><path d="M225.9,135.4l-.9.2c-1,0-1.6-.6-1.6-1.8v-3.5h-3.5l-.2.2a.4.4,0,0,0-.1.3c0,.2,0,.3.1.4l.2.3.4.2.6.3.7.3.5.3.4.5c0,.2.1.4.1.6a1.9,1.9,0,0,1-.2.8,1.2,1.2,0,0,1-.5.5l-.8.4h-.9a2.9,2.9,0,0,1-1.6-.4v-1a2.7,2.7,0,0,0,1.7.6c.9,0,1.3-.3,1.3-.9a.6.6,0,0,0-.1-.4l-.3-.3-.4-.2-.6-.2-.7-.3-.5-.4-.3-.5a3.5,3.5,0,0,1-.1-.6,1.4,1.4,0,0,1,.2-.7,1.2,1.2,0,0,1,.5-.5l.6-.3h3.5V128l1-.3v1.7h1.5v.9h-1.5v3.3a2,2,0,0,0,.2.9.8.8,0,0,0,.7.3l.6-.2Z" transform="translate(-1)" fill="#1e1e1e" stroke="#1e1e1e" stroke-miterlimit="10" stroke-width="0.06"/><path d="M231.5,135.4h-1v-.9h0a2.1,2.1,0,0,1-1.9,1.1,2.2,2.2,0,0,1-1.4-.5,1.7,1.7,0,0,1-.5-1.3c0-1.1.7-1.7,2-1.9l1.8-.3q0-1.5-1.2-1.5a2.9,2.9,0,0,0-2,.7v-.9a3.6,3.6,0,0,1,2-.6,1.9,1.9,0,0,1,2.2,2.2Zm-1-3-1.4.2-1.1.3a1.2,1.2,0,0,0-.3.9.9.9,0,0,0,.3.7,1.2,1.2,0,0,0,.9.3,1.6,1.6,0,0,0,1.1-.5,2.1,2.1,0,0,0,.5-1.3Z" transform="translate(-1)" fill="#1e1e1e" stroke="#1e1e1e" stroke-miterlimit="10" stroke-width="0.06"/><path d="M242.9,135.4h-1v-3.8h-4.3v3.8h-1V127h1v3.7h4.3V127h1Z" transform="translate(-1)" fill="#1e1e1e" stroke="#1e1e1e" stroke-miterlimit="10" stroke-width="0.06"/><path d="M250.1,127.9h-2.5v7.5h-.9v-7.5h-2.5V127h5.9Z" transform="translate(-1)" fill="#1e1e1e" stroke="#1e1e1e" stroke-miterlimit="10" stroke-width="0.06"/><path d="M256.6,127.9h-2.5v7.5h-1v-7.5h-2.4V127h5.9Z" transform="translate(-1)" fill="#1e1e1e" stroke="#1e1e1e" stroke-miterlimit="10" stroke-width="0.06"/><path d="M258.8,132.3v3.1h-1V127h2.3a2.8,2.8,0,0,1,2.1.7,2.2,2.2,0,0,1,.8,1.8,2.5,2.5,0,0,1-.9,2,2.9,2.9,0,0,1-2.2.8Zm0-4.4v3.5h1a2.5,2.5,0,0,0,1.6-.5,1.5,1.5,0,0,0,.5-1.3c0-1.1-.6-1.7-1.9-1.7Z" transform="translate(-1)" fill="#1e1e1e" stroke="#1e1e1e" stroke-miterlimit="10" stroke-width="0.06"/></svg>