<svg xmlns="http://www.w3.org/2000/svg" xmlns:xlink="http://www.w3.org/1999/xlink" viewBox="0 0 475.7 150.2"><defs><symbol id="a" viewBox="0 0 20 20"><circle cx="10" cy="10" r="10" fill="#505050"/><path d="M12,14V8.6h1.2V7.4H12V5.6H10.6V7.4H6.8V8.6A13.1,13.1,0,0,1,7.9,9.8l1,1.4.9,1.4a10,10,0,0,1,.8,1.4ZM10.7,8.6v3.5l-1.3-2L8.2,8.6Z" fill="#fff"/></symbol><symbol id="b" viewBox="0 0 20 20"><circle cx="10" cy="10" r="10" fill="#505050"/><path d="M7.4,5.9V7.2a2.6,2.6,0,0,1,1.8-.7,2.3,2.3,0,0,1,1.4.4,1.2,1.2,0,0,1,.5,1c0,.9-.7,1.4-2.2,1.4H8.2v1.1h.7c1.3,0,1.9.5,1.9,1.4S10.3,13,9.3,13a2.3,2.3,0,0,1-1.6-.6v1.2a3.5,3.5,0,0,0,2,.5,3.5,3.5,0,0,0,1.8-.5,2.1,2.1,0,0,0-1-3.6h0a2.5,2.5,0,0,0,1.4-.6,2,2,0,0,0,.6-1.5,2.3,2.3,0,0,0-.9-1.8,3.4,3.4,0,0,0-2.2-.7A3.5,3.5,0,0,0,7.4,5.9Z" fill="#fff"/></symbol><symbol id="c" viewBox="0 0 20 20"><circle cx="10" cy="10" r="10" fill="#505050"/><path d="M12.5,5.6H7.2v.6c0,.3.1.5.1.8l.3.7.5.5.5.6.6.5.6.4.5.5.4.4.2.5a1.3,1.3,0,0,1,.1.6,1.3,1.3,0,0,1-.1.6l-.3.4-.4.2H9.6l-1-.2a3.9,3.9,0,0,1-1-.8v1.3a1,1,0,0,0,.5.4l.6.2.5.2h.7l1-.2.8-.4.5-.7a4.4,4.4,0,0,0,.2-1c0-.4-.1-.7-.1-1l-.4-.7-.6-.7-.7-.6-.7-.6-.6-.5-.4-.5a.8.8,0,0,1-.2-.5h3.8Z" fill="#fff"/></symbol><symbol id="d" viewBox="0 0 20 20"><circle cx="10" cy="10" r="10" fill="#505050"/><path d="M11.2,14.2V5.6H9.8v6.9L9,12l-1-.3v1.2l.7.2.6.3.6.3.7.5Z" fill="#fff"/></symbol></defs><title>OJ104329348</title><rect y="0.2" width="475.7" height="150" fill="#fff"/><rect width="105" height="150" fill="#ebebeb"/><rect x="371" width="104.7" height="90" fill="#0072c6"/><rect x="371" y="95" width="104.7" height="55" fill="#d2d2d2"/><line x1="105" y1="15" x2="365.6" y2="15" fill="none" stroke="#000" stroke-miterlimit="10"/><polygon points="364.5 18.7 370.9 15 364.5 11.3 364.5 18.7"/><line x1="110.4" y1="44.9" x2="371" y2="44.9" fill="none" stroke="#000" stroke-miterlimit="10"/><polygon points="111.5 48.6 105 44.9 111.5 41.1 111.5 48.6"/><line x1="105" y1="105.2" x2="365.6" y2="105.2" fill="none" stroke="#000" stroke-miterlimit="10"/><polygon points="364.5 108.9 370.9 105.2 364.5 101.4 364.5 108.9"/><line x1="110.4" y1="140.5" x2="371" y2="140.5" fill="none" stroke="#000" stroke-miterlimit="10"/><polygon points="111.5 144.2 105 140.5 111.5 136.7 111.5 144.2"/><use width="20" height="20" transform="matrix(1, 0, 0, -1, 158.88, 150)" xlink:href="#a"/><use width="20" height="20" transform="matrix(1, 0, 0, -1, 158.88, 115.16)" xlink:href="#b"/><use width="20" height="20" transform="matrix(1, 0, 0, -1, 158.88, 54.88)" xlink:href="#c"/><use width="20" height="20" transform="matrix(1, 0, 0, -1, 158.88, 25)" xlink:href="#d"/><path d="M19.5,28.5A1.6,1.6,0,0,1,21,26.9H83.9a1.6,1.6,0,0,1,1.6,1.5h0V65.7A1.5,1.5,0,0,1,84,67.2H21.1a1.6,1.6,0,0,1-1.6-1.5h0Zm-3.4-1.8V67.4a3.2,3.2,0,0,0,3.2,3.3H85.7A3.3,3.3,0,0,0,89,67.4h0V26.7a3.3,3.3,0,0,0-3.3-3.3H19.3A3.3,3.3,0,0,0,16,26.7Z" fill="#1a1a1f"/><path d="M13.4,74.2H91.6a.9.9,0,0,1,.9.8h0v2.6a.9.9,0,0,1-.9.9H13.4a.9.9,0,0,1-.9-.9h0V75.1a.9.9,0,0,1,.9-.9Z" fill="#1a1a1f"/><path d="M43.6,75.7H61.4a.3.3,0,0,1,.3.3v.7a.3.3,0,0,1-.3.3H43.6a.3.3,0,0,1-.3-.3V76c0-.1.1-.3.2-.3Z" fill="#fff"/><path d="M37,36.1l12.7-1.7V46.5H37ZM49.7,48V60.2L37,58.4V47.9Zm1.5-13.8L68,31.7V46.4H51.2ZM68,48.1V62.7L51.2,60.3V48Z" fill="#0078d4"/><polygon points="192.6 26 185 31.4 187.9 40.3 197.2 40.3 200.1 31.4 192.6 26" fill="#ebebeb" stroke="#000" stroke-miterlimit="10" stroke-width="0.75"/><polygon points="192.5 84.9 185 90.3 187.9 99.1 197.2 99.1 200.1 90.3 192.5 84.9" fill="#ebebeb" stroke="#000" stroke-miterlimit="10" stroke-width="0.75"/><path d="M25.6,95.4v2.9H23.7V89.9h2.9c2.2,0,3.2.9,3.2,2.6a2.6,2.6,0,0,1-.9,2.1,3.6,3.6,0,0,1-2.4.8Zm0-4.1v2.6h.7c1,0,1.5-.4,1.5-1.3s-.5-1.3-1.5-1.3Z" stroke="#000" stroke-miterlimit="10" stroke-width="0.05"/><path d="M32.7,98.3H30.9V89.4h1.8Z" stroke="#000" stroke-miterlimit="10" stroke-width="0.05"/><path d="M39.3,98.3H37.5v-.9h0a1.9,1.9,0,0,1-1.8,1,1.7,1.7,0,0,1-1.9-1.8c0-1.2.7-1.8,2.1-2l1.6-.2c0-.7-.3-1-1-1a3.9,3.9,0,0,0-2.1.6V92.6l1.1-.3,1.2-.2a2.3,2.3,0,0,1,2.6,2.6Zm-1.8-2.5v-.4l-1.1.2c-.6,0-.9.3-.9.8a.8.8,0,0,0,.2.5l.6.2a1,1,0,0,0,.9-.4A1.2,1.2,0,0,0,37.5,95.8Z" stroke="#000" stroke-miterlimit="10" stroke-width="0.05"/><path d="M44.4,98.2l-1.3.2c-1.3,0-1.9-.7-1.9-2V93.6h-1V92.3h1V91l1.8-.6v1.9h1.4v1.3H43v2.5c0,.6.3.9.8.9l.6-.2Z" stroke="#000" stroke-miterlimit="10" stroke-width="0.05"/><path d="M50.4,98.3H48.6v-.9h0a1.9,1.9,0,0,1-1.8,1A1.7,1.7,0,0,1,45,96.6c0-1.2.6-1.8,2-2l1.6-.2c0-.7-.3-1-1-1a4.2,4.2,0,0,0-2.1.6V92.6l1.1-.3,1.2-.2a2.3,2.3,0,0,1,2.6,2.6Zm-1.8-2.5v-.4l-1,.2c-.6,0-.9.3-.9.8s0,.4.2.5l.6.2a.9.9,0,0,0,.8-.4A1.2,1.2,0,0,0,48.6,95.8Z" stroke="#000" stroke-miterlimit="10" stroke-width="0.05"/><path d="M55.8,90.8h-.7a.8.8,0,0,0-.9.9v.7h1.4v1.3H54.2v4.7H52.3V93.6h-1V92.3h1v-.8a2.2,2.2,0,0,1,.7-1.6,2.9,2.9,0,0,1,1.8-.7l1,.2Z" stroke="#000" stroke-miterlimit="10" stroke-width="0.05"/><path d="M59.3,98.4a3.2,3.2,0,0,1-2.3-.8,3,3,0,0,1-.9-2.3A2.9,2.9,0,0,1,57,93a3.2,3.2,0,0,1,2.4-.9,2.9,2.9,0,0,1,2.3.9,2.8,2.8,0,0,1,.9,2.2,3.2,3.2,0,0,1-.9,2.4A3.6,3.6,0,0,1,59.3,98.4Zm.1-4.9a1.4,1.4,0,0,0-1.1.5,2.3,2.3,0,0,0-.3,1.3c0,1.1.4,1.7,1.4,1.7s1.3-.6,1.3-1.8S60.3,93.5,59.4,93.5Z" stroke="#000" stroke-miterlimit="10" stroke-width="0.05"/><path d="M67.7,93.9h-.8a1,1,0,0,0-.9.4,2.1,2.1,0,0,0-.4,1.2v2.9H63.8v-6h1.8v1.1h.1a1.6,1.6,0,0,1,1.5-1.2h.5Z" stroke="#000" stroke-miterlimit="10" stroke-width="0.05"/><path d="M78.1,98.3H76.3V94.8c0-.8-.3-1.3-1-1.3a1,1,0,0,0-.7.4,1.7,1.7,0,0,0-.3,1v3.4H72.4V94.8c0-.8-.3-1.3-.9-1.3a1.2,1.2,0,0,0-.8.4,1.6,1.6,0,0,0-.2,1v3.4H68.6v-6h1.9v.9h0a2,2,0,0,1,.8-.8,2,2,0,0,1,1.1-.3,1.9,1.9,0,0,1,1.8,1.1,2.2,2.2,0,0,1,2-1.1c1.3,0,1.9.8,1.9,2.4Z" stroke="#000" stroke-miterlimit="10" stroke-width="0.05"/><path d="M84.6,98.3H82.8v-.9h0a1.9,1.9,0,0,1-1.8,1,1.7,1.7,0,0,1-1.9-1.8c0-1.2.7-1.8,2.1-2l1.6-.2c0-.7-.3-1-1-1a4.2,4.2,0,0,0-2.1.6V92.6l1.1-.3,1.2-.2a2.3,2.3,0,0,1,2.6,2.6Zm-1.8-2.5v-.4l-1,.2c-.6,0-.9.3-.9.8s0,.4.2.5l.6.2a.9.9,0,0,0,.8-.4A1.2,1.2,0,0,0,82.8,95.8Z" stroke="#000" stroke-miterlimit="10" stroke-width="0.05"/><path d="M26.7,109c0,2.6-1.2,3.8-3.6,3.8s-3.4-1.2-3.4-3.7v-4.8h1.9v4.8c0,1.4.5,2.1,1.6,2.1s1.6-.7,1.6-2v-4.9h1.9Z" stroke="#000" stroke-miterlimit="10" stroke-width="0.05"/><path d="M34.1,112.7H32.2v-3.4c0-.9-.3-1.4-.9-1.4a1,1,0,0,0-.8.4,1.7,1.7,0,0,0-.3,1v3.4H28.3v-6h1.9v.9h0a2.1,2.1,0,0,1,1.9-1.1c1.3,0,2,.8,2,2.5Z" stroke="#000" stroke-miterlimit="10" stroke-width="0.05"/><path d="M36.5,105.7a1.1,1.1,0,0,1-.8-.3.7.7,0,0,1-.3-.6.9.9,0,0,1,.3-.7,1.2,1.2,0,0,1,1.6,0,.9.9,0,0,1,.3.7,1.1,1.1,0,0,1-.3.7Zm.9,7H35.6v-6h1.8Z" stroke="#000" stroke-miterlimit="10" stroke-width="0.05"/><path d="M44.7,106.7l-2.3,6H40.3l-2.1-6h2l1,3.7a2,2,0,0,1,.2,1h.1a5.8,5.8,0,0,1,.2-1l1-3.7Z" stroke="#000" stroke-miterlimit="10" stroke-width="0.05"/><path d="M50.7,110.2H46.8c.1.9.6,1.3,1.7,1.3a3.4,3.4,0,0,0,1.7-.5v1.4a4.4,4.4,0,0,1-2.1.4,3.2,3.2,0,0,1-2.3-.8,3.1,3.1,0,0,1-.8-2.2,3.2,3.2,0,0,1,.9-2.4,2.7,2.7,0,0,1,2.1-.9,2.6,2.6,0,0,1,2,.8,2.8,2.8,0,0,1,.7,2.1ZM49,109.1c0-.9-.3-1.3-1-1.3a1.1,1.1,0,0,0-.8.3,3,3,0,0,0-.4,1Z" stroke="#000" stroke-miterlimit="10" stroke-width="0.05"/><path d="M55.8,108.3H55a1.3,1.3,0,0,0-1,.4,2.1,2.1,0,0,0-.3,1.2v2.9H51.8v-6h1.9v1.1h0a1.6,1.6,0,0,1,1.6-1.2h.5Z" stroke="#000" stroke-miterlimit="10" stroke-width="0.05"/><path d="M56.3,112.5V111l.9.4.9.2.7-.2c.2-.1.3-.2.3-.4a.4.4,0,0,0-.1-.3l-.3-.2h-.5l-.4-.2-.7-.3c-.1-.1-.3-.2-.4-.4l-.3-.4a1.5,1.5,0,0,1-.1-.7,1.9,1.9,0,0,1,.2-.8,1.7,1.7,0,0,1,.6-.6l.8-.4h1.8l.8.2v1.4l-.7-.3H58.4l-.2.2c-.1,0-.1.1-.1.2a.4.4,0,0,0,.1.3l.3.2h.4l.4.2.7.2.5.4.3.5a1.3,1.3,0,0,1,.1.6,2,2,0,0,1-.2.9l-.6.7-.9.3H58.1A5.7,5.7,0,0,1,56.3,112.5Z" stroke="#000" stroke-miterlimit="10" stroke-width="0.05"/><path d="M67,112.7H65.2v-.9h0a1.9,1.9,0,0,1-1.8,1,1.7,1.7,0,0,1-1.9-1.8c0-1.2.7-1.8,2.1-2l1.6-.2c0-.7-.3-1-1-1a3.9,3.9,0,0,0-2.1.6V107l1.1-.3,1.2-.2a2.3,2.3,0,0,1,2.6,2.6Zm-1.8-2.5v-.4l-1.1.2c-.6,0-.9.3-.9.8a.5.5,0,0,0,.3.5l.5.2a1,1,0,0,0,.9-.4A1.2,1.2,0,0,0,65.2,110.2Z" stroke="#000" stroke-miterlimit="10" stroke-width="0.05"/><path d="M70.3,112.7H68.4v-8.9h1.9Z" stroke="#000" stroke-miterlimit="10" stroke-width="0.05"/><path d="M81,112.7H79.2v-.9h-.1a1.9,1.9,0,0,1-1.8,1,1.9,1.9,0,0,1-1.8-.8,2.9,2.9,0,0,1-.7-2.2,3.6,3.6,0,0,1,.7-2.4,2.7,2.7,0,0,1,2-.9,1.6,1.6,0,0,1,1.6.9h.1v-3.6H81Zm-1.8-2.9v-.5a1.7,1.7,0,0,0-.3-1,1.8,1.8,0,0,0-.9-.4,1.4,1.4,0,0,0-1,.5,2.6,2.6,0,0,0-.3,1.4A2.1,2.1,0,0,0,77,111a1,1,0,0,0,.9.4,1.1,1.1,0,0,0,1-.5A1.8,1.8,0,0,0,79.2,109.8Z" stroke="#000" stroke-miterlimit="10" stroke-width="0.05"/><path d="M85.4,112.8a3.4,3.4,0,0,1-2.3-.8,3,3,0,0,1-.9-2.3,2.9,2.9,0,0,1,.9-2.3,3.7,3.7,0,0,1,4.8,0,3.1,3.1,0,0,1,.8,2.2,3.2,3.2,0,0,1-.9,2.4A3.3,3.3,0,0,1,85.4,112.8Zm.1-4.9a1.1,1.1,0,0,0-1,.5,1.7,1.7,0,0,0-.4,1.3c0,1.1.5,1.7,1.4,1.7s1.3-.6,1.3-1.8S86.4,107.9,85.5,107.9Z" stroke="#000" stroke-miterlimit="10" stroke-width="0.05"/><path d="M39.8,118.7l-2.2,8.4H35.5l-1.4-5.4a3,3,0,0,1-.2-1h0a3,3,0,0,1-.2,1l-1.4,5.4H30.1l-2.2-8.4H30l1.2,5.6c0,.2.1.5.1.9h0a4.4,4.4,0,0,1,.2-1l1.5-5.5h2l1.4,5.6a6.4,6.4,0,0,1,.2.9h0a2.8,2.8,0,0,1,.1-.9l1.2-5.6Z" stroke="#000" stroke-miterlimit="10" stroke-width="0.05"/><path d="M41.6,120.1a1.1,1.1,0,0,1-.8-.3.7.7,0,0,1-.3-.6.9.9,0,0,1,.3-.7,1.2,1.2,0,0,1,1.6,0,.9.9,0,0,1,.3.7,1.1,1.1,0,0,1-.3.7Zm.9,7H40.7v-6h1.8Z" stroke="#000" stroke-miterlimit="10" stroke-width="0.05"/><path d="M49.9,127.1H48v-3.4c0-.9-.3-1.4-1-1.4a1.2,1.2,0,0,0-.8.4,1.6,1.6,0,0,0-.3.9v3.5H44.1v-6h1.8v.9h0a2.3,2.3,0,0,1,2-1.1c1.3,0,2,.8,2,2.5Z" stroke="#000" stroke-miterlimit="10" stroke-width="0.05"/><path d="M57.2,127.1H55.3v-.9h0a1.9,1.9,0,0,1-1.8,1,1.9,1.9,0,0,1-1.8-.8,2.9,2.9,0,0,1-.7-2.2,3.6,3.6,0,0,1,.7-2.4,2.5,2.5,0,0,1,2-.9,1.6,1.6,0,0,1,1.6.9h0v-3.6h1.9Zm-1.8-2.9v-.5a1.3,1.3,0,0,0-.4-1,1.2,1.2,0,0,0-.8-.4,1.1,1.1,0,0,0-1,.5,2.6,2.6,0,0,0-.4,1.4,2.1,2.1,0,0,0,.4,1.2,1,1,0,0,0,.9.4,1.1,1.1,0,0,0,.9-.5A1.5,1.5,0,0,0,55.4,124.2Z" stroke="#000" stroke-miterlimit="10" stroke-width="0.05"/><path d="M61.6,127.2a3.2,3.2,0,0,1-2.3-.8,3,3,0,0,1-.9-2.3,2.9,2.9,0,0,1,.9-2.3,3.2,3.2,0,0,1,2.4-.9,2.9,2.9,0,0,1,2.3.9,2.8,2.8,0,0,1,.9,2.2,3.2,3.2,0,0,1-.9,2.4A3.6,3.6,0,0,1,61.6,127.2Zm.1-4.9a1.4,1.4,0,0,0-1.1.5,2.3,2.3,0,0,0-.3,1.3c0,1.1.4,1.7,1.4,1.7s1.3-.6,1.3-1.8S62.6,122.3,61.7,122.3Z" stroke="#000" stroke-miterlimit="10" stroke-width="0.05"/><path d="M74.8,121.1l-1.7,6h-2l-.9-3.5c0-.3-.1-.5-.1-.8h0c0,.3-.1.5-.1.7l-1,3.6H67.1l-1.7-6h1.9l.8,3.9a1.5,1.5,0,0,1,.1.7h0a2.3,2.3,0,0,0,.1-.7l1.1-3.9h1.7l1,3.9a2.6,2.6,0,0,0,.1.7h0a1.5,1.5,0,0,1,.1-.7l.8-3.9Z" stroke="#000" stroke-miterlimit="10" stroke-width="0.05"/><path d="M75.3,126.9v-1.5l.9.4.8.2a1.5,1.5,0,0,0,.8-.2c.2-.1.3-.2.3-.4a.4.4,0,0,0-.1-.3l-.4-.2h-.4l-.5-.2-.6-.3-.5-.4a.5.5,0,0,1-.2-.4,1.5,1.5,0,0,1-.1-.7,1.1,1.1,0,0,1,.2-.8.9.9,0,0,1,.6-.6,2,2,0,0,1,.8-.4h1.8l.8.2v1.4l-.7-.3H77.3c0,.1-.1.1-.2.2v.2a.4.4,0,0,0,.1.3l.3.2h.3l.5.2.6.2.5.4a1,1,0,0,1,.4.5c0,.2.1.4.1.6a1.2,1.2,0,0,1-.3.9,1.3,1.3,0,0,1-.6.7l-.9.3h-1A4.8,4.8,0,0,1,75.3,126.9Z" stroke="#000" stroke-miterlimit="10" stroke-width="0.05"/><path d="M212.4,84.3h-1V80.5h-4.3v3.8h-1V75.9h1v3.7h4.3V75.9h1Z" fill="#1e1e1e" stroke="#1e1e1e" stroke-miterlimit="10" stroke-width="0.06"/><path d="M219.5,76.8h-2.4v7.5h-1V76.8h-2.4v-.9h5.8Z" fill="#1e1e1e" stroke="#1e1e1e" stroke-miterlimit="10" stroke-width="0.06"/><path d="M226,76.8h-2.5v7.5h-.9V76.8h-2.5v-.9H226Z" fill="#1e1e1e" stroke="#1e1e1e" stroke-miterlimit="10" stroke-width="0.06"/><path d="M228.2,81.1v3.2h-1V75.9h2.3a3.3,3.3,0,0,1,2.1.6,2.6,2.6,0,0,1,.8,1.9,2.7,2.7,0,0,1-.9,2,3.1,3.1,0,0,1-2.2.7Zm0-4.3v3.4h1a2.5,2.5,0,0,0,1.6-.4,2,2,0,0,0,.5-1.4c0-1.1-.6-1.6-1.9-1.6Z" fill="#1e1e1e" stroke="#1e1e1e" stroke-miterlimit="10" stroke-width="0.06"/><path d="M243.4,83.7a5.5,5.5,0,0,1-2.8.7,4.4,4.4,0,0,1-3-1.1,4.5,4.5,0,0,1-1.1-3.1,4.1,4.1,0,0,1,1.3-3.2,4.1,4.1,0,0,1,3.1-1.2,5.3,5.3,0,0,1,2.3.4v1.1a4.8,4.8,0,0,0-2.4-.7,3.1,3.1,0,0,0-2.3,1,3.7,3.7,0,0,0-.9,2.5,3.3,3.3,0,0,0,.8,2.5,3,3,0,0,0,2.3.9,4.7,4.7,0,0,0,1.7-.3V80.8h-1.9v-.9h2.9Z" fill="#1e1e1e" stroke="#1e1e1e" stroke-miterlimit="10" stroke-width="0.06"/><path d="M249.7,84.3h-4.5V75.9h4.3v.9h-3.3v2.8h3.1v.9h-3.1v2.9h3.5Z" fill="#1e1e1e" stroke="#1e1e1e" stroke-miterlimit="10" stroke-width="0.06"/><path d="M256.2,76.8h-2.4v7.5h-1V76.8h-2.4v-.9h5.8Z" fill="#1e1e1e" stroke="#1e1e1e" stroke-miterlimit="10" stroke-width="0.06"/><path d="M266.4,81.2h-2.3v2.3h-.8V81.2h-2.4v-.8h2.4V78h.8v2.4h2.3Z" fill="#1e1e1e" stroke="#1e1e1e" stroke-miterlimit="10" stroke-width="0.06"/><path d="M211.1,91h-2.5v7.5h-.9V91h-2.5v-.9h5.9Z" fill="#1e1e1e" stroke="#1e1e1e" stroke-miterlimit="10" stroke-width="0.06"/><path d="M213.5,98.6a2.5,2.5,0,0,1-2.1-.8,3.3,3.3,0,0,1-.8-2.2,3.6,3.6,0,0,1,.8-2.4,3,3,0,0,1,2.3-.8,2.5,2.5,0,0,1,2.1.8,3.2,3.2,0,0,1,.7,2.3,3.6,3.6,0,0,1-.8,2.3A3.1,3.1,0,0,1,213.5,98.6Zm.1-5.4a2,2,0,0,0-1.5.6,3.1,3.1,0,0,0,0,3.4,2,2,0,0,0,1.5.6,1.7,1.7,0,0,0,1.4-.6,3.1,3.1,0,0,0,0-3.4A1.7,1.7,0,0,0,213.6,93.2Z" fill="#1e1e1e" stroke="#1e1e1e" stroke-miterlimit="10" stroke-width="0.06"/><path d="M223,98.5h-1.4L219,95.6h-.1v2.9H218V89.6h.9v5.6h.1l2.5-2.7h1.2L220,95.4Z" fill="#1e1e1e" stroke="#1e1e1e" stroke-miterlimit="10" stroke-width="0.06"/><path d="M228.7,95.7h-4.2a2.5,2.5,0,0,0,.5,1.6,2,2,0,0,0,1.4.5,3.3,3.3,0,0,0,1.9-.6v.9a4.1,4.1,0,0,1-2.1.5,2.3,2.3,0,0,1-2-.8,3.2,3.2,0,0,1-.7-2.3,3.1,3.1,0,0,1,.8-2.3,2.2,2.2,0,0,1,1.9-.8,2.5,2.5,0,0,1,1.9.7,3.3,3.3,0,0,1,.6,2.1Zm-1-.8a1.8,1.8,0,0,0-.4-1.3,1.4,1.4,0,0,0-1.1-.4,1.5,1.5,0,0,0-1.1.4,1.8,1.8,0,0,0-.6,1.3Z" fill="#1e1e1e" stroke="#1e1e1e" stroke-miterlimit="10" stroke-width="0.06"/><path d="M235.1,98.5h-1V95.1c0-1.3-.5-1.9-1.4-1.9a1.3,1.3,0,0,0-1.2.5,2.2,2.2,0,0,0-.5,1.4v3.4h-.9v-6h.9v1h.1a2,2,0,0,1,1.9-1.1,1.8,1.8,0,0,1,1.5.6,2.4,2.4,0,0,1,.6,1.8Z" fill="#1e1e1e" stroke="#1e1e1e" stroke-miterlimit="10" stroke-width="0.06"/><path d="M245.1,98.5h-.9v-1h-.1a2.2,2.2,0,0,1-2,1.1,1.9,1.9,0,0,1-1.8-.8,2.9,2.9,0,0,1-.7-2.2,3.6,3.6,0,0,1,.7-2.4,2.8,2.8,0,0,1,2-.8,1.8,1.8,0,0,1,1.8.9h.1V89.6h.9Zm-.9-2.7v-.9a1.7,1.7,0,0,0-.5-1.2,1.3,1.3,0,0,0-1.2-.5,1.7,1.7,0,0,0-1.4.6,3,3,0,0,0-.5,1.8,2.1,2.1,0,0,0,.5,1.6,1.5,1.5,0,0,0,1.3.6,1.8,1.8,0,0,0,1.3-.6A2,2,0,0,0,244.2,95.8Z" fill="#1e1e1e" stroke="#1e1e1e" stroke-miterlimit="10" stroke-width="0.06"/><path d="M251.8,95.7h-4.2a2.5,2.5,0,0,0,.5,1.6,2.2,2.2,0,0,0,1.4.5,3.3,3.3,0,0,0,1.9-.6v.9a4.1,4.1,0,0,1-2.1.5,2.4,2.4,0,0,1-2-.8,3.2,3.2,0,0,1-.7-2.3,3.6,3.6,0,0,1,.8-2.3,2.4,2.4,0,0,1,2-.8,2.3,2.3,0,0,1,1.8.7,3.3,3.3,0,0,1,.6,2.1Zm-1-.8a1.8,1.8,0,0,0-.4-1.3,1.2,1.2,0,0,0-1.1-.4,1.5,1.5,0,0,0-1.1.4,3.1,3.1,0,0,0-.6,1.3Z" fill="#1e1e1e" stroke="#1e1e1e" stroke-miterlimit="10" stroke-width="0.06"/><path d="M260.7,98.5h-.9v-.9h-.1a1.9,1.9,0,0,1-1.8,1,2,2,0,0,1-1.4-.4,1.7,1.7,0,0,1-.5-1.3c0-1.1.6-1.8,2-2l1.8-.2c0-1-.5-1.5-1.3-1.5a2.6,2.6,0,0,0-1.9.7v-1a3.3,3.3,0,0,1,2-.5c1.4,0,2.1.7,2.1,2.2Zm-.9-3-1.5.2a1.5,1.5,0,0,0-1,.3c-.2.1-.3.4-.3.8a.8.8,0,0,0,.3.7,1.1,1.1,0,0,0,.8.3,1.3,1.3,0,0,0,1.2-.5,1.7,1.7,0,0,0,.5-1.2Z" fill="#1e1e1e" stroke="#1e1e1e" stroke-miterlimit="10" stroke-width="0.06"/><path d="M266.5,98.2a2.7,2.7,0,0,1-1.6.4,2.6,2.6,0,0,1-2.1-.8,3.3,3.3,0,0,1-.8-2.2,3.1,3.1,0,0,1,3.2-3.2l1.4.2v1a2.8,2.8,0,0,0-1.5-.4,2,2,0,0,0-1.5.6,2.6,2.6,0,0,0-.6,1.8,2.1,2.1,0,0,0,.6,1.6,2.2,2.2,0,0,0,2.9.1Z" fill="#1e1e1e" stroke="#1e1e1e" stroke-miterlimit="10" stroke-width="0.06"/><path d="M272.7,95.7h-4.2a2.1,2.1,0,0,0,.6,1.6,2,2,0,0,0,1.4.5,3,3,0,0,0,1.8-.6v.9a4.1,4.1,0,0,1-2.1.5,2.4,2.4,0,0,1-2-.8,3.7,3.7,0,0,1-.7-2.3,3.6,3.6,0,0,1,.8-2.3,2.4,2.4,0,0,1,2-.8,2.1,2.1,0,0,1,1.8.7,3.3,3.3,0,0,1,.6,2.1Zm-.9-.8a2.5,2.5,0,0,0-.4-1.3,1.5,1.5,0,0,0-1.1-.4,1.6,1.6,0,0,0-1.2.4,3.1,3.1,0,0,0-.6,1.3Z" fill="#1e1e1e" stroke="#1e1e1e" stroke-miterlimit="10" stroke-width="0.06"/><path d="M273.8,98.3V97.2a2.7,2.7,0,0,0,1.7.6c.8,0,1.3-.3,1.3-.8s-.1-.3-.1-.4l-.3-.3-.5-.3-.5-.2-.7-.3-.5-.3-.3-.5a1.3,1.3,0,0,1-.1-.6,1.2,1.2,0,0,1,.2-.8l.5-.5a.9.9,0,0,1,.7-.3h.9a3.2,3.2,0,0,1,1.4.2v1a2.9,2.9,0,0,0-1.6-.4h-.4l-.4.2-.3.3v.7l.3.3.4.2.5.2.7.3.6.4.3.5c.1.1.1.3.1.6a1.2,1.2,0,0,1-.2.8l-.5.5a.9.9,0,0,1-.7.3h-.9A3.8,3.8,0,0,1,273.8,98.3Z" fill="#1e1e1e" stroke="#1e1e1e" stroke-miterlimit="10" stroke-width="0.06"/><path d="M278.8,98.3V97.2a2.7,2.7,0,0,0,1.7.6c.9,0,1.3-.3,1.3-.8s-.1-.3-.1-.4l-.3-.3-.5-.3-.5-.2-.7-.3-.5-.3-.3-.5a1.3,1.3,0,0,1-.1-.6,2.4,2.4,0,0,1,.2-.8l.5-.5a1.1,1.1,0,0,1,.7-.3h.9a3.2,3.2,0,0,1,1.4.2v1a2.8,2.8,0,0,0-1.5-.4h-.5l-.4.2c-.1.1-.2.2-.2.3a.4.4,0,0,0-.1.3c0,.2,0,.3.1.4l.2.3.4.2.5.2.8.3.5.4a.5.5,0,0,1,.3.5.8.8,0,0,1,.2.6,2.4,2.4,0,0,1-.2.8c-.2.2-.3.4-.6.5a.9.9,0,0,1-.7.3h-.9A3.8,3.8,0,0,1,278.8,98.3Z" fill="#1e1e1e" stroke="#1e1e1e" stroke-miterlimit="10" stroke-width="0.06"/><path d="M286.7,98.6a2.5,2.5,0,0,1-2.1-.8,2.9,2.9,0,0,1-.8-2.2,3.2,3.2,0,0,1,.8-2.4,2.7,2.7,0,0,1,2.2-.8,2.5,2.5,0,0,1,2.1.8,3.2,3.2,0,0,1,.8,2.3,3.6,3.6,0,0,1-.8,2.3A3.3,3.3,0,0,1,286.7,98.6Zm0-5.4a1.7,1.7,0,0,0-1.4.6,2.7,2.7,0,0,0,0,3.4,1.8,1.8,0,0,0,1.4.6,1.9,1.9,0,0,0,1.5-.6,3.1,3.1,0,0,0,0-3.4A1.9,1.9,0,0,0,286.7,93.2Z" fill="#1e1e1e" stroke="#1e1e1e" stroke-miterlimit="10" stroke-width="0.06"/><path d="M394.7,30.3v2.9h-1.9V24.8h3c2.1,0,3.2.9,3.2,2.7a2.6,2.6,0,0,1-1,2,3.2,3.2,0,0,1-2.4.8Zm0-4v2.6h.7c1.1,0,1.6-.5,1.6-1.3s-.5-1.3-1.6-1.3Z" fill="#fff" stroke="#fff" stroke-miterlimit="10" stroke-width="0.05"/><path d="M401.9,33.2H400V24.3h1.9Z" fill="#fff" stroke="#fff" stroke-miterlimit="10" stroke-width="0.05"/><path d="M408.4,33.2h-1.8v-.8h0a2.1,2.1,0,0,1-1.8,1,1.9,1.9,0,0,1-1.3-.5,1.7,1.7,0,0,1-.5-1.4c0-1.1.7-1.8,2-2l1.7-.2a1,1,0,0,0-1.1-1,3.1,3.1,0,0,0-2,.7V27.6a2.3,2.3,0,0,1,1-.4h1.2c1.7,0,2.6.8,2.6,2.5Zm-1.7-2.4v-.4h-1.1c-.6.1-.9.4-.9.8s0,.4.2.5.3.2.6.2a1.1,1.1,0,0,0,.8-.3A1.2,1.2,0,0,0,406.7,30.8Z" fill="#fff" stroke="#fff" stroke-miterlimit="10" stroke-width="0.05"/><path d="M413.5,33.1a2.1,2.1,0,0,1-1.2.3,1.8,1.8,0,0,1-2-2.1V28.6h-1V27.2h1V25.9l1.8-.5v1.8h1.4v1.4h-1.4V31c0,.6.3.9.8.9h.6Z" fill="#fff" stroke="#fff" stroke-miterlimit="10" stroke-width="0.05"/><path d="M419.5,33.2h-1.7v-.8h0a2.1,2.1,0,0,1-1.8,1,2,2,0,0,1-1.4-.5,2.2,2.2,0,0,1-.5-1.4c0-1.1.7-1.8,2.1-2l1.6-.2a1,1,0,0,0-1.1-1,3.1,3.1,0,0,0-2,.7V27.6a2.3,2.3,0,0,1,1-.4H417a2.2,2.2,0,0,1,2.5,2.5Zm-1.7-2.4v-.4h-1.1c-.6.1-.9.4-.9.8a.8.8,0,0,0,.2.5.7.7,0,0,0,.6.2,1.4,1.4,0,0,0,.9-.3A1.6,1.6,0,0,0,417.8,30.8Z" fill="#fff" stroke="#fff" stroke-miterlimit="10" stroke-width="0.05"/><path d="M424.9,25.7h-.7c-.6,0-.9.3-.9,1v.6h1.4v1.4h-1.4v4.6h-1.8V28.6h-1V27.2h1v-.7a2.1,2.1,0,0,1,.7-1.7,2.4,2.4,0,0,1,1.8-.6h.9Z" fill="#fff" stroke="#fff" stroke-miterlimit="10" stroke-width="0.05"/><path d="M428.5,33.4a3.2,3.2,0,0,1-2.4-.9,2.9,2.9,0,0,1-.9-2.3,3,3,0,0,1,.9-2.3,4,4,0,0,1,4.8,0,3.3,3.3,0,0,1,.8,2.2,3.6,3.6,0,0,1-.8,2.4A3.2,3.2,0,0,1,428.5,33.4Zm0-4.9a1.2,1.2,0,0,0-1,.4,1.8,1.8,0,0,0-.4,1.3c0,1.2.5,1.7,1.4,1.7s1.3-.6,1.3-1.7S429.4,28.5,428.5,28.5Z" fill="#fff" stroke="#fff" stroke-miterlimit="10" stroke-width="0.05"/><path d="M436.8,28.9l-.7-.2a1.2,1.2,0,0,0-1,.4,2.1,2.1,0,0,0-.3,1.2v2.9h-1.9v-6h1.9v1.1h0a1.6,1.6,0,0,1,1.6-1.2h.4Z" fill="#fff" stroke="#fff" stroke-miterlimit="10" stroke-width="0.05"/><path d="M447.3,33.2h-1.9V29.8c0-.9-.3-1.3-.9-1.3a.9.9,0,0,0-.8.4,1.5,1.5,0,0,0-.3,1v3.3h-1.8V29.8c0-.9-.3-1.3-1-1.3a.8.8,0,0,0-.7.4,1.3,1.3,0,0,0-.3,1v3.3h-1.9v-6h1.9v1h0a2,2,0,0,1,.8-.8,2.4,2.4,0,0,1,1.2-.3,1.6,1.6,0,0,1,1.7,1.1,2.1,2.1,0,0,1,2-1.1c1.3,0,2,.8,2,2.4Z" fill="#fff" stroke="#fff" stroke-miterlimit="10" stroke-width="0.05"/><path d="M453.7,33.2H452v-.8h-.1a1.9,1.9,0,0,1-1.7,1,2,2,0,0,1-1.4-.5,2.2,2.2,0,0,1-.5-1.4c0-1.1.7-1.8,2.1-2l1.6-.2a1,1,0,0,0-1.1-1,3.1,3.1,0,0,0-2,.7V27.6a2.3,2.3,0,0,1,1-.4h1.3a2.2,2.2,0,0,1,2.5,2.5ZM452,30.8v-.4h-1.1c-.6.1-.9.4-.9.8a.8.8,0,0,0,.2.5.7.7,0,0,0,.6.2,1.4,1.4,0,0,0,.9-.3A1.6,1.6,0,0,0,452,30.8Z" fill="#fff" stroke="#fff" stroke-miterlimit="10" stroke-width="0.05"/><path d="M390.9,47.6h-1.8v-.8H389a2.1,2.1,0,0,1-1.8,1,2.2,2.2,0,0,1-1.8-.8,3.3,3.3,0,0,1-.7-2.3,3.1,3.1,0,0,1,.8-2.3,2.3,2.3,0,0,1,1.9-.9,1.5,1.5,0,0,1,1.6.8h.1V38.7h1.8Zm-1.8-2.9v-.5a1.4,1.4,0,0,0-.3-.9,1.2,1.2,0,0,0-.9-.4,1.1,1.1,0,0,0-1,.5,2.3,2.3,0,0,0-.3,1.3,2.1,2.1,0,0,0,.3,1.2,1,1,0,0,0,.9.4,1.3,1.3,0,0,0,1-.4A2.1,2.1,0,0,0,389.1,44.7Z" fill="#fff" stroke="#fff" stroke-miterlimit="10" stroke-width="0.05"/><path d="M397.9,45.1H394c0,.9.6,1.3,1.6,1.3a3.1,3.1,0,0,0,1.7-.4v1.3a4.1,4.1,0,0,1-2.1.5,2.8,2.8,0,0,1-3.1-3.1,2.9,2.9,0,0,1,3-3.2,2.8,2.8,0,0,1,2.1.7,3.8,3.8,0,0,1,.7,2.2ZM396.2,44c0-.9-.4-1.3-1.1-1.3a1,1,0,0,0-.8.4,1.9,1.9,0,0,0-.4.9Z" fill="#fff" stroke="#fff" stroke-miterlimit="10" stroke-width="0.05"/><path d="M403.2,40.7a1,1,0,0,1-.7-1.7.8.8,0,0,1,.7-.2,1.1,1.1,0,0,1,.8.2,1,1,0,0,1,0,1.4A1.1,1.1,0,0,1,403.2,40.7Zm.9,6.9h-1.8v-6h1.8Z" fill="#fff" stroke="#fff" stroke-miterlimit="10" stroke-width="0.05"/><path d="M411.6,47.6h-1.9v-.8h0a2.3,2.3,0,0,1-1.9,1A2.5,2.5,0,0,1,406,47a3.9,3.9,0,0,1-.7-2.3,3.6,3.6,0,0,1,.8-2.3,2.5,2.5,0,0,1,2-.9,1.6,1.6,0,0,1,1.6.8h0V38.7h1.9Zm-1.9-2.9v-.5a1.4,1.4,0,0,0-.3-.9,1,1,0,0,0-.9-.4.9.9,0,0,0-.9.5,1.7,1.7,0,0,0-.4,1.3,1.6,1.6,0,0,0,.4,1.2,1.2,1.2,0,0,0,1.8,0A2.1,2.1,0,0,0,409.7,44.7Z" fill="#fff" stroke="#fff" stroke-miterlimit="10" stroke-width="0.05"/><path d="M418.5,45.1h-3.9c.1.9.6,1.3,1.6,1.3A3.4,3.4,0,0,0,418,46v1.3a4.8,4.8,0,0,1-2.2.5,3.1,3.1,0,0,1-2.2-.8,3,3,0,0,1-.8-2.3,3.6,3.6,0,0,1,.8-2.4,3.3,3.3,0,0,1,2.2-.8,2.7,2.7,0,0,1,2,.7,3.2,3.2,0,0,1,.7,2.2ZM416.8,44c0-.9-.3-1.3-1-1.3a.9.9,0,0,0-.8.4,1.3,1.3,0,0,0-.4.9Z" fill="#fff" stroke="#fff" stroke-miterlimit="10" stroke-width="0.05"/><path d="M425.4,47.6h-1.8V44.3c0-1-.4-1.4-1-1.4a.8.8,0,0,0-.8.4,1.2,1.2,0,0,0-.3.9v3.4h-1.9v-6h1.9v1h0a2,2,0,0,1,1.9-1.1c1.3,0,2,.8,2,2.4Z" fill="#fff" stroke="#fff" stroke-miterlimit="10" stroke-width="0.05"/><path d="M430.5,47.5a2.1,2.1,0,0,1-1.2.3,1.8,1.8,0,0,1-2-2.1V43h-1V41.6h1V40.3l1.9-.5v1.8h1.3V43h-1.3v2.4c0,.6.2.9.7.9h.6Z" fill="#fff" stroke="#fff" stroke-miterlimit="10" stroke-width="0.05"/><path d="M432.5,40.7a1.1,1.1,0,0,1-.8-.3,1,1,0,0,1,0-1.4,1.7,1.7,0,0,1,1.6,0,1.3,1.3,0,0,1,0,1.4A1.1,1.1,0,0,1,432.5,40.7Zm.9,6.9h-1.9v-6h1.9Z" fill="#fff" stroke="#fff" stroke-miterlimit="10" stroke-width="0.05"/><path d="M440.8,47.6H439v-.8h0a2.4,2.4,0,0,1-1.9,1,2.2,2.2,0,0,1-1.8-.8,3.3,3.3,0,0,1-.7-2.3,3.6,3.6,0,0,1,.8-2.3,2.3,2.3,0,0,1,1.9-.9,1.8,1.8,0,0,1,1.7.8h0V38.7h1.8ZM439,44.7v-.5a1.4,1.4,0,0,0-.3-.9,1.2,1.2,0,0,0-.9-.4,1.1,1.1,0,0,0-1,.5,2.3,2.3,0,0,0-.3,1.3,2.1,2.1,0,0,0,.3,1.2,1,1,0,0,0,.9.4,1.3,1.3,0,0,0,1-.4A2.1,2.1,0,0,0,439,44.7Z" fill="#fff" stroke="#fff" stroke-miterlimit="10" stroke-width="0.05"/><path d="M447.4,47.6h-1.8v-.8h0a2.1,2.1,0,0,1-1.8,1,1.7,1.7,0,0,1-1.9-1.9c0-1.1.7-1.8,2.1-2l1.6-.2a.9.9,0,0,0-1-1,3.5,3.5,0,0,0-2.1.7V42l1.1-.4h1.2c1.7,0,2.6.8,2.6,2.5Zm-1.8-2.4v-.4h-1.1c-.6.1-.9.4-.9.8a.5.5,0,0,0,.3.5c.1.2.3.2.6.2a1.1,1.1,0,0,0,.8-.3A1.6,1.6,0,0,0,445.6,45.2Z" fill="#fff" stroke="#fff" stroke-miterlimit="10" stroke-width="0.05"/><path d="M454.7,47.6h-1.8v-.8h-.1a2.1,2.1,0,0,1-1.8,1,2.2,2.2,0,0,1-1.8-.8,3.3,3.3,0,0,1-.7-2.3,3.5,3.5,0,0,1,.7-2.3,2.5,2.5,0,0,1,2-.9,1.5,1.5,0,0,1,1.6.8h.1V38.7h1.8Zm-1.8-2.9v-.5a1.4,1.4,0,0,0-.3-.9,1.2,1.2,0,0,0-.9-.4,1,1,0,0,0-1,.5,2.3,2.3,0,0,0-.3,1.3,2.1,2.1,0,0,0,.3,1.2,1.2,1.2,0,0,0,1.8,0A1.6,1.6,0,0,0,452.9,44.7Z" fill="#fff" stroke="#fff" stroke-miterlimit="10" stroke-width="0.05"/><path d="M461.7,45.1h-4c.1.9.7,1.3,1.7,1.3a3.1,3.1,0,0,0,1.7-.4v1.3a4.1,4.1,0,0,1-2.1.5,2.8,2.8,0,0,1-3.1-3.1,2.9,2.9,0,0,1,3-3.2,2.4,2.4,0,0,1,2,.7,3.3,3.3,0,0,1,.8,2.2ZM459.9,44c0-.9-.3-1.3-1-1.3a.9.9,0,0,0-.8.4,1.9,1.9,0,0,0-.4.9Z" fill="#fff" stroke="#fff" stroke-miterlimit="10" stroke-width="0.05"/><path d="M393.9,62H392v-.8h0a2.3,2.3,0,0,1-1.9,1,2.5,2.5,0,0,1-1.8-.8,3.9,3.9,0,0,1-.7-2.3,3.6,3.6,0,0,1,.8-2.3,2.4,2.4,0,0,1,2-.9,1.6,1.6,0,0,1,1.6.8h0V53.1h1.9ZM392,59.1v-.5a1.4,1.4,0,0,0-.3-.9,1,1,0,0,0-.9-.4.9.9,0,0,0-.9.5,1.7,1.7,0,0,0-.4,1.3,2.1,2.1,0,0,0,.3,1.2,1.3,1.3,0,0,0,1,.4,1.2,1.2,0,0,0,.9-.4A2.1,2.1,0,0,0,392,59.1Z" fill="#fff" stroke="#fff" stroke-miterlimit="10" stroke-width="0.05"/><path d="M400.4,62h-1.7v-.8h-.1a2.1,2.1,0,0,1-1.8,1,1.9,1.9,0,0,1-1.3-.5,1.7,1.7,0,0,1-.5-1.4c0-1.1.7-1.8,2-2l1.7-.2a1,1,0,0,0-1.1-1,3.1,3.1,0,0,0-2,.7V56.4a2.3,2.3,0,0,1,1-.4h1.2c1.8,0,2.6.8,2.6,2.5Zm-1.7-2.4v-.4h-1.1c-.6.1-.9.4-.9.8s0,.4.2.5.3.2.6.2a1.1,1.1,0,0,0,.8-.3A1.2,1.2,0,0,0,398.7,59.6Z" fill="#fff" stroke="#fff" stroke-miterlimit="10" stroke-width="0.05"/><path d="M414.9,62h-1.8V55.2h0a5.3,5.3,0,0,1-.3,1.1L410.9,62h-1.6l-2-5.6a4.9,4.9,0,0,0-.3-1.2h0c0,.8.1,1.5.1,2.2V62h-1.7V53.6h2.7l1.8,5,.3,1.2h0a10.4,10.4,0,0,1,.3-1.2l1.7-5h2.7Z" fill="#fff" stroke="#fff" stroke-miterlimit="10" stroke-width="0.05"/><path d="M417.6,55.1a1.1,1.1,0,0,1-.8-.3,1,1,0,0,1,0-1.4,1.7,1.7,0,0,1,1.6,0,1,1,0,0,1,0,1.4A1.1,1.1,0,0,1,417.6,55.1Zm.9,6.9h-1.8V56h1.8Z" fill="#fff" stroke="#fff" stroke-miterlimit="10" stroke-width="0.05"/><path d="M424.6,61.8a4,4,0,0,1-1.8.4,2.8,2.8,0,0,1-2.2-.9,2.7,2.7,0,0,1-.9-2.1,3.3,3.3,0,0,1,.9-2.5,3.9,3.9,0,0,1,2.5-.8l1.5.2v1.6a2,2,0,0,0-1.3-.4,1.3,1.3,0,0,0-1.2.5,1.7,1.7,0,0,0-.5,1.2,1.7,1.7,0,0,0,.4,1.3,1.8,1.8,0,0,0,1.3.4,2.2,2.2,0,0,0,1.3-.4Z" fill="#fff" stroke="#fff" stroke-miterlimit="10" stroke-width="0.05"/><path d="M429.8,57.7l-.8-.2a1.3,1.3,0,0,0-1,.4,2.1,2.1,0,0,0-.3,1.2V62h-1.9V56h1.9v1.1h0a1.6,1.6,0,0,1,1.6-1.2h.5Z" fill="#fff" stroke="#fff" stroke-miterlimit="10" stroke-width="0.05"/><path d="M433.4,62.2a3.1,3.1,0,0,1-3.2-3.2,3,3,0,0,1,.9-2.3,3.2,3.2,0,0,1,2.4-.8,2.8,2.8,0,0,1,2.3.8,2.9,2.9,0,0,1,.9,2.2,3.1,3.1,0,0,1-3.3,3.3Zm.1-4.9a1.1,1.1,0,0,0-1,.4,1.8,1.8,0,0,0-.4,1.3c0,1.2.5,1.7,1.4,1.7s1.3-.6,1.3-1.7S434.4,57.3,433.5,57.3Z" fill="#fff" stroke="#fff" stroke-miterlimit="10" stroke-width="0.05"/><path d="M437.5,61.9V60.4l.9.4h1.7a.8.8,0,0,0,.2-.4c0-.2,0-.3-.1-.3l-.3-.2-.5-.2-.4-.2-.7-.2-.4-.4-.3-.5a1.3,1.3,0,0,1-.1-.6,2.4,2.4,0,0,1,.2-.9l.6-.6a2.4,2.4,0,0,1,.9-.3h1.7l.9.2v1.4l-.8-.3h-1.4c-.1,0-.2,0-.2.1s-.1.1-.1.2.1.2.1.3l.3.2.4.2h.4l.7.3.5.3.3.5a1.5,1.5,0,0,1,.1.7,2.9,2.9,0,0,1-.2.9l-.6.6-.9.4h-1.1A5.7,5.7,0,0,1,437.5,61.9Z" fill="#fff" stroke="#fff" stroke-miterlimit="10" stroke-width="0.05"/><path d="M446,62.2a3,3,0,0,1-2.3-.9,2.9,2.9,0,0,1-.9-2.3,3,3,0,0,1,.9-2.3,4,4,0,0,1,4.8,0,3.3,3.3,0,0,1,.8,2.2,3.2,3.2,0,0,1-.9,2.4A3,3,0,0,1,446,62.2Zm.1-4.9a1.1,1.1,0,0,0-1,.4,1.8,1.8,0,0,0-.4,1.3c0,1.2.5,1.7,1.4,1.7s1.3-.6,1.3-1.7S447,57.3,446.1,57.3Z" fill="#fff" stroke="#fff" stroke-miterlimit="10" stroke-width="0.05"/><path d="M454.2,54.5h-.6c-.6,0-.9.3-.9,1V56H454v1.4h-1.3V62h-1.9V57.4h-1V56h1v-.7a2.1,2.1,0,0,1,.7-1.7,2.4,2.4,0,0,1,1.8-.6h.9Z" fill="#fff" stroke="#fff" stroke-miterlimit="10" stroke-width="0.05"/><path d="M458.8,61.9a2.1,2.1,0,0,1-1.2.3c-1.4,0-2-.7-2-2.1V57.4h-1V56h1V54.7l1.8-.5V56h1.4v1.4h-1.4v2.4c0,.6.3.9.8.9h.6Z" fill="#fff" stroke="#fff" stroke-miterlimit="10" stroke-width="0.05"/><path d="M412.3,112.2h-2l-.6-1.8h-3l-.6,1.8h-2l3-8.4h2.3Zm-3-3.3-1-2.8c0-.2-.1-.5-.1-.8h0c-.1.3-.1.5-.2.8l-.9,2.8Z" fill="#0072c6" stroke="#0072c6" stroke-miterlimit="10" stroke-width="0.05"/><path d="M415.3,109.3v2.9h-1.9v-8.4h3c2.1,0,3.1.9,3.1,2.7a2.7,2.7,0,0,1-.9,2.1,3.6,3.6,0,0,1-2.4.7Zm0-4v2.6h.7c1,0,1.5-.4,1.5-1.3s-.5-1.3-1.5-1.3Z" fill="#0072c6" stroke="#0072c6" stroke-miterlimit="10" stroke-width="0.05"/><path d="M422.7,112.2h-1.9v-8.4h1.9Z" fill="#0072c6" stroke="#0072c6" stroke-miterlimit="10" stroke-width="0.05"/><path d="M433.6,112.2h-1.9v-.8h0a2,2,0,0,1-1.9,1,2.5,2.5,0,0,1-1.8-.8,3.6,3.6,0,0,1-.7-2.2,3.6,3.6,0,0,1,.8-2.4,2.5,2.5,0,0,1,2-.9,1.8,1.8,0,0,1,1.6.8h0v-3.6h1.9Zm-1.8-2.9v-.4a1.5,1.5,0,0,0-.4-1,1,1,0,0,0-.9-.4,1.1,1.1,0,0,0-.9.5,1.8,1.8,0,0,0-.4,1.3,1.6,1.6,0,0,0,.4,1.2,1.1,1.1,0,0,0,1.8,0A2.1,2.1,0,0,0,431.8,109.3Z" fill="#0072c6" stroke="#0072c6" stroke-miterlimit="10" stroke-width="0.05"/><path d="M438,112.4a3.2,3.2,0,0,1-2.4-.9,3.1,3.1,0,0,1-.8-2.2,3.2,3.2,0,0,1,.9-2.4,3.6,3.6,0,0,1,2.4-.8,3.4,3.4,0,0,1,2.3.8,3,3,0,0,1,.9,2.3,3.2,3.2,0,0,1-.9,2.3A3.2,3.2,0,0,1,438,112.4Zm0-4.9a1.4,1.4,0,0,0-1,.5,2.1,2.1,0,0,0-.3,1.2c0,1.2.4,1.8,1.3,1.8s1.4-.6,1.4-1.8S438.9,107.5,438,107.5Z" fill="#0072c6" stroke="#0072c6" stroke-miterlimit="10" stroke-width="0.05"/><path d="M406,126.6h-1.8v-5a12.1,12.1,0,0,1,.1-1.8h-.1a5.3,5.3,0,0,1-.3,1.1l-1.9,5.7h-1.6l-2-5.6c0-.2-.1-.6-.2-1.2h-.1a17.7,17.7,0,0,1,.1,2.2v4.6h-1.7v-8.4h2.7l1.8,5,.3,1.2h0a10.4,10.4,0,0,1,.3-1.2l1.7-5H406Z" fill="#0072c6" stroke="#0072c6" stroke-miterlimit="10" stroke-width="0.05"/><path d="M408.7,119.7a1.1,1.1,0,0,1-.8-.3,1,1,0,0,1,0-1.4l.8-.2.8.2a1,1,0,0,1,0,1.4A1.1,1.1,0,0,1,408.7,119.7Zm.9,6.9h-1.8v-6h1.8Z" fill="#0072c6" stroke="#0072c6" stroke-miterlimit="10" stroke-width="0.05"/><path d="M415.7,126.4a3,3,0,0,1-1.8.4,2.9,2.9,0,0,1-2.2-.9,2.6,2.6,0,0,1-.9-2.1,3.2,3.2,0,0,1,.9-2.4,3.7,3.7,0,0,1,2.5-.9,2.8,2.8,0,0,1,1.5.3v1.5a2,2,0,0,0-1.3-.4,1.7,1.7,0,0,0-1.2.5,1.7,1.7,0,0,0-.5,1.3,1.7,1.7,0,0,0,1.7,1.7,2.4,2.4,0,0,0,1.3-.5Z" fill="#0072c6" stroke="#0072c6" stroke-miterlimit="10" stroke-width="0.05"/><path d="M420.9,122.3l-.8-.2a1.4,1.4,0,0,0-1,.5,2.1,2.1,0,0,0-.3,1.2v2.8h-1.9v-6h1.9v1.1h0a1.6,1.6,0,0,1,1.6-1.2h.5Z" fill="#0072c6" stroke="#0072c6" stroke-miterlimit="10" stroke-width="0.05"/><path d="M424.5,126.8a3,3,0,0,1-2.3-.9,2.8,2.8,0,0,1-.9-2.2,3.2,3.2,0,0,1,.9-2.4,4,4,0,0,1,4.8,0,3.4,3.4,0,0,1,.8,2.3,3.2,3.2,0,0,1-.9,2.3A3,3,0,0,1,424.5,126.8Zm.1-4.9a1.1,1.1,0,0,0-1,.5,1.6,1.6,0,0,0-.4,1.2c0,1.2.5,1.8,1.4,1.8s1.3-.6,1.3-1.8S425.5,121.9,424.6,121.9Z" fill="#0072c6" stroke="#0072c6" stroke-miterlimit="10" stroke-width="0.05"/><path d="M428.6,126.5V125l.9.4h1.7c.2-.1.3-.2.3-.4l-.2-.3-.3-.2-.5-.2h-.4l-.6-.3-.5-.4-.3-.5c0-.1-.1-.4-.1-.6a2.9,2.9,0,0,1,.2-.9l.6-.6.9-.3h1.8l.8.2v1.5l-.8-.4h-1.6v.3a.3.3,0,0,0,.1.2l.3.2.4.2h.4l.7.3.5.4.3.4a1.5,1.5,0,0,1,.1.7,2,2,0,0,1-.2.9,1.7,1.7,0,0,1-.6.6l-.9.4h-1A5.8,5.8,0,0,1,428.6,126.5Z" fill="#0072c6" stroke="#0072c6" stroke-miterlimit="10" stroke-width="0.05"/><path d="M437.2,126.8a3.2,3.2,0,0,1-2.4-.9,2.8,2.8,0,0,1-.9-2.2,3.2,3.2,0,0,1,.9-2.4,4,4,0,0,1,4.8,0,3.4,3.4,0,0,1,.8,2.3,3.6,3.6,0,0,1-.8,2.3A3.2,3.2,0,0,1,437.2,126.8Zm0-4.9a1.2,1.2,0,0,0-1,.5,1.6,1.6,0,0,0-.4,1.2c0,1.2.5,1.8,1.4,1.8s1.3-.6,1.3-1.8S438.1,121.9,437.2,121.9Z" fill="#0072c6" stroke="#0072c6" stroke-miterlimit="10" stroke-width="0.05"/><path d="M445.4,119.2l-.7-.2c-.6,0-.9.3-.9,1v.6h1.4V122h-1.4v4.6h-1.9V122h-1v-1.4h1v-.7a2.6,2.6,0,0,1,.7-1.7,2.8,2.8,0,0,1,1.8-.6h1Z" fill="#0072c6" stroke="#0072c6" stroke-miterlimit="10" stroke-width="0.05"/><path d="M449.9,126.6l-1.2.2a1.8,1.8,0,0,1-2-2.1V122h-1v-1.4h1v-1.3l1.9-.5v1.8h1.3V122h-1.3v2.4c0,.6.2,1,.7,1l.6-.2Z" fill="#0072c6" stroke="#0072c6" stroke-miterlimit="10" stroke-width="0.05"/><path d="M413.5,140.5a7.1,7.1,0,0,1-3.1.7,4.8,4.8,0,0,1-3.2-1.1,4.1,4.1,0,0,1-1.1-3.1,4.6,4.6,0,0,1,1.2-3.3,4.9,4.9,0,0,1,3.4-1.2,6.1,6.1,0,0,1,2.4.4v1.7a6,6,0,0,0-2.4-.5,2.5,2.5,0,0,0-1.9.7,2.8,2.8,0,0,0-.7,2.1,3.2,3.2,0,0,0,.6,2,2.4,2.4,0,0,0,1.8.7l1.1-.2v-1.6h-1.7v-1.6h3.6Z" fill="#0072c6" stroke="#0072c6" stroke-miterlimit="10" stroke-width="0.05"/><path d="M418.8,136.7l-.7-.2a1.4,1.4,0,0,0-1,.5,2.1,2.1,0,0,0-.3,1.2V141h-1.9v-6h1.9v1.1h0a1.6,1.6,0,0,1,1.6-1.2h.4Z" fill="#0072c6" stroke="#0072c6" stroke-miterlimit="10" stroke-width="0.05"/><path d="M424.7,141H423v-.8h-.1a2.1,2.1,0,0,1-1.8,1,1.9,1.9,0,0,1-1.3-.5,1.5,1.5,0,0,1-.5-1.3,2,2,0,0,1,2-2.1l1.7-.2a1,1,0,0,0-1.1-1,3.7,3.7,0,0,0-2,.7v-1.4l1-.4h1.2c1.7,0,2.6.8,2.6,2.5Zm-1.7-2.4v-.4h-1.1c-.6.1-.9.4-.9.8s0,.4.2.6l.6.2a1.2,1.2,0,0,0,.8-.4A1,1,0,0,0,423,138.6Z" fill="#0072c6" stroke="#0072c6" stroke-miterlimit="10" stroke-width="0.05"/><path d="M428,140.3h0v3.5h-1.8V135H428v.9h0a2.2,2.2,0,0,1,2-1,2.5,2.5,0,0,1,1.8.8,3.4,3.4,0,0,1,.6,2.2,3.6,3.6,0,0,1-.7,2.4,2.5,2.5,0,0,1-2,.9A2,2,0,0,1,428,140.3Zm0-2.4v.5a1.7,1.7,0,0,0,.3,1,1.3,1.3,0,0,0,.9.4,1.4,1.4,0,0,0,1-.5,2.9,2.9,0,0,0,.3-1.4c0-1.1-.4-1.6-1.2-1.6a1,1,0,0,0-.9.4A1.6,1.6,0,0,0,428,137.9Z" fill="#0072c6" stroke="#0072c6" stroke-miterlimit="10" stroke-width="0.05"/><path d="M439.4,141h-1.9v-3.4c0-.9-.3-1.3-.9-1.3a.8.8,0,0,0-.8.4,1.2,1.2,0,0,0-.3.9V141h-1.9v-8.9h1.9v3.8h0a2,2,0,0,1,1.8-1q2.1,0,2.1,2.4Z" fill="#0072c6" stroke="#0072c6" stroke-miterlimit="10" stroke-width="0.05"/><path d="M192.5,9.6h-1.1l-.9-2.4H187l-.9,2.4H185l3.3-8.4h1Zm-2.3-3.3-1.3-3.6a.7.7,0,0,1-.1-.5h-.1a4.3,4.3,0,0,1-.1.5l-1.3,3.6Z" fill="#1e1e1e" stroke="#1e1e1e" stroke-miterlimit="10" stroke-width="0.06"/><path d="M198.6,9.6h-.9v-1h0a2.5,2.5,0,0,1-2.1,1.1,2.2,2.2,0,0,1-1.8-.8,3.1,3.1,0,0,1-.7-2.2,3.6,3.6,0,0,1,.8-2.4,2.4,2.4,0,0,1,2-.9,2.1,2.1,0,0,1,1.8,1h0V.7h.9Zm-.9-2.7V6a2.1,2.1,0,0,0-.5-1.3,1.7,1.7,0,0,0-1.2-.5,1.7,1.7,0,0,0-1.4.7,3,3,0,0,0-.5,1.8,2.5,2.5,0,0,0,.5,1.6,1.5,1.5,0,0,0,1.3.6,1.8,1.8,0,0,0,1.3-.6A2.4,2.4,0,0,0,197.7,6.9Z" fill="#1e1e1e" stroke="#1e1e1e" stroke-miterlimit="10" stroke-width="0.06"/><path d="M205.6,12.3h-1V8.5h0a2.1,2.1,0,0,1-2,1.2,2.2,2.2,0,0,1-1.8-.8,3.1,3.1,0,0,1-.7-2.2,3.6,3.6,0,0,1,.7-2.4,2.5,2.5,0,0,1,2-.9,1.9,1.9,0,0,1,1.8,1h0V3.6h1Zm-1-5.4V6a2,2,0,0,0-.4-1.3,2.1,2.1,0,0,0-1.3-.5,1.7,1.7,0,0,0-1.3.7,2.4,2.4,0,0,0-.5,1.8,2.5,2.5,0,0,0,.4,1.6,1.8,1.8,0,0,0,1.3.6,1.5,1.5,0,0,0,1.3-.6A1.7,1.7,0,0,0,204.6,6.9Z" fill="#1e1e1e" stroke="#1e1e1e" stroke-miterlimit="10" stroke-width="0.06"/><path d="M212.3,9.6h-1v-1h0a2,2,0,0,1-1.8,1.1c-1.5,0-2.2-.8-2.2-2.5V3.6h1V7c0,1.3.5,1.9,1.4,1.9a1.7,1.7,0,0,0,1.2-.5,2.1,2.1,0,0,0,.4-1.4V3.6h1Z" fill="#1e1e1e" stroke="#1e1e1e" stroke-miterlimit="10" stroke-width="0.06"/><path d="M214.6,2h-.4a.8.8,0,0,1-.2-.5.5.5,0,0,1,.2-.4l.4-.2.5.2a.5.5,0,0,1,.2.4c0,.2-.1.3-.2.5Zm.5,7.6h-.9v-6h.9Z" fill="#1e1e1e" stroke="#1e1e1e" stroke-miterlimit="10" stroke-width="0.06"/><path d="M220.1,4.5l-.7-.2a1.4,1.4,0,0,0-1.1.6,3.4,3.4,0,0,0-.4,1.6V9.6H217v-6h.9V4.8h0a3.6,3.6,0,0,1,.7-1,1.6,1.6,0,0,1,.9-.3h.6Z" fill="#1e1e1e" stroke="#1e1e1e" stroke-miterlimit="10" stroke-width="0.06"/><path d="M221.5,2h-.4a.8.8,0,0,1-.2-.5.5.5,0,0,1,.2-.4l.4-.2.5.2a.5.5,0,0,1,.2.4c0,.2-.1.3-.2.5Zm.5,7.6h-1v-6h1Z" fill="#1e1e1e" stroke="#1e1e1e" stroke-miterlimit="10" stroke-width="0.06"/><path d="M227,4.5l-.7-.2a1.3,1.3,0,0,0-1.1.6,2.5,2.5,0,0,0-.4,1.6V9.6h-.9v-6h.9V4.8h0a3.6,3.6,0,0,1,.7-1,1.4,1.4,0,0,1,.9-.3h.6Z" fill="#1e1e1e" stroke="#1e1e1e" stroke-miterlimit="10" stroke-width="0.06"/><path d="M233.9,9.5l-.9.2c-1,0-1.6-.6-1.6-1.8V4.4h-1V3.6h1V2.1l1-.3V3.6h1.5v.8h-1.5V7.8a1.3,1.3,0,0,0,.2.8.8.8,0,0,0,.7.3l.6-.2Z" fill="#1e1e1e" stroke="#1e1e1e" stroke-miterlimit="10" stroke-width="0.06"/><path d="M237.6,9.7a2.9,2.9,0,0,1-2.1-.8,3,3,0,0,1-.8-2.3,3.2,3.2,0,0,1,.8-2.3,2.9,2.9,0,0,1,2.2-.9,2.6,2.6,0,0,1,2.1.9,3.1,3.1,0,0,1,.8,2.2,3.2,3.2,0,0,1-.8,2.3A2.9,2.9,0,0,1,237.6,9.7Zm.1-5.5a1.7,1.7,0,0,0-1.5.7,2.3,2.3,0,0,0-.5,1.7,2.3,2.3,0,0,0,.5,1.7,2,2,0,0,0,1.5.6,1.7,1.7,0,0,0,1.4-.6,2.9,2.9,0,0,0,.5-1.7,3.2,3.2,0,0,0-.5-1.8A1.7,1.7,0,0,0,237.7,4.2Z" fill="#1e1e1e" stroke="#1e1e1e" stroke-miterlimit="10" stroke-width="0.06"/><path d="M247,9.6h-1.3L243,6.7h0V9.6h-1V.7h1V6.3h0l2.5-2.7h1.3L244,6.5Z" fill="#1e1e1e" stroke="#1e1e1e" stroke-miterlimit="10" stroke-width="0.06"/><path d="M252.7,6.8h-4.2a2.5,2.5,0,0,0,.5,1.6,2.2,2.2,0,0,0,1.4.5,2.8,2.8,0,0,0,1.9-.7v.9a3.3,3.3,0,0,1-2.1.6,2.8,2.8,0,0,1-2-.8,3.3,3.3,0,0,1-.7-2.3,3.1,3.1,0,0,1,.8-2.3,2.5,2.5,0,0,1,1.9-.9,2.6,2.6,0,0,1,1.9.8,3.3,3.3,0,0,1,.6,2.1Zm-1-.8a1.7,1.7,0,0,0-.4-1.3,1.3,1.3,0,0,0-1.1-.5,1.6,1.6,0,0,0-1.1.5,2.6,2.6,0,0,0-.6,1.3Z" fill="#1e1e1e" stroke="#1e1e1e" stroke-miterlimit="10" stroke-width="0.06"/><path d="M259.1,9.6h-1V6.1c0-1.2-.5-1.9-1.4-1.9a1.4,1.4,0,0,0-1.2.6,1.9,1.9,0,0,0-.5,1.3V9.6h-.9v-6h.9v1h.1A2.1,2.1,0,0,1,257,3.4a1.6,1.6,0,0,1,1.5.7,2.4,2.4,0,0,1,.6,1.8Z" fill="#1e1e1e" stroke="#1e1e1e" stroke-miterlimit="10" stroke-width="0.06"/><path d="M209.5,29.9H207v7.6h-.9V29.9h-2.5v-.8h5.9Z" fill="#1e1e1e" stroke="#1e1e1e" stroke-miterlimit="10" stroke-width="0.06"/><path d="M211.9,37.6a2.9,2.9,0,0,1-2.1-.8,3.4,3.4,0,0,1-.8-2.3,3.2,3.2,0,0,1,.8-2.3,3,3,0,0,1,2.3-.9,2.9,2.9,0,0,1,2.1.8,3.5,3.5,0,0,1,.7,2.3,3.2,3.2,0,0,1-.8,2.3A2.8,2.8,0,0,1,211.9,37.6Zm.1-5.5a1.8,1.8,0,0,0-1.5.7,3.1,3.1,0,0,0,0,3.4,2,2,0,0,0,1.5.6,1.7,1.7,0,0,0,1.4-.6,2.3,2.3,0,0,0,.5-1.7,2.4,2.4,0,0,0-.5-1.8A1.7,1.7,0,0,0,212,32.1Z" fill="#1e1e1e" stroke="#1e1e1e" stroke-miterlimit="10" stroke-width="0.06"/><path d="M221.4,37.5H220l-2.6-2.9h-.1v2.9h-.9V28.6h.9v5.6h.1l2.5-2.7h1.2l-2.7,2.9Z" fill="#1e1e1e" stroke="#1e1e1e" stroke-miterlimit="10" stroke-width="0.06"/><path d="M227.1,34.7h-4.2a2.1,2.1,0,0,0,.5,1.5,1.7,1.7,0,0,0,1.4.6,2.8,2.8,0,0,0,1.9-.7V37a3.3,3.3,0,0,1-2.1.6,2.6,2.6,0,0,1-2-.8,3.3,3.3,0,0,1-.7-2.3,3,3,0,0,1,.8-2.3,2.3,2.3,0,0,1,1.9-.9,2.6,2.6,0,0,1,1.9.8,3.3,3.3,0,0,1,.6,2.1Zm-1-.8a1.7,1.7,0,0,0-.4-1.3,1.4,1.4,0,0,0-1.1-.5,1.9,1.9,0,0,0-1.7,1.8Z" fill="#1e1e1e" stroke="#1e1e1e" stroke-miterlimit="10" stroke-width="0.06"/><path d="M233.5,37.5h-1V34c0-1.2-.5-1.9-1.4-1.9a1.4,1.4,0,0,0-1.2.6,1.9,1.9,0,0,0-.5,1.3v3.5h-.9v-6h.9v1h.1a2.1,2.1,0,0,1,1.9-1.2,1.6,1.6,0,0,1,1.5.7,2.4,2.4,0,0,1,.6,1.8Z" fill="#1e1e1e" stroke="#1e1e1e" stroke-miterlimit="10" stroke-width="0.06"/><path d="M243.5,37.5h-.9V36.4h-.1a2.1,2.1,0,0,1-2,1.2,2.2,2.2,0,0,1-1.8-.8,3.1,3.1,0,0,1-.7-2.2,3.6,3.6,0,0,1,.8-2.4,2.3,2.3,0,0,1,1.9-.9,1.7,1.7,0,0,1,1.8,1h.1V28.6h.9Zm-.9-2.8v-.8a2.1,2.1,0,0,0-.5-1.3,1.7,1.7,0,0,0-1.2-.5,1.5,1.5,0,0,0-1.4.7,3,3,0,0,0-.5,1.8,2.2,2.2,0,0,0,.5,1.6,1.5,1.5,0,0,0,1.3.6,1.8,1.8,0,0,0,1.3-.6A2.5,2.5,0,0,0,242.6,34.7Z" fill="#1e1e1e" stroke="#1e1e1e" stroke-miterlimit="10" stroke-width="0.06"/><path d="M250.2,34.7H246a2.1,2.1,0,0,0,.5,1.5,1.8,1.8,0,0,0,1.4.6,2.8,2.8,0,0,0,1.9-.7V37a3.3,3.3,0,0,1-2.1.6,2.8,2.8,0,0,1-2-.8,3.3,3.3,0,0,1-.7-2.3,3.4,3.4,0,0,1,.8-2.3,2.5,2.5,0,0,1,2-.9,2.3,2.3,0,0,1,1.8.8,3.3,3.3,0,0,1,.6,2.1Zm-1-.8a1.7,1.7,0,0,0-.4-1.3,1.3,1.3,0,0,0-1.1-.5,1.6,1.6,0,0,0-1.1.5,2.6,2.6,0,0,0-.6,1.3Z" fill="#1e1e1e" stroke="#1e1e1e" stroke-miterlimit="10" stroke-width="0.06"/><path d="M259.1,37.5h-.9v-1h-.1a2.1,2.1,0,0,1-3.2.6,1.3,1.3,0,0,1-.5-1.2c0-1.2.6-1.8,2-2l1.8-.2c0-1.1-.5-1.6-1.3-1.6a2.7,2.7,0,0,0-1.9.8v-1a3.4,3.4,0,0,1,2-.6c1.4,0,2.1.8,2.1,2.3Zm-.9-3.1-1.5.2a2.3,2.3,0,0,0-1,.4c-.2.1-.3.4-.3.8a.9.9,0,0,0,.3.7,1.1,1.1,0,0,0,.8.3,1.7,1.7,0,0,0,1.2-.5,1.9,1.9,0,0,0,.5-1.3Z" fill="#1e1e1e" stroke="#1e1e1e" stroke-miterlimit="10" stroke-width="0.06"/><path d="M264.9,37.2a2.7,2.7,0,0,1-1.6.4,3.2,3.2,0,0,1-2.1-.8,3.3,3.3,0,0,1-.8-2.2,3.2,3.2,0,0,1,.9-2.4,3,3,0,0,1,2.3-.9,3.2,3.2,0,0,1,1.4.3v1a3,3,0,0,0-1.5-.5,1.8,1.8,0,0,0-1.5.7,2.7,2.7,0,0,0,0,3.4,1.9,1.9,0,0,0,1.5.6,2.4,2.4,0,0,0,1.4-.5Z" fill="#1e1e1e" stroke="#1e1e1e" stroke-miterlimit="10" stroke-width="0.06"/><path d="M271.1,34.7h-4.2a1.8,1.8,0,0,0,.6,1.5,1.7,1.7,0,0,0,1.4.6,2.6,2.6,0,0,0,1.8-.7V37a3.3,3.3,0,0,1-2.1.6,2.8,2.8,0,0,1-2-.8,3.9,3.9,0,0,1-.7-2.3,3.4,3.4,0,0,1,.8-2.3,2.5,2.5,0,0,1,2-.9,2.2,2.2,0,0,1,1.8.8,3.3,3.3,0,0,1,.6,2.1Zm-.9-.8a2.2,2.2,0,0,0-.4-1.3,1.6,1.6,0,0,0-1.1-.5,1.7,1.7,0,0,0-1.2.5,2.6,2.6,0,0,0-.6,1.3Z" fill="#1e1e1e" stroke="#1e1e1e" stroke-miterlimit="10" stroke-width="0.06"/><path d="M272.2,37.2v-1a2.7,2.7,0,0,0,1.7.6c.8,0,1.3-.3,1.3-.9s-.1-.2-.1-.4l-.3-.3-.5-.2-.5-.2-.7-.3a1,1,0,0,1-.5-.4l-.3-.4a1.3,1.3,0,0,1-.1-.6,1.1,1.1,0,0,1,.2-.8l.5-.5.7-.4h.9a3.2,3.2,0,0,1,1.4.3v1a3,3,0,0,0-1.6-.5h-.4l-.4.2-.3.2v.8l.3.2.4.3.5.2.7.3.6.4.3.4a1.5,1.5,0,0,1,.1.7.8.8,0,0,1-.2.7l-.5.6-.7.3h-.9A2.7,2.7,0,0,1,272.2,37.2Z" fill="#1e1e1e" stroke="#1e1e1e" stroke-miterlimit="10" stroke-width="0.06"/><path d="M277.2,37.2v-1a2.7,2.7,0,0,0,1.7.6c.9,0,1.3-.3,1.3-.9s-.1-.2-.1-.4l-.3-.3-.5-.2-.5-.2-.7-.3a1,1,0,0,1-.5-.4l-.3-.4a1.3,1.3,0,0,1-.1-.6,1.9,1.9,0,0,1,.2-.8l.5-.5.7-.4h.9a3.2,3.2,0,0,1,1.4.3v1a3,3,0,0,0-1.5-.5h-.5l-.4.2a.2.2,0,0,0-.2.2c-.1.1-.1.2-.1.4a.6.6,0,0,0,.1.4.2.2,0,0,0,.2.2l.4.3.5.2.8.3a1,1,0,0,1,.5.4.5.5,0,0,1,.3.4,1.3,1.3,0,0,1,0,1.4l-.6.6-.7.3h-.9A2.7,2.7,0,0,1,277.2,37.2Z" fill="#1e1e1e" stroke="#1e1e1e" stroke-miterlimit="10" stroke-width="0.06"/><path d="M285.1,37.6a2.9,2.9,0,0,1-2.1-.8,3,3,0,0,1-.8-2.3,2.8,2.8,0,0,1,.8-2.3,2.8,2.8,0,0,1,2.2-.9,2.9,2.9,0,0,1,2.1.8,3.6,3.6,0,0,1,.8,2.3,3.2,3.2,0,0,1-.8,2.3A2.9,2.9,0,0,1,285.1,37.6Zm0-5.5a1.5,1.5,0,0,0-1.4.7,2.7,2.7,0,0,0,0,3.4,1.8,1.8,0,0,0,1.4.6,1.9,1.9,0,0,0,1.5-.6,2.9,2.9,0,0,0,.5-1.7,3,3,0,0,0-.5-1.8A1.9,1.9,0,0,0,285.1,32.1Z" fill="#1e1e1e" stroke="#1e1e1e" stroke-miterlimit="10" stroke-width="0.06"/><path d="M192,135.4h-1.1l-1.5-2.3-.3-.6-.4-.4-.4-.2H187v3.5h-1V127h2.5l1,.2.8.4a2,2,0,0,1,.6.7,3,3,0,0,1,.2,1,2.4,2.4,0,0,1-.2.8l-.3.6-.6.5c-.3.1-.5.3-.8.3h0l.4.2.3.2.2.4.3.5Zm-5-7.5V131h2a2.9,2.9,0,0,0,.9-.9,1.5,1.5,0,0,0,.1-.7,1.2,1.2,0,0,0-.4-1,1.7,1.7,0,0,0-1.3-.4Z" fill="#1e1e1e" stroke="#1e1e1e" stroke-miterlimit="10" stroke-width="0.06"/><path d="M197.5,132.7h-4.3a2.3,2.3,0,0,0,.6,1.5,1.7,1.7,0,0,0,1.4.6,3.4,3.4,0,0,0,1.9-.7v.9a3.7,3.7,0,0,1-2.1.6,2.6,2.6,0,0,1-2-.8,3.5,3.5,0,0,1-.7-2.3,3.3,3.3,0,0,1,.7-2.3,2.7,2.7,0,0,1,2-.9,1.9,1.9,0,0,1,1.8.8,2.8,2.8,0,0,1,.7,2.1Zm-1-.8a1.7,1.7,0,0,0-.4-1.3,1.4,1.4,0,0,0-1.1-.5,1.8,1.8,0,0,0-1.2.5,1.7,1.7,0,0,0-.5,1.3Z" fill="#1e1e1e" stroke="#1e1e1e" stroke-miterlimit="10" stroke-width="0.06"/><path d="M198.5,135.2v-1a3,3,0,0,0,1.8.6q1.2,0,1.2-.9a.6.6,0,0,0-.1-.4l-.3-.3-.4-.2-.5-.2-.7-.3-.5-.4a.5.5,0,0,1-.3-.5c-.1-.1-.1-.3-.1-.6a1.5,1.5,0,0,1,.1-.7l.6-.6.7-.3h.8a2.9,2.9,0,0,1,1.4.3v.9a2.4,2.4,0,0,0-1.5-.4h-.8l-.3.3v.3c0,.2.1.3.1.4l.3.3a.5.5,0,0,0,.4.2l.5.3.7.3.6.3.3.5a1.3,1.3,0,0,1,.1.6,1.1,1.1,0,0,1-.2.8l-.5.5a2,2,0,0,1-.8.4h-.9A2.9,2.9,0,0,1,198.5,135.2Z" fill="#1e1e1e" stroke="#1e1e1e" stroke-miterlimit="10" stroke-width="0.06"/><path d="M204.9,134.6h0v3.6H204v-8.8h.9v1.1h0a2.4,2.4,0,0,1,2.1-1.2,2.2,2.2,0,0,1,1.8.8,3.1,3.1,0,0,1,.7,2.2,3.6,3.6,0,0,1-.8,2.4,2.3,2.3,0,0,1-2,.9A2.4,2.4,0,0,1,204.9,134.6Zm0-2.5v.9a1.7,1.7,0,0,0,.5,1.2,1.4,1.4,0,0,0,1.2.6,1.7,1.7,0,0,0,1.4-.7,3.6,3.6,0,0,0,.5-1.9,2.3,2.3,0,0,0-.5-1.5,1.4,1.4,0,0,0-1.2-.6,1.8,1.8,0,0,0-1.4.6A2.4,2.4,0,0,0,204.9,132.1Z" fill="#1e1e1e" stroke="#1e1e1e" stroke-miterlimit="10" stroke-width="0.06"/><path d="M213.5,135.6a2.6,2.6,0,0,1-2.1-.9,2.7,2.7,0,0,1-.8-2.2,3.2,3.2,0,0,1,.8-2.4,3.1,3.1,0,0,1,2.2-.8,2.9,2.9,0,0,1,2.1.8,3.7,3.7,0,0,1,0,4.6A2.9,2.9,0,0,1,213.5,135.6Zm.1-5.5a1.9,1.9,0,0,0-1.5.6,2.4,2.4,0,0,0-.5,1.8,2.1,2.1,0,0,0,.5,1.6,1.9,1.9,0,0,0,2.9.1,3,3,0,0,0,.5-1.8,2.9,2.9,0,0,0-.5-1.7A1.7,1.7,0,0,0,213.6,130.1Z" fill="#1e1e1e" stroke="#1e1e1e" stroke-miterlimit="10" stroke-width="0.06"/><path d="M224.9,135.4l-.9.2c-1,0-1.6-.6-1.6-1.8v-3.5h-3.5l-.2.2a.4.4,0,0,0-.1.3c0,.2,0,.3.1.4l.2.3.4.2.6.3.7.3.5.3.4.5c0,.2.1.4.1.6a1.9,1.9,0,0,1-.2.8,1.2,1.2,0,0,1-.5.5l-.8.4h-.9a2.9,2.9,0,0,1-1.6-.4v-1a2.7,2.7,0,0,0,1.7.6c.9,0,1.3-.3,1.3-.9a.6.6,0,0,0-.1-.4l-.3-.3-.4-.2-.6-.2-.7-.3-.5-.4-.3-.5a3.5,3.5,0,0,1-.1-.6,1.4,1.4,0,0,1,.2-.7,1.2,1.2,0,0,1,.5-.5l.6-.3h3.5V128l1-.3v1.7h1.5v.9h-1.5v3.3a2,2,0,0,0,.2.9.8.8,0,0,0,.7.3l.6-.2Z" fill="#1e1e1e" stroke="#1e1e1e" stroke-miterlimit="10" stroke-width="0.06"/><path d="M230.5,135.4h-1v-.9h0a2.1,2.1,0,0,1-1.9,1.1,2.2,2.2,0,0,1-1.4-.5,1.7,1.7,0,0,1-.5-1.3c0-1.1.7-1.7,2-1.9l1.8-.3q0-1.5-1.2-1.5a2.9,2.9,0,0,0-2,.7v-.9a3.6,3.6,0,0,1,2-.6,1.9,1.9,0,0,1,2.2,2.2Zm-1-3-1.4.2-1.1.3a1.2,1.2,0,0,0-.3.9.9.9,0,0,0,.3.7,1.2,1.2,0,0,0,.9.3,1.6,1.6,0,0,0,1.1-.5,2.1,2.1,0,0,0,.5-1.3Z" fill="#1e1e1e" stroke="#1e1e1e" stroke-miterlimit="10" stroke-width="0.06"/><path d="M241.9,135.4h-1v-3.8h-4.3v3.8h-1V127h1v3.7h4.3V127h1Z" fill="#1e1e1e" stroke="#1e1e1e" stroke-miterlimit="10" stroke-width="0.06"/><path d="M249.1,127.9h-2.5v7.5h-.9v-7.5h-2.5V127h5.9Z" fill="#1e1e1e" stroke="#1e1e1e" stroke-miterlimit="10" stroke-width="0.06"/><path d="M255.6,127.9h-2.5v7.5h-1v-7.5h-2.4V127h5.9Z" fill="#1e1e1e" stroke="#1e1e1e" stroke-miterlimit="10" stroke-width="0.06"/><path d="M257.8,132.3v3.1h-1V127h2.3a2.8,2.8,0,0,1,2.1.7,2.2,2.2,0,0,1,.8,1.8,2.5,2.5,0,0,1-.9,2,2.9,2.9,0,0,1-2.2.8Zm0-4.4v3.5h1a2.5,2.5,0,0,0,1.6-.5,1.5,1.5,0,0,0,.5-1.3c0-1.1-.6-1.7-1.9-1.7Z" fill="#1e1e1e" stroke="#1e1e1e" stroke-miterlimit="10" stroke-width="0.06"/></svg>