<svg xmlns="http://www.w3.org/2000/svg" xmlns:xlink="http://www.w3.org/1999/xlink" viewBox="0 0 475.5 150.8"><defs><symbol id="a" viewBox="0 0 20 20"><circle cx="10" cy="10" r="10" fill="#505050"/><path d="M12,14V8.6h1.2V7.4H12V5.6H10.6V7.4H6.8V8.6A13.1,13.1,0,0,1,7.9,9.8l1,1.4.9,1.4a10,10,0,0,1,.8,1.4ZM10.7,8.6v3.5l-1.3-2L8.2,8.6Z" fill="#fff"/></symbol><symbol id="b" viewBox="0 0 20 20"><circle cx="10" cy="10" r="10" fill="#505050"/><path d="M7.4,5.9V7.2a2.6,2.6,0,0,1,1.8-.7,2.3,2.3,0,0,1,1.4.4,1.2,1.2,0,0,1,.5,1c0,.9-.7,1.4-2.2,1.4H8.2v1.1h.7c1.3,0,1.9.5,1.9,1.4S10.3,13,9.3,13a2.3,2.3,0,0,1-1.6-.6v1.2a3.5,3.5,0,0,0,2,.5,3.5,3.5,0,0,0,1.8-.5,2.1,2.1,0,0,0-1-3.6h0a2.5,2.5,0,0,0,1.4-.6,2,2,0,0,0,.6-1.5,2.3,2.3,0,0,0-.9-1.8,3.4,3.4,0,0,0-2.2-.7A3.5,3.5,0,0,0,7.4,5.9Z" fill="#fff"/></symbol><symbol id="c" viewBox="0 0 20 20"><circle cx="10" cy="10" r="10" fill="#505050"/><path d="M12.5,5.6H7.2v.6c0,.3.1.5.1.8l.3.7.5.5.5.6.6.5.6.4.5.5.4.4.2.5a1.3,1.3,0,0,1,.1.6,1.3,1.3,0,0,1-.1.6l-.3.4-.4.2H9.6l-1-.2a3.9,3.9,0,0,1-1-.8v1.3a1,1,0,0,0,.5.4l.6.2.5.2h.7l1-.2.8-.4.5-.7a4.4,4.4,0,0,0,.2-1c0-.4-.1-.7-.1-1l-.4-.7-.6-.7-.7-.6-.7-.6-.6-.5-.4-.5a.8.8,0,0,1-.2-.5h3.8Z" fill="#fff"/></symbol><symbol id="d" viewBox="0 0 20 20"><circle cx="10" cy="10" r="10" fill="#505050"/><path d="M11.2,14.2V5.6H9.8v6.9L9,12l-1-.3v1.2l.7.2.6.3.6.3.7.5Z" fill="#fff"/></symbol></defs><title>OJ104329346</title><rect width="475.5" height="150" fill="#fff"/><rect y="0.5" width="105" height="150" fill="#ebebeb"/><rect x="370.8" y="0.5" width="104.7" height="90" fill="#0072c6"/><rect x="370.8" y="95.5" width="104.7" height="55" fill="#d2d2d2"/><line x1="104.7" y1="15.8" x2="365.3" y2="15.8" fill="none" stroke="#000" stroke-miterlimit="10"/><polygon points="364.2 19.5 370.7 15.8 364.2 12 364.2 19.5"/><line x1="110.1" y1="45.6" x2="370.7" y2="45.6" fill="none" stroke="#000" stroke-miterlimit="10"/><polygon points="111.2 49.4 104.7 45.6 111.2 41.9 111.2 49.4"/><line x1="104.7" y1="105.1" x2="365.3" y2="105.1" fill="none" stroke="#000" stroke-miterlimit="10"/><polygon points="364.2 108.8 370.7 105.1 364.2 101.3 364.2 108.8"/><line x1="110.2" y1="141.2" x2="370.7" y2="141.2" fill="none" stroke="#000" stroke-miterlimit="10"/><polygon points="111.3 145 104.8 141.2 111.3 137.5 111.3 145"/><use width="20" height="20" transform="matrix(1, 0, 0, -1, 159.62, 150.76)" xlink:href="#a"/><use width="20" height="20" transform="matrix(1, 0, 0, -1, 159.62, 115.07)" xlink:href="#b"/><use width="20" height="20" transform="matrix(1, 0, 0, -1, 159.62, 55.64)" xlink:href="#c"/><use width="20" height="20" transform="matrix(1, 0, 0, -1, 159.62, 25.76)" xlink:href="#d"/><polygon points="192.5 26.8 184.9 32.2 187.8 41 197.2 41 200.1 32.2 192.5 26.8" fill="#ebebeb" stroke="#000" stroke-miterlimit="10" stroke-width="0.75"/><path d="M76.6,87.1a4.2,4.2,0,0,1-4.2,4.2H32.6a4.2,4.2,0,0,1-4.2-4.2V25.5a4.2,4.2,0,0,1,4.2-4.2H72.4a4.2,4.2,0,0,1,4.2,4.2Z" fill="#3e3e3e"/><rect x="31.5" y="28.3" width="42" height="49.31" fill="#fff"/><path d="M56.5,84.4a4,4,0,0,1-4,4,4,4,0,0,1-3.9-4.1,4,4,0,1,1,7.9.1" fill="#fff"/><path d="M55.2,84.4a2.7,2.7,0,0,1-2.7,2.7,2.7,2.7,0,0,1,0-5.3,2.7,2.7,0,0,1,2.7,2.6h0" fill="#b8d432"/><path d="M31.5,77.6V28.3H63.4l2.8-7H32.6a4.2,4.2,0,0,0-4.2,4.2h0V87.1a4.2,4.2,0,0,0,4.2,4.2h5.2l5.5-13.7Z" fill="#fff" opacity="0.15" style="isolation:isolate"/><path d="M59.7,25.2a1,1,0,0,1-1,1H46.4a1,1,0,0,1-1.1-1,1.1,1.1,0,0,1,1.1-1.1H58.6a1,1,0,0,1,1,1" fill="#1e1e1e"/><path d="M59.7,25.2a1,1,0,0,1-1,1H46.4a1,1,0,0,1-1.1-1,1.1,1.1,0,0,1,1.1-1.1H58.6a1,1,0,0,1,1,1" fill="#fff"/><path d="M38.5,46.9a1,1,0,0,1,0-2h.4l.3.2c.1.1.2.2.2.3a.8.8,0,0,1,.1.4c0,.2,0,.3-.1.4s-.1.2-.2.3A1.1,1.1,0,0,1,38.5,46.9Zm-.7,13.8v-11h1.4v11Z"/><path d="M49.1,60.9a8,8,0,0,1-3-.6,7.3,7.3,0,0,1-2.3-1.6,8.9,8.9,0,0,1-1.4-2.5,10.6,10.6,0,0,1-.5-3.1,12.6,12.6,0,0,1,.5-3.3,6.4,6.4,0,0,1,1.5-2.5,5.5,5.5,0,0,1,2.3-1.7,8.7,8.7,0,0,1,3.2-.6,7.2,7.2,0,0,1,2.9.6,6,6,0,0,1,2.2,1.6,8.1,8.1,0,0,1,1.9,5.5,9.5,9.5,0,0,1-.5,3.3,7.3,7.3,0,0,1-1.4,2.6,6.8,6.8,0,0,1-5.4,2.3Zm.1-14.6a6.4,6.4,0,0,0-2.4.5,7,7,0,0,0-1.9,1.5,5.3,5.3,0,0,0-1.1,2.1,7.5,7.5,0,0,0-.4,2.6,7.3,7.3,0,0,0,.4,2.5,5.1,5.1,0,0,0,1,2.1,6.5,6.5,0,0,0,1.8,1.5,4.5,4.5,0,0,0,2.5.5,5.3,5.3,0,0,0,4.3-1.9,5.3,5.3,0,0,0,1.1-2.1,7.7,7.7,0,0,0,.4-2.7,10.7,10.7,0,0,0-.3-2.5,5.1,5.1,0,0,0-1-2.1,6.5,6.5,0,0,0-1.8-1.5A7.5,7.5,0,0,0,49.2,46.3Z"/><path d="M58.8,58.4l.8.5a7.6,7.6,0,0,0,2,.6h1a4,4,0,0,0,2.6-.6,2.2,2.2,0,0,0,.8-2,2.7,2.7,0,0,0-.8-1.9l-1.1-.8-1.6-.9-1.7-1a5.2,5.2,0,0,1-1.1-1,4.1,4.1,0,0,1-.7-1.1,5.1,5.1,0,0,1-.2-1.3,4.7,4.7,0,0,1,.4-1.7,4.3,4.3,0,0,1,1.1-1.2,3.5,3.5,0,0,1,1.6-.8,6.4,6.4,0,0,1,2-.3,7.9,7.9,0,0,1,3,.5v1.6a5.3,5.3,0,0,0-3.2-.8,2.7,2.7,0,0,0-1.3.2,2.2,2.2,0,0,0-1.1.5,1.9,1.9,0,0,0-.7.8,2,2,0,0,0-.3,1.1,4.4,4.4,0,0,0,.2,1,1.6,1.6,0,0,0,.6.8l1,.8,1.5.8,1.7,1a4,4,0,0,1,1.2,1,2.9,2.9,0,0,1,.7,1.2,2.8,2.8,0,0,1,.3,1.3,3.9,3.9,0,0,1-.4,1.8A2.5,2.5,0,0,1,66,59.8a4,4,0,0,1-1.6.8,12,12,0,0,1-2,.3h-.8l-1-.2-1-.2a2,2,0,0,1-.8-.4Z"/><polygon points="192.6 86.7 185 92.1 187.9 100.9 197.2 100.9 200.1 92.1 192.6 86.7" fill="#ebebeb" stroke="#000" stroke-miterlimit="10" stroke-width="0.75"/><path d="M32.2,111.7h-2l-.6-1.9h-3l-.6,1.9H23.9l3.1-8.4h2.2Zm-3.1-3.3-.9-2.9c0-.2-.1-.4-.1-.7H28a1.7,1.7,0,0,1-.1.7l-.9,2.9Z" stroke="#000" stroke-miterlimit="10" stroke-width="0.05"/><path d="M35,111h-.1v3.4H33.1v-8.7h1.8v.9H35a2.1,2.1,0,0,1,1.9-1.1,2.2,2.2,0,0,1,1.8.8,3.8,3.8,0,0,1,.6,2.2,3.6,3.6,0,0,1-.7,2.4,2.5,2.5,0,0,1-2,.9A1.8,1.8,0,0,1,35,111Zm-.1-2.5v.5a1.5,1.5,0,0,0,.3,1,1.1,1.1,0,0,0,.9.4,1.4,1.4,0,0,0,1-.5,2.6,2.6,0,0,0,.3-1.4q0-1.5-1.2-1.5a1,1,0,0,0-.9.4A1.5,1.5,0,0,0,34.9,108.5Z" stroke="#000" stroke-miterlimit="10" stroke-width="0.05"/><path d="M42.4,111.7H40.5v-8.9h1.9Z" stroke="#000" stroke-miterlimit="10" stroke-width="0.05"/><path d="M44.9,104.7l-.8-.2a1.1,1.1,0,0,1-.3-.7.9.9,0,0,1,.3-.7,1.1,1.1,0,0,1,.8-.3,1,1,0,0,1,.7,1.7Zm.9,7H43.9v-6h1.9Z" stroke="#000" stroke-miterlimit="10" stroke-width="0.05"/><path d="M51.9,111.5a4.2,4.2,0,0,1-1.8.3,3.6,3.6,0,0,1-2.3-.8,3.3,3.3,0,0,1-.8-2.2,3.2,3.2,0,0,1,.9-2.4,3.3,3.3,0,0,1,2.5-.9,2.8,2.8,0,0,1,1.5.3v1.6a2,2,0,0,0-1.3-.4,1.8,1.8,0,0,0-1.3,3,1.6,1.6,0,0,0,1.2.4,2.3,2.3,0,0,0,1.4-.4Z" stroke="#000" stroke-miterlimit="10" stroke-width="0.05"/><path d="M58.1,111.7H56.3v-.9h0a1.9,1.9,0,0,1-1.8,1,1.5,1.5,0,0,1-1.3-.5,1.4,1.4,0,0,1-.5-1.3c0-1.2.6-1.8,2-2l1.7-.2c0-.7-.4-1-1.1-1a3.6,3.6,0,0,0-2,.6V106l1-.3,1.2-.2a2.3,2.3,0,0,1,2.6,2.6Zm-1.7-2.5v-.4l-1.1.2c-.6.1-.9.3-.9.8s0,.4.2.5a.8.8,0,0,0,.6.2,1.1,1.1,0,0,0,.8-.3A1.8,1.8,0,0,0,56.4,109.2Z" stroke="#000" stroke-miterlimit="10" stroke-width="0.05"/><path d="M63.2,111.6a2.2,2.2,0,0,1-1.2.2c-1.4,0-2-.6-2-2V107H59v-1.3h1v-1.3l1.8-.5v1.8h1.4V107H61.8v2.5c0,.6.3.9.8.9a.7.7,0,0,0,.6-.2Z" stroke="#000" stroke-miterlimit="10" stroke-width="0.05"/><path d="M65.2,104.7l-.8-.2a1.1,1.1,0,0,1-.3-.7.9.9,0,0,1,.3-.7,1.1,1.1,0,0,1,.8-.3,1,1,0,0,1,.7,1.7Zm.9,7H64.2v-6h1.9Z" stroke="#000" stroke-miterlimit="10" stroke-width="0.05"/><path d="M73.4,105.7l-2.3,6H69l-2.1-6h2l1,3.7a5.8,5.8,0,0,1,.2,1h0a9.3,9.3,0,0,1,.3-1l1-3.7Z" stroke="#000" stroke-miterlimit="10" stroke-width="0.05"/><path d="M76.9,111.8a3.6,3.6,0,0,1-2.4-.8,3.4,3.4,0,0,1-.8-2.3,2.9,2.9,0,0,1,.9-2.3,3.2,3.2,0,0,1,2.4-.9,3,3,0,0,1,2.3.9,2.8,2.8,0,0,1,.9,2.2,3.2,3.2,0,0,1-.9,2.4A3.6,3.6,0,0,1,76.9,111.8Zm0-4.8a1.3,1.3,0,0,0-1,.4,2.3,2.3,0,0,0-.3,1.3c0,1.1.4,1.7,1.3,1.7s1.4-.6,1.4-1.8S77.8,107,76.9,107Z" stroke="#000" stroke-miterlimit="10" stroke-width="0.05"/><path d="M41.9,126.1H40l-3.5-5.3-.4-.7h0v6H34.3v-8.4h2.1l3.3,5.1.4.7h0v-5.8h1.8Z" stroke="#000" stroke-miterlimit="10" stroke-width="0.05"/><path d="M48.6,126.1H46.9v-.9h-.1a1.9,1.9,0,0,1-1.8,1,1.5,1.5,0,0,1-1.3-.5,1.4,1.4,0,0,1-.5-1.3c0-1.2.7-1.8,2-2l1.7-.2c0-.7-.4-1-1.1-1a3.6,3.6,0,0,0-2,.6v-1.4l1-.3,1.2-.2a2.3,2.3,0,0,1,2.6,2.6Zm-1.7-2.5v-.4l-1.1.2c-.6.1-.9.3-.9.8s0,.4.2.5a.8.8,0,0,0,.6.2,1.1,1.1,0,0,0,.8-.3A1.3,1.3,0,0,0,46.9,123.6Z" stroke="#000" stroke-miterlimit="10" stroke-width="0.05"/><path d="M53.7,126a2.2,2.2,0,0,1-1.2.2,1.8,1.8,0,0,1-2-2v-2.8h-1v-1.3h1v-1.3l1.9-.5v1.8h1.3v1.3H52.4v2.5c0,.6.2.9.7.9a.7.7,0,0,0,.6-.2Z" stroke="#000" stroke-miterlimit="10" stroke-width="0.05"/><path d="M55.7,119.1l-.8-.2a1.1,1.1,0,0,1-.3-.7.9.9,0,0,1,.3-.7,1.2,1.2,0,0,1,1.6,0,1.3,1.3,0,0,1,0,1.4Zm.9,7H54.7v-6h1.9Z" stroke="#000" stroke-miterlimit="10" stroke-width="0.05"/><path d="M63.9,120.1l-2.3,6H59.5l-2.1-6h2l1,3.7a5.8,5.8,0,0,1,.2,1h0a9.3,9.3,0,0,1,.3-1l1-3.7Z" stroke="#000" stroke-miterlimit="10" stroke-width="0.05"/><path d="M67.4,126.2a3.6,3.6,0,0,1-2.4-.8,3.4,3.4,0,0,1-.8-2.3,2.9,2.9,0,0,1,.9-2.3,3.2,3.2,0,0,1,2.4-.9,2.9,2.9,0,0,1,2.3.9,2.8,2.8,0,0,1,.9,2.2,3.2,3.2,0,0,1-.9,2.4A3.6,3.6,0,0,1,67.4,126.2Zm0-4.8a1.3,1.3,0,0,0-1,.4,2.3,2.3,0,0,0-.3,1.3c0,1.1.4,1.7,1.4,1.7s1.3-.6,1.3-1.8S68.3,121.4,67.4,121.4Z" stroke="#000" stroke-miterlimit="10" stroke-width="0.05"/><path d="M212.9,86H212V82.2h-4.4V86h-1V77.6h1v3.7H212V77.6h.9Z" fill="#1e1e1e" stroke="#1e1e1e" stroke-miterlimit="10" stroke-width="0.06"/><path d="M220,78.5h-2.4V86h-1V78.5h-2.4v-.9H220Z" fill="#1e1e1e" stroke="#1e1e1e" stroke-miterlimit="10" stroke-width="0.06"/><path d="M226.5,78.5h-2.4V86h-1V78.5h-2.4v-.9h5.8Z" fill="#1e1e1e" stroke="#1e1e1e" stroke-miterlimit="10" stroke-width="0.06"/><path d="M228.7,82.9V86h-1V77.6H230a3.3,3.3,0,0,1,2.1.7,2.3,2.3,0,0,1,.8,1.8,2.5,2.5,0,0,1-.9,2,2.9,2.9,0,0,1-2.2.8Zm0-4.4V82h1a2.5,2.5,0,0,0,1.6-.5,1.4,1.4,0,0,0,.5-1.3c0-1.1-.6-1.7-1.9-1.7Z" fill="#1e1e1e" stroke="#1e1e1e" stroke-miterlimit="10" stroke-width="0.06"/><path d="M243.9,85.5a6.8,6.8,0,0,1-2.8.7,3.7,3.7,0,0,1-2.9-1.2,3.9,3.9,0,0,1-1.2-3,4.4,4.4,0,0,1,1.3-3.2,3.9,3.9,0,0,1,3.1-1.3,5.3,5.3,0,0,1,2.3.4V79a4.8,4.8,0,0,0-2.4-.6,2.9,2.9,0,0,0-2.3,1,3.5,3.5,0,0,0-.9,2.5,3.9,3.9,0,0,0,.8,2.5,3,3,0,0,0,2.3.9,3.3,3.3,0,0,0,1.7-.4V82.6h-1.8v-.9h2.8Z" fill="#1e1e1e" stroke="#1e1e1e" stroke-miterlimit="10" stroke-width="0.06"/><path d="M250.2,86h-4.4V77.6H250v.9h-3.3v2.8h3.1v.9h-3.1v3h3.5Z" fill="#1e1e1e" stroke="#1e1e1e" stroke-miterlimit="10" stroke-width="0.06"/><path d="M256.7,78.5h-2.4V86h-1V78.5h-2.4v-.9h5.8Z" fill="#1e1e1e" stroke="#1e1e1e" stroke-miterlimit="10" stroke-width="0.06"/><path d="M267,82.9h-2.4v2.4h-.8V82.9h-2.4v-.7h2.4V79.8h.8v2.4H267Z" fill="#1e1e1e" stroke="#1e1e1e" stroke-miterlimit="10" stroke-width="0.06"/><path d="M211.6,92.7h-2.4v7.5h-1V92.7h-2.4v-.9h5.8Z" fill="#1e1e1e" stroke="#1e1e1e" stroke-miterlimit="10" stroke-width="0.06"/><path d="M214,100.4a2.7,2.7,0,0,1-2.1-.9,3.1,3.1,0,0,1-.8-2.2A2.9,2.9,0,0,1,212,95a2.7,2.7,0,0,1,2.2-.9,2.9,2.9,0,0,1,2.1.8,3.3,3.3,0,0,1,.7,2.3,3,3,0,0,1-.8,2.3A2.7,2.7,0,0,1,214,100.4Zm.1-5.5a2,2,0,0,0-1.5.6,3.2,3.2,0,0,0-.5,1.8,2.5,2.5,0,0,0,.6,1.7,1.9,1.9,0,0,0,2.8,0,2.3,2.3,0,0,0,.5-1.7,2.4,2.4,0,0,0-.5-1.8A1.7,1.7,0,0,0,214.1,94.9Z" fill="#1e1e1e" stroke="#1e1e1e" stroke-miterlimit="10" stroke-width="0.06"/><path d="M223.5,100.2h-1.4l-2.6-2.8h0v2.8h-1V91.4h1V97h0l2.5-2.8h1.3l-2.8,2.9Z" fill="#1e1e1e" stroke="#1e1e1e" stroke-miterlimit="10" stroke-width="0.06"/><path d="M229.2,97.5H225a2.1,2.1,0,0,0,.5,1.5,1.8,1.8,0,0,0,1.4.6,2.8,2.8,0,0,0,1.9-.7v.9a3.3,3.3,0,0,1-2.1.6,2.8,2.8,0,0,1-2-.8,3.3,3.3,0,0,1-.7-2.3,3,3,0,0,1,.8-2.3,2.5,2.5,0,0,1,1.9-.9,2.6,2.6,0,0,1,1.9.8,3.3,3.3,0,0,1,.6,2.1Zm-1-.8a1.7,1.7,0,0,0-.4-1.3,1.3,1.3,0,0,0-1.1-.5,1.6,1.6,0,0,0-1.1.5,2.3,2.3,0,0,0-.6,1.3Z" fill="#1e1e1e" stroke="#1e1e1e" stroke-miterlimit="10" stroke-width="0.06"/><path d="M235.6,100.2h-1V96.8c0-1.3-.5-1.9-1.4-1.9a1.4,1.4,0,0,0-1.2.6,1.8,1.8,0,0,0-.4,1.3v3.4h-1v-6h1v1h0a2.1,2.1,0,0,1,1.9-1.1,2.1,2.1,0,0,1,1.6.6,3.6,3.6,0,0,1,.5,1.9Z" fill="#1e1e1e" stroke="#1e1e1e" stroke-miterlimit="10" stroke-width="0.06"/><path d="M245.6,100.2h-.9v-1h0a2.4,2.4,0,0,1-2.1,1.2,2.2,2.2,0,0,1-1.8-.8,3.2,3.2,0,0,1-.7-2.2,3.6,3.6,0,0,1,.8-2.4,2.4,2.4,0,0,1,2-.9,1.9,1.9,0,0,1,1.8,1h0V91.4h.9Zm-.9-2.7v-.9a2.1,2.1,0,0,0-.5-1.2,1.7,1.7,0,0,0-1.2-.5,1.5,1.5,0,0,0-1.4.7,3.1,3.1,0,0,0,0,3.4,1.5,1.5,0,0,0,1.3.6,1.6,1.6,0,0,0,1.3-.6A2.5,2.5,0,0,0,244.7,97.5Z" fill="#1e1e1e" stroke="#1e1e1e" stroke-miterlimit="10" stroke-width="0.06"/><path d="M252.3,97.5h-4.2a2.1,2.1,0,0,0,.5,1.5,2,2,0,0,0,1.5.6,2.6,2.6,0,0,0,1.8-.7v.9a3.3,3.3,0,0,1-2.1.6,2.8,2.8,0,0,1-2-.8,3.9,3.9,0,0,1-.7-2.3,3.4,3.4,0,0,1,.8-2.3,2.5,2.5,0,0,1,2-.9,2.2,2.2,0,0,1,1.8.8,3.3,3.3,0,0,1,.6,2.1Zm-.9-.8a2.2,2.2,0,0,0-.4-1.3,1.6,1.6,0,0,0-1.1-.5,1.7,1.7,0,0,0-1.2.5,2.3,2.3,0,0,0-.6,1.3Z" fill="#1e1e1e" stroke="#1e1e1e" stroke-miterlimit="10" stroke-width="0.06"/><path d="M261.2,100.2h-.9v-.9h-.1a2.1,2.1,0,0,1-3.2.6,1.7,1.7,0,0,1-.5-1.3c0-1.1.7-1.7,2-1.9l1.8-.3c0-1-.4-1.5-1.3-1.5a3.4,3.4,0,0,0-1.9.7v-.9a3.4,3.4,0,0,1,2-.6c1.4,0,2.1.7,2.1,2.2Zm-.9-3-1.5.2-1,.3a1.2,1.2,0,0,0-.3.9.9.9,0,0,0,.3.7,1.1,1.1,0,0,0,.8.3,1.7,1.7,0,0,0,1.2-.5,2.1,2.1,0,0,0,.5-1.3Z" fill="#1e1e1e" stroke="#1e1e1e" stroke-miterlimit="10" stroke-width="0.06"/><path d="M267.1,100a4.3,4.3,0,0,1-1.7.4,2.9,2.9,0,0,1-2.1-.9,2.8,2.8,0,0,1-.7-2.1,3.2,3.2,0,0,1,.8-2.4,3,3,0,0,1,2.3-.9,3.2,3.2,0,0,1,1.4.3v1a2.7,2.7,0,0,0-1.5-.5,1.8,1.8,0,0,0-1.5.7,2.7,2.7,0,0,0,0,3.4,2,2,0,0,0,1.5.6,3,3,0,0,0,1.5-.5Z" fill="#1e1e1e" stroke="#1e1e1e" stroke-miterlimit="10" stroke-width="0.06"/><path d="M273.3,97.5H269a1.8,1.8,0,0,0,.6,1.5,1.7,1.7,0,0,0,1.4.6,2.4,2.4,0,0,0,1.8-.7v.9a3.2,3.2,0,0,1-2,.6,2.5,2.5,0,0,1-2-.8,3.7,3.7,0,0,1,0-4.6,2.7,2.7,0,0,1,2-.9,2.2,2.2,0,0,1,1.8.8,3.3,3.3,0,0,1,.7,2.1Zm-1-.8a2.2,2.2,0,0,0-.4-1.3,1.6,1.6,0,0,0-1.1-.5,1.7,1.7,0,0,0-1.2.5,2.3,2.3,0,0,0-.6,1.3Z" fill="#1e1e1e" stroke="#1e1e1e" stroke-miterlimit="10" stroke-width="0.06"/><path d="M274.3,100V99a2.7,2.7,0,0,0,1.7.6c.9,0,1.3-.3,1.3-.9s-.1-.3-.1-.4l-.3-.3-.5-.2-.5-.2-.7-.3-.5-.4-.3-.5c-.1-.1-.1-.3-.1-.6a1.9,1.9,0,0,1,.2-.7l.5-.6.7-.3h.9a3.2,3.2,0,0,1,1.4.3v.9a4.2,4.2,0,0,0-1.5-.4h-.9c-.1.1-.2.2-.2.3s-.1.2-.1.4a.4.4,0,0,0,.1.3c0,.2.1.2.2.3l.4.3.5.2.8.3.5.3c.1.2.3.3.3.5a1.4,1.4,0,0,1,.2.6,1.9,1.9,0,0,1-.2.8l-.6.6-.7.3h-.9A2.7,2.7,0,0,1,274.3,100Z" fill="#1e1e1e" stroke="#1e1e1e" stroke-miterlimit="10" stroke-width="0.06"/><path d="M279.3,100V99a2.7,2.7,0,0,0,1.7.6c.9,0,1.3-.3,1.3-.9a.6.6,0,0,0-.1-.4l-.3-.3-.4-.2-.6-.2-.7-.3-.5-.4-.3-.5c-.1-.1-.1-.3-.1-.6a1.9,1.9,0,0,1,.2-.7l.5-.6.8-.3h.8a3.2,3.2,0,0,1,1.4.3v.9a3.3,3.3,0,0,0-1.5-.4h-.9c-.1.1-.2.2-.2.3s-.1.2-.1.4a.4.4,0,0,0,.1.3c0,.2.1.2.2.3l.4.3.6.2.7.3.5.3.4.5c0,.2.1.4.1.6a1.9,1.9,0,0,1-.2.8l-.5.6-.8.3h-.9A2.9,2.9,0,0,1,279.3,100Z" fill="#1e1e1e" stroke="#1e1e1e" stroke-miterlimit="10" stroke-width="0.06"/><path d="M287.2,100.4a2.6,2.6,0,0,1-2.1-.9,2.7,2.7,0,0,1-.8-2.2,3.2,3.2,0,0,1,.8-2.3,2.9,2.9,0,0,1,2.2-.9,2.9,2.9,0,0,1,2.1.8,3.7,3.7,0,0,1,0,4.6A2.9,2.9,0,0,1,287.2,100.4Zm.1-5.5a1.9,1.9,0,0,0-1.5.6,2.6,2.6,0,0,0-.5,1.8,2.5,2.5,0,0,0,.5,1.7,2,2,0,0,0,1.5.6,1.7,1.7,0,0,0,1.4-.6,2.9,2.9,0,0,0,.5-1.7,3,3,0,0,0-.5-1.8A1.7,1.7,0,0,0,287.3,94.9Z" fill="#1e1e1e" stroke="#1e1e1e" stroke-miterlimit="10" stroke-width="0.06"/><path d="M394.7,31.3v2.9h-1.9V25.8h3c2.1,0,3.2.9,3.2,2.7a2.6,2.6,0,0,1-1,2,3.2,3.2,0,0,1-2.4.8Zm0-4v2.6h.7c1.1,0,1.6-.5,1.6-1.3s-.5-1.3-1.6-1.3Z" fill="#fff" stroke="#fff" stroke-miterlimit="10" stroke-width="0.05"/><path d="M401.9,34.2H400V25.3h1.9Z" fill="#fff" stroke="#fff" stroke-miterlimit="10" stroke-width="0.05"/><path d="M408.4,34.2h-1.8v-.8h0a2.1,2.1,0,0,1-1.8,1,1.9,1.9,0,0,1-1.3-.5,1.7,1.7,0,0,1-.5-1.4c0-1.1.7-1.8,2-2l1.7-.2a1,1,0,0,0-1.1-1,3.1,3.1,0,0,0-2,.7V28.6a2.3,2.3,0,0,1,1-.4h1.2c1.7,0,2.6.8,2.6,2.5Zm-1.7-2.4v-.4h-1.1c-.6.1-.9.4-.9.8s0,.4.2.5.3.2.6.2a1.1,1.1,0,0,0,.8-.3A1.2,1.2,0,0,0,406.7,31.8Z" fill="#fff" stroke="#fff" stroke-miterlimit="10" stroke-width="0.05"/><path d="M413.5,34.1a2.1,2.1,0,0,1-1.2.3,1.8,1.8,0,0,1-2-2.1V29.6h-1V28.2h1V26.9l1.8-.5v1.8h1.4v1.4h-1.4V32c0,.6.3.9.8.9h.6Z" fill="#fff" stroke="#fff" stroke-miterlimit="10" stroke-width="0.05"/><path d="M419.5,34.2h-1.7v-.8h0a2.1,2.1,0,0,1-1.8,1,2,2,0,0,1-1.4-.5,2.2,2.2,0,0,1-.5-1.4c0-1.1.7-1.8,2.1-2l1.6-.2a1,1,0,0,0-1.1-1,3.1,3.1,0,0,0-2,.7V28.6a2.3,2.3,0,0,1,1-.4H417a2.2,2.2,0,0,1,2.5,2.5Zm-1.7-2.4v-.4h-1.1c-.6.1-.9.4-.9.8a.8.8,0,0,0,.2.5.7.7,0,0,0,.6.2,1.4,1.4,0,0,0,.9-.3A1.6,1.6,0,0,0,417.8,31.8Z" fill="#fff" stroke="#fff" stroke-miterlimit="10" stroke-width="0.05"/><path d="M424.9,26.7h-.7c-.6,0-.9.3-.9,1v.6h1.4v1.4h-1.4v4.6h-1.8V29.6h-1V28.2h1v-.7a2.1,2.1,0,0,1,.7-1.7,2.4,2.4,0,0,1,1.8-.6h.9Z" fill="#fff" stroke="#fff" stroke-miterlimit="10" stroke-width="0.05"/><path d="M428.5,34.4a3.2,3.2,0,0,1-2.4-.9,2.9,2.9,0,0,1-.9-2.3,3,3,0,0,1,.9-2.3,4,4,0,0,1,4.8,0,3.3,3.3,0,0,1,.8,2.2,3.6,3.6,0,0,1-.8,2.4A3.2,3.2,0,0,1,428.5,34.4Zm0-4.9a1.2,1.2,0,0,0-1,.4,1.8,1.8,0,0,0-.4,1.3c0,1.2.5,1.7,1.4,1.7s1.3-.6,1.3-1.7S429.4,29.5,428.5,29.5Z" fill="#fff" stroke="#fff" stroke-miterlimit="10" stroke-width="0.05"/><path d="M436.8,29.9l-.7-.2a1.2,1.2,0,0,0-1,.4,2.1,2.1,0,0,0-.3,1.2v2.9h-1.9v-6h1.9v1.1h0a1.6,1.6,0,0,1,1.6-1.2h.4Z" fill="#fff" stroke="#fff" stroke-miterlimit="10" stroke-width="0.05"/><path d="M447.3,34.2h-1.9V30.8c0-.9-.3-1.3-.9-1.3a.9.9,0,0,0-.8.4,1.5,1.5,0,0,0-.3,1v3.3h-1.8V30.8c0-.9-.3-1.3-1-1.3a.8.8,0,0,0-.7.4,1.3,1.3,0,0,0-.3,1v3.3h-1.9v-6h1.9v1h0a2,2,0,0,1,.8-.8,2.4,2.4,0,0,1,1.2-.3,1.6,1.6,0,0,1,1.7,1.1,2.1,2.1,0,0,1,2-1.1c1.3,0,2,.8,2,2.4Z" fill="#fff" stroke="#fff" stroke-miterlimit="10" stroke-width="0.05"/><path d="M453.7,34.2H452v-.8h-.1a1.9,1.9,0,0,1-1.7,1,2,2,0,0,1-1.4-.5,2.2,2.2,0,0,1-.5-1.4c0-1.1.7-1.8,2.1-2l1.6-.2a1,1,0,0,0-1.1-1,3.1,3.1,0,0,0-2,.7V28.6a2.3,2.3,0,0,1,1-.4h1.3a2.2,2.2,0,0,1,2.5,2.5ZM452,31.8v-.4h-1.1c-.6.1-.9.4-.9.8a.8.8,0,0,0,.2.5.7.7,0,0,0,.6.2,1.4,1.4,0,0,0,.9-.3A1.6,1.6,0,0,0,452,31.8Z" fill="#fff" stroke="#fff" stroke-miterlimit="10" stroke-width="0.05"/><path d="M390.9,48.6h-1.8v-.8H389a2.1,2.1,0,0,1-1.8,1,2.2,2.2,0,0,1-1.8-.8,3.3,3.3,0,0,1-.7-2.3,3.1,3.1,0,0,1,.8-2.3,2.3,2.3,0,0,1,1.9-.9,1.5,1.5,0,0,1,1.6.8h.1V39.7h1.8Zm-1.8-2.9v-.5a1.4,1.4,0,0,0-.3-.9,1.2,1.2,0,0,0-.9-.4,1.1,1.1,0,0,0-1,.5,2.3,2.3,0,0,0-.3,1.3,2.1,2.1,0,0,0,.3,1.2,1,1,0,0,0,.9.4,1.3,1.3,0,0,0,1-.4A2.1,2.1,0,0,0,389.1,45.7Z" fill="#fff" stroke="#fff" stroke-miterlimit="10" stroke-width="0.05"/><path d="M397.9,46.1H394c0,.9.6,1.3,1.6,1.3a3.1,3.1,0,0,0,1.7-.4v1.3a4.1,4.1,0,0,1-2.1.5,2.8,2.8,0,0,1-3.1-3.1,2.9,2.9,0,0,1,3-3.2,2.8,2.8,0,0,1,2.1.7,3.8,3.8,0,0,1,.7,2.2ZM396.2,45c0-.9-.4-1.3-1.1-1.3a1,1,0,0,0-.8.4,1.9,1.9,0,0,0-.4.9Z" fill="#fff" stroke="#fff" stroke-miterlimit="10" stroke-width="0.05"/><path d="M403.2,41.7a1,1,0,0,1-.7-1.7.8.8,0,0,1,.7-.2,1.1,1.1,0,0,1,.8.2,1,1,0,0,1,0,1.4A1.1,1.1,0,0,1,403.2,41.7Zm.9,6.9h-1.8v-6h1.8Z" fill="#fff" stroke="#fff" stroke-miterlimit="10" stroke-width="0.05"/><path d="M411.6,48.6h-1.9v-.8h0a2.3,2.3,0,0,1-1.9,1A2.5,2.5,0,0,1,406,48a3.9,3.9,0,0,1-.7-2.3,3.6,3.6,0,0,1,.8-2.3,2.5,2.5,0,0,1,2-.9,1.6,1.6,0,0,1,1.6.8h0V39.7h1.9Zm-1.9-2.9v-.5a1.4,1.4,0,0,0-.3-.9,1,1,0,0,0-.9-.4.9.9,0,0,0-.9.5,1.7,1.7,0,0,0-.4,1.3,1.6,1.6,0,0,0,.4,1.2,1.2,1.2,0,0,0,1.8,0A2.1,2.1,0,0,0,409.7,45.7Z" fill="#fff" stroke="#fff" stroke-miterlimit="10" stroke-width="0.05"/><path d="M418.5,46.1h-3.9c.1.9.6,1.3,1.6,1.3A3.4,3.4,0,0,0,418,47v1.3a4.8,4.8,0,0,1-2.2.5,3.1,3.1,0,0,1-2.2-.8,3,3,0,0,1-.8-2.3,3.6,3.6,0,0,1,.8-2.4,3.3,3.3,0,0,1,2.2-.8,2.7,2.7,0,0,1,2,.7,3.2,3.2,0,0,1,.7,2.2ZM416.8,45c0-.9-.3-1.3-1-1.3a.9.9,0,0,0-.8.4,1.3,1.3,0,0,0-.4.9Z" fill="#fff" stroke="#fff" stroke-miterlimit="10" stroke-width="0.05"/><path d="M425.4,48.6h-1.8V45.3c0-1-.4-1.4-1-1.4a.8.8,0,0,0-.8.4,1.2,1.2,0,0,0-.3.9v3.4h-1.9v-6h1.9v1h0a2,2,0,0,1,1.9-1.1c1.3,0,2,.8,2,2.4Z" fill="#fff" stroke="#fff" stroke-miterlimit="10" stroke-width="0.05"/><path d="M430.5,48.5a2.1,2.1,0,0,1-1.2.3,1.8,1.8,0,0,1-2-2.1V44h-1V42.6h1V41.3l1.9-.5v1.8h1.3V44h-1.3v2.4c0,.6.2.9.7.9h.6Z" fill="#fff" stroke="#fff" stroke-miterlimit="10" stroke-width="0.05"/><path d="M432.5,41.7a1.1,1.1,0,0,1-.8-.3,1,1,0,0,1,0-1.4,1.7,1.7,0,0,1,1.6,0,1.3,1.3,0,0,1,0,1.4A1.1,1.1,0,0,1,432.5,41.7Zm.9,6.9h-1.9v-6h1.9Z" fill="#fff" stroke="#fff" stroke-miterlimit="10" stroke-width="0.05"/><path d="M440.8,48.6H439v-.8h0a2.4,2.4,0,0,1-1.9,1,2.2,2.2,0,0,1-1.8-.8,3.3,3.3,0,0,1-.7-2.3,3.6,3.6,0,0,1,.8-2.3,2.3,2.3,0,0,1,1.9-.9,1.8,1.8,0,0,1,1.7.8h0V39.7h1.8ZM439,45.7v-.5a1.4,1.4,0,0,0-.3-.9,1.2,1.2,0,0,0-.9-.4,1.1,1.1,0,0,0-1,.5,2.3,2.3,0,0,0-.3,1.3,2.1,2.1,0,0,0,.3,1.2,1,1,0,0,0,.9.4,1.3,1.3,0,0,0,1-.4A2.1,2.1,0,0,0,439,45.7Z" fill="#fff" stroke="#fff" stroke-miterlimit="10" stroke-width="0.05"/><path d="M447.4,48.6h-1.8v-.8h0a2.1,2.1,0,0,1-1.8,1,1.7,1.7,0,0,1-1.9-1.9c0-1.1.7-1.8,2.1-2l1.6-.2a.9.9,0,0,0-1-1,3.5,3.5,0,0,0-2.1.7V43l1.1-.4h1.2c1.7,0,2.6.8,2.6,2.5Zm-1.8-2.4v-.4h-1.1c-.6.1-.9.4-.9.8a.5.5,0,0,0,.3.5c.1.2.3.2.6.2a1.1,1.1,0,0,0,.8-.3A1.6,1.6,0,0,0,445.6,46.2Z" fill="#fff" stroke="#fff" stroke-miterlimit="10" stroke-width="0.05"/><path d="M454.7,48.6h-1.8v-.8h-.1a2.1,2.1,0,0,1-1.8,1,2.2,2.2,0,0,1-1.8-.8,3.3,3.3,0,0,1-.7-2.3,3.5,3.5,0,0,1,.7-2.3,2.5,2.5,0,0,1,2-.9,1.5,1.5,0,0,1,1.6.8h.1V39.7h1.8Zm-1.8-2.9v-.5a1.4,1.4,0,0,0-.3-.9,1.2,1.2,0,0,0-.9-.4,1,1,0,0,0-1,.5,2.3,2.3,0,0,0-.3,1.3,2.1,2.1,0,0,0,.3,1.2,1.2,1.2,0,0,0,1.8,0A1.6,1.6,0,0,0,452.9,45.7Z" fill="#fff" stroke="#fff" stroke-miterlimit="10" stroke-width="0.05"/><path d="M461.7,46.1h-4c.1.9.7,1.3,1.7,1.3a3.1,3.1,0,0,0,1.7-.4v1.3a4.1,4.1,0,0,1-2.1.5,2.8,2.8,0,0,1-3.1-3.1,2.9,2.9,0,0,1,3-3.2,2.4,2.4,0,0,1,2,.7,3.3,3.3,0,0,1,.8,2.2ZM459.9,45c0-.9-.3-1.3-1-1.3a.9.9,0,0,0-.8.4,1.9,1.9,0,0,0-.4.9Z" fill="#fff" stroke="#fff" stroke-miterlimit="10" stroke-width="0.05"/><path d="M393.9,63H392v-.8h0a2.3,2.3,0,0,1-1.9,1,2.5,2.5,0,0,1-1.8-.8,3.9,3.9,0,0,1-.7-2.3,3.6,3.6,0,0,1,.8-2.3,2.4,2.4,0,0,1,2-.9,1.6,1.6,0,0,1,1.6.8h0V54.1h1.9ZM392,60.1v-.5a1.4,1.4,0,0,0-.3-.9,1,1,0,0,0-.9-.4.9.9,0,0,0-.9.5,1.7,1.7,0,0,0-.4,1.3,2.1,2.1,0,0,0,.3,1.2,1.3,1.3,0,0,0,1,.4,1.2,1.2,0,0,0,.9-.4A2.1,2.1,0,0,0,392,60.1Z" fill="#fff" stroke="#fff" stroke-miterlimit="10" stroke-width="0.05"/><path d="M400.4,63h-1.7v-.8h-.1a2.1,2.1,0,0,1-1.8,1,1.9,1.9,0,0,1-1.3-.5,1.7,1.7,0,0,1-.5-1.4c0-1.1.7-1.8,2-2l1.7-.2a1,1,0,0,0-1.1-1,3.1,3.1,0,0,0-2,.7V57.4a2.3,2.3,0,0,1,1-.4h1.2c1.8,0,2.6.8,2.6,2.5Zm-1.7-2.4v-.4h-1.1c-.6.1-.9.4-.9.8s0,.4.2.5.3.2.6.2a1.1,1.1,0,0,0,.8-.3A1.2,1.2,0,0,0,398.7,60.6Z" fill="#fff" stroke="#fff" stroke-miterlimit="10" stroke-width="0.05"/><path d="M414.9,63h-1.8V56.2h0a5.3,5.3,0,0,1-.3,1.1L410.9,63h-1.6l-2-5.6a4.9,4.9,0,0,0-.3-1.2h0c0,.8.1,1.5.1,2.2V63h-1.7V54.6h2.7l1.8,5,.3,1.2h0a10.4,10.4,0,0,1,.3-1.2l1.7-5h2.7Z" fill="#fff" stroke="#fff" stroke-miterlimit="10" stroke-width="0.05"/><path d="M417.6,56.1a1.1,1.1,0,0,1-.8-.3,1,1,0,0,1,0-1.4,1.7,1.7,0,0,1,1.6,0,1,1,0,0,1,0,1.4A1.1,1.1,0,0,1,417.6,56.1Zm.9,6.9h-1.8V57h1.8Z" fill="#fff" stroke="#fff" stroke-miterlimit="10" stroke-width="0.05"/><path d="M424.6,62.8a4,4,0,0,1-1.8.4,2.8,2.8,0,0,1-2.2-.9,2.7,2.7,0,0,1-.9-2.1,3.3,3.3,0,0,1,.9-2.5,3.9,3.9,0,0,1,2.5-.8l1.5.2v1.6a2,2,0,0,0-1.3-.4,1.3,1.3,0,0,0-1.2.5,1.7,1.7,0,0,0-.5,1.2,1.7,1.7,0,0,0,.4,1.3,1.8,1.8,0,0,0,1.3.4,2.2,2.2,0,0,0,1.3-.4Z" fill="#fff" stroke="#fff" stroke-miterlimit="10" stroke-width="0.05"/><path d="M429.8,58.7l-.8-.2a1.3,1.3,0,0,0-1,.4,2.1,2.1,0,0,0-.3,1.2V63h-1.9V57h1.9v1.1h0a1.6,1.6,0,0,1,1.6-1.2h.5Z" fill="#fff" stroke="#fff" stroke-miterlimit="10" stroke-width="0.05"/><path d="M433.4,63.2a3.1,3.1,0,0,1-3.2-3.2,3,3,0,0,1,.9-2.3,3.2,3.2,0,0,1,2.4-.8,2.8,2.8,0,0,1,2.3.8,2.9,2.9,0,0,1,.9,2.2,3.1,3.1,0,0,1-3.3,3.3Zm.1-4.9a1.1,1.1,0,0,0-1,.4,1.8,1.8,0,0,0-.4,1.3c0,1.2.5,1.7,1.4,1.7s1.3-.6,1.3-1.7S434.4,58.3,433.5,58.3Z" fill="#fff" stroke="#fff" stroke-miterlimit="10" stroke-width="0.05"/><path d="M437.5,62.9V61.4l.9.4h1.7a.8.8,0,0,0,.2-.4c0-.2,0-.3-.1-.3l-.3-.2-.5-.2-.4-.2-.7-.2-.4-.4-.3-.5a1.3,1.3,0,0,1-.1-.6,2.4,2.4,0,0,1,.2-.9l.6-.6a2.4,2.4,0,0,1,.9-.3h1.7l.9.2v1.4l-.8-.3h-1.4c-.1,0-.2,0-.2.1s-.1.1-.1.2.1.2.1.3l.3.2.4.2h.4l.7.3.5.3.3.5a1.5,1.5,0,0,1,.1.7,2.9,2.9,0,0,1-.2.9l-.6.6-.9.4h-1.1A5.7,5.7,0,0,1,437.5,62.9Z" fill="#fff" stroke="#fff" stroke-miterlimit="10" stroke-width="0.05"/><path d="M446,63.2a3,3,0,0,1-2.3-.9,2.9,2.9,0,0,1-.9-2.3,3,3,0,0,1,.9-2.3,4,4,0,0,1,4.8,0,3.3,3.3,0,0,1,.8,2.2,3.2,3.2,0,0,1-.9,2.4A3,3,0,0,1,446,63.2Zm.1-4.9a1.1,1.1,0,0,0-1,.4,1.8,1.8,0,0,0-.4,1.3c0,1.2.5,1.7,1.4,1.7s1.3-.6,1.3-1.7S447,58.3,446.1,58.3Z" fill="#fff" stroke="#fff" stroke-miterlimit="10" stroke-width="0.05"/><path d="M454.2,55.5h-.6c-.6,0-.9.3-.9,1V57H454v1.4h-1.3V63h-1.9V58.4h-1V57h1v-.7a2.1,2.1,0,0,1,.7-1.7,2.4,2.4,0,0,1,1.8-.6h.9Z" fill="#fff" stroke="#fff" stroke-miterlimit="10" stroke-width="0.05"/><path d="M458.8,62.9a2.1,2.1,0,0,1-1.2.3c-1.4,0-2-.7-2-2.1V58.4h-1V57h1V55.7l1.8-.5V57h1.4v1.4h-1.4v2.4c0,.6.3.9.8.9h.6Z" fill="#fff" stroke="#fff" stroke-miterlimit="10" stroke-width="0.05"/><path d="M412.3,110.2h-2l-.6-1.8h-3l-.6,1.8h-2l3-8.4h2.3Zm-3-3.3-1-2.8c0-.2-.1-.5-.1-.8h0c-.1.3-.1.5-.2.8l-.9,2.8Z" fill="#0072c6" stroke="#0072c6" stroke-miterlimit="10" stroke-width="0.05"/><path d="M415.3,107.3v2.9h-1.9v-8.4h3c2.1,0,3.1.9,3.1,2.7a2.7,2.7,0,0,1-.9,2.1,3.6,3.6,0,0,1-2.4.7Zm0-4v2.6h.7c1,0,1.5-.4,1.5-1.3s-.5-1.3-1.5-1.3Z" fill="#0072c6" stroke="#0072c6" stroke-miterlimit="10" stroke-width="0.05"/><path d="M422.7,110.2h-1.9v-8.4h1.9Z" fill="#0072c6" stroke="#0072c6" stroke-miterlimit="10" stroke-width="0.05"/><path d="M433.6,110.2h-1.9v-.8h0a2,2,0,0,1-1.9,1,2.5,2.5,0,0,1-1.8-.8,3.6,3.6,0,0,1-.7-2.2,3.6,3.6,0,0,1,.8-2.4,2.5,2.5,0,0,1,2-.9,1.8,1.8,0,0,1,1.6.8h0v-3.6h1.9Zm-1.8-2.9v-.4a1.5,1.5,0,0,0-.4-1,1,1,0,0,0-.9-.4,1.1,1.1,0,0,0-.9.5,1.8,1.8,0,0,0-.4,1.3,1.6,1.6,0,0,0,.4,1.2,1.1,1.1,0,0,0,1.8,0A2.1,2.1,0,0,0,431.8,107.3Z" fill="#0072c6" stroke="#0072c6" stroke-miterlimit="10" stroke-width="0.05"/><path d="M438,110.4a3.2,3.2,0,0,1-2.4-.9,3.1,3.1,0,0,1-.8-2.2,3.2,3.2,0,0,1,.9-2.4,3.6,3.6,0,0,1,2.4-.8,3.4,3.4,0,0,1,2.3.8,3,3,0,0,1,.9,2.3,3.2,3.2,0,0,1-.9,2.3A3.2,3.2,0,0,1,438,110.4Zm0-4.9a1.4,1.4,0,0,0-1,.5,2.1,2.1,0,0,0-.3,1.2c0,1.2.4,1.8,1.3,1.8s1.4-.6,1.4-1.8S438.9,105.5,438,105.5Z" fill="#0072c6" stroke="#0072c6" stroke-miterlimit="10" stroke-width="0.05"/><path d="M406,124.6h-1.8v-5a12.1,12.1,0,0,1,.1-1.8h-.1a5.3,5.3,0,0,1-.3,1.1l-1.9,5.7h-1.6l-2-5.6c0-.2-.1-.6-.2-1.2h-.1a17.7,17.7,0,0,1,.1,2.2v4.6h-1.7v-8.4h2.7l1.8,5,.3,1.2h0a10.4,10.4,0,0,1,.3-1.2l1.7-5H406Z" fill="#0072c6" stroke="#0072c6" stroke-miterlimit="10" stroke-width="0.05"/><path d="M408.7,117.7a1.1,1.1,0,0,1-.8-.3,1,1,0,0,1,0-1.4l.8-.2.8.2a1,1,0,0,1,0,1.4A1.1,1.1,0,0,1,408.7,117.7Zm.9,6.9h-1.8v-6h1.8Z" fill="#0072c6" stroke="#0072c6" stroke-miterlimit="10" stroke-width="0.05"/><path d="M415.7,124.4a3,3,0,0,1-1.8.4,2.9,2.9,0,0,1-2.2-.9,2.6,2.6,0,0,1-.9-2.1,3.2,3.2,0,0,1,.9-2.4,3.7,3.7,0,0,1,2.5-.9,2.8,2.8,0,0,1,1.5.3v1.5a2,2,0,0,0-1.3-.4,1.7,1.7,0,0,0-1.2.5,1.7,1.7,0,0,0-.5,1.3,1.7,1.7,0,0,0,1.7,1.7,2.4,2.4,0,0,0,1.3-.5Z" fill="#0072c6" stroke="#0072c6" stroke-miterlimit="10" stroke-width="0.05"/><path d="M420.9,120.3l-.8-.2a1.4,1.4,0,0,0-1,.5,2.1,2.1,0,0,0-.3,1.2v2.8h-1.9v-6h1.9v1.1h0a1.6,1.6,0,0,1,1.6-1.2h.5Z" fill="#0072c6" stroke="#0072c6" stroke-miterlimit="10" stroke-width="0.05"/><path d="M424.5,124.8a3,3,0,0,1-2.3-.9,2.8,2.8,0,0,1-.9-2.2,3.2,3.2,0,0,1,.9-2.4,4,4,0,0,1,4.8,0,3.4,3.4,0,0,1,.8,2.3,3.2,3.2,0,0,1-.9,2.3A3,3,0,0,1,424.5,124.8Zm.1-4.9a1.1,1.1,0,0,0-1,.5,1.6,1.6,0,0,0-.4,1.2c0,1.2.5,1.8,1.4,1.8s1.3-.6,1.3-1.8S425.5,119.9,424.6,119.9Z" fill="#0072c6" stroke="#0072c6" stroke-miterlimit="10" stroke-width="0.05"/><path d="M428.6,124.5V123l.9.4h1.7c.2-.1.3-.2.3-.4l-.2-.3-.3-.2-.5-.2h-.4l-.6-.3-.5-.4-.3-.5c0-.1-.1-.4-.1-.6a2.9,2.9,0,0,1,.2-.9l.6-.6.9-.3h1.8l.8.2v1.5l-.8-.4h-1.6v.3a.3.3,0,0,0,.1.2l.3.2.4.2h.4l.7.3.5.4.3.4a1.5,1.5,0,0,1,.1.7,2,2,0,0,1-.2.9,1.7,1.7,0,0,1-.6.6l-.9.4h-1A5.8,5.8,0,0,1,428.6,124.5Z" fill="#0072c6" stroke="#0072c6" stroke-miterlimit="10" stroke-width="0.05"/><path d="M437.2,124.8a3.2,3.2,0,0,1-2.4-.9,2.8,2.8,0,0,1-.9-2.2,3.2,3.2,0,0,1,.9-2.4,4,4,0,0,1,4.8,0,3.4,3.4,0,0,1,.8,2.3,3.6,3.6,0,0,1-.8,2.3A3.2,3.2,0,0,1,437.2,124.8Zm0-4.9a1.2,1.2,0,0,0-1,.5,1.6,1.6,0,0,0-.4,1.2c0,1.2.5,1.8,1.4,1.8s1.3-.6,1.3-1.8S438.1,119.9,437.2,119.9Z" fill="#0072c6" stroke="#0072c6" stroke-miterlimit="10" stroke-width="0.05"/><path d="M445.4,117.2l-.7-.2c-.6,0-.9.3-.9,1v.6h1.4V120h-1.4v4.6h-1.9V120h-1v-1.4h1v-.7a2.6,2.6,0,0,1,.7-1.7,2.8,2.8,0,0,1,1.8-.6h1Z" fill="#0072c6" stroke="#0072c6" stroke-miterlimit="10" stroke-width="0.05"/><path d="M449.9,124.6l-1.2.2a1.8,1.8,0,0,1-2-2.1V120h-1v-1.4h1v-1.3l1.9-.5v1.8h1.3V120h-1.3v2.4c0,.6.2,1,.7,1l.6-.2Z" fill="#0072c6" stroke="#0072c6" stroke-miterlimit="10" stroke-width="0.05"/><path d="M413.5,138.5a7.1,7.1,0,0,1-3.1.7,4.8,4.8,0,0,1-3.2-1.1,4.1,4.1,0,0,1-1.1-3.1,4.6,4.6,0,0,1,1.2-3.3,4.9,4.9,0,0,1,3.4-1.2,6.1,6.1,0,0,1,2.4.4v1.7a6,6,0,0,0-2.4-.5,2.5,2.5,0,0,0-1.9.7,2.8,2.8,0,0,0-.7,2.1,3.2,3.2,0,0,0,.6,2,2.4,2.4,0,0,0,1.8.7l1.1-.2v-1.6h-1.7v-1.6h3.6Z" fill="#0072c6" stroke="#0072c6" stroke-miterlimit="10" stroke-width="0.05"/><path d="M418.8,134.7l-.7-.2a1.4,1.4,0,0,0-1,.5,2.1,2.1,0,0,0-.3,1.2V139h-1.9v-6h1.9v1.1h0a1.6,1.6,0,0,1,1.6-1.2h.4Z" fill="#0072c6" stroke="#0072c6" stroke-miterlimit="10" stroke-width="0.05"/><path d="M424.7,139H423v-.8h-.1a2.1,2.1,0,0,1-1.8,1,1.9,1.9,0,0,1-1.3-.5,1.5,1.5,0,0,1-.5-1.3,2,2,0,0,1,2-2.1l1.7-.2a1,1,0,0,0-1.1-1,3.7,3.7,0,0,0-2,.7v-1.4l1-.4h1.2c1.7,0,2.6.8,2.6,2.5Zm-1.7-2.4v-.4h-1.1c-.6.1-.9.4-.9.8s0,.4.2.6l.6.2a1.2,1.2,0,0,0,.8-.4A1,1,0,0,0,423,136.6Z" fill="#0072c6" stroke="#0072c6" stroke-miterlimit="10" stroke-width="0.05"/><path d="M428,138.3h0v3.5h-1.8V133H428v.9h0a2.2,2.2,0,0,1,2-1,2.5,2.5,0,0,1,1.8.8,3.4,3.4,0,0,1,.6,2.2,3.6,3.6,0,0,1-.7,2.4,2.5,2.5,0,0,1-2,.9A2,2,0,0,1,428,138.3Zm0-2.4v.5a1.7,1.7,0,0,0,.3,1,1.3,1.3,0,0,0,.9.4,1.4,1.4,0,0,0,1-.5,2.9,2.9,0,0,0,.3-1.4c0-1.1-.4-1.6-1.2-1.6a1,1,0,0,0-.9.4A1.6,1.6,0,0,0,428,135.9Z" fill="#0072c6" stroke="#0072c6" stroke-miterlimit="10" stroke-width="0.05"/><path d="M439.4,139h-1.9v-3.4c0-.9-.3-1.3-.9-1.3a.8.8,0,0,0-.8.4,1.2,1.2,0,0,0-.3.9V139h-1.9v-8.9h1.9v3.8h0a2,2,0,0,1,1.8-1q2.1,0,2.1,2.4Z" fill="#0072c6" stroke="#0072c6" stroke-miterlimit="10" stroke-width="0.05"/><path d="M192,10.3h-1.1L190,8h-3.5l-.9,2.3h-1.1l3.3-8.4h1Zm-2.3-3.2-1.3-3.6a3.5,3.5,0,0,1-.1-.6h-.1c0,.3,0,.5-.1.6l-1.3,3.6Z" fill="#1e1e1e" stroke="#1e1e1e" stroke-miterlimit="10" stroke-width="0.06"/><path d="M198.2,10.3h-1v-1h0a2.4,2.4,0,0,1-2.1,1.2,2.5,2.5,0,0,1-1.8-.8,3.2,3.2,0,0,1-.7-2.2,3.6,3.6,0,0,1,.8-2.4,2.4,2.4,0,0,1,2-.9,1.9,1.9,0,0,1,1.8,1h0V1.4h1Zm-1-2.7V6.7A1.7,1.7,0,0,0,195.5,5a1.7,1.7,0,0,0-1.4.6,3.5,3.5,0,0,0-.5,1.8,2.9,2.9,0,0,0,.5,1.7,1.5,1.5,0,0,0,1.3.6,1.6,1.6,0,0,0,1.3-.6A2.5,2.5,0,0,0,197.2,7.6Z" fill="#1e1e1e" stroke="#1e1e1e" stroke-miterlimit="10" stroke-width="0.06"/><path d="M205.1,13.1h-.9V9.3h-.1a2.1,2.1,0,0,1-2,1.2,2.2,2.2,0,0,1-1.8-.8,3.2,3.2,0,0,1-.7-2.2,3.6,3.6,0,0,1,.7-2.4,2.6,2.6,0,0,1,2.1-.9,1.7,1.7,0,0,1,1.7,1h.1V4.3h.9Zm-.9-5.5V6.7a1.8,1.8,0,0,0-.5-1.2,1.8,1.8,0,0,0-1.2-.5,1.7,1.7,0,0,0-1.4.6,2.7,2.7,0,0,0-.5,1.8,2.3,2.3,0,0,0,.5,1.7,1.4,1.4,0,0,0,1.2.6,1.8,1.8,0,0,0,1.4-.6A2.5,2.5,0,0,0,204.2,7.6Z" fill="#1e1e1e" stroke="#1e1e1e" stroke-miterlimit="10" stroke-width="0.06"/><path d="M211.8,10.3h-.9V9.4h-.1a2,2,0,0,1-1.8,1.1c-1.4,0-2.2-.9-2.2-2.6V4.3h1V7.8c0,1.2.5,1.9,1.5,1.9a1.4,1.4,0,0,0,1.1-.6,1.9,1.9,0,0,0,.5-1.3V4.3h.9Z" fill="#1e1e1e" stroke="#1e1e1e" stroke-miterlimit="10" stroke-width="0.06"/><path d="M214.2,2.8l-.5-.2a.5.5,0,0,1-.2-.4.8.8,0,0,1,.2-.5l.5-.2.4.2a.8.8,0,0,1,.2.5l-.2.4Zm.4,7.5h-.9v-6h.9Z" fill="#1e1e1e" stroke="#1e1e1e" stroke-miterlimit="10" stroke-width="0.06"/><path d="M219.6,5.3l-.7-.2a1.1,1.1,0,0,0-1,.6,2.5,2.5,0,0,0-.5,1.6v3h-.9v-6h.9V5.6h.1a1.4,1.4,0,0,1,.6-1,1.2,1.2,0,0,1,.9-.4h.6Z" fill="#1e1e1e" stroke="#1e1e1e" stroke-miterlimit="10" stroke-width="0.06"/><path d="M221,2.8l-.4-.2a.5.5,0,0,1-.2-.4.8.8,0,0,1,.2-.5l.4-.2.5.2a.8.8,0,0,1,.2.5l-.2.4Zm.5,7.5h-.9v-6h.9Z" fill="#1e1e1e" stroke="#1e1e1e" stroke-miterlimit="10" stroke-width="0.06"/><path d="M226.5,5.3l-.7-.2a1.4,1.4,0,0,0-1.1.6,3.4,3.4,0,0,0-.4,1.6v3h-.9v-6h.9V5.6h.1a1.4,1.4,0,0,1,.6-1,1.2,1.2,0,0,1,.9-.4h.6Z" fill="#1e1e1e" stroke="#1e1e1e" stroke-miterlimit="10" stroke-width="0.06"/><path d="M233.4,10.3h-.9c-1,0-1.6-.5-1.6-1.7V5.1h-1V4.3h1V2.9l1-.4V4.3h1.5v.8h-1.5V8.5a2,2,0,0,0,.2.9c.1.2.4.2.7.2a.7.7,0,0,0,.6-.2Z" fill="#1e1e1e" stroke="#1e1e1e" stroke-miterlimit="10" stroke-width="0.06"/><path d="M237.1,10.5a2.6,2.6,0,0,1-2.1-.9,3.1,3.1,0,0,1-.8-2.2A3.6,3.6,0,0,1,235,5a3.4,3.4,0,0,1,2.3-.8,2.8,2.8,0,0,1,2,.8,3.4,3.4,0,0,1,.8,2.3,3.4,3.4,0,0,1-.8,2.3A2.9,2.9,0,0,1,237.1,10.5Zm.1-5.5a2,2,0,0,0-1.5.6,3,3,0,0,0-.5,1.8,2.5,2.5,0,0,0,.5,1.6,2.1,2.1,0,0,0,1.5.7,1.5,1.5,0,0,0,1.4-.7,2.6,2.6,0,0,0,.5-1.7,2.9,2.9,0,0,0-.5-1.7A1.7,1.7,0,0,0,237.2,5Z" fill="#1e1e1e" stroke="#1e1e1e" stroke-miterlimit="10" stroke-width="0.06"/><path d="M246.5,10.3h-1.3l-2.7-2.9h0v2.9h-1V1.4h1V7.1h0L245,4.3h1.3l-2.8,2.9Z" fill="#1e1e1e" stroke="#1e1e1e" stroke-miterlimit="10" stroke-width="0.06"/><path d="M252.2,7.6H248a2.5,2.5,0,0,0,.5,1.5,1.9,1.9,0,0,0,1.5.6,3.4,3.4,0,0,0,1.8-.7v.9a3.3,3.3,0,0,1-2.1.6,2.5,2.5,0,0,1-2-.9,3.2,3.2,0,0,1-.7-2.3,3.1,3.1,0,0,1,.8-2.2,2.5,2.5,0,0,1,2-.9,2.3,2.3,0,0,1,1.8.7,3.6,3.6,0,0,1,.6,2.2Zm-1-.9a1.6,1.6,0,0,0-.4-1.2c-.2-.4-.6-.5-1.1-.5a1.3,1.3,0,0,0-1.1.5,2.3,2.3,0,0,0-.6,1.2Z" fill="#1e1e1e" stroke="#1e1e1e" stroke-miterlimit="10" stroke-width="0.06"/><path d="M258.6,10.3h-1V6.9c0-1.3-.5-1.9-1.4-1.9a1.7,1.7,0,0,0-1.2.5,2.2,2.2,0,0,0-.5,1.4v3.4h-.9v-6h.9v1h.1a2.1,2.1,0,0,1,1.9-1.1,1.8,1.8,0,0,1,1.5.6,2.7,2.7,0,0,1,.6,1.9Z" fill="#1e1e1e" stroke="#1e1e1e" stroke-miterlimit="10" stroke-width="0.06"/><path d="M210,30.7h-2.4v7.5h-1V30.7h-2.4v-.9H210Z" fill="#1e1e1e" stroke="#1e1e1e" stroke-miterlimit="10" stroke-width="0.06"/><path d="M212.4,38.4a2.7,2.7,0,0,1-2.1-.9,3.3,3.3,0,0,1-.8-2.2,3.2,3.2,0,0,1,.9-2.4,2.9,2.9,0,0,1,2.2-.8,2.5,2.5,0,0,1,2.1.8,3.2,3.2,0,0,1,.7,2.3,3.1,3.1,0,0,1-.8,2.3A2.7,2.7,0,0,1,212.4,38.4Zm.1-5.5a2,2,0,0,0-1.5.6,2.9,2.9,0,0,0-.5,1.7,2.2,2.2,0,0,0,.6,1.7,1.9,1.9,0,0,0,2.8,0,2.2,2.2,0,0,0,.5-1.7,2.3,2.3,0,0,0-.5-1.7A1.7,1.7,0,0,0,212.5,32.9Z" fill="#1e1e1e" stroke="#1e1e1e" stroke-miterlimit="10" stroke-width="0.06"/><path d="M221.9,38.2h-1.4l-2.6-2.9h0v2.9h-1V29.3h1V35h0l2.5-2.8h1.3l-2.8,2.9Z" fill="#1e1e1e" stroke="#1e1e1e" stroke-miterlimit="10" stroke-width="0.06"/><path d="M227.6,35.5h-4.2a2.5,2.5,0,0,0,.5,1.5,1.7,1.7,0,0,0,1.4.5,3.3,3.3,0,0,0,1.9-.6v.9a3.3,3.3,0,0,1-2.1.6,2.5,2.5,0,0,1-2-.9,3.2,3.2,0,0,1-.7-2.3,2.7,2.7,0,0,1,.8-2.2,2.5,2.5,0,0,1,1.9-.9,2.5,2.5,0,0,1,1.9.7,3.3,3.3,0,0,1,.6,2.1Zm-1-.9a1.8,1.8,0,0,0-.4-1.3,1.2,1.2,0,0,0-1.1-.4,1.3,1.3,0,0,0-1.1.5,2.3,2.3,0,0,0-.6,1.2Z" fill="#1e1e1e" stroke="#1e1e1e" stroke-miterlimit="10" stroke-width="0.06"/><path d="M234,38.2h-1V34.8c0-1.3-.5-1.9-1.4-1.9a1.7,1.7,0,0,0-1.2.5,2.1,2.1,0,0,0-.4,1.4v3.4h-1v-6h1v1h0a2,2,0,0,1,1.9-1.1,2.1,2.1,0,0,1,1.6.6,3,3,0,0,1,.5,1.8Z" fill="#1e1e1e" stroke="#1e1e1e" stroke-miterlimit="10" stroke-width="0.06"/><path d="M244,38.2h-.9v-1h0a2.4,2.4,0,0,1-2.1,1.2,2,2,0,0,1-1.8-.9,2.8,2.8,0,0,1-.7-2.1,3.6,3.6,0,0,1,.8-2.4,2.4,2.4,0,0,1,2-.9,2,2,0,0,1,1.8.9h0V29.3h.9Zm-.9-2.7v-.9a1.7,1.7,0,0,0-.5-1.2,1.3,1.3,0,0,0-1.2-.5,1.7,1.7,0,0,0-1.4.6,3.2,3.2,0,0,0-.5,1.8,2.5,2.5,0,0,0,.5,1.6,1.5,1.5,0,0,0,1.3.6,1.9,1.9,0,0,0,1.3-.5A2.5,2.5,0,0,0,243.1,35.5Z" fill="#1e1e1e" stroke="#1e1e1e" stroke-miterlimit="10" stroke-width="0.06"/><path d="M250.7,35.5h-4.2A2.5,2.5,0,0,0,247,37a2,2,0,0,0,1.5.5,3,3,0,0,0,1.8-.6v.9a3.3,3.3,0,0,1-2.1.6,2.5,2.5,0,0,1-2-.9,3.7,3.7,0,0,1-.7-2.3,3.1,3.1,0,0,1,.8-2.2,2.5,2.5,0,0,1,2-.9,2.1,2.1,0,0,1,1.8.7,3.3,3.3,0,0,1,.6,2.1Zm-.9-.9a2.5,2.5,0,0,0-.4-1.3,1.5,1.5,0,0,0-1.1-.4,1.3,1.3,0,0,0-1.2.5,2.3,2.3,0,0,0-.6,1.2Z" fill="#1e1e1e" stroke="#1e1e1e" stroke-miterlimit="10" stroke-width="0.06"/><path d="M259.6,38.2h-.9v-.9h-.1a2.1,2.1,0,0,1-3.2.6,1.9,1.9,0,0,1-.5-1.3c0-1.1.7-1.8,2-1.9l1.8-.3c0-1-.4-1.5-1.3-1.5a2.8,2.8,0,0,0-1.9.7v-1a4.2,4.2,0,0,1,2-.5c1.4,0,2.1.7,2.1,2.2Zm-.9-3-1.5.2a1.5,1.5,0,0,0-1,.3,1,1,0,0,0-.3.8,1.1,1.1,0,0,0,.3.8l.8.2a1.3,1.3,0,0,0,1.2-.5,1.7,1.7,0,0,0,.5-1.2Z" fill="#1e1e1e" stroke="#1e1e1e" stroke-miterlimit="10" stroke-width="0.06"/><path d="M265.5,37.9a3.1,3.1,0,0,1-1.7.5,2.5,2.5,0,0,1-2-.9,2.6,2.6,0,0,1-.8-2.1,3.2,3.2,0,0,1,.8-2.4,3,3,0,0,1,2.3-.9,3.2,3.2,0,0,1,1.4.3v.9a2.6,2.6,0,0,0-1.5-.4,2,2,0,0,0-1.5.6,2.8,2.8,0,0,0-.6,1.8,2.1,2.1,0,0,0,.6,1.6,2,2,0,0,0,1.5.6,2.3,2.3,0,0,0,1.5-.5Z" fill="#1e1e1e" stroke="#1e1e1e" stroke-miterlimit="10" stroke-width="0.06"/><path d="M271.7,35.5h-4.3A2,2,0,0,0,268,37a1.6,1.6,0,0,0,1.4.5,2.8,2.8,0,0,0,1.8-.6v.9a3.2,3.2,0,0,1-2,.6,2.3,2.3,0,0,1-2-.9,3.2,3.2,0,0,1-.8-2.3,3.1,3.1,0,0,1,.8-2.2,2.7,2.7,0,0,1,2-.9,2.1,2.1,0,0,1,1.8.7,2.8,2.8,0,0,1,.7,2.1Zm-1-.9a2.5,2.5,0,0,0-.4-1.3,1.5,1.5,0,0,0-1.1-.4,1.3,1.3,0,0,0-1.2.5,2.3,2.3,0,0,0-.6,1.2Z" fill="#1e1e1e" stroke="#1e1e1e" stroke-miterlimit="10" stroke-width="0.06"/><path d="M272.7,38V37a3.4,3.4,0,0,0,1.7.5c.9,0,1.3-.2,1.3-.8s-.1-.3-.1-.4l-.3-.3-.5-.2-.5-.3-.7-.3-.5-.3-.3-.5a1.3,1.3,0,0,1-.1-.6,1.4,1.4,0,0,1,.2-.7c.1-.3.3-.4.5-.6l.7-.3h.9l1.4.2v1a2.8,2.8,0,0,0-1.5-.4h-.5l-.4.2c-.1.1-.2.2-.2.3a.4.4,0,0,0-.1.3c0,.2,0,.3.1.4s.1.2.2.3l.4.2.5.2.8.3.5.4a.9.9,0,0,1,.3.5,1.4,1.4,0,0,1,.2.6,1.9,1.9,0,0,1-.2.8c-.2.2-.3.4-.6.5a.9.9,0,0,1-.7.3l-.9.2A3.8,3.8,0,0,1,272.7,38Z" fill="#1e1e1e" stroke="#1e1e1e" stroke-miterlimit="10" stroke-width="0.06"/><path d="M277.7,38V37a3.4,3.4,0,0,0,1.7.5c.9,0,1.3-.2,1.3-.8s0-.3-.1-.4l-.3-.3-.4-.2-.6-.3-.7-.3-.5-.3-.3-.5a1.3,1.3,0,0,1-.1-.6,1.4,1.4,0,0,1,.2-.7c.1-.3.3-.4.5-.6l.8-.3h.8l1.4.2v1a2.4,2.4,0,0,0-1.5-.4h-.5l-.4.2c-.1.1-.2.2-.2.3a.4.4,0,0,0-.1.3c0,.2,0,.3.1.4s.1.2.2.3l.4.2.6.2.7.3.5.4a1,1,0,0,1,.4.5c0,.2.1.4.1.6a1.9,1.9,0,0,1-.2.8l-.5.5a1.3,1.3,0,0,1-.8.3l-.9.2A4.2,4.2,0,0,1,277.7,38Z" fill="#1e1e1e" stroke="#1e1e1e" stroke-miterlimit="10" stroke-width="0.06"/><path d="M285.6,38.4a2.6,2.6,0,0,1-2.1-.9,2.9,2.9,0,0,1-.8-2.2,3.6,3.6,0,0,1,.8-2.4,3.3,3.3,0,0,1,2.2-.8,2.5,2.5,0,0,1,2.1.8,3.2,3.2,0,0,1,.8,2.3,3.6,3.6,0,0,1-.8,2.3A2.9,2.9,0,0,1,285.6,38.4Zm.1-5.5a1.9,1.9,0,0,0-1.5.6,2.3,2.3,0,0,0-.5,1.7,2.2,2.2,0,0,0,.5,1.7,2,2,0,0,0,1.5.6,1.7,1.7,0,0,0,1.4-.6,2.6,2.6,0,0,0,.5-1.7,2.9,2.9,0,0,0-.5-1.7A1.7,1.7,0,0,0,285.7,32.9Z" fill="#1e1e1e" stroke="#1e1e1e" stroke-miterlimit="10" stroke-width="0.06"/><path d="M191.5,135.2h-1.1l-1.4-2.4-.4-.5c-.1-.2-.3-.3-.4-.4a.5.5,0,0,0-.4-.2h-1.3v3.6h-1v-8.4H189l.9.4.5.7a3,3,0,0,1,.2,1,1.9,1.9,0,0,1-.2.8,1.5,1.5,0,0,1-.3.7l-.6.5-.8.3h0l.4.2.3.3.3.4c0,.1.2.3.3.5Zm-5-7.5v3h2l.6-.3.3-.5a1.7,1.7,0,0,0,.1-.7,1.4,1.4,0,0,0-.4-1.1,2.1,2.1,0,0,0-1.2-.3Z" fill="#1e1e1e" stroke="#1e1e1e" stroke-miterlimit="10" stroke-width="0.06"/><path d="M197,132.4h-4.2a2.5,2.5,0,0,0,.5,1.6,2,2,0,0,0,1.4.5,2.8,2.8,0,0,0,1.9-.7v.9a3.3,3.3,0,0,1-2.1.6,2.6,2.6,0,0,1-2-.8,3.2,3.2,0,0,1-.7-2.3,3.1,3.1,0,0,1,.8-2.3,2.3,2.3,0,0,1,1.9-.9,2.6,2.6,0,0,1,1.9.8,3.3,3.3,0,0,1,.6,2.1Zm-1-.8a1.8,1.8,0,0,0-.4-1.3,1.3,1.3,0,0,0-1.1-.5,1.6,1.6,0,0,0-1.1.5,2.2,2.2,0,0,0-.6,1.3Z" fill="#1e1e1e" stroke="#1e1e1e" stroke-miterlimit="10" stroke-width="0.06"/><path d="M198.1,135v-1.1a2.7,2.7,0,0,0,1.7.6c.8,0,1.2-.3,1.2-.8s0-.3-.1-.4-.1-.2-.3-.3l-.4-.3-.5-.2-.7-.3a1,1,0,0,1-.5-.4.5.5,0,0,1-.3-.4,1.3,1.3,0,0,1-.1-.6,1.1,1.1,0,0,1,.2-.8,1.2,1.2,0,0,1,.5-.5.9.9,0,0,1,.7-.3l.9-.2a3.5,3.5,0,0,1,1.4.3v1a3,3,0,0,0-1.6-.5h-.5l-.3.2-.3.2v.8l.3.3.4.2.5.2.7.3.6.4.3.4a1.5,1.5,0,0,1,.1.7.8.8,0,0,1-.2.7c-.1.3-.3.4-.5.6l-.7.3h-.9A3.5,3.5,0,0,1,198.1,135Z" fill="#1e1e1e" stroke="#1e1e1e" stroke-miterlimit="10" stroke-width="0.06"/><path d="M204.5,134.3h-.1v3.6h-.9v-8.7h.9v1h.1a2.1,2.1,0,0,1,2-1.2,2.2,2.2,0,0,1,1.8.8,3.2,3.2,0,0,1,.7,2.2,4.3,4.3,0,0,1-.7,2.4,2.5,2.5,0,0,1-2,.9A1.9,1.9,0,0,1,204.5,134.3Zm-.1-2.4v.8a2.1,2.1,0,0,0,.5,1.3,1.7,1.7,0,0,0,1.2.5,1.5,1.5,0,0,0,1.4-.7,3,3,0,0,0,.5-1.8,2.1,2.1,0,0,0-.5-1.6,1.4,1.4,0,0,0-1.2-.6,1.8,1.8,0,0,0-1.4.6A2.5,2.5,0,0,0,204.4,131.9Z" fill="#1e1e1e" stroke="#1e1e1e" stroke-miterlimit="10" stroke-width="0.06"/><path d="M213,135.3a2.8,2.8,0,0,1-2.9-3,3.5,3.5,0,0,1,.8-2.4,2.9,2.9,0,0,1,2.2-.9,2.6,2.6,0,0,1,2.1.9,3.2,3.2,0,0,1,.8,2.3,3.6,3.6,0,0,1-.8,2.3A3.3,3.3,0,0,1,213,135.3Zm.1-5.5a2.1,2.1,0,0,0-1.5.7,3.1,3.1,0,0,0,0,3.4,2,2,0,0,0,1.5.6,1.7,1.7,0,0,0,1.4-.6,2.9,2.9,0,0,0,.5-1.7,2.6,2.6,0,0,0-.5-1.7A1.7,1.7,0,0,0,213.1,129.8Z" fill="#1e1e1e" stroke="#1e1e1e" stroke-miterlimit="10" stroke-width="0.06"/><path d="M224.4,135.1l-.9.2c-1,0-1.5-.6-1.5-1.7V130h-3.2l-.4.2-.2.2a.4.4,0,0,0-.1.3.6.6,0,0,0,.1.4l.3.3.4.2.5.2.7.3a2.9,2.9,0,0,1,.9.9c.1.1.1.3.1.6a1.4,1.4,0,0,1-.2.7c-.1.3-.3.4-.5.6l-.8.3h-.9a4.1,4.1,0,0,1-1.6-.3v-1.1a2.8,2.8,0,0,0,1.8.6c.8,0,1.2-.3,1.2-.8s0-.3-.1-.4l-.3-.3-.4-.3-.6-.2-.7-.3-.5-.4-.3-.4c0-.2-.1-.4-.1-.6a2.4,2.4,0,0,1,.2-.8,1,1,0,0,1,.5-.4l.6-.3H222v-1.5l.9-.3v1.8h1.5v.8h-1.5v3.4a1.3,1.3,0,0,0,.2.8.9.9,0,0,0,.7.3l.6-.2Z" fill="#1e1e1e" stroke="#1e1e1e" stroke-miterlimit="10" stroke-width="0.06"/><path d="M230,135.2h-1v-1h0a1.9,1.9,0,0,1-1.9,1.1,1.7,1.7,0,0,1-1.4-.5,1.7,1.7,0,0,1-.5-1.2c0-1.1.7-1.8,2-2l1.8-.2c0-1-.4-1.6-1.2-1.6a3.2,3.2,0,0,0-2,.8v-1a3.7,3.7,0,0,1,2.1-.6c1.4,0,2.1.8,2.1,2.3Zm-1-3.1-1.4.2a1.9,1.9,0,0,0-1,.4c-.3.1-.4.4-.4.8a.9.9,0,0,0,.3.7,1.2,1.2,0,0,0,.9.3,1.6,1.6,0,0,0,1.1-.5,1.4,1.4,0,0,0,.5-1.3Z" fill="#1e1e1e" stroke="#1e1e1e" stroke-miterlimit="10" stroke-width="0.06"/><path d="M241.4,135.2h-.9v-3.9h-4.4v3.9h-1v-8.4h1v3.7h4.4v-3.7h.9Z" fill="#1e1e1e" stroke="#1e1e1e" stroke-miterlimit="10" stroke-width="0.06"/><path d="M248.6,127.7h-2.4v7.5h-1v-7.5h-2.4v-.9h5.8Z" fill="#1e1e1e" stroke="#1e1e1e" stroke-miterlimit="10" stroke-width="0.06"/><path d="M255.1,127.7h-2.5v7.5h-.9v-7.5h-2.5v-.9h5.9Z" fill="#1e1e1e" stroke="#1e1e1e" stroke-miterlimit="10" stroke-width="0.06"/><path d="M257.3,132v3.2h-1v-8.4h2.4a2.8,2.8,0,0,1,2,.6,2.7,2.7,0,0,1,0,3.8,3,3,0,0,1-2.3.8Zm0-4.3v3.4h1.1a1.8,1.8,0,0,0,1.5-.5,1.5,1.5,0,0,0,.6-1.3c0-1.1-.7-1.6-2-1.6Z" fill="#1e1e1e" stroke="#1e1e1e" stroke-miterlimit="10" stroke-width="0.06"/></svg>