<svg xmlns="http://www.w3.org/2000/svg" xmlns:xlink="http://www.w3.org/1999/xlink" viewBox="0 0 475 150.6"><defs><symbol id="a" viewBox="0 0 20 20"><circle cx="10" cy="10" r="10" fill="#505050"/><path d="M12,14V8.6h1.2V7.4H12V5.6H10.6V7.4H6.8V8.6A13.1,13.1,0,0,1,7.9,9.8l1,1.4.9,1.4a10,10,0,0,1,.8,1.4ZM10.7,8.6v3.5l-1.3-2L8.2,8.6Z" fill="#fff"/></symbol><symbol id="b" viewBox="0 0 20 20"><circle cx="10" cy="10" r="10" fill="#505050"/><path d="M7.4,5.9V7.2a2.6,2.6,0,0,1,1.8-.7,2.3,2.3,0,0,1,1.4.4,1.2,1.2,0,0,1,.5,1c0,.9-.7,1.4-2.2,1.4H8.2v1.1h.7c1.3,0,1.9.5,1.9,1.4S10.3,13,9.3,13a2.3,2.3,0,0,1-1.6-.6v1.2a3.5,3.5,0,0,0,2,.5,3.5,3.5,0,0,0,1.8-.5,2.1,2.1,0,0,0-1-3.6h0a2.5,2.5,0,0,0,1.4-.6,2,2,0,0,0,.6-1.5,2.3,2.3,0,0,0-.9-1.8,3.4,3.4,0,0,0-2.2-.7A3.5,3.5,0,0,0,7.4,5.9Z" fill="#fff"/></symbol><symbol id="c" viewBox="0 0 20 20"><circle cx="10" cy="10" r="10" fill="#505050"/><path d="M12.5,5.6H7.2v.6c0,.3.1.5.1.8l.3.7.5.5.5.6.6.5.6.4.5.5.4.4.2.5a1.3,1.3,0,0,1,.1.6,1.3,1.3,0,0,1-.1.6l-.3.4-.4.2H9.6l-1-.2a3.9,3.9,0,0,1-1-.8v1.3a1,1,0,0,0,.5.4l.6.2.5.2h.7l1-.2.8-.4.5-.7a4.4,4.4,0,0,0,.2-1c0-.4-.1-.7-.1-1l-.4-.7-.6-.7-.7-.6-.7-.6-.6-.5-.4-.5a.8.8,0,0,1-.2-.5h3.8Z" fill="#fff"/></symbol><symbol id="d" viewBox="0 0 20 20"><circle cx="10" cy="10" r="10" fill="#505050"/><path d="M11.2,14.2V5.6H9.8v6.9L9,12l-1-.3v1.2l.7.2.6.3.6.3.7.5Z" fill="#fff"/></symbol></defs><title>OJ104329344</title><rect width="475" height="150.6" fill="#fff"/><rect width="105" height="150" fill="#ebebeb"/><rect x="17.8" y="20.6" width="70" height="70" fill="#a4c639"/><path d="M50,72.6v6.8c0,1.8-.9,3.2-2.8,3.2h0c-1.9,0-2.8-1.4-2.8-3.2V72.6H40.9c-1.4,0-2.1-1.6-2.1-3V46.5h28V69.6c0,1.4-.5,3-2.1,3H61.2v6.7c0,1.9-.9,3.3-2.8,3.3h0c-1.9,0-2.8-1.4-2.8-3.3V72.6Z" fill="#fff"/><path d="M33.2,45.8h0c1.9,0,3.7,1.4,3.7,3.2V62.1a3.6,3.6,0,0,1-3.7,3.3h0a3.6,3.6,0,0,1-3.7-3.3V49a3.6,3.6,0,0,1,3.7-3.3Z" fill="#fff"/><path d="M72.4,45.8h0c1.9,0,3.7,1.4,3.7,3.2V62.1a3.6,3.6,0,0,1-3.7,3.3h0a3.6,3.6,0,0,1-3.7-3.3V49a3.6,3.6,0,0,1,3.7-3.3Z" fill="#fff"/><path d="M59.6,34.1l2.5-3.5c.3-.2,0-.5-.2-.7s-.5,0-.7.2l-2.6,3.8a14.6,14.6,0,0,0-11.6,0l-2.8-4a.6.6,0,0,0-.7-.2c0,.2-.2.4,0,.7L46,34.1c-4.2,1.9-7.2,5.8-7.2,9.6h28C66.8,39.9,63.8,36,59.6,34.1ZM46.7,40.4a1.6,1.6,0,0,1-1.6-1.6,1.7,1.7,0,0,1,1.6-1.7,1.8,1.8,0,0,1,1.7,1.7h0a1.6,1.6,0,0,1-1.6,1.6Zm12.2,0a1.7,1.7,0,0,1-1.7-1.6,1.8,1.8,0,0,1,1.7-1.7,1.7,1.7,0,0,1,1.6,1.7h0A1.6,1.6,0,0,1,59,40.4Z" fill="#fff"/><rect x="371" width="104" height="90" fill="#0072c6"/><rect x="371" y="95" width="104" height="55" fill="#d2d2d2"/><line x1="105.2" y1="14.6" x2="365.8" y2="14.6" fill="none" stroke="#000" stroke-miterlimit="10"/><polygon points="364.7 18.3 371.2 14.6 364.7 10.9 364.7 18.3"/><line x1="110.6" y1="44.5" x2="371.2" y2="44.5" fill="none" stroke="#000" stroke-miterlimit="10"/><polygon points="111.7 48.2 105.2 44.5 111.7 40.7 111.7 48.2"/><line x1="105.2" y1="103.9" x2="365.8" y2="103.9" fill="none" stroke="#000" stroke-miterlimit="10"/><polygon points="364.7 107.6 371.2 103.9 364.7 100.2 364.7 107.6"/><line x1="110.7" y1="140.1" x2="371.2" y2="140.1" fill="none" stroke="#000" stroke-miterlimit="10"/><polygon points="111.7 143.8 105.3 140.1 111.7 136.3 111.7 143.8"/><use width="20" height="20" transform="matrix(1, 0, 0, -1, 160.1, 149.6)" xlink:href="#a"/><use width="20" height="20" transform="matrix(1, 0, 0, -1, 160.1, 113.9)" xlink:href="#b"/><use width="20" height="20" transform="matrix(1, 0, 0, -1, 160.1, 54.48)" xlink:href="#c"/><use width="20" height="20" transform="matrix(1, 0, 0, -1, 160.1, 24.6)" xlink:href="#d"/><polygon points="193 25.6 185.4 31 188.3 39.9 197.7 39.9 200.5 31 193 25.6" fill="#ebebeb" stroke="#000" stroke-miterlimit="10" stroke-width="0.75"/><polygon points="193.1 85.5 185.5 91 188.4 99.8 197.7 99.8 200.6 91 193.1 85.5" fill="#ebebeb" stroke="#000" stroke-miterlimit="10" stroke-width="0.75"/><path d="M32.5,111.4H30.4l-.6-1.9h-3l-.5,1.9H24.2l3.1-8.4h2.2ZM29.4,108l-.9-2.8a1.7,1.7,0,0,1-.1-.7h-.1c0,.2-.1.4-.1.7l-1,2.8Z" stroke="#000" stroke-miterlimit="10" stroke-width="0.05"/><path d="M35.2,110.7h0v3.4H33.4v-8.7h1.8v.9h0a2.3,2.3,0,0,1,2-1.1,2.5,2.5,0,0,1,1.8.8,4.4,4.4,0,0,1-.1,4.6,2.5,2.5,0,0,1-2,.9A2.1,2.1,0,0,1,35.2,110.7Zm0-2.5v.5a1.7,1.7,0,0,0,.3,1,1,1,0,0,0,.9.4,1.4,1.4,0,0,0,1-.5,2.6,2.6,0,0,0,.3-1.4c0-1-.4-1.6-1.2-1.6a1.4,1.4,0,0,0-1,.5A1.6,1.6,0,0,0,35.2,108.2Z" stroke="#000" stroke-miterlimit="10" stroke-width="0.05"/><path d="M42.7,111.4H40.8v-8.9h1.9Z" stroke="#000" stroke-miterlimit="10" stroke-width="0.05"/><path d="M45.1,104.4a1,1,0,0,1-1-1,.7.7,0,0,1,.3-.6.9.9,0,0,1,.7-.3,1,1,0,0,1,.8.3.7.7,0,0,1,.3.6.8.8,0,0,1-.3.7A1,1,0,0,1,45.1,104.4Zm1,7H44.2v-6h1.9Z" stroke="#000" stroke-miterlimit="10" stroke-width="0.05"/><path d="M52.2,111.1a3.4,3.4,0,0,1-1.8.4,3.4,3.4,0,0,1-2.3-.8,2.9,2.9,0,0,1-.8-2.2,3.1,3.1,0,0,1,3.3-3.3,3.5,3.5,0,0,1,1.6.3v1.6a2.4,2.4,0,0,0-1.3-.5,1.7,1.7,0,0,0-1.8,1.8,1.7,1.7,0,0,0,1.7,1.7,2.7,2.7,0,0,0,1.4-.5Z" stroke="#000" stroke-miterlimit="10" stroke-width="0.05"/><path d="M58.4,111.4H56.6v-.9h0a1.9,1.9,0,0,1-1.8,1,2.2,2.2,0,0,1-1.4-.5,1.9,1.9,0,0,1-.5-1.3c0-1.2.7-1.9,2.1-2l1.6-.2c0-.7-.3-1-1-1a3.9,3.9,0,0,0-2.1.6v-1.4l1.1-.3,1.2-.2a2.3,2.3,0,0,1,2.6,2.6Zm-1.8-2.5v-.4l-1.1.2c-.6,0-.9.3-.9.8s.1.3.3.5l.6.2a.9.9,0,0,0,.8-.4A1.2,1.2,0,0,0,56.6,108.9Z" stroke="#000" stroke-miterlimit="10" stroke-width="0.05"/><path d="M63.5,111.3l-1.3.2c-1.3,0-1.9-.7-1.9-2v-2.8h-1v-1.3h1v-1.3l1.8-.6v1.9h1.4v1.3H62.1v2.4c0,.7.3,1,.8,1l.6-.2Z" stroke="#000" stroke-miterlimit="10" stroke-width="0.05"/><path d="M65.4,104.4a1,1,0,0,1-1-1,.7.7,0,0,1,.3-.6.9.9,0,0,1,.7-.3,1,1,0,0,1,.8.3.7.7,0,0,1,.3.6.8.8,0,0,1-.3.7A1,1,0,0,1,65.4,104.4Zm1,7H64.5v-6h1.9Z" stroke="#000" stroke-miterlimit="10" stroke-width="0.05"/><path d="M73.6,105.4l-2.2,6H69.3l-2.1-6h1.9l1.1,3.6a6.5,6.5,0,0,1,.2,1.1h0a4.4,4.4,0,0,1,.2-1l1.1-3.7Z" stroke="#000" stroke-miterlimit="10" stroke-width="0.05"/><path d="M77.2,111.5a3.6,3.6,0,0,1-2.4-.8,3.2,3.2,0,0,1-.9-2.3,3.2,3.2,0,0,1,.9-2.4,4,4,0,0,1,4.8,0,3,3,0,0,1,.8,2.3,3.2,3.2,0,0,1-.8,2.3A3.2,3.2,0,0,1,77.2,111.5Zm0-4.9a1.2,1.2,0,0,0-1,.5,1.7,1.7,0,0,0-.4,1.3c0,1.1.5,1.7,1.4,1.7s1.4-.6,1.4-1.8S78.1,106.6,77.2,106.6Z" stroke="#000" stroke-miterlimit="10" stroke-width="0.05"/><path d="M42.1,125.8H40.2l-3.4-5.3a2.7,2.7,0,0,1-.4-.7h-.1a4.5,4.5,0,0,1,.1,1.3v4.7H34.6v-8.4h2l3.4,5.1a4.3,4.3,0,0,1,.4.7h0v-5.8h1.7Z" stroke="#000" stroke-miterlimit="10" stroke-width="0.05"/><path d="M48.9,125.8H47.1v-.9h0a1.9,1.9,0,0,1-1.8,1,2.2,2.2,0,0,1-1.4-.5,1.9,1.9,0,0,1-.5-1.3c0-1.2.7-1.9,2.1-2l1.6-.2c0-.7-.3-1-1-1a4.2,4.2,0,0,0-2.1.6v-1.4l1.1-.3,1.2-.2a2.3,2.3,0,0,1,2.6,2.6Zm-1.8-2.5v-.4l-1,.2c-.6,0-1,.3-1,.8a.5.5,0,0,0,.3.5l.6.2a.9.9,0,0,0,.8-.4A1.2,1.2,0,0,0,47.1,123.3Z" stroke="#000" stroke-miterlimit="10" stroke-width="0.05"/><path d="M54,125.7l-1.3.2c-1.3,0-1.9-.7-1.9-2v-2.8h-1v-1.3h1v-1.3l1.8-.6v1.9H54v1.3H52.6v2.4c0,.7.3,1,.8,1l.6-.2Z" stroke="#000" stroke-miterlimit="10" stroke-width="0.05"/><path d="M56,118.8a1,1,0,0,1-.8-.3.9.9,0,0,1-.3-.7.7.7,0,0,1,.3-.6,1,1,0,0,1,.8-.3.9.9,0,0,1,.7.3.7.7,0,0,1,.3.6.8.8,0,0,1-.3.7A.9.9,0,0,1,56,118.8Zm.9,7H55v-6h1.9Z" stroke="#000" stroke-miterlimit="10" stroke-width="0.05"/><path d="M64.1,119.8l-2.2,6H59.8l-2.1-6h2l1,3.7a4.4,4.4,0,0,1,.2,1h0c.1-.3.1-.6.2-1l1.1-3.7Z" stroke="#000" stroke-miterlimit="10" stroke-width="0.05"/><path d="M67.7,125.9a3.6,3.6,0,0,1-2.4-.8,3.1,3.1,0,0,1-.8-2.3,3.6,3.6,0,0,1,.8-2.4,3.7,3.7,0,0,1,2.5-.8,3.4,3.4,0,0,1,2.3.8,3,3,0,0,1,.8,2.3,2.8,2.8,0,0,1-.8,2.3A3.2,3.2,0,0,1,67.7,125.9Zm0-4.9a1.2,1.2,0,0,0-1,.5,2.2,2.2,0,0,0-.4,1.3c0,1.1.5,1.7,1.4,1.7s1.4-.6,1.4-1.8S68.6,121,67.7,121Z" stroke="#000" stroke-miterlimit="10" stroke-width="0.05"/><path d="M213.4,85.3h-1V81.5h-4.3v3.8h-1V76.9h1v3.7h4.3V76.9h1Z" fill="#1e1e1e" stroke="#1e1e1e" stroke-miterlimit="10" stroke-width="0.06"/><path d="M220.5,77.8h-2.4v7.5h-1V77.8h-2.4v-.9h5.8Z" fill="#1e1e1e" stroke="#1e1e1e" stroke-miterlimit="10" stroke-width="0.06"/><path d="M227,77.8h-2.5v7.5h-.9V77.8h-2.5v-.9H227Z" fill="#1e1e1e" stroke="#1e1e1e" stroke-miterlimit="10" stroke-width="0.06"/><path d="M229.2,82.1v3.2h-1V76.9h2.3a3.3,3.3,0,0,1,2.1.6,2.6,2.6,0,0,1,.8,1.9,2.7,2.7,0,0,1-.9,2,3.1,3.1,0,0,1-2.2.7Zm0-4.3v3.4h1a2.5,2.5,0,0,0,1.6-.4,2,2,0,0,0,.5-1.4c0-1.1-.6-1.6-1.9-1.6Z" fill="#1e1e1e" stroke="#1e1e1e" stroke-miterlimit="10" stroke-width="0.06"/><path d="M244.4,84.7a5.5,5.5,0,0,1-2.8.7,4.4,4.4,0,0,1-3-1.1,4.5,4.5,0,0,1-1.1-3.1,4.1,4.1,0,0,1,1.3-3.2,4.1,4.1,0,0,1,3.1-1.2,5.3,5.3,0,0,1,2.3.4v1.1a4.8,4.8,0,0,0-2.4-.7,3.1,3.1,0,0,0-2.3,1,3.7,3.7,0,0,0-.9,2.5,3.3,3.3,0,0,0,.8,2.5,3,3,0,0,0,2.3.9,4.7,4.7,0,0,0,1.7-.3V81.8h-1.9v-.9h2.9Z" fill="#1e1e1e" stroke="#1e1e1e" stroke-miterlimit="10" stroke-width="0.06"/><path d="M250.7,85.3h-4.5V76.9h4.3v.9h-3.3v2.8h3.1v.9h-3.1v2.9h3.5Z" fill="#1e1e1e" stroke="#1e1e1e" stroke-miterlimit="10" stroke-width="0.06"/><path d="M257.2,77.8h-2.4v7.5h-1V77.8h-2.4v-.9h5.8Z" fill="#1e1e1e" stroke="#1e1e1e" stroke-miterlimit="10" stroke-width="0.06"/><path d="M267.4,82.2h-2.3v2.3h-.8V82.2h-2.4v-.8h2.4V79h.8v2.4h2.3Z" fill="#1e1e1e" stroke="#1e1e1e" stroke-miterlimit="10" stroke-width="0.06"/><path d="M212.1,92h-2.5v7.5h-.9V92h-2.5v-.9h5.9Z" fill="#1e1e1e" stroke="#1e1e1e" stroke-miterlimit="10" stroke-width="0.06"/><path d="M214.5,99.6a2.5,2.5,0,0,1-2.1-.8,3.3,3.3,0,0,1-.8-2.2,3.6,3.6,0,0,1,.8-2.4,3,3,0,0,1,2.3-.8,2.5,2.5,0,0,1,2.1.8,3.2,3.2,0,0,1,.7,2.3,3.6,3.6,0,0,1-.8,2.3A3.1,3.1,0,0,1,214.5,99.6Zm.1-5.4a2,2,0,0,0-1.5.6,3.1,3.1,0,0,0,0,3.4,2,2,0,0,0,1.5.6,1.7,1.7,0,0,0,1.4-.6,3.1,3.1,0,0,0,0-3.4A1.7,1.7,0,0,0,214.6,94.2Z" fill="#1e1e1e" stroke="#1e1e1e" stroke-miterlimit="10" stroke-width="0.06"/><path d="M224,99.5h-1.4L220,96.6h-.1v2.9H219V90.6h.9v5.6h.1l2.5-2.7h1.2L221,96.4Z" fill="#1e1e1e" stroke="#1e1e1e" stroke-miterlimit="10" stroke-width="0.06"/><path d="M229.7,96.7h-4.2a2.5,2.5,0,0,0,.5,1.6,2,2,0,0,0,1.4.5,3.3,3.3,0,0,0,1.9-.6v.9a4.1,4.1,0,0,1-2.1.5,2.3,2.3,0,0,1-2-.8,3.2,3.2,0,0,1-.7-2.3,3.1,3.1,0,0,1,.8-2.3,2.2,2.2,0,0,1,1.9-.8,2.5,2.5,0,0,1,1.9.7,3.3,3.3,0,0,1,.6,2.1Zm-1-.8a1.8,1.8,0,0,0-.4-1.3,1.4,1.4,0,0,0-1.1-.4,1.5,1.5,0,0,0-1.1.4,1.8,1.8,0,0,0-.6,1.3Z" fill="#1e1e1e" stroke="#1e1e1e" stroke-miterlimit="10" stroke-width="0.06"/><path d="M236.1,99.5h-1V96.1c0-1.3-.5-1.9-1.4-1.9a1.3,1.3,0,0,0-1.2.5,2.2,2.2,0,0,0-.5,1.4v3.4h-.9v-6h.9v1h.1a2,2,0,0,1,1.9-1.1,1.8,1.8,0,0,1,1.5.6,2.4,2.4,0,0,1,.6,1.8Z" fill="#1e1e1e" stroke="#1e1e1e" stroke-miterlimit="10" stroke-width="0.06"/><path d="M246.1,99.5h-.9v-1h-.1a2.2,2.2,0,0,1-2,1.1,1.9,1.9,0,0,1-1.8-.8,2.9,2.9,0,0,1-.7-2.2,3.6,3.6,0,0,1,.7-2.4,2.8,2.8,0,0,1,2-.8,1.8,1.8,0,0,1,1.8.9h.1V90.6h.9Zm-.9-2.7v-.9a1.7,1.7,0,0,0-.5-1.2,1.3,1.3,0,0,0-1.2-.5,1.7,1.7,0,0,0-1.4.6,3,3,0,0,0-.5,1.8,2.1,2.1,0,0,0,.5,1.6,1.5,1.5,0,0,0,1.3.6,1.8,1.8,0,0,0,1.3-.6A2,2,0,0,0,245.2,96.8Z" fill="#1e1e1e" stroke="#1e1e1e" stroke-miterlimit="10" stroke-width="0.06"/><path d="M252.8,96.7h-4.2a2.5,2.5,0,0,0,.5,1.6,2.2,2.2,0,0,0,1.4.5,3.3,3.3,0,0,0,1.9-.6v.9a4.1,4.1,0,0,1-2.1.5,2.4,2.4,0,0,1-2-.8,3.2,3.2,0,0,1-.7-2.3,3.6,3.6,0,0,1,.8-2.3,2.4,2.4,0,0,1,2-.8,2.3,2.3,0,0,1,1.8.7,3.3,3.3,0,0,1,.6,2.1Zm-1-.8a1.8,1.8,0,0,0-.4-1.3,1.2,1.2,0,0,0-1.1-.4,1.5,1.5,0,0,0-1.1.4,3.1,3.1,0,0,0-.6,1.3Z" fill="#1e1e1e" stroke="#1e1e1e" stroke-miterlimit="10" stroke-width="0.06"/><path d="M261.7,99.5h-.9v-.9h-.1a1.9,1.9,0,0,1-1.8,1,2,2,0,0,1-1.4-.4,1.7,1.7,0,0,1-.5-1.3c0-1.1.6-1.8,2-2l1.8-.2c0-1-.5-1.5-1.3-1.5a2.6,2.6,0,0,0-1.9.7v-1a3.3,3.3,0,0,1,2-.5c1.4,0,2.1.7,2.1,2.2Zm-.9-3-1.5.2a1.5,1.5,0,0,0-1,.3c-.2.1-.3.4-.3.8a.8.8,0,0,0,.3.7,1.1,1.1,0,0,0,.8.3,1.3,1.3,0,0,0,1.2-.5,1.7,1.7,0,0,0,.5-1.2Z" fill="#1e1e1e" stroke="#1e1e1e" stroke-miterlimit="10" stroke-width="0.06"/><path d="M267.5,99.2a2.7,2.7,0,0,1-1.6.4,2.6,2.6,0,0,1-2.1-.8,3.3,3.3,0,0,1-.8-2.2,3.1,3.1,0,0,1,3.2-3.2l1.4.2v1a2.8,2.8,0,0,0-1.5-.4,2,2,0,0,0-1.5.6,2.6,2.6,0,0,0-.6,1.8,2.1,2.1,0,0,0,.6,1.6,2.2,2.2,0,0,0,2.9.1Z" fill="#1e1e1e" stroke="#1e1e1e" stroke-miterlimit="10" stroke-width="0.06"/><path d="M273.7,96.7h-4.2a2.1,2.1,0,0,0,.6,1.6,2,2,0,0,0,1.4.5,3,3,0,0,0,1.8-.6v.9a4.1,4.1,0,0,1-2.1.5,2.4,2.4,0,0,1-2-.8,3.7,3.7,0,0,1-.7-2.3,3.6,3.6,0,0,1,.8-2.3,2.4,2.4,0,0,1,2-.8,2.1,2.1,0,0,1,1.8.7,3.3,3.3,0,0,1,.6,2.1Zm-.9-.8a2.5,2.5,0,0,0-.4-1.3,1.5,1.5,0,0,0-1.1-.4,1.6,1.6,0,0,0-1.2.4,3.1,3.1,0,0,0-.6,1.3Z" fill="#1e1e1e" stroke="#1e1e1e" stroke-miterlimit="10" stroke-width="0.06"/><path d="M274.8,99.3V98.2a2.7,2.7,0,0,0,1.7.6c.8,0,1.3-.3,1.3-.8s-.1-.3-.1-.4l-.3-.3-.5-.3-.5-.2-.7-.3-.5-.3-.3-.5a1.3,1.3,0,0,1-.1-.6,1.2,1.2,0,0,1,.2-.8l.5-.5a.9.9,0,0,1,.7-.3h.9a3.2,3.2,0,0,1,1.4.2v1a2.9,2.9,0,0,0-1.6-.4h-.4l-.4.2-.3.3v.7l.3.3.4.2.5.2.7.3.6.4.3.5c.1.1.1.3.1.6a1.2,1.2,0,0,1-.2.8l-.5.5a.9.9,0,0,1-.7.3h-.9A3.8,3.8,0,0,1,274.8,99.3Z" fill="#1e1e1e" stroke="#1e1e1e" stroke-miterlimit="10" stroke-width="0.06"/><path d="M279.8,99.3V98.2a2.7,2.7,0,0,0,1.7.6c.9,0,1.3-.3,1.3-.8s-.1-.3-.1-.4l-.3-.3-.5-.3-.5-.2-.7-.3-.5-.3-.3-.5a1.3,1.3,0,0,1-.1-.6,2.4,2.4,0,0,1,.2-.8l.5-.5a1.1,1.1,0,0,1,.7-.3h.9a3.2,3.2,0,0,1,1.4.2v1a2.8,2.8,0,0,0-1.5-.4h-.5l-.4.2c-.1.1-.2.2-.2.3a.4.4,0,0,0-.1.3c0,.2,0,.3.1.4l.2.3.4.2.5.2.8.3.5.4a.5.5,0,0,1,.3.5.8.8,0,0,1,.2.6,2.4,2.4,0,0,1-.2.8c-.2.2-.3.4-.6.5a.9.9,0,0,1-.7.3h-.9A3.8,3.8,0,0,1,279.8,99.3Z" fill="#1e1e1e" stroke="#1e1e1e" stroke-miterlimit="10" stroke-width="0.06"/><path d="M287.7,99.6a2.5,2.5,0,0,1-2.1-.8,2.9,2.9,0,0,1-.8-2.2,3.2,3.2,0,0,1,.8-2.4,2.7,2.7,0,0,1,2.2-.8,2.5,2.5,0,0,1,2.1.8,3.2,3.2,0,0,1,.8,2.3,3.6,3.6,0,0,1-.8,2.3A3.3,3.3,0,0,1,287.7,99.6Zm0-5.4a1.7,1.7,0,0,0-1.4.6,2.7,2.7,0,0,0,0,3.4,1.8,1.8,0,0,0,1.4.6,1.9,1.9,0,0,0,1.5-.6,3.1,3.1,0,0,0,0-3.4A1.9,1.9,0,0,0,287.7,94.2Z" fill="#1e1e1e" stroke="#1e1e1e" stroke-miterlimit="10" stroke-width="0.06"/><path d="M394,31.3v2.9h-1.9V25.8h3c2.1,0,3.2.9,3.2,2.7a2.5,2.5,0,0,1-.9,2,3.3,3.3,0,0,1-2.5.8Zm0-4v2.6h.8c1,0,1.5-.5,1.5-1.3s-.5-1.3-1.5-1.3Z" fill="#fff" stroke="#fff" stroke-miterlimit="10" stroke-width="0.05"/><path d="M401.2,34.2h-1.9V25.3h1.9Z" fill="#fff" stroke="#fff" stroke-miterlimit="10" stroke-width="0.05"/><path d="M407.7,34.2H406v-.8h0a2.1,2.1,0,0,1-1.8,1,2,2,0,0,1-1.4-.5,2.2,2.2,0,0,1-.5-1.4c0-1.1.7-1.8,2.1-2l1.6-.2a1,1,0,0,0-1.1-1,3.1,3.1,0,0,0-2,.7V28.6a2.3,2.3,0,0,1,1-.4h1.3a2.2,2.2,0,0,1,2.5,2.5ZM406,31.8v-.4h-1.1c-.6.1-.9.4-.9.8a.8.8,0,0,0,.2.5.7.7,0,0,0,.6.2,1.4,1.4,0,0,0,.9-.3A1.6,1.6,0,0,0,406,31.8Z" fill="#fff" stroke="#fff" stroke-miterlimit="10" stroke-width="0.05"/><path d="M412.8,34.1a1.9,1.9,0,0,1-1.2.3,1.8,1.8,0,0,1-2-2.1V29.6h-.9V28.2h.9V26.9l1.9-.5v1.8h1.3v1.4h-1.3V32c0,.6.2.9.7.9h.6Z" fill="#fff" stroke="#fff" stroke-miterlimit="10" stroke-width="0.05"/><path d="M418.9,34.2h-1.8v-.8h0a2.1,2.1,0,0,1-1.8,1,1.7,1.7,0,0,1-1.9-1.9c0-1.1.7-1.8,2.1-2l1.6-.2a.9.9,0,0,0-1-1,3.3,3.3,0,0,0-2.1.7V28.6l1.1-.4h1.2c1.7,0,2.6.8,2.6,2.5Zm-1.8-2.4v-.4H416c-.6.1-.9.4-.9.8a.8.8,0,0,0,.2.5.7.7,0,0,0,.6.2,1.2,1.2,0,0,0,.9-.3A1.6,1.6,0,0,0,417.1,31.8Z" fill="#fff" stroke="#fff" stroke-miterlimit="10" stroke-width="0.05"/><path d="M424.2,26.7h-.6c-.6,0-.9.3-.9,1v.6H424v1.4h-1.3v4.6h-1.9V29.6h-1V28.2h1v-.7a2.1,2.1,0,0,1,.7-1.7,2.4,2.4,0,0,1,1.8-.6h.9Z" fill="#fff" stroke="#fff" stroke-miterlimit="10" stroke-width="0.05"/><path d="M427.8,34.4a3.2,3.2,0,0,1-2.4-.9,3.2,3.2,0,0,1-.8-2.3,3,3,0,0,1,.9-2.3,3.2,3.2,0,0,1,2.4-.8,2.9,2.9,0,0,1,3.2,3,3.1,3.1,0,0,1-3.3,3.3Zm0-4.9a1.3,1.3,0,0,0-1,.4,2.5,2.5,0,0,0-.4,1.3c0,1.2.5,1.7,1.4,1.7s1.4-.6,1.4-1.7S428.7,29.5,427.8,29.5Z" fill="#fff" stroke="#fff" stroke-miterlimit="10" stroke-width="0.05"/><path d="M436.2,29.9l-.8-.2a1,1,0,0,0-.9.4,1.6,1.6,0,0,0-.4,1.2v2.9h-1.8v-6h1.8v1.1h0a1.7,1.7,0,0,1,1.6-1.2h.5Z" fill="#fff" stroke="#fff" stroke-miterlimit="10" stroke-width="0.05"/><path d="M446.6,34.2h-1.8V30.8c0-.9-.4-1.3-1-1.3a.9.9,0,0,0-.8.4,2.5,2.5,0,0,0-.2,1v3.3h-1.9V30.8c0-.9-.3-1.3-.9-1.3a.8.8,0,0,0-.8.4,1.3,1.3,0,0,0-.3,1v3.3h-1.8v-6h1.8v1h0a1.8,1.8,0,0,1,.9-.8,2,2,0,0,1,1.1-.3,1.6,1.6,0,0,1,1.7,1.1,2.2,2.2,0,0,1,2-1.1c1.3,0,2,.8,2,2.4Z" fill="#fff" stroke="#fff" stroke-miterlimit="10" stroke-width="0.05"/><path d="M453.1,34.2h-1.8v-.8h0a2.1,2.1,0,0,1-1.8,1,1.7,1.7,0,0,1-1.9-1.9c0-1.1.7-1.8,2.1-2l1.6-.2c0-.6-.3-1-1.1-1a3.2,3.2,0,0,0-2,.7V28.6l1.1-.4h1.2c1.7,0,2.6.8,2.6,2.5Zm-1.8-2.4v-.4h-1.1c-.6.1-.9.4-.9.8a.8.8,0,0,0,.2.5.7.7,0,0,0,.6.2,1.2,1.2,0,0,0,.9-.3A1.6,1.6,0,0,0,451.3,31.8Z" fill="#fff" stroke="#fff" stroke-miterlimit="10" stroke-width="0.05"/><path d="M390.3,48.6h-1.9v-.8h0a2.3,2.3,0,0,1-1.9,1,2.5,2.5,0,0,1-1.8-.8,3.9,3.9,0,0,1-.7-2.3,3.6,3.6,0,0,1,.8-2.3,2.4,2.4,0,0,1,2-.9,1.6,1.6,0,0,1,1.6.8h0V39.7h1.9Zm-1.9-2.9v-.5a1.4,1.4,0,0,0-.3-.9,1,1,0,0,0-.9-.4.9.9,0,0,0-.9.5,1.7,1.7,0,0,0-.4,1.3,2.1,2.1,0,0,0,.3,1.2,1.3,1.3,0,0,0,1,.4,1.2,1.2,0,0,0,.9-.4A2.1,2.1,0,0,0,388.4,45.7Z" fill="#fff" stroke="#fff" stroke-miterlimit="10" stroke-width="0.05"/><path d="M397.2,46.1h-3.9c.1.9.6,1.3,1.6,1.3a3.4,3.4,0,0,0,1.8-.4v1.3a4.8,4.8,0,0,1-2.2.5,2.8,2.8,0,0,1-3-3.1,3.2,3.2,0,0,1,.8-2.4,3.3,3.3,0,0,1,2.2-.8,2.7,2.7,0,0,1,2,.7,3.2,3.2,0,0,1,.7,2.2ZM395.5,45c0-.9-.4-1.3-1.1-1.3a.8.8,0,0,0-.7.4,1.3,1.3,0,0,0-.4.9Z" fill="#fff" stroke="#fff" stroke-miterlimit="10" stroke-width="0.05"/><path d="M402.6,41.7a1,1,0,0,1-.8-.3,1,1,0,0,1,0-1.4c.2-.2.4-.2.8-.2a.8.8,0,0,1,.7.2,1,1,0,0,1-.7,1.7Zm.9,6.9h-1.9v-6h1.9Z" fill="#fff" stroke="#fff" stroke-miterlimit="10" stroke-width="0.05"/><path d="M410.9,48.6H409v-.8h0a2.1,2.1,0,0,1-1.8,1,2.2,2.2,0,0,1-1.8-.8,3.3,3.3,0,0,1-.7-2.3,3.5,3.5,0,0,1,.7-2.3,2.5,2.5,0,0,1,2-.9,1.5,1.5,0,0,1,1.6.8h0V39.7h1.9Zm-1.8-2.9v-.5a1.1,1.1,0,0,0-.4-.9.9.9,0,0,0-.8-.4c-.5,0-.8.1-1,.5a2.2,2.2,0,0,0-.4,1.3,2.1,2.1,0,0,0,.4,1.2,1.2,1.2,0,0,0,1.8,0A1.6,1.6,0,0,0,409.1,45.7Z" fill="#fff" stroke="#fff" stroke-miterlimit="10" stroke-width="0.05"/><path d="M417.8,46.1h-3.9c.1.9.6,1.3,1.7,1.3a3.3,3.3,0,0,0,1.7-.4v1.3a4.3,4.3,0,0,1-2.1.5,3.2,3.2,0,0,1-2.3-.8,3.4,3.4,0,0,1-.8-2.3,3.2,3.2,0,0,1,.9-2.4,3,3,0,0,1,2.1-.8,2.6,2.6,0,0,1,2,.7,3.2,3.2,0,0,1,.7,2.2ZM416.1,45c0-.9-.3-1.3-1-1.3a.9.9,0,0,0-.8.4,1.9,1.9,0,0,0-.4.9Z" fill="#fff" stroke="#fff" stroke-miterlimit="10" stroke-width="0.05"/><path d="M424.7,48.6h-1.8V45.3c0-1-.3-1.4-1-1.4a.9.9,0,0,0-.8.4,1.2,1.2,0,0,0-.3.9v3.4h-1.9v-6h1.9v1h0a2.1,2.1,0,0,1,2-1.1c1.3,0,1.9.8,1.9,2.4Z" fill="#fff" stroke="#fff" stroke-miterlimit="10" stroke-width="0.05"/><path d="M429.8,48.5a1.9,1.9,0,0,1-1.2.3,1.8,1.8,0,0,1-2-2.1V44h-.9V42.6h.9V41.3l1.9-.5v1.8h1.3V44h-1.3v2.4c0,.6.2.9.7.9h.6Z" fill="#fff" stroke="#fff" stroke-miterlimit="10" stroke-width="0.05"/><path d="M431.8,41.7a1.1,1.1,0,0,1-.8-.3,1,1,0,0,1,0-1.4,1.7,1.7,0,0,1,1.6,0,1,1,0,0,1,0,1.4A1.1,1.1,0,0,1,431.8,41.7Zm.9,6.9h-1.8v-6h1.8Z" fill="#fff" stroke="#fff" stroke-miterlimit="10" stroke-width="0.05"/><path d="M440.2,48.6h-1.9v-.8h0a2.3,2.3,0,0,1-1.9,1,2.5,2.5,0,0,1-1.8-.8,3.9,3.9,0,0,1-.7-2.3,3.6,3.6,0,0,1,.8-2.3,2.4,2.4,0,0,1,2-.9,1.6,1.6,0,0,1,1.6.8h0V39.7h1.9Zm-1.9-2.9v-.5a1.4,1.4,0,0,0-.3-.9,1,1,0,0,0-.9-.4.9.9,0,0,0-.9.5,1.7,1.7,0,0,0-.4,1.3,2.1,2.1,0,0,0,.3,1.2,1.3,1.3,0,0,0,1,.4,1.1,1.1,0,0,0,.9-.4A2.1,2.1,0,0,0,438.3,45.7Z" fill="#fff" stroke="#fff" stroke-miterlimit="10" stroke-width="0.05"/><path d="M446.7,48.6H445v-.8h-.1a2.1,2.1,0,0,1-1.8,1,1.9,1.9,0,0,1-1.3-.5,1.7,1.7,0,0,1-.5-1.4c0-1.1.7-1.8,2-2l1.7-.2a1,1,0,0,0-1.1-1,3.1,3.1,0,0,0-2,.7V43a2.3,2.3,0,0,1,1-.4h1.2c1.8,0,2.6.8,2.6,2.5ZM445,46.2v-.4h-1.1c-.6.1-.9.4-.9.8s0,.4.2.5.3.2.6.2a1.1,1.1,0,0,0,.8-.3A1.2,1.2,0,0,0,445,46.2Z" fill="#fff" stroke="#fff" stroke-miterlimit="10" stroke-width="0.05"/><path d="M454,48.6h-1.8v-.8h0a2.4,2.4,0,0,1-1.9,1,2.5,2.5,0,0,1-1.8-.8,3.3,3.3,0,0,1-.7-2.3,3.6,3.6,0,0,1,.8-2.3,2.4,2.4,0,0,1,2-.9,1.6,1.6,0,0,1,1.6.8h0V39.7H454Zm-1.8-2.9v-.5a1.4,1.4,0,0,0-.3-.9,1,1,0,0,0-.9-.4,1.1,1.1,0,0,0-1,.5,2.3,2.3,0,0,0-.3,1.3,2.1,2.1,0,0,0,.3,1.2,1.3,1.3,0,0,0,1,.4,1.2,1.2,0,0,0,.9-.4A2.1,2.1,0,0,0,452.2,45.7Z" fill="#fff" stroke="#fff" stroke-miterlimit="10" stroke-width="0.05"/><path d="M461,46.1h-3.9c0,.9.6,1.3,1.6,1.3a3.4,3.4,0,0,0,1.8-.4v1.3a4.8,4.8,0,0,1-2.2.5,2.8,2.8,0,0,1-3.1-3.1,2.9,2.9,0,0,1,3-3.2,2.8,2.8,0,0,1,2.1.7,3.2,3.2,0,0,1,.7,2.2ZM459.3,45c0-.9-.4-1.3-1.1-1.3a.8.8,0,0,0-.7.4,1,1,0,0,0-.4.9Z" fill="#fff" stroke="#fff" stroke-miterlimit="10" stroke-width="0.05"/><path d="M393.2,63h-1.9v-.8h0a2.1,2.1,0,0,1-1.8,1,2.6,2.6,0,0,1-1.9-.8,3.9,3.9,0,0,1-.6-2.3,3.5,3.5,0,0,1,.7-2.3,2.5,2.5,0,0,1,2-.9,1.5,1.5,0,0,1,1.6.8h0V54.1h1.9Zm-1.8-2.9v-.5a1.1,1.1,0,0,0-.4-.9,1,1,0,0,0-.9-.4.9.9,0,0,0-.9.5,2.2,2.2,0,0,0-.4,1.3,2.1,2.1,0,0,0,.4,1.2,1.2,1.2,0,0,0,1.8,0A1.6,1.6,0,0,0,391.4,60.1Z" fill="#fff" stroke="#fff" stroke-miterlimit="10" stroke-width="0.05"/><path d="M399.7,63H398v-.8h0a2.1,2.1,0,0,1-1.8,1,2,2,0,0,1-1.4-.5,2.2,2.2,0,0,1-.5-1.4c0-1.1.7-1.8,2.1-2l1.6-.2a1,1,0,0,0-1.1-1,3.1,3.1,0,0,0-2,.7V57.4a2.3,2.3,0,0,1,1-.4h1.3a2.2,2.2,0,0,1,2.5,2.5ZM398,60.6v-.4h-1.1c-.6.1-.9.4-.9.8a.8.8,0,0,0,.2.5.7.7,0,0,0,.6.2,1.2,1.2,0,0,0,.9-.3A1.6,1.6,0,0,0,398,60.6Z" fill="#fff" stroke="#fff" stroke-miterlimit="10" stroke-width="0.05"/><path d="M414.3,63h-1.9V58a10.9,10.9,0,0,1,.1-1.8h-.1a8.9,8.9,0,0,0-.2,1.1l-2,5.7h-1.6l-2-5.6c0-.2-.1-.6-.2-1.2h-.1a17,17,0,0,1,.1,2.2V63h-1.7V54.6h2.8l1.7,5,.3,1.2h0a3.4,3.4,0,0,1,.4-1.2l1.7-5h2.7Z" fill="#fff" stroke="#fff" stroke-miterlimit="10" stroke-width="0.05"/><path d="M416.9,56.1a1,1,0,0,1-.7-1.7.8.8,0,0,1,.7-.2c.4,0,.6,0,.8.2a1,1,0,0,1,0,1.4A1,1,0,0,1,416.9,56.1Zm.9,6.9H416V57h1.8Z" fill="#fff" stroke="#fff" stroke-miterlimit="10" stroke-width="0.05"/><path d="M424,62.8a4.9,4.9,0,0,1-1.9.4,2.9,2.9,0,0,1-2.2-.9,2.7,2.7,0,0,1-.9-2.1,3.4,3.4,0,0,1,1-2.5,3.6,3.6,0,0,1,2.4-.8l1.6.2v1.6a2.2,2.2,0,0,0-1.3-.4,1.4,1.4,0,0,0-1.3.5,1.7,1.7,0,0,0-.5,1.2,1.7,1.7,0,0,0,.5,1.3,1.6,1.6,0,0,0,1.2.4,2.5,2.5,0,0,0,1.4-.4Z" fill="#fff" stroke="#fff" stroke-miterlimit="10" stroke-width="0.05"/><path d="M429.1,58.7l-.8-.2a1,1,0,0,0-.9.4,1.6,1.6,0,0,0-.4,1.2V63h-1.8V57H427v1.1h0a1.7,1.7,0,0,1,1.6-1.2h.5Z" fill="#fff" stroke="#fff" stroke-miterlimit="10" stroke-width="0.05"/><path d="M432.8,63.2a3.2,3.2,0,0,1-2.4-.9,2.9,2.9,0,0,1-.9-2.3,3,3,0,0,1,.9-2.3,4,4,0,0,1,4.8,0,3.3,3.3,0,0,1,.8,2.2,3.6,3.6,0,0,1-.8,2.4A3.2,3.2,0,0,1,432.8,63.2Zm0-4.9a1.2,1.2,0,0,0-1,.4,1.8,1.8,0,0,0-.4,1.3c0,1.2.5,1.7,1.4,1.7s1.3-.6,1.3-1.7S433.7,58.3,432.8,58.3Z" fill="#fff" stroke="#fff" stroke-miterlimit="10" stroke-width="0.05"/><path d="M436.8,62.9V61.4l1,.4h1.6a.5.5,0,0,0,.3-.4c0-.2-.1-.3-.2-.3s-.2-.2-.3-.2l-.4-.2-.5-.2-.6-.2-.5-.4-.3-.5c0-.2-.1-.4-.1-.6a1.4,1.4,0,0,1,.3-.9l.5-.6a3.2,3.2,0,0,1,.9-.3h1.8l.8.2v1.4l-.8-.3h-1.6c0,.1-.1.1-.1.2s.1.2.2.3a.2.2,0,0,0,.2.2l.4.2h.4l.7.3.5.3c.1.2.3.3.3.5a2.3,2.3,0,0,1-.1,1.6,1.7,1.7,0,0,1-.6.6l-.9.4h-1A5.8,5.8,0,0,1,436.8,62.9Z" fill="#fff" stroke="#fff" stroke-miterlimit="10" stroke-width="0.05"/><path d="M445.4,63.2a3.2,3.2,0,0,1-2.4-.9,2.8,2.8,0,0,1-.8-2.3,3.4,3.4,0,0,1,.8-2.3,3.3,3.3,0,0,1,2.5-.8,3.1,3.1,0,0,1,2.3.8,2.9,2.9,0,0,1,.8,2.2,3.2,3.2,0,0,1-.8,2.4A3.2,3.2,0,0,1,445.4,63.2Zm0-4.9a1.2,1.2,0,0,0-1,.4A2.5,2.5,0,0,0,444,60c0,1.2.5,1.7,1.4,1.7s1.4-.6,1.4-1.7S446.3,58.3,445.4,58.3Z" fill="#fff" stroke="#fff" stroke-miterlimit="10" stroke-width="0.05"/><path d="M453.6,55.5h-.7c-.6,0-.9.3-.9,1V57h1.4v1.4H452V63h-1.8V58.4h-1.1V57h1.1v-.7a2.4,2.4,0,0,1,.6-1.7,2.8,2.8,0,0,1,1.8-.6h1Z" fill="#fff" stroke="#fff" stroke-miterlimit="10" stroke-width="0.05"/><path d="M458.1,62.9a2.1,2.1,0,0,1-1.2.3,1.8,1.8,0,0,1-2-2.1V58.4H454V57h.9V55.7l1.9-.5V57h1.3v1.4h-1.3v2.4c0,.6.2.9.7.9h.6Z" fill="#fff" stroke="#fff" stroke-miterlimit="10" stroke-width="0.05"/><path d="M412.1,110.2H410l-.6-1.8h-3l-.5,1.8h-2.1l3.1-8.4h2.2Zm-3.1-3.3-.9-2.8a1.9,1.9,0,0,1-.1-.8h-.1c0,.3-.1.5-.1.8l-1,2.8Z" fill="#0072c6" stroke="#0072c6" stroke-miterlimit="10" stroke-width="0.05"/><path d="M415,107.3v2.9h-1.9v-8.4h3c2.1,0,3.2.9,3.2,2.7a2.7,2.7,0,0,1-.9,2.1,3.7,3.7,0,0,1-2.5.7Zm0-4v2.6h.8c1,0,1.5-.4,1.5-1.3s-.5-1.3-1.5-1.3Z" fill="#0072c6" stroke="#0072c6" stroke-miterlimit="10" stroke-width="0.05"/><path d="M422.4,110.2h-1.9v-8.4h1.9Z" fill="#0072c6" stroke="#0072c6" stroke-miterlimit="10" stroke-width="0.05"/><path d="M433.3,110.2h-1.8v-.8h-.1a1.9,1.9,0,0,1-1.8,1,2.2,2.2,0,0,1-1.8-.8,3.1,3.1,0,0,1-.7-2.2,3.6,3.6,0,0,1,.7-2.4,2.5,2.5,0,0,1,2-.9,1.7,1.7,0,0,1,1.6.8h.1v-3.6h1.8Zm-1.8-2.9v-.4a1.5,1.5,0,0,0-.3-1,1.2,1.2,0,0,0-1.9.1,2.5,2.5,0,0,0-.3,1.3,2.1,2.1,0,0,0,.3,1.2,1.1,1.1,0,0,0,1.8,0A1.6,1.6,0,0,0,431.5,107.3Z" fill="#0072c6" stroke="#0072c6" stroke-miterlimit="10" stroke-width="0.05"/><path d="M437.7,110.4a2.9,2.9,0,0,1-2.3-.9,2.8,2.8,0,0,1-.9-2.2,3.2,3.2,0,0,1,.9-2.4,4,4,0,0,1,4.8,0,3.4,3.4,0,0,1,.8,2.3,3.2,3.2,0,0,1-.9,2.3A3.2,3.2,0,0,1,437.7,110.4Zm.1-4.9a1.1,1.1,0,0,0-1,.5,1.6,1.6,0,0,0-.4,1.2c0,1.2.5,1.8,1.4,1.8s1.3-.6,1.3-1.8S438.7,105.5,437.8,105.5Z" fill="#0072c6" stroke="#0072c6" stroke-miterlimit="10" stroke-width="0.05"/><path d="M405.8,124.6h-1.9v-5c0-.5.1-1.1.1-1.8h0a5.3,5.3,0,0,1-.3,1.1l-2,5.7h-1.5l-2-5.6a5,5,0,0,1-.3-1.2h0v6.8h-1.7v-8.4H399l1.7,5,.3,1.2h0l.4-1.2,1.7-5h2.7Z" fill="#0072c6" stroke="#0072c6" stroke-miterlimit="10" stroke-width="0.05"/><path d="M408.5,117.7a1.1,1.1,0,0,1-.8-.3,1,1,0,0,1,0-1.4l.8-.2.7.2a1,1,0,0,1-.7,1.7Zm.9,6.9h-1.9v-6h1.9Z" fill="#0072c6" stroke="#0072c6" stroke-miterlimit="10" stroke-width="0.05"/><path d="M415.5,124.4a3,3,0,0,1-1.8.4,3.2,3.2,0,0,1-2.3-.9,2.9,2.9,0,0,1-.8-2.1,3.1,3.1,0,0,1,3.3-3.3,3,3,0,0,1,1.6.3v1.5a2,2,0,0,0-1.3-.4,1.9,1.9,0,0,0-1.3.5,1.7,1.7,0,0,0-.4,1.3,1.6,1.6,0,0,0,.4,1.2,1.7,1.7,0,0,0,1.2.5,2.7,2.7,0,0,0,1.4-.5Z" fill="#0072c6" stroke="#0072c6" stroke-miterlimit="10" stroke-width="0.05"/><path d="M420.6,120.3l-.8-.2a1.1,1.1,0,0,0-.9.5,2.1,2.1,0,0,0-.4,1.2v2.8h-1.8v-6h1.8v1.1h.1a1.6,1.6,0,0,1,1.6-1.2h.4Z" fill="#0072c6" stroke="#0072c6" stroke-miterlimit="10" stroke-width="0.05"/><path d="M424.3,124.8a3.2,3.2,0,0,1-2.4-.9,3.1,3.1,0,0,1-.8-2.2,3.2,3.2,0,0,1,.9-2.4,3.6,3.6,0,0,1,2.4-.8,3.4,3.4,0,0,1,2.3.8,3,3,0,0,1,.9,2.3,3.2,3.2,0,0,1-.9,2.3A3.2,3.2,0,0,1,424.3,124.8Zm0-4.9a1.4,1.4,0,0,0-1,.5,2.1,2.1,0,0,0-.4,1.2c0,1.2.5,1.8,1.4,1.8s1.4-.6,1.4-1.8S425.2,119.9,424.3,119.9Z" fill="#0072c6" stroke="#0072c6" stroke-miterlimit="10" stroke-width="0.05"/><path d="M428.4,124.5V123l.9.4h1.6c.2-.1.3-.2.3-.4a.4.4,0,0,0-.1-.3l-.4-.2-.4-.2h-.5l-.6-.3-.5-.4a.8.8,0,0,1-.2-.5c-.1-.1-.1-.4-.1-.6a1.5,1.5,0,0,1,.2-.9,1.7,1.7,0,0,1,.6-.6l.8-.3h1.8l.8.2v1.5l-.7-.4h-1.7v.3c0,.1,0,.2.1.2s.1.2.3.2l.3.2h.4l.7.3a1,1,0,0,1,.5.4c.2.1.3.3.4.4s.1.4.1.7a1.2,1.2,0,0,1-.3.9.9.9,0,0,1-.6.6,1.9,1.9,0,0,1-.9.4h-1A4.8,4.8,0,0,1,428.4,124.5Z" fill="#0072c6" stroke="#0072c6" stroke-miterlimit="10" stroke-width="0.05"/><path d="M436.9,124.8a3.2,3.2,0,0,1-2.4-.9,3.1,3.1,0,0,1-.8-2.2,3.2,3.2,0,0,1,.9-2.4,3.6,3.6,0,0,1,2.4-.8,3.2,3.2,0,0,1,2.3.8,3,3,0,0,1,.9,2.3,3.2,3.2,0,0,1-.9,2.3A3.2,3.2,0,0,1,436.9,124.8Zm0-4.9a1.4,1.4,0,0,0-1,.5,2.1,2.1,0,0,0-.3,1.2c0,1.2.4,1.8,1.4,1.8s1.3-.6,1.3-1.8S437.8,119.9,436.9,119.9Z" fill="#0072c6" stroke="#0072c6" stroke-miterlimit="10" stroke-width="0.05"/><path d="M445.1,117.2l-.7-.2c-.6,0-.9.3-.9,1v.6h1.4V120h-1.4v4.6h-1.8V120h-1v-1.4h1v-.7a2.2,2.2,0,0,1,.7-1.7,2.4,2.4,0,0,1,1.8-.6h.9Z" fill="#0072c6" stroke="#0072c6" stroke-miterlimit="10" stroke-width="0.05"/><path d="M449.6,124.6a2.9,2.9,0,0,1-1.2.2c-1.3,0-1.9-.7-1.9-2.1V120h-1v-1.4h1v-1.3l1.8-.5v1.8h1.3V120h-1.3v2.4c0,.6.2,1,.7,1l.6-.2Z" fill="#0072c6" stroke="#0072c6" stroke-miterlimit="10" stroke-width="0.05"/><path d="M413.2,138.5a6.6,6.6,0,0,1-3,.7,4.6,4.6,0,0,1-3.2-1.1,4.1,4.1,0,0,1-1.2-3.1,4.3,4.3,0,0,1,1.3-3.3,4.7,4.7,0,0,1,3.4-1.2,5.3,5.3,0,0,1,2.3.4v1.7a5.2,5.2,0,0,0-2.3-.5,2.7,2.7,0,0,0-2,.7,2.8,2.8,0,0,0-.7,2.1,2.7,2.7,0,0,0,.7,2,2.1,2.1,0,0,0,1.8.7l1-.2v-1.6h-1.6v-1.6h3.5Z" fill="#0072c6" stroke="#0072c6" stroke-miterlimit="10" stroke-width="0.05"/><path d="M418.6,134.7l-.8-.2a1.1,1.1,0,0,0-.9.5,1.6,1.6,0,0,0-.4,1.2V139h-1.8v-6h1.8v1.1h.1a1.6,1.6,0,0,1,1.5-1.2h.5Z" fill="#0072c6" stroke="#0072c6" stroke-miterlimit="10" stroke-width="0.05"/><path d="M424.5,139h-1.8v-.8h0a2.1,2.1,0,0,1-1.8,1,2,2,0,0,1-1.4-.5,1.9,1.9,0,0,1-.5-1.3q0-1.8,2.1-2.1l1.6-.2c0-.6-.3-1-1.1-1a3.7,3.7,0,0,0-2,.7v-1.4l1.1-.4h1.2c1.7,0,2.6.8,2.6,2.5Zm-1.8-2.4v-.4h-1.1c-.6.1-.9.4-.9.8a1.1,1.1,0,0,0,.2.6l.6.2a1.3,1.3,0,0,0,.9-.4A1.2,1.2,0,0,0,422.7,136.6Z" fill="#0072c6" stroke="#0072c6" stroke-miterlimit="10" stroke-width="0.05"/><path d="M427.8,138.3h0v3.5h-1.9V133h1.9v.9h0a2.1,2.1,0,0,1,1.9-1,2.2,2.2,0,0,1,1.8.8,3.4,3.4,0,0,1,.7,2.2,3.6,3.6,0,0,1-.8,2.4,2.4,2.4,0,0,1-2,.9A1.8,1.8,0,0,1,427.8,138.3Zm-.1-2.4v.5a1.3,1.3,0,0,0,.4,1,1.1,1.1,0,0,0,1.8-.1,2.9,2.9,0,0,0,.4-1.4c0-1.1-.5-1.6-1.3-1.6a1,1,0,0,0-.9.4A2.1,2.1,0,0,0,427.7,135.9Z" fill="#0072c6" stroke="#0072c6" stroke-miterlimit="10" stroke-width="0.05"/><path d="M439.1,139h-1.8v-3.4c0-.9-.3-1.3-1-1.3a.9.9,0,0,0-.8.4,1.2,1.2,0,0,0-.3.9V139h-1.8v-8.9h1.8v3.8h0a2.2,2.2,0,0,1,1.9-1c1.3,0,2,.8,2,2.4Z" fill="#0072c6" stroke="#0072c6" stroke-miterlimit="10" stroke-width="0.05"/><path d="M192.5,9.6h-1.1l-.9-2.4H187l-.9,2.4H185l3.3-8.4h1Zm-2.3-3.3-1.3-3.6a.7.7,0,0,1-.1-.5h-.1a4.3,4.3,0,0,1-.1.5l-1.3,3.6Z" fill="#1e1e1e" stroke="#1e1e1e" stroke-miterlimit="10" stroke-width="0.06"/><path d="M198.6,9.6h-.9v-1h0a2.5,2.5,0,0,1-2.1,1.1,2.2,2.2,0,0,1-1.8-.8,3.1,3.1,0,0,1-.7-2.2,3.6,3.6,0,0,1,.8-2.4,2.4,2.4,0,0,1,2-.9,2.1,2.1,0,0,1,1.8,1h0V.7h.9Zm-.9-2.7V6a2.1,2.1,0,0,0-.5-1.3,1.7,1.7,0,0,0-1.2-.5,1.7,1.7,0,0,0-1.4.7,3,3,0,0,0-.5,1.8,2.5,2.5,0,0,0,.5,1.6,1.5,1.5,0,0,0,1.3.6,1.8,1.8,0,0,0,1.3-.6A2.4,2.4,0,0,0,197.7,6.9Z" fill="#1e1e1e" stroke="#1e1e1e" stroke-miterlimit="10" stroke-width="0.06"/><path d="M205.6,12.3h-1V8.5h0a2.1,2.1,0,0,1-2,1.2,2.2,2.2,0,0,1-1.8-.8,3.1,3.1,0,0,1-.7-2.2,3.6,3.6,0,0,1,.7-2.4,2.5,2.5,0,0,1,2-.9,1.9,1.9,0,0,1,1.8,1h0V3.6h1Zm-1-5.4V6a2,2,0,0,0-.4-1.3,2.1,2.1,0,0,0-1.3-.5,1.7,1.7,0,0,0-1.3.7,2.4,2.4,0,0,0-.5,1.8,2.5,2.5,0,0,0,.4,1.6,1.8,1.8,0,0,0,1.3.6,1.5,1.5,0,0,0,1.3-.6A1.7,1.7,0,0,0,204.6,6.9Z" fill="#1e1e1e" stroke="#1e1e1e" stroke-miterlimit="10" stroke-width="0.06"/><path d="M212.3,9.6h-1v-1h0a2,2,0,0,1-1.8,1.1c-1.5,0-2.2-.8-2.2-2.5V3.6h1V7c0,1.3.5,1.9,1.4,1.9a1.7,1.7,0,0,0,1.2-.5,2.1,2.1,0,0,0,.4-1.4V3.6h1Z" fill="#1e1e1e" stroke="#1e1e1e" stroke-miterlimit="10" stroke-width="0.06"/><path d="M214.6,2h-.4a.8.8,0,0,1-.2-.5.5.5,0,0,1,.2-.4l.4-.2.5.2a.5.5,0,0,1,.2.4c0,.2-.1.3-.2.5Zm.5,7.6h-.9v-6h.9Z" fill="#1e1e1e" stroke="#1e1e1e" stroke-miterlimit="10" stroke-width="0.06"/><path d="M220.1,4.5l-.7-.2a1.4,1.4,0,0,0-1.1.6,3.4,3.4,0,0,0-.4,1.6V9.6H217v-6h.9V4.8h0a3.6,3.6,0,0,1,.7-1,1.6,1.6,0,0,1,.9-.3h.6Z" fill="#1e1e1e" stroke="#1e1e1e" stroke-miterlimit="10" stroke-width="0.06"/><path d="M221.5,2h-.4a.8.8,0,0,1-.2-.5.5.5,0,0,1,.2-.4l.4-.2.5.2a.5.5,0,0,1,.2.4c0,.2-.1.3-.2.5Zm.5,7.6h-1v-6h1Z" fill="#1e1e1e" stroke="#1e1e1e" stroke-miterlimit="10" stroke-width="0.06"/><path d="M227,4.5l-.7-.2a1.3,1.3,0,0,0-1.1.6,2.5,2.5,0,0,0-.4,1.6V9.6h-.9v-6h.9V4.8h0a3.6,3.6,0,0,1,.7-1,1.4,1.4,0,0,1,.9-.3h.6Z" fill="#1e1e1e" stroke="#1e1e1e" stroke-miterlimit="10" stroke-width="0.06"/><path d="M233.9,9.5l-.9.2c-1,0-1.6-.6-1.6-1.8V4.4h-1V3.6h1V2.1l1-.3V3.6h1.5v.8h-1.5V7.8a1.3,1.3,0,0,0,.2.8.8.8,0,0,0,.7.3l.6-.2Z" fill="#1e1e1e" stroke="#1e1e1e" stroke-miterlimit="10" stroke-width="0.06"/><path d="M237.6,9.7a2.9,2.9,0,0,1-2.1-.8,3,3,0,0,1-.8-2.3,3.2,3.2,0,0,1,.8-2.3,2.9,2.9,0,0,1,2.2-.9,2.6,2.6,0,0,1,2.1.9,3.1,3.1,0,0,1,.8,2.2,3.2,3.2,0,0,1-.8,2.3A2.9,2.9,0,0,1,237.6,9.7Zm.1-5.5a1.7,1.7,0,0,0-1.5.7,2.3,2.3,0,0,0-.5,1.7,2.3,2.3,0,0,0,.5,1.7,2,2,0,0,0,1.5.6,1.7,1.7,0,0,0,1.4-.6,2.9,2.9,0,0,0,.5-1.7,3.2,3.2,0,0,0-.5-1.8A1.7,1.7,0,0,0,237.7,4.2Z" fill="#1e1e1e" stroke="#1e1e1e" stroke-miterlimit="10" stroke-width="0.06"/><path d="M247,9.6h-1.3L243,6.7h0V9.6h-1V.7h1V6.3h0l2.5-2.7h1.3L244,6.5Z" fill="#1e1e1e" stroke="#1e1e1e" stroke-miterlimit="10" stroke-width="0.06"/><path d="M252.7,6.8h-4.2a2.5,2.5,0,0,0,.5,1.6,2.2,2.2,0,0,0,1.4.5,2.8,2.8,0,0,0,1.9-.7v.9a3.3,3.3,0,0,1-2.1.6,2.8,2.8,0,0,1-2-.8,3.3,3.3,0,0,1-.7-2.3,3.1,3.1,0,0,1,.8-2.3,2.5,2.5,0,0,1,1.9-.9,2.6,2.6,0,0,1,1.9.8,3.3,3.3,0,0,1,.6,2.1Zm-1-.8a1.7,1.7,0,0,0-.4-1.3,1.3,1.3,0,0,0-1.1-.5,1.6,1.6,0,0,0-1.1.5,2.6,2.6,0,0,0-.6,1.3Z" fill="#1e1e1e" stroke="#1e1e1e" stroke-miterlimit="10" stroke-width="0.06"/><path d="M259.1,9.6h-1V6.1c0-1.2-.5-1.9-1.4-1.9a1.4,1.4,0,0,0-1.2.6,1.9,1.9,0,0,0-.5,1.3V9.6h-.9v-6h.9v1h.1A2.1,2.1,0,0,1,257,3.4a1.6,1.6,0,0,1,1.5.7,2.4,2.4,0,0,1,.6,1.8Z" fill="#1e1e1e" stroke="#1e1e1e" stroke-miterlimit="10" stroke-width="0.06"/><path d="M210.5,29.9H208v7.6h-.9V29.9h-2.5v-.8h5.9Z" fill="#1e1e1e" stroke="#1e1e1e" stroke-miterlimit="10" stroke-width="0.06"/><path d="M212.9,37.6a2.9,2.9,0,0,1-2.1-.8,3.4,3.4,0,0,1-.8-2.3,3.2,3.2,0,0,1,.8-2.3,3,3,0,0,1,2.3-.9,2.9,2.9,0,0,1,2.1.8,3.5,3.5,0,0,1,.7,2.3,3.2,3.2,0,0,1-.8,2.3A2.8,2.8,0,0,1,212.9,37.6Zm.1-5.5a1.8,1.8,0,0,0-1.5.7,3.1,3.1,0,0,0,0,3.4,2,2,0,0,0,1.5.6,1.7,1.7,0,0,0,1.4-.6,2.3,2.3,0,0,0,.5-1.7,2.4,2.4,0,0,0-.5-1.8A1.7,1.7,0,0,0,213,32.1Z" fill="#1e1e1e" stroke="#1e1e1e" stroke-miterlimit="10" stroke-width="0.06"/><path d="M222.4,37.5H221l-2.6-2.9h-.1v2.9h-.9V28.6h.9v5.6h.1l2.5-2.7h1.2l-2.7,2.9Z" fill="#1e1e1e" stroke="#1e1e1e" stroke-miterlimit="10" stroke-width="0.06"/><path d="M228.1,34.7h-4.2a2.1,2.1,0,0,0,.5,1.5,1.7,1.7,0,0,0,1.4.6,2.8,2.8,0,0,0,1.9-.7V37a3.3,3.3,0,0,1-2.1.6,2.6,2.6,0,0,1-2-.8,3.3,3.3,0,0,1-.7-2.3,3,3,0,0,1,.8-2.3,2.3,2.3,0,0,1,1.9-.9,2.6,2.6,0,0,1,1.9.8,3.3,3.3,0,0,1,.6,2.1Zm-1-.8a1.7,1.7,0,0,0-.4-1.3,1.4,1.4,0,0,0-1.1-.5,1.9,1.9,0,0,0-1.7,1.8Z" fill="#1e1e1e" stroke="#1e1e1e" stroke-miterlimit="10" stroke-width="0.06"/><path d="M234.5,37.5h-1V34c0-1.2-.5-1.9-1.4-1.9a1.4,1.4,0,0,0-1.2.6,1.9,1.9,0,0,0-.5,1.3v3.5h-.9v-6h.9v1h.1a2.1,2.1,0,0,1,1.9-1.2,1.6,1.6,0,0,1,1.5.7,2.4,2.4,0,0,1,.6,1.8Z" fill="#1e1e1e" stroke="#1e1e1e" stroke-miterlimit="10" stroke-width="0.06"/><path d="M244.5,37.5h-.9V36.4h-.1a2.1,2.1,0,0,1-2,1.2,2.2,2.2,0,0,1-1.8-.8,3.1,3.1,0,0,1-.7-2.2,3.6,3.6,0,0,1,.8-2.4,2.3,2.3,0,0,1,1.9-.9,1.7,1.7,0,0,1,1.8,1h.1V28.6h.9Zm-.9-2.8v-.8a2.1,2.1,0,0,0-.5-1.3,1.7,1.7,0,0,0-1.2-.5,1.5,1.5,0,0,0-1.4.7,3,3,0,0,0-.5,1.8,2.2,2.2,0,0,0,.5,1.6,1.5,1.5,0,0,0,1.3.6,1.8,1.8,0,0,0,1.3-.6A2.5,2.5,0,0,0,243.6,34.7Z" fill="#1e1e1e" stroke="#1e1e1e" stroke-miterlimit="10" stroke-width="0.06"/><path d="M251.2,34.7H247a2.1,2.1,0,0,0,.5,1.5,1.8,1.8,0,0,0,1.4.6,2.8,2.8,0,0,0,1.9-.7V37a3.3,3.3,0,0,1-2.1.6,2.8,2.8,0,0,1-2-.8,3.3,3.3,0,0,1-.7-2.3,3.4,3.4,0,0,1,.8-2.3,2.5,2.5,0,0,1,2-.9,2.3,2.3,0,0,1,1.8.8,3.3,3.3,0,0,1,.6,2.1Zm-1-.8a1.7,1.7,0,0,0-.4-1.3,1.3,1.3,0,0,0-1.1-.5,1.6,1.6,0,0,0-1.1.5,2.6,2.6,0,0,0-.6,1.3Z" fill="#1e1e1e" stroke="#1e1e1e" stroke-miterlimit="10" stroke-width="0.06"/><path d="M260.1,37.5h-.9v-1h-.1a2.1,2.1,0,0,1-3.2.6,1.3,1.3,0,0,1-.5-1.2c0-1.2.6-1.8,2-2l1.8-.2c0-1.1-.5-1.6-1.3-1.6a2.7,2.7,0,0,0-1.9.8v-1a3.4,3.4,0,0,1,2-.6c1.4,0,2.1.8,2.1,2.3Zm-.9-3.1-1.5.2a2.3,2.3,0,0,0-1,.4c-.2.1-.3.4-.3.8a.9.9,0,0,0,.3.7,1.1,1.1,0,0,0,.8.3,1.7,1.7,0,0,0,1.2-.5,1.9,1.9,0,0,0,.5-1.3Z" fill="#1e1e1e" stroke="#1e1e1e" stroke-miterlimit="10" stroke-width="0.06"/><path d="M265.9,37.2a2.7,2.7,0,0,1-1.6.4,3.2,3.2,0,0,1-2.1-.8,3.3,3.3,0,0,1-.8-2.2,3.2,3.2,0,0,1,.9-2.4,3,3,0,0,1,2.3-.9,3.2,3.2,0,0,1,1.4.3v1a3,3,0,0,0-1.5-.5,1.8,1.8,0,0,0-1.5.7,2.7,2.7,0,0,0,0,3.4,1.9,1.9,0,0,0,1.5.6,2.4,2.4,0,0,0,1.4-.5Z" fill="#1e1e1e" stroke="#1e1e1e" stroke-miterlimit="10" stroke-width="0.06"/><path d="M272.1,34.7h-4.2a1.8,1.8,0,0,0,.6,1.5,1.7,1.7,0,0,0,1.4.6,2.6,2.6,0,0,0,1.8-.7V37a3.3,3.3,0,0,1-2.1.6,2.8,2.8,0,0,1-2-.8,3.9,3.9,0,0,1-.7-2.3,3.4,3.4,0,0,1,.8-2.3,2.5,2.5,0,0,1,2-.9,2.2,2.2,0,0,1,1.8.8,3.3,3.3,0,0,1,.6,2.1Zm-.9-.8a2.2,2.2,0,0,0-.4-1.3,1.6,1.6,0,0,0-1.1-.5,1.7,1.7,0,0,0-1.2.5,2.6,2.6,0,0,0-.6,1.3Z" fill="#1e1e1e" stroke="#1e1e1e" stroke-miterlimit="10" stroke-width="0.06"/><path d="M273.2,37.2v-1a2.7,2.7,0,0,0,1.7.6c.8,0,1.3-.3,1.3-.9s-.1-.2-.1-.4l-.3-.3-.5-.2-.5-.2-.7-.3a1,1,0,0,1-.5-.4l-.3-.4a1.3,1.3,0,0,1-.1-.6,1.1,1.1,0,0,1,.2-.8l.5-.5.7-.4h.9a3.2,3.2,0,0,1,1.4.3v1a3,3,0,0,0-1.6-.5h-.4l-.4.2-.3.2v.8l.3.2.4.3.5.2.7.3.6.4.3.4a1.5,1.5,0,0,1,.1.7.8.8,0,0,1-.2.7l-.5.6-.7.3h-.9A2.7,2.7,0,0,1,273.2,37.2Z" fill="#1e1e1e" stroke="#1e1e1e" stroke-miterlimit="10" stroke-width="0.06"/><path d="M278.2,37.2v-1a2.7,2.7,0,0,0,1.7.6c.9,0,1.3-.3,1.3-.9s-.1-.2-.1-.4l-.3-.3-.5-.2-.5-.2-.7-.3a1,1,0,0,1-.5-.4l-.3-.4a1.3,1.3,0,0,1-.1-.6,1.9,1.9,0,0,1,.2-.8l.5-.5.7-.4h.9a3.2,3.2,0,0,1,1.4.3v1a3,3,0,0,0-1.5-.5h-.5l-.4.2a.2.2,0,0,0-.2.2c-.1.1-.1.2-.1.4a.6.6,0,0,0,.1.4.2.2,0,0,0,.2.2l.4.3.5.2.8.3a1,1,0,0,1,.5.4.5.5,0,0,1,.3.4,1.3,1.3,0,0,1,0,1.4l-.6.6-.7.3h-.9A2.7,2.7,0,0,1,278.2,37.2Z" fill="#1e1e1e" stroke="#1e1e1e" stroke-miterlimit="10" stroke-width="0.06"/><path d="M286.1,37.6a2.9,2.9,0,0,1-2.1-.8,3,3,0,0,1-.8-2.3,2.8,2.8,0,0,1,.8-2.3,2.8,2.8,0,0,1,2.2-.9,2.9,2.9,0,0,1,2.1.8,3.6,3.6,0,0,1,.8,2.3,3.2,3.2,0,0,1-.8,2.3A2.9,2.9,0,0,1,286.1,37.6Zm0-5.5a1.5,1.5,0,0,0-1.4.7,2.7,2.7,0,0,0,0,3.4,1.8,1.8,0,0,0,1.4.6,1.9,1.9,0,0,0,1.5-.6,2.9,2.9,0,0,0,.5-1.7,3,3,0,0,0-.5-1.8A1.9,1.9,0,0,0,286.1,32.1Z" fill="#1e1e1e" stroke="#1e1e1e" stroke-miterlimit="10" stroke-width="0.06"/><path d="M192,134.4h-1.1l-1.5-2.3-.3-.6-.4-.4-.4-.2H187v3.5h-1V126h2.5l1,.2.8.4a2,2,0,0,1,.6.7,3,3,0,0,1,.2,1,2.4,2.4,0,0,1-.2.8l-.3.6-.6.5c-.3.1-.5.3-.8.3h0l.4.2.3.2.2.4.3.5Zm-5-7.5V130h2a2.9,2.9,0,0,0,.9-.9,1.5,1.5,0,0,0,.1-.7,1.2,1.2,0,0,0-.4-1,1.7,1.7,0,0,0-1.3-.4Z" fill="#1e1e1e" stroke="#1e1e1e" stroke-miterlimit="10" stroke-width="0.06"/><path d="M197.5,131.7h-4.3a2.3,2.3,0,0,0,.6,1.5,1.7,1.7,0,0,0,1.4.6,3.4,3.4,0,0,0,1.9-.7v.9a3.7,3.7,0,0,1-2.1.6,2.6,2.6,0,0,1-2-.8,3.5,3.5,0,0,1-.7-2.3,3.3,3.3,0,0,1,.7-2.3,2.7,2.7,0,0,1,2-.9,1.9,1.9,0,0,1,1.8.8,2.8,2.8,0,0,1,.7,2.1Zm-1-.8a1.7,1.7,0,0,0-.4-1.3,1.4,1.4,0,0,0-1.1-.5,1.8,1.8,0,0,0-1.2.5,1.7,1.7,0,0,0-.5,1.3Z" fill="#1e1e1e" stroke="#1e1e1e" stroke-miterlimit="10" stroke-width="0.06"/><path d="M198.5,134.2v-1a3,3,0,0,0,1.8.6q1.2,0,1.2-.9a.6.6,0,0,0-.1-.4l-.3-.3-.4-.2-.5-.2-.7-.3-.5-.4a.5.5,0,0,1-.3-.5c-.1-.1-.1-.3-.1-.6a1.5,1.5,0,0,1,.1-.7l.6-.6.7-.3h.8a2.9,2.9,0,0,1,1.4.3v.9a2.4,2.4,0,0,0-1.5-.4h-.8l-.3.3v.3c0,.2.1.3.1.4l.3.3a.5.5,0,0,0,.4.2l.5.3.7.3.6.3.3.5a1.3,1.3,0,0,1,.1.6,1.1,1.1,0,0,1-.2.8l-.5.5a2,2,0,0,1-.8.4h-.9A2.9,2.9,0,0,1,198.5,134.2Z" fill="#1e1e1e" stroke="#1e1e1e" stroke-miterlimit="10" stroke-width="0.06"/><path d="M204.9,133.6h0v3.6H204v-8.8h.9v1.1h0a2.4,2.4,0,0,1,2.1-1.2,2.2,2.2,0,0,1,1.8.8,3.1,3.1,0,0,1,.7,2.2,3.6,3.6,0,0,1-.8,2.4,2.3,2.3,0,0,1-2,.9A2.4,2.4,0,0,1,204.9,133.6Zm0-2.5v.9a1.7,1.7,0,0,0,.5,1.2,1.4,1.4,0,0,0,1.2.6,1.7,1.7,0,0,0,1.4-.7,3.6,3.6,0,0,0,.5-1.9,2.3,2.3,0,0,0-.5-1.5,1.4,1.4,0,0,0-1.2-.6,1.8,1.8,0,0,0-1.4.6A2.4,2.4,0,0,0,204.9,131.1Z" fill="#1e1e1e" stroke="#1e1e1e" stroke-miterlimit="10" stroke-width="0.06"/><path d="M213.5,134.6a2.6,2.6,0,0,1-2.1-.9,2.7,2.7,0,0,1-.8-2.2,3.2,3.2,0,0,1,.8-2.4,3.1,3.1,0,0,1,2.2-.8,2.9,2.9,0,0,1,2.1.8,3.7,3.7,0,0,1,0,4.6A2.9,2.9,0,0,1,213.5,134.6Zm.1-5.5a1.9,1.9,0,0,0-1.5.6,2.4,2.4,0,0,0-.5,1.8,2.1,2.1,0,0,0,.5,1.6,1.9,1.9,0,0,0,2.9.1,3,3,0,0,0,.5-1.8,2.9,2.9,0,0,0-.5-1.7A1.7,1.7,0,0,0,213.6,129.1Z" fill="#1e1e1e" stroke="#1e1e1e" stroke-miterlimit="10" stroke-width="0.06"/><path d="M224.9,134.4l-.9.2c-1,0-1.6-.6-1.6-1.8v-3.5h-3.5l-.2.2a.4.4,0,0,0-.1.3c0,.2,0,.3.1.4l.2.3.4.2.6.3.7.3.5.3.4.5c0,.2.1.4.1.6a1.9,1.9,0,0,1-.2.8,1.2,1.2,0,0,1-.5.5l-.8.4h-.9a2.9,2.9,0,0,1-1.6-.4v-1a2.7,2.7,0,0,0,1.7.6c.9,0,1.3-.3,1.3-.9a.6.6,0,0,0-.1-.4l-.3-.3-.4-.2-.6-.2-.7-.3-.5-.4-.3-.5a3.5,3.5,0,0,1-.1-.6,1.4,1.4,0,0,1,.2-.7,1.2,1.2,0,0,1,.5-.5l.6-.3h3.5V127l1-.3v1.7h1.5v.9h-1.5v3.3a2,2,0,0,0,.2.9.8.8,0,0,0,.7.3l.6-.2Z" fill="#1e1e1e" stroke="#1e1e1e" stroke-miterlimit="10" stroke-width="0.06"/><path d="M230.5,134.4h-1v-.9h0a2.1,2.1,0,0,1-1.9,1.1,2.2,2.2,0,0,1-1.4-.5,1.7,1.7,0,0,1-.5-1.3c0-1.1.7-1.7,2-1.9l1.8-.3q0-1.5-1.2-1.5a2.9,2.9,0,0,0-2,.7v-.9a3.6,3.6,0,0,1,2-.6,1.9,1.9,0,0,1,2.2,2.2Zm-1-3-1.4.2-1.1.3a1.2,1.2,0,0,0-.3.9.9.9,0,0,0,.3.7,1.2,1.2,0,0,0,.9.3,1.6,1.6,0,0,0,1.1-.5,2.1,2.1,0,0,0,.5-1.3Z" fill="#1e1e1e" stroke="#1e1e1e" stroke-miterlimit="10" stroke-width="0.06"/><path d="M241.9,134.4h-1v-3.8h-4.3v3.8h-1V126h1v3.7h4.3V126h1Z" fill="#1e1e1e" stroke="#1e1e1e" stroke-miterlimit="10" stroke-width="0.06"/><path d="M249.1,126.9h-2.5v7.5h-.9v-7.5h-2.5V126h5.9Z" fill="#1e1e1e" stroke="#1e1e1e" stroke-miterlimit="10" stroke-width="0.06"/><path d="M255.6,126.9h-2.5v7.5h-1v-7.5h-2.4V126h5.9Z" fill="#1e1e1e" stroke="#1e1e1e" stroke-miterlimit="10" stroke-width="0.06"/><path d="M257.8,131.3v3.1h-1V126h2.3a2.8,2.8,0,0,1,2.1.7,2.2,2.2,0,0,1,.8,1.8,2.5,2.5,0,0,1-.9,2,2.9,2.9,0,0,1-2.2.8Zm0-4.4v3.5h1a2.5,2.5,0,0,0,1.6-.5,1.5,1.5,0,0,0,.5-1.3c0-1.1-.6-1.7-1.9-1.7Z" fill="#1e1e1e" stroke="#1e1e1e" stroke-miterlimit="10" stroke-width="0.06"/></svg>