<svg xmlns="http://www.w3.org/2000/svg" xmlns:xlink="http://www.w3.org/1999/xlink" viewBox="0 0 492.8 180.4"><defs><symbol id="a" viewBox="0 0 20 20"><circle cx="10" cy="10" r="10" fill="#505050"/><path d="M12,14V8.6h1.2V7.4H12V5.6H10.6V7.4H6.8V8.6A13.1,13.1,0,0,1,7.9,9.8l1,1.4.9,1.4a10,10,0,0,1,.8,1.4ZM10.7,8.6v3.5l-1.3-2L8.2,8.6Z" fill="#fff"/></symbol><symbol id="b" viewBox="0 0 20 20"><circle cx="10" cy="10" r="10" fill="#505050"/><path d="M7.4,5.9V7.2a2.6,2.6,0,0,1,1.8-.7,2.3,2.3,0,0,1,1.4.4,1.2,1.2,0,0,1,.5,1c0,.9-.7,1.4-2.2,1.4H8.2v1.1h.7c1.3,0,1.9.5,1.9,1.4S10.3,13,9.3,13a2.3,2.3,0,0,1-1.6-.6v1.2a3.5,3.5,0,0,0,2,.5,3.5,3.5,0,0,0,1.8-.5,2.1,2.1,0,0,0-1-3.6h0a2.5,2.5,0,0,0,1.4-.6,2,2,0,0,0,.6-1.5,2.3,2.3,0,0,0-.9-1.8,3.4,3.4,0,0,0-2.2-.7A3.5,3.5,0,0,0,7.4,5.9Z" fill="#fff"/></symbol><symbol id="c" viewBox="0 0 20 20"><circle cx="10" cy="10" r="10" fill="#505050"/><path d="M11.2,14.2V5.6H9.8v6.9L9,12l-1-.3v1.2l.7.2.6.3.6.3.7.5Z" fill="#fff"/></symbol><symbol id="d" viewBox="0 0 20 20"><circle cx="10" cy="10" r="10" fill="#505050"/><path d="M12.5,5.6H7.2v.6c0,.3.1.5.1.8l.3.7.5.5.5.6.6.5.6.4.5.5.4.4.2.5a1.3,1.3,0,0,1,.1.6,1.3,1.3,0,0,1-.1.6l-.3.4-.4.2H9.6l-1-.2a3.9,3.9,0,0,1-1-.8v1.3a1,1,0,0,0,.5.4l.6.2.5.2h.7l1-.2.8-.4.5-.7a4.4,4.4,0,0,0,.2-1c0-.4-.1-.7-.1-1l-.4-.7-.6-.7-.7-.6-.7-.6-.6-.5-.4-.5a.8.8,0,0,1-.2-.5h3.8Z" fill="#fff"/></symbol><symbol id="e" viewBox="0 0 20 20"><circle cx="10" cy="10" r="10" fill="#505050"/><path d="M7.6,5.8V7.1a2.7,2.7,0,0,1,1.7-.6,1.8,1.8,0,0,1,1.3.5,1,1,0,0,1,.5,1.1,1,1,0,0,1-.5,1.1,2,2,0,0,1-1.5.4H7.7L8,14h4.2V12.8h-3L9,10.7h.8a2.6,2.6,0,0,0,2-.7,2.4,2.4,0,0,0,.7-1.8,2.8,2.8,0,0,0-.8-2,3.4,3.4,0,0,0-2.3-.8A3.7,3.7,0,0,0,7.6,5.8Z" fill="#fff"/></symbol></defs><title>OJ104329345</title><rect y="0.2" width="492.8" height="180.12" fill="#fff"/><rect y="0.5" width="105" height="155" fill="#ebebeb"/><rect x="369.7" y="60" width="105" height="95" fill="#0072c6"/><rect x="369.7" width="105" height="55" fill="#008575"/><line x1="104.6" y1="15" x2="364.2" y2="15" fill="none" stroke="#000" stroke-miterlimit="10"/><polygon points="363.1 18.7 369.6 15 363.1 11.3 363.1 18.7"/><line x1="110" y1="44.9" x2="369.5" y2="44.9" fill="none" stroke="#000" stroke-miterlimit="10"/><polygon points="111.1 48.6 104.6 44.9 111.1 41.1 111.1 48.6"/><line x1="104.6" y1="85.5" x2="364.2" y2="85.5" fill="none" stroke="#000" stroke-miterlimit="10"/><polygon points="363.1 89.2 369.6 85.5 363.1 81.7 363.1 89.2"/><line x1="110" y1="136.1" x2="369.5" y2="136.1" fill="none" stroke="#000" stroke-miterlimit="10"/><polygon points="111.1 139.8 104.6 136.1 111.1 132.4 111.1 139.8"/><path d="M50.5,155.2v7.3c0,4,4.5,7.3,10,7.3l419.1.7a9.9,9.9,0,0,0,10-10V30.3a2.6,2.6,0,0,0-2.8-2.5H480" transform="translate(0 0.2)" fill="none" stroke="#000" stroke-miterlimit="10"/><polygon points="481.1 24.3 474.6 28 481.1 31.7 481.1 24.3"/><path d="M80.2,38.1A34.6,34.6,0,0,0,52.5,24.4a35.7,35.7,0,0,0-21.3,7.2A35,35,0,0,0,52.5,94.3a35.5,35.5,0,0,0,21.3-7.2,35,35,0,0,0,6.6-48.9Zm1.7,29.2-5.3-4.2a7,7,0,0,0-.8-6.4,6.5,6.5,0,0,0-8.5-1.5c-3.1-2.8-6.4-5.9-10-9.5,10.7-5.9,18.6-5.1,19.1-5.1l.3.4A30.6,30.6,0,0,1,81.9,67.3ZM62.7,75.5a6.6,6.6,0,0,0-1.1-2.4,6,6,0,0,0-8-1.4,57,57,0,0,1-8.1-5.4l-.7-.6a9.4,9.4,0,0,0-1.4-9c0-.1-.1-.1-.1-.2s1.2-1.3,1.9-1.9a49.9,49.9,0,0,1,8-6.4h0c3.7,3.5,7.7,6.8,11.5,9.8a6.5,6.5,0,0,0,9.8,8l.4-.4,6.2,4.2a32.5,32.5,0,0,1-3.4,6.7A33,33,0,0,1,62.7,75.5Zm9.4-39.3a32.6,32.6,0,0,0-20.3,3.7c-2.8-2.9-5.7-6.1-8.6-9.4A30.1,30.1,0,0,1,72.1,36.2ZM34,35.3a33.6,33.6,0,0,1,5.1-3.2,63.6,63.6,0,0,0,8.2,10.4,53,53,0,0,0-8.4,7.3l-2.8,3.3a9.4,9.4,0,0,0-4.3,1,25.2,25.2,0,0,1-3.3-13.4A28.1,28.1,0,0,1,34,35.3ZM24.9,46.5A22.1,22.1,0,0,0,28,58a9.3,9.3,0,0,0,.8,10h0a49.3,49.3,0,0,0-1.3,8.7A30.3,30.3,0,0,1,24.9,46.5ZM52.5,89.8A29.5,29.5,0,0,1,33,82.7a42,42,0,0,1,1.5-11.2,9.4,9.4,0,0,0,6.9-1.6l.8.6A48.3,48.3,0,0,0,50.8,76,6.1,6.1,0,0,0,62,80a58.1,58.1,0,0,0,11.7,1.2A21,21,0,0,1,71,83.6,29.5,29.5,0,0,1,52.5,89.8Z" transform="translate(0 0.2)"/><use width="20" height="20" transform="matrix(1, 0, 0, -1, 158.55, 146.03)" xlink:href="#a"/><use width="20" height="20" transform="matrix(1, 0, 0, -1, 158.55, 97.44)" xlink:href="#b"/><use width="20" height="20" transform="matrix(1, 0, 0, -1, 158.55, 24.44)" xlink:href="#c"/><use width="20" height="20" transform="matrix(1, 0, 0, -1, 158.55, 54.33)" xlink:href="#d"/><polygon points="192.2 106 184.7 111.4 187.5 120.2 196.9 120.2 199.8 111.4 192.2 106" fill="#ebebeb" stroke="#000" stroke-miterlimit="10" stroke-width="0.75"/><path d="M211,116.9h-1l-.9-2.4h-3.6l-.8,2.4h-1.1l3.2-8.4h1Zm-2.3-3.2-1.3-3.6c-.1-.2-.1-.4-.2-.6h0a1.3,1.3,0,0,1-.1.6l-1.3,3.6Z" transform="translate(0 0.2)" fill="#1e1e1e"/><path d="M216.1,116.6a3.2,3.2,0,0,1-1.6.4,2.4,2.4,0,0,1-2.1-.8,3.5,3.5,0,0,1-.8-2.2,3.3,3.3,0,0,1,.9-2.3,2.4,2.4,0,0,1,2.2-.9,2.2,2.2,0,0,1,1.4.2v1a2.3,2.3,0,0,0-1.4-.4,2,2,0,0,0-1.5.6,2.9,2.9,0,0,0-.1,3.4,1.8,1.8,0,0,0,1.5.6,2,2,0,0,0,1.5-.5Z" transform="translate(0 0.2)" fill="#1e1e1e"/><path d="M221.5,116.6a3.2,3.2,0,0,1-1.6.4,2.4,2.4,0,0,1-2.1-.8,3,3,0,0,1-.8-2.2,3.6,3.6,0,0,1,.9-2.4,2.9,2.9,0,0,1,2.2-.9,3.2,3.2,0,0,1,1.4.3v1a2.3,2.3,0,0,0-1.4-.4,1.7,1.7,0,0,0-1.5.6,2.8,2.8,0,0,0-.6,1.8,2.7,2.7,0,0,0,.6,1.7,1.8,1.8,0,0,0,1.4.6,2.5,2.5,0,0,0,1.5-.5Z" transform="translate(0 0.2)" fill="#1e1e1e"/><path d="M227.7,114.1h-4.3a2.5,2.5,0,0,0,.6,1.6,1.7,1.7,0,0,0,1.4.5,3.3,3.3,0,0,0,1.9-.6v.9a3.3,3.3,0,0,1-2.1.5,2.2,2.2,0,0,1-2-.8,3.9,3.9,0,0,1,0-4.6,2.9,2.9,0,0,1,3.9-.1,3.9,3.9,0,0,1,.6,2.1Zm-1-.8a2.8,2.8,0,0,0-.4-1.3,1.2,1.2,0,0,0-1.1-.4,1.3,1.3,0,0,0-1.2.4,2.6,2.6,0,0,0-.6,1.3Z" transform="translate(0 0.2)" fill="#1e1e1e"/><path d="M228.7,116.7v-1a3.5,3.5,0,0,0,1.8.6q1.2,0,1.2-.9a.6.6,0,0,0-.1-.4l-.3-.3-.4-.2-.5-.2-.7-.4-.5-.3c-.2-.2-.3-.3-.3-.5a.7.7,0,0,1-.1-.6.8.8,0,0,1,.1-.7,3.4,3.4,0,0,1,.6-.6l.7-.3h.9l1.3.2v1a3.3,3.3,0,0,0-1.5-.4h-.8l-.3.3c0,.1-.1.2-.1.4v.3q.1.3.3.3l.4.3.5.2.7.3.6.3.3.5a1.3,1.3,0,0,1,.1.6,1.1,1.1,0,0,1-.2.8l-.5.6-.8.3h-.9A4.7,4.7,0,0,1,228.7,116.7Z" transform="translate(0 0.2)" fill="#1e1e1e"/><path d="M233.8,116.7v-1a3.5,3.5,0,0,0,1.8.6q1.2,0,1.2-.9a.6.6,0,0,0-.1-.4l-.3-.3-.4-.2-.6-.2-.6-.4-.5-.3-.4-.5c0-.2-.1-.4-.1-.6a1.4,1.4,0,0,1,.2-.7,1.7,1.7,0,0,1,.6-.6l.7-.3h.8l1.4.2v1a3.7,3.7,0,0,0-1.5-.4h-.8l-.3.3c0,.1-.1.2-.1.4a.4.4,0,0,0,.1.3q.2.3.3.3l.4.3.5.2.7.3.5.3a1.3,1.3,0,0,1,.5,1.1,1.9,1.9,0,0,1-.2.8l-.5.6-.8.3h-.9A4.7,4.7,0,0,1,233.8,116.7Z" transform="translate(0 0.2)" fill="#1e1e1e"/><path d="M245.4,116.8a1.5,1.5,0,0,1-.9.2c-1.1,0-1.6-.6-1.6-1.7v-3.6h-1v-.8h1v-1.5l1-.3v1.8h1.5v.8h-1.5v3.4a1.1,1.1,0,0,0,.2.8.9.9,0,0,0,.7.3l.6-.2Z" transform="translate(0 0.2)" fill="#1e1e1e"/><path d="M249,117a3,3,0,0,1-2.1-.8,3.4,3.4,0,0,1-.8-2.3,2.9,2.9,0,0,1,.8-2.3,3.1,3.1,0,0,1,2.2-.9,3,3,0,0,1,2.1.8,3.4,3.4,0,0,1,.8,2.3,3.6,3.6,0,0,1-.8,2.3A3.1,3.1,0,0,1,249,117Zm.1-5.5a1.8,1.8,0,0,0-1.5.7,3.1,3.1,0,0,0,0,3.4,2,2,0,0,0,1.5.6,2,2,0,0,0,1.4-.6,2.6,2.6,0,0,0,.5-1.7,2.7,2.7,0,0,0-.5-1.8,1.6,1.6,0,0,0-1.4-.5Z" transform="translate(0 0.2)" fill="#1e1e1e"/><path d="M258.5,116.9h-1.4l-2.6-2.9h0v2.9h-1V108h1v5.6h0l2.5-2.7h1.3l-2.8,2.9Z" transform="translate(0 0.2)" fill="#1e1e1e"/><path d="M264,114.1h-4.2a1.9,1.9,0,0,0,.5,1.6,2.4,2.4,0,0,0,1.4.5,3.1,3.1,0,0,0,1.9-.6v.9a3.1,3.1,0,0,1-2.1.5,2.2,2.2,0,0,1-2-.8,3.8,3.8,0,0,1,.1-4.6,2.3,2.3,0,0,1,2-.8,2.2,2.2,0,0,1,1.8.7,3.2,3.2,0,0,1,.6,2.1Zm-1-.8a2,2,0,0,0-.4-1.3,1.2,1.2,0,0,0-1.1-.4,1.7,1.7,0,0,0-1.2.4,2.1,2.1,0,0,0-.5,1.3Z" transform="translate(0 0.2)" fill="#1e1e1e"/><path d="M270.4,116.9h-1v-3.4c0-1.3-.4-1.9-1.4-1.9a1.2,1.2,0,0,0-1.2.5,1.8,1.8,0,0,0-.4,1.4v3.4h-1v-6h1v1h0a2,2,0,0,1,2-1.1,1.8,1.8,0,0,1,1.5.6,3.7,3.7,0,0,1,.5,1.8Z" transform="translate(0 0.2)" fill="#1e1e1e"/><path d="M210.3,127.1h-2.4v2.3h-.7v-2.3h-2.4v-.8h2.4v-2.4h.7v2.4h2.4Z" transform="translate(0 0.2)" fill="#1e1e1e"/><path d="M219,125.2a.7.7,0,0,0-.7-.2,1.2,1.2,0,0,0-1,.5,2.4,2.4,0,0,0-.4,1.6v3.1h-1v-6h1v1.2h0a2.1,2.1,0,0,1,.6-1,1.4,1.4,0,0,1,.9-.3h.6Z" transform="translate(0 0.2)" fill="#1e1e1e"/><path d="M224.9,127.4h-4.2a1.9,1.9,0,0,0,.5,1.6,2.4,2.4,0,0,0,1.4.5,2.6,2.6,0,0,0,1.9-.7v.9a2.7,2.7,0,0,1-2.1.6,2.2,2.2,0,0,1-2-.8,3.2,3.2,0,0,1-.7-2.3,3,3,0,0,1,.8-2.3,2.5,2.5,0,0,1,3.8-.1,2.7,2.7,0,0,1,.6,2.1Zm-1-.8a2,2,0,0,0-.4-1.3,1.5,1.5,0,0,0-2.2,0,1.8,1.8,0,0,0-.6,1.3Z" transform="translate(0 0.2)" fill="#1e1e1e"/><path d="M231.5,130.2h-1v-1h0a2.4,2.4,0,0,1-3.3.8l-.5-.5a2.9,2.9,0,0,1-.7-2.2,3.6,3.6,0,0,1,.7-2.4,2.6,2.6,0,0,1,2-.8,1.7,1.7,0,0,1,1.8,1h0v-3.8h1Zm-1-2.7v-.9a2,2,0,0,0-.4-1.3,2.1,2.1,0,0,0-1.3-.5,1.7,1.7,0,0,0-1.3.7,2.8,2.8,0,0,0-.6,1.8,3,3,0,0,0,.5,1.6,1.8,1.8,0,0,0,1.3.6,1.6,1.6,0,0,0,1.3-.6,2,2,0,0,0,.6-1.4Z" transform="translate(0 0.2)" fill="#1e1e1e"/><path d="M233.9,122.7l-.5-.2a.8.8,0,0,1-.2-.5l.2-.4.5-.2.4.2.2.4a.8.8,0,0,1-.2.5Zm.4,7.5h-1v-6h1Z" transform="translate(0 0.2)" fill="#1e1e1e"/><path d="M239.3,125.2a.7.7,0,0,0-.7-.2,1.1,1.1,0,0,0-1,.5,2.5,2.5,0,0,0-.5,1.6v3.1h-1v-6h1v1.2h0a2.3,2.3,0,0,1,.7-1,1,1,0,0,1,.9-.3h.6Z" transform="translate(0 0.2)" fill="#1e1e1e"/><path d="M245.1,127.4h-4.2a2.5,2.5,0,0,0,.6,1.6,2,2,0,0,0,1.4.5,2.4,2.4,0,0,0,1.8-.7v.9a2.6,2.6,0,0,1-2.1.6,2.4,2.4,0,0,1-2-.8,4.1,4.1,0,0,1,.1-4.6,2.7,2.7,0,0,1,2-.9,2.3,2.3,0,0,1,1.8.8,3.3,3.3,0,0,1,.7,2.1Zm-1-.8a1.9,1.9,0,0,0-.3-1.3,1.7,1.7,0,0,0-1.2-.5,1.6,1.6,0,0,0-1.1.5,3.1,3.1,0,0,0-.6,1.3Z" transform="translate(0 0.2)" fill="#1e1e1e"/><path d="M250.7,129.9a2.9,2.9,0,0,1-1.6.4,3.2,3.2,0,0,1-2.1-.8,3.5,3.5,0,0,1-.8-2.2,3.6,3.6,0,0,1,.9-2.4,3.2,3.2,0,0,1,2.3-.9,3.1,3.1,0,0,1,1.3.3v1a2.3,2.3,0,0,0-1.4-.4,2,2,0,0,0-1.5.6,2.8,2.8,0,0,0-.6,1.8,2.3,2.3,0,0,0,.6,1.6,1.7,1.7,0,0,0,1.5.6,2.4,2.4,0,0,0,1.4-.5Z" transform="translate(0 0.2)" fill="#1e1e1e"/><path d="M255.2,130.1a1.5,1.5,0,0,1-.9.2c-1.1,0-1.6-.6-1.6-1.7V125h-1v-.8h1v-1.5l1-.3v1.8h1.5v.8h-1.5v3.4a1.1,1.1,0,0,0,.2.8.9.9,0,0,0,.7.3l.6-.2Z" transform="translate(0 0.2)" fill="#1e1e1e"/><path d="M266,126.8c0,2.3-1.1,3.5-3.2,3.5s-3.1-1.1-3-3.4v-5.1h1v5c0,1.8.7,2.6,2.1,2.6s2.1-.8,2.1-2.5v-5.1h1Z" transform="translate(0 0.2)" fill="#1e1e1e"/><path d="M274,130.2h-1.1l-1.4-2.4-.4-.5-.4-.4a.5.5,0,0,0-.4-.2H269v3.6h-1v-8.4h3.5a2,2,0,0,1,.8.4l.6.7a2.8,2.8,0,0,1,0,1.8,1.6,1.6,0,0,1-.4.7l-.5.5-.8.3h0l.4.2.3.3.2.3.3.5Zm-5-7.5v3h2.1a2.9,2.9,0,0,0,.9-.9,1.3,1.3,0,0,0,.1-.6,1.5,1.5,0,0,0-.4-1.1,2,2,0,0,0-1.3-.4Z" transform="translate(0 0.2)" fill="#1e1e1e"/><path d="M279.5,130.2h-4.3v-8.4h1v7.5h3.3Z" transform="translate(0 0.2)" fill="#1e1e1e"/><path d="M190.6,10.2h-1V6.8c0-1.3-.5-1.9-1.4-1.9a1.4,1.4,0,0,0-1.2.6,1.9,1.9,0,0,0-.5,1.3v3.4h-1V1.4h1V5.2h0a2.3,2.3,0,0,1,2-1.1c1.4,0,2,.8,2,2.4Z" transform="translate(0 0.2)" fill="#1e1e1e"/><path d="M195.1,10.2l-.9.2c-1,0-1.6-.6-1.6-1.8V5.1h-1V4.2h1V2.8l1-.3V4.2h1.5v.9h-1.5V8.4a2.9,2.9,0,0,0,.2.9,1.1,1.1,0,0,0,.7.3l.6-.2Z" transform="translate(0 0.2)" fill="#1e1e1e"/><path d="M199.4,10.2l-.9.2q-1.5,0-1.5-1.8V5.1h-1V4.2h1V2.8l1-.3V4.2h1.5v.9H198V8.4a1,1,0,0,0,.2.9.7.7,0,0,0,.6.3l.7-.2Z" transform="translate(0 0.2)" fill="#1e1e1e"/><path d="M201.6,9.4h0V13h-1V4.2h1v1h0A2.4,2.4,0,0,1,203.7,4a2.3,2.3,0,0,1,1.8.8,3,3,0,0,1,.6,2.2,3.4,3.4,0,0,1-.7,2.4,2.2,2.2,0,0,1-2,.9A1.9,1.9,0,0,1,201.6,9.4Zm0-2.5v.9a2.1,2.1,0,0,0,.5,1.3,1.8,1.8,0,0,0,1.2.5,1.7,1.7,0,0,0,1.4-.7,3.2,3.2,0,0,0,.5-1.9,2.1,2.1,0,0,0-.5-1.5,1.4,1.4,0,0,0-1.2-.6,2,2,0,0,0-1.4.6,2.5,2.5,0,0,0-.5,1.5Z" transform="translate(0 0.2)" fill="#1e1e1e"/><path d="M207.3,10V9a2.7,2.7,0,0,0,1.7.6q1.2,0,1.2-.9c.1-.1,0-.3-.1-.4s-.1-.2-.3-.3l-.4-.2-.5-.2-.7-.3-.5-.4a.5.5,0,0,1-.3-.5,1.3,1.3,0,0,1-.1-.6,1,1,0,0,1,.2-.7l.5-.6.7-.3h.9l1.4.3v1a3,3,0,0,0-1.6-.5H209l-.4.2a.2.2,0,0,0-.2.2.6.6,0,0,0-.1.4.6.6,0,0,0,.1.4l.2.3.4.2.6.2.7.3a1,1,0,0,1,.5.4l.4.4a1.7,1.7,0,0,1,.1.7,1.9,1.9,0,0,1-.2.7c-.1.3-.3.4-.5.6l-.8.3h-.9A2.9,2.9,0,0,1,207.3,10Z" transform="translate(0 0.2)" fill="#1e1e1e"/><path d="M212.9,5.4l-.4-.2a.6.6,0,0,1,0-.9h0l.4-.2.5.2a.6.6,0,0,1,0,.9h0Zm0,5a.7.7,0,0,1-.6-.7c0-.2.1-.3.2-.5s.3-.2.4-.1a.6.6,0,0,1,.7.6h0c0,.2-.1.3-.2.5Z" transform="translate(0 0.2)" fill="#1e1e1e"/><path d="M219,1.8l-4,9.8h-.9l4-9.8Z" transform="translate(0 0.2)" fill="#1e1e1e"/><path d="M222.7,1.8l-4,9.8h-.9l4-9.8Z" transform="translate(0 0.2)" fill="#1e1e1e"/><path d="M228.4,4.2l-2.8,7c-.5,1.3-1.2,1.9-2,1.9h-.7v-.8h.6a1.2,1.2,0,0,0,1.1-.9l.5-1.1-2.4-6h1.1l1.6,4.6a1,1,0,0,1,.1.4h0c0-.1.1-.2.2-.4l1.7-4.6Z" transform="translate(0 0.2)" fill="#1e1e1e"/><path d="M231.8,10.4a2.7,2.7,0,0,1-2.1-.9,2.7,2.7,0,0,1-.8-2.2,3.1,3.1,0,0,1,.8-2.4,3.5,3.5,0,0,1,2.2-.8,2.4,2.4,0,0,1,2.1.8,3.4,3.4,0,0,1,.8,2.3,3.6,3.6,0,0,1-.8,2.3A3.1,3.1,0,0,1,231.8,10.4Zm.1-5.5a2,2,0,0,0-1.5.6,2.3,2.3,0,0,0-.5,1.8,2.2,2.2,0,0,0,.5,1.7,2,2,0,0,0,1.5.6,1.6,1.6,0,0,0,1.4-.6,2.6,2.6,0,0,0,.5-1.7,2.6,2.6,0,0,0-.5-1.7A1.7,1.7,0,0,0,231.9,4.9Z" transform="translate(0 0.2)" fill="#1e1e1e"/><path d="M241.1,10.2h-1v-1h0a1.7,1.7,0,0,1-1.8,1.1c-1.4,0-2.2-.8-2.2-2.5V4.2h1V7.7c0,1.2.5,1.9,1.5,1.9a1.4,1.4,0,0,0,1.1-.6,1.5,1.5,0,0,0,.5-1.3V4.2h1Z" transform="translate(0 0.2)" fill="#1e1e1e"/><path d="M246.1,5.2l-.7-.2a1,1,0,0,0-1,.6,3,3,0,0,0-.5,1.6v3h-1v-6h1V5.5h0a2.6,2.6,0,0,1,.7-1,1.1,1.1,0,0,1,.9-.4h.6Z" transform="translate(0 0.2)" fill="#1e1e1e"/><path d="M246.9,10V9a2.8,2.8,0,0,0,1.8.6q1.2,0,1.2-.9a.6.6,0,0,0-.1-.4q0-.2-.3-.3l-.4-.2-.5-.2-.7-.3-.5-.4a.5.5,0,0,1-.3-.5.7.7,0,0,1-.1-.6.7.7,0,0,1,.2-.7l.5-.6.7-.3h.9l1.4.3v1a3,3,0,0,0-1.6-.5h-.5l-.3.2-.3.2v.4c0,.1.1.2.1.4l.3.2.4.3.5.2.7.3.6.4.3.4a1.5,1.5,0,0,1,.1.7,1,1,0,0,1-.2.7l-.5.6-.8.3h-.9A3.2,3.2,0,0,1,246.9,10Z" transform="translate(0 0.2)" fill="#1e1e1e"/><path d="M252.8,2.7l-.5-.2c-.1-.1-.2-.2-.1-.4s0-.3.1-.5h.9c.1.2.2.3.2.5a.5.5,0,0,1-.2.4Zm.4,7.5h-1v-6h1Z" transform="translate(0 0.2)" fill="#1e1e1e"/><path d="M257.9,10.2l-.9.2c-1,0-1.6-.6-1.6-1.8V5.1h-1V4.2h1V2.8l1.1-.3V4.2H258v.9h-1.5V8.4a1,1,0,0,0,.2.9.7.7,0,0,0,.6.3l.7-.2Z" transform="translate(0 0.2)" fill="#1e1e1e"/><path d="M263.9,7.5h-4.2a2.7,2.7,0,0,0,.5,1.5,2,2,0,0,0,1.5.6,4,4,0,0,0,1.8-.7v.9a3.7,3.7,0,0,1-2.1.6,2.7,2.7,0,0,1-2-.9,3,3,0,0,1-.7-2.3,3,3,0,0,1,.8-2.2,2.2,2.2,0,0,1,2-.9,2,2,0,0,1,1.8.7,3,3,0,0,1,.6,2.2Zm-1-.8a1.5,1.5,0,0,0-.4-1.3,1.4,1.4,0,0,0-1.1-.5,1.6,1.6,0,0,0-1.1.5,2,2,0,0,0-.6,1.3Z" transform="translate(0 0.2)" fill="#1e1e1e"/><path d="M265.6,10.4a.7.7,0,0,1-.6-.7c0-.2.1-.3.2-.5s.3-.2.4-.1a.6.6,0,0,1,.7.6h0c0,.2-.1.3-.2.5Z" transform="translate(0 0.2)" fill="#1e1e1e"/><path d="M271.8,10a2.9,2.9,0,0,1-1.6.4,2.8,2.8,0,0,1-2.1-.8,3.5,3.5,0,0,1-.8-2.2,3.6,3.6,0,0,1,.9-2.4,3.2,3.2,0,0,1,2.3-.9l1.4.3v1a3,3,0,0,0-1.5-.5,2.1,2.1,0,0,0-1.5.7,2.7,2.7,0,0,0,0,3.4,2,2,0,0,0,1.5.6,2.4,2.4,0,0,0,1.4-.5Z" transform="translate(0 0.2)" fill="#1e1e1e"/><path d="M275.6,10.4a3,3,0,0,1-2.1-.9,3.5,3.5,0,0,1-.8-2.2,3.6,3.6,0,0,1,.9-2.4,3,3,0,0,1,2.2-.8,2.8,2.8,0,0,1,2.1.8,3.3,3.3,0,0,1,.7,2.3,2.7,2.7,0,0,1-.8,2.3A2.8,2.8,0,0,1,275.6,10.4Zm.1-5.5a1.8,1.8,0,0,0-1.4.6,2.8,2.8,0,0,0-.6,1.8,2.7,2.7,0,0,0,.6,1.7,1.8,1.8,0,0,0,1.4.6,1.7,1.7,0,0,0,1.5-.6,3.4,3.4,0,0,0,.5-1.7,3.4,3.4,0,0,0-.5-1.7,1.8,1.8,0,0,0-1.5-.7Z" transform="translate(0 0.2)" fill="#1e1e1e"/><path d="M288.6,10.2h-1V6.8a2.1,2.1,0,0,0-.3-1.5,1.2,1.2,0,0,0-1-.4,1.2,1.2,0,0,0-1,.6,2,2,0,0,0-.4,1.3v3.4h-1V6.7c0-1.2-.4-1.8-1.4-1.8a1.4,1.4,0,0,0-1,.5,3.3,3.3,0,0,0-.4,1.4v3.4h-1v-6h1v1h0A2.1,2.1,0,0,1,283,4.1a2,2,0,0,1,1.1.3,2.4,2.4,0,0,1,.6.9,2.3,2.3,0,0,1,2-1.2c1.3,0,2,.8,2,2.4Z" transform="translate(0 0.2)" fill="#1e1e1e"/><path d="M191.8,40.2h-1.2l-1.4-2.3-.4-.6-.4-.4-.4-.2h-1.3v3.5h-1V31.8h2.5l1,.2a2,2,0,0,1,.8.4,1.3,1.3,0,0,1,.6.7,3,3,0,0,1,.2,1,2.4,2.4,0,0,1-.2.8,2.1,2.1,0,0,1-.3.7l-.6.4-.8.4h0l.4.2.3.2c.1.2.1.3.2.4l.3.5Zm-5-7.5v3.1h2a2.9,2.9,0,0,0,.9-.9,1.3,1.3,0,0,0,.1-.6,1.2,1.2,0,0,0-.4-1,1.6,1.6,0,0,0-1.3-.4Z" transform="translate(0 0.2)" fill="#1e1e1e"/><path d="M197.4,37.5h-4.2a2.7,2.7,0,0,0,.5,1.5,2,2,0,0,0,1.5.6,3.1,3.1,0,0,0,1.8-.7v.9a3.7,3.7,0,0,1-2.1.6,3,3,0,0,1-2-.8,3.3,3.3,0,0,1-.7-2.3A3.1,3.1,0,0,1,193,35a2.5,2.5,0,0,1,2-.9,2.3,2.3,0,0,1,1.8.8,3.1,3.1,0,0,1,.7,2.1Zm-1-.8a1.8,1.8,0,0,0-.3-1.3,1.7,1.7,0,0,0-1.2-.5,1.6,1.6,0,0,0-1.1.5,2.6,2.6,0,0,0-.6,1.3Z" transform="translate(0 0.2)" fill="#1e1e1e"/><path d="M204.1,40.2h-1v-1h0a2.3,2.3,0,0,1-3.3.8l-.6-.4a3.4,3.4,0,0,1-.7-2.2,4.1,4.1,0,0,1,.8-2.4,2.5,2.5,0,0,1,2-.9,2,2,0,0,1,1.8,1h0V31.4h1Zm-1-2.7v-.9a1.7,1.7,0,0,0-1.7-1.7,1.5,1.5,0,0,0-1.4.7,3.1,3.1,0,0,0,0,3.4,1.7,1.7,0,0,0,2.6,0,2,2,0,0,0,.5-1.5Z" transform="translate(0 0.2)" fill="#1e1e1e"/><path d="M206.4,32.7c-.2,0-.3,0-.4-.2a.6.6,0,0,1,0-.9h.8a.6.6,0,0,1,.2.5c0,.2,0,.3-.2.4Zm.5,7.5h-1v-6h1Z" transform="translate(0 0.2)" fill="#1e1e1e"/><path d="M211.8,35.2l-.7-.2a1.1,1.1,0,0,0-1,.6,2.9,2.9,0,0,0-.4,1.6v3h-1v-6h1v1.3h0a1.7,1.7,0,0,1,.6-1,1.3,1.3,0,0,1,1-.4h.5Z" transform="translate(0 0.2)" fill="#1e1e1e"/><path d="M217.7,37.5h-4.2A1.7,1.7,0,0,0,214,39a1.6,1.6,0,0,0,1.4.5,3.1,3.1,0,0,0,1.9-.6v.9a3.9,3.9,0,0,1-2.1.6,2.5,2.5,0,0,1-2-.9,3,3,0,0,1-.7-2.3,2.7,2.7,0,0,1,.8-2.2,2.2,2.2,0,0,1,2-.9,2.1,2.1,0,0,1,1.8.7,3.5,3.5,0,0,1,.6,2.2Zm-1-.8a1.8,1.8,0,0,0-.4-1.3,1.6,1.6,0,0,0-1.1-.5,1.4,1.4,0,0,0-1.1.5,1.6,1.6,0,0,0-.6,1.3Z" transform="translate(0 0.2)" fill="#1e1e1e"/><path d="M223.3,40a3.3,3.3,0,0,1-1.7.4,3,3,0,0,1-2-.8,2.7,2.7,0,0,1-.8-2.2,3.1,3.1,0,0,1,.8-2.4,3.4,3.4,0,0,1,3.7-.6v1a2.3,2.3,0,0,0-1.4-.4,1.6,1.6,0,0,0-1.5.6,1.9,1.9,0,0,0-.6,1.7,2,2,0,0,0,.5,1.7,1.7,1.7,0,0,0,1.5.6,2.7,2.7,0,0,0,1.5-.5Z" transform="translate(0 0.2)" fill="#1e1e1e"/><path d="M227.7,40.2l-.9.2c-1,0-1.6-.6-1.6-1.8V35.1h-1v-.9h1V32.8l1-.3v1.7h1.6v.9h-1.6v3.3a1.5,1.5,0,0,0,.2.9.9.9,0,0,0,.7.3l.6-.2Z" transform="translate(0 0.2)" fill="#1e1e1e"/><path d="M186.7,64.1v3.1h-1V58.8H188a3.1,3.1,0,0,1,2.1.7,2.5,2.5,0,0,1-.1,3.8,3,3,0,0,1-2.2.8Zm0-4.4v3.5h1a3,3,0,0,0,1.6-.5,1.5,1.5,0,0,0,.5-1.3c0-1.1-.6-1.7-2-1.7Z" transform="translate(0 0.2)" fill="#1e1e1e"/><path d="M195.3,62.2l-.7-.2a1.1,1.1,0,0,0-1,.6,3,3,0,0,0-.5,1.6v3h-1v-6h1v1.2h0a3.6,3.6,0,0,1,.7-1,1.4,1.4,0,0,1,.9-.3h.6Z" transform="translate(0 0.2)" fill="#1e1e1e"/><path d="M198.9,67.4a3.1,3.1,0,0,1-2.2-.9,3.5,3.5,0,0,1-.8-2.2,3.6,3.6,0,0,1,.9-2.4,3,3,0,0,1,2.2-.8,2.8,2.8,0,0,1,2.1.8,3.3,3.3,0,0,1,.7,2.3,2.9,2.9,0,0,1-2.9,3.2Zm0-5.5a1.8,1.8,0,0,0-1.4.6,2.8,2.8,0,0,0-.6,1.8,2.3,2.3,0,0,0,.6,1.6,1.6,1.6,0,0,0,1.4.7,2,2,0,0,0,1.5-.6,3.4,3.4,0,0,0,.5-1.7,3.5,3.5,0,0,0-.5-1.8,2,2,0,0,0-1.5-.6Z" transform="translate(0 0.2)" fill="#1e1e1e"/><path d="M211.8,67.2h-1V63.8a1.7,1.7,0,0,0-.3-1.4,1,1,0,0,0-1-.5,1.2,1.2,0,0,0-1,.6,2,2,0,0,0-.4,1.3v3.4h-1V63.7c0-1.2-.4-1.8-1.3-1.8a1.2,1.2,0,0,0-1,.5,2.4,2.4,0,0,0-.5,1.4v3.4h-1v-6h1v1h0a2.1,2.1,0,0,1,1.9-1.1,2.1,2.1,0,0,1,1.1.4,1.5,1.5,0,0,1,.6.9,2.2,2.2,0,0,1,2-1.3c1.3,0,2,.9,2,2.5Z" transform="translate(0 0.2)" fill="#1e1e1e"/><path d="M214.6,66.4h0V70h-1V61.2h1v1.1h0a2.2,2.2,0,0,1,2.1-1.2,2.7,2.7,0,0,1,1.8.8,4,4,0,0,1,.6,2.2,3.6,3.6,0,0,1-.7,2.4,2.5,2.5,0,0,1-2,.9A2,2,0,0,1,214.6,66.4Zm0-2.4v.8a1.7,1.7,0,0,0,.5,1.3,1.8,1.8,0,0,0,2.4,0l.2-.2a4.1,4.1,0,0,0,.5-1.9,2.7,2.7,0,0,0-.5-1.5,1.7,1.7,0,0,0-2.6,0,1.7,1.7,0,0,0-.5,1.5Z" transform="translate(0 0.2)" fill="#1e1e1e"/><path d="M223.4,67.2l-.9.2c-1.1,0-1.6-.6-1.6-1.8V62.1h-1v-.9h1V59.8l1-.3v1.7h1.5v.9h-1.5v3.3a1.5,1.5,0,0,0,.2.9.9.9,0,0,0,.7.3l.6-.2Z" transform="translate(0 0.2)" fill="#1e1e1e"/><path d="M189.7,80a3.2,3.2,0,0,1-1.6.4,2.6,2.6,0,0,1-2.1-.8,3.5,3.5,0,0,1-.8-2.2,3.6,3.6,0,0,1,.9-2.4,3.1,3.1,0,0,1,2.2-.9,3.2,3.2,0,0,1,1.4.3v1a2.3,2.3,0,0,0-1.4-.4,1.7,1.7,0,0,0-1.5.6,2.9,2.9,0,0,0-.1,3.4,1.8,1.8,0,0,0,1.5.6,2.5,2.5,0,0,0,1.5-.5Z" transform="translate(0 0.2)" fill="#1e1e1e"/><path d="M194.1,75.2l-.7-.2a1.1,1.1,0,0,0-1,.6,2.3,2.3,0,0,0-.4,1.6v3h-1v-6h1v1.2h0a2.1,2.1,0,0,1,.6-1,1.7,1.7,0,0,1,1-.3h.6Z" transform="translate(0 0.2)" fill="#1e1e1e"/><path d="M200,77.5h-4.2a1.7,1.7,0,0,0,.5,1.5,2,2,0,0,0,1.4.6,4,4,0,0,0,1.9-.7v.9a3.9,3.9,0,0,1-2.1.6,2.5,2.5,0,0,1-2-.9,3,3,0,0,1-.7-2.3,2.7,2.7,0,0,1,.8-2.2,2.5,2.5,0,0,1,2-.9,2.1,2.1,0,0,1,1.8.7A3.5,3.5,0,0,1,200,77Zm-1-.8a1.8,1.8,0,0,0-.4-1.3,1.6,1.6,0,0,0-1.1-.5,1.8,1.8,0,0,0-1.2.5,1.9,1.9,0,0,0-.5,1.3Z" transform="translate(0 0.2)" fill="#1e1e1e"/><path d="M206.6,80.2h-1v-1h0a2.2,2.2,0,0,1-2,1.2,2.3,2.3,0,0,1-1.8-.8,3.4,3.4,0,0,1-.7-2.2,3.5,3.5,0,0,1,.8-2.4,2.4,2.4,0,0,1,2-.9,2,2,0,0,1,1.8,1h0V71.3h1Zm-1-2.7v-.9a1.4,1.4,0,0,0-.4-1.2,1.8,1.8,0,0,0-1.2-.5,1.6,1.6,0,0,0-1.4.7,3.4,3.4,0,0,0-.5,1.7,2.6,2.6,0,0,0,.5,1.7,1.7,1.7,0,0,0,2.6,0,2.5,2.5,0,0,0,.5-1.5Z" transform="translate(0 0.2)" fill="#1e1e1e"/><path d="M213.4,77.5h-4.3a2.7,2.7,0,0,0,.5,1.5,2,2,0,0,0,1.5.6,3.1,3.1,0,0,0,1.8-.7v.9a3.7,3.7,0,0,1-2.1.6,3.2,3.2,0,0,1-2-.8,3.9,3.9,0,0,1-.7-2.3,3.6,3.6,0,0,1,.8-2.3,2.5,2.5,0,0,1,2-.9,1.8,1.8,0,0,1,1.8.8,3.1,3.1,0,0,1,.7,2.1Zm-1-.8a2.5,2.5,0,0,0-.4-1.3,1.6,1.6,0,0,0-1.1-.5,1.7,1.7,0,0,0-1.2.5,2.6,2.6,0,0,0-.6,1.3Z" transform="translate(0 0.2)" fill="#1e1e1e"/><path d="M219.8,80.2h-1V76.8c0-1.3-.5-1.9-1.4-1.9a1.7,1.7,0,0,0-1.2.5,2.4,2.4,0,0,0-.5,1.4v3.4h-1v-6h1v1h0a2.3,2.3,0,0,1,2-1.1,2,2,0,0,1,1.5.6,2.6,2.6,0,0,1,.5,1.9Z" transform="translate(0 0.2)" fill="#1e1e1e"/><path d="M224.3,80.2l-.9.2c-1,0-1.6-.6-1.6-1.8V75.1h-1v-.9h1V72.8l1-.3v1.7h1.5v.9h-1.5v3.3a1.5,1.5,0,0,0,.2.9.9.9,0,0,0,.7.3l.6-.2Z" transform="translate(0 0.2)" fill="#1e1e1e"/><path d="M226,72.7c-.2,0-.3,0-.4-.2a.6.6,0,0,1,0-.9h.4a.6.6,0,0,1,.6.6h0c0,.2,0,.3-.1.4Zm.5,7.5h-1v-6h1Z" transform="translate(0 0.2)" fill="#1e1e1e"/><path d="M232.6,80.2h-1v-.9h0a2.1,2.1,0,0,1-1.9,1.1,2.4,2.4,0,0,1-1.4-.5,1.9,1.9,0,0,1-.5-1.3c0-1.1.7-1.7,2-2l1.8-.2q0-1.5-1.2-1.5a2.7,2.7,0,0,0-2,.7v-1a3.6,3.6,0,0,1,2-.6c1.4,0,2.1.8,2.1,2.3Zm-1-3-1.5.2-1,.4a.8.8,0,0,0-.3.8.9.9,0,0,0,.3.7,1.1,1.1,0,0,0,.8.3,1.7,1.7,0,0,0,1.2-.5,1.9,1.9,0,0,0,.5-1.3Z" transform="translate(0 0.2)" fill="#1e1e1e"/><path d="M235.3,80.2h-1V71.3h1Z" transform="translate(0 0.2)" fill="#1e1e1e"/><path d="M236.8,80V79a2.7,2.7,0,0,0,1.7.6c.9,0,1.3-.3,1.3-.9a.8.8,0,0,0-.1-.4l-.3-.3-.4-.2-.6-.2-.7-.3-.5-.4-.3-.5a1.3,1.3,0,0,1-.1-.6,1.9,1.9,0,0,1,.2-.7l.5-.6.8-.3h.8a3.2,3.2,0,0,1,1.4.3v1a2.7,2.7,0,0,0-1.5-.5h-.9l-.2.3c-.1.1-.1.2-.1.4a.4.4,0,0,0,.1.3l.2.3.4.2.6.3.7.3.5.3a1.3,1.3,0,0,1,.5,1.1,1.9,1.9,0,0,1-.2.8,1.2,1.2,0,0,1-.5.5l-.8.4h-.9A3.2,3.2,0,0,1,236.8,80Z" transform="translate(0 0.2)" fill="#1e1e1e"/><path d="M405.2,96.1h-1.9V91a12.1,12.1,0,0,1,.1-1.8h-.1a4.3,4.3,0,0,1-.2,1.1l-2,5.7h-1.6l-2-5.6a5,5,0,0,1-.2-1.2h0V96h-1.7V87.6h2.8l1.7,5,.3,1.2h0l.3-1.2,1.7-5h2.7Z" transform="translate(0 0.2)" fill="#fff"/><path d="M407.8,89.1a1.1,1.1,0,0,1-.8-.3.9.9,0,0,1-.3-.7.7.7,0,0,1,.3-.6,1.1,1.1,0,0,1,.8-.3,1.3,1.3,0,0,1,.8.3.7.7,0,0,1,.3.6.8.8,0,0,1-.3.7A1.3,1.3,0,0,1,407.8,89.1Zm.9,7h-1.8v-6h1.8Z" transform="translate(0 0.2)" fill="#fff"/><path d="M414.8,95.8a3.9,3.9,0,0,1-1.8.4,3.6,3.6,0,0,1-2.3-.8,3.5,3.5,0,0,1,.1-4.6,3.6,3.6,0,0,1,2.4-.9,4.1,4.1,0,0,1,1.6.3v1.6a2.4,2.4,0,0,0-1.3-.5,2.1,2.1,0,0,0-1.3.5,1.5,1.5,0,0,0-.4,1.3,1.4,1.4,0,0,0,.4,1.2,1.8,1.8,0,0,0,1.2.5,2.4,2.4,0,0,0,1.4-.5Z" transform="translate(0 0.2)" fill="#fff"/><path d="M420,91.7l-.8-.2a1.2,1.2,0,0,0-.9.5,1.7,1.7,0,0,0-.4,1.2V96h-1.8V90h1.8v1.2h0a1.7,1.7,0,0,1,1.6-1.3h.5Z" transform="translate(0 0.2)" fill="#fff"/><path d="M423.8,96.2a4.1,4.1,0,0,1-2.4-.8,3.8,3.8,0,0,1,0-4.7,4.4,4.4,0,0,1,2.5-.8,3.8,3.8,0,0,1,2.3.8A2.7,2.7,0,0,1,427,93a2.9,2.9,0,0,1-.8,2.3A3.6,3.6,0,0,1,423.8,96.2Zm0-4.9a1.6,1.6,0,0,0-1,.5,2.4,2.4,0,0,0-.3,1.2c0,1.2.4,1.8,1.4,1.8s1.3-.6,1.3-1.8-.4-1.7-1.3-1.7Z" transform="translate(0 0.2)" fill="#fff"/><path d="M427.9,95.9V94.4l1,.4h1.6c.2-.1.3-.2.3-.4s-.1-.2-.2-.3l-.3-.2-.4-.2h-.5l-.6-.3a1,1,0,0,1-.5-.4l-.3-.5c0-.2-.1-.4-.1-.6a1.6,1.6,0,0,1,.3-.9l.5-.6.9-.3h2.6v1.5a1.1,1.1,0,0,0-.8-.3h-.7c-.2-.1-.3-.1-.4,0H430l-.2.2v.2a.4.4,0,0,0,.1.3l.2.2.4.2h.4l.7.3.5.3.4.5c0,.2.1.5.1.7a1.6,1.6,0,0,1-.3.9,1.2,1.2,0,0,1-.6.6,1.6,1.6,0,0,1-.9.3l-1,.2A6.3,6.3,0,0,1,427.9,95.9Z" transform="translate(0 0.2)" fill="#fff"/><path d="M436.5,96.2a3.6,3.6,0,0,1-2.3-.8,3.5,3.5,0,0,1,0-4.7,3.8,3.8,0,0,1,2.4-.8,3.2,3.2,0,0,1,2.3.8,3.2,3.2,0,0,1,.9,2.3,3.3,3.3,0,0,1-.9,2.3A3.6,3.6,0,0,1,436.5,96.2Zm0-4.9a1.4,1.4,0,0,0-1,.5,1.3,1.3,0,0,0-.3,1.2c0,1.2.4,1.8,1.4,1.8s1.3-.6,1.3-1.8-.4-1.7-1.4-1.7Z" transform="translate(0 0.2)" fill="#fff"/><path d="M444.9,88.6l-.7-.2c-.6,0-.9.4-.9,1v.7h1.3v1.3h-1.3v4.7h-1.9V91.4h-1V90.1h1v-.8a2,2,0,0,1,.7-1.6,2.4,2.4,0,0,1,1.8-.7h1Z" transform="translate(0 0.2)" fill="#fff"/><path d="M449.4,96a2.5,2.5,0,0,1-1.2.2,1.8,1.8,0,0,1-2-2V91.4h-1V90.1h1V88.8l1.9-.6v1.9h1.3v1.3h-1.3v2.4c0,.7.2,1,.7,1l.6-.2Z" transform="translate(0 0.2)" fill="#fff"/><path d="M401.8,103.5a1,1,0,0,1-1-1,.7.7,0,0,1,.3-.6.9.9,0,0,1,.7-.3,1.1,1.1,0,0,1,.8.3.7.7,0,0,1,.3.6.8.8,0,0,1-.3.7A1.1,1.1,0,0,1,401.8,103.5Zm.9,7h-1.8v-6h1.8Z" transform="translate(0 0.2)" fill="#fff"/><path d="M410.2,110.4h-1.9v-.8h0a1.8,1.8,0,0,1-1.8,1,2.1,2.1,0,0,1-1.8-.8,2.9,2.9,0,0,1-.7-2.2,3.6,3.6,0,0,1,.7-2.4,2.5,2.5,0,0,1,2-.9,1.7,1.7,0,0,1,1.6.9h0v-3.6h1.9Zm-1.8-2.9v-.4a1.3,1.3,0,0,0-.4-1,1,1,0,0,0-.9-.4,1.4,1.4,0,0,0-1,.5,2.8,2.8,0,0,0-.3,1.3,2.4,2.4,0,0,0,.3,1.2,1.2,1.2,0,0,0,.9.5,1.4,1.4,0,0,0,1-.5,2.1,2.1,0,0,0,.4-1.2Z" transform="translate(0 0.2)" fill="#fff"/><path d="M417.1,108h-3.9c.1.9.6,1.3,1.7,1.3a2.6,2.6,0,0,0,1.7-.5v1.4a5.4,5.4,0,0,1-2.2.4,2.7,2.7,0,0,1-3-2.5v-.5a3.1,3.1,0,0,1,.8-2.4,3.5,3.5,0,0,1,2.2-.8,2.3,2.3,0,0,1,2,.8,3,3,0,0,1,.7,2.1Zm-1.7-1.1c0-.9-.3-1.3-1-1.3a.9.9,0,0,0-.8.4,1.3,1.3,0,0,0-.4.9Z" transform="translate(0 0.2)" fill="#fff"/><path d="M424.1,110.4h-1.8v-3.3c0-.9-.4-1.4-1-1.4s-.7.1-.8.4a1.2,1.2,0,0,0-.4.9v3.5h-1.8v-6h1.8v.9h0a2.3,2.3,0,0,1,2-1.1c1.3,0,2,.8,2,2.5Z" transform="translate(0 0.2)" fill="#fff"/><path d="M429.1,110.4l-1.2.2a1.8,1.8,0,0,1-2-2v-2.8h-1v-1.3h1v-1.3l1.9-.5v1.8h1.3v1.3h-1.3v2.5c0,.6.2.9.7.9l.6-.2Z" transform="translate(0 0.2)" fill="#fff"/><path d="M431.2,103.5a1.1,1.1,0,0,1-.8-.3.9.9,0,0,1-.3-.7.7.7,0,0,1,.3-.6,1.1,1.1,0,0,1,1.5,0,.7.7,0,0,1,.3.6.8.8,0,0,1-.3.7A.9.9,0,0,1,431.2,103.5Zm.9,7h-1.9v-6h1.9Z" transform="translate(0 0.2)" fill="#fff"/><path d="M437.2,110.4l-1.3.2c-1.3,0-1.9-.7-1.9-2v-2.8h-1v-1.3h1v-1.3l1.8-.5v1.8h1.4v1.3h-1.4v2.5c0,.6.3.9.8.9l.6-.2Z" transform="translate(0 0.2)" fill="#fff"/><path d="M444.2,104.4l-2.4,6.5q-.9,2.4-2.7,2.4l-1.1-.2v-1.5a1,1,0,0,0,.9.2,1,1,0,0,0,1-.6l.3-.8-2.5-6h2l1.2,3.7c0,.2.1.5.1.8h0c.1-.3.1-.6.2-.8l1.1-3.7Z" transform="translate(0 0.2)" fill="#fff"/><path d="M399.9,124.2h0v3.4H398v-8.8h1.9v1h0a2.3,2.3,0,0,1,3.2-.7l.5.4a3.3,3.3,0,0,1,.6,2.2,3.6,3.6,0,0,1-.7,2.4,2.7,2.7,0,0,1-2,.9A1.8,1.8,0,0,1,399.9,124.2Zm-.1-2.5v.5a1.4,1.4,0,0,0,.4,1,1.1,1.1,0,0,0,1.8-.1,2.3,2.3,0,0,0,.4-1.4c0-1.1-.4-1.6-1.3-1.6a1.5,1.5,0,0,0-.9.4A2.8,2.8,0,0,0,399.8,121.7Z" transform="translate(0 0.2)" fill="#fff"/><path d="M407.4,124.8h-1.9V116h1.9Z" transform="translate(0 0.2)" fill="#fff"/><path d="M413.9,124.8h-1.7V124h0a2.2,2.2,0,0,1-1.8,1,1.9,1.9,0,0,1-1.4-.5,1.9,1.9,0,0,1-.5-1.3c0-1.2.7-1.8,2.1-2l1.6-.2c0-.7-.3-1-1.1-1a3.6,3.6,0,0,0-2,.6v-1.4a4.5,4.5,0,0,1,1.1-.3l1.2-.2a2.3,2.3,0,0,1,2.6,1.9v4.2Zm-1.7-2.4V122h-1.1q-.9.2-.9.9c0,.2.1.3.2.5l.6.2a1.2,1.2,0,0,0,.9-.4A1.4,1.4,0,0,0,412.2,122.4Z" transform="translate(0 0.2)" fill="#fff"/><path d="M418.9,124.8l-1.2.2a1.7,1.7,0,0,1-2-1.5v-3.3h-1v-1.3h1v-1.3l1.8-.6v1.9h1.4v1.3h-1.4v2.5c0,.6.3.9.8.9l.6-.2Z" transform="translate(0 0.2)" fill="#fff"/><path d="M424,117.4l-.6-.2c-.6,0-.9.4-.9,1v.7h1.3v1.3h-1.3v4.7h-1.9v-4.7h-1v-1.3h1v-.8a2.4,2.4,0,0,1,.7-1.6,2.6,2.6,0,0,1,1.8-.7l.9.2Z" transform="translate(0 0.2)" fill="#fff"/><path d="M427.6,125a3.8,3.8,0,0,1-2.3-.8,3.2,3.2,0,0,1,2.4-5.5,3.3,3.3,0,0,1,2.3.9,2.8,2.8,0,0,1,.9,2.2,3.3,3.3,0,0,1-.9,2.3A3.6,3.6,0,0,1,427.6,125Zm.1-4.9a1.2,1.2,0,0,0-1,.5,1.8,1.8,0,0,0-.4,1.3c0,1.1.5,1.7,1.4,1.7s1.3-.6,1.3-1.8-.4-1.7-1.3-1.7Z" transform="translate(0 0.2)" fill="#fff"/><path d="M436,120.5l-.8-.2a1.2,1.2,0,0,0-.9.5,1.7,1.7,0,0,0-.4,1.2v2.8h-1.8v-6h1.8V120h0a1.7,1.7,0,0,1,1.6-1.2h.5Z" transform="translate(0 0.2)" fill="#fff"/><path d="M446.4,124.8h-1.9v-3.4c0-.9-.3-1.3-1-1.3a1,1,0,0,0-.7.4,1.9,1.9,0,0,0-.3,1v3.4h-1.8v-3.5c0-.8-.3-1.3-.9-1.3a1.2,1.2,0,0,0-.8.4,1.9,1.9,0,0,0-.3,1v3.3h-1.8v-6h1.8v1h0a3,3,0,0,1,.8-.8l1.1-.3a1.9,1.9,0,0,1,1.8,1.1,2.3,2.3,0,0,1,2-1.1c1.3,0,2,.8,2,2.4Z" transform="translate(0 0.2)" fill="#fff"/><path d="M406.7,18h-2l-.6-1.9h-3l-.6,1.9h-2.1l3.1-8.4h2.2Zm-3.1-3.3-.9-2.8c0-.3-.1-.5-.1-.8h-.1a1.7,1.7,0,0,1-.1.7l-.9,2.9Z" transform="translate(0 0.2)" fill="#fff"/><path d="M407.5,17.7V15.8a3.8,3.8,0,0,0,2.3.8h.6l.5-.2.2-.3a.4.4,0,0,0,.1-.3.9.9,0,0,0-.1-.5l-.4-.3-.6-.3-.7-.3a4,4,0,0,1-1.5-1,1.9,1.9,0,0,1-.4-1.5,1.5,1.5,0,0,1,.2-1.1,2.7,2.7,0,0,1,.7-.8l1.1-.4,1.3-.2h1.1a3.2,3.2,0,0,1,.9.3v1.7l-.4-.2-.5-.2h-1.6l-.5.2-.3.3c0,.1-.1.2-.1.3s.1.3.1.4l.4.3.5.3.6.3.9.5a1.8,1.8,0,0,1,.7.5,1.8,1.8,0,0,1,.5.7,2.8,2.8,0,0,1-.1,2,2.7,2.7,0,0,1-.7.8l-1.1.4h-2.6A3.5,3.5,0,0,1,407.5,17.7Z" transform="translate(0 0.2)" fill="#fff"/><path d="M416.5,15.1V18h-1.9V9.6h3c2.1,0,3.2.9,3.2,2.7a2.8,2.8,0,0,1-1,2,3.3,3.3,0,0,1-2.4.8Zm0-4.1v2.6h.7c1,0,1.5-.4,1.5-1.3s-.5-1.3-1.5-1.3Z" transform="translate(0 0.2)" fill="#fff"/><path d="M421.4,18.1a1.1,1.1,0,0,1-.8-.3.7.7,0,0,1-.3-.6.8.8,0,0,1,.3-.7,1.2,1.2,0,0,1,1.6,0,.8.8,0,0,1,.3.7,1.1,1.1,0,0,1-.3.7Z" transform="translate(0 0.2)" fill="#fff"/><path d="M431.6,18h-1.9l-3.5-5.3-.4-.7h0v6H424V9.6h2l3.3,5.1.5.7h0a4.9,4.9,0,0,1-.1-1.2V9.6h1.8Z" transform="translate(0 0.2)" fill="#fff"/><path d="M438.5,18h-5V9.6h4.8v1.5h-2.9V13h2.7v1.5h-2.7v2h3.1Z" transform="translate(0 0.2)" fill="#fff"/><path d="M445.8,11.1h-2.4V18h-1.9V11.1h-2.4V9.6h6.7Z" transform="translate(0 0.2)" fill="#fff"/><path d="M401.6,32.1a5.1,5.1,0,0,1-2.4.4,3.8,3.8,0,0,1-4.1-4.1,4.5,4.5,0,0,1,1.2-3.3,4.3,4.3,0,0,1,3.2-1.2l2.1.3V26a4.1,4.1,0,0,0-1.9-.5,2.6,2.6,0,0,0-1.9.7,3.2,3.2,0,0,0-.8,2,3.2,3.2,0,0,0,.7,2,2.6,2.6,0,0,0,1.9.7,4.6,4.6,0,0,0,2-.5Z" transform="translate(0 0.2)" fill="#fff"/><path d="M405.6,32.5a2.9,2.9,0,0,1-2.3-.8,3.4,3.4,0,0,1,0-4.6,3.7,3.7,0,0,1,4.8,0,3,3,0,0,1,.8,2.2,2.8,2.8,0,0,1-.9,2.4A3,3,0,0,1,405.6,32.5Zm.1-4.8a1,1,0,0,0-1,.4,2,2,0,0,0-.4,1.3c0,1.1.5,1.7,1.4,1.7s1.4-.6,1.4-1.8S406.6,27.7,405.7,27.7Z" transform="translate(0 0.2)" fill="#fff"/><path d="M414,28.1a1.1,1.1,0,0,0-.8-.2,1,1,0,0,0-.9.4,1.9,1.9,0,0,0-.4,1.2v2.9h-1.8v-6H412v1.1h0a1.6,1.6,0,0,1,1.6-1.2h.4Z" transform="translate(0 0.2)" fill="#fff"/><path d="M420.4,29.9h-4c.1.9.6,1.3,1.7,1.3a3.3,3.3,0,0,0,1.7-.4v1.3a3.8,3.8,0,0,1-2.1.4,2.7,2.7,0,0,1-3.1-2.5v-.5a3.4,3.4,0,0,1,.9-2.4,2.7,2.7,0,0,1,2.1-.9,2.8,2.8,0,0,1,2,.8,2.8,2.8,0,0,1,.7,2.1Zm-1.8-1.1c0-.9-.3-1.3-1-1.3a.9.9,0,0,0-.8.4,1.9,1.9,0,0,0-.4.9Z" transform="translate(0 0.2)" fill="#fff"/><path d="M435.9,24l-2.2,8.4h-2.1L430.2,27a2.8,2.8,0,0,1-.1-.9h0a2.9,2.9,0,0,1-.2.9l-1.4,5.4h-2.2L424.1,24h2.1l1.1,5.6a3.4,3.4,0,0,1,.1,1h0c.1-.3.1-.7.2-1l1.6-5.6h2l1.4,5.6c0,.3.1.6.1.9h0a2.8,2.8,0,0,1,.1-.9L434,24Z" transform="translate(0 0.2)" fill="#fff"/><path d="M441.9,29.9H438c.1.9.6,1.3,1.6,1.3a3.4,3.4,0,0,0,1.8-.4v1.3a4.1,4.1,0,0,1-2.2.4,2.7,2.7,0,0,1-3-2.5.4.4,0,0,1,0-.5,3,3,0,0,1,.8-2.4,3.1,3.1,0,0,1,2.2-.9,3.2,3.2,0,0,1,2,.8,3.3,3.3,0,0,1,.7,2.1Zm-1.7-1.1c0-.9-.4-1.3-1-1.3a.9.9,0,0,0-.8.4,1.3,1.3,0,0,0-.4.9Z" transform="translate(0 0.2)" fill="#fff"/><path d="M444.9,31.7h0v.7h-1.8V23.5h1.8v3.8h0a2.4,2.4,0,0,1,2-1.1,2.5,2.5,0,0,1,1.8.8,3.5,3.5,0,0,1,.6,2.2,3.4,3.4,0,0,1-.7,2.4,2.2,2.2,0,0,1-2,.9A1.9,1.9,0,0,1,444.9,31.7Zm0-2.5v.6a1.9,1.9,0,0,0,.3,1,1,1,0,0,0,.9.3,1,1,0,0,0,1-.4,2.4,2.4,0,0,0,.3-1.4,1.8,1.8,0,0,0-.3-1.2,1.2,1.2,0,0,0-1.8,0A1.5,1.5,0,0,0,444.9,29.2Z" transform="translate(0 0.2)" fill="#fff"/><path d="M418.8,46.8h-2l-.6-1.9h-3l-.6,1.9h-2.1l3.1-8.4h2.2Zm-3.1-3.3-.9-2.9c0-.2-.1-.5-.1-.7h-.1a1.7,1.7,0,0,1-.1.7l-.9,2.9Z" transform="translate(0 0.2)" fill="#fff"/><path d="M421.6,46.1h0v3.4h-1.9V40.8h1.9v.9h0a2.3,2.3,0,0,1,3.2-.7l.5.4a3.5,3.5,0,0,1,.6,2.2,3.4,3.4,0,0,1-.7,2.4,2.5,2.5,0,0,1-2,.9A1.9,1.9,0,0,1,421.6,46.1Zm-.1-2.5v.5a1.3,1.3,0,0,0,.4,1,.9.9,0,0,0,.8.4,1.2,1.2,0,0,0,1-.5,1.7,1.7,0,0,0,.3-1.4c0-1-.4-1.6-1.2-1.6a1.2,1.2,0,0,0-.9.5A1.5,1.5,0,0,0,421.5,43.6Z" transform="translate(0 0.2)" fill="#fff"/><path d="M429,46.1h0v3.4h-1.9V40.8H429v.9h0a2.2,2.2,0,0,1,1.9-1,1.8,1.8,0,0,1,1.8.8,3.4,3.4,0,0,1,.7,2.2,3.7,3.7,0,0,1-.8,2.4,2.5,2.5,0,0,1-2,.9A1.8,1.8,0,0,1,429,46.1Zm0-2.5v.5a1.7,1.7,0,0,0,.3,1,1.1,1.1,0,0,0,.9.4,1.2,1.2,0,0,0,1-.5,2.2,2.2,0,0,0,.3-1.4c0-1-.4-1.6-1.2-1.6a1.1,1.1,0,0,0-.9.5A1.5,1.5,0,0,0,429,43.6Z" transform="translate(0 0.2)" fill="#fff"/><path d="M51.6,106.1l-2.2,8.4H47.3l-1.4-5.4a3.6,3.6,0,0,1-.2-1h0a3.4,3.4,0,0,1-.1,1l-1.4,5.4H41.9l-2.2-8.4h2.1l1.2,5.6a3.4,3.4,0,0,1,.1,1h0a3.6,3.6,0,0,1,.2-1l1.5-5.6h2l1.4,5.7a2.8,2.8,0,0,1,.1.9h0c0-.4.1-.7.1-1l1.2-5.6Z" transform="translate(0 0.2)" fill="#1e1e1e"/><path d="M57.5,112H53.6c.1.9.6,1.3,1.7,1.3a2.6,2.6,0,0,0,1.7-.5v1.4a5.4,5.4,0,0,1-2.2.4,2.8,2.8,0,0,1-3-3,3.3,3.3,0,0,1,.8-2.4,3.1,3.1,0,0,1,2.2-.9,3,3,0,0,1,2,.8,3.1,3.1,0,0,1,.7,2.1Zm-1.7-1.1c0-.9-.3-1.3-1-1.3a.9.9,0,0,0-.8.4,1.8,1.8,0,0,0-.4.9Z" transform="translate(0 0.2)" fill="#1e1e1e"/><path d="M60.6,113.8h0v.7H58.7v-8.9h1.9v3.8h0a2.2,2.2,0,0,1,3.7-.2,3.2,3.2,0,0,1,.6,2.1,3.4,3.4,0,0,1-.7,2.4,2.2,2.2,0,0,1-2,.9A1.6,1.6,0,0,1,60.6,113.8Zm-.1-2.5v.6a1.4,1.4,0,0,0,.4,1,1.1,1.1,0,0,0,1.8-.1,2.3,2.3,0,0,0,.4-1.4,1.9,1.9,0,0,0-.4-1.2,1,1,0,0,0-.9-.4,1.1,1.1,0,0,0-.9.4A2.1,2.1,0,0,0,60.5,111.3Z" transform="translate(0 0.2)" fill="#1e1e1e"/><path d="M32.3,128.2h0v.7H30.4V120h1.9v3.8h0a1.9,1.9,0,0,1,1.9-1,1.8,1.8,0,0,1,1.8.8,3.3,3.3,0,0,1,.6,2.2,3.6,3.6,0,0,1-.7,2.4,2.7,2.7,0,0,1-1.9.8A1.7,1.7,0,0,1,32.3,128.2Zm-.1-2.5v.6a1.3,1.3,0,0,0,.4,1,1.1,1.1,0,0,0,1.8-.1,2.3,2.3,0,0,0,.4-1.4,1.9,1.9,0,0,0-.4-1.2,1,1,0,0,0-.9-.4,1.5,1.5,0,0,0-.9.4A2.1,2.1,0,0,0,32.2,125.7Z" transform="translate(0 0.2)" fill="#1e1e1e"/><path d="M41.8,124.6a1.2,1.2,0,0,0-.8-.2,1,1,0,0,0-.9.4,1.9,1.9,0,0,0-.4,1.2v2.9H37.9v-6h1.8V124h0a1.6,1.6,0,0,1,1.6-1.2h.4Z" transform="translate(0 0.2)" fill="#1e1e1e"/><path d="M45.6,129a4.1,4.1,0,0,1-2.4-.8,3.3,3.3,0,0,1,4.8-4.6,2.9,2.9,0,0,1,.8,2.2,2.7,2.7,0,0,1-.8,2.3A3.6,3.6,0,0,1,45.6,129Zm0-4.9a1.2,1.2,0,0,0-1,.5,2,2,0,0,0-.4,1.3c0,1.1.5,1.7,1.4,1.7s1.4-.6,1.4-1.8-.5-1.6-1.4-1.6Z" transform="translate(0 0.2)" fill="#1e1e1e"/><path d="M58.6,122.9l-1.7,6h-2l-.9-3.5a2.2,2.2,0,0,1-.1-.8h0c0,.3-.1.5-.1.8l-1,3.5H50.9l-1.7-6h1.9l.9,3.9v.7h0a6.4,6.4,0,0,1,.2-.7l1-3.9H55l.9,3.9a3.5,3.5,0,0,1,.1.7h0c0-.2.1-.5.1-.7l.8-3.9Z" transform="translate(0 0.2)" fill="#1e1e1e"/><path d="M59.1,128.7v-1.5l.9.5h1.6a.5.5,0,0,0,.3-.5c0-.1,0-.2-.1-.2l-.3-.3H61l-.4-.2c-.2-.1-.5-.1-.7-.3l-.4-.3-.3-.5a1.3,1.3,0,0,1-.1-.6,2.9,2.9,0,0,1,.2-.9l.6-.6a1.3,1.3,0,0,1,.8-.3h1.8l.9.2v1.4l-.8-.3H61.2l-.2.2c-.1,0-.1.1-.1.2v.3l.3.2h.4l.4.2.7.2.5.4.3.5a1.3,1.3,0,0,1,.1.6,3,3,0,0,1-.2,1l-.6.6-.9.3H61A5.8,5.8,0,0,1,59.1,128.7Z" transform="translate(0 0.2)" fill="#1e1e1e"/><path d="M70.2,126.4H66.3c.1.9.6,1.3,1.6,1.3a3.4,3.4,0,0,0,1.8-.4v1.3a4.1,4.1,0,0,1-2.2.4,2.8,2.8,0,0,1-3-3,3.1,3.1,0,0,1,.8-2.4,2.7,2.7,0,0,1,2.2-.8,2.6,2.6,0,0,1,2,.7,3.4,3.4,0,0,1,.7,2.2Zm-1.7-1.1c0-.9-.4-1.3-1-1.3a.9.9,0,0,0-.8.4,1.9,1.9,0,0,0-.4.9Z" transform="translate(0 0.2)" fill="#1e1e1e"/><path d="M75.3,124.6a1.4,1.4,0,0,0-1.7.2,1.9,1.9,0,0,0-.4,1.2v2.9H71.4v-6h1.8V124h0a1.7,1.7,0,0,1,1.6-1.2h.5Z" transform="translate(0 0.2)" fill="#1e1e1e"/><polygon points="191.2 150.5 183.7 155.9 186.6 164.7 195.9 164.7 198.8 155.9 191.2 150.5" fill="#ebebeb" stroke="#000" stroke-miterlimit="10" stroke-width="0.75"/><path d="M211.1,161.8H210l-.9-2.3h-3.5l-.9,2.3h-1.1l3.2-8.4h1Zm-2.3-3.2-1.3-3.6c-.1-.2-.1-.4-.2-.6h0a1.3,1.3,0,0,1-.1.6l-1.3,3.6Z" transform="translate(0 0.2)" fill="#1e1e1e"/><path d="M216.1,161.5a2.2,2.2,0,0,1-1.6.4,2.5,2.5,0,0,1-2.1-.8,3.5,3.5,0,0,1-.8-2.2,3.3,3.3,0,0,1,.9-2.3,2.8,2.8,0,0,1,2.3-.9l1.4.3v1a3,3,0,0,0-1.5-.5,1.9,1.9,0,0,0-1.5.7,2.5,2.5,0,0,0-.6,1.7,2.7,2.7,0,0,0,.6,1.7,2,2,0,0,0,1.5.6,2,2,0,0,0,1.4-.6Z" transform="translate(0 0.2)" fill="#1e1e1e"/><path d="M221.6,161.5a2.5,2.5,0,0,1-1.7.4,2.5,2.5,0,0,1-2.1-.8,2.9,2.9,0,0,1-.7-2.2,2.9,2.9,0,0,1,.8-2.3,2.8,2.8,0,0,1,2.3-.9,3.5,3.5,0,0,1,1.4.3v1a3,3,0,0,0-1.5-.5,1.9,1.9,0,0,0-1.5.7,2.5,2.5,0,0,0-.6,1.7,2.7,2.7,0,0,0,.6,1.7,2,2,0,0,0,1.5.6,2.4,2.4,0,0,0,1.5-.6Z" transform="translate(0 0.2)" fill="#1e1e1e"/><path d="M227.7,159.1h-4.2a2.1,2.1,0,0,0,.5,1.5,2,2,0,0,0,1.4.6,4,4,0,0,0,1.9-.7v.9a3.9,3.9,0,0,1-2.1.6,2.5,2.5,0,0,1-2-.9,3,3,0,0,1-.7-2.3,2.7,2.7,0,0,1,.8-2.2,2.5,2.5,0,0,1,2-.9,2.1,2.1,0,0,1,1.8.7,2.9,2.9,0,0,1,.6,2.2Zm-1-.9a2.2,2.2,0,0,0-.4-1.3,1.5,1.5,0,0,0-1.1-.4,1.6,1.6,0,0,0-1.1.5,1.6,1.6,0,0,0-.6,1.2Z" transform="translate(0 0.2)" fill="#1e1e1e"/><path d="M228.8,161.6v-1a2.7,2.7,0,0,0,1.7.6c.8,0,1.3-.3,1.3-.9s-.1-.2-.1-.4l-.3-.3-.5-.2-.5-.2-.7-.3a1,1,0,0,1-.5-.4l-.3-.5c-.1-.1-.1-.3-.1-.6a1.9,1.9,0,0,1,.2-.7l.5-.6.7-.3h.9a3.5,3.5,0,0,1,1.4.3v1a3,3,0,0,0-1.5-.5h-.5l-.4.2-.2.2a.8.8,0,0,0-.1.4.6.6,0,0,0,.1.4l.2.3.4.2.5.2.8.3.5.4.3.4a1.9,1.9,0,0,1,.2.7,1.4,1.4,0,0,1-.2.7c-.2.3-.3.5-.6.6l-.7.3h-.9A2.9,2.9,0,0,1,228.8,161.6Z" transform="translate(0 0.2)" fill="#1e1e1e"/><path d="M233.9,161.6v-1a2.7,2.7,0,0,0,1.7.6c.8,0,1.3-.3,1.3-.9s-.1-.2-.1-.4l-.3-.3-.5-.2-.5-.2-.7-.3a1,1,0,0,1-.5-.4l-.3-.5c-.1-.1-.1-.3-.1-.6a1,1,0,0,1,.2-.7l.5-.6.7-.3a3.6,3.6,0,0,1,2.3.2v1a3,3,0,0,0-1.5-.5h-.5l-.4.2-.2.2a.8.8,0,0,0-.1.4.6.6,0,0,0,.1.4l.2.3.4.2.5.2.8.3.5.4.3.4a2.5,2.5,0,0,1,0,1.4,1.7,1.7,0,0,1-.6.6l-.7.3h-.9A2.9,2.9,0,0,1,233.9,161.6Z" transform="translate(0 0.2)" fill="#1e1e1e"/><path d="M245.4,161.8a1.4,1.4,0,0,1-.9.1c-1.1,0-1.6-.5-1.6-1.7v-3.6h-1v-.8h1v-1.5l1-.3v1.8h1.5v.8h-1.5V160a2.9,2.9,0,0,0,.2.9,1,1,0,0,0,.7.2c.2,0,.5,0,.6-.2Z" transform="translate(0 0.2)" fill="#1e1e1e"/><path d="M249.1,162a3.5,3.5,0,0,1-2.2-.8,3.8,3.8,0,0,1-.8-2.3,3.3,3.3,0,0,1,.9-2.3,3.1,3.1,0,0,1,2.2-.9,2.9,2.9,0,0,1,2.1.9,2.9,2.9,0,0,1,.7,2.2,2.9,2.9,0,0,1-2.9,3.2Zm0-5.5a1.6,1.6,0,0,0-1.4.7,2.7,2.7,0,0,0,0,3.4,1.8,1.8,0,0,0,1.4.6,2,2,0,0,0,1.5-.6,3.4,3.4,0,0,0,.5-1.7,3.7,3.7,0,0,0-.5-1.8,2,2,0,0,0-1.5-.6Z" transform="translate(0 0.2)" fill="#1e1e1e"/><path d="M258.5,161.8h-1.3l-2.7-2.9h0v2.9h-1v-8.9h1v5.7h0l2.5-2.8h1.3l-2.8,2.9Z" transform="translate(0 0.2)" fill="#1e1e1e"/><path d="M264,159.1h-4.2a1.7,1.7,0,0,0,.5,1.5,2,2,0,0,0,1.4.6,4,4,0,0,0,1.9-.7v.9a3.9,3.9,0,0,1-2.1.6,2.5,2.5,0,0,1-2-.9,3,3,0,0,1-.7-2.3,2.7,2.7,0,0,1,.8-2.2,2.2,2.2,0,0,1,2-.9,2.1,2.1,0,0,1,1.8.7,3.3,3.3,0,0,1,.6,2.2Zm-1-.9a2.2,2.2,0,0,0-.4-1.3,1.5,1.5,0,0,0-1.1-.4,1.2,1.2,0,0,0-1.1.5,1.6,1.6,0,0,0-.6,1.2Z" transform="translate(0 0.2)" fill="#1e1e1e"/><path d="M270.5,161.8h-1v-3.4c0-1.3-.5-1.9-1.4-1.9a1.7,1.7,0,0,0-1.2.5,1.9,1.9,0,0,0-.5,1.4v3.4h-1v-6h1v1h0a2.1,2.1,0,0,1,2-1.1,1.7,1.7,0,0,1,1.5.6,2.4,2.4,0,0,1,.5,1.8Z" transform="translate(0 0.2)" fill="#1e1e1e"/><use width="20" height="20" transform="matrix(1, 0, 0, -1, 158.55, 179.44)" xlink:href="#e"/><rect y="0.2" width="492.8" height="180.12" fill="#fff"/><rect y="0.5" width="105" height="155" fill="#ebebeb"/><rect x="369.7" y="60" width="105" height="95" fill="#0072c6"/><rect x="369.7" width="105" height="55" fill="#008575"/><line x1="104.6" y1="15" x2="364.2" y2="15" fill="none" stroke="#000" stroke-miterlimit="10"/><polygon points="363.1 18.7 369.6 15 363.1 11.3 363.1 18.7"/><line x1="110" y1="44.9" x2="369.5" y2="44.9" fill="none" stroke="#000" stroke-miterlimit="10"/><polygon points="111.1 48.6 104.6 44.9 111.1 41.1 111.1 48.6"/><line x1="104.6" y1="85.5" x2="364.2" y2="85.5" fill="none" stroke="#000" stroke-miterlimit="10"/><polygon points="363.1 89.2 369.6 85.5 363.1 81.7 363.1 89.2"/><line x1="110" y1="136.1" x2="369.5" y2="136.1" fill="none" stroke="#000" stroke-miterlimit="10"/><polygon points="111.1 139.8 104.6 136.1 111.1 132.4 111.1 139.8"/><path d="M50.5,155.2v7.3c0,4,4.5,7.3,10,7.3l419.1.7a9.9,9.9,0,0,0,10-10V30.3a2.6,2.6,0,0,0-2.8-2.5H480" transform="translate(0 0.2)" fill="none" stroke="#000" stroke-miterlimit="10"/><polygon points="481.1 24.3 474.6 28 481.1 31.7 481.1 24.3"/><path d="M80.2,38.1A34.6,34.6,0,0,0,52.5,24.4a35.7,35.7,0,0,0-21.3,7.2A35,35,0,0,0,52.5,94.3a35.5,35.5,0,0,0,21.3-7.2,35,35,0,0,0,6.6-48.9Zm1.7,29.2-5.3-4.2a7,7,0,0,0-.8-6.4,6.5,6.5,0,0,0-8.5-1.5c-3.1-2.8-6.4-5.9-10-9.5,10.7-5.9,18.6-5.1,19.1-5.1l.3.4A30.6,30.6,0,0,1,81.9,67.3ZM62.7,75.5a6.6,6.6,0,0,0-1.1-2.4,6,6,0,0,0-8-1.4,57,57,0,0,1-8.1-5.4l-.7-.6a9.4,9.4,0,0,0-1.4-9c0-.1-.1-.1-.1-.2s1.2-1.3,1.9-1.9a49.9,49.9,0,0,1,8-6.4h0c3.7,3.5,7.7,6.8,11.5,9.8a6.5,6.5,0,0,0,9.8,8l.4-.4,6.2,4.2a32.5,32.5,0,0,1-3.4,6.7A33,33,0,0,1,62.7,75.5Zm9.4-39.3a32.6,32.6,0,0,0-20.3,3.7c-2.8-2.9-5.7-6.1-8.6-9.4A30.1,30.1,0,0,1,72.1,36.2ZM34,35.3a33.6,33.6,0,0,1,5.1-3.2,63.6,63.6,0,0,0,8.2,10.4,53,53,0,0,0-8.4,7.3l-2.8,3.3a9.4,9.4,0,0,0-4.3,1,25.2,25.2,0,0,1-3.3-13.4A28.1,28.1,0,0,1,34,35.3ZM24.9,46.5A22.1,22.1,0,0,0,28,58a9.3,9.3,0,0,0,.8,10h0a49.3,49.3,0,0,0-1.3,8.7A30.3,30.3,0,0,1,24.9,46.5ZM52.5,89.8A29.5,29.5,0,0,1,33,82.7a42,42,0,0,1,1.5-11.2,9.4,9.4,0,0,0,6.9-1.6l.8.6A48.3,48.3,0,0,0,50.8,76,6.1,6.1,0,0,0,62,80a58.1,58.1,0,0,0,11.7,1.2A21,21,0,0,1,71,83.6,29.5,29.5,0,0,1,52.5,89.8Z" transform="translate(0 0.2)"/><use width="20" height="20" transform="matrix(1, 0, 0, -1, 158.55, 146.03)" xlink:href="#a"/><use width="20" height="20" transform="matrix(1, 0, 0, -1, 158.55, 97.44)" xlink:href="#b"/><use width="20" height="20" transform="matrix(1, 0, 0, -1, 158.55, 24.44)" xlink:href="#c"/><use width="20" height="20" transform="matrix(1, 0, 0, -1, 158.55, 54.33)" xlink:href="#d"/><polygon points="192.2 106 184.7 111.4 187.5 120.2 196.9 120.2 199.8 111.4 192.2 106" fill="#ebebeb" stroke="#000" stroke-miterlimit="10" stroke-width="0.75"/><polygon points="191.2 150.5 183.7 155.9 186.6 164.7 195.9 164.7 198.8 155.9 191.2 150.5" fill="#ebebeb" stroke="#000" stroke-miterlimit="10" stroke-width="0.75"/><use width="20" height="20" transform="matrix(1, 0, 0, -1, 158.55, 179.44)" xlink:href="#e"/><path d="M29.8,114.7H27.9l-3.5-5.3-.4-.7h-.1a5.3,5.3,0,0,1,.1,1.4v4.6H22.2v-8.4h2l3.4,5.1.4.7h0v-5.8h1.8Z" transform="translate(0 0.2)" stroke="#000" stroke-miterlimit="10" stroke-width="0.05"/><path d="M36.5,114.7H34.7v-.9h0a1.9,1.9,0,0,1-1.8,1,1.5,1.5,0,0,1-1.3-.5,1.4,1.4,0,0,1-.5-1.3c0-1.2.7-1.8,2-2l1.7-.2c0-.7-.4-1-1.1-1a3.6,3.6,0,0,0-2,.6V109l1-.3,1.2-.2a2.3,2.3,0,0,1,2.6,2.6Zm-1.7-2.5v-.4l-1.1.2c-.6.1-.9.3-.9.8s0,.4.2.5a.8.8,0,0,0,.6.2,1.1,1.1,0,0,0,.8-.3A1.3,1.3,0,0,0,34.8,112.2Z" transform="translate(0 0.2)" stroke="#000" stroke-miterlimit="10" stroke-width="0.05"/><path d="M43.7,108.7l-2.3,6H39.3l-2.1-6h2l1,3.7a5.8,5.8,0,0,1,.2,1h.1a5.8,5.8,0,0,1,.2-1l1-3.7Z" transform="translate(0 0.2)" stroke="#000" stroke-miterlimit="10" stroke-width="0.05"/><path d="M49.7,112.2H45.8c.1.9.6,1.3,1.7,1.3a2.6,2.6,0,0,0,1.7-.5v1.4a4.4,4.4,0,0,1-2.1.4,2.8,2.8,0,0,1-2.3-.8,3.1,3.1,0,0,1-.8-2.2,3.2,3.2,0,0,1,.9-2.4,2.7,2.7,0,0,1,2.1-.9,2.6,2.6,0,0,1,2,.8,2.8,2.8,0,0,1,.7,2.1ZM48,111.1c0-.9-.3-1.3-1-1.3a.9.9,0,0,0-.8.4,1.9,1.9,0,0,0-.4.9Z" transform="translate(0 0.2)" stroke="#000" stroke-miterlimit="10" stroke-width="0.05"/><path d="M56.7,114a3.6,3.6,0,0,1-.9,2.6,4.1,4.1,0,0,1-2.8.9,5.6,5.6,0,0,1-2-.3v-1.6a3.6,3.6,0,0,0,1.9.5,2,2,0,0,0,1.5-.5,1.7,1.7,0,0,0,.5-1.3v-.5h0a2.2,2.2,0,0,1-1.9,1,1.9,1.9,0,0,1-1.8-.8,2.8,2.8,0,0,1-.7-2.1,3.7,3.7,0,0,1,.7-2.5,2.5,2.5,0,0,1,2-.9,2,2,0,0,1,1.7.9h0v-.7h1.8Zm-1.8-2.2v-.5a1.2,1.2,0,0,0-1.2-1.3,1.3,1.3,0,0,0-1,.4,2.9,2.9,0,0,0-.3,1.4,2.1,2.1,0,0,0,.3,1.2,1.2,1.2,0,0,0,1.8,0A1.6,1.6,0,0,0,54.9,111.8Z" transform="translate(0 0.2)" stroke="#000" stroke-miterlimit="10" stroke-width="0.05"/><path d="M63.3,114.7H61.5v-.9h0a1.9,1.9,0,0,1-1.8,1,1.7,1.7,0,0,1-1.9-1.8c0-1.2.7-1.8,2.1-2l1.6-.2c0-.7-.3-1-1-1a3.9,3.9,0,0,0-2.1.6V109l1.1-.3,1.2-.2a2.3,2.3,0,0,1,2.6,2.6Zm-1.8-2.5v-.4l-1.1.2c-.6.1-.9.3-.9.8a.5.5,0,0,0,.3.5l.5.2a1.2,1.2,0,0,0,.9-.3A1.7,1.7,0,0,0,61.5,112.2Z" transform="translate(0 0.2)" stroke="#000" stroke-miterlimit="10" stroke-width="0.05"/><path d="M70.6,114.7H68.8v-.8h-.1a2,2,0,0,1-1.8.9,1.9,1.9,0,0,1-1.8-.8,2.9,2.9,0,0,1-.7-2.2,3.6,3.6,0,0,1,.7-2.4,2.5,2.5,0,0,1,2-.9,1.6,1.6,0,0,1,1.6.9h.1v-3.6h1.8Zm-1.8-2.9v-.5a1.3,1.3,0,0,0-.4-1,1.1,1.1,0,0,0-.8-.3,1.2,1.2,0,0,0-1,.4,2.9,2.9,0,0,0-.3,1.4,2.1,2.1,0,0,0,.3,1.2,1.2,1.2,0,0,0,1.8,0A1.6,1.6,0,0,0,68.8,111.8Z" transform="translate(0 0.2)" stroke="#000" stroke-miterlimit="10" stroke-width="0.05"/><path d="M75,114.8a3.2,3.2,0,0,1-2.3-.8,3,3,0,0,1-.9-2.3,2.9,2.9,0,0,1,.9-2.3,3.2,3.2,0,0,1,2.4-.9,2.9,2.9,0,0,1,2.3.9,2.8,2.8,0,0,1,.9,2.2,3.2,3.2,0,0,1-.9,2.4A3.6,3.6,0,0,1,75,114.8Zm.1-4.8a1.4,1.4,0,0,0-1.1.4,2.3,2.3,0,0,0-.3,1.3c0,1.1.4,1.7,1.4,1.7s1.3-.6,1.3-1.8S76,110,75.1,110Z" transform="translate(0 0.2)" stroke="#000" stroke-miterlimit="10" stroke-width="0.05"/><path d="M83.4,110.4a1.1,1.1,0,0,0-.8-.2,1,1,0,0,0-.9.4,2.1,2.1,0,0,0-.4,1.2v2.9H79.5v-6h1.8v1.1h.1a1.6,1.6,0,0,1,1.6-1.2h.4Z" transform="translate(0 0.2)" stroke="#000" stroke-miterlimit="10" stroke-width="0.05"/><path d="M37.6,129.1H35.7v-.8h0a2,2,0,0,1-1.8.9,2.2,2.2,0,0,1-1.9-.8,3.4,3.4,0,0,1-.6-2.2,3.6,3.6,0,0,1,.7-2.4,2.5,2.5,0,0,1,2-.9,1.6,1.6,0,0,1,1.6.9h0v-3.6h1.9Zm-1.8-2.9v-.5a1.3,1.3,0,0,0-.4-1,1.2,1.2,0,0,0-.9-.3,1,1,0,0,0-.9.4,2.9,2.9,0,0,0-.4,1.4,2.1,2.1,0,0,0,.4,1.2,1.2,1.2,0,0,0,1.8,0A1.6,1.6,0,0,0,35.8,126.2Z" transform="translate(0 0.2)" stroke="#000" stroke-miterlimit="10" stroke-width="0.05"/><path d="M44.1,129.1H42.4v-.9h0a1.9,1.9,0,0,1-1.8,1,1.6,1.6,0,0,1-1.4-.5,1.7,1.7,0,0,1-.5-1.3c0-1.2.7-1.8,2.1-2l1.6-.2c0-.7-.4-1-1.1-1a3.6,3.6,0,0,0-2,.6v-1.4l1-.3,1.3-.2c1.7,0,2.5.9,2.5,2.6Zm-1.7-2.5v-.4l-1.1.2c-.6.1-.9.3-.9.8a.8.8,0,0,0,.2.5l.6.2a1.2,1.2,0,0,0,.9-.3A1.7,1.7,0,0,0,42.4,126.6Z" transform="translate(0 0.2)" stroke="#000" stroke-miterlimit="10" stroke-width="0.05"/><path d="M60.1,120.7l-2.2,8.4H55.8l-1.4-5.4c-.1-.3-.1-.6-.2-1h0c0,.4-.1.7-.1,1l-1.5,5.4H50.4l-2.2-8.4h2.1l1.2,5.6c0,.2.1.5.1.9h0c.1-.3.1-.6.2-.9l1.5-5.6h2.1l1.3,5.6a6.4,6.4,0,0,1,.2.9h0c0-.3.1-.6.1-.9l1.2-5.6Z" transform="translate(0 0.2)" stroke="#000" stroke-miterlimit="10" stroke-width="0.05"/><path d="M66,126.6H62.1c.1.9.6,1.3,1.7,1.3a2.6,2.6,0,0,0,1.7-.5v1.4a4.4,4.4,0,0,1-2.1.4,2.8,2.8,0,0,1-2.3-.8,3.1,3.1,0,0,1-.8-2.2,3.2,3.2,0,0,1,.9-2.4,2.6,2.6,0,0,1,2.1-.9,2.6,2.6,0,0,1,2,.8,2.8,2.8,0,0,1,.7,2.1Zm-1.7-1.1c0-.9-.3-1.3-1-1.3a.9.9,0,0,0-.8.4,1.9,1.9,0,0,0-.4.9Z" transform="translate(0 0.2)" stroke="#000" stroke-miterlimit="10" stroke-width="0.05"/><path d="M69,128.4h0v.7H67.1v-8.9H69V124h0a2.3,2.3,0,0,1,2-1.1,2.5,2.5,0,0,1,1.8.8,3.8,3.8,0,0,1,.6,2.2,3.6,3.6,0,0,1-.8,2.4,2.2,2.2,0,0,1-1.9.9A2.1,2.1,0,0,1,69,128.4Zm0-2.5v.6a1.2,1.2,0,0,0,.3.9,1,1,0,0,0,.9.4,1.1,1.1,0,0,0,.9-.5,2,2,0,0,0,.4-1.4,1.8,1.8,0,0,0-.3-1.1,1.1,1.1,0,0,0-.9-.4,1.3,1.3,0,0,0-1,.4A1.6,1.6,0,0,0,69,125.9Z" transform="translate(0 0.2)" stroke="#000" stroke-miterlimit="10" stroke-width="0.05"/><path d="M185.5,66.9V65.7l.5.3.6.3h1.2a1.7,1.7,0,0,0,1.3-.4,1.1,1.1,0,0,0,.5-.9.8.8,0,0,0-.2-.6,1,1,0,0,0-.4-.5l-.6-.4-.8-.4-.8-.4-.6-.5a1.8,1.8,0,0,1-.5-.7,1.9,1.9,0,0,1-.2-.8,1.7,1.7,0,0,1,.3-1,2.3,2.3,0,0,1,.7-.7,1.9,1.9,0,0,1,.9-.4h1.1a4.2,4.2,0,0,1,1.8.3v1.1a3,3,0,0,0-1.9-.5h-.7l-.6.2-.4.4a1.9,1.9,0,0,0,0,1.2l.4.4.5.4.8.4.9.5.7.5a1.6,1.6,0,0,1,.4.7,1.1,1.1,0,0,1,.2.8,2.5,2.5,0,0,1-.2,1,1.6,1.6,0,0,1-.7.7,1.5,1.5,0,0,1-.9.4l-1.2.2H186Z" transform="translate(0 0.2)" fill="#1e1e1e" stroke="#1e1e1e" stroke-miterlimit="10" stroke-width="0.06"/><path d="M194.6,67.4a2.6,2.6,0,0,1-2.1-.9,3.1,3.1,0,0,1-.8-2.2,3.6,3.6,0,0,1,.8-2.4,3.4,3.4,0,0,1,2.3-.8,2.4,2.4,0,0,1,2,.8,3.2,3.2,0,0,1,.8,2.3,3.6,3.6,0,0,1-.8,2.3A2.9,2.9,0,0,1,194.6,67.4Zm.1-5.5a2,2,0,0,0-1.5.6,2.9,2.9,0,0,0-.5,1.7,2.6,2.6,0,0,0,.5,1.7,2,2,0,0,0,1.5.6,1.7,1.7,0,0,0,1.4-.6,2.6,2.6,0,0,0,.5-1.7,2.9,2.9,0,0,0-.5-1.7A1.7,1.7,0,0,0,194.7,61.9Z" transform="translate(0 0.2)" fill="#1e1e1e" stroke="#1e1e1e" stroke-miterlimit="10" stroke-width="0.06"/><path d="M200,67.2h-.9V58.3h.9Z" transform="translate(0 0.2)" fill="#1e1e1e" stroke="#1e1e1e" stroke-miterlimit="10" stroke-width="0.06"/><path d="M202.4,59.7l-.5-.2a.6.6,0,0,1-.1-.4.7.7,0,0,1,.1-.5l.5-.2.4.2c.2.1.2.3.2.5a.4.4,0,0,1-.2.4Zm.5,7.5h-1v-6h1Z" transform="translate(0 0.2)" fill="#1e1e1e" stroke="#1e1e1e" stroke-miterlimit="10" stroke-width="0.06"/><path d="M208.8,66.9a2.8,2.8,0,0,1-1.6.5,2.6,2.6,0,0,1-2.1-.9,3,3,0,0,1-.8-2.1,3.2,3.2,0,0,1,.9-2.4,2.8,2.8,0,0,1,2.2-.9,2.9,2.9,0,0,1,1.4.3v.9a2.3,2.3,0,0,0-1.4-.4,2,2,0,0,0-1.5.6,2.8,2.8,0,0,0-.6,1.8,2.1,2.1,0,0,0,.6,1.6,1.7,1.7,0,0,0,1.4.6,2,2,0,0,0,1.5-.5Z" transform="translate(0 0.2)" fill="#1e1e1e" stroke="#1e1e1e" stroke-miterlimit="10" stroke-width="0.06"/><path d="M210.7,59.7a.5.5,0,0,1-.4-.2.4.4,0,0,1-.2-.4c0-.2,0-.4.2-.5a.5.5,0,0,1,.8,0c.2.1.2.3.2.5a.4.4,0,0,1-.2.4A.5.5,0,0,1,210.7,59.7Zm.5,7.5h-1v-6h1Z" transform="translate(0 0.2)" fill="#1e1e1e" stroke="#1e1e1e" stroke-miterlimit="10" stroke-width="0.06"/><path d="M215.8,67.2h-.9c-1,0-1.6-.5-1.6-1.7V62h-1v-.8h1V59.7l1-.3v1.8h1.5V62h-1.5v3.4a2,2,0,0,0,.2.9l.7.2a.7.7,0,0,0,.6-.2Z" transform="translate(0 0.2)" fill="#1e1e1e" stroke="#1e1e1e" stroke-miterlimit="10" stroke-width="0.06"/><path d="M221.3,67.2h-.9v-.9h-.1a2.1,2.1,0,0,1-3.2.6,1.9,1.9,0,0,1-.5-1.3c0-1.1.6-1.8,2-1.9l1.8-.3c0-1-.4-1.5-1.3-1.5a2.8,2.8,0,0,0-1.9.7v-1a4.2,4.2,0,0,1,2-.5c1.4,0,2.1.7,2.1,2.2Zm-.9-3-1.5.2a1.5,1.5,0,0,0-1,.3,1,1,0,0,0-.3.8,1.1,1.1,0,0,0,.3.8,1.1,1.1,0,0,0,.8.2,1.3,1.3,0,0,0,1.2-.5,1.7,1.7,0,0,0,.5-1.2Z" transform="translate(0 0.2)" fill="#1e1e1e" stroke="#1e1e1e" stroke-miterlimit="10" stroke-width="0.06"/><path d="M226.2,62.2l-.7-.2a1.4,1.4,0,0,0-1.1.6,3.4,3.4,0,0,0-.4,1.6v3h-.9v-6h.9v1.2h0a2.2,2.2,0,0,1,.7-.9,1.2,1.2,0,0,1,.9-.4h.6Z" transform="translate(0 0.2)" fill="#1e1e1e" stroke="#1e1e1e" stroke-miterlimit="10" stroke-width="0.06"/><path d="M189.9,79.9a3.1,3.1,0,0,1-1.7.5,2.5,2.5,0,0,1-2-.9,3,3,0,0,1-.8-2.1,3.6,3.6,0,0,1,.8-2.4,3.4,3.4,0,0,1,3.7-.6v.9a2.3,2.3,0,0,0-1.4-.4,2,2,0,0,0-1.5.6,2.8,2.8,0,0,0-.6,1.8,2.5,2.5,0,0,0,.5,1.6,2,2,0,0,0,1.5.6,2.3,2.3,0,0,0,1.5-.5Z" transform="translate(0 0.2)" fill="#1e1e1e" stroke="#1e1e1e" stroke-miterlimit="10" stroke-width="0.06"/><path d="M194.4,75.2l-.7-.2a1.4,1.4,0,0,0-1.1.6,3.4,3.4,0,0,0-.4,1.6v3h-.9v-6h.9v1.2h.1a1.5,1.5,0,0,1,.6-.9,1.2,1.2,0,0,1,.9-.4h.6Z" transform="translate(0 0.2)" fill="#1e1e1e" stroke="#1e1e1e" stroke-miterlimit="10" stroke-width="0.06"/><path d="M200.2,77.5H196a2.5,2.5,0,0,0,.5,1.5,1.6,1.6,0,0,0,1.4.5,3.3,3.3,0,0,0,1.9-.6v.9a3.5,3.5,0,0,1-2.1.6,2.4,2.4,0,0,1-2-.9,3.2,3.2,0,0,1-.7-2.3,2.7,2.7,0,0,1,.8-2.2,2.3,2.3,0,0,1,1.9-.9,2.1,2.1,0,0,1,1.8.7,2.8,2.8,0,0,1,.7,2.1Zm-1-.9a2,2,0,0,0-.4-1.3,1.4,1.4,0,0,0-1.1-.4,1.3,1.3,0,0,0-1.1.5,1.4,1.4,0,0,0-.6,1.2Z" transform="translate(0 0.2)" fill="#1e1e1e" stroke="#1e1e1e" stroke-miterlimit="10" stroke-width="0.06"/><path d="M206.7,80.2h-1v-1h0a2.1,2.1,0,0,1-2.1,1.2,2.3,2.3,0,0,1-1.8-.9,3.3,3.3,0,0,1-.6-2.1,3.6,3.6,0,0,1,.7-2.4,2.5,2.5,0,0,1,2-.9,2,2,0,0,1,1.8.9h0V71.3h1Zm-1-2.7v-.9a1.6,1.6,0,0,0-.4-1.2,1.7,1.7,0,0,0-1.3-.5,1.5,1.5,0,0,0-1.3.6,2.6,2.6,0,0,0-.6,1.8,2.5,2.5,0,0,0,.5,1.6,1.8,1.8,0,0,0,1.3.6,1.4,1.4,0,0,0,1.3-.5A2,2,0,0,0,205.7,77.5Z" transform="translate(0 0.2)" fill="#1e1e1e" stroke="#1e1e1e" stroke-miterlimit="10" stroke-width="0.06"/><path d="M213.4,77.5h-4.2a2,2,0,0,0,.5,1.5,1.6,1.6,0,0,0,1.4.5,3.3,3.3,0,0,0,1.9-.6v.9a3.7,3.7,0,0,1-2.1.6,2.4,2.4,0,0,1-2-.9,3.2,3.2,0,0,1-.7-2.3A2.7,2.7,0,0,1,209,75a2.3,2.3,0,0,1,1.9-.9,2.1,2.1,0,0,1,1.8.7,2.8,2.8,0,0,1,.7,2.1Zm-1-.9a2,2,0,0,0-.4-1.3,1.4,1.4,0,0,0-1.1-.4,1.3,1.3,0,0,0-1.1.5,1.4,1.4,0,0,0-.6,1.2Z" transform="translate(0 0.2)" fill="#1e1e1e" stroke="#1e1e1e" stroke-miterlimit="10" stroke-width="0.06"/><path d="M219.8,80.2h-1V76.8c0-1.3-.5-1.9-1.4-1.9a1.7,1.7,0,0,0-1.2.5,2.2,2.2,0,0,0-.5,1.4v3.4h-.9v-6h.9v1h.1a2.1,2.1,0,0,1,1.9-1.1,1.8,1.8,0,0,1,1.5.6,2.4,2.4,0,0,1,.6,1.8Z" transform="translate(0 0.2)" fill="#1e1e1e" stroke="#1e1e1e" stroke-miterlimit="10" stroke-width="0.06"/><path d="M225.6,79.9a3.1,3.1,0,0,1-1.7.5,2.5,2.5,0,0,1-2-.9,2.6,2.6,0,0,1-.8-2.1,3.6,3.6,0,0,1,.8-2.4,3.4,3.4,0,0,1,3.7-.6v.9a2.5,2.5,0,0,0-1.4-.4,1.8,1.8,0,0,0-1.5.6,2.8,2.8,0,0,0-.6,1.8,2.1,2.1,0,0,0,.5,1.6,2,2,0,0,0,1.5.6,2.3,2.3,0,0,0,1.5-.5Z" transform="translate(0 0.2)" fill="#1e1e1e" stroke="#1e1e1e" stroke-miterlimit="10" stroke-width="0.06"/><path d="M227.5,72.7l-.5-.2a.6.6,0,0,1,0-.9l.5-.2.4.2a.6.6,0,0,1,0,.9Zm.4,7.5H227v-6h.9Z" transform="translate(0 0.2)" fill="#1e1e1e" stroke="#1e1e1e" stroke-miterlimit="10" stroke-width="0.06"/><path d="M234.1,80.2h-1v-.9h0a2.1,2.1,0,0,1-3.2.6,1.6,1.6,0,0,1-.6-1.3c0-1.1.7-1.8,2-1.9l1.8-.3q0-1.5-1.2-1.5a3.1,3.1,0,0,0-2,.7v-1a4.6,4.6,0,0,1,2.1-.5c1.4,0,2.1.7,2.1,2.2Zm-1-3-1.4.2a1.3,1.3,0,0,0-1,.3.8.8,0,0,0-.4.8,1.1,1.1,0,0,0,.3.8,1.8,1.8,0,0,0,2.1-.3,1.6,1.6,0,0,0,.4-1.2Z" transform="translate(0 0.2)" fill="#1e1e1e" stroke="#1e1e1e" stroke-miterlimit="10" stroke-width="0.06"/><path d="M236.3,72.7a.5.5,0,0,1-.4-.2.6.6,0,0,1,0-.9l.4-.2.5.2a.6.6,0,0,1,0,.9Zm.5,7.5h-1v-6h1Z" transform="translate(0 0.2)" fill="#1e1e1e" stroke="#1e1e1e" stroke-miterlimit="10" stroke-width="0.06"/><path d="M238.3,80V79a2.6,2.6,0,0,0,1.7.5c.9,0,1.3-.2,1.3-.8s0-.3-.1-.4l-.3-.3-.4-.2-.6-.2-.7-.4-.5-.3-.3-.5a1.3,1.3,0,0,1-.1-.6,1.4,1.4,0,0,1,.2-.7c.1-.3.3-.4.5-.6l.8-.3h.8l1.4.2v1a2.4,2.4,0,0,0-1.5-.4H240l-.4.2c-.1.1-.2.2-.2.3a.4.4,0,0,0-.1.3c0,.2,0,.3.1.4s.1.2.2.3l.4.2.6.2.7.4.5.3a1,1,0,0,1,.4.5c0,.2.1.4.1.6a1.9,1.9,0,0,1-.2.8,1.2,1.2,0,0,1-.5.5,1.3,1.3,0,0,1-.8.3l-.9.2A4.2,4.2,0,0,1,238.3,80Z" transform="translate(0 0.2)" fill="#1e1e1e" stroke="#1e1e1e" stroke-miterlimit="10" stroke-width="0.06"/><path d="M209.1,109.1h-2.4v7.5h-1v-7.5h-2.4v-.9h5.8Z" transform="translate(0 0.2)" fill="#1e1e1e" stroke="#1e1e1e" stroke-miterlimit="10" stroke-width="0.06"/><path d="M211.6,116.8a2.6,2.6,0,0,1-2.1-.9,3.1,3.1,0,0,1-.8-2.2,3.6,3.6,0,0,1,.8-2.4,3.4,3.4,0,0,1,2.3-.8,2.5,2.5,0,0,1,2.1.8,3.2,3.2,0,0,1,.7,2.3,3.6,3.6,0,0,1-.8,2.3A2.8,2.8,0,0,1,211.6,116.8Zm.1-5.5a2,2,0,0,0-1.5.6,2.9,2.9,0,0,0-.5,1.7,2.6,2.6,0,0,0,.5,1.7,2,2,0,0,0,1.5.6,1.7,1.7,0,0,0,1.4-.6,2.2,2.2,0,0,0,.5-1.7,2.3,2.3,0,0,0-.5-1.7A1.7,1.7,0,0,0,211.7,111.3Z" transform="translate(0 0.2)" fill="#1e1e1e" stroke="#1e1e1e" stroke-miterlimit="10" stroke-width="0.06"/><path d="M221.1,116.6h-1.4l-2.6-2.9h0v2.9h-1v-8.9h1v5.7h0l2.5-2.8h1.3l-2.8,2.9Z" transform="translate(0 0.2)" fill="#1e1e1e" stroke="#1e1e1e" stroke-miterlimit="10" stroke-width="0.06"/><path d="M226.9,113.9h-4.3a2.5,2.5,0,0,0,.6,1.5,1.6,1.6,0,0,0,1.4.5,3.3,3.3,0,0,0,1.9-.6v.9a3.7,3.7,0,0,1-2.1.6,2.4,2.4,0,0,1-2-.9,3.2,3.2,0,0,1-.8-2.3,3.1,3.1,0,0,1,.8-2.2,2.7,2.7,0,0,1,2-.9,2.1,2.1,0,0,1,1.8.7,2.8,2.8,0,0,1,.7,2.1Zm-1-.9a2,2,0,0,0-.4-1.3,1.4,1.4,0,0,0-1.1-.4,1.5,1.5,0,0,0-1.2.5,1.7,1.7,0,0,0-.5,1.2Z" transform="translate(0 0.2)" fill="#1e1e1e" stroke="#1e1e1e" stroke-miterlimit="10" stroke-width="0.06"/><path d="M233.3,116.6h-1v-3.4c0-1.3-.4-1.9-1.4-1.9a2.1,2.1,0,0,0-1.2.5,2.1,2.1,0,0,0-.4,1.4v3.4h-1v-6h1v1h0a2.2,2.2,0,0,1,2-1.1,2,2,0,0,1,1.5.6,3,3,0,0,1,.5,1.8Z" transform="translate(0 0.2)" fill="#1e1e1e" stroke="#1e1e1e" stroke-miterlimit="10" stroke-width="0.06"/><path d="M243.5,116.6h-1v-1h0a2.4,2.4,0,0,1-2.1,1.2,2.3,2.3,0,0,1-1.8-.9,3.3,3.3,0,0,1-.7-2.1,3.6,3.6,0,0,1,.8-2.4,2.4,2.4,0,0,1,2-.9,2,2,0,0,1,1.8.9h0v-3.7h1Zm-1-2.7V113a1.7,1.7,0,0,0-.5-1.2,1.3,1.3,0,0,0-1.2-.5,1.8,1.8,0,0,0-1.4.6,3.2,3.2,0,0,0-.5,1.8,2.5,2.5,0,0,0,.5,1.6,1.6,1.6,0,0,0,1.3.6,1.5,1.5,0,0,0,1.3-.5A2.5,2.5,0,0,0,242.5,113.9Z" transform="translate(0 0.2)" fill="#1e1e1e" stroke="#1e1e1e" stroke-miterlimit="10" stroke-width="0.06"/><path d="M250.2,113.9H246a2.5,2.5,0,0,0,.5,1.5,1.6,1.6,0,0,0,1.4.5,3.3,3.3,0,0,0,1.9-.6v.9a3.3,3.3,0,0,1-2.1.6,2.4,2.4,0,0,1-2-.9,3.2,3.2,0,0,1-.7-2.3,2.7,2.7,0,0,1,.8-2.2,2.5,2.5,0,0,1,1.9-.9,2.5,2.5,0,0,1,1.9.7,3.3,3.3,0,0,1,.6,2.1Zm-1-.9a2,2,0,0,0-.4-1.3,1.2,1.2,0,0,0-1.1-.4,1.3,1.3,0,0,0-1.1.5,1.7,1.7,0,0,0-.6,1.2Z" transform="translate(0 0.2)" fill="#1e1e1e" stroke="#1e1e1e" stroke-miterlimit="10" stroke-width="0.06"/><path d="M259.2,116.6h-1v-.9h0a2.1,2.1,0,0,1-3.2.6,1.5,1.5,0,0,1-.5-1.3,1.8,1.8,0,0,1,1.9-1.9l1.8-.3q0-1.5-1.2-1.5a3.1,3.1,0,0,0-2,.7v-1a4.6,4.6,0,0,1,2.1-.5c1.4,0,2.1.7,2.1,2.2Zm-1-3-1.4.2a1.3,1.3,0,0,0-1,.3.8.8,0,0,0-.4.8,1.1,1.1,0,0,0,.3.8,1.8,1.8,0,0,0,2.1-.3,1.6,1.6,0,0,0,.4-1.2Z" transform="translate(0 0.2)" fill="#1e1e1e" stroke="#1e1e1e" stroke-miterlimit="10" stroke-width="0.06"/><path d="M265.1,116.3a3.1,3.1,0,0,1-1.7.5,2.5,2.5,0,0,1-2-.9,2.6,2.6,0,0,1-.8-2.1,3.2,3.2,0,0,1,.8-2.4,3,3,0,0,1,2.3-.9,3.2,3.2,0,0,1,1.4.3v.9a2.6,2.6,0,0,0-1.5-.4,2,2,0,0,0-1.5.6,2.7,2.7,0,0,0-.5,1.8,2.1,2.1,0,0,0,.5,1.6,2,2,0,0,0,1.5.6,2.3,2.3,0,0,0,1.5-.5Z" transform="translate(0 0.2)" fill="#1e1e1e" stroke="#1e1e1e" stroke-miterlimit="10" stroke-width="0.06"/><path d="M271.3,113.9h-4.2a2.5,2.5,0,0,0,.5,1.5,1.7,1.7,0,0,0,1.4.5,3.3,3.3,0,0,0,1.9-.6v.9a3.3,3.3,0,0,1-2.1.6,2.5,2.5,0,0,1-2-.9,3.2,3.2,0,0,1-.7-2.3,3.1,3.1,0,0,1,.8-2.2,2.5,2.5,0,0,1,2-.9,2.4,2.4,0,0,1,1.8.7,3.3,3.3,0,0,1,.6,2.1Zm-1-.9a2,2,0,0,0-.4-1.3,1.2,1.2,0,0,0-1.1-.4,1.3,1.3,0,0,0-1.1.5,2.3,2.3,0,0,0-.6,1.2Z" transform="translate(0 0.2)" fill="#1e1e1e" stroke="#1e1e1e" stroke-miterlimit="10" stroke-width="0.06"/><path d="M272.4,116.4v-1a2.6,2.6,0,0,0,1.7.5c.9,0,1.3-.2,1.3-.8s-.1-.3-.1-.4l-.3-.3-.5-.2-.5-.2-.7-.4-.5-.3-.3-.5a1.3,1.3,0,0,1-.1-.6,1.4,1.4,0,0,1,.2-.7c.1-.3.3-.4.5-.6l.7-.3h.9l1.4.2v1a2.8,2.8,0,0,0-1.5-.4h-.5l-.4.2-.2.3a.4.4,0,0,0-.1.3c0,.2,0,.3.1.4l.2.3.4.2.5.2.8.4.5.3a.9.9,0,0,1,.3.5,1.4,1.4,0,0,1,.2.6,1.9,1.9,0,0,1-.2.8c-.2.2-.3.4-.6.5a.9.9,0,0,1-.7.3l-.9.2A3.8,3.8,0,0,1,272.4,116.4Z" transform="translate(0 0.2)" fill="#1e1e1e" stroke="#1e1e1e" stroke-miterlimit="10" stroke-width="0.06"/><path d="M277.5,116.4v-1a2.6,2.6,0,0,0,1.7.5c.8,0,1.2-.2,1.2-.8s0-.3-.1-.4-.1-.2-.3-.3a.5.5,0,0,0-.4-.2l-.5-.2-.7-.4-.5-.3c-.2-.2-.3-.3-.3-.5a1.3,1.3,0,0,1-.1-.6.8.8,0,0,1,.2-.7c.1-.3.3-.4.5-.6l.7-.3h.9l1.4.2v1a2.9,2.9,0,0,0-1.6-.4h-.5l-.3.2-.3.3c0,.1-.1.2-.1.3s.1.3.1.4l.3.3.4.2.5.2.7.4.6.3.3.5a1.3,1.3,0,0,1,.1.6,1.1,1.1,0,0,1-.2.8,1.2,1.2,0,0,1-.5.5,1.1,1.1,0,0,1-.7.3l-.9.2A3.4,3.4,0,0,1,277.5,116.4Z" transform="translate(0 0.2)" fill="#1e1e1e" stroke="#1e1e1e" stroke-miterlimit="10" stroke-width="0.06"/><path d="M285.4,116.8a2.6,2.6,0,0,1-2.1-.9,2.7,2.7,0,0,1-.8-2.2,3.2,3.2,0,0,1,.8-2.4,3.1,3.1,0,0,1,2.2-.8,2.5,2.5,0,0,1,2.1.8,3.2,3.2,0,0,1,.8,2.3,3.6,3.6,0,0,1-.8,2.3A2.9,2.9,0,0,1,285.4,116.8Zm.1-5.5a1.9,1.9,0,0,0-1.5.6,2.3,2.3,0,0,0-.5,1.7,2.2,2.2,0,0,0,.5,1.7,2,2,0,0,0,1.5.6,1.7,1.7,0,0,0,1.4-.6,2.6,2.6,0,0,0,.5-1.7,2.9,2.9,0,0,0-.5-1.7A1.7,1.7,0,0,0,285.5,111.3Z" transform="translate(0 0.2)" fill="#1e1e1e" stroke="#1e1e1e" stroke-miterlimit="10" stroke-width="0.06"/><path d="M299,113.5h-2.3v2.4h-.8v-2.4h-2.4v-.8h2.4v-2.3h.8v2.3H299Z" transform="translate(0 0.2)" fill="#1e1e1e" stroke="#1e1e1e" stroke-miterlimit="10" stroke-width="0.06"/><path d="M310.9,113.2c0,2.4-1.1,3.6-3.2,3.6s-3.1-1.2-3.1-3.5v-5.1h1v5.1c0,1.7.7,2.6,2.2,2.6s2.1-.9,2.1-2.5v-5.2h1Z" transform="translate(0 0.2)" fill="#1e1e1e" stroke="#1e1e1e" stroke-miterlimit="10" stroke-width="0.06"/><path d="M319,116.6h-1.2l-1.4-2.3c-.1-.3-.3-.4-.4-.6l-.4-.4-.4-.2h-1.3v3.6H313v-8.4h3.5l.8.5a1.8,1.8,0,0,1,.5.7,2.4,2.4,0,0,1,.2.9,2.8,2.8,0,0,1-.1.9,2.1,2.1,0,0,1-.4.6l-.6.5-.8.3h0l.4.2.3.3.3.4.3.5Zm-5.1-7.5v3H316c.2,0,.3-.1.5-.3l.4-.5c0-.2.1-.4.1-.7a1.2,1.2,0,0,0-.5-1,1.5,1.5,0,0,0-1.2-.4Z" transform="translate(0 0.2)" fill="#1e1e1e" stroke="#1e1e1e" stroke-miterlimit="10" stroke-width="0.06"/><path d="M324.5,116.6h-4.4v-8.4h1v7.5h3.4Z" transform="translate(0 0.2)" fill="#1e1e1e" stroke="#1e1e1e" stroke-miterlimit="10" stroke-width="0.06"/><path d="M209.1,130.1h-.9v-1h0a2.4,2.4,0,0,1-2.1,1.2,2,2,0,0,1-1.8-.9,2.8,2.8,0,0,1-.7-2.1,3.6,3.6,0,0,1,.8-2.4,2.4,2.4,0,0,1,2-.9,2,2,0,0,1,1.8.9h0v-3.7h.9Zm-.9-2.7v-.9a1.7,1.7,0,0,0-.5-1.2,1.3,1.3,0,0,0-1.2-.5,1.7,1.7,0,0,0-1.4.6,3.2,3.2,0,0,0-.5,1.8,2.5,2.5,0,0,0,.5,1.6,1.5,1.5,0,0,0,1.3.6,1.7,1.7,0,0,0,1.3-.5A2.5,2.5,0,0,0,208.2,127.4Z" transform="translate(0 0.2)" fill="#1e1e1e" stroke="#1e1e1e" stroke-miterlimit="10" stroke-width="0.06"/><path d="M215.9,127.4h-4.3a2.5,2.5,0,0,0,.6,1.5,1.6,1.6,0,0,0,1.4.5,3.3,3.3,0,0,0,1.9-.6v.9a3.7,3.7,0,0,1-2.1.6,2.4,2.4,0,0,1-2-.9,3.2,3.2,0,0,1-.7-2.3,3.1,3.1,0,0,1,.7-2.2,2.7,2.7,0,0,1,2-.9,2.1,2.1,0,0,1,1.8.7,2.8,2.8,0,0,1,.7,2.1Zm-1-.9a2,2,0,0,0-.4-1.3,1.4,1.4,0,0,0-1.1-.4,1.5,1.5,0,0,0-1.2.5,1.7,1.7,0,0,0-.5,1.2Z" transform="translate(0 0.2)" fill="#1e1e1e" stroke="#1e1e1e" stroke-miterlimit="10" stroke-width="0.06"/><path d="M223.7,125.1l-.7-.2a1.4,1.4,0,0,0-1.1.6,3.4,3.4,0,0,0-.4,1.6v3h-.9v-6h.9v1.2h.1a1.5,1.5,0,0,1,.6-.9,1.2,1.2,0,0,1,.9-.4h.6Z" transform="translate(0 0.2)" fill="#1e1e1e" stroke="#1e1e1e" stroke-miterlimit="10" stroke-width="0.06"/><path d="M229.5,127.4h-4.2a2.5,2.5,0,0,0,.5,1.5,2,2,0,0,0,1.5.5,3,3,0,0,0,1.8-.6v.9a3.3,3.3,0,0,1-2.1.6,2.5,2.5,0,0,1-2-.9,3.7,3.7,0,0,1-.7-2.3,3.1,3.1,0,0,1,.8-2.2,2.5,2.5,0,0,1,2-.9,2.1,2.1,0,0,1,1.8.7,3.3,3.3,0,0,1,.6,2.1Zm-.9-.9a2.8,2.8,0,0,0-.4-1.3,1.5,1.5,0,0,0-1.1-.4,1.3,1.3,0,0,0-1.2.5,2.3,2.3,0,0,0-.6,1.2Z" transform="translate(0 0.2)" fill="#1e1e1e" stroke="#1e1e1e" stroke-miterlimit="10" stroke-width="0.06"/><path d="M236.1,130.1h-1v-1h0a2.1,2.1,0,0,1-2.1,1.2,2.3,2.3,0,0,1-1.8-.9,3.3,3.3,0,0,1-.6-2.1,3.6,3.6,0,0,1,.7-2.4,2.5,2.5,0,0,1,2-.9,2,2,0,0,1,1.8.9h0v-3.7h1Zm-1-2.7v-.9a1.6,1.6,0,0,0-.4-1.2,1.7,1.7,0,0,0-1.3-.5,1.5,1.5,0,0,0-1.3.6,2.6,2.6,0,0,0-.6,1.8,2.5,2.5,0,0,0,.5,1.6,1.8,1.8,0,0,0,1.3.6,1.4,1.4,0,0,0,1.3-.5A2,2,0,0,0,235.1,127.4Z" transform="translate(0 0.2)" fill="#1e1e1e" stroke="#1e1e1e" stroke-miterlimit="10" stroke-width="0.06"/><path d="M238.5,122.6l-.4-.2a.4.4,0,0,1-.2-.4c0-.2,0-.4.2-.5l.4-.2.5.2a.7.7,0,0,1,.1.5.6.6,0,0,1-.1.4Zm.5,7.5h-1v-6h1Z" transform="translate(0 0.2)" fill="#1e1e1e" stroke="#1e1e1e" stroke-miterlimit="10" stroke-width="0.06"/><path d="M244,125.1l-.7-.2a1.1,1.1,0,0,0-1,.6,2.5,2.5,0,0,0-.4,1.6v3h-1v-6h1v1.2h0a1.5,1.5,0,0,1,.6-.9,1.3,1.3,0,0,1,1-.4h.5Z" transform="translate(0 0.2)" fill="#1e1e1e" stroke="#1e1e1e" stroke-miterlimit="10" stroke-width="0.06"/><path d="M249.9,127.4h-4.3a2,2,0,0,0,.6,1.5,1.6,1.6,0,0,0,1.4.5,3.3,3.3,0,0,0,1.9-.6v.9a3.7,3.7,0,0,1-2.1.6,2.3,2.3,0,0,1-2-.9,3.2,3.2,0,0,1-.8-2.3,3.1,3.1,0,0,1,.8-2.2,2.7,2.7,0,0,1,2-.9,2.1,2.1,0,0,1,1.8.7,2.8,2.8,0,0,1,.7,2.1Zm-1-.9a2.8,2.8,0,0,0-.4-1.3,1.4,1.4,0,0,0-1.1-.4,1.3,1.3,0,0,0-1.2.5,2.3,2.3,0,0,0-.6,1.2Z" transform="translate(0 0.2)" fill="#1e1e1e" stroke="#1e1e1e" stroke-miterlimit="10" stroke-width="0.06"/><path d="M255.4,129.8a3.1,3.1,0,0,1-1.7.5,2.5,2.5,0,0,1-2-.9,3,3,0,0,1-.8-2.1,3.6,3.6,0,0,1,.8-2.4,3.4,3.4,0,0,1,3.7-.6v.9a2.3,2.3,0,0,0-1.4-.4,2,2,0,0,0-1.5.6,2.8,2.8,0,0,0-.6,1.8,2.5,2.5,0,0,0,.5,1.6,2,2,0,0,0,1.5.6,2.3,2.3,0,0,0,1.5-.5Z" transform="translate(0 0.2)" fill="#1e1e1e" stroke="#1e1e1e" stroke-miterlimit="10" stroke-width="0.06"/><path d="M257.3,122.6l-.4-.2a.4.4,0,0,1-.2-.4c0-.2,0-.4.2-.5l.4-.2.5.2a.7.7,0,0,1,.1.5.6.6,0,0,1-.1.4Zm.5,7.5h-1v-6h1Z" transform="translate(0 0.2)" fill="#1e1e1e" stroke="#1e1e1e" stroke-miterlimit="10" stroke-width="0.06"/><path d="M262.2,130.3a2.6,2.6,0,0,1-2.1-.9,3.1,3.1,0,0,1-.8-2.2,3.6,3.6,0,0,1,.8-2.4,3.3,3.3,0,0,1,2.2-.8,2.5,2.5,0,0,1,2.1.8,3.2,3.2,0,0,1,.8,2.3,3.6,3.6,0,0,1-.8,2.3A2.9,2.9,0,0,1,262.2,130.3Zm.1-5.5a2,2,0,0,0-1.5.6,2.9,2.9,0,0,0-.5,1.7,2.6,2.6,0,0,0,.5,1.7,2,2,0,0,0,1.5.6,1.7,1.7,0,0,0,1.4-.6,2.6,2.6,0,0,0,.5-1.7,2.9,2.9,0,0,0-.5-1.7A1.7,1.7,0,0,0,262.3,124.8Z" transform="translate(0 0.2)" fill="#1e1e1e" stroke="#1e1e1e" stroke-miterlimit="10" stroke-width="0.06"/><path d="M271.7,130.1h-1v-3.4c0-1.3-.4-1.9-1.4-1.9a2.1,2.1,0,0,0-1.2.5,2.1,2.1,0,0,0-.4,1.4v3.4h-1v-6h1v1h0a2.2,2.2,0,0,1,2-1.1,2,2,0,0,1,1.5.6,3,3,0,0,1,.5,1.8Z" transform="translate(0 0.2)" fill="#1e1e1e" stroke="#1e1e1e" stroke-miterlimit="10" stroke-width="0.06"/><path d="M277.8,130.1h-1v-.9h0a2,2,0,0,1-1.9,1.1,2.2,2.2,0,0,1-1.4-.5,1.9,1.9,0,0,1-.5-1.3c0-1.1.7-1.8,2-1.9l1.8-.3q0-1.5-1.2-1.5a2.9,2.9,0,0,0-2,.7v-1a4.6,4.6,0,0,1,2.1-.5c1.4,0,2.1.7,2.1,2.2Zm-1-3-1.4.2a1.3,1.3,0,0,0-1,.3.8.8,0,0,0-.4.8,1.1,1.1,0,0,0,.3.8c.2.2.5.2.9.2a1.3,1.3,0,0,0,1.1-.5,1.3,1.3,0,0,0,.5-1.2Z" transform="translate(0 0.2)" fill="#1e1e1e" stroke="#1e1e1e" stroke-miterlimit="10" stroke-width="0.06"/><path d="M288.1,130.1h-1v-3.4a2.8,2.8,0,0,0-.3-1.5,1.1,1.1,0,0,0-1-.4,1.6,1.6,0,0,0-1.1.5,2.3,2.3,0,0,0-.4,1.4v3.4h-1v-3.6c0-1.1-.4-1.7-1.3-1.7a1.4,1.4,0,0,0-1.1.5,2.9,2.9,0,0,0-.4,1.4v3.4h-.9v-6h.9v1h0a2.1,2.1,0,0,1,1.9-1.1,2,2,0,0,1,1.1.3,1.5,1.5,0,0,1,.6.9,2.1,2.1,0,0,1,2-1.2c1.3,0,2,.8,2,2.4Z" transform="translate(0 0.2)" fill="#1e1e1e" stroke="#1e1e1e" stroke-miterlimit="10" stroke-width="0.06"/><path d="M294.7,127.4h-4.2a2,2,0,0,0,.5,1.5,1.6,1.6,0,0,0,1.4.5,3.3,3.3,0,0,0,1.9-.6v.9a3.7,3.7,0,0,1-2.1.6,2.4,2.4,0,0,1-2-.9,3.2,3.2,0,0,1-.7-2.3,2.7,2.7,0,0,1,.8-2.2,2.3,2.3,0,0,1,1.9-.9,2.1,2.1,0,0,1,1.8.7,2.8,2.8,0,0,1,.7,2.1Zm-1-.9a2,2,0,0,0-.4-1.3,1.4,1.4,0,0,0-1.1-.4,1.3,1.3,0,0,0-1.1.5,1.4,1.4,0,0,0-.6,1.2Z" transform="translate(0 0.2)" fill="#1e1e1e" stroke="#1e1e1e" stroke-miterlimit="10" stroke-width="0.06"/><path d="M301.1,130.1h-1v-3.4c0-1.3-.4-1.9-1.4-1.9a1.6,1.6,0,0,0-1.1.5,1.7,1.7,0,0,0-.5,1.4v3.4h-1v-6h1v1h0a2.3,2.3,0,0,1,2-1.1,2,2,0,0,1,1.5.6,3,3,0,0,1,.5,1.8Z" transform="translate(0 0.2)" fill="#1e1e1e" stroke="#1e1e1e" stroke-miterlimit="10" stroke-width="0.06"/><path d="M305.7,130.1h-.9c-1.1,0-1.6-.5-1.6-1.7v-3.6h-1v-.8h1v-1.5l1-.3v1.8h1.5v.8h-1.5v3.4c0,.4,0,.7.2.9l.6.2a.8.8,0,0,0,.7-.2Z" transform="translate(0 0.2)" fill="#1e1e1e" stroke="#1e1e1e" stroke-miterlimit="10" stroke-width="0.06"/><path d="M309.4,130.3a2.6,2.6,0,0,1-2.1-.9,3.1,3.1,0,0,1-.8-2.2,3.6,3.6,0,0,1,.8-2.4,3.4,3.4,0,0,1,2.3-.8,2.5,2.5,0,0,1,2.1.8,3.2,3.2,0,0,1,.7,2.3,3.1,3.1,0,0,1-.8,2.3A2.8,2.8,0,0,1,309.4,130.3Zm.1-5.5a2,2,0,0,0-1.5.6,2.9,2.9,0,0,0-.5,1.7,2.6,2.6,0,0,0,.5,1.7,2,2,0,0,0,1.5.6,1.7,1.7,0,0,0,1.4-.6,2.2,2.2,0,0,0,.5-1.7,2.3,2.3,0,0,0-.5-1.7A1.7,1.7,0,0,0,309.5,124.8Z" transform="translate(0 0.2)" fill="#1e1e1e" stroke="#1e1e1e" stroke-miterlimit="10" stroke-width="0.06"/><path d="M384.3,93.6v2.9h-1.9V88.1h3c2.1,0,3.1.9,3.1,2.7a2.5,2.5,0,0,1-.9,2,3.6,3.6,0,0,1-2.4.8Zm0-4v2.6h.7c1,0,1.5-.5,1.5-1.4s-.5-1.2-1.5-1.2Z" transform="translate(0 0.2)" fill="#fff" stroke="#fff" stroke-miterlimit="10" stroke-width="0.05"/><path d="M391.4,96.5h-1.8V87.6h1.8Z" transform="translate(0 0.2)" fill="#fff" stroke="#fff" stroke-miterlimit="10" stroke-width="0.05"/><path d="M398,96.5h-1.8v-.9h0a1.9,1.9,0,0,1-1.8,1,1.7,1.7,0,0,1-1.3-.4,1.7,1.7,0,0,1-.5-1.4c0-1.1.6-1.8,2-2l1.6-.2c0-.7-.3-1-1-1a3.5,3.5,0,0,0-2.1.7V90.9l1.1-.4h1.2c1.7,0,2.6.8,2.6,2.5Zm-1.8-2.4v-.4h-1c-.6.1-.9.3-.9.8s0,.4.2.5.3.2.6.2a1.1,1.1,0,0,0,.8-.3A1.6,1.6,0,0,0,396.2,94.1Z" transform="translate(0 0.2)" fill="#fff" stroke="#fff" stroke-miterlimit="10" stroke-width="0.05"/><path d="M403.1,96.4a2.4,2.4,0,0,1-1.3.2c-1.3,0-1.9-.6-1.9-2V91.9h-1V90.5h1V89.2l1.8-.5v1.8h1.4v1.4h-1.4v2.4c0,.6.3.9.8.9h.6Z" transform="translate(0 0.2)" fill="#fff" stroke="#fff" stroke-miterlimit="10" stroke-width="0.05"/><path d="M409.1,96.5h-1.7v-.9h-.1a1.9,1.9,0,0,1-1.7,1,2,2,0,0,1-1.4-.4,1.7,1.7,0,0,1-.5-1.4c0-1.1.7-1.8,2-2l1.7-.2c0-.7-.4-1-1.1-1a3.1,3.1,0,0,0-2,.7V90.9a2.3,2.3,0,0,1,1-.4h1.2c1.8,0,2.6.8,2.6,2.5Zm-1.7-2.4v-.4h-1.1c-.6.1-.9.3-.9.8a.8.8,0,0,0,.2.5c.2.2.3.2.6.2a1.1,1.1,0,0,0,.8-.3A1.2,1.2,0,0,0,407.4,94.1Z" transform="translate(0 0.2)" fill="#fff" stroke="#fff" stroke-miterlimit="10" stroke-width="0.05"/><path d="M414.5,89h-.7c-.6,0-.9.3-.9,1v.6h1.4v1.4h-1.4v4.6h-1.8V91.9h-1V90.5h1v-.7a2.4,2.4,0,0,1,.6-1.7,2.9,2.9,0,0,1,1.9-.6h.9Z" transform="translate(0 0.2)" fill="#fff" stroke="#fff" stroke-miterlimit="10" stroke-width="0.05"/><path d="M418,96.6a3,3,0,0,1-2.3-.8,3.4,3.4,0,0,1,0-4.6,4,4,0,0,1,4.8,0,3.3,3.3,0,0,1,.8,2.2,3.2,3.2,0,0,1-.9,2.4A2.9,2.9,0,0,1,418,96.6Zm.1-4.8a1.1,1.1,0,0,0-1,.4,1.7,1.7,0,0,0-.4,1.3c0,1.2.5,1.7,1.4,1.7s1.3-.6,1.3-1.7S419,91.8,418.1,91.8Z" transform="translate(0 0.2)" fill="#fff" stroke="#fff" stroke-miterlimit="10" stroke-width="0.05"/><path d="M426.4,92.2a1,1,0,0,0-.7-.2,1.1,1.1,0,0,0-1,.4,2.1,2.1,0,0,0-.3,1.2v2.9h-1.9v-6h1.9v1.1h0a1.6,1.6,0,0,1,1.6-1.2h.4Z" transform="translate(0 0.2)" fill="#fff" stroke="#fff" stroke-miterlimit="10" stroke-width="0.05"/><path d="M436.9,96.5H435V93.1c0-.9-.3-1.3-1-1.3a.8.8,0,0,0-.7.4,1.4,1.4,0,0,0-.3.9v3.4h-1.8V93c0-.8-.3-1.2-1-1.2a.9.9,0,0,0-.7.3,1.8,1.8,0,0,0-.3,1.1v3.3h-1.9v-6h1.9v.9h0a2.7,2.7,0,0,1,.8-.7,2.3,2.3,0,0,1,1.1-.3,1.7,1.7,0,0,1,1.8,1.1,2,2,0,0,1,2-1.1c1.3,0,2,.8,2,2.4Z" transform="translate(0 0.2)" fill="#fff" stroke="#fff" stroke-miterlimit="10" stroke-width="0.05"/><path d="M443.3,96.5h-1.7v-.9h-.1a1.9,1.9,0,0,1-1.8,1,1.8,1.8,0,0,1-1.3-.4,1.7,1.7,0,0,1-.5-1.4c0-1.1.7-1.8,2-2l1.7-.2c0-.7-.4-1-1.1-1a3.1,3.1,0,0,0-2,.7V90.9a2.3,2.3,0,0,1,1-.4h1.2c1.8,0,2.6.8,2.6,2.5Zm-1.7-2.4v-.4h-1.1c-.6.1-.9.3-.9.8a.8.8,0,0,0,.2.5c.1.2.3.2.6.2a1.1,1.1,0,0,0,.8-.3A1.2,1.2,0,0,0,441.6,94.1Z" transform="translate(0 0.2)" fill="#fff" stroke="#fff" stroke-miterlimit="10" stroke-width="0.05"/><path d="M454,96.5h-1.9v-.8h0a2.2,2.2,0,0,1-1.9.9,2.4,2.4,0,0,1-1.8-.7,3.9,3.9,0,0,1-.7-2.3,3.2,3.2,0,0,1,.8-2.3,2.4,2.4,0,0,1,2-.9,1.6,1.6,0,0,1,1.6.8h0V87.6H454Zm-1.9-2.9v-.5a1.2,1.2,0,0,0-.3-.9,1,1,0,0,0-.9-.4.9.9,0,0,0-.9.5,1.7,1.7,0,0,0-.4,1.3,2.1,2.1,0,0,0,.3,1.2,1.3,1.3,0,0,0,1,.4,1.1,1.1,0,0,0,.9-.4A2.1,2.1,0,0,0,452.1,93.6Z" transform="translate(0 0.2)" fill="#fff" stroke="#fff" stroke-miterlimit="10" stroke-width="0.05"/><path d="M460.9,94H457c.1.9.6,1.3,1.6,1.3a3.4,3.4,0,0,0,1.8-.4v1.3a4.8,4.8,0,0,1-2.2.4,2.8,2.8,0,0,1-3-3,3.2,3.2,0,0,1,.8-2.4,2.9,2.9,0,0,1,2.2-.8,2.7,2.7,0,0,1,2,.7,3.1,3.1,0,0,1,.7,2.1Zm-1.7-1.1c0-.9-.4-1.3-1.1-1.3a.9.9,0,0,0-.7.4,1.3,1.3,0,0,0-.4.9Z" transform="translate(0 0.2)" fill="#fff" stroke="#fff" stroke-miterlimit="10" stroke-width="0.05"/><path d="M384.2,104.1a1.1,1.1,0,0,1-.8-.3,1,1,0,0,1,0-1.4,1.2,1.2,0,0,1,1.6,0,1,1,0,0,1,0,1.4A1.1,1.1,0,0,1,384.2,104.1Zm.9,6.9h-1.8v-6h1.8Z" transform="translate(0 0.2)" fill="#fff" stroke="#fff" stroke-miterlimit="10" stroke-width="0.05"/><path d="M392.6,111h-1.9v-.8h0a2.2,2.2,0,0,1-1.9.9,2.4,2.4,0,0,1-1.8-.7,3.9,3.9,0,0,1-.7-2.3,3.2,3.2,0,0,1,.8-2.3,2.4,2.4,0,0,1,2-.9,1.6,1.6,0,0,1,1.6.8h0v-3.6h1.9Zm-1.9-2.9v-.5a1.2,1.2,0,0,0-.3-.9,1,1,0,0,0-.9-.4.9.9,0,0,0-.9.5,1.7,1.7,0,0,0-.4,1.3,2.1,2.1,0,0,0,.3,1.2,1.3,1.3,0,0,0,1,.4,1.2,1.2,0,0,0,.9-.4A2.1,2.1,0,0,0,390.7,108.1Z" transform="translate(0 0.2)" fill="#fff" stroke="#fff" stroke-miterlimit="10" stroke-width="0.05"/><path d="M399.5,108.5h-3.9c.1.9.6,1.3,1.6,1.3a3.4,3.4,0,0,0,1.8-.4v1.3a4.8,4.8,0,0,1-2.2.4,2.8,2.8,0,0,1-3-3,3.2,3.2,0,0,1,.8-2.4,2.9,2.9,0,0,1,2.2-.8,2.7,2.7,0,0,1,2,.7,3.1,3.1,0,0,1,.7,2.1Zm-1.7-1.1c0-.9-.4-1.3-1.1-1.3a.8.8,0,0,0-.7.4,1.3,1.3,0,0,0-.4.9Z" transform="translate(0 0.2)" fill="#fff" stroke="#fff" stroke-miterlimit="10" stroke-width="0.05"/><path d="M406.4,111h-1.8v-3.3c0-1-.4-1.4-1-1.4a1,1,0,0,0-.8.3,1.7,1.7,0,0,0-.3,1V111h-1.9v-6h1.9v.9h0a2.1,2.1,0,0,1,1.9-1c1.3,0,2,.8,2,2.4Z" transform="translate(0 0.2)" fill="#fff" stroke="#fff" stroke-miterlimit="10" stroke-width="0.05"/><path d="M411.5,110.9a2.2,2.2,0,0,1-1.2.2,1.8,1.8,0,0,1-2-2v-2.7h-1V105h1v-1.3l1.8-.5V105h1.4v1.4h-1.4v2.4c0,.6.3.9.8.9h.6Z" transform="translate(0 0.2)" fill="#fff" stroke="#fff" stroke-miterlimit="10" stroke-width="0.05"/><path d="M413.5,104.1a1.1,1.1,0,0,1-.8-.3,1,1,0,0,1,0-1.4,1.1,1.1,0,0,1,.8-.3,1,1,0,0,1,0,2Zm.9,6.9h-1.9v-6h1.9Z" transform="translate(0 0.2)" fill="#fff" stroke="#fff" stroke-miterlimit="10" stroke-width="0.05"/><path d="M421.8,111H420v-.8h-.1a2,2,0,0,1-1.8.9,2.1,2.1,0,0,1-1.8-.7,3.3,3.3,0,0,1-.7-2.3,3.2,3.2,0,0,1,.7-2.3,2.5,2.5,0,0,1,2-.9,1.5,1.5,0,0,1,1.6.8h.1v-3.6h1.8Zm-1.8-2.9v-.5a1.2,1.2,0,0,0-1.2-1.3,1,1,0,0,0-1,.5,2.3,2.3,0,0,0-.3,1.3,2.1,2.1,0,0,0,.3,1.2,1.2,1.2,0,0,0,1.8,0A1.6,1.6,0,0,0,420,108.1Z" transform="translate(0 0.2)" fill="#fff" stroke="#fff" stroke-miterlimit="10" stroke-width="0.05"/><path d="M428.4,111h-1.8v-.9h0a1.9,1.9,0,0,1-1.8,1,2.1,2.1,0,0,1-1.4-.4,2.2,2.2,0,0,1-.5-1.4c0-1.1.7-1.8,2.1-2l1.6-.2c0-.7-.3-1-1-1a3.3,3.3,0,0,0-2.1.7v-1.4l1.1-.4h1.2c1.7,0,2.6.8,2.6,2.5Zm-1.8-2.4v-.4h-1.1c-.6.1-.9.3-.9.8a.5.5,0,0,0,.3.5c.1.2.3.2.5.2a1.2,1.2,0,0,0,.9-.3A1.6,1.6,0,0,0,426.6,108.6Z" transform="translate(0 0.2)" fill="#fff" stroke="#fff" stroke-miterlimit="10" stroke-width="0.05"/><path d="M435.7,111h-1.8v-.8h-.1a2,2,0,0,1-1.8.9,2.1,2.1,0,0,1-1.8-.7,3.3,3.3,0,0,1-.7-2.3,3.2,3.2,0,0,1,.7-2.3,2.5,2.5,0,0,1,2-.9,1.5,1.5,0,0,1,1.6.8h.1v-3.6h1.8Zm-1.8-2.9v-.5a1,1,0,0,0-.4-.9.9.9,0,0,0-.8-.4,1,1,0,0,0-1,.5,2.3,2.3,0,0,0-.3,1.3,2.1,2.1,0,0,0,.3,1.2,1.2,1.2,0,0,0,1.8,0A1.6,1.6,0,0,0,433.9,108.1Z" transform="translate(0 0.2)" fill="#fff" stroke="#fff" stroke-miterlimit="10" stroke-width="0.05"/><path d="M442.7,108.5h-4c.1.9.6,1.3,1.7,1.3a3.3,3.3,0,0,0,1.7-.4v1.3a4.4,4.4,0,0,1-2.1.4,2.8,2.8,0,0,1-2.3-.8,2.9,2.9,0,0,1-.8-2.2,3.2,3.2,0,0,1,.9-2.4,2.6,2.6,0,0,1,2.1-.8,2.4,2.4,0,0,1,2,.7,3.2,3.2,0,0,1,.8,2.1Zm-1.8-1.1c0-.9-.3-1.3-1-1.3a.9.9,0,0,0-.8.4,1.9,1.9,0,0,0-.4.9Z" transform="translate(0 0.2)" fill="#fff" stroke="#fff" stroke-miterlimit="10" stroke-width="0.05"/><path d="M452.9,111h-1.8v-.8h0a2.3,2.3,0,0,1-1.9.9,2.3,2.3,0,0,1-1.8-.7,3.3,3.3,0,0,1-.7-2.3,3.2,3.2,0,0,1,.8-2.3,2.3,2.3,0,0,1,1.9-.9,1.7,1.7,0,0,1,1.7.8h0v-3.6h1.8Zm-1.8-2.9v-.5a1.2,1.2,0,0,0-.3-.9,1,1,0,0,0-.9-.4,1.1,1.1,0,0,0-1,.5,2.3,2.3,0,0,0-.3,1.3,2.1,2.1,0,0,0,.3,1.2,1.1,1.1,0,0,0,.9.4,1.3,1.3,0,0,0,1-.4A2.1,2.1,0,0,0,451.1,108.1Z" transform="translate(0 0.2)" fill="#fff" stroke="#fff" stroke-miterlimit="10" stroke-width="0.05"/><path d="M459.5,111h-1.8v-.9h0a1.9,1.9,0,0,1-1.8,1,2.1,2.1,0,0,1-1.4-.4,2.2,2.2,0,0,1-.5-1.4c0-1.1.7-1.8,2.1-2l1.6-.2c0-.7-.3-1-1-1a3.5,3.5,0,0,0-2.1.7v-1.4l1.1-.4h1.2c1.7,0,2.6.8,2.6,2.5Zm-1.8-2.4v-.4h-1c-.6.1-.9.3-.9.8s0,.4.2.5.3.2.6.2a1.1,1.1,0,0,0,.8-.3A1.6,1.6,0,0,0,457.7,108.6Z" transform="translate(0 0.2)" fill="#fff" stroke="#fff" stroke-miterlimit="10" stroke-width="0.05"/><path d="M404.5,125.5h-1.8v-6.8h0a5.3,5.3,0,0,1-.3,1.1l-1.9,5.7h-1.6l-2-5.7-.2-1.1h-.1c0,.8.1,1.5.1,2.2v4.6H395v-8.4h2.7l1.8,5,.3,1.2h0a10.4,10.4,0,0,1,.3-1.2l1.7-5h2.7Z" transform="translate(0 0.2)" fill="#fff" stroke="#fff" stroke-miterlimit="10" stroke-width="0.05"/><path d="M407.2,118.6a1.1,1.1,0,0,1-.8-.3,1,1,0,0,1,0-1.4,1.2,1.2,0,0,1,1.6,0,1,1,0,0,1,0,1.4A1.1,1.1,0,0,1,407.2,118.6Zm.9,6.9h-1.8v-6h1.8Z" transform="translate(0 0.2)" fill="#fff" stroke="#fff" stroke-miterlimit="10" stroke-width="0.05"/><path d="M414.2,125.3a4.2,4.2,0,0,1-1.8.3,2.9,2.9,0,0,1-2.2-.8,2.8,2.8,0,0,1-.9-2.2,3.2,3.2,0,0,1,.9-2.4,3.6,3.6,0,0,1,2.5-.8,3,3,0,0,1,1.5.2v1.6a2,2,0,0,0-1.3-.4,1.6,1.6,0,0,0-1.2.4,1.9,1.9,0,0,0-.5,1.3,1.7,1.7,0,0,0,.5,1.3,1.5,1.5,0,0,0,1.2.4,2.2,2.2,0,0,0,1.3-.4Z" transform="translate(0 0.2)" fill="#fff" stroke="#fff" stroke-miterlimit="10" stroke-width="0.05"/><path d="M419.4,121.2a1.2,1.2,0,0,0-.8-.2,1.3,1.3,0,0,0-1,.4,2.1,2.1,0,0,0-.3,1.2v2.9h-1.9v-6h1.9v1.1h0a1.6,1.6,0,0,1,1.6-1.2h.5Z" transform="translate(0 0.2)" fill="#fff" stroke="#fff" stroke-miterlimit="10" stroke-width="0.05"/><path d="M423,125.6a2.8,2.8,0,0,1-2.3-.8,3.4,3.4,0,0,1,0-4.6,4,4,0,0,1,4.8,0,3.3,3.3,0,0,1,.8,2.2,3.2,3.2,0,0,1-.9,2.4A3.2,3.2,0,0,1,423,125.6Zm.1-4.8a1.1,1.1,0,0,0-1,.4,1.7,1.7,0,0,0-.4,1.3c0,1.2.5,1.7,1.4,1.7s1.3-.6,1.3-1.7S424,120.8,423.1,120.8Z" transform="translate(0 0.2)" fill="#fff" stroke="#fff" stroke-miterlimit="10" stroke-width="0.05"/><path d="M427.1,125.3v-1.5l.9.5h1.7a.8.8,0,0,0,.2-.5.4.4,0,0,0-.1-.3l-.3-.2H429l-.4-.2-.7-.3-.4-.3-.3-.5a1.3,1.3,0,0,1-.1-.6,2,2,0,0,1,.2-.9l.6-.6a1.4,1.4,0,0,1,.9-.3h1.7l.9.2V121l-.8-.3h-1.4c-.1.1-.2.1-.2.2v.2c0,.1.1.2.1.3l.3.2.4.2h.4l.7.3.5.3.3.5a1.5,1.5,0,0,1,.1.7,2.9,2.9,0,0,1-.2.9l-.6.6a1.6,1.6,0,0,1-.9.3h-1.1A5.7,5.7,0,0,1,427.1,125.3Z" transform="translate(0 0.2)" fill="#fff" stroke="#fff" stroke-miterlimit="10" stroke-width="0.05"/><path d="M435.6,125.6a3,3,0,0,1-2.3-.8,3.4,3.4,0,0,1,0-4.6,4,4,0,0,1,4.8,0,3.3,3.3,0,0,1,.8,2.2,3.2,3.2,0,0,1-.9,2.4A2.9,2.9,0,0,1,435.6,125.6Zm.1-4.8a1.2,1.2,0,0,0-1,.4,1.7,1.7,0,0,0-.4,1.3c0,1.2.5,1.7,1.4,1.7s1.3-.6,1.3-1.7S436.6,120.8,435.7,120.8Z" transform="translate(0 0.2)" fill="#fff" stroke="#fff" stroke-miterlimit="10" stroke-width="0.05"/><path d="M443.9,118h-.7c-.6,0-.9.3-.9,1v.6h1.3v1.4h-1.3v4.6h-1.9v-4.6h-1v-1.4h1v-.7a2.4,2.4,0,0,1,.7-1.7,2.6,2.6,0,0,1,1.8-.6h1Z" transform="translate(0 0.2)" fill="#fff" stroke="#fff" stroke-miterlimit="10" stroke-width="0.05"/><path d="M448.4,125.4a2.2,2.2,0,0,1-1.2.2,1.8,1.8,0,0,1-2-2v-2.7h-1v-1.4h1v-1.3l1.8-.5v1.8h1.4v1.4H447v2.4c0,.6.3.9.8.9h.6Z" transform="translate(0 0.2)" fill="#fff" stroke="#fff" stroke-miterlimit="10" stroke-width="0.05"/><path d="M401.7,18.3h-2l-.6-1.8h-3l-.6,1.8h-2l3-8.4h2.3ZM398.6,15l-.9-2.8c0-.2-.1-.5-.1-.8h0c-.1.3-.1.5-.2.8l-.9,2.8Z" transform="translate(0 0.2)" fill="#fff" stroke="#fff" stroke-miterlimit="10" stroke-width="0.05"/><path d="M404.5,17.6h0v3.5h-1.9V12.3h1.9v.9h0a2.1,2.1,0,0,1,1.9-1,2.2,2.2,0,0,1,1.8.8,3.6,3.6,0,0,1,.6,2.2,3.6,3.6,0,0,1-.7,2.4,2.4,2.4,0,0,1-2,.9A1.8,1.8,0,0,1,404.5,17.6Zm-.1-2.4v.5a1.3,1.3,0,0,0,.4,1,1.1,1.1,0,0,0,1.8-.1,2.6,2.6,0,0,0,.4-1.4c0-1.1-.5-1.6-1.3-1.6a1.3,1.3,0,0,0-.9.4A2.1,2.1,0,0,0,404.4,15.2Z" transform="translate(0 0.2)" fill="#fff" stroke="#fff" stroke-miterlimit="10" stroke-width="0.05"/><path d="M411.9,18.3h-1.8V9.5h1.8Z" transform="translate(0 0.2)" fill="#fff" stroke="#fff" stroke-miterlimit="10" stroke-width="0.05"/><path d="M414.4,11.4a1.1,1.1,0,0,1-.8-.3.9.9,0,0,1-.3-.7.7.7,0,0,1,.3-.6,1.2,1.2,0,0,1,1.6,0,.7.7,0,0,1,.3.6.9.9,0,0,1-.3.7A1.1,1.1,0,0,1,414.4,11.4Zm.9,6.9h-1.8v-6h1.8Z" transform="translate(0 0.2)" fill="#fff" stroke="#fff" stroke-miterlimit="10" stroke-width="0.05"/><path d="M421.4,18.1a3,3,0,0,1-1.8.4,3.1,3.1,0,0,1-2.2-.8,2.9,2.9,0,0,1-.9-2.2,3.2,3.2,0,0,1,.9-2.4,3.5,3.5,0,0,1,2.5-.9,2.8,2.8,0,0,1,1.5.3V14a2.8,2.8,0,0,0-1.3-.4,1.7,1.7,0,0,0-1.2.5,1.4,1.4,0,0,0-.5,1.3,1.6,1.6,0,0,0,.4,1.2,1.7,1.7,0,0,0,1.3.5,2.4,2.4,0,0,0,1.3-.5Z" transform="translate(0 0.2)" fill="#fff" stroke="#fff" stroke-miterlimit="10" stroke-width="0.05"/><path d="M427.6,18.3h-1.7v-.8h-.1a1.9,1.9,0,0,1-1.7,1,2,2,0,0,1-1.4-.5,1.9,1.9,0,0,1-.5-1.3c0-1.2.7-1.9,2.1-2l1.6-.3c0-.6-.4-.9-1.1-.9a3.6,3.6,0,0,0-2,.6V12.7l1-.4h1.3c1.7,0,2.5.9,2.5,2.6Zm-1.7-2.4v-.4h-1.1q-.9.2-.9.9c0,.2.1.3.2.5l.6.2a1.1,1.1,0,0,0,.9-.4A1.2,1.2,0,0,0,425.9,15.9Z" transform="translate(0 0.2)" fill="#fff" stroke="#fff" stroke-miterlimit="10" stroke-width="0.05"/><path d="M432.7,18.3l-1.2.2a1.8,1.8,0,0,1-2-2V13.7h-1V12.3h1V11l1.9-.5v1.8h1.3v1.4h-1.3v2.4c0,.7.2,1,.7,1l.6-.2Z" transform="translate(0 0.2)" fill="#fff" stroke="#fff" stroke-miterlimit="10" stroke-width="0.05"/><path d="M434.7,11.4a1.1,1.1,0,0,1-.8-.3.9.9,0,0,1-.3-.7.7.7,0,0,1,.3-.6,1.2,1.2,0,0,1,1.6,0,.7.7,0,0,1,.3.6.9.9,0,0,1-.3.7A1.1,1.1,0,0,1,434.7,11.4Zm.9,6.9h-1.8v-6h1.8Z" transform="translate(0 0.2)" fill="#fff" stroke="#fff" stroke-miterlimit="10" stroke-width="0.05"/><path d="M442.9,12.3l-2.3,6h-2.1l-2.1-6h2l1,3.7a2.6,2.6,0,0,1,.2,1.1h.1a4.4,4.4,0,0,1,.2-1l1-3.8Z" transform="translate(0 0.2)" fill="#fff" stroke="#fff" stroke-miterlimit="10" stroke-width="0.05"/><path d="M446.4,18.5a2.9,2.9,0,0,1-2.3-.9,2.8,2.8,0,0,1-.9-2.2,3.2,3.2,0,0,1,.9-2.4,3.6,3.6,0,0,1,2.4-.8,3.2,3.2,0,0,1,2.3.8,3,3,0,0,1,.9,2.3,3,3,0,0,1-.9,2.3A3.2,3.2,0,0,1,446.4,18.5Zm.1-4.9a1.4,1.4,0,0,0-1.1.5,2.1,2.1,0,0,0-.3,1.2c0,1.2.4,1.8,1.4,1.8s1.3-.6,1.3-1.8S447.4,13.6,446.5,13.6Z" transform="translate(0 0.2)" fill="#fff" stroke="#fff" stroke-miterlimit="10" stroke-width="0.05"/><path d="M411.8,24.3l-2.2,8.4h-2.1l-1.4-5.3a3.1,3.1,0,0,1-.1-1h0c-.1.4-.1.7-.2,1l-1.4,5.3h-2.2L400,24.3h2.1l1.1,5.6a3.1,3.1,0,0,1,.1,1h.1a4.4,4.4,0,0,1,.2-1l1.5-5.6h2l1.4,5.7c0,.2.1.5.1.9h0c.1-.3.1-.6.2-1l1.1-5.6Z" transform="translate(0 0.2)" fill="#fff" stroke="#fff" stroke-miterlimit="10" stroke-width="0.05"/><path d="M417.8,30.3h-3.9c0,.8.6,1.3,1.6,1.3a3.5,3.5,0,0,0,1.8-.5v1.3a4.8,4.8,0,0,1-2.2.5,3.4,3.4,0,0,1-2.3-.8,3.4,3.4,0,0,1-.8-2.3,3,3,0,0,1,.9-2.3,3,3,0,0,1,4.2-.1,3.3,3.3,0,0,1,.7,2.1Zm-1.7-1.2c0-.8-.4-1.3-1.1-1.3a1,1,0,0,0-.7.4,1.2,1.2,0,0,0-.4.9Z" transform="translate(0 0.2)" fill="#fff" stroke="#fff" stroke-miterlimit="10" stroke-width="0.05"/><path d="M420.8,32h-.1v.7h-1.8V23.9h1.8v3.7h.1a2.1,2.1,0,0,1,1.9-1,2.2,2.2,0,0,1,1.8.8,3.6,3.6,0,0,1,.6,2.2,3.6,3.6,0,0,1-.7,2.4,2.4,2.4,0,0,1-2,.9A1.7,1.7,0,0,1,420.8,32Zm-.1-2.5v.6a1.7,1.7,0,0,0,.3,1,1.8,1.8,0,0,0,.9.4,1.4,1.4,0,0,0,1-.5,2.6,2.6,0,0,0,.3-1.4,2.1,2.1,0,0,0-.3-1.2,1.2,1.2,0,0,0-1.8,0A1.5,1.5,0,0,0,420.7,29.5Z" transform="translate(0 0.2)" fill="#fff" stroke="#fff" stroke-miterlimit="10" stroke-width="0.05"/><path d="M435.5,32.7h-1.8v-.8h-.1a1.9,1.9,0,0,1-1.8,1,2.2,2.2,0,0,1-1.8-.8,3.1,3.1,0,0,1-.7-2.2,3.6,3.6,0,0,1,.7-2.4,2.5,2.5,0,0,1,2-.9,1.7,1.7,0,0,1,1.6.8h.1V23.9h1.8Zm-1.8-2.9v-.4a1.7,1.7,0,0,0-.3-1,1.2,1.2,0,0,0-1.9.1,2.5,2.5,0,0,0-.3,1.3,1.7,1.7,0,0,0,.3,1.2,1.1,1.1,0,0,0,1.8,0A1.6,1.6,0,0,0,433.7,29.8Z" transform="translate(0 0.2)" fill="#fff" stroke="#fff" stroke-miterlimit="10" stroke-width="0.05"/><path d="M439.9,32.9a2.9,2.9,0,0,1-2.3-.9,2.8,2.8,0,0,1-.9-2.2,3.2,3.2,0,0,1,.9-2.4,4,4,0,0,1,4.8,0,3.4,3.4,0,0,1,.8,2.3,3,3,0,0,1-.9,2.3A3.2,3.2,0,0,1,439.9,32.9ZM440,28a1.1,1.1,0,0,0-1,.5,1.6,1.6,0,0,0-.4,1.2c0,1.2.5,1.8,1.4,1.8s1.3-.6,1.3-1.8S440.9,28,440,28Z" transform="translate(0 0.2)" fill="#fff" stroke="#fff" stroke-miterlimit="10" stroke-width="0.05"/><path d="M406.6,47.1h-2.1l-.6-1.8H401l-.6,1.8h-2.1l3.1-8.4h2.2Zm-3.1-3.3-.9-2.8a1.9,1.9,0,0,1-.1-.8h-.1a2.2,2.2,0,0,1-.1.8l-.9,2.8Z" transform="translate(0 0.2)" fill="#fff" stroke="#fff" stroke-miterlimit="10" stroke-width="0.05"/><path d="M407.3,46.8V44.9a4.1,4.1,0,0,0,1.1.7l1.2.2h1.1c.1-.1.2-.2.2-.3a.4.4,0,0,0,.1-.3.7.7,0,0,0-.1-.5l-.4-.3-.6-.4-.7-.3a2.8,2.8,0,0,1-1.5-1,2.2,2.2,0,0,1-.5-1.4,2,2,0,0,1,.3-1.1,2.7,2.7,0,0,1,.7-.8l1.1-.5h2.4l.9.2v1.8l-.4-.3-.5-.2h-1.6l-.5.2-.3.3c0,.1-.1.2-.1.3s.1.3.1.4l.4.3.5.3.6.3.9.5a1.8,1.8,0,0,1,.7.5,1.6,1.6,0,0,1,.4.7,2,2,0,0,1,.2.9,2.4,2.4,0,0,1-.3,1.2,1.6,1.6,0,0,1-.7.7l-1.1.5h-2.6Z" transform="translate(0 0.2)" fill="#fff" stroke="#fff" stroke-miterlimit="10" stroke-width="0.05"/><path d="M416.3,44.2v2.9h-1.9V38.7h2.9c2.2,0,3.2.9,3.2,2.7a2.7,2.7,0,0,1-.9,2.1,3.6,3.6,0,0,1-2.4.7Zm0-4v2.6h.7c1,0,1.5-.4,1.5-1.3s-.5-1.3-1.5-1.3Z" transform="translate(0 0.2)" fill="#fff" stroke="#fff" stroke-miterlimit="10" stroke-width="0.05"/><path d="M420.6,47.3a1.1,1.1,0,0,1-.8-.3,1,1,0,0,1,0-1.4,1.2,1.2,0,0,1,.8-.2,1.1,1.1,0,0,1,.8.2,1,1,0,0,1,0,1.4A1.1,1.1,0,0,1,420.6,47.3Z" transform="translate(0 0.2)" fill="#fff" stroke="#fff" stroke-miterlimit="10" stroke-width="0.05"/><path d="M430.8,47.1h-1.9l-3.5-5.2-.4-.7h-.1a4.5,4.5,0,0,1,.1,1.3v4.6h-1.8V38.7h2l3.4,5.2.4.6h0V38.7h1.8Z" transform="translate(0 0.2)" fill="#fff" stroke="#fff" stroke-miterlimit="10" stroke-width="0.05"/><path d="M437.7,47.1h-5V38.7h4.8v1.6h-2.9v1.9h2.7v1.5h-2.7v1.9h3.1Z" transform="translate(0 0.2)" fill="#fff" stroke="#fff" stroke-miterlimit="10" stroke-width="0.05"/><path d="M445.1,40.3h-2.4v6.8h-1.9V40.3h-2.4V38.7h6.7Z" transform="translate(0 0.2)" fill="#fff" stroke="#fff" stroke-miterlimit="10" stroke-width="0.05"/><path d="M190.4,10.4h-1V7c0-1.3-.5-1.9-1.4-1.9a1.8,1.8,0,0,0-1.2.5,2.1,2.1,0,0,0-.4,1.4v3.4h-1V1.5h1V5.4h0a2,2,0,0,1,1.9-1.1q2.1,0,2.1,2.4Z" transform="translate(0 0.2)" fill="#1e1e1e" stroke="#1e1e1e" stroke-miterlimit="10" stroke-width="0.06"/><path d="M194.9,10.4H194c-1.1,0-1.6-.5-1.6-1.7V5.2h-1V4.4h1V2.9l1-.3V4.4h1.5v.8h-1.5V8.6c0,.4,0,.7.2.9a1,1,0,0,0,.7.2.7.7,0,0,0,.6-.2Z" transform="translate(0 0.2)" fill="#1e1e1e" stroke="#1e1e1e" stroke-miterlimit="10" stroke-width="0.06"/><path d="M198.9,10.4H198c-1.1,0-1.6-.5-1.6-1.7V5.2h-1V4.4h1V2.9l1-.3V4.4h1.5v.8h-1.5V8.6c0,.4,0,.7.2.9l.6.2a.8.8,0,0,0,.7-.2Z" transform="translate(0 0.2)" fill="#1e1e1e" stroke="#1e1e1e" stroke-miterlimit="10" stroke-width="0.06"/><path d="M201,9.5h0v3.7h-.9V4.4h.9V5.5h0a2.4,2.4,0,0,1,2.1-1.2,1.9,1.9,0,0,1,1.8.8,2.8,2.8,0,0,1,.7,2.1,3.6,3.6,0,0,1-.8,2.4,2.3,2.3,0,0,1-2,1A2.2,2.2,0,0,1,201,9.5Zm0-2.4V8a1.7,1.7,0,0,0,.5,1.2,1.3,1.3,0,0,0,1.2.5,1.7,1.7,0,0,0,1.4-.6,3.6,3.6,0,0,0,.5-1.9,2.5,2.5,0,0,0-.5-1.6,1.7,1.7,0,0,0-1.2-.5,1.8,1.8,0,0,0-1.4.6A2,2,0,0,0,201,7.1Z" transform="translate(0 0.2)" fill="#1e1e1e" stroke="#1e1e1e" stroke-miterlimit="10" stroke-width="0.06"/><path d="M206.7,10.2v-1a3.4,3.4,0,0,0,1.7.5c.8,0,1.3-.2,1.3-.8s-.1-.3-.1-.4l-.3-.3-.5-.2-.5-.3-.7-.3-.5-.3-.3-.5a1.3,1.3,0,0,1-.1-.6.8.8,0,0,1,.2-.7c.1-.3.3-.4.5-.6l.7-.3h.9l1.4.2v1a2.9,2.9,0,0,0-1.6-.4h-.4l-.4.2-.3.3v.7l.3.3a.5.5,0,0,0,.4.2l.5.2.7.3.6.4.3.5a1.3,1.3,0,0,1,.1.6,1.9,1.9,0,0,1-.1.8l-.6.5a.9.9,0,0,1-.7.3l-.9.2A3.8,3.8,0,0,1,206.7,10.2Z" transform="translate(0 0.2)" fill="#1e1e1e" stroke="#1e1e1e" stroke-miterlimit="10" stroke-width="0.06"/><path d="M212.4,5.6l-.5-.2a.8.8,0,0,1-.2-.5.5.5,0,0,1,.2-.4c.1-.2.3-.2.5-.2s.3,0,.4.2.2.2.2.4,0,.4-.2.5Zm0,4.9c-.2,0-.4,0-.5-.2a.5.5,0,0,1-.2-.4.8.8,0,0,1,.2-.5l.5-.2.4.2c.2.1.2.3.2.5s0,.3-.2.4S212.6,10.5,212.4,10.5Z" transform="translate(0 0.2)" fill="#1e1e1e" stroke="#1e1e1e" stroke-miterlimit="10" stroke-width="0.06"/><path d="M218.3,2l-4,9.8h-.9l4-9.8Z" transform="translate(0 0.2)" fill="#1e1e1e" stroke="#1e1e1e" stroke-miterlimit="10" stroke-width="0.06"/><path d="M222.9,2l-4,9.8H218L222,2Z" transform="translate(0 0.2)" fill="#1e1e1e" stroke="#1e1e1e" stroke-miterlimit="10" stroke-width="0.06"/><path d="M223.4,10.2v-1a3.4,3.4,0,0,0,1.7.5c.8,0,1.3-.2,1.3-.8s-.1-.3-.1-.4l-.3-.3-.5-.2-.5-.3-.7-.3-.5-.3-.3-.5a1.3,1.3,0,0,1-.1-.6,1.4,1.4,0,0,1,.2-.7c.1-.3.3-.4.5-.6l.7-.3h.9l1.4.2v1a2.8,2.8,0,0,0-1.5-.4h-.5l-.4.2-.2.3a.4.4,0,0,0-.1.3c0,.2,0,.3.1.4s.1.2.2.3l.4.2.5.2.8.3.5.4a.9.9,0,0,1,.3.5,1.4,1.4,0,0,1,.2.6,1.9,1.9,0,0,1-.2.8c-.2.2-.3.4-.6.5a.9.9,0,0,1-.7.3l-.9.2A3.8,3.8,0,0,1,223.4,10.2Z" transform="translate(0 0.2)" fill="#1e1e1e" stroke="#1e1e1e" stroke-miterlimit="10" stroke-width="0.06"/><path d="M233.6,7.6h-4.3a2.6,2.6,0,0,0,.6,1.6,1.6,1.6,0,0,0,1.4.5,3.3,3.3,0,0,0,1.9-.6V10a3.7,3.7,0,0,1-2.1.6,2.3,2.3,0,0,1-2-.9,3.2,3.2,0,0,1-.8-2.3,3.1,3.1,0,0,1,.8-2.2,2.7,2.7,0,0,1,2-.9,2.1,2.1,0,0,1,1.8.7,2.8,2.8,0,0,1,.7,2.1Zm-1-.8a2.5,2.5,0,0,0-.4-1.3,1.4,1.4,0,0,0-1.1-.4,1.3,1.3,0,0,0-1.2.5,2.3,2.3,0,0,0-.6,1.2Z" transform="translate(0 0.2)" fill="#1e1e1e" stroke="#1e1e1e" stroke-miterlimit="10" stroke-width="0.06"/><path d="M239.8,10.4h-1V9.5h0a2,2,0,0,1-1.8,1.1c-1.5,0-2.2-.9-2.2-2.6V4.4h1V7.8c0,1.3.5,1.9,1.4,1.9a1.3,1.3,0,0,0,1.2-.5,1.8,1.8,0,0,0,.4-1.3V4.4h1Z" transform="translate(0 0.2)" fill="#1e1e1e" stroke="#1e1e1e" stroke-miterlimit="10" stroke-width="0.06"/><path d="M241.3,10.2v-1a3.4,3.4,0,0,0,1.7.5c.9,0,1.3-.2,1.3-.8s-.1-.3-.1-.4l-.3-.3-.5-.2-.5-.3-.7-.3-.5-.3-.3-.5a1.3,1.3,0,0,1-.1-.6,1.4,1.4,0,0,1,.2-.7c.1-.3.3-.4.5-.6l.7-.3h.9l1.4.2v1a2.8,2.8,0,0,0-1.5-.4H243l-.4.2-.2.3a.4.4,0,0,0-.1.3c0,.2,0,.3.1.4s.1.2.2.3l.4.2.5.2.8.3.5.4a.9.9,0,0,1,.3.5,1.4,1.4,0,0,1,.2.6,1.9,1.9,0,0,1-.2.8c-.2.2-.3.4-.6.5a.9.9,0,0,1-.7.3l-.9.2A3.8,3.8,0,0,1,241.3,10.2Z" transform="translate(0 0.2)" fill="#1e1e1e" stroke="#1e1e1e" stroke-miterlimit="10" stroke-width="0.06"/><path d="M247.1,2.9l-.4-.2a.8.8,0,0,1-.2-.4.8.8,0,0,1,.2-.5l.4-.2.5.2a.8.8,0,0,1,.2.5.8.8,0,0,1-.2.4Zm.5,7.5h-.9v-6h.9Z" transform="translate(0 0.2)" fill="#1e1e1e" stroke="#1e1e1e" stroke-miterlimit="10" stroke-width="0.06"/><path d="M252.3,10.4h-.9c-1.1,0-1.6-.5-1.6-1.7V5.2h-1V4.4h1V2.9l.9-.3V4.4h1.6v.8h-1.6V8.6a1.2,1.2,0,0,0,.3.9l.6.2a.8.8,0,0,0,.7-.2Z" transform="translate(0 0.2)" fill="#1e1e1e" stroke="#1e1e1e" stroke-miterlimit="10" stroke-width="0.06"/><path d="M258.3,7.6H254a2.6,2.6,0,0,0,.6,1.6,1.6,1.6,0,0,0,1.4.5,3.3,3.3,0,0,0,1.9-.6V10a3.7,3.7,0,0,1-2.1.6,2.4,2.4,0,0,1-2-.9,3.2,3.2,0,0,1-.8-2.3,3.1,3.1,0,0,1,.8-2.2,2.7,2.7,0,0,1,2-.9,2.1,2.1,0,0,1,1.8.7,2.8,2.8,0,0,1,.7,2.1Zm-1-.8a1.8,1.8,0,0,0-.4-1.3,1.4,1.4,0,0,0-1.1-.4,1.5,1.5,0,0,0-1.2.5,1.7,1.7,0,0,0-.5,1.2Z" transform="translate(0 0.2)" fill="#1e1e1e" stroke="#1e1e1e" stroke-miterlimit="10" stroke-width="0.06"/><path d="M260,10.5a.6.6,0,0,1-.5-.2.5.5,0,0,1-.2-.4.8.8,0,0,1,.2-.5l.5-.2.5.2a.7.7,0,0,1,.1.5c0,.2,0,.3-.1.4A.6.6,0,0,1,260,10.5Z" transform="translate(0 0.2)" fill="#1e1e1e" stroke="#1e1e1e" stroke-miterlimit="10" stroke-width="0.06"/><path d="M266.3,10.1a3.1,3.1,0,0,1-1.7.5,2.9,2.9,0,0,1-2.1-.9,3,3,0,0,1-.7-2.1,3.2,3.2,0,0,1,.8-2.4,3,3,0,0,1,2.3-.9,3.2,3.2,0,0,1,1.4.3v.9a2.8,2.8,0,0,0-1.5-.4,2,2,0,0,0-1.5.6,2.8,2.8,0,0,0-.6,1.8,2.1,2.1,0,0,0,.6,1.6,2,2,0,0,0,1.5.6,2.3,2.3,0,0,0,1.5-.5Z" transform="translate(0 0.2)" fill="#1e1e1e" stroke="#1e1e1e" stroke-miterlimit="10" stroke-width="0.06"/><path d="M270.1,10.6a2.6,2.6,0,0,1-2.1-.9,3.3,3.3,0,0,1-.8-2.2,3.6,3.6,0,0,1,.8-2.4,3.4,3.4,0,0,1,2.3-.8,2.5,2.5,0,0,1,2.1.8,3.2,3.2,0,0,1,.7,2.3,3.1,3.1,0,0,1-.8,2.3A2.8,2.8,0,0,1,270.1,10.6Zm.1-5.5a2,2,0,0,0-1.5.6,2.9,2.9,0,0,0-.5,1.7,2.6,2.6,0,0,0,.5,1.7,2,2,0,0,0,1.5.6,1.7,1.7,0,0,0,1.4-.6,2.2,2.2,0,0,0,.5-1.7,2.3,2.3,0,0,0-.5-1.7A1.7,1.7,0,0,0,270.2,5.1Z" transform="translate(0 0.2)" fill="#1e1e1e" stroke="#1e1e1e" stroke-miterlimit="10" stroke-width="0.06"/><path d="M283.1,10.4h-1V7a2.8,2.8,0,0,0-.3-1.5,1.1,1.1,0,0,0-1-.4,1.6,1.6,0,0,0-1.1.5,3.3,3.3,0,0,0-.4,1.4v3.4h-.9V6.8c0-1.1-.5-1.7-1.4-1.7a1.6,1.6,0,0,0-1.1.5,2.9,2.9,0,0,0-.4,1.4v3.4h-.9v-6h.9v1h.1a1.8,1.8,0,0,1,1.8-1.1,2,2,0,0,1,1.1.3,1.5,1.5,0,0,1,.6.9,2.2,2.2,0,0,1,2-1.2c1.3,0,2,.8,2,2.4Z" transform="translate(0 0.2)" fill="#1e1e1e" stroke="#1e1e1e" stroke-miterlimit="10" stroke-width="0.06"/><path d="M191.6,40.2h-1.1l-1.4-2.3-.4-.6-.4-.4-.4-.2h-1.3v3.6h-1V31.8h3.5l.8.5a1.3,1.3,0,0,1,.6.7,2.4,2.4,0,0,1,.2.9,2.9,2.9,0,0,1-.2.9c0,.2-.2.4-.3.6l-.6.5-.8.3h0l.4.2.3.3.3.4a.9.9,0,0,0,.3.5Zm-5-7.5v3h2a.9.9,0,0,0,.6-.3l.3-.5a1.5,1.5,0,0,0,.1-.7,1.2,1.2,0,0,0-.4-1,1.7,1.7,0,0,0-1.3-.4Z" transform="translate(0 0.2)" fill="#1e1e1e" stroke="#1e1e1e" stroke-miterlimit="10" stroke-width="0.06"/><path d="M197.1,37.5h-4.2a2.5,2.5,0,0,0,.5,1.5,2,2,0,0,0,1.5.5,3,3,0,0,0,1.8-.6v.9a3.3,3.3,0,0,1-2.1.6,2.5,2.5,0,0,1-2-.9,3.2,3.2,0,0,1-.7-2.3,3.1,3.1,0,0,1,.8-2.2,2.5,2.5,0,0,1,2-.9,2.1,2.1,0,0,1,1.8.7,3.3,3.3,0,0,1,.6,2.1Zm-1-.9a1.8,1.8,0,0,0-.4-1.3,1.2,1.2,0,0,0-1.1-.4,1.3,1.3,0,0,0-1.1.5,2.3,2.3,0,0,0-.6,1.2Z" transform="translate(0 0.2)" fill="#1e1e1e" stroke="#1e1e1e" stroke-miterlimit="10" stroke-width="0.06"/><path d="M203.7,40.2h-1v-1h0a2.1,2.1,0,0,1-2,1.2,2,2,0,0,1-1.8-.9,2.8,2.8,0,0,1-.7-2.1,3.6,3.6,0,0,1,.7-2.4,2.5,2.5,0,0,1,2-.9,2,2,0,0,1,1.8.9h0V31.3h1Zm-1-2.7v-.9a1.6,1.6,0,0,0-.4-1.2,1.7,1.7,0,0,0-1.3-.5,1.6,1.6,0,0,0-1.3.6,2.6,2.6,0,0,0-.5,1.8,2.5,2.5,0,0,0,.4,1.6,1.8,1.8,0,0,0,1.3.6,1.7,1.7,0,0,0,1.3-.5A2,2,0,0,0,202.7,37.5Z" transform="translate(0 0.2)" fill="#1e1e1e" stroke="#1e1e1e" stroke-miterlimit="10" stroke-width="0.06"/><path d="M206.1,32.7l-.4-.2a.6.6,0,0,1,0-.9l.4-.2.5.2a.6.6,0,0,1,0,.9Zm.5,7.5h-.9v-6h.9Z" transform="translate(0 0.2)" fill="#1e1e1e" stroke="#1e1e1e" stroke-miterlimit="10" stroke-width="0.06"/><path d="M211.7,35.2,211,35a1.4,1.4,0,0,0-1.1.6,3.4,3.4,0,0,0-.4,1.6v3h-.9v-6h.9v1.2h0a2.2,2.2,0,0,1,.7-.9,1.2,1.2,0,0,1,.9-.4h.6Z" transform="translate(0 0.2)" fill="#1e1e1e" stroke="#1e1e1e" stroke-miterlimit="10" stroke-width="0.06"/><path d="M217.6,37.5h-4.3a2,2,0,0,0,.6,1.5,1.6,1.6,0,0,0,1.4.5,2.8,2.8,0,0,0,1.8-.6v.9a3.3,3.3,0,0,1-2.1.6,2.5,2.5,0,0,1-2-.9,3.7,3.7,0,0,1-.7-2.3,3.1,3.1,0,0,1,.8-2.2,2.5,2.5,0,0,1,2-.9,2.1,2.1,0,0,1,1.8.7,3.3,3.3,0,0,1,.7,2.1Zm-1-.9a2.5,2.5,0,0,0-.4-1.3,1.5,1.5,0,0,0-1.1-.4,1.3,1.3,0,0,0-1.2.5,2.3,2.3,0,0,0-.6,1.2Z" transform="translate(0 0.2)" fill="#1e1e1e" stroke="#1e1e1e" stroke-miterlimit="10" stroke-width="0.06"/><path d="M223.1,39.9a3,3,0,0,1-1.6.5,2.6,2.6,0,0,1-2.1-.9,3,3,0,0,1-.8-2.1,3.6,3.6,0,0,1,.8-2.4,3.4,3.4,0,0,1,3.7-.6v.9a2.3,2.3,0,0,0-1.4-.4,2,2,0,0,0-1.5.6,2.8,2.8,0,0,0-.6,1.8,2.5,2.5,0,0,0,.5,1.6,2,2,0,0,0,1.5.6,2.3,2.3,0,0,0,1.5-.5Z" transform="translate(0 0.2)" fill="#1e1e1e" stroke="#1e1e1e" stroke-miterlimit="10" stroke-width="0.06"/><path d="M225,32.7l-.4-.2a.6.6,0,0,1,0-.9l.4-.2.5.2a.6.6,0,0,1,0,.9Zm.5,7.5h-.9v-6h.9Z" transform="translate(0 0.2)" fill="#1e1e1e" stroke="#1e1e1e" stroke-miterlimit="10" stroke-width="0.06"/><path d="M230,40.4a2.9,2.9,0,0,1-2.2-.9,3.3,3.3,0,0,1-.8-2.2,3.2,3.2,0,0,1,.9-2.4,3.1,3.1,0,0,1,2.2-.8,2.5,2.5,0,0,1,2.1.8,3.5,3.5,0,0,1-.1,4.6A2.6,2.6,0,0,1,230,40.4Zm0-5.5a1.7,1.7,0,0,0-1.4.6,2.4,2.4,0,0,0-.6,1.7,2.2,2.2,0,0,0,.6,1.7,1.7,1.7,0,0,0,1.4.6,1.9,1.9,0,0,0,1.5-.6,2.6,2.6,0,0,0,.5-1.7,2.9,2.9,0,0,0-.5-1.7A1.9,1.9,0,0,0,230,34.9Z" transform="translate(0 0.2)" fill="#1e1e1e" stroke="#1e1e1e" stroke-miterlimit="10" stroke-width="0.06"/><path d="M239.5,40.2h-1V36.8c0-1.3-.5-1.9-1.4-1.9a1.7,1.7,0,0,0-1.2.5,2.2,2.2,0,0,0-.5,1.4v3.4h-.9v-6h.9v1h.1a2,2,0,0,1,1.9-1.1,1.8,1.8,0,0,1,1.5.6,2.4,2.4,0,0,1,.6,1.8Z" transform="translate(0 0.2)" fill="#1e1e1e" stroke="#1e1e1e" stroke-miterlimit="10" stroke-width="0.06"/><path d="M245.6,40.2h-1v-.9h0a2,2,0,0,1-1.9,1.1,2.2,2.2,0,0,1-1.4-.5,1.9,1.9,0,0,1-.5-1.3c0-1.1.7-1.8,2-1.9l1.8-.3q0-1.5-1.2-1.5a3.1,3.1,0,0,0-2,.7v-1a4.6,4.6,0,0,1,2.1-.5c1.4,0,2.1.7,2.1,2.2Zm-1-3-1.4.2a1.3,1.3,0,0,0-1,.3.8.8,0,0,0-.4.8,1.1,1.1,0,0,0,.3.8l.9.2a1.3,1.3,0,0,0,1.1-.5,1.3,1.3,0,0,0,.5-1.2Z" transform="translate(0 0.2)" fill="#1e1e1e" stroke="#1e1e1e" stroke-miterlimit="10" stroke-width="0.06"/><path d="M250.5,35.2l-.7-.2a1.1,1.1,0,0,0-1,.6,2.5,2.5,0,0,0-.5,1.6v3h-.9v-6h.9v1.2h.1a1.5,1.5,0,0,1,.6-.9,1.2,1.2,0,0,1,.9-.4h.6Z" transform="translate(0 0.2)" fill="#1e1e1e" stroke="#1e1e1e" stroke-miterlimit="10" stroke-width="0.06"/><path d="M209.2,154.9h-2.4v7.5h-1v-7.5h-2.4V154h5.8Z" transform="translate(0 0.2)" fill="#1e1e1e" stroke="#1e1e1e" stroke-miterlimit="10" stroke-width="0.06"/><path d="M211.6,162.6a2.7,2.7,0,0,1-2.1-.9,3.1,3.1,0,0,1-.8-2.2,3.2,3.2,0,0,1,.9-2.4,2.9,2.9,0,0,1,2.2-.8,2.9,2.9,0,0,1,2.1.8,3.3,3.3,0,0,1,.7,2.3,3,3,0,0,1-.8,2.3A2.7,2.7,0,0,1,211.6,162.6Zm.1-5.5a2,2,0,0,0-1.5.6,3,3,0,0,0-.5,1.8,2.1,2.1,0,0,0,.6,1.6,1.5,1.5,0,0,0,1.4.7,1.7,1.7,0,0,0,1.4-.6,2.4,2.4,0,0,0,.5-1.8,2.3,2.3,0,0,0-.5-1.7A1.7,1.7,0,0,0,211.7,157.1Z" transform="translate(0 0.2)" fill="#1e1e1e" stroke="#1e1e1e" stroke-miterlimit="10" stroke-width="0.06"/><path d="M221.1,162.4h-1.4l-2.6-2.9h0v2.9h-1v-8.9h1v5.7h0l2.5-2.8h1.3l-2.8,2.9Z" transform="translate(0 0.2)" fill="#1e1e1e" stroke="#1e1e1e" stroke-miterlimit="10" stroke-width="0.06"/><path d="M226.8,159.7h-4.2a2.3,2.3,0,0,0,.5,1.5,1.8,1.8,0,0,0,1.4.6,3.4,3.4,0,0,0,1.9-.7v.9a3.3,3.3,0,0,1-2.1.6,2.8,2.8,0,0,1-2-.8,3.5,3.5,0,0,1-.7-2.3,3,3,0,0,1,.8-2.3,2.5,2.5,0,0,1,1.9-.9,2.2,2.2,0,0,1,1.9.8,3.3,3.3,0,0,1,.6,2.1Zm-1-.8a1.7,1.7,0,0,0-.4-1.3,1.3,1.3,0,0,0-1.1-.5,1.6,1.6,0,0,0-1.1.5,2.3,2.3,0,0,0-.6,1.3Z" transform="translate(0 0.2)" fill="#1e1e1e" stroke="#1e1e1e" stroke-miterlimit="10" stroke-width="0.06"/><path d="M233.2,162.4h-1V159c0-1.3-.5-1.9-1.4-1.9a1.7,1.7,0,0,0-1.2.5,2.3,2.3,0,0,0-.4,1.4v3.4h-1v-6h1v1h0a2.1,2.1,0,0,1,1.9-1.1,1.8,1.8,0,0,1,1.5.6,2.7,2.7,0,0,1,.6,1.9Z" transform="translate(0 0.2)" fill="#1e1e1e" stroke="#1e1e1e" stroke-miterlimit="10" stroke-width="0.06"/><path d="M243.2,162.4h-.9v-1h0a2.4,2.4,0,0,1-2.1,1.2,2.2,2.2,0,0,1-1.8-.8,3.2,3.2,0,0,1-.7-2.2,3.6,3.6,0,0,1,.8-2.4,2.4,2.4,0,0,1,2-.9,1.9,1.9,0,0,1,1.8,1h0v-3.8h.9Zm-.9-2.7v-.9a1.7,1.7,0,0,0-1.7-1.7,1.7,1.7,0,0,0-1.4.6,3.5,3.5,0,0,0-.5,1.8,2.9,2.9,0,0,0,.5,1.7,1.5,1.5,0,0,0,1.3.6,1.6,1.6,0,0,0,1.3-.6A2.5,2.5,0,0,0,242.3,159.7Z" transform="translate(0 0.2)" fill="#1e1e1e" stroke="#1e1e1e" stroke-miterlimit="10" stroke-width="0.06"/><path d="M249.9,159.7h-4.2a2.3,2.3,0,0,0,.5,1.5,2,2,0,0,0,1.5.6,3.1,3.1,0,0,0,1.8-.7v.9a3.3,3.3,0,0,1-2.1.6,2.8,2.8,0,0,1-2-.8,4.2,4.2,0,0,1-.7-2.3,3.4,3.4,0,0,1,.8-2.3,2.5,2.5,0,0,1,2-.9,1.9,1.9,0,0,1,1.8.8,3.3,3.3,0,0,1,.6,2.1Zm-.9-.8a2.2,2.2,0,0,0-.4-1.3,1.6,1.6,0,0,0-1.1-.5,1.7,1.7,0,0,0-1.2.5,2.3,2.3,0,0,0-.6,1.3Z" transform="translate(0 0.2)" fill="#1e1e1e" stroke="#1e1e1e" stroke-miterlimit="10" stroke-width="0.06"/><path d="M258.8,162.4h-.9v-.9h-.1a2.1,2.1,0,0,1-3.2.6,1.7,1.7,0,0,1-.5-1.3c0-1.1.7-1.7,2-1.9l1.8-.3c0-1-.4-1.5-1.3-1.5a2.8,2.8,0,0,0-1.9.7v-.9a3.4,3.4,0,0,1,2-.6c1.4,0,2.1.7,2.1,2.2Zm-.9-3-1.5.2-1,.3a1.2,1.2,0,0,0-.3.9.9.9,0,0,0,.3.7,1.1,1.1,0,0,0,.8.3,1.7,1.7,0,0,0,1.2-.5,2.1,2.1,0,0,0,.5-1.3Z" transform="translate(0 0.2)" fill="#1e1e1e" stroke="#1e1e1e" stroke-miterlimit="10" stroke-width="0.06"/><path d="M264.7,162.2a4.3,4.3,0,0,1-1.7.4,2.9,2.9,0,0,1-2.1-.9,2.8,2.8,0,0,1-.7-2.1,3.2,3.2,0,0,1,.8-2.4,3,3,0,0,1,2.3-.9,3.2,3.2,0,0,1,1.4.3v1a2.7,2.7,0,0,0-1.5-.5,1.8,1.8,0,0,0-1.5.7,2.4,2.4,0,0,0-.6,1.7,2.5,2.5,0,0,0,.6,1.7,2,2,0,0,0,1.5.6,2.4,2.4,0,0,0,1.5-.6Z" transform="translate(0 0.2)" fill="#1e1e1e" stroke="#1e1e1e" stroke-miterlimit="10" stroke-width="0.06"/><path d="M270.9,159.7h-4.3a1.9,1.9,0,0,0,.6,1.5,1.7,1.7,0,0,0,1.4.6,2.9,2.9,0,0,0,1.8-.7v.9a3.2,3.2,0,0,1-2,.6,2.5,2.5,0,0,1-2-.8,3.6,3.6,0,0,1-.8-2.3,3.4,3.4,0,0,1,.8-2.3,2.7,2.7,0,0,1,2-.9,1.9,1.9,0,0,1,1.8.8,3.3,3.3,0,0,1,.7,2.1Zm-1-.8a2.2,2.2,0,0,0-.4-1.3,1.6,1.6,0,0,0-1.1-.5,1.7,1.7,0,0,0-1.2.5,2.3,2.3,0,0,0-.6,1.3Z" transform="translate(0 0.2)" fill="#1e1e1e" stroke="#1e1e1e" stroke-miterlimit="10" stroke-width="0.06"/><path d="M271.9,162.2v-1a2.7,2.7,0,0,0,1.7.6c.9,0,1.3-.3,1.3-.9v-.4l-.3-.3-.5-.2-.5-.2-.7-.3-.5-.4-.3-.5c-.1-.1-.1-.3-.1-.6a1.4,1.4,0,0,1,.2-.7l.5-.6.7-.3h.9a3.2,3.2,0,0,1,1.4.3v.9a2.8,2.8,0,0,0-1.5-.4h-.9l-.2.3a.4.4,0,0,0-.1.3c0,.2,0,.3.1.4l.2.3.4.2.5.3.8.3.5.3c.1.2.3.3.3.5a1.4,1.4,0,0,1,.2.6,1.9,1.9,0,0,1-.2.8c-.2.2-.3.4-.6.5l-.7.4h-.9A2.7,2.7,0,0,1,271.9,162.2Z" transform="translate(0 0.2)" fill="#1e1e1e" stroke="#1e1e1e" stroke-miterlimit="10" stroke-width="0.06"/><path d="M276.9,162.2v-1a2.7,2.7,0,0,0,1.7.6c.9,0,1.3-.3,1.3-.9a.6.6,0,0,0-.1-.4l-.3-.3-.4-.2-.6-.2-.7-.3-.5-.4-.3-.5c-.1-.1-.1-.3-.1-.6a1.4,1.4,0,0,1,.2-.7l.5-.6.8-.3h.8a3.2,3.2,0,0,1,1.4.3v.9a2.4,2.4,0,0,0-1.5-.4h-.9l-.2.3a.4.4,0,0,0-.1.3c0,.2,0,.3.1.4l.2.3.4.2.6.3.7.3.5.3.4.5c0,.2.1.4.1.6a1.9,1.9,0,0,1-.2.8,1.2,1.2,0,0,1-.5.5l-.8.4h-.9A2.9,2.9,0,0,1,276.9,162.2Z" transform="translate(0 0.2)" fill="#1e1e1e" stroke="#1e1e1e" stroke-miterlimit="10" stroke-width="0.06"/><path d="M284.8,162.6a2.6,2.6,0,0,1-2.1-.9,2.7,2.7,0,0,1-.8-2.2,3.6,3.6,0,0,1,.8-2.4,3.3,3.3,0,0,1,2.2-.8,2.9,2.9,0,0,1,2.1.8,3.7,3.7,0,0,1,0,4.6A2.9,2.9,0,0,1,284.8,162.6Zm.1-5.5a1.9,1.9,0,0,0-1.5.6,2.4,2.4,0,0,0-.5,1.8,2.1,2.1,0,0,0,.5,1.6,1.8,1.8,0,0,0,1.5.7,1.7,1.7,0,0,0,1.4-.6,3,3,0,0,0,.5-1.8,2.9,2.9,0,0,0-.5-1.7A1.7,1.7,0,0,0,284.9,157.1Z" transform="translate(0 0.2)" fill="#1e1e1e" stroke="#1e1e1e" stroke-miterlimit="10" stroke-width="0.06"/></svg>