<svg xmlns="http://www.w3.org/2000/svg" xmlns:xlink="http://www.w3.org/1999/xlink" viewBox="0 0 492.7 180"><defs><symbol id="a" viewBox="0 0 20 20"><circle cx="10" cy="10" r="10" fill="#505050"/><path d="M7.6,5.8V7.1a2.7,2.7,0,0,1,1.7-.6,1.8,1.8,0,0,1,1.3.5,1,1,0,0,1,.5,1.1,1,1,0,0,1-.5,1.1,2,2,0,0,1-1.5.4H7.7L8,14h4.2V12.8h-3L9,10.7h.8a2.6,2.6,0,0,0,2-.7,2.4,2.4,0,0,0,.7-1.8,2.8,2.8,0,0,0-.8-2,3.4,3.4,0,0,0-2.3-.8A3.7,3.7,0,0,0,7.6,5.8Z" fill="#fff"/></symbol><symbol id="b" viewBox="0 0 20 20"><circle cx="10" cy="10" r="10" fill="#505050"/><path d="M12,14V8.6h1.2V7.4H12V5.6H10.6V7.4H6.8V8.6A13.1,13.1,0,0,1,7.9,9.8l1,1.4.9,1.4a10,10,0,0,1,.8,1.4ZM10.7,8.6v3.5l-1.3-2L8.2,8.6Z" fill="#fff"/></symbol><symbol id="c" viewBox="0 0 20 20"><circle cx="10" cy="10" r="10" fill="#505050"/><path d="M7.4,5.9V7.2a2.6,2.6,0,0,1,1.8-.7,2.3,2.3,0,0,1,1.4.4,1.2,1.2,0,0,1,.5,1c0,.9-.7,1.4-2.2,1.4H8.2v1.1h.7c1.3,0,1.9.5,1.9,1.4S10.3,13,9.3,13a2.3,2.3,0,0,1-1.6-.6v1.2a3.5,3.5,0,0,0,2,.5,3.5,3.5,0,0,0,1.8-.5,2.1,2.1,0,0,0-1-3.6h0a2.5,2.5,0,0,0,1.4-.6,2,2,0,0,0,.6-1.5,2.3,2.3,0,0,0-.9-1.8,3.4,3.4,0,0,0-2.2-.7A3.5,3.5,0,0,0,7.4,5.9Z" fill="#fff"/></symbol><symbol id="d" viewBox="0 0 20 20"><circle cx="10" cy="10" r="10" fill="#505050"/><path d="M11.2,14.2V5.6H9.8v6.9L9,12l-1-.3v1.2l.7.2.6.3.6.3.7.5Z" fill="#fff"/></symbol><symbol id="e" viewBox="0 0 20 20"><circle cx="10" cy="10" r="10" fill="#505050"/><path d="M12.5,5.6H7.2v.6c0,.3.1.5.1.8l.3.7.5.5.5.6.6.5.6.4.5.5.4.4.2.5a1.3,1.3,0,0,1,.1.6,1.3,1.3,0,0,1-.1.6l-.3.4-.4.2H9.6l-1-.2a3.9,3.9,0,0,1-1-.8v1.3a1,1,0,0,0,.5.4l.6.2.5.2h.7l1-.2.8-.4.5-.7a4.4,4.4,0,0,0,.2-1c0-.4-.1-.7-.1-1l-.4-.7-.6-.7-.7-.6-.7-.6-.6-.5-.4-.5a.8.8,0,0,1-.2-.5h3.8Z" fill="#fff"/></symbol></defs><title>OJ104329342</title><rect width="492.7" height="180" fill="#fff"/><rect x="0.5" width="105" height="155" fill="#ebebeb"/><rect x="370.2" y="60" width="105" height="95" fill="#0072c6"/><rect x="370.2" y="0.1" width="105" height="55" fill="#ffb900"/><line x1="105.5" y1="15" x2="364.7" y2="15" fill="none" stroke="#000" stroke-miterlimit="10"/><polygon points="363.6 18.7 370.1 15 363.6 11.3 363.6 18.7"/><line x1="110.9" y1="44.9" x2="370.1" y2="44.9" fill="none" stroke="#000" stroke-miterlimit="10"/><polygon points="112 48.6 105.5 44.9 112 41.1 112 48.6"/><line x1="105.5" y1="85.1" x2="364.7" y2="85.1" fill="none" stroke="#000" stroke-miterlimit="10"/><polygon points="363.6 88.8 370.1 85.1 363.6 81.4 363.6 88.8"/><line x1="110.9" y1="135.1" x2="370.1" y2="135.1" fill="none" stroke="#000" stroke-miterlimit="10"/><polygon points="112 138.8 105.5 135.1 112 131.4 112 138.8"/><path d="M51,155v7.5c0,4.1,4.5,7.5,10,7.5l419.2.8a10,10,0,0,0,10-10V31.5a2.7,2.7,0,0,0-2.9-2.5h-6.6" fill="none" stroke="#000" stroke-miterlimit="10"/><polygon points="481.8 25.3 475.3 29 481.8 32.7 481.8 25.3"/><use width="20" height="20" transform="matrix(1, 0, 0, -1, 159.06, 180)" xlink:href="#a"/><use width="20" height="20" transform="matrix(1, 0, 0, -1, 159.06, 145.1)" xlink:href="#b"/><use width="20" height="20" transform="matrix(1, 0, 0, -1, 159.06, 95.1)" xlink:href="#c"/><path d="M80.8,38.3A35.2,35.2,0,0,0,53,24.6a36.2,36.2,0,0,0-21.3,7.2,35,35,0,1,0,49.2,6.7C80.8,38.4,80.8,38.4,80.8,38.3Zm1.6,29.2-5.3-4.1a6.9,6.9,0,0,0-.8-6.4,6.5,6.5,0,0,0-8.5-1.6c-3-2.7-6.4-5.9-10-9.4,10.8-5.9,18.6-5.2,19.1-5.2l.3.5A30.3,30.3,0,0,1,82.4,67.5ZM63.2,75.7a7.4,7.4,0,0,0-1.1-2.4,6,6,0,0,0-8-1.4A47.6,47.6,0,0,1,46,66.5l-.7-.6a9.2,9.2,0,0,0-1.3-9c-.1,0-.1-.1-.2-.2l1.9-1.9a62.3,62.3,0,0,1,8-6.4h0c3.8,3.5,7.8,6.8,11.6,9.8a6.5,6.5,0,0,0,.6,6.6,6.7,6.7,0,0,0,9.3,1.3l.4-.4,6.1,4.3a31.7,31.7,0,0,1-3.4,6.6C76.2,77.2,70.7,77.9,63.2,75.7Zm9.4-39.3a33.3,33.3,0,0,0-20.3,3.8l-8.6-9.5A29.2,29.2,0,0,1,53,29.2,30,30,0,0,1,72.6,36.4Zm-38.1-.9a26.7,26.7,0,0,1,5.1-3.1,58,58,0,0,0,8.2,10.3A53,53,0,0,0,39.4,50l-2.8,3.3a9.1,9.1,0,0,0-4.3,1A24.6,24.6,0,0,1,29,41,28.7,28.7,0,0,1,34.5,35.5ZM25.4,46.8a22.9,22.9,0,0,0,3,11.4,9.3,9.3,0,0,0,.8,10h0a61.5,61.5,0,0,0-1.3,8.6A30.2,30.2,0,0,1,25.4,46.8ZM53,90.1A30.2,30.2,0,0,1,33.5,83,43.3,43.3,0,0,1,35,71.7a9.4,9.4,0,0,0,6.9-1.5l.7.6a55.6,55.6,0,0,0,8.7,5.5A6.1,6.1,0,0,0,61,81.9a5,5,0,0,0,1.5-1.7,51.8,51.8,0,0,0,11.7,1.3,20.4,20.4,0,0,1-2.7,2.3A30.2,30.2,0,0,1,53,90.1Z"/><use width="20" height="20" transform="matrix(1, 0, 0, -1, 159.06, 25)" xlink:href="#d"/><use width="20" height="20" transform="matrix(1, 0, 0, -1, 159.06, 54.88)" xlink:href="#e"/><polygon points="192.7 105.2 185.2 110.6 188.1 119.4 197.4 119.4 200.3 110.6 192.7 105.2" fill="#ebebeb" stroke="#000" stroke-miterlimit="10" stroke-width="0.75"/><polygon points="191.7 150.8 184.2 156.3 187.1 165.1 196.4 165.1 199.3 156.3 191.7 150.8" fill="#ebebeb" stroke="#000" stroke-miterlimit="10" stroke-width="0.75"/><path d="M30.8,114.7H28.9l-3.5-5.3-.4-.7h-.1a5.3,5.3,0,0,1,.1,1.4v4.6H23.2v-8.4h2l3.4,5.1.4.7h0v-5.8h1.8Z" stroke="#000" stroke-miterlimit="10" stroke-width="0.05"/><path d="M37.5,114.7H35.7v-.9h0a1.9,1.9,0,0,1-1.8,1,1.5,1.5,0,0,1-1.3-.5,1.4,1.4,0,0,1-.5-1.3c0-1.2.7-1.8,2-2l1.7-.2c0-.7-.4-1-1.1-1a3.6,3.6,0,0,0-2,.6V109l1-.3,1.2-.2a2.3,2.3,0,0,1,2.6,2.6Zm-1.7-2.5v-.4l-1.1.2c-.6.1-.9.3-.9.8s0,.4.2.5a.8.8,0,0,0,.6.2,1.1,1.1,0,0,0,.8-.3A1.3,1.3,0,0,0,35.8,112.2Z" stroke="#000" stroke-miterlimit="10" stroke-width="0.05"/><path d="M44.7,108.7l-2.3,6H40.3l-2.1-6h2l1,3.7a5.8,5.8,0,0,1,.2,1h.1a5.8,5.8,0,0,1,.2-1l1-3.7Z" stroke="#000" stroke-miterlimit="10" stroke-width="0.05"/><path d="M50.7,112.2H46.8c.1.9.6,1.3,1.7,1.3a2.6,2.6,0,0,0,1.7-.5v1.4a4.4,4.4,0,0,1-2.1.4,2.8,2.8,0,0,1-2.3-.8,3.1,3.1,0,0,1-.8-2.2,3.2,3.2,0,0,1,.9-2.4,2.7,2.7,0,0,1,2.1-.9,2.6,2.6,0,0,1,2,.8,2.8,2.8,0,0,1,.7,2.1ZM49,111.1c0-.9-.3-1.3-1-1.3a.9.9,0,0,0-.8.4,1.9,1.9,0,0,0-.4.9Z" stroke="#000" stroke-miterlimit="10" stroke-width="0.05"/><path d="M57.7,114a3.6,3.6,0,0,1-.9,2.6,4.1,4.1,0,0,1-2.8.9,5.6,5.6,0,0,1-2-.3v-1.6a3.6,3.6,0,0,0,1.9.5,2,2,0,0,0,1.5-.5,1.7,1.7,0,0,0,.5-1.3v-.5h0a2.2,2.2,0,0,1-1.9,1,1.9,1.9,0,0,1-1.8-.8,2.8,2.8,0,0,1-.7-2.1,3.7,3.7,0,0,1,.7-2.5,2.5,2.5,0,0,1,2-.9,2,2,0,0,1,1.7.9h0v-.7h1.8Zm-1.8-2.2v-.5a1.2,1.2,0,0,0-1.2-1.3,1.3,1.3,0,0,0-1,.4,2.9,2.9,0,0,0-.3,1.4,2.1,2.1,0,0,0,.3,1.2,1.2,1.2,0,0,0,1.8,0A1.6,1.6,0,0,0,55.9,111.8Z" stroke="#000" stroke-miterlimit="10" stroke-width="0.05"/><path d="M64.3,114.7H62.5v-.9h0a1.9,1.9,0,0,1-1.8,1,1.7,1.7,0,0,1-1.9-1.8c0-1.2.7-1.8,2.1-2l1.6-.2c0-.7-.3-1-1-1a3.9,3.9,0,0,0-2.1.6V109l1.1-.3,1.2-.2a2.3,2.3,0,0,1,2.6,2.6Zm-1.8-2.5v-.4l-1.1.2c-.6.1-.9.3-.9.8a.5.5,0,0,0,.3.5l.5.2a1.2,1.2,0,0,0,.9-.3A1.7,1.7,0,0,0,62.5,112.2Z" stroke="#000" stroke-miterlimit="10" stroke-width="0.05"/><path d="M71.6,114.7H69.8v-.8h-.1a2,2,0,0,1-1.8.9,1.9,1.9,0,0,1-1.8-.8,2.9,2.9,0,0,1-.7-2.2,3.6,3.6,0,0,1,.7-2.4,2.5,2.5,0,0,1,2-.9,1.6,1.6,0,0,1,1.6.9h.1v-3.6h1.8Zm-1.8-2.9v-.5a1.3,1.3,0,0,0-.4-1,1.1,1.1,0,0,0-.8-.3,1.2,1.2,0,0,0-1,.4,2.9,2.9,0,0,0-.3,1.4,2.1,2.1,0,0,0,.3,1.2,1.2,1.2,0,0,0,1.8,0A1.6,1.6,0,0,0,69.8,111.8Z" stroke="#000" stroke-miterlimit="10" stroke-width="0.05"/><path d="M76,114.8a3.2,3.2,0,0,1-2.3-.8,3,3,0,0,1-.9-2.3,2.9,2.9,0,0,1,.9-2.3,3.2,3.2,0,0,1,2.4-.9,2.9,2.9,0,0,1,2.3.9,2.8,2.8,0,0,1,.9,2.2,3.2,3.2,0,0,1-.9,2.4A3.6,3.6,0,0,1,76,114.8Zm.1-4.8a1.4,1.4,0,0,0-1.1.4,2.3,2.3,0,0,0-.3,1.3c0,1.1.4,1.7,1.4,1.7s1.3-.6,1.3-1.8S77,110,76.1,110Z" stroke="#000" stroke-miterlimit="10" stroke-width="0.05"/><path d="M84.4,110.4a1.1,1.1,0,0,0-.8-.2,1,1,0,0,0-.9.4,2.1,2.1,0,0,0-.4,1.2v2.9H80.5v-6h1.8v1.1h.1a1.6,1.6,0,0,1,1.6-1.2h.4Z" stroke="#000" stroke-miterlimit="10" stroke-width="0.05"/><path d="M38.6,129.1H36.7v-.8h0a2,2,0,0,1-1.8.9,2.2,2.2,0,0,1-1.9-.8,3.4,3.4,0,0,1-.6-2.2,3.6,3.6,0,0,1,.7-2.4,2.5,2.5,0,0,1,2-.9,1.6,1.6,0,0,1,1.6.9h0v-3.6h1.9Zm-1.8-2.9v-.5a1.3,1.3,0,0,0-.4-1,1.2,1.2,0,0,0-.9-.3,1,1,0,0,0-.9.4,2.9,2.9,0,0,0-.4,1.4,2.1,2.1,0,0,0,.4,1.2,1.2,1.2,0,0,0,1.8,0A1.6,1.6,0,0,0,36.8,126.2Z" stroke="#000" stroke-miterlimit="10" stroke-width="0.05"/><path d="M45.1,129.1H43.4v-.9h0a1.9,1.9,0,0,1-1.8,1,1.6,1.6,0,0,1-1.4-.5,1.7,1.7,0,0,1-.5-1.3c0-1.2.7-1.8,2.1-2l1.6-.2c0-.7-.4-1-1.1-1a3.6,3.6,0,0,0-2,.6v-1.4l1-.3,1.3-.2c1.7,0,2.5.9,2.5,2.6Zm-1.7-2.5v-.4l-1.1.2c-.6.1-.9.3-.9.8a.8.8,0,0,0,.2.5l.6.2a1.2,1.2,0,0,0,.9-.3A1.7,1.7,0,0,0,43.4,126.6Z" stroke="#000" stroke-miterlimit="10" stroke-width="0.05"/><path d="M61.1,120.7l-2.2,8.4H56.8l-1.4-5.4c-.1-.3-.1-.6-.2-1h0c0,.4-.1.7-.1,1l-1.5,5.4H51.4l-2.2-8.4h2.1l1.2,5.6c0,.2.1.5.1.9h0c.1-.3.1-.6.2-.9l1.5-5.6h2.1l1.3,5.6a6.4,6.4,0,0,1,.2.9h0c0-.3.1-.6.1-.9l1.2-5.6Z" stroke="#000" stroke-miterlimit="10" stroke-width="0.05"/><path d="M67,126.6H63.1c.1.9.6,1.3,1.7,1.3a2.6,2.6,0,0,0,1.7-.5v1.4a4.4,4.4,0,0,1-2.1.4,2.8,2.8,0,0,1-2.3-.8,3.1,3.1,0,0,1-.8-2.2,3.2,3.2,0,0,1,.9-2.4,2.6,2.6,0,0,1,2.1-.9,2.6,2.6,0,0,1,2,.8,2.8,2.8,0,0,1,.7,2.1Zm-1.7-1.1c0-.9-.3-1.3-1-1.3a.9.9,0,0,0-.8.4,1.9,1.9,0,0,0-.4.9Z" stroke="#000" stroke-miterlimit="10" stroke-width="0.05"/><path d="M70,128.4h0v.7H68.1v-8.9H70V124h0a2.3,2.3,0,0,1,2-1.1,2.5,2.5,0,0,1,1.8.8,3.8,3.8,0,0,1,.6,2.2,3.6,3.6,0,0,1-.8,2.4,2.2,2.2,0,0,1-1.9.9A2.1,2.1,0,0,1,70,128.4Zm0-2.5v.6a1.2,1.2,0,0,0,.3.9,1,1,0,0,0,.9.4,1.1,1.1,0,0,0,.9-.5,2,2,0,0,0,.4-1.4,1.8,1.8,0,0,0-.3-1.1,1.1,1.1,0,0,0-.9-.4,1.3,1.3,0,0,0-1,.4A1.6,1.6,0,0,0,70,125.9Z" stroke="#000" stroke-miterlimit="10" stroke-width="0.05"/><path d="M184.5,66.9V65.7l.5.3.6.3h1.2a1.7,1.7,0,0,0,1.3-.4,1.1,1.1,0,0,0,.5-.9.8.8,0,0,0-.2-.6,1,1,0,0,0-.4-.5l-.6-.4-.8-.4-.8-.4-.6-.5a1.8,1.8,0,0,1-.5-.7,1.9,1.9,0,0,1-.2-.8,1.7,1.7,0,0,1,.3-1,2.3,2.3,0,0,1,.7-.7,1.9,1.9,0,0,1,.9-.4h1.1a4.2,4.2,0,0,1,1.8.3v1.1a3,3,0,0,0-1.9-.5h-.7l-.6.2-.4.4a1.9,1.9,0,0,0,0,1.2l.4.4.5.4.8.4.9.5.7.5a1.6,1.6,0,0,1,.4.7,1.1,1.1,0,0,1,.2.8,2.5,2.5,0,0,1-.2,1,1.6,1.6,0,0,1-.7.7,1.5,1.5,0,0,1-.9.4l-1.2.2H185Z" fill="#1e1e1e" stroke="#1e1e1e" stroke-miterlimit="10" stroke-width="0.06"/><path d="M193.6,67.4a2.6,2.6,0,0,1-2.1-.9,3.1,3.1,0,0,1-.8-2.2,3.6,3.6,0,0,1,.8-2.4,3.4,3.4,0,0,1,2.3-.8,2.4,2.4,0,0,1,2,.8,3.2,3.2,0,0,1,.8,2.3,3.6,3.6,0,0,1-.8,2.3A2.9,2.9,0,0,1,193.6,67.4Zm.1-5.5a2,2,0,0,0-1.5.6,2.9,2.9,0,0,0-.5,1.7,2.6,2.6,0,0,0,.5,1.7,2,2,0,0,0,1.5.6,1.7,1.7,0,0,0,1.4-.6,2.6,2.6,0,0,0,.5-1.7,2.9,2.9,0,0,0-.5-1.7A1.7,1.7,0,0,0,193.7,61.9Z" fill="#1e1e1e" stroke="#1e1e1e" stroke-miterlimit="10" stroke-width="0.06"/><path d="M199,67.2h-.9V58.3h.9Z" fill="#1e1e1e" stroke="#1e1e1e" stroke-miterlimit="10" stroke-width="0.06"/><path d="M201.4,59.7l-.5-.2a.6.6,0,0,1-.1-.4.7.7,0,0,1,.1-.5l.5-.2.4.2c.2.1.2.3.2.5a.4.4,0,0,1-.2.4Zm.5,7.5h-1v-6h1Z" fill="#1e1e1e" stroke="#1e1e1e" stroke-miterlimit="10" stroke-width="0.06"/><path d="M207.8,66.9a2.8,2.8,0,0,1-1.6.5,2.6,2.6,0,0,1-2.1-.9,3,3,0,0,1-.8-2.1,3.2,3.2,0,0,1,.9-2.4,2.8,2.8,0,0,1,2.2-.9,2.9,2.9,0,0,1,1.4.3v.9a2.3,2.3,0,0,0-1.4-.4,2,2,0,0,0-1.5.6,2.8,2.8,0,0,0-.6,1.8,2.1,2.1,0,0,0,.6,1.6,1.7,1.7,0,0,0,1.4.6,2,2,0,0,0,1.5-.5Z" fill="#1e1e1e" stroke="#1e1e1e" stroke-miterlimit="10" stroke-width="0.06"/><path d="M209.7,59.7a.5.5,0,0,1-.4-.2.4.4,0,0,1-.2-.4c0-.2,0-.4.2-.5a.5.5,0,0,1,.8,0c.2.1.2.3.2.5a.4.4,0,0,1-.2.4A.5.5,0,0,1,209.7,59.7Zm.5,7.5h-1v-6h1Z" fill="#1e1e1e" stroke="#1e1e1e" stroke-miterlimit="10" stroke-width="0.06"/><path d="M214.8,67.2h-.9c-1,0-1.6-.5-1.6-1.7V62h-1v-.8h1V59.7l1-.3v1.8h1.5V62h-1.5v3.4a2,2,0,0,0,.2.9l.7.2a.7.7,0,0,0,.6-.2Z" fill="#1e1e1e" stroke="#1e1e1e" stroke-miterlimit="10" stroke-width="0.06"/><path d="M220.3,67.2h-.9v-.9h-.1a2.1,2.1,0,0,1-3.2.6,1.9,1.9,0,0,1-.5-1.3c0-1.1.6-1.8,2-1.9l1.8-.3c0-1-.4-1.5-1.3-1.5a2.8,2.8,0,0,0-1.9.7v-1a4.2,4.2,0,0,1,2-.5c1.4,0,2.1.7,2.1,2.2Zm-.9-3-1.5.2a1.5,1.5,0,0,0-1,.3,1,1,0,0,0-.3.8,1.1,1.1,0,0,0,.3.8,1.1,1.1,0,0,0,.8.2,1.3,1.3,0,0,0,1.2-.5,1.7,1.7,0,0,0,.5-1.2Z" fill="#1e1e1e" stroke="#1e1e1e" stroke-miterlimit="10" stroke-width="0.06"/><path d="M225.2,62.2l-.7-.2a1.4,1.4,0,0,0-1.1.6,3.4,3.4,0,0,0-.4,1.6v3h-.9v-6h.9v1.2h0a2.2,2.2,0,0,1,.7-.9,1.2,1.2,0,0,1,.9-.4h.6Z" fill="#1e1e1e" stroke="#1e1e1e" stroke-miterlimit="10" stroke-width="0.06"/><path d="M188.9,79.9a3.1,3.1,0,0,1-1.7.5,2.5,2.5,0,0,1-2-.9,3,3,0,0,1-.8-2.1,3.6,3.6,0,0,1,.8-2.4,3.4,3.4,0,0,1,3.7-.6v.9a2.3,2.3,0,0,0-1.4-.4,2,2,0,0,0-1.5.6,2.8,2.8,0,0,0-.6,1.8,2.5,2.5,0,0,0,.5,1.6,2,2,0,0,0,1.5.6,2.3,2.3,0,0,0,1.5-.5Z" fill="#1e1e1e" stroke="#1e1e1e" stroke-miterlimit="10" stroke-width="0.06"/><path d="M193.4,75.2l-.7-.2a1.4,1.4,0,0,0-1.1.6,3.4,3.4,0,0,0-.4,1.6v3h-.9v-6h.9v1.2h.1a1.5,1.5,0,0,1,.6-.9,1.2,1.2,0,0,1,.9-.4h.6Z" fill="#1e1e1e" stroke="#1e1e1e" stroke-miterlimit="10" stroke-width="0.06"/><path d="M199.2,77.5H195a2.5,2.5,0,0,0,.5,1.5,1.6,1.6,0,0,0,1.4.5,3.3,3.3,0,0,0,1.9-.6v.9a3.5,3.5,0,0,1-2.1.6,2.4,2.4,0,0,1-2-.9,3.2,3.2,0,0,1-.7-2.3,2.7,2.7,0,0,1,.8-2.2,2.3,2.3,0,0,1,1.9-.9,2.1,2.1,0,0,1,1.8.7,2.8,2.8,0,0,1,.7,2.1Zm-1-.9a2,2,0,0,0-.4-1.3,1.4,1.4,0,0,0-1.1-.4,1.3,1.3,0,0,0-1.1.5,1.4,1.4,0,0,0-.6,1.2Z" fill="#1e1e1e" stroke="#1e1e1e" stroke-miterlimit="10" stroke-width="0.06"/><path d="M205.7,80.2h-1v-1h0a2.1,2.1,0,0,1-2.1,1.2,2.3,2.3,0,0,1-1.8-.9,3.3,3.3,0,0,1-.6-2.1,3.6,3.6,0,0,1,.7-2.4,2.5,2.5,0,0,1,2-.9,2,2,0,0,1,1.8.9h0V71.3h1Zm-1-2.7v-.9a1.6,1.6,0,0,0-.4-1.2,1.7,1.7,0,0,0-1.3-.5,1.5,1.5,0,0,0-1.3.6,2.6,2.6,0,0,0-.6,1.8,2.5,2.5,0,0,0,.5,1.6,1.8,1.8,0,0,0,1.3.6,1.4,1.4,0,0,0,1.3-.5A2,2,0,0,0,204.7,77.5Z" fill="#1e1e1e" stroke="#1e1e1e" stroke-miterlimit="10" stroke-width="0.06"/><path d="M212.4,77.5h-4.2a2,2,0,0,0,.5,1.5,1.6,1.6,0,0,0,1.4.5,3.3,3.3,0,0,0,1.9-.6v.9a3.7,3.7,0,0,1-2.1.6,2.4,2.4,0,0,1-2-.9,3.2,3.2,0,0,1-.7-2.3A2.7,2.7,0,0,1,208,75a2.3,2.3,0,0,1,1.9-.9,2.1,2.1,0,0,1,1.8.7,2.8,2.8,0,0,1,.7,2.1Zm-1-.9a2,2,0,0,0-.4-1.3,1.4,1.4,0,0,0-1.1-.4,1.3,1.3,0,0,0-1.1.5,1.4,1.4,0,0,0-.6,1.2Z" fill="#1e1e1e" stroke="#1e1e1e" stroke-miterlimit="10" stroke-width="0.06"/><path d="M218.8,80.2h-1V76.8c0-1.3-.5-1.9-1.4-1.9a1.7,1.7,0,0,0-1.2.5,2.2,2.2,0,0,0-.5,1.4v3.4h-.9v-6h.9v1h.1a2.1,2.1,0,0,1,1.9-1.1,1.8,1.8,0,0,1,1.5.6,2.4,2.4,0,0,1,.6,1.8Z" fill="#1e1e1e" stroke="#1e1e1e" stroke-miterlimit="10" stroke-width="0.06"/><path d="M224.6,79.9a3.1,3.1,0,0,1-1.7.5,2.5,2.5,0,0,1-2-.9,2.6,2.6,0,0,1-.8-2.1,3.6,3.6,0,0,1,.8-2.4,3.4,3.4,0,0,1,3.7-.6v.9a2.5,2.5,0,0,0-1.4-.4,1.8,1.8,0,0,0-1.5.6,2.8,2.8,0,0,0-.6,1.8,2.1,2.1,0,0,0,.5,1.6,2,2,0,0,0,1.5.6,2.3,2.3,0,0,0,1.5-.5Z" fill="#1e1e1e" stroke="#1e1e1e" stroke-miterlimit="10" stroke-width="0.06"/><path d="M226.5,72.7l-.5-.2a.6.6,0,0,1,0-.9l.5-.2.4.2a.6.6,0,0,1,0,.9Zm.4,7.5H226v-6h.9Z" fill="#1e1e1e" stroke="#1e1e1e" stroke-miterlimit="10" stroke-width="0.06"/><path d="M233.1,80.2h-1v-.9h0a2.1,2.1,0,0,1-3.2.6,1.6,1.6,0,0,1-.6-1.3c0-1.1.7-1.8,2-1.9l1.8-.3q0-1.5-1.2-1.5a3.1,3.1,0,0,0-2,.7v-1a4.6,4.6,0,0,1,2.1-.5c1.4,0,2.1.7,2.1,2.2Zm-1-3-1.4.2a1.3,1.3,0,0,0-1,.3.8.8,0,0,0-.4.8,1.1,1.1,0,0,0,.3.8,1.8,1.8,0,0,0,2.1-.3,1.6,1.6,0,0,0,.4-1.2Z" fill="#1e1e1e" stroke="#1e1e1e" stroke-miterlimit="10" stroke-width="0.06"/><path d="M235.3,72.7a.5.5,0,0,1-.4-.2.6.6,0,0,1,0-.9l.4-.2.5.2a.6.6,0,0,1,0,.9Zm.5,7.5h-1v-6h1Z" fill="#1e1e1e" stroke="#1e1e1e" stroke-miterlimit="10" stroke-width="0.06"/><path d="M237.3,80V79a2.6,2.6,0,0,0,1.7.5c.9,0,1.3-.2,1.3-.8s0-.3-.1-.4l-.3-.3-.4-.2-.6-.2-.7-.4-.5-.3-.3-.5a1.3,1.3,0,0,1-.1-.6,1.4,1.4,0,0,1,.2-.7c.1-.3.3-.4.5-.6l.8-.3h.8l1.4.2v1a2.4,2.4,0,0,0-1.5-.4H239l-.4.2c-.1.1-.2.2-.2.3a.4.4,0,0,0-.1.3c0,.2,0,.3.1.4s.1.2.2.3l.4.2.6.2.7.4.5.3a1,1,0,0,1,.4.5c0,.2.1.4.1.6a1.9,1.9,0,0,1-.2.8,1.2,1.2,0,0,1-.5.5,1.3,1.3,0,0,1-.8.3l-.9.2A4.2,4.2,0,0,1,237.3,80Z" fill="#1e1e1e" stroke="#1e1e1e" stroke-miterlimit="10" stroke-width="0.06"/><path d="M210.1,109.1h-2.4v7.5h-1v-7.5h-2.4v-.9h5.8Z" fill="#1e1e1e" stroke="#1e1e1e" stroke-miterlimit="10" stroke-width="0.06"/><path d="M212.6,116.8a2.6,2.6,0,0,1-2.1-.9,3.1,3.1,0,0,1-.8-2.2,3.6,3.6,0,0,1,.8-2.4,3.4,3.4,0,0,1,2.3-.8,2.5,2.5,0,0,1,2.1.8,3.2,3.2,0,0,1,.7,2.3,3.6,3.6,0,0,1-.8,2.3A2.8,2.8,0,0,1,212.6,116.8Zm.1-5.5a2,2,0,0,0-1.5.6,2.9,2.9,0,0,0-.5,1.7,2.6,2.6,0,0,0,.5,1.7,2,2,0,0,0,1.5.6,1.7,1.7,0,0,0,1.4-.6,2.2,2.2,0,0,0,.5-1.7,2.3,2.3,0,0,0-.5-1.7A1.7,1.7,0,0,0,212.7,111.3Z" fill="#1e1e1e" stroke="#1e1e1e" stroke-miterlimit="10" stroke-width="0.06"/><path d="M222.1,116.6h-1.4l-2.6-2.9h0v2.9h-1v-8.9h1v5.7h0l2.5-2.8h1.3l-2.8,2.9Z" fill="#1e1e1e" stroke="#1e1e1e" stroke-miterlimit="10" stroke-width="0.06"/><path d="M227.9,113.9h-4.3a2.5,2.5,0,0,0,.6,1.5,1.6,1.6,0,0,0,1.4.5,3.3,3.3,0,0,0,1.9-.6v.9a3.7,3.7,0,0,1-2.1.6,2.4,2.4,0,0,1-2-.9,3.2,3.2,0,0,1-.8-2.3,3.1,3.1,0,0,1,.8-2.2,2.7,2.7,0,0,1,2-.9,2.1,2.1,0,0,1,1.8.7,2.8,2.8,0,0,1,.7,2.1Zm-1-.9a2,2,0,0,0-.4-1.3,1.4,1.4,0,0,0-1.1-.4,1.5,1.5,0,0,0-1.2.5,1.7,1.7,0,0,0-.5,1.2Z" fill="#1e1e1e" stroke="#1e1e1e" stroke-miterlimit="10" stroke-width="0.06"/><path d="M234.3,116.6h-1v-3.4c0-1.3-.4-1.9-1.4-1.9a2.1,2.1,0,0,0-1.2.5,2.1,2.1,0,0,0-.4,1.4v3.4h-1v-6h1v1h0a2.2,2.2,0,0,1,2-1.1,2,2,0,0,1,1.5.6,3,3,0,0,1,.5,1.8Z" fill="#1e1e1e" stroke="#1e1e1e" stroke-miterlimit="10" stroke-width="0.06"/><path d="M244.5,116.6h-1v-1h0a2.4,2.4,0,0,1-2.1,1.2,2.3,2.3,0,0,1-1.8-.9,3.3,3.3,0,0,1-.7-2.1,3.6,3.6,0,0,1,.8-2.4,2.4,2.4,0,0,1,2-.9,2,2,0,0,1,1.8.9h0v-3.7h1Zm-1-2.7V113a1.7,1.7,0,0,0-.5-1.2,1.3,1.3,0,0,0-1.2-.5,1.8,1.8,0,0,0-1.4.6,3.2,3.2,0,0,0-.5,1.8,2.5,2.5,0,0,0,.5,1.6,1.6,1.6,0,0,0,1.3.6,1.5,1.5,0,0,0,1.3-.5A2.5,2.5,0,0,0,243.5,113.9Z" fill="#1e1e1e" stroke="#1e1e1e" stroke-miterlimit="10" stroke-width="0.06"/><path d="M251.2,113.9H247a2.5,2.5,0,0,0,.5,1.5,1.6,1.6,0,0,0,1.4.5,3.3,3.3,0,0,0,1.9-.6v.9a3.3,3.3,0,0,1-2.1.6,2.4,2.4,0,0,1-2-.9,3.2,3.2,0,0,1-.7-2.3,2.7,2.7,0,0,1,.8-2.2,2.5,2.5,0,0,1,1.9-.9,2.5,2.5,0,0,1,1.9.7,3.3,3.3,0,0,1,.6,2.1Zm-1-.9a2,2,0,0,0-.4-1.3,1.2,1.2,0,0,0-1.1-.4,1.3,1.3,0,0,0-1.1.5,1.7,1.7,0,0,0-.6,1.2Z" fill="#1e1e1e" stroke="#1e1e1e" stroke-miterlimit="10" stroke-width="0.06"/><path d="M260.2,116.6h-1v-.9h0a2.1,2.1,0,0,1-3.2.6,1.5,1.5,0,0,1-.5-1.3,1.8,1.8,0,0,1,1.9-1.9l1.8-.3q0-1.5-1.2-1.5a3.1,3.1,0,0,0-2,.7v-1a4.6,4.6,0,0,1,2.1-.5c1.4,0,2.1.7,2.1,2.2Zm-1-3-1.4.2a1.3,1.3,0,0,0-1,.3.8.8,0,0,0-.4.8,1.1,1.1,0,0,0,.3.8,1.8,1.8,0,0,0,2.1-.3,1.6,1.6,0,0,0,.4-1.2Z" fill="#1e1e1e" stroke="#1e1e1e" stroke-miterlimit="10" stroke-width="0.06"/><path d="M266.1,116.3a3.1,3.1,0,0,1-1.7.5,2.5,2.5,0,0,1-2-.9,2.6,2.6,0,0,1-.8-2.1,3.2,3.2,0,0,1,.8-2.4,3,3,0,0,1,2.3-.9,3.2,3.2,0,0,1,1.4.3v.9a2.6,2.6,0,0,0-1.5-.4,2,2,0,0,0-1.5.6,2.7,2.7,0,0,0-.5,1.8,2.1,2.1,0,0,0,.5,1.6,2,2,0,0,0,1.5.6,2.3,2.3,0,0,0,1.5-.5Z" fill="#1e1e1e" stroke="#1e1e1e" stroke-miterlimit="10" stroke-width="0.06"/><path d="M272.3,113.9h-4.2a2.5,2.5,0,0,0,.5,1.5,1.7,1.7,0,0,0,1.4.5,3.3,3.3,0,0,0,1.9-.6v.9a3.3,3.3,0,0,1-2.1.6,2.5,2.5,0,0,1-2-.9,3.2,3.2,0,0,1-.7-2.3,3.1,3.1,0,0,1,.8-2.2,2.5,2.5,0,0,1,2-.9,2.4,2.4,0,0,1,1.8.7,3.3,3.3,0,0,1,.6,2.1Zm-1-.9a2,2,0,0,0-.4-1.3,1.2,1.2,0,0,0-1.1-.4,1.3,1.3,0,0,0-1.1.5,2.3,2.3,0,0,0-.6,1.2Z" fill="#1e1e1e" stroke="#1e1e1e" stroke-miterlimit="10" stroke-width="0.06"/><path d="M273.4,116.4v-1a2.6,2.6,0,0,0,1.7.5c.9,0,1.3-.2,1.3-.8s-.1-.3-.1-.4l-.3-.3-.5-.2-.5-.2-.7-.4-.5-.3-.3-.5a1.3,1.3,0,0,1-.1-.6,1.4,1.4,0,0,1,.2-.7c.1-.3.3-.4.5-.6l.7-.3h.9l1.4.2v1a2.8,2.8,0,0,0-1.5-.4h-.5l-.4.2-.2.3a.4.4,0,0,0-.1.3c0,.2,0,.3.1.4l.2.3.4.2.5.2.8.4.5.3a.9.9,0,0,1,.3.5,1.4,1.4,0,0,1,.2.6,1.9,1.9,0,0,1-.2.8c-.2.2-.3.4-.6.5a.9.9,0,0,1-.7.3l-.9.2A3.8,3.8,0,0,1,273.4,116.4Z" fill="#1e1e1e" stroke="#1e1e1e" stroke-miterlimit="10" stroke-width="0.06"/><path d="M278.5,116.4v-1a2.6,2.6,0,0,0,1.7.5c.8,0,1.2-.2,1.2-.8s0-.3-.1-.4-.1-.2-.3-.3a.5.5,0,0,0-.4-.2l-.5-.2-.7-.4-.5-.3c-.2-.2-.3-.3-.3-.5a1.3,1.3,0,0,1-.1-.6.8.8,0,0,1,.2-.7c.1-.3.3-.4.5-.6l.7-.3h.9l1.4.2v1a2.9,2.9,0,0,0-1.6-.4h-.5l-.3.2-.3.3c0,.1-.1.2-.1.3s.1.3.1.4l.3.3.4.2.5.2.7.4.6.3.3.5a1.3,1.3,0,0,1,.1.6,1.1,1.1,0,0,1-.2.8,1.2,1.2,0,0,1-.5.5,1.1,1.1,0,0,1-.7.3l-.9.2A3.4,3.4,0,0,1,278.5,116.4Z" fill="#1e1e1e" stroke="#1e1e1e" stroke-miterlimit="10" stroke-width="0.06"/><path d="M286.4,116.8a2.6,2.6,0,0,1-2.1-.9,2.7,2.7,0,0,1-.8-2.2,3.2,3.2,0,0,1,.8-2.4,3.1,3.1,0,0,1,2.2-.8,2.5,2.5,0,0,1,2.1.8,3.2,3.2,0,0,1,.8,2.3,3.6,3.6,0,0,1-.8,2.3A2.9,2.9,0,0,1,286.4,116.8Zm.1-5.5a1.9,1.9,0,0,0-1.5.6,2.3,2.3,0,0,0-.5,1.7,2.2,2.2,0,0,0,.5,1.7,2,2,0,0,0,1.5.6,1.7,1.7,0,0,0,1.4-.6,2.6,2.6,0,0,0,.5-1.7,2.9,2.9,0,0,0-.5-1.7A1.7,1.7,0,0,0,286.5,111.3Z" fill="#1e1e1e" stroke="#1e1e1e" stroke-miterlimit="10" stroke-width="0.06"/><path d="M300,113.5h-2.3v2.4h-.8v-2.4h-2.4v-.8h2.4v-2.3h.8v2.3H300Z" fill="#1e1e1e" stroke="#1e1e1e" stroke-miterlimit="10" stroke-width="0.06"/><path d="M311.9,113.2c0,2.4-1.1,3.6-3.2,3.6s-3.1-1.2-3.1-3.5v-5.1h1v5.1c0,1.7.7,2.6,2.2,2.6s2.1-.9,2.1-2.5v-5.2h1Z" fill="#1e1e1e" stroke="#1e1e1e" stroke-miterlimit="10" stroke-width="0.06"/><path d="M320,116.6h-1.2l-1.4-2.3c-.1-.3-.3-.4-.4-.6l-.4-.4-.4-.2h-1.3v3.6H314v-8.4h3.5l.8.5a1.8,1.8,0,0,1,.5.7,2.4,2.4,0,0,1,.2.9,2.8,2.8,0,0,1-.1.9,2.1,2.1,0,0,1-.4.6l-.6.5-.8.3h0l.4.2.3.3.3.4.3.5Zm-5.1-7.5v3H317c.2,0,.3-.1.5-.3l.4-.5c0-.2.1-.4.1-.7a1.2,1.2,0,0,0-.5-1,1.5,1.5,0,0,0-1.2-.4Z" fill="#1e1e1e" stroke="#1e1e1e" stroke-miterlimit="10" stroke-width="0.06"/><path d="M325.5,116.6h-4.4v-8.4h1v7.5h3.4Z" fill="#1e1e1e" stroke="#1e1e1e" stroke-miterlimit="10" stroke-width="0.06"/><path d="M210.1,129.6h-.9v-1h0a2.4,2.4,0,0,1-2.1,1.2,2,2,0,0,1-1.8-.9,2.8,2.8,0,0,1-.7-2.1,3.6,3.6,0,0,1,.8-2.4,2.4,2.4,0,0,1,2-.9,2,2,0,0,1,1.8.9h0v-3.7h.9Zm-.9-2.7V126a1.7,1.7,0,0,0-.5-1.2,1.3,1.3,0,0,0-1.2-.5,1.7,1.7,0,0,0-1.4.6,3.2,3.2,0,0,0-.5,1.8,2.5,2.5,0,0,0,.5,1.6,1.5,1.5,0,0,0,1.3.6,1.7,1.7,0,0,0,1.3-.5A2.5,2.5,0,0,0,209.2,126.9Z" fill="#1e1e1e" stroke="#1e1e1e" stroke-miterlimit="10" stroke-width="0.06"/><path d="M216.9,126.9h-4.3a2.5,2.5,0,0,0,.6,1.5,1.6,1.6,0,0,0,1.4.5,3.3,3.3,0,0,0,1.9-.6v.9a3.7,3.7,0,0,1-2.1.6,2.4,2.4,0,0,1-2-.9,3.2,3.2,0,0,1-.7-2.3,3.1,3.1,0,0,1,.7-2.2,2.7,2.7,0,0,1,2-.9,2.1,2.1,0,0,1,1.8.7,2.8,2.8,0,0,1,.7,2.1Zm-1-.9a2,2,0,0,0-.4-1.3,1.4,1.4,0,0,0-1.1-.4,1.5,1.5,0,0,0-1.2.5,1.7,1.7,0,0,0-.5,1.2Z" fill="#1e1e1e" stroke="#1e1e1e" stroke-miterlimit="10" stroke-width="0.06"/><path d="M224.7,124.6l-.7-.2a1.4,1.4,0,0,0-1.1.6,3.4,3.4,0,0,0-.4,1.6v3h-.9v-6h.9v1.2h.1a1.5,1.5,0,0,1,.6-.9,1.2,1.2,0,0,1,.9-.4h.6Z" fill="#1e1e1e" stroke="#1e1e1e" stroke-miterlimit="10" stroke-width="0.06"/><path d="M230.5,126.9h-4.2a2.5,2.5,0,0,0,.5,1.5,2,2,0,0,0,1.5.5,3,3,0,0,0,1.8-.6v.9a3.3,3.3,0,0,1-2.1.6,2.5,2.5,0,0,1-2-.9,3.7,3.7,0,0,1-.7-2.3,3.1,3.1,0,0,1,.8-2.2,2.5,2.5,0,0,1,2-.9,2.1,2.1,0,0,1,1.8.7,3.3,3.3,0,0,1,.6,2.1Zm-.9-.9a2.8,2.8,0,0,0-.4-1.3,1.5,1.5,0,0,0-1.1-.4,1.3,1.3,0,0,0-1.2.5,2.3,2.3,0,0,0-.6,1.2Z" fill="#1e1e1e" stroke="#1e1e1e" stroke-miterlimit="10" stroke-width="0.06"/><path d="M237.1,129.6h-1v-1h0a2.1,2.1,0,0,1-2.1,1.2,2.3,2.3,0,0,1-1.8-.9,3.3,3.3,0,0,1-.6-2.1,3.6,3.6,0,0,1,.7-2.4,2.5,2.5,0,0,1,2-.9,2,2,0,0,1,1.8.9h0v-3.7h1Zm-1-2.7V126a1.6,1.6,0,0,0-.4-1.2,1.7,1.7,0,0,0-1.3-.5,1.5,1.5,0,0,0-1.3.6,2.6,2.6,0,0,0-.6,1.8,2.5,2.5,0,0,0,.5,1.6,1.8,1.8,0,0,0,1.3.6,1.4,1.4,0,0,0,1.3-.5A2,2,0,0,0,236.1,126.9Z" fill="#1e1e1e" stroke="#1e1e1e" stroke-miterlimit="10" stroke-width="0.06"/><path d="M239.5,122.1l-.4-.2a.4.4,0,0,1-.2-.4c0-.2,0-.4.2-.5l.4-.2.5.2a.7.7,0,0,1,.1.5.6.6,0,0,1-.1.4Zm.5,7.5h-1v-6h1Z" fill="#1e1e1e" stroke="#1e1e1e" stroke-miterlimit="10" stroke-width="0.06"/><path d="M245,124.6l-.7-.2a1.1,1.1,0,0,0-1,.6,2.5,2.5,0,0,0-.4,1.6v3h-1v-6h1v1.2h0a1.5,1.5,0,0,1,.6-.9,1.3,1.3,0,0,1,1-.4h.5Z" fill="#1e1e1e" stroke="#1e1e1e" stroke-miterlimit="10" stroke-width="0.06"/><path d="M250.9,126.9h-4.3a2,2,0,0,0,.6,1.5,1.6,1.6,0,0,0,1.4.5,3.3,3.3,0,0,0,1.9-.6v.9a3.7,3.7,0,0,1-2.1.6,2.3,2.3,0,0,1-2-.9,3.2,3.2,0,0,1-.8-2.3,3.1,3.1,0,0,1,.8-2.2,2.7,2.7,0,0,1,2-.9,2.1,2.1,0,0,1,1.8.7,2.8,2.8,0,0,1,.7,2.1Zm-1-.9a2.8,2.8,0,0,0-.4-1.3,1.4,1.4,0,0,0-1.1-.4,1.3,1.3,0,0,0-1.2.5,2.3,2.3,0,0,0-.6,1.2Z" fill="#1e1e1e" stroke="#1e1e1e" stroke-miterlimit="10" stroke-width="0.06"/><path d="M256.4,129.3a3.1,3.1,0,0,1-1.7.5,2.5,2.5,0,0,1-2-.9,3,3,0,0,1-.8-2.1,3.6,3.6,0,0,1,.8-2.4,3.4,3.4,0,0,1,3.7-.6v.9a2.3,2.3,0,0,0-1.4-.4,2,2,0,0,0-1.5.6,2.8,2.8,0,0,0-.6,1.8,2.5,2.5,0,0,0,.5,1.6,2,2,0,0,0,1.5.6,2.3,2.3,0,0,0,1.5-.5Z" fill="#1e1e1e" stroke="#1e1e1e" stroke-miterlimit="10" stroke-width="0.06"/><path d="M258.3,122.1l-.4-.2a.4.4,0,0,1-.2-.4c0-.2,0-.4.2-.5l.4-.2.5.2a.7.7,0,0,1,.1.5.6.6,0,0,1-.1.4Zm.5,7.5h-1v-6h1Z" fill="#1e1e1e" stroke="#1e1e1e" stroke-miterlimit="10" stroke-width="0.06"/><path d="M263.2,129.8a2.6,2.6,0,0,1-2.1-.9,3.1,3.1,0,0,1-.8-2.2,3.6,3.6,0,0,1,.8-2.4,3.3,3.3,0,0,1,2.2-.8,2.5,2.5,0,0,1,2.1.8,3.2,3.2,0,0,1,.8,2.3,3.6,3.6,0,0,1-.8,2.3A2.9,2.9,0,0,1,263.2,129.8Zm.1-5.5a2,2,0,0,0-1.5.6,2.9,2.9,0,0,0-.5,1.7,2.6,2.6,0,0,0,.5,1.7,2,2,0,0,0,1.5.6,1.7,1.7,0,0,0,1.4-.6,2.6,2.6,0,0,0,.5-1.7,2.9,2.9,0,0,0-.5-1.7A1.7,1.7,0,0,0,263.3,124.3Z" fill="#1e1e1e" stroke="#1e1e1e" stroke-miterlimit="10" stroke-width="0.06"/><path d="M272.7,129.6h-1v-3.4c0-1.3-.4-1.9-1.4-1.9a2.1,2.1,0,0,0-1.2.5,2.1,2.1,0,0,0-.4,1.4v3.4h-1v-6h1v1h0a2.2,2.2,0,0,1,2-1.1,2,2,0,0,1,1.5.6,3,3,0,0,1,.5,1.8Z" fill="#1e1e1e" stroke="#1e1e1e" stroke-miterlimit="10" stroke-width="0.06"/><path d="M278.8,129.6h-1v-.9h0a2,2,0,0,1-1.9,1.1,2.2,2.2,0,0,1-1.4-.5,1.9,1.9,0,0,1-.5-1.3c0-1.1.7-1.8,2-1.9l1.8-.3q0-1.5-1.2-1.5a2.9,2.9,0,0,0-2,.7v-1a4.6,4.6,0,0,1,2.1-.5c1.4,0,2.1.7,2.1,2.2Zm-1-3-1.4.2a1.3,1.3,0,0,0-1,.3.8.8,0,0,0-.4.8,1.1,1.1,0,0,0,.3.8c.2.2.5.2.9.2a1.3,1.3,0,0,0,1.1-.5,1.3,1.3,0,0,0,.5-1.2Z" fill="#1e1e1e" stroke="#1e1e1e" stroke-miterlimit="10" stroke-width="0.06"/><path d="M289.1,129.6h-1v-3.4a2.8,2.8,0,0,0-.3-1.5,1.1,1.1,0,0,0-1-.4,1.6,1.6,0,0,0-1.1.5,2.3,2.3,0,0,0-.4,1.4v3.4h-1V126c0-1.1-.4-1.7-1.3-1.7a1.4,1.4,0,0,0-1.1.5,2.9,2.9,0,0,0-.4,1.4v3.4h-.9v-6h.9v1h0a2.1,2.1,0,0,1,1.9-1.1,2,2,0,0,1,1.1.3,1.5,1.5,0,0,1,.6.9,2.1,2.1,0,0,1,2-1.2c1.3,0,2,.8,2,2.4Z" fill="#1e1e1e" stroke="#1e1e1e" stroke-miterlimit="10" stroke-width="0.06"/><path d="M295.7,126.9h-4.2a2,2,0,0,0,.5,1.5,1.6,1.6,0,0,0,1.4.5,3.3,3.3,0,0,0,1.9-.6v.9a3.7,3.7,0,0,1-2.1.6,2.4,2.4,0,0,1-2-.9,3.2,3.2,0,0,1-.7-2.3,2.7,2.7,0,0,1,.8-2.2,2.3,2.3,0,0,1,1.9-.9,2.1,2.1,0,0,1,1.8.7,2.8,2.8,0,0,1,.7,2.1Zm-1-.9a2,2,0,0,0-.4-1.3,1.4,1.4,0,0,0-1.1-.4,1.3,1.3,0,0,0-1.1.5,1.4,1.4,0,0,0-.6,1.2Z" fill="#1e1e1e" stroke="#1e1e1e" stroke-miterlimit="10" stroke-width="0.06"/><path d="M302.1,129.6h-1v-3.4c0-1.3-.4-1.9-1.4-1.9a1.6,1.6,0,0,0-1.1.5,1.7,1.7,0,0,0-.5,1.4v3.4h-1v-6h1v1h0a2.3,2.3,0,0,1,2-1.1,2,2,0,0,1,1.5.6,3,3,0,0,1,.5,1.8Z" fill="#1e1e1e" stroke="#1e1e1e" stroke-miterlimit="10" stroke-width="0.06"/><path d="M306.7,129.6h-.9c-1.1,0-1.6-.5-1.6-1.7v-3.6h-1v-.8h1v-1.5l1-.3v1.8h1.5v.8h-1.5v3.4c0,.4,0,.7.2.9l.6.2a.8.8,0,0,0,.7-.2Z" fill="#1e1e1e" stroke="#1e1e1e" stroke-miterlimit="10" stroke-width="0.06"/><path d="M310.4,129.8a2.6,2.6,0,0,1-2.1-.9,3.1,3.1,0,0,1-.8-2.2,3.6,3.6,0,0,1,.8-2.4,3.4,3.4,0,0,1,2.3-.8,2.5,2.5,0,0,1,2.1.8,3.2,3.2,0,0,1,.7,2.3,3.1,3.1,0,0,1-.8,2.3A2.8,2.8,0,0,1,310.4,129.8Zm.1-5.5a2,2,0,0,0-1.5.6,2.9,2.9,0,0,0-.5,1.7,2.6,2.6,0,0,0,.5,1.7,2,2,0,0,0,1.5.6,1.7,1.7,0,0,0,1.4-.6,2.2,2.2,0,0,0,.5-1.7,2.3,2.3,0,0,0-.5-1.7A1.7,1.7,0,0,0,310.5,124.3Z" fill="#1e1e1e" stroke="#1e1e1e" stroke-miterlimit="10" stroke-width="0.06"/><path d="M394.2,92.9v2.9h-1.9V87.4h3c2.1,0,3.2.9,3.2,2.7a2.7,2.7,0,0,1-.9,2.1,4.1,4.1,0,0,1-2.5.7Zm0-4v2.6h.8c1,0,1.5-.4,1.5-1.3s-.5-1.3-1.5-1.3Z" fill="#fff" stroke="#fff" stroke-miterlimit="10" stroke-width="0.05"/><path d="M401.4,95.8h-1.9V87h1.9Z" fill="#fff" stroke="#fff" stroke-miterlimit="10" stroke-width="0.05"/><path d="M407.9,95.8h-1.7V95h-.1a2.1,2.1,0,0,1-1.7,1,2,2,0,0,1-1.4-.5,1.5,1.5,0,0,1-.5-1.3,2,2,0,0,1,2-2.1l1.7-.2a1,1,0,0,0-1.1-1,3.7,3.7,0,0,0-2,.7V90.2l1-.4h1.2c1.8,0,2.6.8,2.6,2.5Zm-1.7-2.4V93h-1.1c-.6.1-.9.4-.9.8a1.1,1.1,0,0,0,.2.6.8.8,0,0,0,.6.2,1.2,1.2,0,0,0,.8-.4A1,1,0,0,0,406.2,93.4Z" fill="#fff" stroke="#fff" stroke-miterlimit="10" stroke-width="0.05"/><path d="M413,95.8l-1.2.2a1.8,1.8,0,0,1-2-2.1V91.2h-1V89.8h1V88.5l1.9-.5v1.8H413v1.4h-1.3v2.4c0,.6.2,1,.7,1l.6-.2Z" fill="#fff" stroke="#fff" stroke-miterlimit="10" stroke-width="0.05"/><path d="M419,95.8h-1.7V95h0a2.1,2.1,0,0,1-1.8,1,2,2,0,0,1-1.4-.5,1.9,1.9,0,0,1-.5-1.3q0-1.8,2.1-2.1l1.6-.2a1,1,0,0,0-1.1-1,3.7,3.7,0,0,0-2,.7V90.2l1.1-.4h1.2a2.2,2.2,0,0,1,2.5,2.5Zm-1.7-2.4V93h-1.1c-.6.1-.9.4-.9.8a1.1,1.1,0,0,0,.2.6l.6.2a1.3,1.3,0,0,0,.9-.4A1.2,1.2,0,0,0,417.3,93.4Z" fill="#fff" stroke="#fff" stroke-miterlimit="10" stroke-width="0.05"/><path d="M424.4,88.4l-.7-.2c-.6,0-.9.3-.9,1v.6h1.4v1.4h-1.4v4.6H421V91.2h-1V89.8h1v-.7a2.2,2.2,0,0,1,.7-1.7,2.4,2.4,0,0,1,1.8-.6h.9Z" fill="#fff" stroke="#fff" stroke-miterlimit="10" stroke-width="0.05"/><path d="M428,96a3.2,3.2,0,0,1-2.4-.9,2.7,2.7,0,0,1-.8-2.2,3.2,3.2,0,0,1,.8-2.4,4,4,0,0,1,4.8,0,3,3,0,0,1,.8,2.3,3.1,3.1,0,0,1-.8,2.3A3.2,3.2,0,0,1,428,96Zm0-4.9a1.2,1.2,0,0,0-1,.5,2.1,2.1,0,0,0-.4,1.2c0,1.2.5,1.8,1.4,1.8s1.4-.6,1.4-1.8S428.9,91.1,428,91.1Z" fill="#fff" stroke="#fff" stroke-miterlimit="10" stroke-width="0.05"/><path d="M436.4,91.5l-.8-.2a1.4,1.4,0,0,0-1,.5,2.1,2.1,0,0,0-.3,1.2v2.8h-1.9v-6h1.9v1.1h0a1.6,1.6,0,0,1,1.6-1.2h.5Z" fill="#fff" stroke="#fff" stroke-miterlimit="10" stroke-width="0.05"/><path d="M446.8,95.8h-1.9V92.4c0-.9-.3-1.3-.9-1.3a.9.9,0,0,0-.8.4,1.7,1.7,0,0,0-.3,1v3.3h-1.8V92.4c0-.9-.3-1.3-1-1.3a.8.8,0,0,0-.7.4,1.5,1.5,0,0,0-.3,1v3.3h-1.8v-6h1.8v1h0l.8-.8a2.7,2.7,0,0,1,1.2-.3,1.8,1.8,0,0,1,1.7,1.1,2.3,2.3,0,0,1,2-1.1c1.3,0,2,.8,2,2.4Z" fill="#fff" stroke="#fff" stroke-miterlimit="10" stroke-width="0.05"/><path d="M453.2,95.8h-1.7V95h0a2.1,2.1,0,0,1-1.8,1,2,2,0,0,1-1.4-.5,1.9,1.9,0,0,1-.5-1.3q0-1.8,2.1-2.1l1.6-.2a1,1,0,0,0-1.1-1,3.7,3.7,0,0,0-2,.7V90.2l1.1-.4h1.2a2.2,2.2,0,0,1,2.5,2.5Zm-1.7-2.4V93h-1.1c-.6.1-.9.4-.9.8a1.1,1.1,0,0,0,.2.6l.6.2a1.3,1.3,0,0,0,.9-.4A1.2,1.2,0,0,0,451.5,93.4Z" fill="#fff" stroke="#fff" stroke-miterlimit="10" stroke-width="0.05"/><path d="M390.4,110.8h-1.8V110h0a2.2,2.2,0,0,1-1.9,1,2.5,2.5,0,0,1-1.8-.8,3.1,3.1,0,0,1-.7-2.2,3.6,3.6,0,0,1,.8-2.4,2.3,2.3,0,0,1,1.9-.9,1.9,1.9,0,0,1,1.7.8h0V102h1.8Zm-1.8-2.9v-.4a1.5,1.5,0,0,0-.3-1,1,1,0,0,0-.9-.4,1.4,1.4,0,0,0-1,.5,2.5,2.5,0,0,0-.3,1.3,2.1,2.1,0,0,0,.3,1.2,1.2,1.2,0,0,0,.9.5,1.4,1.4,0,0,0,1-.5A2.1,2.1,0,0,0,388.6,107.9Z" fill="#fff" stroke="#fff" stroke-miterlimit="10" stroke-width="0.05"/><path d="M397.4,108.4h-3.9c0,.8.6,1.3,1.6,1.3a3.5,3.5,0,0,0,1.8-.5v1.3a4.8,4.8,0,0,1-2.2.5,2.8,2.8,0,0,1-3.1-3.1,3.1,3.1,0,0,1,3-3.2,2.5,2.5,0,0,1,2.1.8,3.3,3.3,0,0,1,.7,2.1Zm-1.7-1.2c0-.8-.4-1.3-1.1-1.3a1,1,0,0,0-.7.4,1.1,1.1,0,0,0-.4.9Z" fill="#fff" stroke="#fff" stroke-miterlimit="10" stroke-width="0.05"/><path d="M402.7,103.9a1,1,0,0,1-.7-1.7l.7-.2a1.5,1.5,0,0,1,.8.2,1,1,0,0,1,0,1.4A1,1,0,0,1,402.7,103.9Zm1,6.9h-1.9v-6h1.9Z" fill="#fff" stroke="#fff" stroke-miterlimit="10" stroke-width="0.05"/><path d="M411.1,110.8h-1.9V110h0a2,2,0,0,1-1.9,1,2.5,2.5,0,0,1-1.8-.8,4.4,4.4,0,0,1,.1-4.6,2.5,2.5,0,0,1,2-.9,1.7,1.7,0,0,1,1.6.8h0V102h1.9Zm-1.8-2.9v-.4a1.2,1.2,0,0,0-.4-1,1,1,0,0,0-.9-.4,1.1,1.1,0,0,0-.9.5,1.8,1.8,0,0,0-.4,1.3,1.6,1.6,0,0,0,.4,1.2,1.1,1.1,0,0,0,1.8,0A2.1,2.1,0,0,0,409.3,107.9Z" fill="#fff" stroke="#fff" stroke-miterlimit="10" stroke-width="0.05"/><path d="M418,108.4h-3.9c.1.8.6,1.3,1.7,1.3a3.4,3.4,0,0,0,1.7-.5v1.3a4.8,4.8,0,0,1-2.2.5,3.1,3.1,0,0,1-2.2-.8,3,3,0,0,1-.8-2.3,3.2,3.2,0,0,1,.8-2.3,2.9,2.9,0,0,1,2.2-.9,2.3,2.3,0,0,1,2,.8,2.8,2.8,0,0,1,.7,2.1Zm-1.7-1.2c0-.8-.3-1.3-1-1.3a1.2,1.2,0,0,0-.8.4,2.5,2.5,0,0,0-.4.9Z" fill="#fff" stroke="#fff" stroke-miterlimit="10" stroke-width="0.05"/><path d="M424.9,110.8h-1.8v-3.3c0-.9-.4-1.4-1-1.4a.9.9,0,0,0-.8.4,1.2,1.2,0,0,0-.3.9v3.4h-1.9v-6H421v1h0a2.1,2.1,0,0,1,1.9-1.1c1.4,0,2,.8,2,2.5Z" fill="#fff" stroke="#fff" stroke-miterlimit="10" stroke-width="0.05"/><path d="M430,110.8l-1.2.2a1.8,1.8,0,0,1-2-2.1v-2.7h-.9v-1.4h.9v-1.3l1.9-.5v1.8H430v1.4h-1.3v2.4c0,.6.2,1,.7,1l.6-.2Z" fill="#fff" stroke="#fff" stroke-miterlimit="10" stroke-width="0.05"/><path d="M432,103.9a1.1,1.1,0,0,1-.8-.3,1,1,0,0,1,0-1.4l.8-.2.8.2a1,1,0,0,1,0,1.4A1.1,1.1,0,0,1,432,103.9Zm.9,6.9h-1.8v-6h1.8Z" fill="#fff" stroke="#fff" stroke-miterlimit="10" stroke-width="0.05"/><path d="M440.3,110.8h-1.8V110h0a2.2,2.2,0,0,1-1.9,1,2.5,2.5,0,0,1-1.8-.8,3.1,3.1,0,0,1-.7-2.2,3.6,3.6,0,0,1,.8-2.4,2.3,2.3,0,0,1,1.9-.9,1.9,1.9,0,0,1,1.7.8h0V102h1.8Zm-1.8-2.9v-.4a1.5,1.5,0,0,0-.3-1,1,1,0,0,0-.9-.4,1.4,1.4,0,0,0-1,.5,2.5,2.5,0,0,0-.3,1.3,2.1,2.1,0,0,0,.3,1.2,1.2,1.2,0,0,0,1.9,0A2.1,2.1,0,0,0,438.5,107.9Z" fill="#fff" stroke="#fff" stroke-miterlimit="10" stroke-width="0.05"/><path d="M446.9,110.8h-1.8V110h0a2.1,2.1,0,0,1-1.8,1,1.7,1.7,0,0,1-1.3-.5,1.5,1.5,0,0,1-.5-1.3c0-1.2.6-1.9,2-2.1l1.7-.2a1,1,0,0,0-1.1-1,4.4,4.4,0,0,0-2.1.7v-1.4l1.1-.4h1.2c1.7,0,2.6.8,2.6,2.5Zm-1.7-2.4V108h-1.1c-.6.1-.9.4-.9.8s0,.4.2.6a.8.8,0,0,0,.6.2,1.2,1.2,0,0,0,.8-.4A1.3,1.3,0,0,0,445.2,108.4Z" fill="#fff" stroke="#fff" stroke-miterlimit="10" stroke-width="0.05"/><path d="M454.2,110.8h-1.8V110h0a2.2,2.2,0,0,1-1.9,1,2.2,2.2,0,0,1-1.8-.8,3.1,3.1,0,0,1-.7-2.2,3.6,3.6,0,0,1,.8-2.4,2.3,2.3,0,0,1,1.9-.9,2,2,0,0,1,1.7.8h0V102h1.8Zm-1.8-2.9v-.4a1.5,1.5,0,0,0-.3-1,1.1,1.1,0,0,0-.9-.4,1.4,1.4,0,0,0-1,.5,2.5,2.5,0,0,0-.3,1.3,2.1,2.1,0,0,0,.3,1.2,1.1,1.1,0,0,0,.9.5,1.4,1.4,0,0,0,1-.5A2.1,2.1,0,0,0,452.4,107.9Z" fill="#fff" stroke="#fff" stroke-miterlimit="10" stroke-width="0.05"/><path d="M461.2,108.4h-3.9c0,.8.6,1.3,1.6,1.3a3.5,3.5,0,0,0,1.8-.5v1.3a4.8,4.8,0,0,1-2.2.5,2.8,2.8,0,0,1-3.1-3.1,3.1,3.1,0,0,1,3-3.2,2.5,2.5,0,0,1,2.1.8,3.3,3.3,0,0,1,.7,2.1Zm-1.7-1.2c0-.8-.4-1.3-1.1-1.3s-.5.2-.8.4a1.4,1.4,0,0,0-.3.9Z" fill="#fff" stroke="#fff" stroke-miterlimit="10" stroke-width="0.05"/><path d="M393.4,125.8h-1.9V125h0a2,2,0,0,1-1.9,1,2.5,2.5,0,0,1-1.8-.8,3.6,3.6,0,0,1-.7-2.2,3.6,3.6,0,0,1,.8-2.4,2.5,2.5,0,0,1,2-.9,1.7,1.7,0,0,1,1.6.8h0V117h1.9Zm-1.8-2.9v-.4a1.5,1.5,0,0,0-.4-1,1,1,0,0,0-.9-.4,1.1,1.1,0,0,0-.9.5,1.8,1.8,0,0,0-.4,1.3,1.6,1.6,0,0,0,.4,1.2,1.1,1.1,0,0,0,1.8,0A2.1,2.1,0,0,0,391.6,122.9Z" fill="#fff" stroke="#fff" stroke-miterlimit="10" stroke-width="0.05"/><path d="M399.9,125.8h-1.7V125h-.1a2.1,2.1,0,0,1-1.7,1,2,2,0,0,1-1.4-.5,1.9,1.9,0,0,1-.5-1.3q0-1.8,2.1-2.1l1.6-.2a1,1,0,0,0-1.1-1,3.7,3.7,0,0,0-2,.7v-1.4l1-.4h1.3a2.2,2.2,0,0,1,2.5,2.5Zm-1.7-2.4V123h-1.1c-.6.1-.9.4-.9.8a1.1,1.1,0,0,0,.2.6l.6.2a1.5,1.5,0,0,0,.9-.4A1.2,1.2,0,0,0,398.2,123.4Z" fill="#fff" stroke="#fff" stroke-miterlimit="10" stroke-width="0.05"/><path d="M414.5,125.8h-1.9v-5a12.1,12.1,0,0,1,.1-1.8h-.1a5.3,5.3,0,0,1-.3,1.1l-1.9,5.7h-1.6l-2-5.6c0-.2-.1-.6-.2-1.2h-.1a17.7,17.7,0,0,1,.1,2.2v4.6h-1.7v-8.4h2.7l1.8,5,.3,1.2h0a10.4,10.4,0,0,1,.3-1.2l1.8-5h2.7Z" fill="#fff" stroke="#fff" stroke-miterlimit="10" stroke-width="0.05"/><path d="M417.1,118.9a.8.8,0,0,1-.7-.3,1,1,0,0,1,0-1.4l.7-.2.8.2a1,1,0,0,1,0,1.4A1.1,1.1,0,0,1,417.1,118.9Zm.9,6.9h-1.8v-6H418Z" fill="#fff" stroke="#fff" stroke-miterlimit="10" stroke-width="0.05"/><path d="M424.1,125.6a3,3,0,0,1-1.8.4,2.9,2.9,0,0,1-2.2-.9,2.6,2.6,0,0,1-.9-2.1,3,3,0,0,1,1-2.4,3.2,3.2,0,0,1,2.4-.9,2.8,2.8,0,0,1,1.5.3v1.5a1.8,1.8,0,0,0-1.3-.4,1.7,1.7,0,0,0-1.2.5,1.7,1.7,0,0,0-.5,1.3,1.7,1.7,0,0,0,1.7,1.7,2.4,2.4,0,0,0,1.3-.5Z" fill="#fff" stroke="#fff" stroke-miterlimit="10" stroke-width="0.05"/><path d="M429.3,121.5l-.8-.2a1.4,1.4,0,0,0-1,.5,2.1,2.1,0,0,0-.3,1.2v2.8h-1.8v-6h1.8v1.1h0a1.6,1.6,0,0,1,1.6-1.2h.5Z" fill="#fff" stroke="#fff" stroke-miterlimit="10" stroke-width="0.05"/><path d="M432.9,126a3,3,0,0,1-2.3-.9,2.8,2.8,0,0,1-.9-2.2,3.2,3.2,0,0,1,.9-2.4,4,4,0,0,1,4.8,0,3.4,3.4,0,0,1,.8,2.3,3.2,3.2,0,0,1-.9,2.3A3,3,0,0,1,432.9,126Zm.1-4.9a1.1,1.1,0,0,0-1,.5,1.6,1.6,0,0,0-.4,1.2c0,1.2.5,1.8,1.4,1.8s1.3-.6,1.3-1.8S433.9,121.1,433,121.1Z" fill="#fff" stroke="#fff" stroke-miterlimit="10" stroke-width="0.05"/><path d="M437,125.7v-1.5l.9.4h1.7c.2-.1.3-.2.3-.4s-.1-.2-.2-.3l-.3-.2-.4-.2h-.5l-.6-.3-.5-.4-.3-.5c0-.1-.1-.4-.1-.6a2.9,2.9,0,0,1,.2-.9l.6-.6.9-.3h1.8l.8.2v1.5l-.8-.4h-1.6v.5l.3.2.4.2h.4l.7.3.5.4.3.4a1.5,1.5,0,0,1,.1.7c0,.4,0,.7-.2.9a1.7,1.7,0,0,1-.6.6l-.9.4h-1A5.8,5.8,0,0,1,437,125.7Z" fill="#fff" stroke="#fff" stroke-miterlimit="10" stroke-width="0.05"/><path d="M445.6,126a3.2,3.2,0,0,1-2.4-.9,2.8,2.8,0,0,1-.9-2.2,3.2,3.2,0,0,1,.9-2.4,4,4,0,0,1,4.8,0,3.4,3.4,0,0,1,.8,2.3,3.6,3.6,0,0,1-.8,2.3A3.2,3.2,0,0,1,445.6,126Zm0-4.9a1.2,1.2,0,0,0-1,.5,1.6,1.6,0,0,0-.4,1.2c0,1.2.5,1.8,1.4,1.8s1.3-.6,1.3-1.8S446.5,121.1,445.6,121.1Z" fill="#fff" stroke="#fff" stroke-miterlimit="10" stroke-width="0.05"/><path d="M453.8,118.4l-.7-.2c-.6,0-.9.3-.9,1v.6h1.4v1.4h-1.4v4.6h-1.9v-4.6h-1v-1.4h1v-.7a2.6,2.6,0,0,1,.7-1.7,2.8,2.8,0,0,1,1.8-.6h1Z" fill="#fff" stroke="#fff" stroke-miterlimit="10" stroke-width="0.05"/><path d="M458.3,125.8l-1.2.2a1.8,1.8,0,0,1-2-2.1v-2.7h-1v-1.4h1v-1.3l1.9-.5v1.8h1.3v1.4H457v2.4c0,.6.2,1,.7,1l.6-.2Z" fill="#fff" stroke="#fff" stroke-miterlimit="10" stroke-width="0.05"/><path d="M402.7,23.6h-2l-.6-1.9h-3l-.6,1.9h-2.1l3.1-8.4h2.2Zm-3.1-3.4-.9-2.8c0-.2-.1-.5-.1-.7h-.1a2,2,0,0,1-.1.7l-.9,2.8Z" stroke="#000" stroke-miterlimit="10" stroke-width="0.05"/><path d="M405.5,22.9h-.1v3.4h-1.8V17.6h1.8v.9h.1a2.1,2.1,0,0,1,1.9-1.1,2.2,2.2,0,0,1,1.8.8,3.6,3.6,0,0,1,.6,2.2,3.6,3.6,0,0,1-.7,2.4,2.5,2.5,0,0,1-2,.9A1.8,1.8,0,0,1,405.5,22.9Zm-.1-2.5v.5a1.7,1.7,0,0,0,.3,1,1.1,1.1,0,0,0,.9.4,1.4,1.4,0,0,0,1-.5,2.6,2.6,0,0,0,.3-1.4c0-1-.4-1.6-1.2-1.6a1.1,1.1,0,0,0-.9.5A1.2,1.2,0,0,0,405.4,20.4Z" stroke="#000" stroke-miterlimit="10" stroke-width="0.05"/><path d="M412.9,23.6H411V14.7h1.9Z" stroke="#000" stroke-miterlimit="10" stroke-width="0.05"/><path d="M415.4,16.6a1.1,1.1,0,0,1-.8-.3.9.9,0,0,1-.3-.7.7.7,0,0,1,.3-.6,1.1,1.1,0,0,1,.8-.3.9.9,0,0,1,.7.3.7.7,0,0,1,.3.6.8.8,0,0,1-.3.7A.9.9,0,0,1,415.4,16.6Zm.9,7h-1.9v-6h1.9Z" stroke="#000" stroke-miterlimit="10" stroke-width="0.05"/><path d="M422.4,23.3a3,3,0,0,1-1.8.4,3.6,3.6,0,0,1-2.3-.8,3.3,3.3,0,0,1-.8-2.2,3.2,3.2,0,0,1,.9-2.4,3.3,3.3,0,0,1,2.5-.9,2.8,2.8,0,0,1,1.5.3v1.6a2.1,2.1,0,0,0-1.3-.5,1.9,1.9,0,0,0-1.3.5,1.7,1.7,0,0,0-.4,1.3,1.6,1.6,0,0,0,.4,1.2,1.7,1.7,0,0,0,1.2.5,2.4,2.4,0,0,0,1.4-.5Z" stroke="#000" stroke-miterlimit="10" stroke-width="0.05"/><path d="M428.6,23.6h-1.8v-.9h0a2,2,0,0,1-3.1.5,1.5,1.5,0,0,1-.5-1.3c0-1.2.6-1.9,2-2l1.7-.2c0-.7-.4-1-1.1-1a3.6,3.6,0,0,0-2,.6V17.9l1-.3,1.2-.2a2.3,2.3,0,0,1,2.6,2.6Zm-1.7-2.5v-.4l-1.1.2c-.6,0-.9.3-.9.8a.6.6,0,0,0,.2.5.8.8,0,0,0,.6.2.9.9,0,0,0,.8-.4A1.3,1.3,0,0,0,426.9,21.1Z" stroke="#000" stroke-miterlimit="10" stroke-width="0.05"/><path d="M433.7,23.5l-1.2.2a1.8,1.8,0,0,1-2-2V18.9h-1V17.6h1V16.3l1.8-.6v1.9h1.4v1.3h-1.4v2.4c0,.7.3,1,.8,1l.6-.2Z" stroke="#000" stroke-miterlimit="10" stroke-width="0.05"/><path d="M435.7,16.6a1.1,1.1,0,0,1-.8-.3.9.9,0,0,1-.3-.7.7.7,0,0,1,.3-.6,1.1,1.1,0,0,1,.8-.3.9.9,0,0,1,.7.3.7.7,0,0,1,.3.6.8.8,0,0,1-.3.7A.9.9,0,0,1,435.7,16.6Zm.9,7h-1.9v-6h1.9Z" stroke="#000" stroke-miterlimit="10" stroke-width="0.05"/><path d="M443.9,17.6l-2.3,6h-2.1l-2.1-6h2l1,3.7a4.4,4.4,0,0,1,.2,1h0a5.4,5.4,0,0,1,.3-1l1-3.7Z" stroke="#000" stroke-miterlimit="10" stroke-width="0.05"/><path d="M447.4,23.7a3.6,3.6,0,0,1-2.4-.8,3.6,3.6,0,0,1-.8-2.3,3.2,3.2,0,0,1,.9-2.4,3.6,3.6,0,0,1,2.4-.8,3.4,3.4,0,0,1,2.3.8,3,3,0,0,1,.9,2.3,2.9,2.9,0,0,1-.9,2.3A3.2,3.2,0,0,1,447.4,23.7Zm0-4.9a1.4,1.4,0,0,0-1,.5,2.3,2.3,0,0,0-.3,1.3c0,1.1.4,1.7,1.3,1.7s1.4-.6,1.4-1.8S448.3,18.8,447.4,18.8Z" stroke="#000" stroke-miterlimit="10" stroke-width="0.05"/><path d="M396.7,29.6,394.5,38h-2.1L391,32.6c-.1-.3-.1-.6-.2-1h0c0,.4-.1.7-.1,1L389.2,38h-2.1l-2.3-8.4h2.1l1.2,5.5c0,.3.1.6.1,1h0c.1-.3.1-.6.2-1l1.5-5.5H392l1.3,5.6a6.4,6.4,0,0,1,.2.9h0c0-.3.1-.6.1-.9l1.2-5.6Z" stroke="#000" stroke-miterlimit="10" stroke-width="0.05"/><path d="M402.6,35.5h-3.9c.1.9.6,1.3,1.7,1.3a3.4,3.4,0,0,0,1.7-.5v1.4a4.4,4.4,0,0,1-2.1.4,3.2,3.2,0,0,1-2.2-5.4,2.7,2.7,0,0,1,2.1-.9,2.5,2.5,0,0,1,2,.8,2.8,2.8,0,0,1,.7,2.1Zm-1.7-1.2c0-.8-.3-1.2-1-1.2a1.1,1.1,0,0,0-.8.3,3.6,3.6,0,0,0-.4.9Z" stroke="#000" stroke-miterlimit="10" stroke-width="0.05"/><path d="M405.6,37.3h0V38h-1.9V29.1h1.9v3.8h0a2.3,2.3,0,0,1,2-1.1,2.5,2.5,0,0,1,1.8.8,3.6,3.6,0,0,1,.6,2.2,4.3,4.3,0,0,1-.7,2.4,2.5,2.5,0,0,1-2,.9A2.1,2.1,0,0,1,405.6,37.3Zm0-2.6v.6a1.7,1.7,0,0,0,.3,1,1,1,0,0,0,.9.4,1.1,1.1,0,0,0,.9-.5,2,2,0,0,0,.4-1.4,2.1,2.1,0,0,0-.3-1.2,1.3,1.3,0,0,0-.9-.4,1.8,1.8,0,0,0-1,.4A2,2,0,0,0,405.6,34.7Z" stroke="#000" stroke-miterlimit="10" stroke-width="0.05"/><path d="M422.1,38H420l-.6-1.9h-3l-.6,1.9h-2l3-8.4h2.3ZM419,34.6l-.9-2.8c-.1-.2-.1-.5-.2-.7h0a2.5,2.5,0,0,1-.2.7l-.9,2.8Z" stroke="#000" stroke-miterlimit="10" stroke-width="0.05"/><path d="M422.7,37.6V35.8a6,6,0,0,0,1.1.6l1.2.2h1.1l.3-.3c0-.1.1-.2.1-.3s-.1-.3-.2-.5l-.4-.3-.5-.4-.8-.3a3,3,0,0,1-1.4-1,2.2,2.2,0,0,1-.5-1.4,2,2,0,0,1,.3-1.1,2.3,2.3,0,0,1,1.7-1.2l1.3-.2h1.2l.9.2v1.8l-.5-.3-.5-.2h-2c-.2.1-.2.2-.3.3a.4.4,0,0,0-.1.3c0,.2,0,.3.1.4l.3.3.5.3.7.3.9.5a1.8,1.8,0,0,1,.7.5,1.6,1.6,0,0,1,.4.7,2.9,2.9,0,0,1,.2.9,2.1,2.1,0,0,1-.3,1.2,2.3,2.3,0,0,1-.7.7l-1.1.5h-2.6Z" stroke="#000" stroke-miterlimit="10" stroke-width="0.05"/><path d="M431.7,35.1V38h-1.9V29.6h3c2.1,0,3.2.8,3.2,2.6a2.6,2.6,0,0,1-.9,2.1,3.7,3.7,0,0,1-2.5.8Zm0-4.1v2.6h.8c1,0,1.5-.4,1.5-1.3s-.5-1.3-1.5-1.3Z" stroke="#000" stroke-miterlimit="10" stroke-width="0.05"/><path d="M436.1,38.1a1.1,1.1,0,0,1-.8-.3,1,1,0,0,1,0-1.4l.8-.2.8.2a1,1,0,0,1,0,1.4A1.1,1.1,0,0,1,436.1,38.1Z" stroke="#000" stroke-miterlimit="10" stroke-width="0.05"/><path d="M446.2,38h-1.9l-3.4-5.3-.5-.7h0c0,.3.1.7.1,1.3V38h-1.8V29.6h2l3.3,5.1.5.7h0c0-.2-.1-.6-.1-1.2V29.6h1.8Z" stroke="#000" stroke-miterlimit="10" stroke-width="0.05"/><path d="M453.2,38h-5V29.6H453v1.5h-3V33h2.8v1.5H450v1.9h3.2Z" stroke="#000" stroke-miterlimit="10" stroke-width="0.05"/><path d="M460.5,31.1h-2.4V38h-1.9V31.1h-2.3V29.6h6.6Z" stroke="#000" stroke-miterlimit="10" stroke-width="0.05"/><path d="M191.4,10.4h-1V7c0-1.3-.5-1.9-1.4-1.9a1.8,1.8,0,0,0-1.2.5,2.1,2.1,0,0,0-.4,1.4v3.4h-1V1.5h1V5.4h0a2,2,0,0,1,1.9-1.1q2.1,0,2.1,2.4Z" fill="#1e1e1e" stroke="#1e1e1e" stroke-miterlimit="10" stroke-width="0.06"/><path d="M195.9,10.4H195c-1.1,0-1.6-.5-1.6-1.7V5.2h-1V4.4h1V2.9l1-.3V4.4h1.5v.8h-1.5V8.6c0,.4,0,.7.2.9a1,1,0,0,0,.7.2.7.7,0,0,0,.6-.2Z" fill="#1e1e1e" stroke="#1e1e1e" stroke-miterlimit="10" stroke-width="0.06"/><path d="M199.9,10.4H199c-1.1,0-1.6-.5-1.6-1.7V5.2h-1V4.4h1V2.9l1-.3V4.4h1.5v.8h-1.5V8.6c0,.4,0,.7.2.9l.6.2a.8.8,0,0,0,.7-.2Z" fill="#1e1e1e" stroke="#1e1e1e" stroke-miterlimit="10" stroke-width="0.06"/><path d="M202,9.5h0v3.7h-.9V4.4h.9V5.5h0a2.4,2.4,0,0,1,2.1-1.2,1.9,1.9,0,0,1,1.8.8,2.8,2.8,0,0,1,.7,2.1,3.6,3.6,0,0,1-.8,2.4,2.3,2.3,0,0,1-2,1A2.2,2.2,0,0,1,202,9.5Zm0-2.4V8a1.7,1.7,0,0,0,.5,1.2,1.3,1.3,0,0,0,1.2.5,1.7,1.7,0,0,0,1.4-.6,3.6,3.6,0,0,0,.5-1.9,2.5,2.5,0,0,0-.5-1.6,1.7,1.7,0,0,0-1.2-.5,1.8,1.8,0,0,0-1.4.6A2,2,0,0,0,202,7.1Z" fill="#1e1e1e" stroke="#1e1e1e" stroke-miterlimit="10" stroke-width="0.06"/><path d="M207.7,10.2v-1a3.4,3.4,0,0,0,1.7.5c.8,0,1.3-.2,1.3-.8s-.1-.3-.1-.4l-.3-.3-.5-.2-.5-.3-.7-.3-.5-.3-.3-.5a1.3,1.3,0,0,1-.1-.6.8.8,0,0,1,.2-.7c.1-.3.3-.4.5-.6l.7-.3h.9l1.4.2v1a2.9,2.9,0,0,0-1.6-.4h-.4l-.4.2-.3.3v.7l.3.3a.5.5,0,0,0,.4.2l.5.2.7.3.6.4.3.5a1.3,1.3,0,0,1,.1.6,1.9,1.9,0,0,1-.1.8l-.6.5a.9.9,0,0,1-.7.3l-.9.2A3.8,3.8,0,0,1,207.7,10.2Z" fill="#1e1e1e" stroke="#1e1e1e" stroke-miterlimit="10" stroke-width="0.06"/><path d="M213.4,5.6l-.5-.2a.8.8,0,0,1-.2-.5.5.5,0,0,1,.2-.4c.1-.2.3-.2.5-.2s.3,0,.4.2.2.2.2.4,0,.4-.2.5Zm0,4.9c-.2,0-.4,0-.5-.2a.5.5,0,0,1-.2-.4.8.8,0,0,1,.2-.5l.5-.2.4.2c.2.1.2.3.2.5s0,.3-.2.4S213.6,10.5,213.4,10.5Z" fill="#1e1e1e" stroke="#1e1e1e" stroke-miterlimit="10" stroke-width="0.06"/><path d="M219.3,2l-4,9.8h-.9l4-9.8Z" fill="#1e1e1e" stroke="#1e1e1e" stroke-miterlimit="10" stroke-width="0.06"/><path d="M223.9,2l-4,9.8H219L223,2Z" fill="#1e1e1e" stroke="#1e1e1e" stroke-miterlimit="10" stroke-width="0.06"/><path d="M224.4,10.2v-1a3.4,3.4,0,0,0,1.7.5c.8,0,1.3-.2,1.3-.8s-.1-.3-.1-.4l-.3-.3-.5-.2-.5-.3-.7-.3-.5-.3-.3-.5a1.3,1.3,0,0,1-.1-.6,1.4,1.4,0,0,1,.2-.7c.1-.3.3-.4.5-.6l.7-.3h.9l1.4.2v1a2.8,2.8,0,0,0-1.5-.4h-.5l-.4.2-.2.3a.4.4,0,0,0-.1.3c0,.2,0,.3.1.4s.1.2.2.3l.4.2.5.2.8.3.5.4a.9.9,0,0,1,.3.5,1.4,1.4,0,0,1,.2.6,1.9,1.9,0,0,1-.2.8c-.2.2-.3.4-.6.5a.9.9,0,0,1-.7.3l-.9.2A3.8,3.8,0,0,1,224.4,10.2Z" fill="#1e1e1e" stroke="#1e1e1e" stroke-miterlimit="10" stroke-width="0.06"/><path d="M234.6,7.6h-4.3a2.6,2.6,0,0,0,.6,1.6,1.6,1.6,0,0,0,1.4.5,3.3,3.3,0,0,0,1.9-.6V10a3.7,3.7,0,0,1-2.1.6,2.3,2.3,0,0,1-2-.9,3.2,3.2,0,0,1-.8-2.3,3.1,3.1,0,0,1,.8-2.2,2.7,2.7,0,0,1,2-.9,2.1,2.1,0,0,1,1.8.7,2.8,2.8,0,0,1,.7,2.1Zm-1-.8a2.5,2.5,0,0,0-.4-1.3,1.4,1.4,0,0,0-1.1-.4,1.3,1.3,0,0,0-1.2.5,2.3,2.3,0,0,0-.6,1.2Z" fill="#1e1e1e" stroke="#1e1e1e" stroke-miterlimit="10" stroke-width="0.06"/><path d="M240.8,10.4h-1V9.5h0a2,2,0,0,1-1.8,1.1c-1.5,0-2.2-.9-2.2-2.6V4.4h1V7.8c0,1.3.5,1.9,1.4,1.9a1.3,1.3,0,0,0,1.2-.5,1.8,1.8,0,0,0,.4-1.3V4.4h1Z" fill="#1e1e1e" stroke="#1e1e1e" stroke-miterlimit="10" stroke-width="0.06"/><path d="M242.3,10.2v-1a3.4,3.4,0,0,0,1.7.5c.9,0,1.3-.2,1.3-.8s-.1-.3-.1-.4l-.3-.3-.5-.2-.5-.3-.7-.3-.5-.3-.3-.5a1.3,1.3,0,0,1-.1-.6,1.4,1.4,0,0,1,.2-.7c.1-.3.3-.4.5-.6l.7-.3h.9l1.4.2v1a2.8,2.8,0,0,0-1.5-.4H244l-.4.2-.2.3a.4.4,0,0,0-.1.3c0,.2,0,.3.1.4s.1.2.2.3l.4.2.5.2.8.3.5.4a.9.9,0,0,1,.3.5,1.4,1.4,0,0,1,.2.6,1.9,1.9,0,0,1-.2.8c-.2.2-.3.4-.6.5a.9.9,0,0,1-.7.3l-.9.2A3.8,3.8,0,0,1,242.3,10.2Z" fill="#1e1e1e" stroke="#1e1e1e" stroke-miterlimit="10" stroke-width="0.06"/><path d="M248.1,2.9l-.4-.2a.8.8,0,0,1-.2-.4.8.8,0,0,1,.2-.5l.4-.2.5.2a.8.8,0,0,1,.2.5.8.8,0,0,1-.2.4Zm.5,7.5h-.9v-6h.9Z" fill="#1e1e1e" stroke="#1e1e1e" stroke-miterlimit="10" stroke-width="0.06"/><path d="M253.3,10.4h-.9c-1.1,0-1.6-.5-1.6-1.7V5.2h-1V4.4h1V2.9l.9-.3V4.4h1.6v.8h-1.6V8.6a1.2,1.2,0,0,0,.3.9l.6.2a.8.8,0,0,0,.7-.2Z" fill="#1e1e1e" stroke="#1e1e1e" stroke-miterlimit="10" stroke-width="0.06"/><path d="M259.3,7.6H255a2.6,2.6,0,0,0,.6,1.6,1.6,1.6,0,0,0,1.4.5,3.3,3.3,0,0,0,1.9-.6V10a3.7,3.7,0,0,1-2.1.6,2.4,2.4,0,0,1-2-.9,3.2,3.2,0,0,1-.8-2.3,3.1,3.1,0,0,1,.8-2.2,2.7,2.7,0,0,1,2-.9,2.1,2.1,0,0,1,1.8.7,2.8,2.8,0,0,1,.7,2.1Zm-1-.8a1.8,1.8,0,0,0-.4-1.3,1.4,1.4,0,0,0-1.1-.4,1.5,1.5,0,0,0-1.2.5,1.7,1.7,0,0,0-.5,1.2Z" fill="#1e1e1e" stroke="#1e1e1e" stroke-miterlimit="10" stroke-width="0.06"/><path d="M261,10.5a.6.6,0,0,1-.5-.2.5.5,0,0,1-.2-.4.8.8,0,0,1,.2-.5l.5-.2.5.2a.7.7,0,0,1,.1.5c0,.2,0,.3-.1.4A.6.6,0,0,1,261,10.5Z" fill="#1e1e1e" stroke="#1e1e1e" stroke-miterlimit="10" stroke-width="0.06"/><path d="M267.3,10.1a3.1,3.1,0,0,1-1.7.5,2.9,2.9,0,0,1-2.1-.9,3,3,0,0,1-.7-2.1,3.2,3.2,0,0,1,.8-2.4,3,3,0,0,1,2.3-.9,3.2,3.2,0,0,1,1.4.3v.9a2.8,2.8,0,0,0-1.5-.4,2,2,0,0,0-1.5.6,2.8,2.8,0,0,0-.6,1.8,2.1,2.1,0,0,0,.6,1.6,2,2,0,0,0,1.5.6,2.3,2.3,0,0,0,1.5-.5Z" fill="#1e1e1e" stroke="#1e1e1e" stroke-miterlimit="10" stroke-width="0.06"/><path d="M271.1,10.6a2.6,2.6,0,0,1-2.1-.9,3.3,3.3,0,0,1-.8-2.2,3.6,3.6,0,0,1,.8-2.4,3.4,3.4,0,0,1,2.3-.8,2.5,2.5,0,0,1,2.1.8,3.2,3.2,0,0,1,.7,2.3,3.1,3.1,0,0,1-.8,2.3A2.8,2.8,0,0,1,271.1,10.6Zm.1-5.5a2,2,0,0,0-1.5.6,2.9,2.9,0,0,0-.5,1.7,2.6,2.6,0,0,0,.5,1.7,2,2,0,0,0,1.5.6,1.7,1.7,0,0,0,1.4-.6,2.2,2.2,0,0,0,.5-1.7,2.3,2.3,0,0,0-.5-1.7A1.7,1.7,0,0,0,271.2,5.1Z" fill="#1e1e1e" stroke="#1e1e1e" stroke-miterlimit="10" stroke-width="0.06"/><path d="M284.1,10.4h-1V7a2.8,2.8,0,0,0-.3-1.5,1.1,1.1,0,0,0-1-.4,1.6,1.6,0,0,0-1.1.5,3.3,3.3,0,0,0-.4,1.4v3.4h-.9V6.8c0-1.1-.5-1.7-1.4-1.7a1.6,1.6,0,0,0-1.1.5,2.9,2.9,0,0,0-.4,1.4v3.4h-.9v-6h.9v1h.1a1.8,1.8,0,0,1,1.8-1.1,2,2,0,0,1,1.1.3,1.5,1.5,0,0,1,.6.9,2.2,2.2,0,0,1,2-1.2c1.3,0,2,.8,2,2.4Z" fill="#1e1e1e" stroke="#1e1e1e" stroke-miterlimit="10" stroke-width="0.06"/><path d="M192.6,39.2h-1.1l-1.4-2.3-.4-.6-.4-.4-.4-.2h-1.3v3.6h-1V30.8h3.5l.8.5a1.3,1.3,0,0,1,.6.7,2.4,2.4,0,0,1,.2.9,2.9,2.9,0,0,1-.2.9c0,.2-.2.4-.3.6l-.6.5-.8.3h0l.4.2.3.3.3.4a.9.9,0,0,0,.3.5Zm-5-7.5v3h2a.9.9,0,0,0,.6-.3l.3-.5a1.5,1.5,0,0,0,.1-.7,1.2,1.2,0,0,0-.4-1,1.7,1.7,0,0,0-1.3-.4Z" fill="#1e1e1e" stroke="#1e1e1e" stroke-miterlimit="10" stroke-width="0.06"/><path d="M198.1,36.5h-4.2a2.5,2.5,0,0,0,.5,1.5,2,2,0,0,0,1.5.5,3,3,0,0,0,1.8-.6v.9a3.3,3.3,0,0,1-2.1.6,2.5,2.5,0,0,1-2-.9,3.2,3.2,0,0,1-.7-2.3,3.1,3.1,0,0,1,.8-2.2,2.5,2.5,0,0,1,2-.9,2.1,2.1,0,0,1,1.8.7,3.3,3.3,0,0,1,.6,2.1Zm-1-.9a1.8,1.8,0,0,0-.4-1.3,1.2,1.2,0,0,0-1.1-.4,1.3,1.3,0,0,0-1.1.5,2.3,2.3,0,0,0-.6,1.2Z" fill="#1e1e1e" stroke="#1e1e1e" stroke-miterlimit="10" stroke-width="0.06"/><path d="M204.7,39.2h-1v-1h0a2.1,2.1,0,0,1-2,1.2,2,2,0,0,1-1.8-.9,2.8,2.8,0,0,1-.7-2.1,3.6,3.6,0,0,1,.7-2.4,2.5,2.5,0,0,1,2-.9,2,2,0,0,1,1.8.9h0V30.3h1Zm-1-2.7v-.9a1.6,1.6,0,0,0-.4-1.2,1.7,1.7,0,0,0-1.3-.5,1.6,1.6,0,0,0-1.3.6,2.6,2.6,0,0,0-.5,1.8,2.5,2.5,0,0,0,.4,1.6,1.8,1.8,0,0,0,1.3.6,1.7,1.7,0,0,0,1.3-.5A2,2,0,0,0,203.7,36.5Z" fill="#1e1e1e" stroke="#1e1e1e" stroke-miterlimit="10" stroke-width="0.06"/><path d="M207.1,31.7l-.4-.2-.2-.4a.8.8,0,0,1,.2-.5l.4-.2.5.2a.8.8,0,0,1,.2.5l-.2.4Zm.5,7.5h-.9v-6h.9Z" fill="#1e1e1e" stroke="#1e1e1e" stroke-miterlimit="10" stroke-width="0.06"/><path d="M212.7,34.2,212,34a1.4,1.4,0,0,0-1.1.6,3.4,3.4,0,0,0-.4,1.6v3h-.9v-6h.9v1.2h0a2.2,2.2,0,0,1,.7-.9,1.2,1.2,0,0,1,.9-.4h.6Z" fill="#1e1e1e" stroke="#1e1e1e" stroke-miterlimit="10" stroke-width="0.06"/><path d="M218.6,36.5h-4.3a2,2,0,0,0,.6,1.5,1.6,1.6,0,0,0,1.4.5,2.8,2.8,0,0,0,1.8-.6v.9a3.3,3.3,0,0,1-2.1.6,2.5,2.5,0,0,1-2-.9,3.7,3.7,0,0,1-.7-2.3,3.1,3.1,0,0,1,.8-2.2,2.5,2.5,0,0,1,2-.9,2.1,2.1,0,0,1,1.8.7,3.3,3.3,0,0,1,.7,2.1Zm-1-.9a2.5,2.5,0,0,0-.4-1.3,1.5,1.5,0,0,0-1.1-.4,1.3,1.3,0,0,0-1.2.5,2.3,2.3,0,0,0-.6,1.2Z" fill="#1e1e1e" stroke="#1e1e1e" stroke-miterlimit="10" stroke-width="0.06"/><path d="M224.1,38.9a3,3,0,0,1-1.6.5,2.6,2.6,0,0,1-2.1-.9,3,3,0,0,1-.8-2.1,3.6,3.6,0,0,1,.8-2.4,3.4,3.4,0,0,1,3.7-.6v.9a2.3,2.3,0,0,0-1.4-.4,2,2,0,0,0-1.5.6,2.8,2.8,0,0,0-.6,1.8,2.5,2.5,0,0,0,.5,1.6,2,2,0,0,0,1.5.6,2.3,2.3,0,0,0,1.5-.5Z" fill="#1e1e1e" stroke="#1e1e1e" stroke-miterlimit="10" stroke-width="0.06"/><path d="M226,31.7l-.4-.2-.2-.4a.8.8,0,0,1,.2-.5l.4-.2.5.2a.8.8,0,0,1,.2.5l-.2.4Zm.5,7.5h-.9v-6h.9Z" fill="#1e1e1e" stroke="#1e1e1e" stroke-miterlimit="10" stroke-width="0.06"/><path d="M231,39.4a2.9,2.9,0,0,1-2.2-.9,3.3,3.3,0,0,1-.8-2.2,3.2,3.2,0,0,1,.9-2.4,3.1,3.1,0,0,1,2.2-.8,2.5,2.5,0,0,1,2.1.8,3.5,3.5,0,0,1-.1,4.6A2.6,2.6,0,0,1,231,39.4Zm0-5.5a1.7,1.7,0,0,0-1.4.6,2.4,2.4,0,0,0-.6,1.7,2.2,2.2,0,0,0,.6,1.7,1.7,1.7,0,0,0,1.4.6,1.9,1.9,0,0,0,1.5-.6,2.6,2.6,0,0,0,.5-1.7,2.9,2.9,0,0,0-.5-1.7A1.9,1.9,0,0,0,231,33.9Z" fill="#1e1e1e" stroke="#1e1e1e" stroke-miterlimit="10" stroke-width="0.06"/><path d="M240.5,39.2h-1V35.8c0-1.3-.5-1.9-1.4-1.9a1.7,1.7,0,0,0-1.2.5,2.2,2.2,0,0,0-.5,1.4v3.4h-.9v-6h.9v1h.1a2,2,0,0,1,1.9-1.1,1.8,1.8,0,0,1,1.5.6,2.4,2.4,0,0,1,.6,1.8Z" fill="#1e1e1e" stroke="#1e1e1e" stroke-miterlimit="10" stroke-width="0.06"/><path d="M246.6,39.2h-1v-.9h0a2,2,0,0,1-1.9,1.1,2.2,2.2,0,0,1-1.4-.5,1.9,1.9,0,0,1-.5-1.3c0-1.1.7-1.8,2-1.9l1.8-.3q0-1.5-1.2-1.5a3.1,3.1,0,0,0-2,.7v-1a4.6,4.6,0,0,1,2.1-.5c1.4,0,2.1.7,2.1,2.2Zm-1-3-1.4.2a1.3,1.3,0,0,0-1,.3.8.8,0,0,0-.4.8,1.1,1.1,0,0,0,.3.8l.9.2a1.3,1.3,0,0,0,1.1-.5,1.3,1.3,0,0,0,.5-1.2Z" fill="#1e1e1e" stroke="#1e1e1e" stroke-miterlimit="10" stroke-width="0.06"/><path d="M251.5,34.2l-.7-.2a1.1,1.1,0,0,0-1,.6,2.5,2.5,0,0,0-.5,1.6v3h-.9v-6h.9v1.2h.1a1.5,1.5,0,0,1,.6-.9,1.2,1.2,0,0,1,.9-.4h.6Z" fill="#1e1e1e" stroke="#1e1e1e" stroke-miterlimit="10" stroke-width="0.06"/><path d="M210.2,154.9h-2.4v7.5h-1v-7.5h-2.4V154h5.8Z" fill="#1e1e1e" stroke="#1e1e1e" stroke-miterlimit="10" stroke-width="0.06"/><path d="M212.6,162.6a2.7,2.7,0,0,1-2.1-.9,3.1,3.1,0,0,1-.8-2.2,3.2,3.2,0,0,1,.9-2.4,2.9,2.9,0,0,1,2.2-.8,2.9,2.9,0,0,1,2.1.8,3.3,3.3,0,0,1,.7,2.3,3,3,0,0,1-.8,2.3A2.7,2.7,0,0,1,212.6,162.6Zm.1-5.5a2,2,0,0,0-1.5.6,3,3,0,0,0-.5,1.8,2.1,2.1,0,0,0,.6,1.6,1.5,1.5,0,0,0,1.4.7,1.7,1.7,0,0,0,1.4-.6,2.4,2.4,0,0,0,.5-1.8,2.3,2.3,0,0,0-.5-1.7A1.7,1.7,0,0,0,212.7,157.1Z" fill="#1e1e1e" stroke="#1e1e1e" stroke-miterlimit="10" stroke-width="0.06"/><path d="M222.1,162.4h-1.4l-2.6-2.9h0v2.9h-1v-8.9h1v5.7h0l2.5-2.8h1.3l-2.8,2.9Z" fill="#1e1e1e" stroke="#1e1e1e" stroke-miterlimit="10" stroke-width="0.06"/><path d="M227.8,159.7h-4.2a2.3,2.3,0,0,0,.5,1.5,1.8,1.8,0,0,0,1.4.6,3.4,3.4,0,0,0,1.9-.7v.9a3.3,3.3,0,0,1-2.1.6,2.8,2.8,0,0,1-2-.8,3.5,3.5,0,0,1-.7-2.3,3,3,0,0,1,.8-2.3,2.5,2.5,0,0,1,1.9-.9,2.2,2.2,0,0,1,1.9.8,3.3,3.3,0,0,1,.6,2.1Zm-1-.8a1.7,1.7,0,0,0-.4-1.3,1.3,1.3,0,0,0-1.1-.5,1.6,1.6,0,0,0-1.1.5,2.3,2.3,0,0,0-.6,1.3Z" fill="#1e1e1e" stroke="#1e1e1e" stroke-miterlimit="10" stroke-width="0.06"/><path d="M234.2,162.4h-1V159c0-1.3-.5-1.9-1.4-1.9a1.7,1.7,0,0,0-1.2.5,2.3,2.3,0,0,0-.4,1.4v3.4h-1v-6h1v1h0a2.1,2.1,0,0,1,1.9-1.1,1.8,1.8,0,0,1,1.5.6,2.7,2.7,0,0,1,.6,1.9Z" fill="#1e1e1e" stroke="#1e1e1e" stroke-miterlimit="10" stroke-width="0.06"/><path d="M244.2,162.4h-.9v-1h0a2.4,2.4,0,0,1-2.1,1.2,2.2,2.2,0,0,1-1.8-.8,3.2,3.2,0,0,1-.7-2.2,3.6,3.6,0,0,1,.8-2.4,2.4,2.4,0,0,1,2-.9,1.9,1.9,0,0,1,1.8,1h0v-3.8h.9Zm-.9-2.7v-.9a1.7,1.7,0,0,0-1.7-1.7,1.7,1.7,0,0,0-1.4.6,3.5,3.5,0,0,0-.5,1.8,2.9,2.9,0,0,0,.5,1.7,1.5,1.5,0,0,0,1.3.6,1.6,1.6,0,0,0,1.3-.6A2.5,2.5,0,0,0,243.3,159.7Z" fill="#1e1e1e" stroke="#1e1e1e" stroke-miterlimit="10" stroke-width="0.06"/><path d="M250.9,159.7h-4.2a2.3,2.3,0,0,0,.5,1.5,2,2,0,0,0,1.5.6,3.1,3.1,0,0,0,1.8-.7v.9a3.3,3.3,0,0,1-2.1.6,2.8,2.8,0,0,1-2-.8,4.2,4.2,0,0,1-.7-2.3,3.4,3.4,0,0,1,.8-2.3,2.5,2.5,0,0,1,2-.9,1.9,1.9,0,0,1,1.8.8,3.3,3.3,0,0,1,.6,2.1Zm-.9-.8a2.2,2.2,0,0,0-.4-1.3,1.6,1.6,0,0,0-1.1-.5,1.7,1.7,0,0,0-1.2.5,2.3,2.3,0,0,0-.6,1.3Z" fill="#1e1e1e" stroke="#1e1e1e" stroke-miterlimit="10" stroke-width="0.06"/><path d="M259.8,162.4h-.9v-.9h-.1a2.1,2.1,0,0,1-3.2.6,1.7,1.7,0,0,1-.5-1.3c0-1.1.7-1.7,2-1.9l1.8-.3c0-1-.4-1.5-1.3-1.5a2.8,2.8,0,0,0-1.9.7v-.9a3.4,3.4,0,0,1,2-.6c1.4,0,2.1.7,2.1,2.2Zm-.9-3-1.5.2-1,.3a1.2,1.2,0,0,0-.3.9.9.9,0,0,0,.3.7,1.1,1.1,0,0,0,.8.3,1.7,1.7,0,0,0,1.2-.5,2.1,2.1,0,0,0,.5-1.3Z" fill="#1e1e1e" stroke="#1e1e1e" stroke-miterlimit="10" stroke-width="0.06"/><path d="M265.7,162.2a4.3,4.3,0,0,1-1.7.4,2.9,2.9,0,0,1-2.1-.9,2.8,2.8,0,0,1-.7-2.1,3.2,3.2,0,0,1,.8-2.4,3,3,0,0,1,2.3-.9,3.2,3.2,0,0,1,1.4.3v1a2.7,2.7,0,0,0-1.5-.5,1.8,1.8,0,0,0-1.5.7,2.4,2.4,0,0,0-.6,1.7,2.5,2.5,0,0,0,.6,1.7,2,2,0,0,0,1.5.6,2.4,2.4,0,0,0,1.5-.6Z" fill="#1e1e1e" stroke="#1e1e1e" stroke-miterlimit="10" stroke-width="0.06"/><path d="M271.9,159.7h-4.3a1.9,1.9,0,0,0,.6,1.5,1.7,1.7,0,0,0,1.4.6,2.9,2.9,0,0,0,1.8-.7v.9a3.2,3.2,0,0,1-2,.6,2.5,2.5,0,0,1-2-.8,3.6,3.6,0,0,1-.8-2.3,3.4,3.4,0,0,1,.8-2.3,2.7,2.7,0,0,1,2-.9,1.9,1.9,0,0,1,1.8.8,3.3,3.3,0,0,1,.7,2.1Zm-1-.8a2.2,2.2,0,0,0-.4-1.3,1.6,1.6,0,0,0-1.1-.5,1.7,1.7,0,0,0-1.2.5,2.3,2.3,0,0,0-.6,1.3Z" fill="#1e1e1e" stroke="#1e1e1e" stroke-miterlimit="10" stroke-width="0.06"/><path d="M272.9,162.2v-1a2.7,2.7,0,0,0,1.7.6c.9,0,1.3-.3,1.3-.9v-.4l-.3-.3-.5-.2-.5-.2-.7-.3-.5-.4-.3-.5c-.1-.1-.1-.3-.1-.6a1.4,1.4,0,0,1,.2-.7l.5-.6.7-.3h.9a3.2,3.2,0,0,1,1.4.3v.9a2.8,2.8,0,0,0-1.5-.4h-.9l-.2.3a.4.4,0,0,0-.1.3c0,.2,0,.3.1.4l.2.3.4.2.5.3.8.3.5.3c.1.2.3.3.3.5a1.4,1.4,0,0,1,.2.6,1.9,1.9,0,0,1-.2.8c-.2.2-.3.4-.6.5l-.7.4h-.9A2.7,2.7,0,0,1,272.9,162.2Z" fill="#1e1e1e" stroke="#1e1e1e" stroke-miterlimit="10" stroke-width="0.06"/><path d="M277.9,162.2v-1a2.7,2.7,0,0,0,1.7.6c.9,0,1.3-.3,1.3-.9a.6.6,0,0,0-.1-.4l-.3-.3-.4-.2-.6-.2-.7-.3-.5-.4-.3-.5c-.1-.1-.1-.3-.1-.6a1.4,1.4,0,0,1,.2-.7l.5-.6.8-.3h.8a3.2,3.2,0,0,1,1.4.3v.9a2.4,2.4,0,0,0-1.5-.4h-.9l-.2.3a.4.4,0,0,0-.1.3c0,.2,0,.3.1.4l.2.3.4.2.6.3.7.3.5.3.4.5c0,.2.1.4.1.6a1.9,1.9,0,0,1-.2.8,1.2,1.2,0,0,1-.5.5l-.8.4h-.9A2.9,2.9,0,0,1,277.9,162.2Z" fill="#1e1e1e" stroke="#1e1e1e" stroke-miterlimit="10" stroke-width="0.06"/><path d="M285.8,162.6a2.6,2.6,0,0,1-2.1-.9,2.7,2.7,0,0,1-.8-2.2,3.6,3.6,0,0,1,.8-2.4,3.3,3.3,0,0,1,2.2-.8,2.9,2.9,0,0,1,2.1.8,3.7,3.7,0,0,1,0,4.6A2.9,2.9,0,0,1,285.8,162.6Zm.1-5.5a1.9,1.9,0,0,0-1.5.6,2.4,2.4,0,0,0-.5,1.8,2.1,2.1,0,0,0,.5,1.6,1.8,1.8,0,0,0,1.5.7,1.7,1.7,0,0,0,1.4-.6,3,3,0,0,0,.5-1.8,2.9,2.9,0,0,0-.5-1.7A1.7,1.7,0,0,0,285.9,157.1Z" fill="#1e1e1e" stroke="#1e1e1e" stroke-miterlimit="10" stroke-width="0.06"/></svg>