<svg xmlns="http://www.w3.org/2000/svg" xmlns:xlink="http://www.w3.org/1999/xlink" viewBox="0 0 474.7 206.7"><defs><symbol id="a" viewBox="0 0 20 20"><circle cx="10" cy="10" r="10" fill="#505050"/><path d="M12.9,8.3a5,5,0,0,0-.2-1.2,2.4,2.4,0,0,0-.6-.9l-.9-.6-1.1-.2A2,2,0,0,0,9,5.7a1.6,1.6,0,0,0-.9.7,3.4,3.4,0,0,0-.6,1.2,9.9,9.9,0,0,0-.2,1.7,7.5,7.5,0,0,0,.2,2.1,5.5,5.5,0,0,0,.8,1.5,3.1,3.1,0,0,0,1.1.9l1.5.3h.8l.6-.2V12.7l-.6.2h-.8l-.9-.2a1.3,1.3,0,0,1-.7-.6,3.1,3.1,0,0,1-.5-1A5,5,0,0,1,8.6,10h0a1.6,1.6,0,0,0,.8.6,2,2,0,0,0,1.1.3l1-.2.8-.5.4-.8A2.3,2.3,0,0,0,12.9,8.3Zm-1.4-.1a1.3,1.3,0,0,1-.1.6.8.8,0,0,1-.2.5l-.5.4H9.5L9,9.3l-.2-.4a1.3,1.3,0,0,1-.1-.6,1.3,1.3,0,0,1,.1-.6A1.4,1.4,0,0,1,9,7.1l.5-.4.6-.2.6.2c.2,0,.3.2.5.3s.2.3.2.5A1.5,1.5,0,0,1,11.5,8.2Z" fill="#fff"/></symbol><symbol id="b" viewBox="0 0 20 20"><circle cx="10" cy="10" r="10" fill="#505050"/><path d="M11.2,14.2V5.6H9.8v6.9L9,12l-1-.3v1.2l.7.2.6.3.6.3.7.5Z" fill="#fff"/></symbol><symbol id="c" viewBox="0 0 20 20"><circle cx="10" cy="10" r="10" fill="#505050"/><path d="M12.5,5.6H7.2v.6c0,.3.1.5.1.8l.3.7.5.5.5.6.6.5.6.4.5.5.4.4.2.5a1.3,1.3,0,0,1,.1.6,1.3,1.3,0,0,1-.1.6l-.3.4-.4.2H9.6l-1-.2a3.9,3.9,0,0,1-1-.8v1.3a1,1,0,0,0,.5.4l.6.2.5.2h.7l1-.2.8-.4.5-.7a4.4,4.4,0,0,0,.2-1c0-.4-.1-.7-.1-1l-.4-.7-.6-.7-.7-.6-.7-.6-.6-.5-.4-.5a.8.8,0,0,1-.2-.5h3.8Z" fill="#fff"/></symbol><symbol id="d" viewBox="0 0 20 20"><circle cx="10" cy="10" r="10" fill="#505050"/><path d="M7.6,5.8V7.1a2.7,2.7,0,0,1,1.7-.6,1.8,1.8,0,0,1,1.3.5,1,1,0,0,1,.5,1.1,1,1,0,0,1-.5,1.1,2,2,0,0,1-1.5.4H7.7L8,14h4.2V12.8h-3L9,10.7h.8a2.6,2.6,0,0,0,2-.7,2.4,2.4,0,0,0,.7-1.8,2.8,2.8,0,0,0-.8-2,3.4,3.4,0,0,0-2.3-.8A3.7,3.7,0,0,0,7.6,5.8Z" fill="#fff"/></symbol><symbol id="e" viewBox="0 0 20 20"><circle cx="10" cy="10" r="10" fill="#505050"/><path d="M12,14V8.6h1.2V7.4H12V5.6H10.6V7.4H6.8V8.6A13.1,13.1,0,0,1,7.9,9.8l1,1.4.9,1.4a10,10,0,0,1,.8,1.4ZM10.7,8.6v3.5l-1.3-2L8.2,8.6Z" fill="#fff"/></symbol><symbol id="f" viewBox="0 0 20 20"><circle cx="10" cy="10" r="10" fill="#505050"/><path d="M7.4,5.9V7.2a2.6,2.6,0,0,1,1.8-.7,2.3,2.3,0,0,1,1.4.4,1.2,1.2,0,0,1,.5,1c0,.9-.7,1.4-2.2,1.4H8.2v1.1h.7c1.3,0,1.9.5,1.9,1.4S10.3,13,9.3,13a2.3,2.3,0,0,1-1.6-.6v1.2a3.5,3.5,0,0,0,2,.5,3.5,3.5,0,0,0,1.8-.5,2.1,2.1,0,0,0-1-3.6h0a2.5,2.5,0,0,0,1.4-.6,2,2,0,0,0,.6-1.5,2.3,2.3,0,0,0-.9-1.8,3.4,3.4,0,0,0-2.2-.7A3.5,3.5,0,0,0,7.4,5.9Z" fill="#fff"/></symbol></defs><title>OJ104329341</title><rect width="474.7" height="206.72" fill="#fff"/><rect y="10.4" width="105" height="155" fill="#ebebeb"/><rect x="369.7" y="10.4" width="105" height="115" fill="#0072c6"/><rect x="369.7" y="130.4" width="105" height="70" fill="#d2d2d2"/><line x1="105" y1="15.4" x2="364.2" y2="15.4" fill="none" stroke="#000" stroke-miterlimit="10"/><polygon points="363.1 19.1 369.6 15.4 363.1 11.7 363.1 19.1"/><line x1="110.4" y1="45.3" x2="369.5" y2="45.3" fill="none" stroke="#000" stroke-miterlimit="10"/><polygon points="111.5 49 105 45.3 111.5 41.5 111.5 49"/><line x1="105" y1="74.9" x2="364.2" y2="74.9" fill="none" stroke="#000" stroke-miterlimit="10"/><polygon points="363.1 78.7 369.6 74.9 363.1 71.2 363.1 78.7"/><line x1="110.4" y1="105.2" x2="369.5" y2="105.2" fill="none" stroke="#000" stroke-miterlimit="10"/><polygon points="111.5 108.9 105 105.2 111.5 101.4 111.5 108.9"/><line x1="105" y1="154.5" x2="364.2" y2="154.5" fill="none" stroke="#000" stroke-miterlimit="10"/><polygon points="363.1 158.2 369.6 154.5 363.1 150.7 363.1 158.2"/><path d="M369.5,195.4l-308.4-.8a10,10,0,0,1-10-10V170.8" fill="none" stroke="#000" stroke-miterlimit="10"/><polygon points="54.8 171.9 51.1 165.4 47.4 171.9 54.8 171.9"/><polygon points="192.6 25.8 185 31.3 187.9 40.1 197.2 40.1 200.1 31.3 192.6 25.8" fill="#ebebeb" stroke="#000" stroke-miterlimit="10" stroke-width="0.75"/><polygon points="192.6 86 185 91.4 187.9 100.2 197.2 100.2 200.1 91.4 192.6 86" fill="#ebebeb" stroke="#000" stroke-miterlimit="10" stroke-width="0.75"/><use width="20" height="20" transform="matrix(1, 0, 0, -1, 158.91, 205.41)" xlink:href="#a"/><path d="M87.9,44.9V95.3h-70V44.9a4.3,4.3,0,0,1,4.3-4.3H83.5A4.4,4.4,0,0,1,87.9,44.9Z" fill="#80bceb"/><circle cx="24.4" cy="46" r="2.2"/><circle cx="31" cy="46" r="2.2" fill="#414042"/><circle cx="37.5" cy="46" r="2.2" fill="#414042"/><path d="M87.9,44.9V87.6l-4.4-4.4L81.3,55.9,55,54.8,40.8,40.6H83.5A4.4,4.4,0,0,1,87.9,44.9Z" fill="#aad2f2"/><rect x="21.1" y="50.4" width="63.4" height="41.56" fill="#054b16"/><path d="M69.1,57.7H26.4V55.6H69.1Z" fill="#fff"/><polygon points="84.6 50.4 84.6 84.3 50.7 50.4 84.6 50.4" fill="#fff" fill-opacity="0.15"/><path d="M78,58.5l-.6-1.4c-.1,0-.1-.1-.1-.2v-.2h0v.2a.4.4,0,0,1-.1.3l-.6,1.3H74.7L76.2,56l-1.3-2.5h1.8l.5,1.3c0,.2.1.3.1.5h0c0-.2.1-.3.1-.5l.6-1.3h1.7L78.3,56l1.4,2.5Z" fill="#fff"/><path d="M49.2,76.1a8.6,8.6,0,0,1-1.8,5.7,6.8,6.8,0,0,1-4.9,2,6.6,6.6,0,0,1-2.3-.4V80.2a4.2,4.2,0,0,0,2.1.6c2.3,0,3.5-1.8,3.5-5.3V62.8h3.4Z" fill="#fff"/><path d="M52.3,82.6V79.1l1.1.8,1.4.6,1.5.3,1.3.2a6.1,6.1,0,0,0,3.2-.8,2.3,2.3,0,0,0,1.1-2,2,2,0,0,0-.4-1.3,2.4,2.4,0,0,0-1-1,6.7,6.7,0,0,0-1.4-.9l-1.9-.9L55.3,73l-1.6-1.3a4.9,4.9,0,0,1-1-1.5,5.1,5.1,0,0,1-.4-2,4.8,4.8,0,0,1,.7-2.6,4.6,4.6,0,0,1,1.7-1.7,5.6,5.6,0,0,1,2.4-1,9,9,0,0,1,2.8-.4,10.9,10.9,0,0,1,4.7.8v3.3a7.1,7.1,0,0,0-4.5-1.2H58.6a2.9,2.9,0,0,0-1.3.5,2.7,2.7,0,0,0-1,.8,1.9,1.9,0,0,0-.4,1.2,1.4,1.4,0,0,0,.3,1.2,1.8,1.8,0,0,0,.8.9l1.3.8,1.9.9a13.2,13.2,0,0,1,2,1.2,10.9,10.9,0,0,1,1.7,1.3A6.6,6.6,0,0,1,65.1,76a5.2,5.2,0,0,1,.4,2.1,4.8,4.8,0,0,1-2.4,4.4,6.4,6.4,0,0,1-2.4,1,15.3,15.3,0,0,1-3,.3H56.4l-1.5-.2-1.5-.4Z" fill="#fff"/><use width="20" height="20" transform="matrix(1, 0, 0, -1, 158.91, 25.41)" xlink:href="#b"/><use width="20" height="20" transform="matrix(1, 0, 0, -1, 158.91, 55.29)" xlink:href="#c"/><use width="20" height="20" transform="matrix(1, 0, 0, -1, 158.91, 165.21)" xlink:href="#d"/><use width="20" height="20" transform="matrix(1, 0, 0, -1, 158.91, 115.67)" xlink:href="#e"/><use width="20" height="20" transform="matrix(1, 0, 0, -1, 158.91, 84.93)" xlink:href="#f"/><polygon points="192.6 133.8 185 139.2 187.9 148 197.2 148 200.1 139.2 192.6 133.8" fill="#ebebeb" stroke="#000" stroke-miterlimit="10" stroke-width="0.75"/><path d="M33,114.4v-1.9a2.4,2.4,0,0,0,1.1.6,2.5,2.5,0,0,0,1.2.2h.6l.5-.2c.1-.1.2-.2.2-.3a.4.4,0,0,0,.1-.3c0-.2,0-.3-.1-.4l-.4-.4-.6-.3-.7-.3a5.6,5.6,0,0,1-1.5-1,2.4,2.4,0,0,1-.4-1.5,2,2,0,0,1,.2-1.1,2.7,2.7,0,0,1,.7-.8l1.1-.4,1.3-.2h1.1l1,.3v1.7l-.5-.2-.5-.2H35.8l-.5.2-.3.2v.4a.8.8,0,0,0,.1.4l.3.3.5.3.6.3.9.4.7.5.5.7a2.8,2.8,0,0,1,.1.9,3.7,3.7,0,0,1-.2,1.2l-.8.8-1,.4H34.1Z" stroke="#000" stroke-miterlimit="10" stroke-width="0.05"/><path d="M42,111.8v2.9H40.1v-8.4h3c2.1,0,3.1.9,3.1,2.7a2.5,2.5,0,0,1-.9,2,3.6,3.6,0,0,1-2.4.8Zm0-4.1v2.7h.7c1.1,0,1.6-.5,1.6-1.4s-.5-1.3-1.6-1.3Z" stroke="#000" stroke-miterlimit="10" stroke-width="0.05"/><path d="M54.2,114.7H52.1l-.6-1.9h-3l-.6,1.9h-2l3-8.4h2.3Zm-3.1-3.3-.9-2.9a1.4,1.4,0,0,1-.2-.7h0a1.9,1.9,0,0,1-.2.7l-.9,2.9Z" stroke="#000" stroke-miterlimit="10" stroke-width="0.05"/><path d="M64.2,114.7H62.4v-.8h-.1a2,2,0,0,1-1.8.9,1.9,1.9,0,0,1-1.8-.8,2.9,2.9,0,0,1-.7-2.2,3.6,3.6,0,0,1,.7-2.4,2.5,2.5,0,0,1,2-.9,1.6,1.6,0,0,1,1.6.9h.1v-3.6h1.8Zm-1.8-2.9v-.5a1.3,1.3,0,0,0-.4-1,1.1,1.1,0,0,0-.8-.3,1.2,1.2,0,0,0-1,.4,2.9,2.9,0,0,0-.3,1.4,2.1,2.1,0,0,0,.3,1.2,1.2,1.2,0,0,0,1.8,0A1.6,1.6,0,0,0,62.4,111.8Z" stroke="#000" stroke-miterlimit="10" stroke-width="0.05"/><path d="M68.6,114.8a3.2,3.2,0,0,1-2.3-.8,3,3,0,0,1-.9-2.3,2.9,2.9,0,0,1,.9-2.3,3.2,3.2,0,0,1,2.4-.9,2.9,2.9,0,0,1,2.3.9,2.8,2.8,0,0,1,.9,2.2A3.2,3.2,0,0,1,71,114,3.6,3.6,0,0,1,68.6,114.8Zm.1-4.8a1.1,1.1,0,0,0-1,.4,1.7,1.7,0,0,0-.4,1.3c0,1.1.5,1.7,1.4,1.7s1.3-.6,1.3-1.8S69.6,110,68.7,110Z" stroke="#000" stroke-miterlimit="10" stroke-width="0.05"/><path d="M28.2,125.7a3.8,3.8,0,0,1-.8,2.6,2.9,2.9,0,0,1-2.3.9,2.5,2.5,0,0,1-1.2-.2v-1.8a1.5,1.5,0,0,0,1.1.4c.9,0,1.3-.6,1.3-1.9v-5h1.9Z" stroke="#000" stroke-miterlimit="10" stroke-width="0.05"/><path d="M34.7,129.1H33v-.9h-.1a1.9,1.9,0,0,1-1.7,1,1.6,1.6,0,0,1-1.4-.5,1.7,1.7,0,0,1-.5-1.3c0-1.2.7-1.8,2.1-2l1.6-.2c0-.7-.4-1-1.1-1a3.6,3.6,0,0,0-2,.6v-1.4l1-.3,1.3-.2c1.7,0,2.5.9,2.5,2.6ZM33,126.6v-.4l-1.1.2c-.6.1-.9.3-.9.8a.8.8,0,0,0,.2.5l.6.2a1.4,1.4,0,0,0,.9-.3A1.7,1.7,0,0,0,33,126.6Z" stroke="#000" stroke-miterlimit="10" stroke-width="0.05"/><path d="M41.9,123.1l-2.2,6H37.6l-2.2-6h2l1.1,3.7a8.7,8.7,0,0,0,.2,1h0a5.8,5.8,0,0,1,.2-1l1.1-3.7Z" stroke="#000" stroke-miterlimit="10" stroke-width="0.05"/><path d="M47.5,129.1H45.7v-.9h0a1.9,1.9,0,0,1-1.8,1,1.5,1.5,0,0,1-1.3-.5,1.4,1.4,0,0,1-.5-1.3c0-1.2.7-1.8,2-2l1.7-.2c0-.7-.4-1-1.1-1a3.6,3.6,0,0,0-2,.6v-1.4l1-.3,1.2-.2a2.3,2.3,0,0,1,2.6,2.6Zm-1.7-2.5v-.4l-1.1.2c-.6.1-.9.3-.9.8s0,.4.2.5a.8.8,0,0,0,.6.2,1.1,1.1,0,0,0,.8-.3A1.3,1.3,0,0,0,45.8,126.6Z" stroke="#000" stroke-miterlimit="10" stroke-width="0.05"/><path d="M48.8,128.8v-1.9a2.4,2.4,0,0,0,1.1.6,2.5,2.5,0,0,0,1.2.2h.6l.4-.2.3-.3a.4.4,0,0,0,.1-.3c0-.2,0-.3-.1-.4l-.4-.4-.6-.3-.7-.3a3.6,3.6,0,0,1-1.5-1,2.5,2.5,0,0,1-.5-1.5,2,2,0,0,1,.3-1.1,2.7,2.7,0,0,1,.7-.8l1.1-.4,1.2-.2h1.2l.9.3v1.7l-.4-.2-.6-.2H51.5l-.4.2-.3.2c0,.1-.1.2-.1.4s.1.2.1.4l.3.3.5.3.7.3.9.4.7.5a2.5,2.5,0,0,1,.4.7,2.9,2.9,0,0,1,.2.9,2.1,2.1,0,0,1-.3,1.2,2.7,2.7,0,0,1-.7.8l-1.1.4H49.8Z" stroke="#000" stroke-miterlimit="10" stroke-width="0.05"/><path d="M60.2,128.9a4.2,4.2,0,0,1-1.8.3,2.9,2.9,0,0,1-2.2-.8,3.3,3.3,0,0,1,.1-4.6,3.2,3.2,0,0,1,2.4-.9,2.8,2.8,0,0,1,1.5.3v1.6a1.8,1.8,0,0,0-1.3-.4,1.6,1.6,0,0,0-1.2.4,1.9,1.9,0,0,0,0,2.6,1.6,1.6,0,0,0,1.2.4,2.2,2.2,0,0,0,1.3-.4Z" stroke="#000" stroke-miterlimit="10" stroke-width="0.05"/><path d="M65.4,124.8a1.2,1.2,0,0,0-.8-.2,1.3,1.3,0,0,0-1,.4,2.1,2.1,0,0,0-.3,1.2v2.9H61.5v-6h1.8v1.1h0a1.6,1.6,0,0,1,1.6-1.2h.5Z" stroke="#000" stroke-miterlimit="10" stroke-width="0.05"/><path d="M67.2,122.1l-.8-.2a1.1,1.1,0,0,1-.3-.7.9.9,0,0,1,.3-.7,1.2,1.2,0,0,1,1.6,0,1,1,0,0,1,0,1.4Zm.9,7H66.3v-6h1.8Z" stroke="#000" stroke-miterlimit="10" stroke-width="0.05"/><path d="M71.6,128.4h-.1v3.4H69.7v-8.7h1.8v.9h.1a2.1,2.1,0,0,1,1.9-1.1,2.2,2.2,0,0,1,1.8.8,3.8,3.8,0,0,1,.6,2.2,3.6,3.6,0,0,1-.7,2.4,2.5,2.5,0,0,1-2,.9A1.8,1.8,0,0,1,71.6,128.4Zm-.1-2.5v.5a1.5,1.5,0,0,0,.3,1,1.1,1.1,0,0,0,.9.4,1.4,1.4,0,0,0,1-.5,2.6,2.6,0,0,0,.3-1.4q0-1.5-1.2-1.5a1,1,0,0,0-.9.4A1.5,1.5,0,0,0,71.5,125.9Z" stroke="#000" stroke-miterlimit="10" stroke-width="0.05"/><path d="M80.8,129a2.4,2.4,0,0,1-1.3.2c-1.3,0-1.9-.6-1.9-2v-2.8h-1v-1.3h1v-1.3l1.8-.5v1.8h1.4v1.3H79.4v2.5c0,.6.3.9.7.9a1.1,1.1,0,0,0,.7-.2Z" stroke="#000" stroke-miterlimit="10" stroke-width="0.05"/><path d="M212.9,133H212v-3.8h-4.4V133h-1v-8.4h1v3.7H212v-3.7h.9Z" fill="#1e1e1e" stroke="#1e1e1e" stroke-miterlimit="10" stroke-width="0.06"/><path d="M220,125.5h-2.4V133h-1v-7.5h-2.4v-.9H220Z" fill="#1e1e1e" stroke="#1e1e1e" stroke-miterlimit="10" stroke-width="0.06"/><path d="M226.5,125.5h-2.4V133h-1v-7.5h-2.4v-.9h5.8Z" fill="#1e1e1e" stroke="#1e1e1e" stroke-miterlimit="10" stroke-width="0.06"/><path d="M228.7,129.9V133h-1v-8.4H230a3.3,3.3,0,0,1,2.1.7,2.3,2.3,0,0,1,.8,1.8,2.5,2.5,0,0,1-.9,2,2.9,2.9,0,0,1-2.2.8Zm0-4.4V129h1a2.5,2.5,0,0,0,1.6-.5,1.4,1.4,0,0,0,.5-1.3c0-1.1-.6-1.7-1.9-1.7Z" fill="#1e1e1e" stroke="#1e1e1e" stroke-miterlimit="10" stroke-width="0.06"/><path d="M243.9,132.5a6.8,6.8,0,0,1-2.8.7,3.7,3.7,0,0,1-2.9-1.2,3.9,3.9,0,0,1-1.2-3,4.4,4.4,0,0,1,1.3-3.2,3.9,3.9,0,0,1,3.1-1.3,5.3,5.3,0,0,1,2.3.4V126a4.8,4.8,0,0,0-2.4-.6,2.9,2.9,0,0,0-2.3,1,3.5,3.5,0,0,0-.9,2.5,3.9,3.9,0,0,0,.8,2.5,3,3,0,0,0,2.3.9,3.3,3.3,0,0,0,1.7-.4v-2.3h-1.8v-.9h2.8Z" fill="#1e1e1e" stroke="#1e1e1e" stroke-miterlimit="10" stroke-width="0.06"/><path d="M250.2,133h-4.4v-8.4H250v.9h-3.3v2.8h3.1v.9h-3.1v3h3.5Z" fill="#1e1e1e" stroke="#1e1e1e" stroke-miterlimit="10" stroke-width="0.06"/><path d="M256.7,125.5h-2.4V133h-1v-7.5h-2.4v-.9h5.8Z" fill="#1e1e1e" stroke="#1e1e1e" stroke-miterlimit="10" stroke-width="0.06"/><path d="M267,129.9h-2.4v2.4h-.8v-2.4h-2.4v-.7h2.4v-2.4h.8v2.4H267Z" fill="#1e1e1e" stroke="#1e1e1e" stroke-miterlimit="10" stroke-width="0.06"/><path d="M211.6,139.7h-2.4v7.5h-1v-7.5h-2.4v-.9h5.8Z" fill="#1e1e1e" stroke="#1e1e1e" stroke-miterlimit="10" stroke-width="0.06"/><path d="M214,147.4a2.7,2.7,0,0,1-2.1-.9,3.1,3.1,0,0,1-.8-2.2,2.9,2.9,0,0,1,.9-2.3,2.7,2.7,0,0,1,2.2-.9,2.9,2.9,0,0,1,2.1.8,3.3,3.3,0,0,1,.7,2.3,3,3,0,0,1-.8,2.3A2.7,2.7,0,0,1,214,147.4Zm.1-5.5a2,2,0,0,0-1.5.6,3.2,3.2,0,0,0-.5,1.8,2.5,2.5,0,0,0,.6,1.7,1.9,1.9,0,0,0,2.8,0,2.3,2.3,0,0,0,.5-1.7,2.4,2.4,0,0,0-.5-1.8A1.7,1.7,0,0,0,214.1,141.9Z" fill="#1e1e1e" stroke="#1e1e1e" stroke-miterlimit="10" stroke-width="0.06"/><path d="M223.5,147.2h-1.4l-2.6-2.8h0v2.8h-1v-8.8h1V144h0l2.5-2.8h1.3l-2.8,2.9Z" fill="#1e1e1e" stroke="#1e1e1e" stroke-miterlimit="10" stroke-width="0.06"/><path d="M229.2,144.5H225a2.1,2.1,0,0,0,.5,1.5,1.8,1.8,0,0,0,1.4.6,2.8,2.8,0,0,0,1.9-.7v.9a3.3,3.3,0,0,1-2.1.6,2.8,2.8,0,0,1-2-.8,3.3,3.3,0,0,1-.7-2.3,3,3,0,0,1,.8-2.3,2.5,2.5,0,0,1,1.9-.9,2.6,2.6,0,0,1,1.9.8,3.3,3.3,0,0,1,.6,2.1Zm-1-.8a1.7,1.7,0,0,0-.4-1.3,1.3,1.3,0,0,0-1.1-.5,1.6,1.6,0,0,0-1.1.5,2.3,2.3,0,0,0-.6,1.3Z" fill="#1e1e1e" stroke="#1e1e1e" stroke-miterlimit="10" stroke-width="0.06"/><path d="M235.6,147.2h-1v-3.4c0-1.3-.5-1.9-1.4-1.9a1.4,1.4,0,0,0-1.2.6,1.8,1.8,0,0,0-.4,1.3v3.4h-1v-6h1v1h0a2.1,2.1,0,0,1,1.9-1.1,2.1,2.1,0,0,1,1.6.6,3.6,3.6,0,0,1,.5,1.9Z" fill="#1e1e1e" stroke="#1e1e1e" stroke-miterlimit="10" stroke-width="0.06"/><path d="M245.6,147.2h-.9v-1h0a2.4,2.4,0,0,1-2.1,1.2,2.2,2.2,0,0,1-1.8-.8,3.2,3.2,0,0,1-.7-2.2,3.6,3.6,0,0,1,.8-2.4,2.4,2.4,0,0,1,2-.9,1.9,1.9,0,0,1,1.8,1h0v-3.7h.9Zm-.9-2.7v-.9a2.1,2.1,0,0,0-.5-1.2,1.7,1.7,0,0,0-1.2-.5,1.5,1.5,0,0,0-1.4.7,3.1,3.1,0,0,0,0,3.4,1.5,1.5,0,0,0,1.3.6,1.6,1.6,0,0,0,1.3-.6A2.5,2.5,0,0,0,244.7,144.5Z" fill="#1e1e1e" stroke="#1e1e1e" stroke-miterlimit="10" stroke-width="0.06"/><path d="M252.3,144.5h-4.2a2.1,2.1,0,0,0,.5,1.5,2,2,0,0,0,1.5.6,2.6,2.6,0,0,0,1.8-.7v.9a3.3,3.3,0,0,1-2.1.6,2.8,2.8,0,0,1-2-.8,3.9,3.9,0,0,1-.7-2.3,3.4,3.4,0,0,1,.8-2.3,2.5,2.5,0,0,1,2-.9,2.2,2.2,0,0,1,1.8.8,3.3,3.3,0,0,1,.6,2.1Zm-.9-.8a2.2,2.2,0,0,0-.4-1.3,1.6,1.6,0,0,0-1.1-.5,1.7,1.7,0,0,0-1.2.5,2.3,2.3,0,0,0-.6,1.3Z" fill="#1e1e1e" stroke="#1e1e1e" stroke-miterlimit="10" stroke-width="0.06"/><path d="M261.2,147.2h-.9v-.9h-.1a2.1,2.1,0,0,1-3.2.6,1.7,1.7,0,0,1-.5-1.3c0-1.1.7-1.7,2-1.9l1.8-.3c0-1-.4-1.5-1.3-1.5a3.4,3.4,0,0,0-1.9.7v-.9a3.4,3.4,0,0,1,2-.6c1.4,0,2.1.7,2.1,2.2Zm-.9-3-1.5.2-1,.3a1.2,1.2,0,0,0-.3.9.9.9,0,0,0,.3.7,1.1,1.1,0,0,0,.8.3,1.7,1.7,0,0,0,1.2-.5,2.1,2.1,0,0,0,.5-1.3Z" fill="#1e1e1e" stroke="#1e1e1e" stroke-miterlimit="10" stroke-width="0.06"/><path d="M267.1,147a4.3,4.3,0,0,1-1.7.4,2.9,2.9,0,0,1-2.1-.9,2.8,2.8,0,0,1-.7-2.1,3.2,3.2,0,0,1,.8-2.4,3,3,0,0,1,2.3-.9,3.2,3.2,0,0,1,1.4.3v1a2.7,2.7,0,0,0-1.5-.5,1.8,1.8,0,0,0-1.5.7,2.7,2.7,0,0,0,0,3.4,2,2,0,0,0,1.5.6,3,3,0,0,0,1.5-.5Z" fill="#1e1e1e" stroke="#1e1e1e" stroke-miterlimit="10" stroke-width="0.06"/><path d="M273.3,144.5H269a1.8,1.8,0,0,0,.6,1.5,1.7,1.7,0,0,0,1.4.6,2.4,2.4,0,0,0,1.8-.7v.9a3.2,3.2,0,0,1-2,.6,2.5,2.5,0,0,1-2-.8,3.7,3.7,0,0,1,0-4.6,2.7,2.7,0,0,1,2-.9,2.2,2.2,0,0,1,1.8.8,3.3,3.3,0,0,1,.7,2.1Zm-1-.8a2.2,2.2,0,0,0-.4-1.3,1.6,1.6,0,0,0-1.1-.5,1.7,1.7,0,0,0-1.2.5,2.3,2.3,0,0,0-.6,1.3Z" fill="#1e1e1e" stroke="#1e1e1e" stroke-miterlimit="10" stroke-width="0.06"/><path d="M274.3,147v-1a2.7,2.7,0,0,0,1.7.6c.9,0,1.3-.3,1.3-.9v-.4l-.3-.3-.5-.2-.5-.2-.7-.3-.5-.4-.3-.5c-.1-.1-.1-.3-.1-.6a1.9,1.9,0,0,1,.2-.7l.5-.6.7-.3h.9a3.2,3.2,0,0,1,1.4.3v.9a4.2,4.2,0,0,0-1.5-.4h-.9l-.2.3c-.1.1-.1.2-.1.4a.4.4,0,0,0,.1.3c0,.2.1.2.2.3l.4.3.5.2.8.3.5.3c.1.2.3.3.3.5a1.4,1.4,0,0,1,.2.6,1.9,1.9,0,0,1-.2.8,3.4,3.4,0,0,1-.6.6l-.7.3h-.9A2.7,2.7,0,0,1,274.3,147Z" fill="#1e1e1e" stroke="#1e1e1e" stroke-miterlimit="10" stroke-width="0.06"/><path d="M279.3,147v-1a2.7,2.7,0,0,0,1.7.6c.9,0,1.3-.3,1.3-.9a.6.6,0,0,0-.1-.4l-.3-.3-.4-.2-.6-.2-.7-.3-.5-.4-.3-.5c-.1-.1-.1-.3-.1-.6a1.9,1.9,0,0,1,.2-.7l.5-.6.8-.3h.8a3.2,3.2,0,0,1,1.4.3v.9a3.3,3.3,0,0,0-1.5-.4h-.9l-.2.3c-.1.1-.1.2-.1.4a.4.4,0,0,0,.1.3c0,.2.1.2.2.3l.4.3.6.2.7.3.5.3.4.5c0,.2.1.4.1.6a1.9,1.9,0,0,1-.2.8l-.5.6-.8.3h-.9A2.9,2.9,0,0,1,279.3,147Z" fill="#1e1e1e" stroke="#1e1e1e" stroke-miterlimit="10" stroke-width="0.06"/><path d="M287.2,147.4a2.6,2.6,0,0,1-2.1-.9,2.7,2.7,0,0,1-.8-2.2,3.2,3.2,0,0,1,.8-2.3,2.9,2.9,0,0,1,2.2-.9,2.9,2.9,0,0,1,2.1.8,3.7,3.7,0,0,1,0,4.6A2.9,2.9,0,0,1,287.2,147.4Zm.1-5.5a1.9,1.9,0,0,0-1.5.6,2.6,2.6,0,0,0-.5,1.8,2.5,2.5,0,0,0,.5,1.7,2,2,0,0,0,1.5.6,1.7,1.7,0,0,0,1.4-.6,2.9,2.9,0,0,0,.5-1.7,3,3,0,0,0-.5-1.8A1.7,1.7,0,0,0,287.3,141.9Z" fill="#1e1e1e" stroke="#1e1e1e" stroke-miterlimit="10" stroke-width="0.06"/><path d="M395,54.3v2.9h-1.9V48.8H396c2.2,0,3.2.9,3.2,2.7a2.5,2.5,0,0,1-.9,2,3.2,3.2,0,0,1-2.4.8Zm0-4v2.6h.7c1,0,1.5-.5,1.5-1.3s-.5-1.3-1.5-1.3Z" fill="#fff" stroke="#fff" stroke-miterlimit="10" stroke-width="0.05"/><path d="M402.1,57.2h-1.8V48.3h1.8Z" fill="#fff" stroke="#fff" stroke-miterlimit="10" stroke-width="0.05"/><path d="M408.7,57.2h-1.8v-.8h0a2.1,2.1,0,0,1-1.8,1,1.7,1.7,0,0,1-1.9-1.9c0-1.1.7-1.8,2.1-2l1.6-.2a.9.9,0,0,0-1-1,3.5,3.5,0,0,0-2.1.7V51.6l1.1-.4h1.2c1.7,0,2.6.8,2.6,2.5Zm-1.8-2.4v-.4h-1.1c-.6.1-.9.4-.9.8a.5.5,0,0,0,.3.5c.1.2.3.2.6.2a1.1,1.1,0,0,0,.8-.3A1.6,1.6,0,0,0,406.9,54.8Z" fill="#fff" stroke="#fff" stroke-miterlimit="10" stroke-width="0.05"/><path d="M413.8,57.1a2.3,2.3,0,0,1-1.3.3c-1.3,0-1.9-.7-1.9-2.1V52.6h-1V51.2h1V49.9l1.8-.5v1.8h1.4v1.4h-1.4V55c0,.6.3.9.8.9h.6Z" fill="#fff" stroke="#fff" stroke-miterlimit="10" stroke-width="0.05"/><path d="M419.8,57.2H418v-.8h0a2.1,2.1,0,0,1-1.8,1,1.9,1.9,0,0,1-1.3-.5,1.7,1.7,0,0,1-.5-1.4c0-1.1.7-1.8,2-2l1.7-.2a1,1,0,0,0-1.1-1,3.1,3.1,0,0,0-2,.7V51.6a2.3,2.3,0,0,1,1-.4h1.2c1.7,0,2.6.8,2.6,2.5Zm-1.7-2.4v-.4H417c-.6.1-.9.4-.9.8s0,.4.2.5.3.2.6.2a1.1,1.1,0,0,0,.8-.3A1.2,1.2,0,0,0,418.1,54.8Z" fill="#fff" stroke="#fff" stroke-miterlimit="10" stroke-width="0.05"/><path d="M425.2,49.7h-.7c-.6,0-.9.3-.9,1v.6H425v1.4h-1.4v4.6h-1.8V52.6h-1.1V51.2h1.1v-.7a2.4,2.4,0,0,1,.6-1.7,2.8,2.8,0,0,1,1.8-.6h1Z" fill="#fff" stroke="#fff" stroke-miterlimit="10" stroke-width="0.05"/><path d="M428.7,57.4a3.1,3.1,0,0,1-3.2-3.2,3,3,0,0,1,.9-2.3,3.2,3.2,0,0,1,2.4-.8,2.8,2.8,0,0,1,2.3.8,2.9,2.9,0,0,1,.9,2.2,3.1,3.1,0,0,1-3.3,3.3Zm.1-4.9a1.1,1.1,0,0,0-1,.4,1.8,1.8,0,0,0-.4,1.3c0,1.2.5,1.7,1.4,1.7s1.3-.6,1.3-1.7S429.7,52.5,428.8,52.5Z" fill="#fff" stroke="#fff" stroke-miterlimit="10" stroke-width="0.05"/><path d="M437.1,52.9l-.8-.2a1,1,0,0,0-.9.4,2.1,2.1,0,0,0-.3,1.2v2.9h-1.9v-6h1.9v1.1h0a1.6,1.6,0,0,1,1.6-1.2h.4Z" fill="#fff" stroke="#fff" stroke-miterlimit="10" stroke-width="0.05"/><path d="M447.5,57.2h-1.8V53.8c0-.9-.3-1.3-1-1.3a.8.8,0,0,0-.7.4,1.5,1.5,0,0,0-.3,1v3.3h-1.9V53.8c0-.9-.3-1.3-.9-1.3a.9.9,0,0,0-.8.4,2.2,2.2,0,0,0-.2,1v3.3H438v-6h1.9v1h0a1.6,1.6,0,0,1,.8-.8,2,2,0,0,1,1.1-.3,1.7,1.7,0,0,1,1.8,1.1,2,2,0,0,1,2-1.1c1.3,0,1.9.8,1.9,2.4Z" fill="#fff" stroke="#fff" stroke-miterlimit="10" stroke-width="0.05"/><path d="M454,57.2h-1.8v-.8h0a2.1,2.1,0,0,1-1.8,1,1.9,1.9,0,0,1-1.3-.5,1.7,1.7,0,0,1-.5-1.4c0-1.1.6-1.8,2-2l1.7-.2a1,1,0,0,0-1.1-1,3.5,3.5,0,0,0-2.1.7V51.6l1.1-.4h1.2c1.7,0,2.6.8,2.6,2.5Zm-1.7-2.4v-.4h-1.1c-.6.1-.9.4-.9.8s0,.4.2.5.3.2.6.2a1.1,1.1,0,0,0,.8-.3A1.8,1.8,0,0,0,452.3,54.8Z" fill="#fff" stroke="#fff" stroke-miterlimit="10" stroke-width="0.05"/><path d="M391.2,71.6h-1.9v-.8h0a2.1,2.1,0,0,1-1.8,1,2.2,2.2,0,0,1-1.8-.8,3.3,3.3,0,0,1-.7-2.3,3.5,3.5,0,0,1,.7-2.3,2.5,2.5,0,0,1,2-.9,1.5,1.5,0,0,1,1.6.8h0V62.7h1.9Zm-1.8-2.9v-.5a1.1,1.1,0,0,0-.4-.9.9.9,0,0,0-.8-.4c-.5,0-.8.1-1,.5a2.2,2.2,0,0,0-.4,1.3,2.1,2.1,0,0,0,.4,1.2,1.2,1.2,0,0,0,1.8,0A1.6,1.6,0,0,0,389.4,68.7Z" fill="#fff" stroke="#fff" stroke-miterlimit="10" stroke-width="0.05"/><path d="M398.1,69.1h-3.9c.1.9.6,1.3,1.7,1.3a3.3,3.3,0,0,0,1.7-.4v1.3a4.3,4.3,0,0,1-2.1.5,3.2,3.2,0,0,1-2.3-.8,3.4,3.4,0,0,1-.8-2.3,3.2,3.2,0,0,1,.9-2.4,3,3,0,0,1,2.1-.8,2.6,2.6,0,0,1,2,.7,3.2,3.2,0,0,1,.7,2.2ZM396.4,68c0-.9-.3-1.3-1-1.3a.9.9,0,0,0-.8.4,1.9,1.9,0,0,0-.4.9Z" fill="#fff" stroke="#fff" stroke-miterlimit="10" stroke-width="0.05"/><path d="M403.5,64.7a1.1,1.1,0,0,1-.8-.3,1,1,0,0,1,0-1.4,1.7,1.7,0,0,1,1.6,0,1,1,0,0,1,0,1.4A1.1,1.1,0,0,1,403.5,64.7Zm.9,6.9h-1.8v-6h1.8Z" fill="#fff" stroke="#fff" stroke-miterlimit="10" stroke-width="0.05"/><path d="M411.8,71.6H410v-.8h0a2.4,2.4,0,0,1-1.9,1,2.5,2.5,0,0,1-1.8-.8,3.3,3.3,0,0,1-.7-2.3,3.6,3.6,0,0,1,.8-2.3,2.3,2.3,0,0,1,1.9-.9,1.7,1.7,0,0,1,1.7.8h0V62.7h1.8ZM410,68.7v-.5a1.4,1.4,0,0,0-.3-.9,1,1,0,0,0-.9-.4,1.1,1.1,0,0,0-1,.5,2.3,2.3,0,0,0-.3,1.3,2.1,2.1,0,0,0,.3,1.2,1.1,1.1,0,0,0,.9.4,1.3,1.3,0,0,0,1-.4A2.1,2.1,0,0,0,410,68.7Z" fill="#fff" stroke="#fff" stroke-miterlimit="10" stroke-width="0.05"/><path d="M418.8,69.1h-3.9c0,.9.6,1.3,1.6,1.3a3.4,3.4,0,0,0,1.8-.4v1.3a4.8,4.8,0,0,1-2.2.5,2.8,2.8,0,0,1-3.1-3.1,2.9,2.9,0,0,1,3-3.2,2.8,2.8,0,0,1,2.1.7,3.8,3.8,0,0,1,.7,2.2ZM417.1,68c0-.9-.4-1.3-1.1-1.3a.8.8,0,0,0-.7.4,1,1,0,0,0-.4.9Z" fill="#fff" stroke="#fff" stroke-miterlimit="10" stroke-width="0.05"/><path d="M425.7,71.6h-1.9V68.3c0-1-.3-1.4-1-1.4a1,1,0,0,0-.8.4,1.2,1.2,0,0,0-.3.9v3.4h-1.8v-6h1.8v1h.1a1.9,1.9,0,0,1,1.9-1.1c1.3,0,2,.8,2,2.4Z" fill="#fff" stroke="#fff" stroke-miterlimit="10" stroke-width="0.05"/><path d="M430.8,71.5a2.3,2.3,0,0,1-1.3.3c-1.3,0-1.9-.7-1.9-2.1V67h-1V65.6h1V64.3l1.8-.5v1.8h1.4V67h-1.4v2.4c0,.6.3.9.8.9h.6Z" fill="#fff" stroke="#fff" stroke-miterlimit="10" stroke-width="0.05"/><path d="M432.8,64.7a1,1,0,0,1-.8-.3,1,1,0,0,1,0-1.4c.2-.2.4-.2.8-.2a.8.8,0,0,1,.7.2,1,1,0,0,1-.7,1.7Zm.9,6.9h-1.9v-6h1.9Z" fill="#fff" stroke="#fff" stroke-miterlimit="10" stroke-width="0.05"/><path d="M441.1,71.6h-1.9v-.8h0a2.1,2.1,0,0,1-1.8,1,2.2,2.2,0,0,1-1.8-.8,3.3,3.3,0,0,1-.7-2.3,3.5,3.5,0,0,1,.7-2.3,2.5,2.5,0,0,1,2-.9,1.5,1.5,0,0,1,1.6.8h0V62.7h1.9Zm-1.8-2.9v-.5a1.1,1.1,0,0,0-.4-.9.9.9,0,0,0-.8-.4c-.5,0-.8.1-1,.5a2.3,2.3,0,0,0-.3,1.3,2.1,2.1,0,0,0,.3,1.2,1.2,1.2,0,0,0,1.8,0A1.6,1.6,0,0,0,439.3,68.7Z" fill="#fff" stroke="#fff" stroke-miterlimit="10" stroke-width="0.05"/><path d="M447.6,71.6h-1.7v-.8h0a2.1,2.1,0,0,1-1.8,1,2,2,0,0,1-1.4-.5,2.2,2.2,0,0,1-.5-1.4c0-1.1.7-1.8,2.1-2l1.6-.2c0-.6-.3-1-1.1-1a3.1,3.1,0,0,0-2,.7V66l1.1-.4h1.2a2.2,2.2,0,0,1,2.5,2.5Zm-1.7-2.4v-.4h-1.1c-.6.1-.9.4-.9.8a.8.8,0,0,0,.2.5.7.7,0,0,0,.6.2,1.2,1.2,0,0,0,.9-.3A1.6,1.6,0,0,0,445.9,69.2Z" fill="#fff" stroke="#fff" stroke-miterlimit="10" stroke-width="0.05"/><path d="M455,71.6h-1.9v-.8h0a2.1,2.1,0,0,1-1.8,1,2.6,2.6,0,0,1-1.9-.8,3.9,3.9,0,0,1-.6-2.3,3.5,3.5,0,0,1,.7-2.3,2.5,2.5,0,0,1,2-.9,1.5,1.5,0,0,1,1.6.8h0V62.7H455Zm-1.8-2.9v-.5a1.1,1.1,0,0,0-.4-.9,1,1,0,0,0-.9-.4.9.9,0,0,0-.9.5,2.2,2.2,0,0,0-.4,1.3,1.6,1.6,0,0,0,.4,1.2,1.2,1.2,0,0,0,1.8,0A1.6,1.6,0,0,0,453.2,68.7Z" fill="#fff" stroke="#fff" stroke-miterlimit="10" stroke-width="0.05"/><path d="M461.9,69.1H458c.1.9.6,1.3,1.7,1.3a3.3,3.3,0,0,0,1.7-.4v1.3a4.5,4.5,0,0,1-2.2.5A3.1,3.1,0,0,1,457,71a3.4,3.4,0,0,1-.8-2.3,3.2,3.2,0,0,1,.9-2.4,2.9,2.9,0,0,1,2.1-.8,2.6,2.6,0,0,1,2,.7,3.2,3.2,0,0,1,.7,2.2ZM460.2,68c0-.9-.3-1.3-1-1.3a.9.9,0,0,0-.8.4,1.9,1.9,0,0,0-.4.9Z" fill="#fff" stroke="#fff" stroke-miterlimit="10" stroke-width="0.05"/><path d="M394.1,86h-1.8v-.8h0a2.4,2.4,0,0,1-1.9,1,2.2,2.2,0,0,1-1.8-.8,3.3,3.3,0,0,1-.7-2.3,3.6,3.6,0,0,1,.8-2.3,2.3,2.3,0,0,1,1.9-.9,1.8,1.8,0,0,1,1.7.8h0V77.1h1.8Zm-1.8-2.9v-.5a1.4,1.4,0,0,0-.3-.9,1.2,1.2,0,0,0-.9-.4,1.1,1.1,0,0,0-1,.5,2.3,2.3,0,0,0-.3,1.3,2.1,2.1,0,0,0,.3,1.2,1,1,0,0,0,.9.4,1.3,1.3,0,0,0,1-.4A2.1,2.1,0,0,0,392.3,83.1Z" fill="#fff" stroke="#fff" stroke-miterlimit="10" stroke-width="0.05"/><path d="M400.7,86h-1.8v-.8h0a2.1,2.1,0,0,1-1.8,1,1.7,1.7,0,0,1-1.9-1.9c0-1.1.7-1.8,2.1-2l1.6-.2a.9.9,0,0,0-1-1,3.5,3.5,0,0,0-2.1.7V80.4l1.1-.4h1.2c1.7,0,2.6.8,2.6,2.5Zm-1.8-2.4v-.4h-1.1c-.6.1-.9.4-.9.8a.5.5,0,0,0,.3.5c.1.2.3.2.6.2a1.1,1.1,0,0,0,.8-.3A1.6,1.6,0,0,0,398.9,83.6Z" fill="#fff" stroke="#fff" stroke-miterlimit="10" stroke-width="0.05"/><path d="M415.2,86h-1.9V81c0-.6.1-1.2.1-1.8h0a5.3,5.3,0,0,1-.3,1.1l-2,5.7h-1.5l-2-5.6a5,5,0,0,1-.3-1.2h0V86h-1.7V77.6h2.8l1.7,5a2.7,2.7,0,0,1,.3,1.2h.1a10.4,10.4,0,0,1,.3-1.2l1.7-5h2.7Z" fill="#fff" stroke="#fff" stroke-miterlimit="10" stroke-width="0.05"/><path d="M417.9,79.1a1.1,1.1,0,0,1-.8-.3,1,1,0,0,1,0-1.4,1.1,1.1,0,0,1,.8-.2.8.8,0,0,1,.7.2,1,1,0,0,1-.7,1.7Zm.9,6.9h-1.9V80h1.9Z" fill="#fff" stroke="#fff" stroke-miterlimit="10" stroke-width="0.05"/><path d="M424.9,85.8a4,4,0,0,1-1.8.4,3.2,3.2,0,0,1-2.3-.9,3,3,0,0,1-.8-2.1,3.3,3.3,0,0,1,.9-2.5,3.7,3.7,0,0,1,2.5-.8l1.5.2v1.6a2,2,0,0,0-1.3-.4,1.5,1.5,0,0,0-1.3.5,1.6,1.6,0,0,0-.4,1.2,1.7,1.7,0,0,0,.4,1.3,1.6,1.6,0,0,0,1.2.4,2.3,2.3,0,0,0,1.4-.4Z" fill="#fff" stroke="#fff" stroke-miterlimit="10" stroke-width="0.05"/><path d="M430,81.7l-.8-.2a1,1,0,0,0-.9.4,2.1,2.1,0,0,0-.3,1.2V86h-1.9V80H428v1.1h0a1.6,1.6,0,0,1,1.6-1.2h.4Z" fill="#fff" stroke="#fff" stroke-miterlimit="10" stroke-width="0.05"/><path d="M433.7,86.2a3.2,3.2,0,0,1-2.4-.9,3.2,3.2,0,0,1-.8-2.3,3,3,0,0,1,.9-2.3,3.2,3.2,0,0,1,2.4-.8,2.8,2.8,0,0,1,2.3.8,2.9,2.9,0,0,1,.9,2.2,3.1,3.1,0,0,1-3.3,3.3Zm0-4.9a1.3,1.3,0,0,0-1,.4,2.5,2.5,0,0,0-.3,1.3c0,1.2.4,1.7,1.4,1.7s1.3-.6,1.3-1.7S434.6,81.3,433.7,81.3Z" fill="#fff" stroke="#fff" stroke-miterlimit="10" stroke-width="0.05"/><path d="M437.8,85.9V84.4l.9.4h1.6a.5.5,0,0,0,.3-.4c0-.2,0-.3-.1-.3l-.4-.2-.4-.2-.5-.2-.6-.2-.4-.4a.5.5,0,0,1-.3-.5,1.3,1.3,0,0,1-.1-.6,2.4,2.4,0,0,1,.2-.9l.6-.6a1.9,1.9,0,0,1,.8-.3h1.8l.8.2v1.4l-.7-.3h-1.4c-.1,0-.2,0-.2.1v.2a.4.4,0,0,0,.1.3l.3.2.3.2h.5l.6.3.5.3.4.5c0,.2.1.4.1.7a2.9,2.9,0,0,1-.2.9l-.7.6a2,2,0,0,1-.8.4h-1.1A5.2,5.2,0,0,1,437.8,85.9Z" fill="#fff" stroke="#fff" stroke-miterlimit="10" stroke-width="0.05"/><path d="M446.3,86.2a3.1,3.1,0,0,1-3.2-3.2,3,3,0,0,1,.9-2.3,3.2,3.2,0,0,1,2.4-.8,2.8,2.8,0,0,1,2.3.8,2.9,2.9,0,0,1,.9,2.2,3.1,3.1,0,0,1-3.3,3.3Zm.1-4.9a1.4,1.4,0,0,0-1.1.4A2.5,2.5,0,0,0,445,83c0,1.2.4,1.7,1.4,1.7s1.3-.6,1.3-1.7S447.3,81.3,446.4,81.3Z" fill="#fff" stroke="#fff" stroke-miterlimit="10" stroke-width="0.05"/><path d="M454.5,78.5h-.7c-.6,0-.9.3-.9,1V80h1.4v1.4h-1.4V86h-1.8V81.4h-1V80h1v-.7a2.1,2.1,0,0,1,.7-1.7,2.4,2.4,0,0,1,1.8-.6h.9Z" fill="#fff" stroke="#fff" stroke-miterlimit="10" stroke-width="0.05"/><path d="M459.1,85.9a2.3,2.3,0,0,1-1.3.3c-1.3,0-1.9-.7-1.9-2.1V81.4h-1V80h1V78.7l1.8-.5V80h1.4v1.4h-1.4v2.4c0,.6.3.9.8.9h.6Z" fill="#fff" stroke="#fff" stroke-miterlimit="10" stroke-width="0.05"/><path d="M412.9,153.2h-2.1l-.6-1.8h-2.9l-.6,1.8h-2.1l3.1-8.4h2.2Zm-3.1-3.3-.9-2.8a1.9,1.9,0,0,1-.1-.8h-.1a2.2,2.2,0,0,1-.1.8l-.9,2.8Z" fill="#0072c6" stroke="#0072c6" stroke-miterlimit="10" stroke-width="0.05"/><path d="M415.8,150.3v2.9H414v-8.4h2.9c2.1,0,3.2.9,3.2,2.7a2.7,2.7,0,0,1-.9,2.1,3.6,3.6,0,0,1-2.4.7Zm0-4v2.6h.8c1,0,1.5-.4,1.5-1.3s-.5-1.3-1.5-1.3Z" fill="#0072c6" stroke="#0072c6" stroke-miterlimit="10" stroke-width="0.05"/><path d="M423.2,153.2h-1.9v-8.4h1.9Z" fill="#0072c6" stroke="#0072c6" stroke-miterlimit="10" stroke-width="0.05"/><path d="M434.1,153.2h-1.8v-.8h0a2.2,2.2,0,0,1-1.9,1,2.2,2.2,0,0,1-1.8-.8,3.1,3.1,0,0,1-.7-2.2,3.6,3.6,0,0,1,.8-2.4,2.3,2.3,0,0,1,1.9-.9,2,2,0,0,1,1.7.8h0v-3.6h1.8Zm-1.8-2.9v-.4a1.5,1.5,0,0,0-.3-1,1.1,1.1,0,0,0-.9-.4,1.4,1.4,0,0,0-1,.5,2.5,2.5,0,0,0-.3,1.3,2.1,2.1,0,0,0,.3,1.2,1.1,1.1,0,0,0,.9.5,1.4,1.4,0,0,0,1-.5A2.1,2.1,0,0,0,432.3,150.3Z" fill="#0072c6" stroke="#0072c6" stroke-miterlimit="10" stroke-width="0.05"/><path d="M438.5,153.4a3,3,0,0,1-2.3-.9,2.8,2.8,0,0,1-.9-2.2,3.2,3.2,0,0,1,.9-2.4,4,4,0,0,1,4.8,0,3.4,3.4,0,0,1,.8,2.3,3.2,3.2,0,0,1-.9,2.3A3,3,0,0,1,438.5,153.4Zm.1-4.9a1.2,1.2,0,0,0-1,.5,1.6,1.6,0,0,0-.4,1.2c0,1.2.5,1.8,1.4,1.8s1.3-.6,1.3-1.8S439.5,148.5,438.6,148.5Z" fill="#0072c6" stroke="#0072c6" stroke-miterlimit="10" stroke-width="0.05"/><path d="M406.6,167.6h-1.9v-5c0-.5.1-1.1.1-1.8h0a5.3,5.3,0,0,1-.3,1.1l-2,5.7H401l-2-5.6a5,5,0,0,1-.3-1.2h0v6.8H397v-8.4h2.8l1.7,5a2.7,2.7,0,0,1,.3,1.2h.1l.3-1.2,1.7-5h2.7Z" fill="#0072c6" stroke="#0072c6" stroke-miterlimit="10" stroke-width="0.05"/><path d="M409.3,160.7a1.1,1.1,0,0,1-.8-.3,1,1,0,0,1,0-1.4l.8-.2.7.2a1,1,0,0,1-.7,1.7Zm.9,6.9h-1.9v-6h1.9Z" fill="#0072c6" stroke="#0072c6" stroke-miterlimit="10" stroke-width="0.05"/><path d="M416.3,167.4a3,3,0,0,1-1.8.4,3.2,3.2,0,0,1-2.3-.9,2.9,2.9,0,0,1-.8-2.1,3.2,3.2,0,0,1,.9-2.4,3.3,3.3,0,0,1,2.5-.9,2.8,2.8,0,0,1,1.5.3v1.5a2,2,0,0,0-1.3-.4,1.9,1.9,0,0,0-1.3.5,1.7,1.7,0,0,0-.4,1.3,1.6,1.6,0,0,0,.4,1.2,1.7,1.7,0,0,0,1.2.5,2.4,2.4,0,0,0,1.4-.5Z" fill="#0072c6" stroke="#0072c6" stroke-miterlimit="10" stroke-width="0.05"/><path d="M421.4,163.3l-.8-.2a1.1,1.1,0,0,0-.9.5,2.1,2.1,0,0,0-.3,1.2v2.8h-1.9v-6h1.9v1.1h0a1.6,1.6,0,0,1,1.6-1.2h.4Z" fill="#0072c6" stroke="#0072c6" stroke-miterlimit="10" stroke-width="0.05"/><path d="M425.1,167.8a3.2,3.2,0,0,1-2.4-.9,3.1,3.1,0,0,1-.8-2.2,3.2,3.2,0,0,1,.9-2.4,3.6,3.6,0,0,1,2.4-.8,3.2,3.2,0,0,1,2.3.8,3,3,0,0,1,.9,2.3,3.2,3.2,0,0,1-.9,2.3A3.2,3.2,0,0,1,425.1,167.8Zm0-4.9a1.4,1.4,0,0,0-1,.5,2.1,2.1,0,0,0-.3,1.2c0,1.2.4,1.8,1.4,1.8s1.3-.6,1.3-1.8S426,162.9,425.1,162.9Z" fill="#0072c6" stroke="#0072c6" stroke-miterlimit="10" stroke-width="0.05"/><path d="M429.2,167.5V166l.9.4h1.6c.2-.1.3-.2.3-.4a.4.4,0,0,0-.1-.3l-.3-.2-.5-.2h-.5l-.6-.3c-.2-.1-.3-.3-.4-.4a.5.5,0,0,1-.3-.5c-.1-.1-.1-.4-.1-.6a2.9,2.9,0,0,1,.2-.9l.6-.6.8-.3h1.8l.8.2v1.5l-.7-.4h-1.6a.4.4,0,0,0-.1.3c0,.1,0,.2.1.2l.3.2.4.2h.4l.6.3a1,1,0,0,1,.5.4l.4.4c0,.2.1.4.1.7a2,2,0,0,1-.2.9,1.3,1.3,0,0,1-.7.6l-.8.4H431A5.2,5.2,0,0,1,429.2,167.5Z" fill="#0072c6" stroke="#0072c6" stroke-miterlimit="10" stroke-width="0.05"/><path d="M437.7,167.8a2.9,2.9,0,0,1-2.3-.9,2.8,2.8,0,0,1-.9-2.2,3.2,3.2,0,0,1,.9-2.4,3.6,3.6,0,0,1,2.4-.8,3.2,3.2,0,0,1,2.3.8,3,3,0,0,1,.9,2.3,3.2,3.2,0,0,1-.9,2.3A3.2,3.2,0,0,1,437.7,167.8Zm.1-4.9a1.4,1.4,0,0,0-1.1.5,2.1,2.1,0,0,0-.3,1.2c0,1.2.4,1.8,1.4,1.8s1.3-.6,1.3-1.8S438.7,162.9,437.8,162.9Z" fill="#0072c6" stroke="#0072c6" stroke-miterlimit="10" stroke-width="0.05"/><path d="M445.9,160.2l-.7-.2c-.6,0-.9.3-.9,1v.6h1.4V163h-1.4v4.6h-1.8V163h-1v-1.4h1v-.7a2.2,2.2,0,0,1,.7-1.7,2.4,2.4,0,0,1,1.8-.6h.9Z" fill="#0072c6" stroke="#0072c6" stroke-miterlimit="10" stroke-width="0.05"/><path d="M450.5,167.6l-1.3.2c-1.3,0-1.9-.7-1.9-2.1V163h-1v-1.4h1v-1.3l1.8-.5v1.8h1.4V163h-1.4v2.4c0,.6.3,1,.8,1l.6-.2Z" fill="#0072c6" stroke="#0072c6" stroke-miterlimit="10" stroke-width="0.05"/><path d="M414,181.5a6.6,6.6,0,0,1-3,.7,4.6,4.6,0,0,1-3.2-1.1,4.1,4.1,0,0,1-1.2-3.1,4.3,4.3,0,0,1,1.3-3.3,4.7,4.7,0,0,1,3.4-1.2,6.1,6.1,0,0,1,2.4.4v1.7a6,6,0,0,0-2.4-.5,2.4,2.4,0,0,0-1.9.7,2.9,2.9,0,0,0-.8,2.1,2.7,2.7,0,0,0,.7,2,2.1,2.1,0,0,0,1.8.7l1.1-.2v-1.6h-1.7v-1.6H414Z" fill="#0072c6" stroke="#0072c6" stroke-miterlimit="10" stroke-width="0.05"/><path d="M419.4,177.7l-.8-.2a1.1,1.1,0,0,0-.9.5,2.1,2.1,0,0,0-.4,1.2V182h-1.8v-6h1.8v1.1h.1a1.6,1.6,0,0,1,1.6-1.2h.4Z" fill="#0072c6" stroke="#0072c6" stroke-miterlimit="10" stroke-width="0.05"/><path d="M425.3,182h-1.8v-.8h0a2.1,2.1,0,0,1-1.8,1,2.2,2.2,0,0,1-1.4-.5,1.9,1.9,0,0,1-.5-1.3q0-1.8,2.1-2.1l1.6-.2a.9.9,0,0,0-1-1,4,4,0,0,0-2.1.7v-1.4l1.1-.4h1.2c1.7,0,2.6.8,2.6,2.5Zm-1.8-2.4v-.4h-1.1c-.6.1-.9.4-.9.8a.7.7,0,0,0,.3.6l.5.2a1.3,1.3,0,0,0,.9-.4A1.2,1.2,0,0,0,423.5,179.6Z" fill="#0072c6" stroke="#0072c6" stroke-miterlimit="10" stroke-width="0.05"/><path d="M428.6,181.3h0v3.5h-1.9V176h1.9v.9h0a2.2,2.2,0,0,1,1.9-1,2.2,2.2,0,0,1,1.8.8,2.9,2.9,0,0,1,.7,2.2,3.6,3.6,0,0,1-.8,2.4,2.3,2.3,0,0,1-1.9.9A1.9,1.9,0,0,1,428.6,181.3Zm0-2.4v.5a1.7,1.7,0,0,0,.3,1,1.2,1.2,0,0,0,.8.4,1.1,1.1,0,0,0,1-.5,2.1,2.1,0,0,0,.4-1.4c0-1.1-.4-1.6-1.3-1.6a1.2,1.2,0,0,0-.9.4A2.1,2.1,0,0,0,428.6,178.9Z" fill="#0072c6" stroke="#0072c6" stroke-miterlimit="10" stroke-width="0.05"/><path d="M439.9,182h-1.8v-3.4c0-.9-.3-1.3-1-1.3a.9.9,0,0,0-.8.4,1.2,1.2,0,0,0-.3.9V182h-1.8v-8.9H436v3.8h0a2.2,2.2,0,0,1,1.9-1c1.4,0,2,.8,2,2.4Z" fill="#0072c6" stroke="#0072c6" stroke-miterlimit="10" stroke-width="0.05"/><path d="M190,10.4h-4.5V2h4.3v.9h-3.3V5.7h3v.9h-3V9.5H190Z" fill="#1e1e1e" stroke="#1e1e1e" stroke-miterlimit="10" stroke-width="0.06"/><path d="M196.4,10.4h-1V7c0-1.3-.5-1.9-1.4-1.9a1.7,1.7,0,0,0-1.2.5,2.2,2.2,0,0,0-.5,1.4v3.4h-.9v-6h.9v1h.1a2,2,0,0,1,1.9-1.1,1.8,1.8,0,0,1,1.5.6,2.4,2.4,0,0,1,.6,1.8Z" fill="#1e1e1e" stroke="#1e1e1e" stroke-miterlimit="10" stroke-width="0.06"/><path d="M200.9,10.4H200c-1.1,0-1.6-.5-1.6-1.7V5.2h-1V4.4h1V2.9l1-.3V4.4h1.5v.8h-1.5V8.6c0,.4,0,.7.2.9l.6.2a.8.8,0,0,0,.7-.2Z" fill="#1e1e1e" stroke="#1e1e1e" stroke-miterlimit="10" stroke-width="0.06"/><path d="M205.2,5.4l-.7-.2a1.4,1.4,0,0,0-1.1.6,3.4,3.4,0,0,0-.4,1.6v3h-.9v-6h.9V5.6h0a2.2,2.2,0,0,1,.7-.9,1.2,1.2,0,0,1,.9-.4h.6Z" fill="#1e1e1e" stroke="#1e1e1e" stroke-miterlimit="10" stroke-width="0.06"/><path d="M210.4,10.4h-.9V9.5h0a2.3,2.3,0,0,1-1.9,1.1,2.2,2.2,0,0,1-1.4-.5,1.9,1.9,0,0,1-.5-1.3c0-1.1.7-1.8,2-1.9l1.8-.3q0-1.5-1.2-1.5a2.9,2.9,0,0,0-2,.7v-1a4.6,4.6,0,0,1,2-.5c1.4,0,2.1.7,2.1,2.2Zm-.9-3-1.5.2a1.7,1.7,0,0,0-1,.3,1,1,0,0,0-.3.8,1.1,1.1,0,0,0,.3.8l.8.2a1.3,1.3,0,0,0,1.2-.5,1.7,1.7,0,0,0,.5-1.2Z" fill="#1e1e1e" stroke="#1e1e1e" stroke-miterlimit="10" stroke-width="0.06"/><path d="M215.3,5.4l-.7-.2a1.4,1.4,0,0,0-1.1.6,3.4,3.4,0,0,0-.4,1.6v3h-.9v-6h.9V5.6h.1a1.5,1.5,0,0,1,.6-.9,1.2,1.2,0,0,1,.9-.4h.6Z" fill="#1e1e1e" stroke="#1e1e1e" stroke-miterlimit="10" stroke-width="0.06"/><path d="M211,30.6h-2.4v7.5h-1V30.6h-2.4v-.9H211Z" fill="#1e1e1e" stroke="#1e1e1e" stroke-miterlimit="10" stroke-width="0.06"/><path d="M213.5,38.3a2.6,2.6,0,0,1-2.1-.9,3.1,3.1,0,0,1-.8-2.2,3.2,3.2,0,0,1,.8-2.3,3.3,3.3,0,0,1,4.4-.1,3.3,3.3,0,0,1,.7,2.3,3.2,3.2,0,0,1-.8,2.3A2.8,2.8,0,0,1,213.5,38.3Zm.1-5.5a2,2,0,0,0-1.5.6,3.2,3.2,0,0,0-.5,1.8,2.9,2.9,0,0,0,.5,1.7,2,2,0,0,0,1.5.6,1.7,1.7,0,0,0,1.4-.6,2.3,2.3,0,0,0,.5-1.7,2.4,2.4,0,0,0-.5-1.8A1.7,1.7,0,0,0,213.6,32.8Z" fill="#1e1e1e" stroke="#1e1e1e" stroke-miterlimit="10" stroke-width="0.06"/><path d="M223,38.1h-1.3L219,35.3h0v2.8h-1V29.3h1v5.6h0l2.5-2.8h1.3L220,35Z" fill="#1e1e1e" stroke="#1e1e1e" stroke-miterlimit="10" stroke-width="0.06"/><path d="M228.8,35.4h-4.2a2.1,2.1,0,0,0,.5,1.5,1.8,1.8,0,0,0,1.4.6,2.8,2.8,0,0,0,1.9-.7v.9a3.3,3.3,0,0,1-2.1.6,2.8,2.8,0,0,1-2-.8,3.3,3.3,0,0,1-.7-2.3,3.4,3.4,0,0,1,.8-2.3,2.5,2.5,0,0,1,2-.9,2.3,2.3,0,0,1,1.8.8,3.3,3.3,0,0,1,.6,2.1Zm-1-.8a1.7,1.7,0,0,0-.4-1.3,1.3,1.3,0,0,0-1.1-.5,1.6,1.6,0,0,0-1.1.5,2.6,2.6,0,0,0-.6,1.3Z" fill="#1e1e1e" stroke="#1e1e1e" stroke-miterlimit="10" stroke-width="0.06"/><path d="M235.3,38.1h-1V34.7c0-1.2-.5-1.9-1.4-1.9a1.4,1.4,0,0,0-1.2.6,1.9,1.9,0,0,0-.5,1.3v3.4h-.9v-6h.9v1h.1a2.1,2.1,0,0,1,1.9-1.1,1.8,1.8,0,0,1,1.5.6,2.9,2.9,0,0,1,.6,1.9Z" fill="#1e1e1e" stroke="#1e1e1e" stroke-miterlimit="10" stroke-width="0.06"/><path d="M245.5,38.1h-1v-1h0a2.2,2.2,0,0,1-2.1,1.2,2.5,2.5,0,0,1-1.8-.8,3.8,3.8,0,0,1-.7-2.2,3.6,3.6,0,0,1,.8-2.4,2.5,2.5,0,0,1,2-.9,1.9,1.9,0,0,1,1.8,1h0V29.3h1Zm-1-2.7v-.8a1.7,1.7,0,0,0-1.7-1.8,1.6,1.6,0,0,0-1.4.7,3.1,3.1,0,0,0,0,3.4,1.7,1.7,0,0,0,2.6,0A2,2,0,0,0,244.5,35.4Z" fill="#1e1e1e" stroke="#1e1e1e" stroke-miterlimit="10" stroke-width="0.06"/><path d="M252.2,35.4H248a2.1,2.1,0,0,0,.5,1.5,2,2,0,0,0,1.5.6,2.6,2.6,0,0,0,1.8-.7v.9a3.3,3.3,0,0,1-2.1.6,2.8,2.8,0,0,1-2-.8,3.9,3.9,0,0,1-.7-2.3,3.4,3.4,0,0,1,.8-2.3,2.5,2.5,0,0,1,2-.9,2.2,2.2,0,0,1,1.8.8,3.3,3.3,0,0,1,.6,2.1Zm-.9-.8a2.2,2.2,0,0,0-.4-1.3,1.6,1.6,0,0,0-1.1-.5,1.7,1.7,0,0,0-1.2.5,2.6,2.6,0,0,0-.6,1.3Z" fill="#1e1e1e" stroke="#1e1e1e" stroke-miterlimit="10" stroke-width="0.06"/><path d="M258.1,38.1h-1V29.7h1Z" fill="#1e1e1e" stroke="#1e1e1e" stroke-miterlimit="10" stroke-width="0.06"/><path d="M260.3,38.1V29.7h2.3c3,0,4.5,1.4,4.5,4.1a4.1,4.1,0,0,1-1.3,3.2,4.4,4.4,0,0,1-3.3,1.1Zm1-7.5v6.7h1.2a3.6,3.6,0,0,0,2.6-.9,3.5,3.5,0,0,0,.9-2.5c0-2.2-1.1-3.3-3.4-3.3Z" fill="#1e1e1e" stroke="#1e1e1e" stroke-miterlimit="10" stroke-width="0.06"/><path d="M192,69.3h-1.1L190,67h-3.5l-.9,2.3h-1.1l3.3-8.4h1Zm-2.3-3.2-1.3-3.6a3.5,3.5,0,0,1-.1-.6h-.1c0,.3,0,.5-.1.6l-1.3,3.6Z" fill="#1e1e1e" stroke="#1e1e1e" stroke-miterlimit="10" stroke-width="0.06"/><path d="M198.2,69.3h-1v-1h0a2.4,2.4,0,0,1-2.1,1.2,2.5,2.5,0,0,1-1.8-.8,3.2,3.2,0,0,1-.7-2.2,3.6,3.6,0,0,1,.8-2.4,2.4,2.4,0,0,1,2-.9,1.9,1.9,0,0,1,1.8,1h0V60.4h1Zm-1-2.7v-.9a1.7,1.7,0,0,0-1.7-1.7,1.7,1.7,0,0,0-1.4.6,3.5,3.5,0,0,0-.5,1.8,2.9,2.9,0,0,0,.5,1.7,1.5,1.5,0,0,0,1.3.6,1.6,1.6,0,0,0,1.3-.6A2.5,2.5,0,0,0,197.2,66.6Z" fill="#1e1e1e" stroke="#1e1e1e" stroke-miterlimit="10" stroke-width="0.06"/><path d="M205.1,72.1h-.9V68.3h-.1a2.1,2.1,0,0,1-2,1.2,2.2,2.2,0,0,1-1.8-.8,3.2,3.2,0,0,1-.7-2.2,3.6,3.6,0,0,1,.7-2.4,2.6,2.6,0,0,1,2.1-.9,1.7,1.7,0,0,1,1.7,1h.1v-.9h.9Zm-.9-5.5v-.9a1.7,1.7,0,0,0-1.7-1.7,1.7,1.7,0,0,0-1.4.6,2.7,2.7,0,0,0-.5,1.8,2.3,2.3,0,0,0,.5,1.7,1.4,1.4,0,0,0,1.2.6,1.8,1.8,0,0,0,1.4-.6A2.5,2.5,0,0,0,204.2,66.6Z" fill="#1e1e1e" stroke="#1e1e1e" stroke-miterlimit="10" stroke-width="0.06"/><path d="M211.8,69.3h-.9v-.9h-.1a2,2,0,0,1-1.8,1.1c-1.4,0-2.2-.9-2.2-2.6V63.3h1v3.5c0,1.2.5,1.9,1.5,1.9a1.4,1.4,0,0,0,1.1-.6,1.9,1.9,0,0,0,.5-1.3V63.3h.9Z" fill="#1e1e1e" stroke="#1e1e1e" stroke-miterlimit="10" stroke-width="0.06"/><path d="M214.2,61.8l-.5-.2a.5.5,0,0,1-.2-.4.8.8,0,0,1,.2-.5l.5-.2.4.2a.8.8,0,0,1,.2.5l-.2.4Zm.4,7.5h-.9v-6h.9Z" fill="#1e1e1e" stroke="#1e1e1e" stroke-miterlimit="10" stroke-width="0.06"/><path d="M219.6,64.3l-.7-.2a1.1,1.1,0,0,0-1,.6,2.5,2.5,0,0,0-.5,1.6v3h-.9v-6h.9v1.3h.1a1.4,1.4,0,0,1,.6-1,1.2,1.2,0,0,1,.9-.4h.6Z" fill="#1e1e1e" stroke="#1e1e1e" stroke-miterlimit="10" stroke-width="0.06"/><path d="M221,61.8l-.4-.2a.5.5,0,0,1-.2-.4.8.8,0,0,1,.2-.5l.4-.2.5.2a.8.8,0,0,1,.2.5l-.2.4Zm.5,7.5h-.9v-6h.9Z" fill="#1e1e1e" stroke="#1e1e1e" stroke-miterlimit="10" stroke-width="0.06"/><path d="M226.5,64.3l-.7-.2a1.4,1.4,0,0,0-1.1.6,3.4,3.4,0,0,0-.4,1.6v3h-.9v-6h.9v1.3h.1a1.4,1.4,0,0,1,.6-1,1.2,1.2,0,0,1,.9-.4h.6Z" fill="#1e1e1e" stroke="#1e1e1e" stroke-miterlimit="10" stroke-width="0.06"/><path d="M233.4,69.3h-.9c-1,0-1.6-.5-1.6-1.7V64.1h-1v-.8h1V61.9l1-.4v1.8h1.5v.8h-1.5v3.4a2,2,0,0,0,.2.9c.1.2.4.2.7.2a.7.7,0,0,0,.6-.2Z" fill="#1e1e1e" stroke="#1e1e1e" stroke-miterlimit="10" stroke-width="0.06"/><path d="M237.1,69.5a2.6,2.6,0,0,1-2.1-.9,3.1,3.1,0,0,1-.8-2.2A3.6,3.6,0,0,1,235,64a3.4,3.4,0,0,1,2.3-.8,2.8,2.8,0,0,1,2,.8,3.7,3.7,0,0,1,0,4.6A2.9,2.9,0,0,1,237.1,69.5Zm.1-5.5a2,2,0,0,0-1.5.6,3,3,0,0,0-.5,1.8,2.5,2.5,0,0,0,.5,1.6,2.1,2.1,0,0,0,1.5.7,1.5,1.5,0,0,0,1.4-.7,2.6,2.6,0,0,0,.5-1.7,2.9,2.9,0,0,0-.5-1.7A1.7,1.7,0,0,0,237.2,64Z" fill="#1e1e1e" stroke="#1e1e1e" stroke-miterlimit="10" stroke-width="0.06"/><path d="M246.5,69.3h-1.3l-2.7-2.9h0v2.9h-1V60.4h1v5.7h0l2.5-2.8h1.3l-2.8,2.9Z" fill="#1e1e1e" stroke="#1e1e1e" stroke-miterlimit="10" stroke-width="0.06"/><path d="M252.2,66.6H248a2.5,2.5,0,0,0,.5,1.5,1.9,1.9,0,0,0,1.5.6,3.4,3.4,0,0,0,1.8-.7v.9a3.3,3.3,0,0,1-2.1.6,2.5,2.5,0,0,1-2-.9,3.2,3.2,0,0,1-.7-2.3,3.1,3.1,0,0,1,.8-2.2,2.5,2.5,0,0,1,2-.9,2.3,2.3,0,0,1,1.8.7,3.6,3.6,0,0,1,.6,2.2Zm-1-.9a1.6,1.6,0,0,0-.4-1.2c-.2-.4-.6-.5-1.1-.5a1.3,1.3,0,0,0-1.1.5,2.3,2.3,0,0,0-.6,1.2Z" fill="#1e1e1e" stroke="#1e1e1e" stroke-miterlimit="10" stroke-width="0.06"/><path d="M258.6,69.3h-1V65.9c0-1.3-.5-1.9-1.4-1.9a1.7,1.7,0,0,0-1.2.5,2.2,2.2,0,0,0-.5,1.4v3.4h-.9v-6h.9v1h.1a2.1,2.1,0,0,1,1.9-1.1,1.8,1.8,0,0,1,1.5.6,2.7,2.7,0,0,1,.6,1.9Z" fill="#1e1e1e" stroke="#1e1e1e" stroke-miterlimit="10" stroke-width="0.06"/><path d="M211,90.7h-2.4v7.5h-1V90.7h-2.4v-.9H211Z" fill="#1e1e1e" stroke="#1e1e1e" stroke-miterlimit="10" stroke-width="0.06"/><path d="M213.4,98.4a2.7,2.7,0,0,1-2.1-.9,3.3,3.3,0,0,1-.8-2.2,3.2,3.2,0,0,1,.9-2.4,2.9,2.9,0,0,1,2.2-.8,2.5,2.5,0,0,1,2.1.8,3.2,3.2,0,0,1,.7,2.3,3.1,3.1,0,0,1-.8,2.3A2.7,2.7,0,0,1,213.4,98.4Zm.1-5.5a2,2,0,0,0-1.5.6,2.9,2.9,0,0,0-.5,1.7,2.2,2.2,0,0,0,.6,1.7,1.9,1.9,0,0,0,2.8,0,2.2,2.2,0,0,0,.5-1.7,2.3,2.3,0,0,0-.5-1.7A1.7,1.7,0,0,0,213.5,92.9Z" fill="#1e1e1e" stroke="#1e1e1e" stroke-miterlimit="10" stroke-width="0.06"/><path d="M222.9,98.2h-1.4l-2.6-2.9h0v2.9h-1V89.3h1V95h0l2.5-2.8h1.3l-2.8,2.9Z" fill="#1e1e1e" stroke="#1e1e1e" stroke-miterlimit="10" stroke-width="0.06"/><path d="M228.6,95.5h-4.2a2.5,2.5,0,0,0,.5,1.5,1.7,1.7,0,0,0,1.4.5,3.3,3.3,0,0,0,1.9-.6v.9a3.3,3.3,0,0,1-2.1.6,2.5,2.5,0,0,1-2-.9,3.2,3.2,0,0,1-.7-2.3,2.7,2.7,0,0,1,.8-2.2,2.5,2.5,0,0,1,1.9-.9,2.5,2.5,0,0,1,1.9.7,3.3,3.3,0,0,1,.6,2.1Zm-1-.9a1.8,1.8,0,0,0-.4-1.3,1.2,1.2,0,0,0-1.1-.4,1.3,1.3,0,0,0-1.1.5,2.3,2.3,0,0,0-.6,1.2Z" fill="#1e1e1e" stroke="#1e1e1e" stroke-miterlimit="10" stroke-width="0.06"/><path d="M235,98.2h-1V94.8c0-1.3-.5-1.9-1.4-1.9a1.7,1.7,0,0,0-1.2.5,2.1,2.1,0,0,0-.4,1.4v3.4h-1v-6h1v1h0a2,2,0,0,1,1.9-1.1,2.1,2.1,0,0,1,1.6.6,3,3,0,0,1,.5,1.8Z" fill="#1e1e1e" stroke="#1e1e1e" stroke-miterlimit="10" stroke-width="0.06"/><path d="M245,98.2h-.9v-1h0a2.4,2.4,0,0,1-2.1,1.2,2,2,0,0,1-1.8-.9,2.8,2.8,0,0,1-.7-2.1,3.6,3.6,0,0,1,.8-2.4,2.4,2.4,0,0,1,2-.9,2,2,0,0,1,1.8.9h0V89.3h.9Zm-.9-2.7v-.9a1.7,1.7,0,0,0-.5-1.2,1.3,1.3,0,0,0-1.2-.5,1.7,1.7,0,0,0-1.4.6,3.2,3.2,0,0,0-.5,1.8,2.5,2.5,0,0,0,.5,1.6,1.5,1.5,0,0,0,1.3.6,1.9,1.9,0,0,0,1.3-.5A2.5,2.5,0,0,0,244.1,95.5Z" fill="#1e1e1e" stroke="#1e1e1e" stroke-miterlimit="10" stroke-width="0.06"/><path d="M251.7,95.5h-4.2A2.5,2.5,0,0,0,248,97a2,2,0,0,0,1.5.5,3,3,0,0,0,1.8-.6v.9a3.3,3.3,0,0,1-2.1.6,2.5,2.5,0,0,1-2-.9,3.7,3.7,0,0,1-.7-2.3,3.1,3.1,0,0,1,.8-2.2,2.5,2.5,0,0,1,2-.9,2.1,2.1,0,0,1,1.8.7,3.3,3.3,0,0,1,.6,2.1Zm-.9-.9a2.5,2.5,0,0,0-.4-1.3,1.5,1.5,0,0,0-1.1-.4,1.3,1.3,0,0,0-1.2.5,2.3,2.3,0,0,0-.6,1.2Z" fill="#1e1e1e" stroke="#1e1e1e" stroke-miterlimit="10" stroke-width="0.06"/><path d="M260.6,98.2h-.9v-.9h-.1a2.1,2.1,0,0,1-3.2.6,1.9,1.9,0,0,1-.5-1.3c0-1.1.7-1.8,2-1.9l1.8-.3c0-1-.4-1.5-1.3-1.5a2.8,2.8,0,0,0-1.9.7v-1a4.2,4.2,0,0,1,2-.5c1.4,0,2.1.7,2.1,2.2Zm-.9-3-1.5.2a1.5,1.5,0,0,0-1,.3,1,1,0,0,0-.3.8,1.1,1.1,0,0,0,.3.8l.8.2a1.3,1.3,0,0,0,1.2-.5,1.7,1.7,0,0,0,.5-1.2Z" fill="#1e1e1e" stroke="#1e1e1e" stroke-miterlimit="10" stroke-width="0.06"/><path d="M266.5,97.9a3.1,3.1,0,0,1-1.7.5,2.5,2.5,0,0,1-2-.9,2.6,2.6,0,0,1-.8-2.1,3.2,3.2,0,0,1,.8-2.4,3,3,0,0,1,2.3-.9,3.2,3.2,0,0,1,1.4.3v.9a2.6,2.6,0,0,0-1.5-.4,2,2,0,0,0-1.5.6,2.8,2.8,0,0,0-.6,1.8,2.1,2.1,0,0,0,.6,1.6,2,2,0,0,0,1.5.6,2.3,2.3,0,0,0,1.5-.5Z" fill="#1e1e1e" stroke="#1e1e1e" stroke-miterlimit="10" stroke-width="0.06"/><path d="M272.7,95.5h-4.3A2,2,0,0,0,269,97a1.6,1.6,0,0,0,1.4.5,2.8,2.8,0,0,0,1.8-.6v.9a3.2,3.2,0,0,1-2,.6,2.3,2.3,0,0,1-2-.9,3.2,3.2,0,0,1-.8-2.3,3.1,3.1,0,0,1,.8-2.2,2.7,2.7,0,0,1,2-.9,2.1,2.1,0,0,1,1.8.7,2.8,2.8,0,0,1,.7,2.1Zm-1-.9a2.5,2.5,0,0,0-.4-1.3,1.5,1.5,0,0,0-1.1-.4,1.3,1.3,0,0,0-1.2.5,2.3,2.3,0,0,0-.6,1.2Z" fill="#1e1e1e" stroke="#1e1e1e" stroke-miterlimit="10" stroke-width="0.06"/><path d="M273.7,98V97a3.4,3.4,0,0,0,1.7.5c.9,0,1.3-.2,1.3-.8s-.1-.3-.1-.4l-.3-.3-.5-.2-.5-.3-.7-.3-.5-.3-.3-.5a1.3,1.3,0,0,1-.1-.6,1.4,1.4,0,0,1,.2-.7c.1-.3.3-.4.5-.6l.7-.3h.9l1.4.2v1a2.8,2.8,0,0,0-1.5-.4h-.5l-.4.2c-.1.1-.2.2-.2.3a.4.4,0,0,0-.1.3c0,.2,0,.3.1.4s.1.2.2.3l.4.2.5.2.8.3.5.4a.9.9,0,0,1,.3.5,1.4,1.4,0,0,1,.2.6,1.9,1.9,0,0,1-.2.8c-.2.2-.3.4-.6.5a.9.9,0,0,1-.7.3l-.9.2A3.8,3.8,0,0,1,273.7,98Z" fill="#1e1e1e" stroke="#1e1e1e" stroke-miterlimit="10" stroke-width="0.06"/><path d="M278.7,98V97a3.4,3.4,0,0,0,1.7.5c.9,0,1.3-.2,1.3-.8s0-.3-.1-.4l-.3-.3-.4-.2-.6-.3-.7-.3-.5-.3-.3-.5a1.3,1.3,0,0,1-.1-.6,1.4,1.4,0,0,1,.2-.7c.1-.3.3-.4.5-.6l.8-.3h.8l1.4.2v1a2.4,2.4,0,0,0-1.5-.4h-.5l-.4.2c-.1.1-.2.2-.2.3a.4.4,0,0,0-.1.3c0,.2,0,.3.1.4s.1.2.2.3l.4.2.6.2.7.3.5.4a1,1,0,0,1,.4.5c0,.2.1.4.1.6a1.9,1.9,0,0,1-.2.8l-.5.5a1.3,1.3,0,0,1-.8.3l-.9.2A4.2,4.2,0,0,1,278.7,98Z" fill="#1e1e1e" stroke="#1e1e1e" stroke-miterlimit="10" stroke-width="0.06"/><path d="M286.6,98.4a2.6,2.6,0,0,1-2.1-.9,2.9,2.9,0,0,1-.8-2.2,3.6,3.6,0,0,1,.8-2.4,3.3,3.3,0,0,1,2.2-.8,2.5,2.5,0,0,1,2.1.8,3.2,3.2,0,0,1,.8,2.3,3.6,3.6,0,0,1-.8,2.3A2.9,2.9,0,0,1,286.6,98.4Zm.1-5.5a1.9,1.9,0,0,0-1.5.6,2.3,2.3,0,0,0-.5,1.7,2.2,2.2,0,0,0,.5,1.7,2,2,0,0,0,1.5.6,1.7,1.7,0,0,0,1.4-.6,2.6,2.6,0,0,0,.5-1.7,2.9,2.9,0,0,0-.5-1.7A1.7,1.7,0,0,0,286.7,92.9Z" fill="#1e1e1e" stroke="#1e1e1e" stroke-miterlimit="10" stroke-width="0.06"/><path d="M191.5,190.2h-1.1l-1.4-2.4-.4-.5c-.1-.2-.3-.3-.4-.4a.5.5,0,0,0-.4-.2h-1.3v3.6h-1v-8.4H189l.9.4.5.7a3,3,0,0,1,.2,1,1.9,1.9,0,0,1-.2.8,1.5,1.5,0,0,1-.3.7l-.6.5-.8.3h0l.4.2.3.3.3.4c0,.1.2.3.3.5Zm-5-7.5v3h2l.6-.3.3-.5a1.7,1.7,0,0,0,.1-.7,1.4,1.4,0,0,0-.4-1.1,2.1,2.1,0,0,0-1.2-.3Z" fill="#1e1e1e" stroke="#1e1e1e" stroke-miterlimit="10" stroke-width="0.06"/><path d="M197,187.4h-4.2a2.5,2.5,0,0,0,.5,1.6,2,2,0,0,0,1.4.5,2.8,2.8,0,0,0,1.9-.7v.9a3.3,3.3,0,0,1-2.1.6,2.6,2.6,0,0,1-2-.8,3.2,3.2,0,0,1-.7-2.3,3.1,3.1,0,0,1,.8-2.3,2.3,2.3,0,0,1,1.9-.9,2.6,2.6,0,0,1,1.9.8,3.3,3.3,0,0,1,.6,2.1Zm-1-.8a1.8,1.8,0,0,0-.4-1.3,1.3,1.3,0,0,0-1.1-.5,1.6,1.6,0,0,0-1.1.5,2.2,2.2,0,0,0-.6,1.3Z" fill="#1e1e1e" stroke="#1e1e1e" stroke-miterlimit="10" stroke-width="0.06"/><path d="M198.1,190v-1.1a2.7,2.7,0,0,0,1.7.6c.8,0,1.2-.3,1.2-.8s0-.3-.1-.4-.1-.2-.3-.3l-.4-.3-.5-.2-.7-.3a1,1,0,0,1-.5-.4.5.5,0,0,1-.3-.4,1.3,1.3,0,0,1-.1-.6,1.1,1.1,0,0,1,.2-.8,1.2,1.2,0,0,1,.5-.5.9.9,0,0,1,.7-.3l.9-.2a3.5,3.5,0,0,1,1.4.3v1a3,3,0,0,0-1.6-.5h-.5l-.3.2-.3.2v.8l.3.3.4.2.5.2.7.3.6.4.3.4a1.5,1.5,0,0,1,.1.7.8.8,0,0,1-.2.7c-.1.3-.3.4-.5.6l-.7.3h-.9A3.5,3.5,0,0,1,198.1,190Z" fill="#1e1e1e" stroke="#1e1e1e" stroke-miterlimit="10" stroke-width="0.06"/><path d="M204.5,189.3h-.1v3.6h-.9v-8.7h.9v1h.1a2.1,2.1,0,0,1,2-1.2,2.2,2.2,0,0,1,1.8.8,3.2,3.2,0,0,1,.7,2.2,4.3,4.3,0,0,1-.7,2.4,2.5,2.5,0,0,1-2,.9A1.9,1.9,0,0,1,204.5,189.3Zm-.1-2.4v.8a2.1,2.1,0,0,0,.5,1.3,1.7,1.7,0,0,0,1.2.5,1.5,1.5,0,0,0,1.4-.7,3,3,0,0,0,.5-1.8,2.1,2.1,0,0,0-.5-1.6,1.4,1.4,0,0,0-1.2-.6,1.8,1.8,0,0,0-1.4.6A2.5,2.5,0,0,0,204.4,186.9Z" fill="#1e1e1e" stroke="#1e1e1e" stroke-miterlimit="10" stroke-width="0.06"/><path d="M213,190.3a2.8,2.8,0,0,1-2.9-3,3.5,3.5,0,0,1,.8-2.4,2.9,2.9,0,0,1,2.2-.9,2.6,2.6,0,0,1,2.1.9,3.2,3.2,0,0,1,.8,2.3,3.6,3.6,0,0,1-.8,2.3A3.3,3.3,0,0,1,213,190.3Zm.1-5.5a2.1,2.1,0,0,0-1.5.7,3.1,3.1,0,0,0,0,3.4,2,2,0,0,0,1.5.6,1.7,1.7,0,0,0,1.4-.6,2.9,2.9,0,0,0,.5-1.7,2.6,2.6,0,0,0-.5-1.7A1.7,1.7,0,0,0,213.1,184.8Z" fill="#1e1e1e" stroke="#1e1e1e" stroke-miterlimit="10" stroke-width="0.06"/><path d="M224.4,190.1l-.9.2c-1,0-1.5-.6-1.5-1.7V185h-3.2l-.4.2-.2.2a.4.4,0,0,0-.1.3.6.6,0,0,0,.1.4l.3.3.4.2.5.2.7.3a2.9,2.9,0,0,1,.9.9c.1.1.1.3.1.6a1.4,1.4,0,0,1-.2.7c-.1.3-.3.4-.5.6l-.8.3h-.9a4.1,4.1,0,0,1-1.6-.3v-1.1a2.8,2.8,0,0,0,1.8.6c.8,0,1.2-.3,1.2-.8s0-.3-.1-.4l-.3-.3-.4-.3-.6-.2-.7-.3-.5-.4-.3-.4c0-.2-.1-.4-.1-.6a2.4,2.4,0,0,1,.2-.8,1,1,0,0,1,.5-.4l.6-.3H222v-1.5l.9-.3v1.8h1.5v.8h-1.5v3.4a1.3,1.3,0,0,0,.2.8.9.9,0,0,0,.7.3l.6-.2Z" fill="#1e1e1e" stroke="#1e1e1e" stroke-miterlimit="10" stroke-width="0.06"/><path d="M230,190.2h-1v-1h0a1.9,1.9,0,0,1-1.9,1.1,1.7,1.7,0,0,1-1.4-.5,1.7,1.7,0,0,1-.5-1.2c0-1.1.7-1.8,2-2l1.8-.2c0-1-.4-1.6-1.2-1.6a3.2,3.2,0,0,0-2,.8v-1a3.7,3.7,0,0,1,2.1-.6c1.4,0,2.1.8,2.1,2.3Zm-1-3.1-1.4.2a1.9,1.9,0,0,0-1,.4c-.3.1-.4.4-.4.8a.9.9,0,0,0,.3.7,1.2,1.2,0,0,0,.9.3,1.6,1.6,0,0,0,1.1-.5,1.4,1.4,0,0,0,.5-1.3Z" fill="#1e1e1e" stroke="#1e1e1e" stroke-miterlimit="10" stroke-width="0.06"/><path d="M241.4,190.2h-.9v-3.9h-4.4v3.9h-1v-8.4h1v3.7h4.4v-3.7h.9Z" fill="#1e1e1e" stroke="#1e1e1e" stroke-miterlimit="10" stroke-width="0.06"/><path d="M248.6,182.7h-2.4v7.5h-1v-7.5h-2.4v-.9h5.8Z" fill="#1e1e1e" stroke="#1e1e1e" stroke-miterlimit="10" stroke-width="0.06"/><path d="M255.1,182.7h-2.5v7.5h-.9v-7.5h-2.5v-.9h5.9Z" fill="#1e1e1e" stroke="#1e1e1e" stroke-miterlimit="10" stroke-width="0.06"/><path d="M257.3,187v3.2h-1v-8.4h2.4a2.8,2.8,0,0,1,2,.6,2.7,2.7,0,0,1,0,3.8,3,3,0,0,1-2.3.8Zm0-4.3v3.4h1.1a1.8,1.8,0,0,0,1.5-.5,1.5,1.5,0,0,0,.6-1.3c0-1.1-.7-1.6-2-1.6Z" fill="#1e1e1e" stroke="#1e1e1e" stroke-miterlimit="10" stroke-width="0.06"/></svg>