<svg xmlns="http://www.w3.org/2000/svg" xmlns:xlink="http://www.w3.org/1999/xlink" viewBox="0 0 249 263.9"><defs><clipPath id="a" transform="translate(-4.9)"><rect x="62" y="176.5" width="54" height="54" fill="none"/></clipPath></defs><title>OJ104327268</title><rect x="3.8" width="245" height="263.87" fill="#fff"/><rect x="74.1" width="104.7" height="90" fill="#0072c6"/><path d="M62.3,100.3h-.6V83.2a1.8,1.8,0,0,1,1.7-1.7h9.7v.6H63.4a1,1,0,0,0-1.1,1.1h0v17.1Z" transform="translate(-4.9)"/><path d="M90.3,100.3h-.5V83.2a1.1,1.1,0,0,0-1.1-1.1H73.1v-.5H88.7a1.6,1.6,0,0,1,1.6,1.6Z" transform="translate(-4.9)"/><polygon points="67.3 98.8 59.1 98.8 59.1 83.7 66.4 83.7 66.4 84.3 59.6 84.3 59.6 98.2 67.3 98.2 67.3 98.8"/><polygon points="83.1 98.8 77.8 98.8 77.8 98.2 82.5 98.2 82.5 84.3 75.9 84.3 75.9 83.7 83.1 83.7 83.1 98.8"/><path d="M94.4,103.2H86.3v-.6h8.1a1,1,0,0,0,1.1-1.1v-.9H86.3v-.5H96v1.4A1.7,1.7,0,0,1,94.4,103.2Z" transform="translate(-4.9)"/><path d="M72,103.2H57.6a1.7,1.7,0,0,1-1.6-1.7v-1.4H72.2v.5H56.5v.9a1.1,1.1,0,0,0,1.1,1.1H72Z" transform="translate(-4.9)"/><rect x="76.2" y="83.7" width="5.5" height="0.53"/><rect x="60.4" y="83.7" width="15.5" height="0.53"/><path d="M79.6,102.6H79V97.5A1.5,1.5,0,0,0,77.5,96,1.5,1.5,0,0,0,76,97.5h0v5.1h-.5V97.5a2,2,0,0,1,2-2,2.1,2.1,0,0,1,2.1,2Z" transform="translate(-4.9)"/><path d="M83.1,102.6h-.5V98.9a1.5,1.5,0,0,0-1.5-1.5,1.5,1.5,0,0,0-1.5,1.5h0v3.7H79V98.9a2,2,0,0,1,2.1-2,2,2,0,0,1,2,2Z" transform="translate(-4.9)"/><path d="M86.6,112.8h-.5V100.3a1.5,1.5,0,1,0-3,0h0v2.3h-.5v-2.3a2,2,0,1,1,4,0Z" transform="translate(-4.9)"/><path d="M86.6,114.3H71.8l-6.4-6.5a2.6,2.6,0,1,1,3.7-3.7l2.8,2.6V91a2,2,0,0,1,2-2A2,2,0,0,1,76,91v9.7h-.6V91a1.5,1.5,0,0,0-1.5-1.5A1.5,1.5,0,0,0,72.4,91h0v16.9l-3.6-3.6a2.2,2.2,0,0,0-3-.1,2.1,2.1,0,0,0-.2,3h.2l6.4,6.5H86.1v-7.1h.5Z" transform="translate(-4.9)"/><g clip-path="url(#a)"><path d="M111.9,182.4H66.1a3.2,3.2,0,0,0-3.2,3.3v28.1a3.2,3.2,0,0,0,3.2,3.2h45.8a3.3,3.3,0,0,0,3.3-3.2V185.7A3.4,3.4,0,0,0,111.9,182.4Z" transform="translate(-4.9)" fill="#fff"/></g><g clip-path="url(#a)"><path d="M115.2,185.4v8.9H62.8v-8.9a3.1,3.1,0,0,1,2.9-3h46.6A3.1,3.1,0,0,1,115.2,185.4Z" transform="translate(-4.9)" fill="#e5e5e5"/></g><g clip-path="url(#a)"><path d="M111.9,181.6H66.1a4.1,4.1,0,0,0-4.1,4.1v28.1a4.1,4.1,0,0,0,4.1,4.1h22l-.3,5H78l-2.5,1.7h27l-2.5-1.7H90.2l-.3-5h22a4.2,4.2,0,0,0,4.1-4.1V185.6A4.1,4.1,0,0,0,111.9,181.6Zm2.4,32.2a2.4,2.4,0,0,1-2.4,2.4H66.1a2.4,2.4,0,0,1-2.4-2.4V185.7a2.4,2.4,0,0,1,2.4-2.4h45.8a2.4,2.4,0,0,1,2.4,2.4v28.1Z" transform="translate(-4.9)" fill="#3c3c41"/></g><ellipse cx="57.3" cy="217.9" rx="18.5" ry="18.5" fill="#ebebeb"/><path d="M62.2,237.3a19.5,19.5,0,1,1,19.5-19.5A19.5,19.5,0,0,1,62.2,237.3Zm0-36.9a17.5,17.5,0,1,0,17.5,17.5A17.5,17.5,0,0,0,62.2,200.4Z" transform="translate(-4.9)" fill="#3c3c41"/><path d="M67.2,208.9a5,5,0,0,1-5,5.1,5.1,5.1,0,1,1,0-10.1,5,5,0,0,1,5,5" transform="translate(-4.9)" fill="#75757a"/><polygon points="60.9 215.7 57.2 220.9 53.6 215.7 48.3 215.7 48.3 228.4 66.3 228.4 66.3 215.7 60.9 215.7" fill="#75757a"/><path d="M57.2,208.9a5.1,5.1,0,0,0,4.9,5.1l1.3-9.9a2.5,2.5,0,0,0-1.2-.2,5,5,0,0,0-5,5" transform="translate(-4.9)" fill="#fff" opacity="0.2" style="isolation:isolate"/><polygon points="53.6 215.7 48.3 215.7 48.3 228.4 55.4 228.4 56.4 219.7 53.6 215.7" fill="#fff" opacity="0.2" style="isolation:isolate"/><line x1="71.1" y1="181.5" x2="71.1" y2="119.9" fill="none" stroke="#000" stroke-miterlimit="10"/><polygon points="74.8 121 71.1 114.5 67.3 121 74.8 121"/><line x1="103.4" y1="176.2" x2="103.4" y2="90" fill="none" stroke="#000" stroke-miterlimit="10"/><polygon points="107.2 175.1 103.4 181.5 99.7 175.1 107.2 175.1"/><rect x="188.6" y="190.4" width="58" height="31.27" fill="#fff"/><path d="M253.9,183.3a1.1,1.1,0,0,0-1.1-1.1H192.2a1.1,1.1,0,0,0-1.1,1.1v37.8a1.1,1.1,0,0,0,1.1,1.1h60.6a1.1,1.1,0,0,0,1.1-1.1Zm-54.1,6h-3.2v-3.2h3.2Zm6.2,0h-3.1v-3.2H206Zm6.3,0h-3.1v-3.2h3.1Zm-18.8,2.3h58v28.3h-58V191.6Z" transform="translate(-4.9)" fill="#0072c6"/><path d="M198.5,208.7a14.9,14.9,0,0,0-11.9-5.9,15.4,15.4,0,0,0-9.1,3.1,15,15,0,0,0,9.1,26.9,14.7,14.7,0,0,0,9.1-3.1A14.9,14.9,0,0,0,198.5,208.7Zm.7,12.5-2.3-1.8a2.7,2.7,0,0,0-.3-2.7,2.8,2.8,0,0,0-3.7-.6l-4.2-4.1a15.2,15.2,0,0,1,8.1-2.2l.2.2A13,13,0,0,1,199.2,221.2Zm-8.2,3.6a1.9,1.9,0,0,0-.5-1,2.5,2.5,0,0,0-3.4-.7,20.9,20.9,0,0,1-3.5-2.3l-.3-.2a4.2,4.2,0,0,0-.6-3.9h-.1a3,3,0,0,0,.8-.8,20.6,20.6,0,0,1,3.5-2.7h-.1l5,4.2a2.8,2.8,0,0,0,.3,2.8,2.8,2.8,0,0,0,3.9.6l.2-.2,2.6,1.8a11.1,11.1,0,0,1-1.4,2.9A13.5,13.5,0,0,1,191,224.8Zm4-16.9a13.8,13.8,0,0,0-8.7,1.6c-1.2-1.2-2.4-2.6-3.7-4.1a13.4,13.4,0,0,1,4-.6A13.2,13.2,0,0,1,195,207.9Zm-16.4-.4,2.2-1.4a24.5,24.5,0,0,0,3.6,4.5,19.9,19.9,0,0,0-3.6,3.1l-1.3,1.5a3.9,3.9,0,0,0-1.8.4,10.3,10.3,0,0,1-1.4-5.7A13.1,13.1,0,0,1,178.6,207.5Zm-3.8,4.8a9.3,9.3,0,0,0,1.2,5,3.8,3.8,0,0,0,.4,4.2h0a27,27,0,0,0-.6,3.6A13,13,0,0,1,174.8,212.3Zm19.7,15.9a12.4,12.4,0,0,1-7.9,2.7,13.1,13.1,0,0,1-8.4-3,16,16,0,0,1,.7-4.9,3.8,3.8,0,0,0,2.9-.6l.3.2a19.9,19.9,0,0,0,3.8,2.4,2.2,2.2,0,0,0,.5,1.9,2.6,2.6,0,0,0,3.6.5,1.3,1.3,0,0,0,.6-.7,26.3,26.3,0,0,0,5.1.5Z" transform="translate(-4.9)"/><line x1="111.1" y1="191.5" x2="180.7" y2="191.5" fill="none" stroke="#000" stroke-miterlimit="10"/><polygon points="179.6 195.3 186.1 191.5 179.6 187.8 179.6 195.3"/><polygon points="103.2 146.3 94.6 152.5 97.9 162.5 108.4 162.5 111.7 152.5 103.2 146.3" fill="#ebebeb" stroke="#000" stroke-miterlimit="10" stroke-width="0.75"/><polygon points="136.2 181.7 127.7 187.9 131 197.9 141.5 197.9 144.8 187.9 136.2 181.7" fill="#ebebeb" stroke="#000" stroke-miterlimit="10" stroke-width="0.75"/><path d="M5.9,86.9v3.2h-1V81.7H7.3a3.2,3.2,0,0,1,2,.6,2.7,2.7,0,0,1,0,3.8,3.4,3.4,0,0,1-2.3.8Zm0-4.3V86H7a2.3,2.3,0,0,0,1.5-.5A1.4,1.4,0,0,0,9,84.2c0-1.1-.6-1.6-1.9-1.6Z" transform="translate(-4.9)" fill="#1e1e1e" stroke="#1e1e1e" stroke-miterlimit="10" stroke-width="0.06"/><path d="M15.1,90.1h-1v-1h0a2.1,2.1,0,0,1-1.9,1.1,2.2,2.2,0,0,1-1.4-.5,1.7,1.7,0,0,1-.5-1.2c0-1.2.7-1.8,2-2l1.8-.2c0-1.1-.4-1.6-1.2-1.6a3,3,0,0,0-2,.8v-1a3.6,3.6,0,0,1,2-.6c1.5,0,2.2.8,2.2,2.3Zm-1-3.1-1.4.2-1.1.4c-.2.1-.3.4-.3.8a.9.9,0,0,0,.3.7,1.2,1.2,0,0,0,.9.3,1.6,1.6,0,0,0,1.1-.5,1.9,1.9,0,0,0,.5-1.3Zm.1-6-1.5,1.9h-.8L13.3,81Z" transform="translate(-4.9)" fill="#1e1e1e" stroke="#1e1e1e" stroke-miterlimit="10" stroke-width="0.06"/><path d="M21.6,89.6c0,2.2-1,3.3-3.1,3.3a5.9,5.9,0,0,1-2-.4v-1a3.9,3.9,0,0,0,2,.6c1.4,0,2.2-.8,2.2-2.4v-.6h-.1a2.2,2.2,0,0,1-2,1.1,2.2,2.2,0,0,1-1.8-.8,2.8,2.8,0,0,1-.7-2.1,3.7,3.7,0,0,1,.7-2.5,2.5,2.5,0,0,1,2-.9,1.7,1.7,0,0,1,1.8,1h.1v-.8h.9Zm-.9-2.2v-.9a2.1,2.1,0,0,0-.5-1.3,1.7,1.7,0,0,0-1.2-.5,1.5,1.5,0,0,0-1.4.7,3,3,0,0,0-.5,1.8,2.1,2.1,0,0,0,.5,1.6,1.4,1.4,0,0,0,1.2.6,1.8,1.8,0,0,0,1.4-.6A2.4,2.4,0,0,0,20.7,87.4Z" transform="translate(-4.9)" fill="#1e1e1e" stroke="#1e1e1e" stroke-miterlimit="10" stroke-width="0.06"/><path d="M23.7,82.5h-.4a.6.6,0,0,1-.2-.5c0-.2,0-.3.2-.4a.5.5,0,0,1,.4-.2l.5.2c.1.1.1.2.1.4a.9.9,0,0,1-.1.5Zm.5,7.6h-1v-6h1Z" transform="translate(-4.9)" fill="#1e1e1e" stroke="#1e1e1e" stroke-miterlimit="10" stroke-width="0.06"/><path d="M30.7,90.1h-.9V86.6c0-1.2-.5-1.9-1.4-1.9a1.4,1.4,0,0,0-1.2.6,1.9,1.9,0,0,0-.5,1.3v3.5h-.9v-6h.9v1h0a2.3,2.3,0,0,1,2-1.2,1.6,1.6,0,0,1,1.5.7,2.4,2.4,0,0,1,.5,1.8Z" transform="translate(-4.9)" fill="#1e1e1e" stroke="#1e1e1e" stroke-miterlimit="10" stroke-width="0.06"/><path d="M36.5,90.1h-1v-1h0a2.1,2.1,0,0,1-3.2.6,1.4,1.4,0,0,1-.6-1.2c0-1.2.7-1.8,2-2l1.8-.2c0-1.1-.4-1.6-1.2-1.6a3.2,3.2,0,0,0-2,.8v-1a3.7,3.7,0,0,1,2.1-.6c1.4,0,2.1.8,2.1,2.3Zm-1-3.1-1.4.2a1.9,1.9,0,0,0-1,.4c-.3.1-.4.4-.4.8a.9.9,0,0,0,.3.7,1.4,1.4,0,0,0,.9.3,1.7,1.7,0,0,0,1.2-.5,1.8,1.8,0,0,0,.4-1.3Z" transform="translate(-4.9)" fill="#1e1e1e" stroke="#1e1e1e" stroke-miterlimit="10" stroke-width="0.06"/><path d="M46,90.1H45V89h0a2.1,2.1,0,0,1-2.1,1.2,2.5,2.5,0,0,1-1.8-.8,4.4,4.4,0,0,1,.1-4.6,2.5,2.5,0,0,1,2-.9,1.9,1.9,0,0,1,1.8,1h0V81.2h1Zm-1-2.7v-.9a1.7,1.7,0,0,0-1.7-1.8,1.6,1.6,0,0,0-1.4.7,3,3,0,0,0-.5,1.8,2.8,2.8,0,0,0,.5,1.6,1.6,1.6,0,0,0,1.3.6,1.5,1.5,0,0,0,1.3-.6A1.9,1.9,0,0,0,45,87.4Z" transform="translate(-4.9)" fill="#1e1e1e" stroke="#1e1e1e" stroke-miterlimit="10" stroke-width="0.06"/><path d="M52.4,87.3H48.2a2.5,2.5,0,0,0,.5,1.6,2,2,0,0,0,1.4.5,2.8,2.8,0,0,0,1.9-.7v.9a3.3,3.3,0,0,1-2.1.6,2.6,2.6,0,0,1-2-.8,3.3,3.3,0,0,1-.7-2.3,3.1,3.1,0,0,1,.8-2.3,2.3,2.3,0,0,1,1.9-.9,2.2,2.2,0,0,1,1.8.8,2.8,2.8,0,0,1,.7,2.1Zm-1-.8a1.7,1.7,0,0,0-.4-1.3,1.4,1.4,0,0,0-1.1-.5,1.9,1.9,0,0,0-1.7,1.8Z" transform="translate(-4.9)" fill="#1e1e1e" stroke="#1e1e1e" stroke-miterlimit="10" stroke-width="0.06"/><path d="M20.2,104.6H15.8V96.2H20v.9H16.7v2.7h3.1v.9H16.7v3h3.5Z" transform="translate(-4.9)" fill="#1e1e1e" stroke="#1e1e1e" stroke-miterlimit="10" stroke-width="0.06"/><path d="M26.3,104.6h-.9v-3.5c0-1.2-.5-1.9-1.4-1.9a1.4,1.4,0,0,0-1.2.6,1.9,1.9,0,0,0-.5,1.3v3.5h-1v-6h1v1h0a2.2,2.2,0,0,1,2-1.2,1.6,1.6,0,0,1,1.5.7,3,3,0,0,1,.5,1.8Z" transform="translate(-4.9)" fill="#1e1e1e" stroke="#1e1e1e" stroke-miterlimit="10" stroke-width="0.06"/><path d="M30.6,104.5l-.9.2c-1.1,0-1.6-.6-1.6-1.8V99.4h-1v-.8h1V97.1l.9-.3v1.8h1.6v.8H29v3.4a1.3,1.3,0,0,0,.2.8.9.9,0,0,0,.7.3l.7-.2Z" transform="translate(-4.9)" fill="#1e1e1e" stroke="#1e1e1e" stroke-miterlimit="10" stroke-width="0.06"/><path d="M34.6,99.5l-.7-.2a1.1,1.1,0,0,0-1,.6,2.5,2.5,0,0,0-.5,1.6v3.1h-.9v-6h.9v1.2h.1a1.7,1.7,0,0,1,.6-1,1.6,1.6,0,0,1,.9-.3h.6Z" transform="translate(-4.9)" fill="#1e1e1e" stroke="#1e1e1e" stroke-miterlimit="10" stroke-width="0.06"/><path d="M39.6,104.6h-1v-1h0a2.1,2.1,0,0,1-3.2.6,1.4,1.4,0,0,1-.6-1.2c0-1.2.7-1.8,2-2l1.8-.2c0-1.1-.4-1.6-1.2-1.6a3.2,3.2,0,0,0-2,.8V99a3.7,3.7,0,0,1,2.1-.6c1.4,0,2.1.8,2.1,2.3Zm-1-3.1-1.4.2a1.9,1.9,0,0,0-1,.4c-.3.1-.4.4-.4.8a.9.9,0,0,0,.3.7,1.4,1.4,0,0,0,.9.3,1.6,1.6,0,0,0,1.6-1.8Z" transform="translate(-4.9)" fill="#1e1e1e" stroke="#1e1e1e" stroke-miterlimit="10" stroke-width="0.06"/><path d="M46.2,104.6h-1v-1.1h0a2.4,2.4,0,0,1-2.1,1.2,2.5,2.5,0,0,1-1.8-.8,3.6,3.6,0,0,1-.7-2.2,3.6,3.6,0,0,1,.8-2.4,2.4,2.4,0,0,1,2-.9,1.9,1.9,0,0,1,1.8,1h0V95.7h1Zm-1-2.7V101a2.1,2.1,0,0,0-.5-1.3,1.7,1.7,0,0,0-1.2-.5,1.5,1.5,0,0,0-1.4.7,3,3,0,0,0-.5,1.8,2.8,2.8,0,0,0,.5,1.6,1.5,1.5,0,0,0,1.3.6,1.6,1.6,0,0,0,1.3-.6A2.4,2.4,0,0,0,45.2,101.9Z" transform="translate(-4.9)" fill="#1e1e1e" stroke="#1e1e1e" stroke-miterlimit="10" stroke-width="0.06"/><path d="M52,104.6h-.9v-1h0a2.3,2.3,0,0,1-1.9,1.1,2,2,0,0,1-1.4-.5,1.7,1.7,0,0,1-.5-1.2c0-1.2.7-1.8,2-2l1.8-.2c0-1.1-.4-1.6-1.3-1.6a2.9,2.9,0,0,0-1.9.8V99a3.6,3.6,0,0,1,2-.6c1.4,0,2.1.8,2.1,2.3Zm-.9-3.1-1.5.2a2.3,2.3,0,0,0-1,.4c-.2.1-.3.4-.3.8a.9.9,0,0,0,.3.7,1.1,1.1,0,0,0,.8.3,1.7,1.7,0,0,0,1.2-.5,1.9,1.9,0,0,0,.5-1.3Z" transform="translate(-4.9)" fill="#1e1e1e" stroke="#1e1e1e" stroke-miterlimit="10" stroke-width="0.06"/><path d="M68.5,246.8H67.3L63,240.1l-.3-.5h0v7.2h-1v-8.4H63l4.2,6.6.4.6h0a4.5,4.5,0,0,1-.1-1.3v-5.9h1Z" transform="translate(-4.9)" fill="#1e1e1e" stroke="#1e1e1e" stroke-miterlimit="10" stroke-width="0.06"/><path d="M74.9,246.8h-1v-.9h0a2,2,0,0,1-1.9,1,2.1,2.1,0,0,1-1.4-.4,1.9,1.9,0,0,1-.5-1.3c0-1.1.7-1.8,2-1.9l1.8-.3q0-1.5-1.2-1.5a3.1,3.1,0,0,0-2,.7v-1a3.6,3.6,0,0,1,2.1-.5c1.4,0,2.1.7,2.1,2.2Zm-1-3-1.4.2a1.3,1.3,0,0,0-1,.3.8.8,0,0,0-.4.8,1.1,1.1,0,0,0,.3.8l.9.2a1.3,1.3,0,0,0,1.1-.5,1.3,1.3,0,0,0,.5-1.2Z" transform="translate(-4.9)" fill="#1e1e1e" stroke="#1e1e1e" stroke-miterlimit="10" stroke-width="0.06"/><path d="M81.4,240.8l-2.4,6h-.9l-2.3-6h1l1.6,4.4a3.1,3.1,0,0,1,.2.8h0a1.9,1.9,0,0,1,.2-.8l1.6-4.4Z" transform="translate(-4.9)" fill="#1e1e1e" stroke="#1e1e1e" stroke-miterlimit="10" stroke-width="0.06"/><path d="M87.3,244H83a2.1,2.1,0,0,0,.6,1.6,1.6,1.6,0,0,0,1.4.5,3,3,0,0,0,1.8-.6v.9a3.3,3.3,0,0,1-2.1.5,2.4,2.4,0,0,1-2-.8,3.7,3.7,0,0,1-.7-2.3,3.6,3.6,0,0,1,.8-2.3,2.8,2.8,0,0,1,2-.8,2.1,2.1,0,0,1,1.8.7,3.3,3.3,0,0,1,.7,2.1Zm-1-.8a2.5,2.5,0,0,0-.4-1.3,1.5,1.5,0,0,0-1.1-.4,1.3,1.3,0,0,0-1.2.5,2.3,2.3,0,0,0-.6,1.2Z" transform="translate(-4.9)" fill="#1e1e1e" stroke="#1e1e1e" stroke-miterlimit="10" stroke-width="0.06"/><path d="M93.8,246.3c0,2.2-1,3.3-3.1,3.3a4.2,4.2,0,0,1-2-.4v-1a3.8,3.8,0,0,0,1.9.6,2.1,2.1,0,0,0,2.3-2.3v-.7h-.1a2,2,0,0,1-2,1.1,1.9,1.9,0,0,1-1.8-.8,2.8,2.8,0,0,1-.7-2.1,3.6,3.6,0,0,1,.7-2.4,2.5,2.5,0,0,1,2-.9,1.8,1.8,0,0,1,1.8.9h.1v-.8h.9Zm-.9-2.2v-.9a1.7,1.7,0,0,0-.5-1.2,1.3,1.3,0,0,0-1.2-.5,1.7,1.7,0,0,0-1.4.6,2.6,2.6,0,0,0-.5,1.8,2.1,2.1,0,0,0,.5,1.6,1.4,1.4,0,0,0,1.2.6,2.2,2.2,0,0,0,1.4-.5A2.5,2.5,0,0,0,92.9,244.1Z" transform="translate(-4.9)" fill="#1e1e1e" stroke="#1e1e1e" stroke-miterlimit="10" stroke-width="0.06"/><path d="M100.1,246.8h-1v-.9h0a2.1,2.1,0,0,1-1.9,1,2.1,2.1,0,0,1-1.4-.4,1.9,1.9,0,0,1-.5-1.3c0-1.1.7-1.8,2-1.9l1.8-.3q0-1.5-1.2-1.5a2.9,2.9,0,0,0-2,.7v-1a3.6,3.6,0,0,1,2.1-.5c1.4,0,2.1.7,2.1,2.2Zm-1-3-1.4.2a1.8,1.8,0,0,0-1.1.3,1,1,0,0,0-.3.8,1.1,1.1,0,0,0,.3.8l.9.2a1.3,1.3,0,0,0,1.1-.5,1.7,1.7,0,0,0,.5-1.2Z" transform="translate(-4.9)" fill="#1e1e1e" stroke="#1e1e1e" stroke-miterlimit="10" stroke-width="0.06"/><path d="M107,246.8h-1v-1h0a2,2,0,0,1-2,1.1,2.2,2.2,0,0,1-1.9-.8,3.4,3.4,0,0,1-.6-2.2,3.5,3.5,0,0,1,.7-2.3,2.5,2.5,0,0,1,2-.9,2,2,0,0,1,1.8.9h0v-3.7h1Zm-1-2.7v-.9a1.6,1.6,0,0,0-.4-1.2,1.7,1.7,0,0,0-1.3-.5,1.6,1.6,0,0,0-1.3.6,2.4,2.4,0,0,0-.5,1.8,2.5,2.5,0,0,0,.4,1.6,1.8,1.8,0,0,0,1.3.6,1.7,1.7,0,0,0,1.3-.5A2,2,0,0,0,106,244.1Z" transform="translate(-4.9)" fill="#1e1e1e" stroke="#1e1e1e" stroke-miterlimit="10" stroke-width="0.06"/><path d="M111.5,246.9a2.9,2.9,0,0,1-2.2-.8,3.3,3.3,0,0,1-.8-2.2,3.2,3.2,0,0,1,.9-2.4,2.7,2.7,0,0,1,2.2-.8,2.5,2.5,0,0,1,2.1.8,3.2,3.2,0,0,1,.7,2.3,3.1,3.1,0,0,1-.8,2.3A2.5,2.5,0,0,1,111.5,246.9Zm0-5.4a1.7,1.7,0,0,0-1.4.6,2.7,2.7,0,0,0,0,3.4,1.7,1.7,0,0,0,1.4.6,2,2,0,0,0,1.5-.6,2.6,2.6,0,0,0,.5-1.7,2.9,2.9,0,0,0-.5-1.7A2,2,0,0,0,111.5,241.5Z" transform="translate(-4.9)" fill="#1e1e1e" stroke="#1e1e1e" stroke-miterlimit="10" stroke-width="0.06"/><path d="M119.1,241.8a.8.8,0,0,0-.7-.2,1.4,1.4,0,0,0-1.1.6,3,3,0,0,0-.4,1.5v3.1H116v-6h.9V242h.1a1.5,1.5,0,0,1,.6-.9,1.2,1.2,0,0,1,.9-.4h.6Z" transform="translate(-4.9)" fill="#1e1e1e" stroke="#1e1e1e" stroke-miterlimit="10" stroke-width="0.06"/><path d="M67.1,261.3h-.9v-1h-.1a2,2,0,0,1-2,1.1,1.9,1.9,0,0,1-1.8-.8,2.9,2.9,0,0,1-.7-2.2,3.5,3.5,0,0,1,.7-2.3,2.5,2.5,0,0,1,2-.9,1.8,1.8,0,0,1,1.8.9h.1v-3.7h.9Zm-.9-2.7v-.9a1.7,1.7,0,0,0-.5-1.2,1.3,1.3,0,0,0-1.2-.5,1.7,1.7,0,0,0-1.4.6,3,3,0,0,0-.5,1.8,2.1,2.1,0,0,0,.5,1.6,1.5,1.5,0,0,0,1.3.6,2.1,2.1,0,0,0,1.3-.5A2.5,2.5,0,0,0,66.2,258.6Z" transform="translate(-4.9)" fill="#1e1e1e" stroke="#1e1e1e" stroke-miterlimit="10" stroke-width="0.06"/><path d="M71.6,261.4a2.5,2.5,0,0,1-2.1-.8,2.9,2.9,0,0,1-.8-2.2,3.2,3.2,0,0,1,.8-2.4,2.7,2.7,0,0,1,2.2-.8,2.5,2.5,0,0,1,2.1.8,3.2,3.2,0,0,1,.8,2.3,3.6,3.6,0,0,1-.8,2.3A2.9,2.9,0,0,1,71.6,261.4Zm.1-5.4a1.8,1.8,0,0,0-1.5.6,2.7,2.7,0,0,0,0,3.4,1.9,1.9,0,0,0,1.5.6,1.7,1.7,0,0,0,1.4-.6,2.6,2.6,0,0,0,.5-1.7,2.9,2.9,0,0,0-.5-1.7A1.7,1.7,0,0,0,71.7,256Z" transform="translate(-4.9)" fill="#1e1e1e" stroke="#1e1e1e" stroke-miterlimit="10" stroke-width="0.06"/><path d="M85.7,257.9c0,2.4-1.1,3.5-3.2,3.5s-3.1-1.1-3.1-3.4v-5.1h1V258c0,1.7.7,2.6,2.2,2.6s2.1-.9,2.1-2.5v-5.2h1Z" transform="translate(-4.9)" fill="#1e1e1e" stroke="#1e1e1e" stroke-miterlimit="10" stroke-width="0.06"/><path d="M87.3,261.1v-1a3.4,3.4,0,0,0,1.7.5c.8,0,1.3-.2,1.3-.8s-.1-.3-.1-.4l-.3-.3-.5-.2-.5-.3-.7-.3-.5-.3-.3-.5a1.3,1.3,0,0,1-.1-.6,2.4,2.4,0,0,1,.2-.8l.5-.5.7-.3h.9l1.4.2v1a2.8,2.8,0,0,0-1.5-.4H89l-.4.2c-.1.1-.2.2-.2.3a.4.4,0,0,0-.1.3c0,.2,0,.3.1.4s.1.2.2.3l.4.2.5.2.8.3.5.4a.9.9,0,0,1,.3.5,1.1,1.1,0,0,1,.2.6,1.9,1.9,0,0,1-.2.8c-.2.2-.3.4-.6.5a.9.9,0,0,1-.7.3h-.9A3.8,3.8,0,0,1,87.3,261.1Z" transform="translate(-4.9)" fill="#1e1e1e" stroke="#1e1e1e" stroke-miterlimit="10" stroke-width="0.06"/><path d="M97.6,261.3h-1v-.9h0a2,2,0,0,1-1.9,1c-1.4,0-2.1-.8-2.1-2.5v-3.6h1v3.4c0,1.3.4,1.9,1.4,1.9a1.3,1.3,0,0,0,1.2-.5,1.8,1.8,0,0,0,.4-1.3v-3.5h1Z" transform="translate(-4.9)" fill="#1e1e1e" stroke="#1e1e1e" stroke-miterlimit="10" stroke-width="0.06"/><path d="M103.8,261.3h-.9v-.9h-.1a1.9,1.9,0,0,1-1.8,1,2,2,0,0,1-1.4-.4,1.5,1.5,0,0,1-.5-1.3c0-1.1.6-1.8,2-1.9l1.8-.3c0-1-.5-1.5-1.3-1.5a2.6,2.6,0,0,0-1.9.7v-1a3.3,3.3,0,0,1,2-.5c1.4,0,2.1.7,2.1,2.2Zm-.9-3-1.5.2a1.5,1.5,0,0,0-1,.3,1,1,0,0,0-.3.8,1.1,1.1,0,0,0,.3.8l.8.2a1.3,1.3,0,0,0,1.2-.5,1.7,1.7,0,0,0,.5-1.2Zm.1-6.1-1.6,2h-.7l1.3-2Z" transform="translate(-4.9)" fill="#1e1e1e" stroke="#1e1e1e" stroke-miterlimit="10" stroke-width="0.06"/><path d="M108.8,256.3a1.1,1.1,0,0,0-.8-.2,1.2,1.2,0,0,0-1,.6,2.2,2.2,0,0,0-.4,1.5v3.1h-1v-6h1v1.2h0a2,2,0,0,1,.6-.9,1.3,1.3,0,0,1,1-.4h.6Z" transform="translate(-4.9)" fill="#1e1e1e" stroke="#1e1e1e" stroke-miterlimit="10" stroke-width="0.06"/><path d="M110.3,253.8a.5.5,0,0,1-.4-.2.4.4,0,0,1-.2-.4c0-.2,0-.4.2-.5l.4-.2.4.2c.2.1.2.3.2.5a.4.4,0,0,1-.2.4A.5.5,0,0,1,110.3,253.8Zm.5,7.5h-1v-6h1Z" transform="translate(-4.9)" fill="#1e1e1e" stroke="#1e1e1e" stroke-miterlimit="10" stroke-width="0.06"/><path d="M115.2,261.4a2.5,2.5,0,0,1-2.1-.8,3.3,3.3,0,0,1-.8-2.2,3.6,3.6,0,0,1,.8-2.4,3,3,0,0,1,2.3-.8,2.4,2.4,0,0,1,2,.8,3.2,3.2,0,0,1,.8,2.3,3.6,3.6,0,0,1-.8,2.3A2.9,2.9,0,0,1,115.2,261.4Zm.1-5.4a2,2,0,0,0-1.5.6,3.1,3.1,0,0,0,0,3.4,2,2,0,0,0,1.5.6,1.7,1.7,0,0,0,1.4-.6,2.6,2.6,0,0,0,.5-1.7,2.9,2.9,0,0,0-.5-1.7A1.7,1.7,0,0,0,115.3,256Z" transform="translate(-4.9)" fill="#1e1e1e" stroke="#1e1e1e" stroke-miterlimit="10" stroke-width="0.06"/><path d="M204.6,246.4h-1.1l-.9-2.3H199l-.8,2.3h-1.1l3.2-8.4h1Zm-2.3-3.2-1.3-3.6c-.1-.1-.1-.3-.2-.6h0a3.5,3.5,0,0,1-.1.6l-1.3,3.6Z" transform="translate(-4.9)" fill="#1e1e1e" stroke="#1e1e1e" stroke-miterlimit="10" stroke-width="0.06"/><path d="M206.6,245.5h0v3.7h-1v-8.8h1v1.1h0a2.4,2.4,0,0,1,2.1-1.2,2.1,2.1,0,0,1,1.8.8,3.3,3.3,0,0,1,.6,2.1,3.6,3.6,0,0,1-.7,2.4,2.3,2.3,0,0,1-2,1A2,2,0,0,1,206.6,245.5Zm0-2.4v.9a1.7,1.7,0,0,0,1.7,1.7,1.8,1.8,0,0,0,1.4-.6,3.6,3.6,0,0,0,.5-1.9,2.8,2.8,0,0,0-.5-1.6,1.7,1.7,0,0,0-1.3-.5,1.6,1.6,0,0,0-1.3.6A1.7,1.7,0,0,0,206.6,243.1Z" transform="translate(-4.9)" fill="#1e1e1e" stroke="#1e1e1e" stroke-miterlimit="10" stroke-width="0.06"/><path d="M213.6,246.4h-1v-8.9h1Z" transform="translate(-4.9)" fill="#1e1e1e" stroke="#1e1e1e" stroke-miterlimit="10" stroke-width="0.06"/><path d="M215.9,238.9l-.4-.2-.2-.4a.8.8,0,0,1,.2-.5l.4-.2.5.2a.8.8,0,0,1,.2.5l-.2.4Zm.5,7.5h-1v-6h1Z" transform="translate(-4.9)" fill="#1e1e1e" stroke="#1e1e1e" stroke-miterlimit="10" stroke-width="0.06"/><path d="M222.4,246.1a3.4,3.4,0,0,1-1.7.5,2.9,2.9,0,0,1-2.1-.9,3,3,0,0,1-.7-2.1,3.2,3.2,0,0,1,.8-2.4,3,3,0,0,1,2.3-.9,3.2,3.2,0,0,1,1.4.3v.9a2.8,2.8,0,0,0-1.5-.4,2,2,0,0,0-1.5.6,2.8,2.8,0,0,0-.6,1.8,2.1,2.1,0,0,0,.6,1.6,2,2,0,0,0,1.5.6,2.3,2.3,0,0,0,1.5-.5Z" transform="translate(-4.9)" fill="#1e1e1e" stroke="#1e1e1e" stroke-miterlimit="10" stroke-width="0.06"/><path d="M228,246.4h-.9v-.9H227a2.1,2.1,0,0,1-3.2.6,1.9,1.9,0,0,1-.5-1.3c0-1.1.7-1.8,2-1.9l1.8-.3c0-1-.4-1.5-1.3-1.5a2.8,2.8,0,0,0-1.9.7v-1a4.2,4.2,0,0,1,2-.5c1.4,0,2.1.7,2.1,2.2Zm-.9-3-1.5.2a2.4,2.4,0,0,0-1,.3,1,1,0,0,0-.3.8,1.1,1.1,0,0,0,.3.8,1.1,1.1,0,0,0,.8.2,1.3,1.3,0,0,0,1.2-.5,1.7,1.7,0,0,0,.5-1.2Z" transform="translate(-4.9)" fill="#1e1e1e" stroke="#1e1e1e" stroke-miterlimit="10" stroke-width="0.06"/><path d="M232.6,246.4h-.9c-1.1,0-1.6-.5-1.6-1.7v-3.6h-1v-.8h1v-1.5l.9-.3v1.8h1.6v.8H231v3.4a2,2,0,0,0,.2.9l.7.2a.8.8,0,0,0,.7-.2Z" transform="translate(-4.9)" fill="#1e1e1e" stroke="#1e1e1e" stroke-miterlimit="10" stroke-width="0.06"/><path d="M234.3,238.9l-.5-.2a.6.6,0,0,1,0-.9l.5-.2.4.2a.6.6,0,0,1,0,.9Zm.4,7.5h-.9v-6h.9Z" transform="translate(-4.9)" fill="#1e1e1e" stroke="#1e1e1e" stroke-miterlimit="10" stroke-width="0.06"/><path d="M241.3,240.4l-2.4,6H238l-2.3-6h1.1l1.5,4.4a3.1,3.1,0,0,1,.2.8h0c.1-.3.1-.6.2-.8l1.6-4.4Z" transform="translate(-4.9)" fill="#1e1e1e" stroke="#1e1e1e" stroke-miterlimit="10" stroke-width="0.06"/><path d="M244.8,246.6a2.6,2.6,0,0,1-2.1-.9,2.7,2.7,0,0,1-.8-2.2,3.2,3.2,0,0,1,.8-2.4,3.1,3.1,0,0,1,2.2-.8,2.5,2.5,0,0,1,2.1.8,3.2,3.2,0,0,1,.8,2.3,3.6,3.6,0,0,1-.8,2.3A2.9,2.9,0,0,1,244.8,246.6Zm.1-5.5a1.8,1.8,0,0,0-1.5.6,2.3,2.3,0,0,0-.5,1.7,2.2,2.2,0,0,0,.5,1.7,1.9,1.9,0,0,0,1.5.6,1.7,1.7,0,0,0,1.4-.6,2.6,2.6,0,0,0,.5-1.7,2.9,2.9,0,0,0-.5-1.7A1.7,1.7,0,0,0,244.9,241.1Z" transform="translate(-4.9)" fill="#1e1e1e" stroke="#1e1e1e" stroke-miterlimit="10" stroke-width="0.06"/><path d="M221.8,252.5l-2.4,8.4h-1.2l-1.7-6.1a2.8,2.8,0,0,1-.1-.9h-.1a2.8,2.8,0,0,1-.1.9l-1.8,6.1h-1.1l-2.5-8.4h1.1l1.8,6.5c.1.2.1.5.2.8h0a3.1,3.1,0,0,1,.2-.8l1.8-6.5h1l1.7,6.5a1.9,1.9,0,0,1,.2.8h0a3.1,3.1,0,0,1,.2-.8l1.7-6.5Z" transform="translate(-4.9)" fill="#1e1e1e" stroke="#1e1e1e" stroke-miterlimit="10" stroke-width="0.06"/><path d="M227.2,258.2h-4.3a2,2,0,0,0,.6,1.5,1.6,1.6,0,0,0,1.4.5,2.8,2.8,0,0,0,1.8-.6v.9a3.3,3.3,0,0,1-2.1.6,2.5,2.5,0,0,1-2-.9,3.7,3.7,0,0,1-.7-2.3,3.1,3.1,0,0,1,.8-2.2,2.5,2.5,0,0,1,2-.9,2.1,2.1,0,0,1,1.8.7,3.3,3.3,0,0,1,.7,2.1Zm-1-.9a2.8,2.8,0,0,0-.4-1.3,1.5,1.5,0,0,0-1.1-.4,1.3,1.3,0,0,0-1.2.5,2.3,2.3,0,0,0-.6,1.2Z" transform="translate(-4.9)" fill="#1e1e1e" stroke="#1e1e1e" stroke-miterlimit="10" stroke-width="0.06"/><path d="M229.5,260h0v.9h-1V252h1v4h0a2.4,2.4,0,0,1,2.1-1.2,1.9,1.9,0,0,1,1.8.8,3.3,3.3,0,0,1,.7,2.1,3.6,3.6,0,0,1-.8,2.4,2.2,2.2,0,0,1-2,1A2,2,0,0,1,229.5,260Zm0-2.4v.9a1.7,1.7,0,0,0,.5,1.2,1.3,1.3,0,0,0,1.2.5,1.8,1.8,0,0,0,1.4-.6,3.6,3.6,0,0,0,.5-1.9,2.8,2.8,0,0,0-.5-1.6,1.7,1.7,0,0,0-1.2-.5,1.7,1.7,0,0,0-1.4.6A2.2,2.2,0,0,0,229.5,257.6Z" transform="translate(-4.9)" fill="#1e1e1e" stroke="#1e1e1e" stroke-miterlimit="10" stroke-width="0.06"/><path d="M102,29.9v2.9h-1.9V24.4h3c2.1,0,3.1.9,3.1,2.7a2.5,2.5,0,0,1-.9,2,3.6,3.6,0,0,1-2.4.8Zm0-4.1v2.7h.7c1.1,0,1.6-.5,1.6-1.4s-.5-1.3-1.6-1.3Z" transform="translate(-4.9)" fill="#fff" stroke="#fff" stroke-miterlimit="10" stroke-width="0.05"/><path d="M109.1,32.8h-1.8V23.9h1.8Z" transform="translate(-4.9)" fill="#fff" stroke="#fff" stroke-miterlimit="10" stroke-width="0.05"/><path d="M115.7,32.8h-1.8v-.9h0a1.9,1.9,0,0,1-1.8,1,1.5,1.5,0,0,1-1.3-.5,1.4,1.4,0,0,1-.5-1.3c0-1.1.6-1.8,2-2l1.7-.2c0-.7-.4-1-1.1-1a3.6,3.6,0,0,0-2,.6V27.2a2.3,2.3,0,0,1,1-.4l1.2-.2a2.3,2.3,0,0,1,2.6,2.6ZM114,30.4V30h-1.1c-.6.1-.9.3-.9.8s0,.4.2.5.3.2.6.2a1.1,1.1,0,0,0,.8-.3A1.8,1.8,0,0,0,114,30.4Z" transform="translate(-4.9)" fill="#fff" stroke="#fff" stroke-miterlimit="10" stroke-width="0.05"/><path d="M120.8,32.7a2.2,2.2,0,0,1-1.2.2c-1.4,0-2-.6-2-2V28.2h-1V26.8h1V25.5l1.8-.5v1.8h1.4v1.4h-1.4v2.4c0,.6.3.9.8.9h.6Z" transform="translate(-4.9)" fill="#fff" stroke="#fff" stroke-miterlimit="10" stroke-width="0.05"/><path d="M126.8,32.8h-1.7v-.9H125a1.8,1.8,0,0,1-1.7,1,1.6,1.6,0,0,1-1.4-.5,1.7,1.7,0,0,1-.5-1.3c0-1.1.7-1.8,2.1-2l1.6-.2c0-.7-.4-1-1.1-1a3.6,3.6,0,0,0-2,.6V27.2a2.3,2.3,0,0,1,1-.4l1.3-.2c1.7,0,2.5.9,2.5,2.6Zm-1.7-2.4V30H124c-.6.1-.9.3-.9.8a.8.8,0,0,0,.2.5.7.7,0,0,0,.6.2,1.4,1.4,0,0,0,.9-.3A1.6,1.6,0,0,0,125.1,30.4Z" transform="translate(-4.9)" fill="#fff" stroke="#fff" stroke-miterlimit="10" stroke-width="0.05"/><path d="M132.2,25.3h-.7c-.6,0-.9.3-.9,1v.6H132v1.4h-1.4v4.6h-1.8V28.2h-1V26.8h1V26a2.3,2.3,0,0,1,.6-1.6,2.9,2.9,0,0,1,1.9-.6h.9Z" transform="translate(-4.9)" fill="#fff" stroke="#fff" stroke-miterlimit="10" stroke-width="0.05"/><path d="M135.7,32.9a3,3,0,0,1-2.3-.8,3,3,0,0,1-.9-2.3,2.9,2.9,0,0,1,.9-2.3,3.7,3.7,0,0,1,4.8,0,3.1,3.1,0,0,1,.8,2.2,3.2,3.2,0,0,1-.9,2.4A2.9,2.9,0,0,1,135.7,32.9Zm.1-4.8a1.2,1.2,0,0,0-1,.4,1.7,1.7,0,0,0-.4,1.3c0,1.1.5,1.7,1.4,1.7s1.3-.6,1.3-1.8S136.7,28.1,135.8,28.1Z" transform="translate(-4.9)" fill="#fff" stroke="#fff" stroke-miterlimit="10" stroke-width="0.05"/><path d="M144.1,28.5a.8.8,0,0,0-.7-.2,1.2,1.2,0,0,0-1,.4,2.1,2.1,0,0,0-.3,1.2v2.9h-1.9v-6h1.9v1.1h0a1.6,1.6,0,0,1,1.6-1.2h.4Z" transform="translate(-4.9)" fill="#fff" stroke="#fff" stroke-miterlimit="10" stroke-width="0.05"/><path d="M154.6,32.8h-1.9V29.4c0-.9-.3-1.3-.9-1.3a.9.9,0,0,0-.8.4,1.2,1.2,0,0,0-.3.9v3.4h-1.8V29.3c0-.8-.3-1.2-1-1.2a.9.9,0,0,0-.7.3,1.8,1.8,0,0,0-.3,1.1v3.3H145v-6h1.9v.9h0a3,3,0,0,1,.8-.8,2.3,2.3,0,0,1,1.1-.3,1.7,1.7,0,0,1,1.8,1.2,2.1,2.1,0,0,1,2-1.2c1.3,0,2,.9,2,2.5Z" transform="translate(-4.9)" fill="#fff" stroke="#fff" stroke-miterlimit="10" stroke-width="0.05"/><path d="M161,32.8h-1.7v-.9h-.1a1.9,1.9,0,0,1-1.7,1,1.6,1.6,0,0,1-1.4-.5,1.4,1.4,0,0,1-.5-1.3c0-1.1.7-1.8,2.1-2l1.6-.2c0-.7-.4-1-1.1-1a3.6,3.6,0,0,0-2,.6V27.2a2.3,2.3,0,0,1,1-.4l1.3-.2c1.7,0,2.5.9,2.5,2.6Zm-1.7-2.4V30h-1.1c-.6.1-.9.3-.9.8a.8.8,0,0,0,.2.5.7.7,0,0,0,.6.2,1.6,1.6,0,0,0,.9-.3A1.6,1.6,0,0,0,159.3,30.4Z" transform="translate(-4.9)" fill="#fff" stroke="#fff" stroke-miterlimit="10" stroke-width="0.05"/><path d="M98.2,47.3H96.4v-.8h-.1a2,2,0,0,1-1.8.9,1.9,1.9,0,0,1-1.8-.8,2.9,2.9,0,0,1-.7-2.2,3.6,3.6,0,0,1,.7-2.4,2.7,2.7,0,0,1,2-.9,1.6,1.6,0,0,1,1.6.9h.1V38.4h1.8Zm-1.8-2.9v-.5a1.2,1.2,0,0,0-1.2-1.3,1.2,1.2,0,0,0-1,.4,2.9,2.9,0,0,0-.3,1.4,2.1,2.1,0,0,0,.3,1.2,1.2,1.2,0,0,0,1.8,0A1.6,1.6,0,0,0,96.4,44.4Z" transform="translate(-4.9)" fill="#fff" stroke="#fff" stroke-miterlimit="10" stroke-width="0.05"/><path d="M105.2,44.8h-3.9c0,.9.6,1.3,1.6,1.3a3.1,3.1,0,0,0,1.7-.4V47a4.1,4.1,0,0,1-2.1.4,3,3,0,0,1-2.3-.8,3.1,3.1,0,0,1-.8-2.2,3.2,3.2,0,0,1,.9-2.4,3,3,0,0,1,4.2-.1,3.5,3.5,0,0,1,.7,2.1Zm-1.7-1.1c0-.9-.4-1.3-1.1-1.3a1,1,0,0,0-.8.4,1.9,1.9,0,0,0-.4.9Z" transform="translate(-4.9)" fill="#fff" stroke="#fff" stroke-miterlimit="10" stroke-width="0.05"/><path d="M110.5,40.3c-.3,0-.6,0-.7-.2a1,1,0,0,1,0-1.4.8.8,0,0,1,.7-.3,1.1,1.1,0,0,1,.8.3,1,1,0,0,1,0,1.4A1.1,1.1,0,0,1,110.5,40.3Zm.9,7h-1.8v-6h1.8Z" transform="translate(-4.9)" fill="#fff" stroke="#fff" stroke-miterlimit="10" stroke-width="0.05"/><path d="M118.9,47.3H117v-.8h0a2.2,2.2,0,0,1-1.9.9,2.2,2.2,0,0,1-1.8-.8,3.4,3.4,0,0,1-.7-2.2,3.6,3.6,0,0,1,.8-2.4,2.5,2.5,0,0,1,2-.9,1.7,1.7,0,0,1,1.6.9h0V38.4h1.9ZM117,44.4v-.5a1.2,1.2,0,0,0-.3-.9,1.2,1.2,0,0,0-1.8,0,2.6,2.6,0,0,0-.1,2.6,1.3,1.3,0,0,0,1,.4,1.1,1.1,0,0,0,.9-.4A2.1,2.1,0,0,0,117,44.4Z" transform="translate(-4.9)" fill="#fff" stroke="#fff" stroke-miterlimit="10" stroke-width="0.05"/><path d="M125.8,44.8h-3.9c.1.9.6,1.3,1.6,1.3a3.4,3.4,0,0,0,1.8-.4V47a4.8,4.8,0,0,1-2.2.4,2.8,2.8,0,0,1-3-3,3.6,3.6,0,0,1,.8-2.4,2.9,2.9,0,0,1,2.2-.9,2.8,2.8,0,0,1,2,.8,3,3,0,0,1,.7,2.1Zm-1.7-1.1c0-.9-.4-1.3-1-1.3a.9.9,0,0,0-.8.4,1.3,1.3,0,0,0-.4.9Z" transform="translate(-4.9)" fill="#fff" stroke="#fff" stroke-miterlimit="10" stroke-width="0.05"/><path d="M132.7,47.3h-1.8V44c0-1-.4-1.4-1-1.4a1,1,0,0,0-.8.3,1.7,1.7,0,0,0-.3,1v3.4h-1.9v-6h1.9v.9h0a2.1,2.1,0,0,1,1.9-1.1c1.3,0,2,.9,2,2.5Z" transform="translate(-4.9)" fill="#fff" stroke="#fff" stroke-miterlimit="10" stroke-width="0.05"/><path d="M137.8,47.2a2.2,2.2,0,0,1-1.2.2,1.8,1.8,0,0,1-2-2V42.7h-1V41.3h1V40l1.9-.5v1.8h1.3v1.4h-1.3v2.4c0,.6.2.9.7.9h.6Z" transform="translate(-4.9)" fill="#fff" stroke="#fff" stroke-miterlimit="10" stroke-width="0.05"/><path d="M139.8,40.3a1.1,1.1,0,0,1-.8-.2,1,1,0,0,1,0-1.4,1.1,1.1,0,0,1,.8-.3.8.8,0,0,1,.7.3,1,1,0,0,1,0,1.4C140.4,40.3,140.1,40.3,139.8,40.3Zm.9,7h-1.9v-6h1.9Z" transform="translate(-4.9)" fill="#fff" stroke="#fff" stroke-miterlimit="10" stroke-width="0.05"/><path d="M148.1,47.3h-1.8v-.8h-.1a2,2,0,0,1-1.8.9,1.9,1.9,0,0,1-1.8-.8,2.9,2.9,0,0,1-.7-2.2,3.2,3.2,0,0,1,.8-2.4,2.3,2.3,0,0,1,1.9-.9,1.6,1.6,0,0,1,1.6.9h.1V38.4h1.8Zm-1.8-2.9v-.5a1.2,1.2,0,0,0-1.2-1.3,1.3,1.3,0,0,0-1,.4,2.9,2.9,0,0,0-.3,1.4,2.1,2.1,0,0,0,.3,1.2,1,1,0,0,0,.9.4,1.3,1.3,0,0,0,1-.4A2.1,2.1,0,0,0,146.3,44.4Z" transform="translate(-4.9)" fill="#fff" stroke="#fff" stroke-miterlimit="10" stroke-width="0.05"/><path d="M154.7,47.3h-1.8v-.9h0a1.9,1.9,0,0,1-1.8,1,1.7,1.7,0,0,1-1.9-1.8c0-1.1.7-1.8,2.1-2l1.6-.2c0-.7-.3-1-1-1a4.2,4.2,0,0,0-2.1.6V41.7l1.1-.4,1.2-.2a2.3,2.3,0,0,1,2.6,2.6Zm-1.8-2.4v-.4h-1.1c-.6.1-.9.3-.9.8a.5.5,0,0,0,.3.5c.1.2.3.2.6.2a1.1,1.1,0,0,0,.8-.3A1.6,1.6,0,0,0,152.9,44.9Z" transform="translate(-4.9)" fill="#fff" stroke="#fff" stroke-miterlimit="10" stroke-width="0.05"/><path d="M162,47.3h-1.8v-.8h-.1a2,2,0,0,1-1.8.9,1.9,1.9,0,0,1-1.8-.8,2.9,2.9,0,0,1-.7-2.2,3.6,3.6,0,0,1,.7-2.4,2.5,2.5,0,0,1,2-.9,1.6,1.6,0,0,1,1.6.9h.1V38.4H162Zm-1.8-2.9v-.5a1.2,1.2,0,0,0-1.2-1.3,1.2,1.2,0,0,0-1,.4,2.9,2.9,0,0,0-.3,1.4,2.1,2.1,0,0,0,.3,1.2,1.2,1.2,0,0,0,1.8,0A1.6,1.6,0,0,0,160.2,44.4Z" transform="translate(-4.9)" fill="#fff" stroke="#fff" stroke-miterlimit="10" stroke-width="0.05"/><path d="M169,44.8h-4c.1.9.7,1.3,1.7,1.3a3.1,3.1,0,0,0,1.7-.4V47a4.1,4.1,0,0,1-2.1.4,2.8,2.8,0,0,1-2.3-.8,3.1,3.1,0,0,1-.8-2.2,3.2,3.2,0,0,1,.9-2.4,2.9,2.9,0,0,1,2.1-.9,2.5,2.5,0,0,1,2,.8A3,3,0,0,1,169,44Zm-1.8-1.1c0-.9-.3-1.3-1-1.3a.9.9,0,0,0-.8.4,1.9,1.9,0,0,0-.4.9Z" transform="translate(-4.9)" fill="#fff" stroke="#fff" stroke-miterlimit="10" stroke-width="0.05"/><path d="M101.2,61.8H99.3V61h0a2.2,2.2,0,0,1-1.9.9,2.2,2.2,0,0,1-1.8-.8,3.4,3.4,0,0,1-.7-2.2,3.6,3.6,0,0,1,.8-2.4,2.4,2.4,0,0,1,2-.9,1.7,1.7,0,0,1,1.6.9h0V52.9h1.9Zm-1.9-2.9v-.5a1.2,1.2,0,0,0-.3-.9,1,1,0,0,0-.9-.4,1.3,1.3,0,0,0-1,.4,2.9,2.9,0,0,0-.3,1.4,2.1,2.1,0,0,0,.3,1.2,1.3,1.3,0,0,0,1,.4,1.2,1.2,0,0,0,.9-.4A2.1,2.1,0,0,0,99.3,58.9Z" transform="translate(-4.9)" fill="#fff" stroke="#fff" stroke-miterlimit="10" stroke-width="0.05"/><path d="M107.7,61.8H106v-.9h-.1a1.9,1.9,0,0,1-1.8,1,1.5,1.5,0,0,1-1.3-.5,1.4,1.4,0,0,1-.5-1.3c0-1.1.7-1.8,2-2l1.7-.2c0-.7-.4-1-1.1-1a3.6,3.6,0,0,0-2,.6V56.2a2.3,2.3,0,0,1,1-.4l1.2-.2a2.3,2.3,0,0,1,2.6,2.6ZM106,59.4V59h-1.1c-.6.1-.9.3-.9.8s0,.4.2.5.3.2.6.2a1.1,1.1,0,0,0,.8-.3A1.2,1.2,0,0,0,106,59.4Z" transform="translate(-4.9)" fill="#fff" stroke="#fff" stroke-miterlimit="10" stroke-width="0.05"/><path d="M122.2,61.8h-1.8V55h0a5.3,5.3,0,0,1-.3,1.1l-1.9,5.7h-1.6l-2-5.7a6.2,6.2,0,0,0-.3-1.1h0c0,.8.1,1.5.1,2.1v4.7h-1.7V53.4h2.7l1.7,5a2.7,2.7,0,0,1,.3,1.2h.1a10.4,10.4,0,0,1,.3-1.2l1.7-5h2.7Z" transform="translate(-4.9)" fill="#fff" stroke="#fff" stroke-miterlimit="10" stroke-width="0.05"/><path d="M124.9,54.8a1.1,1.1,0,0,1-.8-.2,1,1,0,0,1,0-1.4,1.2,1.2,0,0,1,1.6,0,1,1,0,0,1,0,1.4A1.1,1.1,0,0,1,124.9,54.8Zm.9,7H124v-6h1.8Z" transform="translate(-4.9)" fill="#fff" stroke="#fff" stroke-miterlimit="10" stroke-width="0.05"/><path d="M131.9,61.6a4.2,4.2,0,0,1-1.8.3,2.7,2.7,0,0,1-2.2-.8,2.9,2.9,0,0,1-.9-2.2,3.2,3.2,0,0,1,.9-2.4,3.5,3.5,0,0,1,2.5-.9,2.8,2.8,0,0,1,1.5.3v1.6a2,2,0,0,0-1.3-.4,1.6,1.6,0,0,0-1.2.4,1.9,1.9,0,0,0-.5,1.3,1.8,1.8,0,0,0,.4,1.3,1.7,1.7,0,0,0,1.3.4,2.2,2.2,0,0,0,1.3-.4Z" transform="translate(-4.9)" fill="#fff" stroke="#fff" stroke-miterlimit="10" stroke-width="0.05"/><path d="M137,57.5a.8.8,0,0,0-.7-.2,1.2,1.2,0,0,0-1,.4,2.1,2.1,0,0,0-.3,1.2v2.9h-1.9v-6H135v1.1h0a1.6,1.6,0,0,1,1.6-1.2h.4Z" transform="translate(-4.9)" fill="#fff" stroke="#fff" stroke-miterlimit="10" stroke-width="0.05"/><path d="M140.7,61.9a2.8,2.8,0,0,1-2.3-.8,3,3,0,0,1-.9-2.3,2.9,2.9,0,0,1,.9-2.3,3.2,3.2,0,0,1,2.4-.9,2.9,2.9,0,0,1,2.3.9,2.8,2.8,0,0,1,.9,2.2,3.2,3.2,0,0,1-.9,2.4A3.2,3.2,0,0,1,140.7,61.9Zm.1-4.8a1.4,1.4,0,0,0-1.1.4,2.3,2.3,0,0,0-.3,1.3c0,1.1.4,1.7,1.4,1.7s1.3-.6,1.3-1.8S141.7,57.1,140.8,57.1Z" transform="translate(-4.9)" fill="#fff" stroke="#fff" stroke-miterlimit="10" stroke-width="0.05"/><path d="M144.8,61.6V60.1a1.8,1.8,0,0,0,.9.4l.9.2.7-.2c.2,0,.3-.2.3-.4a.4.4,0,0,0-.1-.3l-.3-.2h-.5l-.4-.2-.7-.3-.4-.3-.3-.5a1.3,1.3,0,0,1-.1-.6,2,2,0,0,1,.2-.9,1.7,1.7,0,0,1,.6-.6,1.3,1.3,0,0,1,.8-.3l1-.2h.8l.8.2v1.4l-.7-.3h-1.4c-.1.1-.2.1-.2.2s-.1.1-.1.2a.4.4,0,0,0,.1.3l.3.2h.4l.4.2.7.3.5.3.3.5a1.5,1.5,0,0,1,.1.7,2.9,2.9,0,0,1-.2.9l-.6.6a3.2,3.2,0,0,1-.9.3h-1.1A5.7,5.7,0,0,1,144.8,61.6Z" transform="translate(-4.9)" fill="#fff" stroke="#fff" stroke-miterlimit="10" stroke-width="0.05"/><path d="M153.3,61.9a2.8,2.8,0,0,1-2.3-.8,3,3,0,0,1-.9-2.3,2.9,2.9,0,0,1,.9-2.3,3.6,3.6,0,0,1,4.8,0,3.1,3.1,0,0,1,.8,2.2,3.2,3.2,0,0,1-.9,2.4A2.9,2.9,0,0,1,153.3,61.9Zm.1-4.8a1.1,1.1,0,0,0-1,.4,1.7,1.7,0,0,0-.4,1.3c0,1.1.5,1.7,1.4,1.7s1.3-.6,1.3-1.8S154.3,57.1,153.4,57.1Z" transform="translate(-4.9)" fill="#fff" stroke="#fff" stroke-miterlimit="10" stroke-width="0.05"/><path d="M161.5,54.3h-.6c-.6,0-.9.3-.9,1v.6h1.3v1.4H160v4.6h-1.9V57.2h-1V55.8h1V55a2,2,0,0,1,.7-1.6,2.4,2.4,0,0,1,1.8-.6h.9Z" transform="translate(-4.9)" fill="#fff" stroke="#fff" stroke-miterlimit="10" stroke-width="0.05"/><path d="M166.1,61.7a2.4,2.4,0,0,1-1.3.2c-1.3,0-1.9-.6-1.9-2V57.2h-1V55.8h1V54.5l1.8-.5v1.8h1.4v1.4h-1.4v2.4c0,.6.3.9.8.9h.6Z" transform="translate(-4.9)" fill="#fff" stroke="#fff" stroke-miterlimit="10" stroke-width="0.05"/></svg>