<svg xmlns="http://www.w3.org/2000/svg" xmlns:xlink="http://www.w3.org/1999/xlink" viewBox="0 0 433 302.1"><defs><symbol id="a" viewBox="0 0 21 20"><circle cx="10.5" cy="10" r="10" fill="#505050"/><path d="M13,14.4H7.7v-.7a2.2,2.2,0,0,1,.1-.8l.3-.7c.1-.2.3-.2.5-.4l.5-.5.6-.5.6-.5.5-.5.4-.5.3-.5c.1-.2,0-.3,0-.5a1.3,1.3,0,0,0-.1-.6l-.3-.4c-.2-.2-.2-.2-.4-.2h-.6l-1,.2a3,3,0,0,0-1,.7V6.6l.5-.3.5-.2.6-.2h.7l1,.2a2,2,0,0,1,.8.4,1.8,1.8,0,0,1,.5.7,3,3,0,0,1,.2,1,2.8,2.8,0,0,1-.1.9,3.6,3.6,0,0,1-.4.9l-.6.6c-.3.2-.4.5-.7.7l-.7.5-.6.5-.4.5a.8.8,0,0,0-.2.5H13v1.2Z" fill="#fff"/></symbol><symbol id="b" viewBox="0 0 21 20"><circle cx="10.5" cy="10" r="10" fill="#505050"/><path d="M11.7,5.8v8.6H10.3V7.5L9.5,8a2.9,2.9,0,0,1-1,.3V7.1l.7-.2.6-.3.7-.3.6-.5Z" fill="#fff"/></symbol><symbol id="c" viewBox="0 0 21 20"><circle cx="10.5" cy="10" r="10" fill="#505050"/><path d="M7.9,14.1V12.8a3.1,3.1,0,0,0,1.9.6,1.7,1.7,0,0,0,1.3-.4,1.4,1.4,0,0,0,.5-1c0-1-.7-1.4-2.2-1.4H8.8V9.5h.6c1.3,0,1.9-.4,1.9-1.4S10.8,7,9.8,7a2.5,2.5,0,0,0-1.6.6V6.4a4.2,4.2,0,0,1,2-.5,2.6,2.6,0,0,1,1.8.6A1.8,1.8,0,0,1,12.7,8,2,2,0,0,1,11,10h0a2.6,2.6,0,0,1,1.4.6A2.2,2.2,0,0,1,13,12a2,2,0,0,1-.9,1.8,3.9,3.9,0,0,1-2.2.8A3.7,3.7,0,0,1,7.9,14.1Z" fill="#fff"/></symbol><symbol id="d" viewBox="0 0 21 20"><circle cx="10.5" cy="10" r="10" fill="#505050"/><path d="M8.1,14.2V12.9a2.7,2.7,0,0,0,1.7.6,2.9,2.9,0,0,0,1.4-.4,1.2,1.2,0,0,0,.5-1.2,1.1,1.1,0,0,0-.6-1.1,3.3,3.3,0,0,0-1.5-.4H8.2L8.5,6h4.1V7.2h-3V9.3h.7a2.8,2.8,0,0,1,2.1.7,2.3,2.3,0,0,1,.7,1.8,2.8,2.8,0,0,1-.8,2,3.2,3.2,0,0,1-2.3.8A3,3,0,0,1,8.1,14.2Z" fill="#fff"/></symbol><symbol id="e" viewBox="0 0 21 20"><circle cx="10.5" cy="10" r="10" fill="#505050"/><path d="M12.5,6v5.4h1.3v1.1H12.5v1.8H11.1V12.5H7.3V11.4l1.1-1.3,1-1.4.9-1.4A9.1,9.1,0,0,0,11.1,6Zm-1.4,5.5V8a17.4,17.4,0,0,1-1.3,2,8.5,8.5,0,0,1-1.1,1.4Z" fill="#fff"/></symbol></defs><title>OJ104327284</title><rect width="433" height="299.7" fill="#fff"/><rect x="149.4" y="41" width="220.7" height="17.5" fill="#ebebeb"/><rect x="251.9" y="37.5" width="46.3" height="24.9" fill="#fff"/><path d="M300,31.8a.8.8,0,0,0-.8-.8H250.9a.8.8,0,0,0-.8.8V62a.8.8,0,0,0,.8.8h48.3a.8.8,0,0,0,.8-.8Zm-43.1,4.8h-2.5V34.1h2.5Zm5,0h-2.5V34.1h2.5Zm5,0h-2.5V34.1h2.5Zm-15,1.8h46.3V60.9H251.9V38.4Z" fill="#0072c6"/><circle cx="239" cy="46.9" r="18.5" fill="#ebebeb"/><path d="M239,66.3a19.5,19.5,0,1,1,19.5-19.5A19.5,19.5,0,0,1,239,66.3Zm0-36.9a17.5,17.5,0,1,0,17.5,17.5A17.5,17.5,0,0,0,239,29.4Z" fill="#3c3c41"/><path d="M244,38a5,5,0,0,1-10,0,5.1,5.1,0,0,1,5-5,5,5,0,0,1,5,5" fill="#75757a"/><polygon points="242.6 44.8 238.9 49.9 235.3 44.8 230 44.8 230 57.4 248 57.4 248 44.8 242.6 44.8" fill="#75757a"/><path d="M234,38a5,5,0,0,0,4.9,5l1.3-9.9a2.5,2.5,0,0,0-1.2-.2,5,5,0,0,0-5,5.1" fill="#fff" opacity="0.2" style="isolation:isolate"/><polygon points="235.3 44.8 230 44.8 230 57.4 237 57.4 238.1 48.7 235.3 44.8" fill="#fff" opacity="0.2" style="isolation:isolate"/><rect y="223.8" width="96" height="55" fill="#fff"/><rect y="223.8" width="96" height="55" fill="#50e6ff" opacity="0.65" style="isolation:isolate"/><rect x="210.3" y="223.8" width="95" height="55" fill="#fff"/><rect x="210.3" y="223.8" width="95" height="55" fill="#50e6ff" opacity="0.65" style="isolation:isolate"/><rect x="221" y="233.8" width="75" height="35" fill="#3c3c41"/><circle cx="273.5" cy="197.4" r="4.6" fill="#50e6ff" stroke="#0072c6" stroke-miterlimit="10" stroke-width="0.75"/><line x1="273.5" y1="202.3" x2="273.5" y2="223.8" fill="none" stroke="#000"/><path d="M351.4,58.8v93a9,9,0,0,1-4.5,7.3l-62,31.3" fill="none" stroke="#000" stroke-miterlimit="10"/><polygon points="284.3 186.5 280.2 192.8 287.6 193.2 284.3 186.5"/><path d="M220.9,64.2v86.1a11.1,11.1,0,0,0,4,8l39.1,29.2" fill="none" stroke="#000" stroke-miterlimit="10"/><polygon points="217.2 65.3 220.9 58.8 224.7 65.3 217.2 65.3"/><polygon points="261 189.8 268.4 190.6 265.4 183.8 261 189.8"/><use width="21" height="20" transform="translate(210.5 91.2)" xlink:href="#a"/><path d="M165.3,64.2v87.6a7.8,7.8,0,0,0,4.7,6.8l89.7,34.3" fill="none" stroke="#000" stroke-miterlimit="10"/><polygon points="161.5 65.3 165.3 58.8 169 65.3 161.5 65.3"/><polygon points="257.2 196 264.6 194.8 259.9 189 257.2 196"/><use width="21" height="20" transform="translate(154.8 91.2)" xlink:href="#b"/><line x1="271.5" y1="68.7" x2="271.5" y2="184.3" fill="none" stroke="#000" stroke-miterlimit="10"/><polygon points="267.8 69.8 271.5 63.3 275.2 69.8 267.8 69.8"/><polygon points="267.8 183.2 271.5 189.7 275.2 183.2 267.8 183.2"/><use width="21" height="20" transform="translate(261 91.2)" xlink:href="#c"/><use width="21" height="20" transform="translate(340.9 91.2)" xlink:href="#d"/><rect x="217.7" y="117.6" width="6.8" height="15.7" fill="#fff"/><polygon points="319.4 163.8 310.8 170 314.1 180 324.7 180 328 170 319.4 163.8" fill="#50e6ff" stroke="#0072c6" stroke-miterlimit="10" stroke-width="0.75"/><path d="M221,237.7H77.5c-7.2,0-13,4.1-13,9.1s5.8,9.1,13,9.1H215.7" fill="none" stroke="#000" stroke-miterlimit="10"/><polygon points="214.5 259.7 221 256 214.5 252.2 214.5 259.7"/><rect x="29.5" y="239" width="37" height="19.9" fill="#fff"/><path d="M68,234.4a.7.7,0,0,0-.7-.7H28.7a.7.7,0,0,0-.7.7v24.2a.7.7,0,0,0,.7.7H67.4a.7.7,0,0,0,.7-.7V234.4Zm-34.5,3.9h-2v-2h2Zm4,0h-2v-2h2Zm4,0h-2v-2h2Zm-12,1.5h37v18h-37Z" fill="#001f50"/><use width="21" height="20" transform="translate(142.8 230.9)" xlink:href="#e"/><rect x="73.6" y="88.6" width="80.4" height="43.5" fill="none"/><rect x="231.1" y="0.9" width="80.4" height="43.5" fill="none"/><rect x="115.8" y="258.6" width="75" height="43.5" fill="none"/><rect x="221" y="239.1" width="75" height="43.5" fill="none"/><path d="M5.7,212.8H1.4v-8.4h.9v7.5H5.7Z"/><path d="M9.4,212.9a2.9,2.9,0,0,1-2.1-.8,3.7,3.7,0,0,1,0-4.6,2.8,2.8,0,0,1,2.2-.9,2.6,2.6,0,0,1,2.1.9,3.2,3.2,0,0,1,.8,2.3,3.6,3.6,0,0,1-.8,2.3A3.3,3.3,0,0,1,9.4,212.9Zm0-5.5a1.7,1.7,0,0,0-1.4.7,2.7,2.7,0,0,0,0,3.4,1.8,1.8,0,0,0,1.4.6,1.9,1.9,0,0,0,1.5-.6,2.9,2.9,0,0,0,.5-1.7,2.6,2.6,0,0,0-.5-1.7A2,2,0,0,0,9.4,207.4Z"/><path d="M18,212.5a2.9,2.9,0,0,1-1.6.4,2.9,2.9,0,0,1-2.1-.8,3.3,3.3,0,0,1-.8-2.2,3.6,3.6,0,0,1,.8-2.4,3.4,3.4,0,0,1,3.7-.6v1a2.4,2.4,0,0,0-1.4-.5,2.1,2.1,0,0,0-1.5.7,2.4,2.4,0,0,0-.6,1.7,2.9,2.9,0,0,0,.5,1.7,2,2,0,0,0,1.5.6,3,3,0,0,0,1.5-.5Z"/><path d="M23.7,212.8h-.9v-1h0a2.1,2.1,0,0,1-1.9,1.1,1.6,1.6,0,0,1-1.4-.5,1.7,1.7,0,0,1-.5-1.2c0-1.1.7-1.8,2-2l1.8-.2c0-1-.4-1.6-1.3-1.6a2.9,2.9,0,0,0-1.9.8v-1a3.6,3.6,0,0,1,2-.6c1.4,0,2.1.8,2.1,2.3Zm-.9-3.1-1.5.2-1,.4c-.2.1-.3.4-.3.8a.9.9,0,0,0,.3.7,1.1,1.1,0,0,0,.8.3,1.7,1.7,0,0,0,1.2-.5,1.7,1.7,0,0,0,.5-1.3Z"/><path d="M28.3,212.7l-.9.2c-1,0-1.5-.6-1.5-1.7v-3.6H24.8v-.8h1.1v-1.5l.9-.3v1.8h1.5v.8H26.8V211a1.3,1.3,0,0,0,.2.8.9.9,0,0,0,.7.3l.6-.2Z"/><path d="M33.9,212.8H33v-1h-.1a1.8,1.8,0,0,1-1.8,1.1,1.6,1.6,0,0,1-1.4-.5,1.3,1.3,0,0,1-.5-1.2c0-1.1.6-1.8,2-2L33,209c0-1-.5-1.6-1.3-1.6a2.7,2.7,0,0,0-1.9.8v-1a3.2,3.2,0,0,1,2-.6c1.4,0,2.1.8,2.1,2.3Zm-.9-3.1-1.5.2a2.3,2.3,0,0,0-1,.4c-.2.1-.3.4-.3.8a.9.9,0,0,0,.3.7,1.1,1.1,0,0,0,.8.3,1.7,1.7,0,0,0,1.2-.5,1.7,1.7,0,0,0,.5-1.3Zm.1-6-1.6,1.9h-.7l1.3-1.9Z"/><path d="M38.9,207.8a1.1,1.1,0,0,0-.8-.2,1.4,1.4,0,0,0-1,.5,2.7,2.7,0,0,0-.4,1.6v3.1h-1v-6h1V208h0a3.3,3.3,0,0,1,.6-1,1.7,1.7,0,0,1,1-.3h.6Z"/><path d="M40.4,205.3l-.5-.2a.7.7,0,0,1-.1-.5.6.6,0,0,1,.1-.4l.5-.2.4.2a.4.4,0,0,1,.2.4c0,.2,0,.4-.2.5A.5.5,0,0,1,40.4,205.3Zm.5,7.5h-1v-6h1Z"/><path d="M45.3,212.9a2.9,2.9,0,0,1-2.1-.8,3.7,3.7,0,0,1,0-4.6,2.9,2.9,0,0,1,2.2-.9,2.6,2.6,0,0,1,2.1.9,3.2,3.2,0,0,1,.8,2.3,3.6,3.6,0,0,1-.8,2.3A3.3,3.3,0,0,1,45.3,212.9Zm.1-5.5a2.1,2.1,0,0,0-1.5.7,3.1,3.1,0,0,0,0,3.4,2,2,0,0,0,1.5.6,1.7,1.7,0,0,0,1.4-.6,2.9,2.9,0,0,0,.5-1.7,2.6,2.6,0,0,0-.5-1.7A1.7,1.7,0,0,0,45.4,207.4Z"/><path d="M59.8,212.8H58.7l-.9-2.4H54.2l-.8,2.4H52.3l3.2-8.4h1Zm-2.4-3.3L56.1,206c0-.2-.1-.3-.1-.6h0c-.1.2-.1.4-.2.6l-1.3,3.5Z"/><path d="M215.6,212.8h-4.3v-8.4h1v7.5h3.3Z"/><path d="M219.3,212.9a2.9,2.9,0,0,1-2.1-.8,3,3,0,0,1-.8-2.3,3.4,3.4,0,0,1,.8-2.3,2.9,2.9,0,0,1,2.2-.9,2.6,2.6,0,0,1,2.1.9,3.2,3.2,0,0,1,.8,2.3,3.6,3.6,0,0,1-.8,2.3A3.3,3.3,0,0,1,219.3,212.9Zm.1-5.5a2.1,2.1,0,0,0-1.5.7,3.1,3.1,0,0,0,0,3.4,2,2,0,0,0,1.5.6,1.7,1.7,0,0,0,1.4-.6,2.9,2.9,0,0,0,.5-1.7,2.6,2.6,0,0,0-.5-1.7A1.7,1.7,0,0,0,219.4,207.4Z"/><path d="M227.9,212.5a2.7,2.7,0,0,1-1.6.4,2.9,2.9,0,0,1-2.1-.8,3.3,3.3,0,0,1-.8-2.2,3.2,3.2,0,0,1,.9-2.4,2.8,2.8,0,0,1,2.2-.9,2.9,2.9,0,0,1,1.4.3v1a2.4,2.4,0,0,0-1.4-.5,2.1,2.1,0,0,0-1.5.7,2.7,2.7,0,0,0,0,3.4,1.7,1.7,0,0,0,1.4.6,2.5,2.5,0,0,0,1.5-.5Z"/><path d="M233.7,212.8h-1v-1h0a2,2,0,0,1-1.9,1.1,1.7,1.7,0,0,1-1.4-.5,1.7,1.7,0,0,1-.5-1.2c0-1.1.7-1.8,2-2l1.8-.2c0-1-.4-1.6-1.2-1.6a3,3,0,0,0-2,.8v-1a3.6,3.6,0,0,1,2-.6c1.5,0,2.2.8,2.2,2.3Zm-1-3.1-1.4.2-1.1.4c-.2.1-.3.4-.3.8a.9.9,0,0,0,.3.7,1.2,1.2,0,0,0,.9.3,1.6,1.6,0,0,0,1.1-.5,1.7,1.7,0,0,0,.5-1.3Z"/><path d="M238.3,212.7l-.9.2c-1.1,0-1.6-.6-1.6-1.7v-3.6h-1v-.8h1v-1.5l.9-.3v1.8h1.6v.8h-1.6V211a1.3,1.3,0,0,0,.2.8.9.9,0,0,0,.7.3l.7-.2Z"/><path d="M243.8,212.8h-.9v-1h-.1a1.8,1.8,0,0,1-1.8,1.1,1.6,1.6,0,0,1-1.4-.5,1.7,1.7,0,0,1-.5-1.2c0-1.1.7-1.8,2-2l1.8-.2c0-1-.4-1.6-1.3-1.6a2.9,2.9,0,0,0-1.9.8v-1a3.4,3.4,0,0,1,2-.6c1.4,0,2.1.8,2.1,2.3Zm-.9-3.1-1.5.2a2.3,2.3,0,0,0-1,.4c-.2.1-.3.4-.3.8a.9.9,0,0,0,.3.7,1.1,1.1,0,0,0,.8.3,1.7,1.7,0,0,0,1.2-.5,1.7,1.7,0,0,0,.5-1.3Zm.1-6-1.5,1.9h-.8l1.3-1.9Z"/><path d="M248.8,207.8c-.2-.2-.4-.2-.8-.2a1.4,1.4,0,0,0-1,.5,2.7,2.7,0,0,0-.4,1.6v3.1h-1v-6h1V208h0a3.6,3.6,0,0,1,.7-1,1.2,1.2,0,0,1,.9-.3h.6Z"/><path d="M250.3,205.3a.5.5,0,0,1-.4-.2c-.2-.1-.2-.3-.2-.5a.4.4,0,0,1,.2-.4l.4-.2.5.2a.6.6,0,0,1,.1.4.7.7,0,0,1-.1.5Zm.5,7.5h-1v-6h1Z"/><path d="M255.2,212.9a2.9,2.9,0,0,1-2.1-.8,3.7,3.7,0,0,1,0-4.6,3,3,0,0,1,2.3-.9,2.6,2.6,0,0,1,2.1.9,3.2,3.2,0,0,1,.7,2.3,3.6,3.6,0,0,1-.8,2.3A3.1,3.1,0,0,1,255.2,212.9Zm.1-5.5a2.1,2.1,0,0,0-1.5.7,3.1,3.1,0,0,0,0,3.4,2,2,0,0,0,1.5.6,1.7,1.7,0,0,0,1.4-.6,2.3,2.3,0,0,0,.5-1.7,2.2,2.2,0,0,0-.5-1.7A1.7,1.7,0,0,0,255.3,207.4Z"/><path d="M263.2,212.8v-8.4h2.4a2.9,2.9,0,0,1,1.7.5,1.8,1.8,0,0,1,.6,1.4,1.6,1.6,0,0,1-.4,1.2,2,2,0,0,1-1,.8h0a2.1,2.1,0,0,1,1.3.7,1.6,1.6,0,0,1,.5,1.4,2.1,2.1,0,0,1-.7,1.7,2.7,2.7,0,0,1-2,.7Zm1-7.5V208h1a1.6,1.6,0,0,0,1.2-.4,1.4,1.4,0,0,0,.5-1.1c0-.8-.5-1.2-1.6-1.2Zm0,3.6v3h1.3a1.7,1.7,0,0,0,1.3-.4,1.3,1.3,0,0,0,.5-1.1c0-1-.7-1.5-2-1.5Z"/><path d="M193.6,129h-1.1l-.9-2.4h-3.5l-.9,2.4h-1.1l3.3-8.4h1Zm-2.3-3.3-1.3-3.6a4.3,4.3,0,0,1-.1-.5h-.1a.7.7,0,0,1-.1.5l-1.3,3.6Z"/><path d="M199.6,129h-1v-1h0a2,2,0,0,1-1.9,1.1c-1.4,0-2.1-.8-2.1-2.5V123h1v3.4c0,1.3.4,1.9,1.4,1.9a1.7,1.7,0,0,0,1.2-.5,2.1,2.1,0,0,0,.4-1.4V123h1Z"/><path d="M204.3,128.9l-.9.2c-1,0-1.6-.6-1.6-1.8v-3.5h-1V123h1v-1.5l1-.3V123h1.5v.8h-1.5v3.4a1.3,1.3,0,0,0,.2.8.8.8,0,0,0,.7.3l.6-.2Z"/><path d="M210.4,126.2h-4.2a2.5,2.5,0,0,0,.5,1.6,2.2,2.2,0,0,0,1.4.5,2.8,2.8,0,0,0,1.9-.7v.9a3.3,3.3,0,0,1-2.1.6,2.8,2.8,0,0,1-2-.8,3.3,3.3,0,0,1-.7-2.3,3.1,3.1,0,0,1,.8-2.3,2.5,2.5,0,0,1,1.9-.9,2.6,2.6,0,0,1,1.9.8,3.3,3.3,0,0,1,.6,2.1Zm-1-.8a1.7,1.7,0,0,0-.4-1.3,1.3,1.3,0,0,0-1.1-.5,1.6,1.6,0,0,0-1.1.5,2.6,2.6,0,0,0-.6,1.3Z"/><path d="M216.8,129h-.9v-3.5c0-1.2-.5-1.9-1.4-1.9a1.4,1.4,0,0,0-1.2.6,1.9,1.9,0,0,0-.5,1.3V129h-.9v-6h.9v1h0a2.3,2.3,0,0,1,2-1.2,1.6,1.6,0,0,1,1.5.7,2.4,2.4,0,0,1,.5,1.8Z"/><path d="M221.4,128.9l-.9.2q-1.5,0-1.5-1.8v-3.5h-1.1V123H219v-1.5l.9-.3V123h1.5v.8h-1.5v3.4a1.3,1.3,0,0,0,.2.8.9.9,0,0,0,.7.3l.6-.2Z"/><path d="M223.2,121.4h-.4a.8.8,0,0,1-.2-.5.7.7,0,0,1,.6-.6l.5.2c.1.1.1.2.1.4a.9.9,0,0,1-.1.5Zm.5,7.6h-1v-6h1Z"/><path d="M229.7,128.7a2.7,2.7,0,0,1-1.6.4,2.9,2.9,0,0,1-2.1-.8,3.3,3.3,0,0,1-.8-2.2,3.2,3.2,0,0,1,.9-2.4,2.8,2.8,0,0,1,2.2-.9,2.9,2.9,0,0,1,1.4.3v1a2.4,2.4,0,0,0-1.4-.5,2.1,2.1,0,0,0-1.5.7,2.7,2.7,0,0,0,0,3.4,1.7,1.7,0,0,0,1.4.6,2.5,2.5,0,0,0,1.5-.5Z"/><path d="M235.5,129h-1v-1h0a2,2,0,0,1-1.9,1.1,1.7,1.7,0,0,1-1.4-.5,1.7,1.7,0,0,1-.5-1.2c0-1.1.7-1.8,2-2l1.8-.2c0-1.1-.4-1.6-1.2-1.6a3,3,0,0,0-2,.8v-1a3.6,3.6,0,0,1,2-.6c1.5,0,2.2.8,2.2,2.3Zm-1-3.1-1.4.2-1.1.4c-.2.1-.3.4-.3.8a.9.9,0,0,0,.3.7,1.2,1.2,0,0,0,.9.3,1.6,1.6,0,0,0,1.1-.5,1.9,1.9,0,0,0,.5-1.3Z"/><path d="M241.4,128.7a3.1,3.1,0,0,1-1.7.4,2.8,2.8,0,0,1-2-.8,2.9,2.9,0,0,1-.8-2.2,3.2,3.2,0,0,1,.8-2.4,3,3,0,0,1,2.3-.9,3.2,3.2,0,0,1,1.4.3v1a2.7,2.7,0,0,0-1.5-.5,2.1,2.1,0,0,0-1.5.7,2.7,2.7,0,0,0,0,3.4,2,2,0,0,0,1.5.6,3,3,0,0,0,1.5-.5Zm-.5,1.8c0,.7-.6,1-1.6,1h-.4V131h.4c.5,0,.8-.2.8-.5s-.2-.5-.8-.5h-.2v-1h.6v.6l.9.2A.9.9,0,0,1,240.9,130.5Z"/><path d="M247.1,129h-.9v-1h-.1a1.8,1.8,0,0,1-1.8,1.1,1.6,1.6,0,0,1-1.4-.5,1.3,1.3,0,0,1-.5-1.2c0-1.1.6-1.8,2-2l1.8-.2c0-1.1-.5-1.6-1.3-1.6a2.7,2.7,0,0,0-1.9.8v-1a3.2,3.2,0,0,1,2-.6c1.4,0,2.1.8,2.1,2.3Zm-.3-8.6a1.5,1.5,0,0,1-.3,1,.8.8,0,0,1-.8.4l-.9-.3a1.1,1.1,0,0,0-.7-.2c-.3,0-.5.2-.5.6H243a1.7,1.7,0,0,1,.3-1,1.2,1.2,0,0,1,.8-.4,1.9,1.9,0,0,1,.9.3l.7.3c.4,0,.5-.2.5-.7Zm-.6,5.5-1.5.2a2.3,2.3,0,0,0-1,.4c-.2.1-.3.4-.3.8a.9.9,0,0,0,.3.7,1.1,1.1,0,0,0,.8.3,1.7,1.7,0,0,0,1.2-.5,1.9,1.9,0,0,0,.5-1.3Z"/><path d="M251.4,129.1a2.9,2.9,0,0,1-2.1-.8,3.4,3.4,0,0,1-.8-2.3,3.2,3.2,0,0,1,.8-2.3,3,3,0,0,1,2.3-.9,2.6,2.6,0,0,1,2.1.9,3.1,3.1,0,0,1,.7,2.2,3.2,3.2,0,0,1-.8,2.3A2.8,2.8,0,0,1,251.4,129.1Zm.1-5.5a1.8,1.8,0,0,0-1.5.7,3.1,3.1,0,0,0,0,3.4,2,2,0,0,0,1.5.6,1.7,1.7,0,0,0,1.4-.6,2.3,2.3,0,0,0,.5-1.7,2.6,2.6,0,0,0-.5-1.8A1.7,1.7,0,0,0,251.5,123.6Z"/><path d="M29.7,273.8H28.6l-.9-2.4H24.1l-.8,2.4H22.2l3.2-8.4h1Zm-2.4-3.3L26,267c0-.2-.1-.3-.1-.6h0c-.1.2-.1.4-.2.6l-1.3,3.5Z" fill="#001f50" stroke="#001f50" stroke-miterlimit="10" stroke-width="0.05"/><path d="M31.7,272.9h0v3.6h-.9v-8.7h.9v1h0a2.4,2.4,0,0,1,2.1-1.2,2.2,2.2,0,0,1,1.8.8,3.2,3.2,0,0,1,.7,2.2,3.6,3.6,0,0,1-.8,2.4,2.3,2.3,0,0,1-2,.9A2.1,2.1,0,0,1,31.7,272.9Zm0-2.4v.8a2.1,2.1,0,0,0,.5,1.3,1.7,1.7,0,0,0,1.2.5,1.5,1.5,0,0,0,1.4-.7,3,3,0,0,0,.5-1.8,2.5,2.5,0,0,0-.5-1.6,1.4,1.4,0,0,0-1.2-.6,1.8,1.8,0,0,0-1.4.6A2.5,2.5,0,0,0,31.7,270.5Z" fill="#001f50" stroke="#001f50" stroke-miterlimit="10" stroke-width="0.05"/><path d="M38.8,273.8h-1v-8.9h1Z" fill="#001f50" stroke="#001f50" stroke-miterlimit="10" stroke-width="0.05"/><path d="M41.2,266.3l-.4-.2a.6.6,0,0,1,0-.9.5.5,0,0,1,.4-.2l.5.2a.6.6,0,0,1,.1.4.7.7,0,0,1-.1.5Zm.5,7.5h-1v-6h1Z" fill="#001f50" stroke="#001f50" stroke-miterlimit="10" stroke-width="0.05"/><path d="M47.7,273.5a2.7,2.7,0,0,1-1.6.4,2.9,2.9,0,0,1-2.1-.8,3.3,3.3,0,0,1-.8-2.2,3.2,3.2,0,0,1,.9-2.4,2.8,2.8,0,0,1,2.2-.9,2.9,2.9,0,0,1,1.4.3v1a2.4,2.4,0,0,0-1.4-.5,2.1,2.1,0,0,0-1.5.7,2.7,2.7,0,0,0,0,3.4,1.7,1.7,0,0,0,1.4.6,2.5,2.5,0,0,0,1.5-.5Z" fill="#001f50" stroke="#001f50" stroke-miterlimit="10" stroke-width="0.05"/><path d="M53.5,273.8h-1v-1h0a2,2,0,0,1-1.9,1.1,1.7,1.7,0,0,1-1.4-.5,1.7,1.7,0,0,1-.5-1.2c0-1.1.7-1.8,2-2l1.8-.2c0-1-.4-1.6-1.2-1.6a3,3,0,0,0-2,.8v-1a3.6,3.6,0,0,1,2-.6c1.5,0,2.2.8,2.2,2.3Zm-1-3.1-1.4.2-1.1.4c-.2.1-.3.4-.3.8a.9.9,0,0,0,.3.7,1.2,1.2,0,0,0,.9.3,1.6,1.6,0,0,0,1.1-.5,1.7,1.7,0,0,0,.5-1.3Z" fill="#001f50" stroke="#001f50" stroke-miterlimit="10" stroke-width="0.05"/><path d="M58.1,273.7l-.9.2c-1.1,0-1.6-.6-1.6-1.7v-3.6h-1v-.8h1v-1.5l.9-.3v1.8h1.6v.8H56.5V272c0,.4.1.7.3.8a.6.6,0,0,0,.6.3l.7-.2Z" fill="#001f50" stroke="#001f50" stroke-miterlimit="10" stroke-width="0.05"/><path d="M59.8,266.3l-.4-.2a.6.6,0,0,1,0-.9l.4-.2.5.2a.6.6,0,0,1,0,.9Zm.5,7.5h-1v-6h1Z" fill="#001f50" stroke="#001f50" stroke-miterlimit="10" stroke-width="0.05"/><path d="M67,267.8l-2.4,6h-1l-2.2-6h1l1.5,4.3a3.7,3.7,0,0,1,.2.9h.1a1.9,1.9,0,0,1,.2-.8l1.6-4.4Z" fill="#001f50" stroke="#001f50" stroke-miterlimit="10" stroke-width="0.05"/><path d="M70.5,273.9a2.8,2.8,0,0,1-2.9-3,3.5,3.5,0,0,1,.8-2.4,2.9,2.9,0,0,1,2.2-.9,2.6,2.6,0,0,1,2.1.9,3.2,3.2,0,0,1,.8,2.3,3.6,3.6,0,0,1-.8,2.3A3.3,3.3,0,0,1,70.5,273.9Zm.1-5.5a2.1,2.1,0,0,0-1.5.7,2.3,2.3,0,0,0-.5,1.7,2.9,2.9,0,0,0,.5,1.7,2,2,0,0,0,1.5.6,1.7,1.7,0,0,0,1.4-.6,2.9,2.9,0,0,0,.5-1.7,2.6,2.6,0,0,0-.5-1.7A1.7,1.7,0,0,0,70.6,268.4Z" fill="#001f50" stroke="#001f50" stroke-miterlimit="10" stroke-width="0.05"/><path d="M122.9,268.1a4.1,4.1,0,0,1-2.3.5,4.2,4.2,0,0,1-2.9-1.1,4.5,4.5,0,0,1-1-3.1,4.4,4.4,0,0,1,1.2-3.2,4.2,4.2,0,0,1,3-1.3,5.4,5.4,0,0,1,2,.4v1a4.2,4.2,0,0,0-2-.5,3.3,3.3,0,0,0-2.3,1,3.6,3.6,0,0,0-.9,2.6,3.6,3.6,0,0,0,.8,2.4,2.9,2.9,0,0,0,2.2.9,3.8,3.8,0,0,0,2.2-.5Z" fill="#1e1e1e"/><path d="M127.6,263.5c-.1-.2-.4-.2-.7-.2a1.4,1.4,0,0,0-1,.5,2.7,2.7,0,0,0-.4,1.6v3.1h-1v-6h1v1.2h0a2.1,2.1,0,0,1,.6-1,1.7,1.7,0,0,1,1-.3h.5Z" fill="#1e1e1e"/><path d="M129.2,261l-.5-.2a.7.7,0,0,1-.1-.5.6.6,0,0,1,.1-.4l.5-.2.4.2a.6.6,0,0,1,0,.9Zm.4,7.5h-.9v-6h.9Z" fill="#1e1e1e"/><path d="M135.9,268.5h-1v-1h0a1.8,1.8,0,0,1-1.8,1.1,2,2,0,0,1-1.5-.5,1.7,1.7,0,0,1-.5-1.2c0-1.1.7-1.8,2-2l1.8-.2q0-1.5-1.2-1.5a3.1,3.1,0,0,0-2,.7v-1a3.7,3.7,0,0,1,2.1-.6c1.4,0,2.1.8,2.1,2.3Zm-1-3.1-1.4.2a1.9,1.9,0,0,0-1,.4c-.3.1-.4.4-.4.8a.8.8,0,0,0,.3.7,1.2,1.2,0,0,0,.9.3,2.1,2.1,0,0,0,1.2-.5,1.7,1.7,0,0,0,.4-1.3Z" fill="#1e1e1e"/><path d="M140.8,263.5c-.1-.2-.4-.2-.7-.2a1.2,1.2,0,0,0-1,.5,2.7,2.7,0,0,0-.4,1.6v3.1h-1v-6h1v1.2h0a2.1,2.1,0,0,1,.6-1,1.6,1.6,0,0,1,.9-.3h.6Z" fill="#1e1e1e"/><path d="M149.7,268.5h-4.4v-8.4h4.2v.9h-3.2v2.8h3v.9h-3v2.9h3.4Z" fill="#1e1e1e"/><path d="M156.2,268.5h-1v-3.4c0-1.3-.4-1.9-1.4-1.9a1.3,1.3,0,0,0-1.1.5,1.7,1.7,0,0,0-.5,1.4v3.4h-1v-6h1v1h0a2.2,2.2,0,0,1,2-1.2,2.1,2.1,0,0,1,1.5.7,3,3,0,0,1,.5,1.8Z" fill="#1e1e1e"/><path d="M160.8,268.4l-.9.2c-1.1,0-1.6-.6-1.6-1.7v-3.6h-1v-.8h1V261l1-.3v1.8h1.5v.8h-1.5v3.4a1.3,1.3,0,0,0,.2.8.8.8,0,0,0,.7.3l.6-.2Z" fill="#1e1e1e"/><path d="M162.6,261l-.5-.2a.6.6,0,0,1,0-.9l.5-.2.4.2a.6.6,0,0,1,0,.9Zm.4,7.5h-.9v-6h.9Z" fill="#1e1e1e"/><path d="M170.1,268.5h-1v-1h0a2.2,2.2,0,0,1-2,1.1,1.9,1.9,0,0,1-1.8-.8,3.1,3.1,0,0,1-.7-2.2,3.6,3.6,0,0,1,.7-2.4,2.5,2.5,0,0,1,2-.9,2.1,2.1,0,0,1,1.8,1h0v-3.7h1Zm-1-2.7v-.9a1.6,1.6,0,0,0-.4-1.2,1.7,1.7,0,0,0-1.3-.5,1.6,1.6,0,0,0-1.3.6,2.4,2.4,0,0,0-.5,1.8,2.5,2.5,0,0,0,.4,1.6,1.8,1.8,0,0,0,1.3.6,1.5,1.5,0,0,0,1.3-.6A1.7,1.7,0,0,0,169.1,265.8Z" fill="#1e1e1e"/><path d="M176.3,268.5h-.9v-1h0a2.1,2.1,0,0,1-1.9,1.1,1.6,1.6,0,0,1-1.4-.5,1.7,1.7,0,0,1-.5-1.2c0-1.1.7-1.8,2-2l1.8-.2c0-1-.4-1.5-1.3-1.5a2.8,2.8,0,0,0-1.9.7v-1a3.6,3.6,0,0,1,2-.6c1.4,0,2.1.8,2.1,2.3Zm-.9-3.1-1.5.2-1,.4c-.2.1-.3.4-.3.8a.8.8,0,0,0,.3.7,1.1,1.1,0,0,0,.8.3,1.7,1.7,0,0,0,1.2-.5,1.7,1.7,0,0,0,.5-1.3Z" fill="#1e1e1e"/><path d="M183.3,268.5h-1v-1h0a2.4,2.4,0,0,1-2.1,1.1,2.2,2.2,0,0,1-1.8-.8,3.6,3.6,0,0,1-.7-2.2,3.6,3.6,0,0,1,.8-2.4,2.5,2.5,0,0,1,2-.9,2.1,2.1,0,0,1,1.8,1h0v-3.7h1Zm-1-2.7v-.9a1.7,1.7,0,0,0-1.7-1.7,1.8,1.8,0,0,0-1.4.6,3,3,0,0,0-.5,1.8,2.5,2.5,0,0,0,.5,1.6,1.7,1.7,0,0,0,2.6,0A2.2,2.2,0,0,0,182.3,265.8Z" fill="#1e1e1e"/><path d="M190,265.7h-4.2a2.5,2.5,0,0,0,.5,1.6,2.5,2.5,0,0,0,1.5.5,2.6,2.6,0,0,0,1.8-.7v.9a3.3,3.3,0,0,1-2.1.6,2.4,2.4,0,0,1-2-.8,3.7,3.7,0,0,1-.7-2.3,3.6,3.6,0,0,1,.8-2.3,2.5,2.5,0,0,1,2-.9,2.2,2.2,0,0,1,1.8.8,3.3,3.3,0,0,1,.6,2.1Zm-.9-.8a2.5,2.5,0,0,0-.4-1.3,1.5,1.5,0,0,0-1.1-.4,1.6,1.6,0,0,0-1.2.4,3.1,3.1,0,0,0-.6,1.3Z" fill="#1e1e1e"/><path d="M123.8,281.9h-1v-1h0a2.5,2.5,0,0,1-2.1,1.1,2.2,2.2,0,0,1-1.8-.8,2.9,2.9,0,0,1-.7-2.2,3.6,3.6,0,0,1,.8-2.4,2.4,2.4,0,0,1,2-.9,2.1,2.1,0,0,1,1.8,1h0V273h1Zm-1-2.7v-.9a1.7,1.7,0,0,0-.5-1.2,1.3,1.3,0,0,0-1.2-.5,1.7,1.7,0,0,0-1.4.6,3,3,0,0,0-.5,1.8,2.5,2.5,0,0,0,.5,1.6,1.5,1.5,0,0,0,1.3.6,1.6,1.6,0,0,0,1.3-.6A2.2,2.2,0,0,0,122.8,279.2Z" fill="#1e1e1e"/><path d="M130.5,279.1h-4.2a2.5,2.5,0,0,0,.5,1.6,2.2,2.2,0,0,0,1.4.5,2.8,2.8,0,0,0,1.9-.7v1a4.1,4.1,0,0,1-2.1.5,2.4,2.4,0,0,1-2-.8,3.2,3.2,0,0,1-.7-2.3,3.6,3.6,0,0,1,.8-2.3,2.5,2.5,0,0,1,3.8-.1,3.3,3.3,0,0,1,.6,2.1Zm-1-.8a1.8,1.8,0,0,0-.4-1.3,1.2,1.2,0,0,0-1.1-.4,1.5,1.5,0,0,0-1.1.4,3.1,3.1,0,0,0-.6,1.3Z" fill="#1e1e1e"/><path d="M135,281.5v-1.1l.5.3.6.2.6.2h.6a2.3,2.3,0,0,0,1.3-.3,1.1,1.1,0,0,0,.5-1,1.4,1.4,0,0,0-.2-.6c-.1-.1-.2-.3-.4-.4l-.6-.4-.8-.4-.8-.5a1.8,1.8,0,0,1-.7-.5,2.1,2.1,0,0,1-.4-.6,1.9,1.9,0,0,1-.2-.8,1.7,1.7,0,0,1,.3-1c.1-.3.4-.5.6-.7l1-.4,1-.2a3.6,3.6,0,0,1,1.8.3v1.1a3.6,3.6,0,0,0-1.9-.5h-.6l-.6.2-.4.4a1,1,0,0,0,0,1.2l.3.4.6.4.8.4.8.4.7.6.5.6a2.9,2.9,0,0,1,.2.9,1.7,1.7,0,0,1-.3,1,1.3,1.3,0,0,1-.6.7l-1,.4H136l-.6-.2Z" fill="#1e1e1e"/><path d="M146.5,279.1h-4.3a2.1,2.1,0,0,0,.6,1.6,2,2,0,0,0,1.4.5,2.4,2.4,0,0,0,1.8-.7v1a3.9,3.9,0,0,1-2,.5,2.2,2.2,0,0,1-2-.8,3.2,3.2,0,0,1-.8-2.3,3.6,3.6,0,0,1,.8-2.3,2.7,2.7,0,0,1,2-.9,2.2,2.2,0,0,1,1.8.8,3.3,3.3,0,0,1,.7,2.1Zm-1-.8a2.5,2.5,0,0,0-.4-1.3,1.5,1.5,0,0,0-1.1-.4,1.6,1.6,0,0,0-1.2.4,3.1,3.1,0,0,0-.6,1.3Z" fill="#1e1e1e"/><path d="M151,276.9c-.1-.2-.4-.2-.7-.2a1.4,1.4,0,0,0-1,.5,2.7,2.7,0,0,0-.4,1.6v3.1h-1v-6h1v1.2h0a2.1,2.1,0,0,1,.6-1,1.7,1.7,0,0,1,1-.3h.5Z" fill="#1e1e1e"/><path d="M156.8,275.9l-2.4,6h-.9l-2.3-6h1l1.6,4.3a3.7,3.7,0,0,1,.2.9h0a1.9,1.9,0,0,1,.2-.8l1.6-4.4Z" fill="#1e1e1e"/><path d="M158.3,274.4l-.4-.2a.6.6,0,0,1,0-.9l.4-.2.5.2a.6.6,0,0,1,0,.9Zm.5,7.5h-1v-6h1Z" fill="#1e1e1e"/><path d="M164.8,281.6a2.7,2.7,0,0,1-1.6.4,2.9,2.9,0,0,1-2.1-.8,3.3,3.3,0,0,1-.8-2.2,3.2,3.2,0,0,1,.9-2.4,2.8,2.8,0,0,1,2.2-.9,2.9,2.9,0,0,1,1.4.3v1a2.3,2.3,0,0,0-1.4-.4,2,2,0,0,0-1.5.6,2.5,2.5,0,0,0-.6,1.7,2.4,2.4,0,0,0,.6,1.7,1.8,1.8,0,0,0,1.5.6,2.4,2.4,0,0,0,1.4-.5Zm-.5,1.8c0,.7-.5,1-1.6,1h-.4v-.5h.4c.6,0,.9-.2.9-.5s-.3-.5-.8-.5h-.2v-1.1h.6v.6l.8.2A.9.9,0,0,1,164.3,283.4Z" fill="#1e1e1e"/><path d="M168.8,282a2.8,2.8,0,0,1-2.9-3,3.1,3.1,0,0,1,.8-2.4,2.8,2.8,0,0,1,2.2-.9,2.6,2.6,0,0,1,2.1.9,3.2,3.2,0,0,1,.8,2.3,3.6,3.6,0,0,1-.8,2.3A3.3,3.3,0,0,1,168.8,282Zm.1-5.4a1.9,1.9,0,0,0-1.5.6,3.1,3.1,0,0,0,0,3.4,2,2,0,0,0,1.5.6,1.7,1.7,0,0,0,1.4-.6,2.9,2.9,0,0,0,.5-1.7,2.6,2.6,0,0,0-.5-1.7A1.7,1.7,0,0,0,168.9,276.6Z" fill="#1e1e1e"/><path d="M181.7,281.9h-.9v-1h-.1a2.2,2.2,0,0,1-2,1.1,1.9,1.9,0,0,1-1.8-.8,2.9,2.9,0,0,1-.7-2.2,3.6,3.6,0,0,1,.7-2.4,2.5,2.5,0,0,1,2-.9,1.9,1.9,0,0,1,1.8,1h.1V273h.9Zm-.9-2.7v-.9a1.7,1.7,0,0,0-.5-1.2,1.3,1.3,0,0,0-1.2-.5,1.7,1.7,0,0,0-1.4.6,2.4,2.4,0,0,0-.5,1.8,2.1,2.1,0,0,0,.5,1.6,1.5,1.5,0,0,0,1.3.6,1.8,1.8,0,0,0,1.3-.6A2.2,2.2,0,0,0,180.8,279.2Z" fill="#1e1e1e"/><path d="M188.5,279.1h-4.2a2.1,2.1,0,0,0,.5,1.6,2,2,0,0,0,1.4.5,2.8,2.8,0,0,0,1.9-.7v1a4.6,4.6,0,0,1-2.1.5,2.3,2.3,0,0,1-2-.8,3.2,3.2,0,0,1-.7-2.3,3.1,3.1,0,0,1,.8-2.3,2.3,2.3,0,0,1,1.9-.9,2.2,2.2,0,0,1,1.8.8,2.8,2.8,0,0,1,.7,2.1Zm-1-.8a1.8,1.8,0,0,0-.4-1.3,1.4,1.4,0,0,0-1.1-.4,1.5,1.5,0,0,0-1.1.4,1.8,1.8,0,0,0-.6,1.3Z" fill="#1e1e1e"/><path d="M133.4,295.3h-1v-1h0a1.8,1.8,0,0,1-1.8,1.1,1.6,1.6,0,0,1-1.4-.5,1.3,1.3,0,0,1-.5-1.2c0-1.1.6-1.8,1.9-2l1.8-.2q0-1.5-1.2-1.5a3.1,3.1,0,0,0-2,.7v-1a3.7,3.7,0,0,1,2.1-.6c1.4,0,2.1.8,2.1,2.3Zm-1-3.1-1.4.2a1.9,1.9,0,0,0-1,.4.9.9,0,0,0-.4.8.7.7,0,0,0,.4.7,1,1,0,0,0,.8.3,1.7,1.7,0,0,0,1.2-.5,1.7,1.7,0,0,0,.4-1.3Z" fill="#1e1e1e"/><path d="M136.2,294.4h0V298h-1v-8.7h1v1h0a2.4,2.4,0,0,1,2.1-1.2,2.5,2.5,0,0,1,1.8.8,3.8,3.8,0,0,1,.6,2.2,3.6,3.6,0,0,1-.7,2.4,2.5,2.5,0,0,1-2,.9A1.9,1.9,0,0,1,136.2,294.4Zm0-2.4v.8a1.5,1.5,0,0,0,.5,1.3,1.7,1.7,0,0,0,1.2.5,1.4,1.4,0,0,0,1.3-.7,2.4,2.4,0,0,0,.5-1.8,2.5,2.5,0,0,0-.4-1.6,1.4,1.4,0,0,0-1.3-.5,1.5,1.5,0,0,0-1.3.5A2,2,0,0,0,136.2,292Z" fill="#1e1e1e"/><path d="M143.2,295.3h-.9v-8.9h.9Z" fill="#1e1e1e"/><path d="M145.7,287.8l-.5-.2a.6.6,0,0,1,0-.9l.5-.2.4.2a.6.6,0,0,1,0,.9Zm.4,7.5h-.9v-6h.9Z" fill="#1e1e1e"/><path d="M152.2,295a3.1,3.1,0,0,1-1.7.4,2.8,2.8,0,0,1-2-.8,2.9,2.9,0,0,1-.8-2.2,3.2,3.2,0,0,1,.8-2.4,3,3,0,0,1,2.3-.9,3.2,3.2,0,0,1,1.4.3v1a2.6,2.6,0,0,0-1.5-.4,2,2,0,0,0-1.5.6,2.7,2.7,0,0,0,0,3.4,2,2,0,0,0,1.5.6,3,3,0,0,0,1.5-.5Z" fill="#1e1e1e"/><path d="M157.9,295.3H157v-1h-.1a1.8,1.8,0,0,1-1.8,1.1,1.6,1.6,0,0,1-1.4-.5,1.3,1.3,0,0,1-.5-1.2c0-1.1.6-1.8,2-2l1.8-.2c0-1-.5-1.5-1.3-1.5a2.6,2.6,0,0,0-1.9.7v-1a3.2,3.2,0,0,1,2-.6c1.4,0,2.1.8,2.1,2.3Zm-.9-3.1-1.5.2a2.3,2.3,0,0,0-1,.4c-.2.1-.3.4-.3.8a.8.8,0,0,0,.3.7,1.1,1.1,0,0,0,.8.3,1.7,1.7,0,0,0,1.2-.5,1.7,1.7,0,0,0,.5-1.3Z" fill="#1e1e1e"/><path d="M162.5,295.2l-.9.2a1.5,1.5,0,0,1-1.6-1.7v-3.6h-1v-.8h1v-1.5l1-.3v1.8h1.5v.8H161v3.4a1.3,1.3,0,0,0,.2.8.8.8,0,0,0,.7.3l.6-.2Z" fill="#1e1e1e"/><path d="M164.3,287.8l-.5-.2a.7.7,0,0,1-.1-.5.6.6,0,0,1,.1-.4l.5-.2a.5.5,0,0,1,.4.2.4.4,0,0,1,.2.4c0,.2,0,.4-.2.5Zm.4,7.5h-.9v-6h.9Z" fill="#1e1e1e"/><path d="M171.4,289.3l-2.4,6h-.9l-2.3-6h1.1l1.5,4.3a3.7,3.7,0,0,1,.2.9h0c.1-.3.1-.6.2-.8l1.6-4.4Z" fill="#1e1e1e"/><path d="M175,295.4a2.8,2.8,0,0,1-3-3,3.1,3.1,0,0,1,.9-2.4,2.8,2.8,0,0,1,2.2-.9,2.6,2.6,0,0,1,2.1.9,3.2,3.2,0,0,1,.7,2.3,3.1,3.1,0,0,1-.8,2.3A2.9,2.9,0,0,1,175,295.4Zm0-5.4a1.7,1.7,0,0,0-1.4.6,2.7,2.7,0,0,0,0,3.4,1.7,1.7,0,0,0,1.4.6,2,2,0,0,0,1.5-.6,2.9,2.9,0,0,0,.5-1.7,2.6,2.6,0,0,0-.5-1.7A2,2,0,0,0,175,290Z" fill="#1e1e1e"/><path d="M249.7,6.4c0,2.3-1.1,3.5-3.2,3.5s-3.1-1.1-3.1-3.4V1.4h1V6.5c0,1.7.7,2.5,2.2,2.5s2.1-.8,2.1-2.5V1.4h1Z" fill="#1e1e1e"/><path d="M251.3,9.6V8.5a2.7,2.7,0,0,0,1.7.6c.9,0,1.3-.3,1.3-.8s-.1-.3-.1-.4l-.3-.3-.4-.3-.6-.2-.7-.3a1,1,0,0,1-.5-.4l-.3-.4a1.3,1.3,0,0,1-.1-.6,1.9,1.9,0,0,1,.2-.8,1.2,1.2,0,0,1,.5-.5,1.1,1.1,0,0,1,.7-.3l.9-.2a3.2,3.2,0,0,1,1.4.3v1a2.6,2.6,0,0,0-1.5-.4H253l-.4.2c-.1.1-.2.1-.2.3a.4.4,0,0,0-.1.3c0,.2,0,.3.1.4l.2.3.4.2.6.2.7.3.5.4a.5.5,0,0,1,.3.5.8.8,0,0,1,.2.6,2.4,2.4,0,0,1-.2.8c-.2.2-.3.4-.6.5l-.7.3h-.9A3.8,3.8,0,0,1,251.3,9.6Z" fill="#1e1e1e"/><path d="M261.6,9.8h-1v-1h0a1.8,1.8,0,0,1-1.8,1.1c-1.5,0-2.2-.8-2.2-2.5V3.8h1V7.2c0,1.3.5,1.9,1.4,1.9a1.7,1.7,0,0,0,1.2-.5,2,2,0,0,0,.4-1.4V3.8h1Z" fill="#1e1e1e"/><path d="M267.8,9.8h-.9v-1h-.1A1.8,1.8,0,0,1,265,9.9a1.6,1.6,0,0,1-1.4-.5,1.7,1.7,0,0,1-.5-1.2c0-1.1.7-1.8,2-2l1.8-.2c0-1-.4-1.5-1.3-1.5a2.8,2.8,0,0,0-1.9.7v-1a3.4,3.4,0,0,1,2-.6c1.4,0,2.1.8,2.1,2.3Zm-.9-3.1-1.5.2a2.3,2.3,0,0,0-1,.4c-.2.1-.3.4-.3.8a.8.8,0,0,0,.3.7,1.1,1.1,0,0,0,.8.3,1.7,1.7,0,0,0,1.2-.5,1.7,1.7,0,0,0,.5-1.3Zm.1-6-1.5,1.9h-.8L266,.7Z" fill="#1e1e1e"/><path d="M272.8,4.8c-.2-.2-.4-.2-.8-.2a1.4,1.4,0,0,0-1,.5,2.7,2.7,0,0,0-.4,1.6V9.8h-1v-6h1V5h0a3.6,3.6,0,0,1,.7-1,1.2,1.2,0,0,1,.9-.3h.6Z" fill="#1e1e1e"/><path d="M274.3,2.3l-.4-.2c-.2-.1-.2-.3-.2-.5a.4.4,0,0,1,.2-.4l.4-.2.5.2a.6.6,0,0,1,.1.4.7.7,0,0,1-.1.5Zm.5,7.5h-1v-6h1Z" fill="#1e1e1e"/><path d="M279.2,9.9a2.9,2.9,0,0,1-2.1-.8,3.3,3.3,0,0,1-.8-2.2,3.5,3.5,0,0,1,.8-2.4,3,3,0,0,1,2.3-.9,2.6,2.6,0,0,1,2.1.9,3.2,3.2,0,0,1,.7,2.3,3.6,3.6,0,0,1-.8,2.3A3.1,3.1,0,0,1,279.2,9.9Zm.1-5.4a2,2,0,0,0-1.5.6,2.9,2.9,0,0,0-.5,1.7,2.9,2.9,0,0,0,.5,1.7,2,2,0,0,0,1.5.6,1.7,1.7,0,0,0,1.4-.6,2.3,2.3,0,0,0,.5-1.7,2.2,2.2,0,0,0-.5-1.7A1.7,1.7,0,0,0,279.3,4.5Z" fill="#1e1e1e"/><path d="M292.2,9.8h-1v-1h0a2.5,2.5,0,0,1-2.1,1.1,2.2,2.2,0,0,1-1.8-.8,3.6,3.6,0,0,1-.7-2.2,3.6,3.6,0,0,1,.8-2.4,2.4,2.4,0,0,1,2-.9,2.1,2.1,0,0,1,1.8,1h0V.9h1Zm-1-2.7V6.2a1.7,1.7,0,0,0-.5-1.2,1.3,1.3,0,0,0-1.2-.5,1.8,1.8,0,0,0-1.4.6,3,3,0,0,0-.5,1.8,2.5,2.5,0,0,0,.5,1.6,1.7,1.7,0,0,0,2.6,0A2.2,2.2,0,0,0,291.2,7.1Z" fill="#1e1e1e"/><path d="M296.6,9.9a2.9,2.9,0,0,1-2.1-.8,3.3,3.3,0,0,1-.8-2.2,3.5,3.5,0,0,1,.8-2.4,3,3,0,0,1,2.3-.9,2.5,2.5,0,0,1,2,.9,2.8,2.8,0,0,1,.8,2.3,3.6,3.6,0,0,1-.8,2.3A3.3,3.3,0,0,1,296.6,9.9Zm.1-5.4a2,2,0,0,0-1.5.6,2.9,2.9,0,0,0-.5,1.7,2.9,2.9,0,0,0,.5,1.7,2,2,0,0,0,1.5.6,1.7,1.7,0,0,0,1.4-.6,2.3,2.3,0,0,0,.5-1.7,2.2,2.2,0,0,0-.5-1.7A1.7,1.7,0,0,0,296.7,4.5Z" fill="#1e1e1e"/><path d="M247.4,23.2H243V14.8h1v7.5h3.4Z" fill="#1e1e1e"/><path d="M251,23.3a3,3,0,0,1-2.1-.8,3.3,3.3,0,0,1-.8-2.2,3.1,3.1,0,0,1,.9-2.4,2.7,2.7,0,0,1,2.2-.9,2.6,2.6,0,0,1,2.1.9,3.2,3.2,0,0,1,.7,2.3,3.1,3.1,0,0,1-.8,2.3A2.9,2.9,0,0,1,251,23.3Zm.1-5.4a2,2,0,0,0-1.5.6,2.9,2.9,0,0,0-.5,1.7,2.4,2.4,0,0,0,.6,1.7,1.9,1.9,0,0,0,2.8,0,2.3,2.3,0,0,0,.5-1.7,2.2,2.2,0,0,0-.5-1.7A1.7,1.7,0,0,0,251.1,17.9Z" fill="#1e1e1e"/><path d="M259.7,22.9a3.3,3.3,0,0,1-1.7.4,3.2,3.2,0,0,1-2.1-.8,3.2,3.2,0,0,1-.7-2.2,3.2,3.2,0,0,1,.8-2.4,3,3,0,0,1,2.3-.9,3.2,3.2,0,0,1,1.4.3v1a2.8,2.8,0,0,0-1.5-.4,2,2,0,0,0-1.5.6,2.5,2.5,0,0,0-.6,1.7,2.4,2.4,0,0,0,.6,1.7,2,2,0,0,0,1.5.6,3,3,0,0,0,1.5-.5Z" fill="#1e1e1e"/><path d="M265.4,23.2h-1v-1h0a1.8,1.8,0,0,1-1.8,1.1,1.6,1.6,0,0,1-1.4-.5,1.3,1.3,0,0,1-.5-1.2c0-1.1.6-1.8,1.9-2l1.8-.2q0-1.5-1.2-1.5a3.1,3.1,0,0,0-2,.7v-1a3.7,3.7,0,0,1,2.1-.6c1.4,0,2.1.8,2.1,2.3Zm-1-3.1-1.4.2a1.9,1.9,0,0,0-1,.4.9.9,0,0,0-.4.8.8.8,0,0,0,.4.7,1,1,0,0,0,.8.3A1.7,1.7,0,0,0,264,22a1.7,1.7,0,0,0,.4-1.3Z" fill="#1e1e1e"/><path d="M270,23.1c-.2.2-.5.2-.9.2s-1.6-.6-1.6-1.7V18h-1v-.8h1V15.7l1-.3v1.8H270V18h-1.5v3.4a1.3,1.3,0,0,0,.2.8.8.8,0,0,0,.7.3l.6-.2Z" fill="#1e1e1e"/><path d="M275.6,23.2h-1v-1h0a1.9,1.9,0,0,1-1.9,1.1,1.7,1.7,0,0,1-1.4-.5,1.7,1.7,0,0,1-.5-1.2c0-1.1.7-1.8,2-2l1.8-.2q0-1.5-1.2-1.5a3.1,3.1,0,0,0-2,.7v-1a3.7,3.7,0,0,1,2.1-.6c1.4,0,2.1.8,2.1,2.3Zm-1-3.1-1.4.2a1.9,1.9,0,0,0-1,.4c-.3.1-.4.4-.4.8a.8.8,0,0,0,.3.7,1.2,1.2,0,0,0,.9.3,1.6,1.6,0,0,0,1.1-.5,1.4,1.4,0,0,0,.5-1.3Zm.1-6L273.2,16h-.7l1.3-1.9Z" fill="#1e1e1e"/><path d="M280.5,18.2a.8.8,0,0,0-.7-.2,1.2,1.2,0,0,0-1,.5,2.8,2.8,0,0,0-.5,1.6v3.1h-.9v-6h.9v1.2h.1a2.1,2.1,0,0,1,.6-1l.9-.3h.6Z" fill="#1e1e1e"/><path d="M282,15.7l-.4-.2a.6.6,0,0,1,0-.9l.4-.2.5.2a.6.6,0,0,1,0,.9Zm.5,7.5h-.9v-6h.9Z" fill="#1e1e1e"/><path d="M287,23.3a3.3,3.3,0,0,1-2.2-.8,3.2,3.2,0,0,1-.7-2.2,3.1,3.1,0,0,1,.8-2.4,2.8,2.8,0,0,1,2.2-.9,2.6,2.6,0,0,1,2.1.9,3.2,3.2,0,0,1,.8,2.3,3.2,3.2,0,0,1-.9,2.3A2.9,2.9,0,0,1,287,23.3Zm0-5.4a1.7,1.7,0,0,0-1.4.6,2.4,2.4,0,0,0-.6,1.7,2.4,2.4,0,0,0,.6,1.7,1.7,1.7,0,0,0,1.4.6,1.9,1.9,0,0,0,1.5-.6,2.9,2.9,0,0,0,.5-1.7,2.6,2.6,0,0,0-.5-1.7A1.9,1.9,0,0,0,287,17.9Z" fill="#1e1e1e"/><path d="M294.9,23.2V14.8h2.4a2.9,2.9,0,0,1,1.7.5,1.6,1.6,0,0,1,.7,1.4,2.1,2.1,0,0,1-.4,1.2,2.3,2.3,0,0,1-1.1.8h0a2.3,2.3,0,0,1,1.4.7,2,2,0,0,1,.5,1.4,2.1,2.1,0,0,1-.8,1.7,2.6,2.6,0,0,1-1.9.7Zm1-7.5v2.7h1a1.8,1.8,0,0,0,1.3-.4,1.4,1.4,0,0,0,.4-1.1c0-.8-.5-1.2-1.6-1.2Zm0,3.6v3h1.3a2,2,0,0,0,1.4-.4,1.6,1.6,0,0,0,.5-1.1q0-1.5-2.1-1.5Z" fill="#1e1e1e"/><path d="M75.9,97.1V96l.5.3.6.2.6.2h.6a2.3,2.3,0,0,0,1.3-.3,1.1,1.1,0,0,0,.5-1,1.4,1.4,0,0,0-.2-.6l-.4-.4-.6-.4-.8-.4-.8-.5a1.8,1.8,0,0,1-.7-.5,2.1,2.1,0,0,1-.4-.6,1.9,1.9,0,0,1-.2-.8,1.7,1.7,0,0,1,.3-1c.1-.3.4-.5.6-.7l1-.4,1-.2a4.4,4.4,0,0,1,1.9.3v1.1a3.9,3.9,0,0,0-2-.5h-.6l-.6.2-.4.4a1.8,1.8,0,0,0,0,1.2l.3.4.6.4.8.4.8.4.7.6.5.6a2.4,2.4,0,0,1,.2.9,3,3,0,0,1-.2,1,2.3,2.3,0,0,1-.7.7l-.9.4H76.9l-.5-.2Z" fill="#1e1e1e"/><path d="M85,97.6a3,3,0,0,1-2.1-.8,3.3,3.3,0,0,1-.8-2.2,3.5,3.5,0,0,1,.8-2.4,3,3,0,0,1,2.3-.9,2.6,2.6,0,0,1,2.1.9,3.2,3.2,0,0,1,.7,2.3,2.8,2.8,0,0,1-3,3.1Zm.1-5.4a2,2,0,0,0-1.5.6,3.1,3.1,0,0,0,0,3.4,2,2,0,0,0,1.5.6,1.7,1.7,0,0,0,1.4-.6,2.3,2.3,0,0,0,.5-1.7,2.2,2.2,0,0,0-.5-1.7A1.7,1.7,0,0,0,85.1,92.2Z" fill="#1e1e1e"/><path d="M90.5,97.5h-1V88.6h1Z" fill="#1e1e1e"/><path d="M92.9,90l-.4-.2a.8.8,0,0,1-.2-.5l.2-.4a.5.5,0,0,1,.4-.2l.5.2a.6.6,0,0,1,.1.4.7.7,0,0,1-.1.5Zm.5,7.5h-1v-6h1Z" fill="#1e1e1e"/><path d="M99.4,97.2a2.9,2.9,0,0,1-1.6.4,2.9,2.9,0,0,1-2.1-.8,3.3,3.3,0,0,1-.8-2.2,3.6,3.6,0,0,1,.8-2.4,3.4,3.4,0,0,1,3.7-.6v1a2.3,2.3,0,0,0-1.4-.4,2,2,0,0,0-1.5.6,2.4,2.4,0,0,0-.6,1.7,2.9,2.9,0,0,0,.5,1.7,2,2,0,0,0,1.5.6,3,3,0,0,0,1.5-.5Z" fill="#1e1e1e"/><path d="M101.3,90a.5.5,0,0,1-.4-.2.6.6,0,0,1,0-.9.5.5,0,0,1,.4-.2l.5.2a.6.6,0,0,1,.1.4.7.7,0,0,1-.1.5Zm.5,7.5h-1v-6h1Z" fill="#1e1e1e"/><path d="M106.5,97.4l-.9.2c-1.1,0-1.6-.6-1.6-1.7V92.3h-1v-.8h1V90l1-.3v1.8h1.5v.8H105v3.4c0,.4,0,.7.2.8s.3.3.7.3l.6-.2Z" fill="#1e1e1e"/><path d="M112,97.5h-.9v-1h0a2.1,2.1,0,0,1-1.9,1.1,1.6,1.6,0,0,1-1.4-.5,1.7,1.7,0,0,1-.5-1.2c0-1.1.7-1.8,2-2l1.8-.2c0-1-.4-1.5-1.3-1.5a2.8,2.8,0,0,0-1.9.7v-1a3.6,3.6,0,0,1,2-.6c1.4,0,2.1.8,2.1,2.3Zm-.9-3.1-1.5.2-1,.4c-.2.1-.3.4-.3.8a.8.8,0,0,0,.3.7,1.1,1.1,0,0,0,.8.3,1.7,1.7,0,0,0,1.2-.5,1.7,1.7,0,0,0,.5-1.3Z" fill="#1e1e1e"/><path d="M117,92.5a1.1,1.1,0,0,0-.8-.2,1.4,1.4,0,0,0-1,.5,2.7,2.7,0,0,0-.4,1.6v3.1h-1v-6h1v1.2h0a3.3,3.3,0,0,1,.6-1,1.7,1.7,0,0,1,1-.3h.6Z" fill="#1e1e1e"/><path d="M124,97.4l-.9.2a1.5,1.5,0,0,1-1.6-1.7V92.3h-1v-.8h1V90l1-.3v1.8H124v.8h-1.5v3.4a1.3,1.3,0,0,0,.2.8.9.9,0,0,0,.7.3l.6-.2Z" fill="#1e1e1e"/><path d="M127.8,97.6a2.8,2.8,0,0,1-2.9-3,3.1,3.1,0,0,1,.8-2.4,2.8,2.8,0,0,1,2.2-.9,2.6,2.6,0,0,1,2.1.9,3.2,3.2,0,0,1,.8,2.3,3.6,3.6,0,0,1-.8,2.3A3.3,3.3,0,0,1,127.8,97.6Zm.1-5.4a1.9,1.9,0,0,0-1.5.6,3.1,3.1,0,0,0,0,3.4,1.9,1.9,0,0,0,1.5.6,1.7,1.7,0,0,0,1.4-.6,2.9,2.9,0,0,0,.5-1.7,2.6,2.6,0,0,0-.5-1.7A1.7,1.7,0,0,0,127.9,92.2Z" fill="#1e1e1e"/><path d="M137.3,97.5h-1.4l-2.6-2.9h-.1v2.9h-.9V88.6h.9v5.6h.1l2.5-2.7h1.3l-2.8,2.9Z" fill="#1e1e1e"/><path d="M143,94.7h-4.2a2.1,2.1,0,0,0,.6,1.6,2,2,0,0,0,1.4.5,2.6,2.6,0,0,0,1.8-.7V97a3.3,3.3,0,0,1-2.1.6,2.4,2.4,0,0,1-2-.8,3.7,3.7,0,0,1-.7-2.3,3.6,3.6,0,0,1,.8-2.3,2.5,2.5,0,0,1,2-.9,2.2,2.2,0,0,1,1.8.8,3.3,3.3,0,0,1,.6,2.1Zm-.9-.8a2.5,2.5,0,0,0-.4-1.3,1.5,1.5,0,0,0-1.1-.4,1.6,1.6,0,0,0-1.2.4,3.1,3.1,0,0,0-.6,1.3Z" fill="#1e1e1e"/><path d="M149.5,97.5h-1V94.1c0-1.3-.5-1.9-1.4-1.9a1.3,1.3,0,0,0-1.2.5,2.2,2.2,0,0,0-.5,1.4v3.4h-.9v-6h.9v1h.1a2.1,2.1,0,0,1,1.9-1.2,1.8,1.8,0,0,1,1.5.7,2.4,2.4,0,0,1,.6,1.8Z" fill="#1e1e1e"/><path d="M77.2,110h-.1v3.6h-.9v-8.7h.9v1h.1a2.1,2.1,0,0,1,2-1.2,2.2,2.2,0,0,1,1.8.8,3.2,3.2,0,0,1,.7,2.2,3.6,3.6,0,0,1-.7,2.4,2.5,2.5,0,0,1-2,.9A1.9,1.9,0,0,1,77.2,110Zm-.1-2.4v.8a1.7,1.7,0,0,0,1.8,1.8,1.5,1.5,0,0,0,1.3-.7,3,3,0,0,0,.5-1.8,2.5,2.5,0,0,0-.4-1.6,1.7,1.7,0,0,0-1.3-.5,1.7,1.7,0,0,0-1.4.5A2.5,2.5,0,0,0,77.1,107.6Z" fill="#1e1e1e"/><path d="M87.5,110.9h-1v-1h0a1.8,1.8,0,0,1-1.8,1.1,1.6,1.6,0,0,1-1.4-.5,1.3,1.3,0,0,1-.5-1.2c0-1.1.6-1.8,1.9-2l1.8-.2q0-1.5-1.2-1.5a3.1,3.1,0,0,0-2,.7v-1a3.7,3.7,0,0,1,2.1-.6c1.4,0,2.1.8,2.1,2.3Zm-1-3.1-1.4.2a2.3,2.3,0,0,0-1,.4.9.9,0,0,0-.4.8.8.8,0,0,0,.4.7,1,1,0,0,0,.8.3,1.7,1.7,0,0,0,1.2-.5,1.7,1.7,0,0,0,.4-1.3Z" fill="#1e1e1e"/><path d="M92.4,105.9c-.1-.2-.4-.2-.7-.2a1.2,1.2,0,0,0-1,.5,2.7,2.7,0,0,0-.4,1.6v3.1h-1v-6h1v1.2h0a2.1,2.1,0,0,1,.6-1l.9-.3h.6Z" fill="#1e1e1e"/><path d="M97.7,110.9h-.9v-1h-.1a1.8,1.8,0,0,1-1.8,1.1,1.6,1.6,0,0,1-1.4-.5,1.7,1.7,0,0,1-.5-1.2c0-1.1.7-1.8,2-2l1.8-.2c0-1-.4-1.5-1.3-1.5a2.8,2.8,0,0,0-1.9.7v-1a3.4,3.4,0,0,1,2-.6c1.4,0,2.1.8,2.1,2.3Zm-.9-3.1-1.5.2a2.3,2.3,0,0,0-1,.4c-.2.1-.3.4-.3.8a.8.8,0,0,0,.3.7,1.1,1.1,0,0,0,.8.3,1.7,1.7,0,0,0,1.2-.5,1.7,1.7,0,0,0,.5-1.3Z" fill="#1e1e1e"/><path d="M107.1,110.9h-1v-1h0a1.9,1.9,0,0,1-1.9,1.1,1.7,1.7,0,0,1-1.4-.5,1.7,1.7,0,0,1-.5-1.2c0-1.1.7-1.8,2-2l1.8-.2q0-1.5-1.2-1.5a3.1,3.1,0,0,0-2,.7v-1a3.7,3.7,0,0,1,2.1-.6c1.4,0,2.1.8,2.1,2.3Zm-1-3.1-1.4.2a1.9,1.9,0,0,0-1,.4c-.3.1-.4.4-.4.8a.8.8,0,0,0,.3.7,1.2,1.2,0,0,0,.9.3,2.1,2.1,0,0,0,1.2-.5,1.7,1.7,0,0,0,.4-1.3Z" fill="#1e1e1e"/><path d="M109.8,110h0v3.6h-.9v-8.7h.9v1h0a2.4,2.4,0,0,1,2.1-1.2,2.2,2.2,0,0,1,1.8.8,3.2,3.2,0,0,1,.7,2.2,4.3,4.3,0,0,1-.7,2.4,2.6,2.6,0,0,1-2.1.9A2.1,2.1,0,0,1,109.8,110Zm0-2.4v.8a1.9,1.9,0,0,0,.5,1.3,1.7,1.7,0,0,0,1.2.5,1.5,1.5,0,0,0,1.4-.7,3,3,0,0,0,.5-1.8,2.5,2.5,0,0,0-.5-1.6,1.3,1.3,0,0,0-1.2-.5,1.7,1.7,0,0,0-1.4.5A2.5,2.5,0,0,0,109.8,107.6Z" fill="#1e1e1e"/><path d="M116.9,110.9h-1V102h1Z" fill="#1e1e1e"/><path d="M119.3,103.4l-.5-.2a.6.6,0,0,1,0-.9l.5-.2.4.2a.6.6,0,0,1,0,.9Zm.4,7.5h-.9v-6h.9Z" fill="#1e1e1e"/><path d="M125.7,110.6a2.7,2.7,0,0,1-1.6.4,3.2,3.2,0,0,1-2.1-.8,3.3,3.3,0,0,1-.8-2.2,3.2,3.2,0,0,1,.9-2.4,3,3,0,0,1,2.3-.9,3.2,3.2,0,0,1,1.4.3v1a2.8,2.8,0,0,0-1.5-.4,2,2,0,0,0-1.5.6,2.7,2.7,0,0,0,0,3.4,2,2,0,0,0,1.5.6,2.4,2.4,0,0,0,1.4-.5Z" fill="#1e1e1e"/><path d="M131.5,110.9h-1v-1h0a1.9,1.9,0,0,1-1.9,1.1,1.7,1.7,0,0,1-1.4-.5,1.7,1.7,0,0,1-.5-1.2c0-1.1.7-1.8,2-2l1.8-.2q0-1.5-1.2-1.5a3.1,3.1,0,0,0-2,.7v-1a3.7,3.7,0,0,1,2.1-.6c1.4,0,2.1.8,2.1,2.3Zm-1-3.1-1.4.2a1.9,1.9,0,0,0-1,.4c-.3.1-.4.4-.4.8a.8.8,0,0,0,.3.7,1.2,1.2,0,0,0,.9.3,1.6,1.6,0,0,0,1.1-.5,1.4,1.4,0,0,0,.5-1.3Z" fill="#1e1e1e"/><path d="M136,110.8l-.9.2c-1,0-1.5-.6-1.5-1.7v-3.6h-1.1v-.8h1.1v-1.5l.9-.3v1.8H136v.8h-1.5v3.4a1.3,1.3,0,0,0,.2.8.9.9,0,0,0,.7.3l.6-.2Z" fill="#1e1e1e"/><path d="M137.8,103.4a.5.5,0,0,1-.4-.2c-.2-.1-.2-.3-.2-.5a.4.4,0,0,1,.2-.4.5.5,0,0,1,.4-.2l.4.2a.4.4,0,0,1,.2.4c0,.2,0,.4-.2.5Zm.5,7.5h-1v-6h1Z" fill="#1e1e1e"/><path d="M144.9,104.9l-2.4,6h-.9l-2.3-6h1l1.6,4.3a3.7,3.7,0,0,1,.2.9h0a1.9,1.9,0,0,1,.2-.8l1.6-4.4Z" fill="#1e1e1e"/><path d="M148.4,111a2.9,2.9,0,0,1-2.1-.8,3.3,3.3,0,0,1-.8-2.2,3.5,3.5,0,0,1,.8-2.4,3,3,0,0,1,2.3-.9,2.7,2.7,0,0,1,2.1.9,3.2,3.2,0,0,1,.7,2.3,3.6,3.6,0,0,1-.8,2.3A3.1,3.1,0,0,1,148.4,111Zm.1-5.4a2,2,0,0,0-1.5.6,3.1,3.1,0,0,0,0,3.4,2,2,0,0,0,1.5.6,1.7,1.7,0,0,0,1.4-.6,2.3,2.3,0,0,0,.5-1.7,2.2,2.2,0,0,0-.5-1.7A1.7,1.7,0,0,0,148.5,105.6Z" fill="#1e1e1e"/><path d="M240.9,248h-4.5v-8.4h4.3v.9h-3.3v2.8h3v.9h-3v2.9h3.5Z" fill="#fff" stroke="#fff" stroke-miterlimit="10" stroke-width="0.05"/><path d="M247.3,248h-.9v-3.4c0-1.3-.5-1.9-1.4-1.9a1.3,1.3,0,0,0-1.2.5,2.2,2.2,0,0,0-.5,1.4V248h-.9v-6h.9v1h.1a2.1,2.1,0,0,1,1.9-1.2,1.8,1.8,0,0,1,1.5.7,2.4,2.4,0,0,1,.5,1.8Z" fill="#fff" stroke="#fff" stroke-miterlimit="10" stroke-width="0.05"/><path d="M251.9,247.9l-.9.2c-1,0-1.5-.6-1.5-1.7v-3.6h-1.1V242h1.1v-1.5l.9-.3V242h1.5v.8h-1.5v3.4a1.3,1.3,0,0,0,.2.8.9.9,0,0,0,.7.3l.6-.2Z" fill="#fff" stroke="#fff" stroke-miterlimit="10" stroke-width="0.05"/><path d="M253.7,240.5l-.4-.2a.6.6,0,0,1,0-.9.5.5,0,0,1,.4-.2l.5.2a.6.6,0,0,1,0,.9Zm.5,7.5h-1v-6h1Z" fill="#fff" stroke="#fff" stroke-miterlimit="10" stroke-width="0.05"/><path d="M261.3,248h-1v-1h0a2.5,2.5,0,0,1-2.1,1.1,2.2,2.2,0,0,1-1.8-.8,3.1,3.1,0,0,1-.7-2.2,3.6,3.6,0,0,1,.8-2.4,2.4,2.4,0,0,1,2-.9,2.1,2.1,0,0,1,1.8,1h0v-3.7h1Zm-1-2.7v-.9a1.7,1.7,0,0,0-.5-1.2,1.3,1.3,0,0,0-1.2-.5,1.7,1.7,0,0,0-1.4.6,3,3,0,0,0-.5,1.8,2.5,2.5,0,0,0,.5,1.6,1.5,1.5,0,0,0,1.3.6,1.6,1.6,0,0,0,1.3-.6A2.2,2.2,0,0,0,260.3,245.3Z" fill="#fff" stroke="#fff" stroke-miterlimit="10" stroke-width="0.05"/><path d="M267.5,248h-1v-1h0a1.8,1.8,0,0,1-1.8,1.1,1.6,1.6,0,0,1-1.4-.5,1.3,1.3,0,0,1-.5-1.2c0-1.1.6-1.8,1.9-2l1.8-.2q0-1.5-1.2-1.5a3.1,3.1,0,0,0-2,.7v-1a3.7,3.7,0,0,1,2.1-.6c1.4,0,2.1.8,2.1,2.3Zm-1-3.1-1.4.2a1.9,1.9,0,0,0-1,.4.9.9,0,0,0-.4.8.7.7,0,0,0,.4.7,1,1,0,0,0,.8.3,1.7,1.7,0,0,0,1.2-.5,1.7,1.7,0,0,0,.4-1.3Z" fill="#fff" stroke="#fff" stroke-miterlimit="10" stroke-width="0.05"/><path d="M274.4,248h-.9v-1h-.1a2.2,2.2,0,0,1-2,1.1,1.9,1.9,0,0,1-1.8-.8,3.1,3.1,0,0,1-.7-2.2,3.6,3.6,0,0,1,.7-2.4,2.5,2.5,0,0,1,2-.9,1.9,1.9,0,0,1,1.8,1h.1v-3.7h.9Zm-.9-2.7v-.9a1.7,1.7,0,0,0-.5-1.2,1.3,1.3,0,0,0-1.2-.5,1.7,1.7,0,0,0-1.4.6,2.4,2.4,0,0,0-.5,1.8,2.1,2.1,0,0,0,.5,1.6,1.5,1.5,0,0,0,1.3.6,1.8,1.8,0,0,0,1.3-.6A2.2,2.2,0,0,0,273.5,245.3Z" fill="#fff" stroke="#fff" stroke-miterlimit="10" stroke-width="0.05"/><path d="M281.2,245.2H277a2.5,2.5,0,0,0,.5,1.6,2,2,0,0,0,1.4.5,2.8,2.8,0,0,0,1.9-.7v.9a3.3,3.3,0,0,1-2.1.6,2.3,2.3,0,0,1-2-.8,3.2,3.2,0,0,1-.7-2.3,3.1,3.1,0,0,1,.8-2.3,2.3,2.3,0,0,1,1.9-.9,2.2,2.2,0,0,1,1.8.8,2.8,2.8,0,0,1,.7,2.1Zm-1-.8a1.8,1.8,0,0,0-.4-1.3,1.4,1.4,0,0,0-1.1-.4,1.5,1.5,0,0,0-1.1.4,1.8,1.8,0,0,0-.6,1.3Z" fill="#fff" stroke="#fff" stroke-miterlimit="10" stroke-width="0.05"/><path d="M237.3,261.4h-1v-1h0a2.5,2.5,0,0,1-2.1,1.1,2.2,2.2,0,0,1-1.8-.8,3.1,3.1,0,0,1-.7-2.2,3.6,3.6,0,0,1,.8-2.4,2.4,2.4,0,0,1,2-.9,2.1,2.1,0,0,1,1.8,1h0v-3.7h1Zm-1-2.7v-.9a1.7,1.7,0,0,0-.5-1.2,1.3,1.3,0,0,0-1.2-.5,1.7,1.7,0,0,0-1.4.6,3,3,0,0,0-.5,1.8,2.5,2.5,0,0,0,.5,1.6,1.5,1.5,0,0,0,1.3.6,1.6,1.6,0,0,0,1.3-.6A2.2,2.2,0,0,0,236.3,258.7Z" fill="#fff" stroke="#fff" stroke-miterlimit="10" stroke-width="0.05"/><path d="M244,258.6h-4.2a2.5,2.5,0,0,0,.5,1.6,2.2,2.2,0,0,0,1.4.5,2.8,2.8,0,0,0,1.9-.7v.9a3.3,3.3,0,0,1-2.1.6,2.4,2.4,0,0,1-2-.8,3.2,3.2,0,0,1-.7-2.3,3.6,3.6,0,0,1,.8-2.3,2.5,2.5,0,0,1,3.8-.1,3.3,3.3,0,0,1,.6,2.1Zm-1-.8a1.8,1.8,0,0,0-.4-1.3,1.2,1.2,0,0,0-1.1-.4,1.5,1.5,0,0,0-1.1.4,3.1,3.1,0,0,0-.6,1.3Z" fill="#fff" stroke="#fff" stroke-miterlimit="10" stroke-width="0.05"/><path d="M248.5,261v-1.1l.5.3.6.2.6.2h.6a2.3,2.3,0,0,0,1.3-.3,1.1,1.1,0,0,0,.5-1,1.4,1.4,0,0,0-.2-.6c-.1-.1-.2-.3-.4-.4l-.6-.4-.8-.4-.8-.5a1.8,1.8,0,0,1-.7-.5l-.4-.6a1.9,1.9,0,0,1-.2-.8,1.7,1.7,0,0,1,.3-1c.1-.3.4-.5.6-.7l1-.4,1-.2a3.6,3.6,0,0,1,1.8.3v1.1a3.6,3.6,0,0,0-1.9-.5h-.6l-.6.2-.4.4a1,1,0,0,0,0,1.2l.3.4.6.4.8.4.8.4.7.6.5.6a2.4,2.4,0,0,1,.2.9,1.7,1.7,0,0,1-.3,1,1.3,1.3,0,0,1-.6.7l-1,.4h-2.2l-.6-.2Z" fill="#fff" stroke="#fff" stroke-miterlimit="10" stroke-width="0.05"/><path d="M260,258.6h-4.3a2.1,2.1,0,0,0,.6,1.6,2,2,0,0,0,1.4.5,2.4,2.4,0,0,0,1.8-.7v.9a3.2,3.2,0,0,1-2,.6,2.2,2.2,0,0,1-2-.8,3.2,3.2,0,0,1-.8-2.3,3.6,3.6,0,0,1,.8-2.3,2.5,2.5,0,0,1,2-.9,2.2,2.2,0,0,1,1.8.8,3.3,3.3,0,0,1,.7,2.1Zm-1-.8a2.5,2.5,0,0,0-.4-1.3,1.5,1.5,0,0,0-1.1-.4,1.6,1.6,0,0,0-1.2.4,3.1,3.1,0,0,0-.6,1.3Z" fill="#fff" stroke="#fff" stroke-miterlimit="10" stroke-width="0.05"/><path d="M264.5,256.4c-.1-.2-.4-.2-.7-.2a1.4,1.4,0,0,0-1,.5,2.7,2.7,0,0,0-.4,1.6v3.1h-1v-6h1v1.2h0a2.1,2.1,0,0,1,.6-1,1.7,1.7,0,0,1,1-.3h.5Z" fill="#fff" stroke="#fff" stroke-miterlimit="10" stroke-width="0.05"/><path d="M270.3,255.4l-2.4,6H267l-2.3-6h1l1.6,4.3a3.7,3.7,0,0,1,.2.9h0a1.9,1.9,0,0,1,.2-.8l1.6-4.4Z" fill="#fff" stroke="#fff" stroke-miterlimit="10" stroke-width="0.05"/><path d="M271.8,253.9l-.4-.2a.8.8,0,0,1-.2-.5l.2-.4.4-.2.5.2.2.4a.8.8,0,0,1-.2.5Zm.5,7.5h-1v-6h1Z" fill="#fff" stroke="#fff" stroke-miterlimit="10" stroke-width="0.05"/><path d="M278.3,261.1a2.7,2.7,0,0,1-1.6.4,2.9,2.9,0,0,1-2.1-.8,3.3,3.3,0,0,1-.8-2.2,3.2,3.2,0,0,1,.9-2.4,2.8,2.8,0,0,1,2.2-.9,2.9,2.9,0,0,1,1.4.3v1a2.3,2.3,0,0,0-1.4-.4,2,2,0,0,0-1.5.6,2.7,2.7,0,0,0,0,3.4,1.8,1.8,0,0,0,1.5.6,2.4,2.4,0,0,0,1.4-.5Zm-.5,1.8c0,.7-.5,1-1.6,1h-.4v-.5h.4c.6,0,.9-.2.9-.5s-.3-.5-.8-.5h-.2v-1h.6v.6l.8.2A.9.9,0,0,1,277.8,262.9Z" fill="#fff" stroke="#fff" stroke-miterlimit="10" stroke-width="0.05"/><path d="M282.3,261.5a2.8,2.8,0,0,1-2.9-3,3.1,3.1,0,0,1,.8-2.4,2.8,2.8,0,0,1,2.2-.9,2.6,2.6,0,0,1,2.1.9,3.2,3.2,0,0,1,.8,2.3,3.6,3.6,0,0,1-.8,2.3A3.3,3.3,0,0,1,282.3,261.5Zm.1-5.4a1.9,1.9,0,0,0-1.5.6,3.1,3.1,0,0,0,0,3.4,2,2,0,0,0,1.5.6,1.7,1.7,0,0,0,1.4-.6,2.9,2.9,0,0,0,.5-1.7,2.6,2.6,0,0,0-.5-1.7A1.7,1.7,0,0,0,282.4,256.1Z" fill="#fff" stroke="#fff" stroke-miterlimit="10" stroke-width="0.05"/><path d="M291,105.6a5.7,5.7,0,0,1-2.4.5,3.5,3.5,0,0,1-2.8-1.2,4,4,0,0,1-1.1-3,4.5,4.5,0,0,1,1.2-3.3,4.1,4.1,0,0,1,3.1-1.2,6,6,0,0,1,2,.3v1.1a3.7,3.7,0,0,0-2-.5,3.2,3.2,0,0,0-2.4.9,3.7,3.7,0,0,0-.9,2.6,3.5,3.5,0,0,0,.9,2.5,2.7,2.7,0,0,0,2.2.9,4.3,4.3,0,0,0,2.2-.6Z" fill="#1e1e1e"/><path d="M294.7,106.1a2.7,2.7,0,0,1-2.1-.9,3.1,3.1,0,0,1-.8-2.2,3.6,3.6,0,0,1,.8-2.4,3.4,3.4,0,0,1,2.3-.8,2.5,2.5,0,0,1,2.1.8,3.3,3.3,0,0,1,.7,2.3,3.1,3.1,0,0,1-.8,2.3A2.7,2.7,0,0,1,294.7,106.1Zm.1-5.5a2,2,0,0,0-1.5.6,2.9,2.9,0,0,0-.5,1.7,2.2,2.2,0,0,0,.6,1.7,1.9,1.9,0,0,0,2.8,0,2.2,2.2,0,0,0,.5-1.7,2.3,2.3,0,0,0-.5-1.7A1.7,1.7,0,0,0,294.8,100.6Z" fill="#1e1e1e"/><path d="M303.9,105.9H303v-3.4c0-1.3-.5-1.9-1.4-1.9a1.7,1.7,0,0,0-1.2.5,2.2,2.2,0,0,0-.5,1.4v3.4H299v-6h.9v1h0a2.4,2.4,0,0,1,2-1.1,1.8,1.8,0,0,1,1.5.6,2.4,2.4,0,0,1,.5,1.8Z" fill="#1e1e1e"/><path d="M305.1,105.7v-1a2.6,2.6,0,0,0,1.7.5c.9,0,1.3-.2,1.3-.8s-.1-.3-.1-.4l-.3-.3-.4-.2-.6-.2-.7-.4-.5-.3-.3-.5a1.3,1.3,0,0,1-.1-.6,1.4,1.4,0,0,1,.2-.7c.1-.3.3-.4.5-.6l.7-.3h.9l1.4.2v1a2.6,2.6,0,0,0-1.5-.4h-.5l-.4.2-.2.3a.4.4,0,0,0-.1.3c0,.2,0,.3.1.4s.1.2.2.3l.4.2.6.2.7.4.5.3c.2.2.3.3.3.5a1.4,1.4,0,0,1,.2.6,1.9,1.9,0,0,1-.2.8c-.2.2-.3.4-.6.5a.9.9,0,0,1-.7.3l-.9.2A3.8,3.8,0,0,1,305.1,105.7Z" fill="#1e1e1e"/><path d="M315.1,103.2h-4.3a2,2,0,0,0,.6,1.5,1.6,1.6,0,0,0,1.4.5,3.3,3.3,0,0,0,1.9-.6v.9a3.7,3.7,0,0,1-2.1.6,2.3,2.3,0,0,1-2-.9,3.2,3.2,0,0,1-.8-2.3,3.1,3.1,0,0,1,.8-2.2,2.7,2.7,0,0,1,2-.9,2.1,2.1,0,0,1,1.8.7,2.9,2.9,0,0,1,.7,2.2Zm-1-.9a2.8,2.8,0,0,0-.4-1.3,1.4,1.4,0,0,0-1.1-.4,1.3,1.3,0,0,0-1.2.5,2.3,2.3,0,0,0-.6,1.2Z" fill="#1e1e1e"/><path d="M321.2,105.9h-1v-3.4c0-1.3-.4-1.9-1.4-1.9a1.6,1.6,0,0,0-1.1.5,1.7,1.7,0,0,0-.5,1.4v3.4h-1v-6h1v1h0a2.3,2.3,0,0,1,2-1.1,2,2,0,0,1,1.5.6,3,3,0,0,1,.5,1.8Z" fill="#1e1e1e"/><path d="M325.5,105.9h-.9c-1.1,0-1.6-.5-1.6-1.7v-3.6h-1v-.8h1V98.4l1-.3v1.8h1.5v.8H324v3.4a2,2,0,0,0,.2.9l.7.2a.7.7,0,0,0,.6-.2Z" fill="#1e1e1e"/><path d="M327,98.4l-.5-.2a.6.6,0,0,1,0-.9l.5-.2.4.2a.6.6,0,0,1,0,.9Zm.4,7.5h-.9v-6h.9Z" fill="#1e1e1e"/><path d="M293.6,119.3h-.9v-3.4a2.8,2.8,0,0,0-.3-1.5,1.4,1.4,0,0,0-1.1-.4,1.4,1.4,0,0,0-1,.5,2.4,2.4,0,0,0-.5,1.4v3.4h-.9v-3.5c0-1.2-.5-1.8-1.4-1.8a1.2,1.2,0,0,0-1,.5,2.1,2.1,0,0,0-.4,1.4v3.4h-1v-6h1v1h0a1.9,1.9,0,0,1,1.9-1.1,1.7,1.7,0,0,1,1,.3,1.5,1.5,0,0,1,.6.9,2.3,2.3,0,0,1,2-1.2c1.4,0,2,.8,2,2.4Z" fill="#1e1e1e"/><path d="M300,116.6h-4.3a2,2,0,0,0,.6,1.5,1.6,1.6,0,0,0,1.4.5,2.8,2.8,0,0,0,1.8-.6v.9a3.2,3.2,0,0,1-2,.6,2.3,2.3,0,0,1-2-.9,3.2,3.2,0,0,1-.8-2.3,3.1,3.1,0,0,1,.8-2.2,2.7,2.7,0,0,1,2-.9,2.1,2.1,0,0,1,1.8.7,3.4,3.4,0,0,1,.7,2.2Zm-1-.9a2.8,2.8,0,0,0-.4-1.3,1.5,1.5,0,0,0-1.1-.4,1.3,1.3,0,0,0-1.2.5,2.3,2.3,0,0,0-.6,1.2Z" fill="#1e1e1e"/><path d="M306.1,119.3h-1v-3.4c0-1.3-.4-1.9-1.4-1.9a2.1,2.1,0,0,0-1.2.5,2.1,2.1,0,0,0-.4,1.4v3.4h-1v-6h1v1h0a2.3,2.3,0,0,1,2-1.1,2,2,0,0,1,1.5.6,3,3,0,0,1,.5,1.8Z" fill="#1e1e1e"/><path d="M310.4,119.3h-.9c-1.1,0-1.6-.5-1.6-1.7v-3.6h-1v-.8h1v-1.4l1-.4v1.8h1.5v.8h-1.5v3.4c0,.4,0,.7.2.9a1,1,0,0,0,.7.2.7.7,0,0,0,.6-.2Z" fill="#1e1e1e"/><path d="M313.9,119.5a2.6,2.6,0,0,1-2.1-.9,2.7,2.7,0,0,1-.8-2.2,3.2,3.2,0,0,1,.8-2.4,3.1,3.1,0,0,1,2.2-.8,2.5,2.5,0,0,1,2.1.8,3.4,3.4,0,0,1,.8,2.3,3.6,3.6,0,0,1-.8,2.3A2.9,2.9,0,0,1,313.9,119.5Zm0-5.5a1.7,1.7,0,0,0-1.4.6,2.4,2.4,0,0,0-.6,1.8,2.1,2.1,0,0,0,.6,1.6,1.8,1.8,0,0,0,1.4.6,1.9,1.9,0,0,0,1.5-.6,2.6,2.6,0,0,0,.5-1.7,2.9,2.9,0,0,0-.5-1.7A1.9,1.9,0,0,0,313.9,114Z" fill="#1e1e1e"/><path d="M371.6,105.9h-1.2l-1.4-2.3c-.1-.3-.3-.4-.4-.6l-.4-.4-.4-.2h-1.3v3.6h-1V97.5h3.6l.8.5a1.8,1.8,0,0,1,.5.7,2.9,2.9,0,0,1,.1,1.8l-.4.6-.6.5-.8.3h0l.4.2.3.3.3.4.3.5Zm-5.1-7.5v3h2a.7.7,0,0,0,.6-.3.9.9,0,0,0,.3-.5,1.4,1.4,0,0,0,.2-.7,1.2,1.2,0,0,0-.5-1,1.6,1.6,0,0,0-1.2-.4Z"/><path d="M377.1,103.2h-4.3a2,2,0,0,0,.6,1.5,1.6,1.6,0,0,0,1.4.5,2.8,2.8,0,0,0,1.8-.6v.9a3.2,3.2,0,0,1-2,.6,2.3,2.3,0,0,1-2-.9,3.2,3.2,0,0,1-.8-2.3,3.1,3.1,0,0,1,.8-2.2,2.7,2.7,0,0,1,2-.9,2.1,2.1,0,0,1,1.8.7,2.9,2.9,0,0,1,.7,2.2Zm-1-.9a2.8,2.8,0,0,0-.4-1.3,1.5,1.5,0,0,0-1.1-.4,1.3,1.3,0,0,0-1.2.5,2.3,2.3,0,0,0-.6,1.2Z"/><path d="M381.3,105.9h-.9c-1,0-1.6-.5-1.6-1.7v-3.6h-1v-.8h1V98.4l1-.3v1.8h1.5v.8h-1.5v3.4a2,2,0,0,0,.2.9l.7.2a.7.7,0,0,0,.6-.2Z"/><path d="M385.1,106.1a2.6,2.6,0,0,1-2.1-.9,2.7,2.7,0,0,1-.8-2.2,3.6,3.6,0,0,1,.8-2.4,3.3,3.3,0,0,1,2.2-.8,2.5,2.5,0,0,1,2.1.8,3.4,3.4,0,0,1,.8,2.3,3.6,3.6,0,0,1-.8,2.3A2.9,2.9,0,0,1,385.1,106.1Zm.1-5.5a1.9,1.9,0,0,0-1.5.6,2.3,2.3,0,0,0-.5,1.7,2.2,2.2,0,0,0,.5,1.7,2,2,0,0,0,1.5.6,1.7,1.7,0,0,0,1.4-.6,2.6,2.6,0,0,0,.5-1.7,2.9,2.9,0,0,0-.5-1.7A1.7,1.7,0,0,0,385.2,100.6Z"/><path d="M392.7,100.9l-.7-.2a1.2,1.2,0,0,0-1,.6,2.5,2.5,0,0,0-.4,1.6v3h-1v-6h1v1.3h0a1.4,1.4,0,0,1,.6-1,1.3,1.3,0,0,1,1-.4h.5Z"/><path d="M398.8,105.9h-1v-3.4c0-1.3-.5-1.9-1.4-1.9a1.7,1.7,0,0,0-1.2.5,2.2,2.2,0,0,0-.5,1.4v3.4h-.9v-6h.9v1h.1a2.1,2.1,0,0,1,1.9-1.1,1.8,1.8,0,0,1,1.5.6,2.4,2.4,0,0,1,.6,1.8Z"/><path d="M404.9,105.9h-1V105h0a2,2,0,0,1-1.9,1.1,2.2,2.2,0,0,1-1.4-.5,1.9,1.9,0,0,1-.5-1.3c0-1.1.7-1.8,2-1.9l1.8-.3q0-1.5-1.2-1.5a3.1,3.1,0,0,0-2,.7v-1a4.6,4.6,0,0,1,2.1-.5c1.4,0,2.1.7,2.1,2.2Zm-1-3-1.4.2a2,2,0,0,0-1,.3c-.3.2-.4.4-.4.9a1.1,1.1,0,0,0,.3.7c.2.2.5.2.9.2a1.3,1.3,0,0,0,1.1-.5,1.3,1.3,0,0,0,.5-1.2Z"/><path d="M409.8,100.9l-.7-.2a1.1,1.1,0,0,0-1,.6,2.5,2.5,0,0,0-.5,1.6v3h-.9v-6h.9v1.3h.1a1.4,1.4,0,0,1,.6-1,1.2,1.2,0,0,1,.9-.4h.6Z"/><path d="M368.2,119.9h-.9c-1,0-1.6-.5-1.6-1.7v-3.6h-1v-.8h1v-1.5l1-.3v1.8h1.5v.8h-1.5v3.4a2,2,0,0,0,.2.9l.7.2a.7.7,0,0,0,.6-.2Z"/><path d="M372,120.1a2.6,2.6,0,0,1-2.1-.9,2.7,2.7,0,0,1-.8-2.2,3.2,3.2,0,0,1,.8-2.4,3.3,3.3,0,0,1,2.2-.8,2.5,2.5,0,0,1,2.1.8,3.4,3.4,0,0,1,.8,2.3,3.6,3.6,0,0,1-.8,2.3A2.9,2.9,0,0,1,372,120.1Zm.1-5.5a1.9,1.9,0,0,0-1.5.6,2.3,2.3,0,0,0-.5,1.7,2.2,2.2,0,0,0,.5,1.7,2,2,0,0,0,1.5.6,1.7,1.7,0,0,0,1.4-.6,2.6,2.6,0,0,0,.5-1.7,2.9,2.9,0,0,0-.5-1.7A1.7,1.7,0,0,0,372.1,114.6Z"/><path d="M381.5,119.9h-1.4l-2.6-2.9h0v2.9h-1V111h1v5.7h0l2.5-2.8h1.3l-2.8,2.9Z"/><path d="M387.3,117.2h-4.2a2.5,2.5,0,0,0,.5,1.5,1.6,1.6,0,0,0,1.4.5,3.3,3.3,0,0,0,1.9-.6v.9a3.3,3.3,0,0,1-2.1.6,2.4,2.4,0,0,1-2-.9,3.2,3.2,0,0,1-.7-2.3,2.7,2.7,0,0,1,.8-2.2,2.3,2.3,0,0,1,1.9-.9,2.5,2.5,0,0,1,1.9.7,3.4,3.4,0,0,1,.6,2.2Zm-1-.9a2,2,0,0,0-.4-1.3,1.2,1.2,0,0,0-1.1-.4,1.3,1.3,0,0,0-1.1.5,1.7,1.7,0,0,0-.6,1.2Z"/><path d="M393.7,119.9h-.9v-3.4c0-1.3-.5-1.9-1.4-1.9a1.7,1.7,0,0,0-1.2.5,2.2,2.2,0,0,0-.5,1.4v3.4h-.9v-6h.9v1h0a2.3,2.3,0,0,1,2-1.1,1.8,1.8,0,0,1,1.5.6,2.4,2.4,0,0,1,.5,1.8Z"/><path d="M288.2,206.2v3.2h-1V201h2.3a2.8,2.8,0,0,1,2.1.7,2.2,2.2,0,0,1,.8,1.8,2.5,2.5,0,0,1-.9,2,2.9,2.9,0,0,1-2.2.7Zm0-4.3v3.4h1a2.5,2.5,0,0,0,1.6-.4,1.5,1.5,0,0,0,.5-1.3c0-1.1-.6-1.7-1.9-1.7Z"/><path d="M295.9,209.6a2.6,2.6,0,0,1-2.1-.9,2.7,2.7,0,0,1-.8-2.2,3.2,3.2,0,0,1,.8-2.4,3.1,3.1,0,0,1,2.2-.8,2.9,2.9,0,0,1,2.1.8,3.4,3.4,0,0,1,.8,2.3,3.6,3.6,0,0,1-.8,2.3A2.9,2.9,0,0,1,295.9,209.6Zm.1-5.5a1.9,1.9,0,0,0-1.5.6,2.4,2.4,0,0,0-.5,1.8,2.1,2.1,0,0,0,.5,1.6,1.9,1.9,0,0,0,1.5.6,1.7,1.7,0,0,0,1.4-.6,2.6,2.6,0,0,0,.5-1.7,2.9,2.9,0,0,0-.5-1.7A1.7,1.7,0,0,0,296,204.1Z"/><path d="M305.4,209.4h-1V206c0-1.3-.4-1.9-1.4-1.9a2.1,2.1,0,0,0-1.2.5,2.1,2.1,0,0,0-.4,1.4v3.4h-1v-6h1v1h0a2.2,2.2,0,0,1,2-1.1,2,2,0,0,1,1.5.6,3,3,0,0,1,.5,1.8Z"/><path d="M310,209.4h-.9c-1.1,0-1.6-.5-1.6-1.7v-3.6h-1v-.8h1V202l1-.4v1.8H310v.8h-1.5v3.4c0,.4,0,.7.2.9s.3.2.7.2a.7.7,0,0,0,.6-.2Z"/><path d="M313.8,209.6a2.6,2.6,0,0,1-2.1-.9,2.7,2.7,0,0,1-.8-2.2,3.2,3.2,0,0,1,.8-2.4,3.1,3.1,0,0,1,2.2-.8,2.9,2.9,0,0,1,2.1.8,3.4,3.4,0,0,1,.8,2.3,3.6,3.6,0,0,1-.8,2.3A2.9,2.9,0,0,1,313.8,209.6Zm0-5.5a1.7,1.7,0,0,0-1.4.6,2.4,2.4,0,0,0-.6,1.8,2.1,2.1,0,0,0,.6,1.6,1.7,1.7,0,0,0,1.4.6,1.9,1.9,0,0,0,1.5-.6,2.6,2.6,0,0,0,.5-1.7,2.9,2.9,0,0,0-.5-1.7A1.9,1.9,0,0,0,313.8,204.1Z"/><path d="M326.7,209.4h-1v-1h0a2.1,2.1,0,0,1-2,1.2,2.2,2.2,0,0,1-1.8-.8,3.2,3.2,0,0,1-.7-2.2,3.6,3.6,0,0,1,.7-2.4,2.5,2.5,0,0,1,2-.9,2,2,0,0,1,1.8.9h0v-3.7h1Zm-1-2.7v-.9a1.6,1.6,0,0,0-.4-1.2,2.1,2.1,0,0,0-1.3-.5,1.6,1.6,0,0,0-1.3.6,2.7,2.7,0,0,0-.5,1.8,2.5,2.5,0,0,0,.4,1.6,1.8,1.8,0,0,0,1.3.6,1.4,1.4,0,0,0,1.3-.5A2,2,0,0,0,325.7,206.7Z"/><path d="M333.5,206.7h-4.3a2.5,2.5,0,0,0,.6,1.5,1.6,1.6,0,0,0,1.4.5,3.3,3.3,0,0,0,1.9-.6v.9a3.7,3.7,0,0,1-2.1.6,2.4,2.4,0,0,1-2-.9,3.2,3.2,0,0,1-.8-2.3,3.1,3.1,0,0,1,.8-2.2,2.7,2.7,0,0,1,2-.9,2.1,2.1,0,0,1,1.8.7,3.1,3.1,0,0,1,.7,2.2Zm-1-.9a2,2,0,0,0-.4-1.3,1.4,1.4,0,0,0-1.1-.4,1.5,1.5,0,0,0-1.2.5,2.3,2.3,0,0,0-.6,1.2Z"/><path d="M343,206.7h-4.2a2.5,2.5,0,0,0,.5,1.5,2,2,0,0,0,1.5.5,3,3,0,0,0,1.8-.6v.9a3.3,3.3,0,0,1-2.1.6,2.5,2.5,0,0,1-2-.9,3.2,3.2,0,0,1-.7-2.3,3.1,3.1,0,0,1,.8-2.2,2.5,2.5,0,0,1,2-.9,2.1,2.1,0,0,1,1.8.7,3.6,3.6,0,0,1,.6,2.2Zm-.9-.9a5,5,0,0,0-.4-1.3,1.5,1.5,0,0,0-1.1-.4,1.3,1.3,0,0,0-1.2.5,2.3,2.3,0,0,0-.6,1.2Z"/><path d="M348.9,203.4l-2,3.1,1.9,2.9h-1.1l-1.2-1.9c0-.2-.1-.3-.2-.5h0c-.1,0-.2.2-.3.5l-1.2,1.9h-1.1l2-2.9-1.9-3.1h1.1l1.1,2.1.3.4h0l1.5-2.5Z"/><path d="M352.8,209.4h-.9c-1.1,0-1.6-.5-1.6-1.7v-3.6h-1v-.8h1V202l1-.4v1.8h1.5v.8h-1.5v3.4c0,.4,0,.7.2.9s.3.2.7.2a.7.7,0,0,0,.6-.2Z"/><path d="M357.2,204.4l-.7-.2a1.4,1.4,0,0,0-1.1.6,3.4,3.4,0,0,0-.4,1.6v3h-.9v-6h.9v1.3h0a2,2,0,0,1,.7-1,1.2,1.2,0,0,1,.9-.4h.6Z"/><path d="M363.1,206.7h-4.3a2,2,0,0,0,.6,1.5,1.6,1.6,0,0,0,1.4.5,2.8,2.8,0,0,0,1.8-.6v.9a3.3,3.3,0,0,1-2.1.6,2.2,2.2,0,0,1-1.9-.9,3.2,3.2,0,0,1-.8-2.3,3.1,3.1,0,0,1,.8-2.2,2.5,2.5,0,0,1,2-.9,2.1,2.1,0,0,1,1.8.7,3.6,3.6,0,0,1,.7,2.2Zm-1-.9a2.8,2.8,0,0,0-.4-1.3,1.5,1.5,0,0,0-1.1-.4,1.3,1.3,0,0,0-1.2.5,2.3,2.3,0,0,0-.6,1.2Z"/><path d="M373,209.4h-.9V206a2.8,2.8,0,0,0-.3-1.5,1.2,1.2,0,0,0-1.1-.4,1.4,1.4,0,0,0-1,.5,2.3,2.3,0,0,0-.4,1.4v3.4h-1v-3.5c0-1.2-.5-1.8-1.4-1.8a1.4,1.4,0,0,0-1,.5,2.1,2.1,0,0,0-.4,1.4v3.4h-1v-6h1v1h0a1.9,1.9,0,0,1,1.9-1.1,1.7,1.7,0,0,1,1,.3,2.2,2.2,0,0,1,.7.9,2.1,2.1,0,0,1,1.9-1.2c1.4,0,2,.8,2,2.4Z"/><path d="M375.3,201.9l-.4-.2a.5.5,0,0,1-.2-.4.8.8,0,0,1,.2-.5l.4-.2.5.2a.8.8,0,0,1,.2.5l-.2.4Zm.5,7.5h-1v-6h1Z"/><path d="M382.9,209.4h-1v-1h0a2.2,2.2,0,0,1-2.1,1.2,2.5,2.5,0,0,1-1.8-.8,3.8,3.8,0,0,1-.7-2.2,3.6,3.6,0,0,1,.8-2.4,2.5,2.5,0,0,1,2-.9,2,2,0,0,1,1.8.9h0v-3.7h1Zm-1-2.7v-.9a1.3,1.3,0,0,0-.5-1.2,1.7,1.7,0,0,0-1.2-.5,1.8,1.8,0,0,0-1.4.6,3.5,3.5,0,0,0-.5,1.8,2.5,2.5,0,0,0,.5,1.6,1.6,1.6,0,0,0,1.3.6,1.5,1.5,0,0,0,1.3-.5A2.5,2.5,0,0,0,381.9,206.7Z"/><path d="M389.1,209.4h-.9v-.9h-.1a2.1,2.1,0,0,1-3.2.6,1.5,1.5,0,0,1-.5-1.3c0-1.1.6-1.8,2-1.9l1.8-.3c0-1-.5-1.5-1.3-1.5a2.6,2.6,0,0,0-1.9.7v-1a3.9,3.9,0,0,1,2-.5c1.4,0,2.1.7,2.1,2.2Zm-.9-3-1.5.2a2.4,2.4,0,0,0-1,.3,1,1,0,0,0,.8,1.8,1.3,1.3,0,0,0,1.2-.5,1.7,1.7,0,0,0,.5-1.2Z"/><path d="M396,209.4h-.9v-1h0a2.4,2.4,0,0,1-2.1,1.2,2.2,2.2,0,0,1-1.8-.8,3.2,3.2,0,0,1-.7-2.2,3.6,3.6,0,0,1,.8-2.4,2.4,2.4,0,0,1,2-.9,2,2,0,0,1,1.8.9h0v-3.7h.9Zm-.9-2.7v-.9a1.7,1.7,0,0,0-1.7-1.7,1.7,1.7,0,0,0-1.4.6,3.5,3.5,0,0,0-.5,1.8,2.5,2.5,0,0,0,.5,1.6,1.5,1.5,0,0,0,1.3.6,1.7,1.7,0,0,0,1.3-.5A2.5,2.5,0,0,0,395.1,206.7Z"/><path d="M402.8,206.7h-4.2a2.5,2.5,0,0,0,.5,1.5,1.7,1.7,0,0,0,1.4.5,3.3,3.3,0,0,0,1.9-.6v.9a3.3,3.3,0,0,1-2.1.6,2.5,2.5,0,0,1-2-.9,3.2,3.2,0,0,1-.7-2.3,2.7,2.7,0,0,1,.8-2.2,2.5,2.5,0,0,1,1.9-.9,2.5,2.5,0,0,1,1.9.7,3.6,3.6,0,0,1,.6,2.2Zm-1-.9a2,2,0,0,0-.4-1.3,1.2,1.2,0,0,0-1.1-.4,1.3,1.3,0,0,0-1.1.5,2.3,2.3,0,0,0-.6,1.2Z"/><path d="M292.2,221.4h-.9v-1h-.1a2.1,2.1,0,0,1-2,1.2,2.2,2.2,0,0,1-1.8-.8,3.2,3.2,0,0,1-.7-2.2,3.6,3.6,0,0,1,.7-2.4,2.5,2.5,0,0,1,2-.9,1.8,1.8,0,0,1,1.8.9h.1v-3.7h.9Zm-.9-2.7v-.9a1.7,1.7,0,0,0-1.7-1.7,1.7,1.7,0,0,0-1.4.6,2.7,2.7,0,0,0-.5,1.8,2.1,2.1,0,0,0,.5,1.6,1.5,1.5,0,0,0,1.3.6,1.7,1.7,0,0,0,1.3-.5A2.5,2.5,0,0,0,291.3,218.7Z"/><path d="M298.5,221.4h-1v-.9h0a2.1,2.1,0,0,1-1.9,1.1,2.2,2.2,0,0,1-1.4-.5,1.9,1.9,0,0,1-.5-1.3c0-1.1.7-1.8,2-1.9l1.8-.3q0-1.5-1.2-1.5a2.9,2.9,0,0,0-2,.7v-1a4.6,4.6,0,0,1,2-.5,1.9,1.9,0,0,1,2.2,2.2Zm-1-3-1.4.2a2.9,2.9,0,0,0-1.1.3,1.2,1.2,0,0,0,0,1.6c.2.2.5.2.9.2a1.3,1.3,0,0,0,1.1-.5,1.7,1.7,0,0,0,.5-1.2Z"/><path d="M307.9,221.4h-1v-.9h0a2.1,2.1,0,0,1-1.9,1.1,2.2,2.2,0,0,1-1.4-.5,1.9,1.9,0,0,1-.5-1.3c0-1.1.7-1.8,2-1.9l1.8-.3q0-1.5-1.2-1.5a2.9,2.9,0,0,0-2,.7v-1a4.6,4.6,0,0,1,2-.5,1.9,1.9,0,0,1,2.2,2.2Zm-1-3-1.5.2a2.9,2.9,0,0,0-1,.3,1,1,0,0,0,.8,1.8,1.3,1.3,0,0,0,1.2-.5,1.7,1.7,0,0,0,.5-1.2Z"/><path d="M314.5,221.4h-.9v-.9h-.1a2,2,0,0,1-1.8,1.1c-1.4,0-2.2-.9-2.2-2.6v-3.6h1v3.4c0,1.3.5,1.9,1.4,1.9a1.3,1.3,0,0,0,1.2-.5,1.9,1.9,0,0,0,.5-1.3v-3.5h.9Z"/><path d="M319.2,221.4h-.9c-1,0-1.5-.5-1.5-1.7v-3.6h-1.1v-.8h1.1V214l.9-.4v1.8h1.5v.8h-1.5v3.4a2,2,0,0,0,.2.9.8.8,0,0,0,.7.2c.3,0,.5,0,.6-.2Z"/><path d="M323,221.6a2.6,2.6,0,0,1-2.1-.9,3.1,3.1,0,0,1-.8-2.2,3.6,3.6,0,0,1,.8-2.4,3.4,3.4,0,0,1,2.3-.8,2.9,2.9,0,0,1,2.1.8,3.3,3.3,0,0,1,.7,2.3,3.1,3.1,0,0,1-.8,2.3A2.8,2.8,0,0,1,323,221.6Zm.1-5.5a2,2,0,0,0-1.5.6,3,3,0,0,0-.5,1.8,2.5,2.5,0,0,0,.5,1.6,2,2,0,0,0,1.5.6,1.7,1.7,0,0,0,1.4-.6,2.2,2.2,0,0,0,.5-1.7,2.3,2.3,0,0,0-.5-1.7A1.7,1.7,0,0,0,323.1,216.1Z"/><path d="M330.7,216.4l-.7-.2a1.3,1.3,0,0,0-1.1.6,3.4,3.4,0,0,0-.4,1.6v3h-.9v-6h.9v1.3h0a2,2,0,0,1,.7-1,1.1,1.1,0,0,1,.9-.4h.6Z"/><path d="M332.2,213.9l-.4-.2a.5.5,0,0,1-.2-.4.8.8,0,0,1,.2-.5l.4-.2.5.2a.6.6,0,0,1,0,.9Zm.5,7.5h-1v-6h1Z"/><path d="M338.8,215.7l-3.5,4.9h3.5v.8h-4.9v-.3l3.5-4.9h-3.2v-.8h4.6Z"/><path d="M344.4,221.4h-1v-.9h0a2.1,2.1,0,0,1-1.9,1.1,2.2,2.2,0,0,1-1.4-.5,1.9,1.9,0,0,1-.5-1.3c0-1.1.7-1.8,2-1.9l1.8-.3q0-1.5-1.2-1.5a2.9,2.9,0,0,0-2,.7v-1a4.6,4.6,0,0,1,2-.5,2,2,0,0,1,2.2,2.2Zm-1-3-1.5.2a2.9,2.9,0,0,0-1,.3,1,1,0,0,0,.8,1.8,1.3,1.3,0,0,0,1.2-.5,1.7,1.7,0,0,0,.5-1.2Z"/><path d="M350.3,221.1a3.4,3.4,0,0,1-1.7.5,2.9,2.9,0,0,1-2.1-.9,3,3,0,0,1-.7-2.1,3.2,3.2,0,0,1,.8-2.4,3,3,0,0,1,2.3-.9,3.2,3.2,0,0,1,1.4.3v1a2.3,2.3,0,0,0-1.5-.5,2,2,0,0,0-1.5.6,2.8,2.8,0,0,0-.6,1.8,2.1,2.1,0,0,0,.6,1.6,2,2,0,0,0,1.5.6,2.3,2.3,0,0,0,1.5-.5Zm-.5,1.8c0,.7-.6,1-1.7,1h-.3v-.5h.4c.5,0,.8-.1.8-.5s-.3-.4-.8-.4H348v-1.1h.6v.6a1,1,0,0,1,.8.3A.5.5,0,0,1,349.8,222.9Z"/><path d="M356,221.4h-1v-.9h0a2.1,2.1,0,0,1-3.2.6,1.5,1.5,0,0,1-.5-1.3,1.8,1.8,0,0,1,1.9-1.9l1.8-.3q0-1.5-1.2-1.5a3.1,3.1,0,0,0-2,.7v-1a4.6,4.6,0,0,1,2.1-.5c1.4,0,2.1.7,2.1,2.2Zm-.3-8.5a1.7,1.7,0,0,1-.3,1,1,1,0,0,1-.8.4l-.9-.3-.7-.3c-.4,0-.5.2-.5.7h-.6a1.5,1.5,0,0,1,.3-1,.9.9,0,0,1,.8-.4l.9.3.7.3c.3,0,.5-.3.5-.7Zm-.7,5.5-1.4.2a2,2,0,0,0-1,.3,1.1,1.1,0,0,0-.4.9,1.3,1.3,0,0,0,.4.7c.2.2.4.2.8.2a1.3,1.3,0,0,0,1.2-.5,1.6,1.6,0,0,0,.4-1.2Z"/><path d="M360.3,221.6a2.6,2.6,0,0,1-2.1-.9,3.1,3.1,0,0,1-.8-2.2,3.6,3.6,0,0,1,.8-2.4,3.4,3.4,0,0,1,2.3-.8,2.9,2.9,0,0,1,2.1.8,3.3,3.3,0,0,1,.7,2.3,3.6,3.6,0,0,1-.8,2.3A2.8,2.8,0,0,1,360.3,221.6Zm.1-5.5a2,2,0,0,0-1.5.6,3,3,0,0,0-.5,1.8,2.5,2.5,0,0,0,.5,1.6,2,2,0,0,0,1.5.6,1.7,1.7,0,0,0,1.4-.6,2.2,2.2,0,0,0,.5-1.7,2.3,2.3,0,0,0-.5-1.7A1.7,1.7,0,0,0,360.4,216.1Z"/></svg>