<svg xmlns="http://www.w3.org/2000/svg" xmlns:xlink="http://www.w3.org/1999/xlink" viewBox="0 0 475.7 151.4"><defs><symbol id="a" viewBox="0 0 20 20"><circle cx="10" cy="10" r="10" fill="#505050"/><path d="M12,14V8.6h1.2V7.4H12V5.6H10.6V7.4H6.8V8.6A13.1,13.1,0,0,1,7.9,9.8l1,1.4.9,1.4a10,10,0,0,1,.8,1.4ZM10.7,8.6v3.5l-1.3-2L8.2,8.6Z" fill="#fff"/></symbol><symbol id="b" viewBox="0 0 20 20"><circle cx="10" cy="10" r="10" fill="#505050"/><path d="M7.4,5.9V7.2a2.6,2.6,0,0,1,1.8-.7,2.3,2.3,0,0,1,1.4.4,1.2,1.2,0,0,1,.5,1c0,.9-.7,1.4-2.2,1.4H8.2v1.1h.7c1.3,0,1.9.5,1.9,1.4S10.3,13,9.3,13a2.3,2.3,0,0,1-1.6-.6v1.2a3.5,3.5,0,0,0,2,.5,3.5,3.5,0,0,0,1.8-.5,2.1,2.1,0,0,0-1-3.6h0a2.5,2.5,0,0,0,1.4-.6,2,2,0,0,0,.6-1.5,2.3,2.3,0,0,0-.9-1.8,3.4,3.4,0,0,0-2.2-.7A3.5,3.5,0,0,0,7.4,5.9Z" fill="#fff"/></symbol><symbol id="c" viewBox="0 0 20 20"><circle cx="10" cy="10" r="10" fill="#505050"/><path d="M12.5,5.6H7.2v.6c0,.3.1.5.1.8l.3.7.5.5.5.6.6.5.6.4.5.5.4.4.2.5a1.3,1.3,0,0,1,.1.6,1.3,1.3,0,0,1-.1.6l-.3.4-.4.2H9.6l-1-.2a3.9,3.9,0,0,1-1-.8v1.3a1,1,0,0,0,.5.4l.6.2.5.2h.7l1-.2.8-.4.5-.7a4.4,4.4,0,0,0,.2-1c0-.4-.1-.7-.1-1l-.4-.7-.6-.7-.7-.6-.7-.6-.6-.5-.4-.5a.8.8,0,0,1-.2-.5h3.8Z" fill="#fff"/></symbol><symbol id="d" viewBox="0 0 20 20"><circle cx="10" cy="10" r="10" fill="#505050"/><path d="M11.2,14.2V5.6H9.8v6.9L9,12l-1-.3v1.2l.7.2.6.3.6.3.7.5Z" fill="#fff"/></symbol></defs><title>OJ104329343</title><rect width="475.7" height="151.37" fill="#fff"/><rect y="0.7" width="105" height="150" fill="#ebebeb"/><rect x="371" y="0.7" width="104.7" height="90" fill="#0072c6"/><rect x="371" y="95.7" width="104.7" height="55" fill="#d2d2d2"/><path d="M18.5,29.2a1.6,1.6,0,0,1,1.6-1.5H83a1.5,1.5,0,0,1,1.5,1.5V66.4A1.5,1.5,0,0,1,83,67.9H20.1a1.5,1.5,0,0,1-1.6-1.5Zm-3.4-1.8V68.1a3.2,3.2,0,0,0,3.2,3.3H84.7A3.2,3.2,0,0,0,88,68.2h0V27.4a3.3,3.3,0,0,0-3.3-3.3H18.4a3.3,3.3,0,0,0-3.3,3.3Z" fill="#1a1a1f"/><path d="M12.4,74.9H90.6a.9.9,0,0,1,.9.9h0v2.6a.9.9,0,0,1-.8.8H12.4a.8.8,0,0,1-.9-.8h0V75.8a.9.9,0,0,1,.9-.9Z" fill="#1a1a1f"/><path d="M42.6,76.4H60.4a.3.3,0,0,1,.3.3v.7a.3.3,0,0,1-.3.3H42.6a.3.3,0,0,1-.3-.3v-.7A.5.5,0,0,1,42.6,76.4Z" fill="#fff"/><path d="M58.4,51.5l.7-1.6-.2-.2-1.5-1.3V47.1l1.7-1.5-.7-1.7h-.2l-2,.2-1-1V40.8l-1.6-.7-.2.2-1.3,1.5H50.9l-1.5-1.7-1.7.7v2.3l-.9.9H44.6L44,45.5l.2.2L45.7,47v1.3L44,49.9l.7,1.6h2.2l1,1-.2,2.3,1.7.7v-.2l1.4-1.5h1.3l1.5,1.7,1.7-.7v-.3l-.2-2,1-.9Zm-8.3-.4a3.6,3.6,0,1,1,4.8-2h0a3.6,3.6,0,0,1-4.8,2h0" fill="#009ee1"/><path d="M51.5,65A17.3,17.3,0,1,1,68.8,47.7h0A17.2,17.2,0,0,1,51.5,65Zm0-30.5a13.2,13.2,0,1,1,0,.1h0Z" fill="#009ee1"/><path d="M51.5,65A17.3,17.3,0,1,1,68.8,47.7h0A17.2,17.2,0,0,1,51.5,65Zm0-30.5a13.2,13.2,0,1,1,0,.1h0Z" fill="#009ee1"/><path d="M51.5,65A17.3,17.3,0,1,1,68.8,47.7h0A17.2,17.2,0,0,1,51.5,65Zm0-30.5a13.2,13.2,0,1,1,0,.1h0Z" fill="#009ee1"/><path d="M51.5,65.9A18.2,18.2,0,1,1,69.7,47.7,18.2,18.2,0,0,1,51.5,65.9Zm0-35.6A17.5,17.5,0,1,0,69,47.7,17.4,17.4,0,0,0,51.5,30.3Z" fill="#0078db"/><path d="M51.5,65.9A18.2,18.2,0,1,1,69.7,47.7,18.2,18.2,0,0,1,51.5,65.9Zm0-35.6A17.5,17.5,0,1,0,69,47.7,17.4,17.4,0,0,0,51.5,30.3Z" fill="#0078db"/><path d="M51.5,66.2A18.5,18.5,0,1,1,70,47.7h0A18.5,18.5,0,0,1,51.5,66.2Zm0-35.6A17.1,17.1,0,1,0,68.6,47.7,17.2,17.2,0,0,0,51.5,30.6Z" fill="#0078db"/><line x1="104.9" y1="14.6" x2="365.5" y2="14.6" fill="none" stroke="#000" stroke-miterlimit="10"/><polygon points="364.4 18.3 370.9 14.6 364.4 10.8 364.4 18.3"/><line x1="110.3" y1="44.5" x2="370.9" y2="44.5" fill="none" stroke="#000" stroke-miterlimit="10"/><polygon points="111.4 48.2 104.9 44.5 111.4 40.7 111.4 48.2"/><line x1="104.9" y1="103.9" x2="365.5" y2="103.9" fill="none" stroke="#000" stroke-miterlimit="10"/><polygon points="364.4 107.6 370.9 103.9 364.4 100.1 364.4 107.6"/><line x1="110.3" y1="140" x2="370.9" y2="140" fill="none" stroke="#000" stroke-miterlimit="10"/><polygon points="111.4 143.8 105 140 111.4 136.3 111.4 143.8"/><use width="20" height="20" transform="matrix(1, 0, 0, -1, 154.14, 149.57)" xlink:href="#a"/><use width="20" height="20" transform="matrix(1, 0, 0, -1, 154.14, 113.88)" xlink:href="#b"/><use width="20" height="20" transform="matrix(1, 0, 0, -1, 154.14, 54.45)" xlink:href="#c"/><use width="20" height="20" transform="matrix(1, 0, 0, -1, 154.14, 24.57)" xlink:href="#d"/><polygon points="187.1 26.6 179.5 32 182.4 40.8 191.8 40.8 194.6 32 187.1 26.6" fill="#ebebeb" stroke="#000" stroke-miterlimit="10" stroke-width="0.75"/><polygon points="187.1 85.1 179.5 90.6 182.4 99.4 191.8 99.4 194.6 90.6 187.1 85.1" fill="#ebebeb" stroke="#000" stroke-miterlimit="10" stroke-width="0.75"/><path d="M12,99.3H9.9l-.6-1.9H6.4l-.6,1.9H3.7l3.1-8.4H9ZM8.9,95.9,8,93.1a1.7,1.7,0,0,1-.1-.7H7.8a2,2,0,0,1-.1.7l-.9,2.8Z" stroke="#000" stroke-miterlimit="10" stroke-width="0.05"/><path d="M14.4,98.6h0V102H12.6V93.3h1.8v.9h0a2.3,2.3,0,0,1,2-1.1,2.2,2.2,0,0,1,1.8.8,4.4,4.4,0,0,1-.1,4.6,2.5,2.5,0,0,1-2,.9A2.1,2.1,0,0,1,14.4,98.6Zm0-2.5v.5a1.7,1.7,0,0,0,.3,1,1,1,0,0,0,.9.4,1.4,1.4,0,0,0,1-.5,2.6,2.6,0,0,0,.3-1.4c0-1-.4-1.6-1.2-1.6a1.1,1.1,0,0,0-.9.5A1.2,1.2,0,0,0,14.4,96.1Z" stroke="#000" stroke-miterlimit="10" stroke-width="0.05"/><path d="M21.6,99.3H19.7V90.4h1.9Z" stroke="#000" stroke-miterlimit="10" stroke-width="0.05"/><path d="M23.8,92.3A1,1,0,0,1,23,92a.9.9,0,0,1-.3-.7.7.7,0,0,1,.3-.6,1,1,0,0,1,.8-.3.9.9,0,0,1,.7.3.7.7,0,0,1,.3.6.8.8,0,0,1-.3.7A.9.9,0,0,1,23.8,92.3Zm.9,7H22.8v-6h1.9Z" stroke="#000" stroke-miterlimit="10" stroke-width="0.05"/><path d="M30.5,99a3,3,0,0,1-1.8.4,3.4,3.4,0,0,1-2.3-.8,3.3,3.3,0,0,1-.8-2.2,3.1,3.1,0,0,1,3.3-3.3,3,3,0,0,1,1.6.3V95a2.1,2.1,0,0,0-1.3-.5,1.9,1.9,0,0,0-1.3.5,1.7,1.7,0,0,0-.4,1.3,1.6,1.6,0,0,0,.4,1.2,1.7,1.7,0,0,0,1.2.5,2.7,2.7,0,0,0,1.4-.5Z" stroke="#000" stroke-miterlimit="10" stroke-width="0.05"/><path d="M36.4,99.3H34.6v-.9h0a1.9,1.9,0,0,1-1.8,1,2.2,2.2,0,0,1-1.4-.5,1.9,1.9,0,0,1-.5-1.3c0-1.2.7-1.9,2.1-2l1.6-.2c0-.7-.3-1-1-1a4.2,4.2,0,0,0-2.1.6V93.6l1.1-.3,1.2-.2a2.3,2.3,0,0,1,2.6,2.6Zm-1.8-2.5v-.4l-1,.2c-.6,0-.9.3-.9.8s0,.4.2.5l.6.2a.9.9,0,0,0,.8-.4A1.2,1.2,0,0,0,34.6,96.8Z" stroke="#000" stroke-miterlimit="10" stroke-width="0.05"/><path d="M41.2,99.2l-1.3.2c-1.3,0-1.9-.7-1.9-2V94.6H37V93.3h1V92l1.8-.6v1.9h1.4v1.3H39.8V97c0,.7.3,1,.8,1l.6-.2Z" stroke="#000" stroke-miterlimit="10" stroke-width="0.05"/><path d="M42.9,92.3a1,1,0,0,1-.8-.3.9.9,0,0,1-.3-.7.7.7,0,0,1,.3-.6,1,1,0,0,1,.8-.3.9.9,0,0,1,.7.3.7.7,0,0,1,.3.6.8.8,0,0,1-.3.7A.9.9,0,0,1,42.9,92.3Zm.9,7H41.9v-6h1.9Z" stroke="#000" stroke-miterlimit="10" stroke-width="0.05"/><path d="M50.7,93.3l-2.2,6H46.4l-2.1-6h2l1,3.7a4.4,4.4,0,0,1,.2,1h0c.1-.3.1-.6.2-1l1.1-3.7Z" stroke="#000" stroke-miterlimit="10" stroke-width="0.05"/><path d="M54,99.4a3.6,3.6,0,0,1-2.4-.8,3.1,3.1,0,0,1-.8-2.3,3.6,3.6,0,0,1,.8-2.4,3.7,3.7,0,0,1,2.5-.8,3.4,3.4,0,0,1,2.3.8,3,3,0,0,1,.9,2.3,2.9,2.9,0,0,1-.9,2.3A3.2,3.2,0,0,1,54,99.4Zm0-4.9a1.2,1.2,0,0,0-1,.5,2.2,2.2,0,0,0-.4,1.3c0,1.1.5,1.7,1.4,1.7s1.4-.6,1.4-1.8S54.9,94.5,54,94.5Z" stroke="#000" stroke-miterlimit="10" stroke-width="0.05"/><path d="M67,99.3H65.2v-.9h0a2.2,2.2,0,0,1-1.9,1,2.3,2.3,0,0,1-1.8-.8,3.1,3.1,0,0,1-.7-2.2,3.6,3.6,0,0,1,.8-2.4,2.3,2.3,0,0,1,1.9-.9,1.9,1.9,0,0,1,1.7.8h0V90.4H67Zm-1.8-3v-.4a1.7,1.7,0,0,0-.3-1,1.3,1.3,0,0,0-.9-.4,1.4,1.4,0,0,0-1,.5,2.5,2.5,0,0,0-.3,1.3,2.3,2.3,0,0,0,.3,1.3,1.5,1.5,0,0,0,.9.4,1.4,1.4,0,0,0,1-.5A2.1,2.1,0,0,0,65.2,96.3Z" stroke="#000" stroke-miterlimit="10" stroke-width="0.05"/><path d="M73.3,99.3H71.5v-.9h0a1.9,1.9,0,0,1-1.8,1,2.2,2.2,0,0,1-1.4-.5,1.9,1.9,0,0,1-.5-1.3c0-1.2.7-1.9,2.1-2l1.6-.2c0-.7-.3-1-1-1a4.2,4.2,0,0,0-2.1.6V93.6l1.1-.3,1.2-.2a2.3,2.3,0,0,1,2.6,2.6Zm-1.8-2.5v-.4l-1,.2c-.6,0-.9.3-.9.8s0,.4.2.5l.6.2a.9.9,0,0,0,.8-.4A1.2,1.2,0,0,0,71.5,96.8Z" stroke="#000" stroke-miterlimit="10" stroke-width="0.05"/><path d="M85,99.3H83l-.6-1.9h-3l-.6,1.9H76.7l3.1-8.4H82ZM82.8,88.2l-1.9,1.9H79.6l1.5-1.9Zm-.9,7.7L81,93.1c0-.2-.1-.5-.1-.7h-.1a2,2,0,0,1-.1.7l-.9,2.8Z" stroke="#000" stroke-miterlimit="10" stroke-width="0.05"/><path d="M89.5,94.9l-.8-.2a1.1,1.1,0,0,0-.9.5,2.1,2.1,0,0,0-.4,1.2v2.9H85.6v-6h1.8v1.1h.1a1.7,1.7,0,0,1,1.6-1.3h.4Z" stroke="#000" stroke-miterlimit="10" stroke-width="0.05"/><path d="M95.4,96.8H91.5c.1.9.6,1.3,1.6,1.3a3.5,3.5,0,0,0,1.8-.5V99a4.8,4.8,0,0,1-2.2.4,3.1,3.1,0,0,1-2.2-.8,2.8,2.8,0,0,1-.8-2.3,3.6,3.6,0,0,1,.8-2.3,2.9,2.9,0,0,1,2.2-.9A2.6,2.6,0,0,1,95.4,96Zm-1.7-1.2c0-.8-.3-1.2-1-1.2a1.1,1.1,0,0,0-.8.3,1.8,1.8,0,0,0-.4.9Z" stroke="#000" stroke-miterlimit="10" stroke-width="0.05"/><path d="M101.2,99.3H99.5v-.9h-.1a2,2,0,0,1-3.1.5,1.5,1.5,0,0,1-.5-1.3,1.9,1.9,0,0,1,2-2l1.7-.2c0-.7-.4-1-1.1-1a3.6,3.6,0,0,0-2,.6V93.6l1-.3,1.2-.2a2.3,2.3,0,0,1,2.6,2.6Zm-1.7-2.5v-.4l-1.1.2c-.6,0-.9.3-.9.8a.8.8,0,0,0,.2.5l.6.2a.9.9,0,0,0,.8-.4A1,1,0,0,0,99.5,96.8Z" stroke="#000" stroke-miterlimit="10" stroke-width="0.05"/><path d="M19.2,113.7H17.3v-.9h0a2.1,2.1,0,0,1-1.9,1,2.5,2.5,0,0,1-1.8-.8,3.6,3.6,0,0,1-.7-2.2,3.6,3.6,0,0,1,.8-2.4,2.5,2.5,0,0,1,2-.9,1.8,1.8,0,0,1,1.6.8h0v-3.5h1.9Zm-1.9-3v-.4a1.7,1.7,0,0,0-.3-1,1.3,1.3,0,0,0-.9-.4,1.1,1.1,0,0,0-.9.5,1.8,1.8,0,0,0-.4,1.3,1.7,1.7,0,0,0,.4,1.3,1.3,1.3,0,0,0,.9.4,1.1,1.1,0,0,0,.9-.5A2.1,2.1,0,0,0,17.3,110.7Z" stroke="#000" stroke-miterlimit="10" stroke-width="0.05"/><path d="M25.8,111.2H21.9c.1.9.6,1.3,1.6,1.3a3.5,3.5,0,0,0,1.8-.5v1.4a4.8,4.8,0,0,1-2.2.4,3.1,3.1,0,0,1-2.2-.8,2.8,2.8,0,0,1-.8-2.3,3.6,3.6,0,0,1,.8-2.3,2.9,2.9,0,0,1,2.2-.9,2.6,2.6,0,0,1,2.7,2.9ZM24.1,110c0-.8-.4-1.2-1-1.2a1.1,1.1,0,0,0-.8.3,1.8,1.8,0,0,0-.4.9Z" stroke="#000" stroke-miterlimit="10" stroke-width="0.05"/><path d="M35.7,106.8H33.3v6.9H31.4v-6.9H29v-1.5h6.7Z" stroke="#000" stroke-miterlimit="10" stroke-width="0.05"/><path d="M39.4,109.3l-.8-.2a1.4,1.4,0,0,0-1,.5,2.1,2.1,0,0,0-.3,1.2v2.9H35.5v-6h1.8v1.1h0a1.7,1.7,0,0,1,1.6-1.3h.5Z" stroke="#000" stroke-miterlimit="10" stroke-width="0.05"/><path d="M44.9,113.7H43.2v-.9h-.1a1.9,1.9,0,0,1-1.7,1,2,2,0,0,1-1.4-.5,1.9,1.9,0,0,1-.5-1.3c0-1.2.7-1.9,2.1-2l1.6-.2c0-.7-.4-1-1.1-1a3.6,3.6,0,0,0-2,.6V108l1-.3,1.3-.2c1.7,0,2.5.9,2.5,2.6Zm-1.7-2.5v-.4l-1.1.2c-.6,0-.9.3-.9.8a.8.8,0,0,0,.2.5l.6.2a1.1,1.1,0,0,0,.9-.4A1.2,1.2,0,0,0,43.2,111.2Z" stroke="#000" stroke-miterlimit="10" stroke-width="0.05"/><path d="M48,113h-.1v.7H46.1v-8.9h1.8v3.8H48a2.1,2.1,0,0,1,1.9-1.1,2.2,2.2,0,0,1,1.8.8,4.4,4.4,0,0,1-.1,4.6,2.4,2.4,0,0,1-2,.9A1.8,1.8,0,0,1,48,113Zm-.1-2.6v.6a1.7,1.7,0,0,0,.3,1,1.2,1.2,0,0,0,.9.4,1.4,1.4,0,0,0,1-.5,2.6,2.6,0,0,0,.3-1.4,2.1,2.1,0,0,0-.3-1.2,1.2,1.2,0,0,0-1.8,0A1.5,1.5,0,0,0,47.9,110.4Z" stroke="#000" stroke-miterlimit="10" stroke-width="0.05"/><path d="M58.1,113.7H56.4v-.9h-.1a2,2,0,0,1-3.1.5,1.5,1.5,0,0,1-.5-1.3,1.9,1.9,0,0,1,2-2l1.7-.2c0-.7-.4-1-1.1-1a3.6,3.6,0,0,0-2,.6V108l1-.3,1.2-.2a2.3,2.3,0,0,1,2.6,2.6Zm-1.7-2.5v-.4l-1.1.2c-.6,0-.9.3-.9.8s0,.4.2.5a.8.8,0,0,0,.6.2.9.9,0,0,0,.8-.4A1,1,0,0,0,56.4,111.2Z" stroke="#000" stroke-miterlimit="10" stroke-width="0.05"/><path d="M61.1,113.7H59.3v-8.9h1.8Z" stroke="#000" stroke-miterlimit="10" stroke-width="0.05"/><path d="M68.1,113.7H66.3v-3.5c0-.8-.3-1.3-1-1.3a.9.9,0,0,0-.8.4,1.4,1.4,0,0,0-.3.9v3.5H62.4v-8.9h1.8v3.7h.1a2.1,2.1,0,0,1,1.8-1c1.4,0,2,.8,2,2.5Z" stroke="#000" stroke-miterlimit="10" stroke-width="0.05"/><path d="M72.2,113.8a3.6,3.6,0,0,1-2.4-.8,3.2,3.2,0,0,1-.9-2.3,3.2,3.2,0,0,1,.9-2.4,4,4,0,0,1,4.8,0,3,3,0,0,1,.8,2.3,3.2,3.2,0,0,1-.8,2.3A3.2,3.2,0,0,1,72.2,113.8Zm0-4.9a1.2,1.2,0,0,0-1,.5,1.7,1.7,0,0,0-.4,1.3c0,1.1.5,1.7,1.4,1.7s1.4-.6,1.4-1.8S73.1,108.9,72.2,108.9Z" stroke="#000" stroke-miterlimit="10" stroke-width="0.05"/><path d="M85.2,113.7H83.4v-.9h-.1a1.9,1.9,0,0,1-1.8,1,2.2,2.2,0,0,1-1.8-.8,3.1,3.1,0,0,1-.7-2.2,3.6,3.6,0,0,1,.7-2.4,2.7,2.7,0,0,1,2-.9,1.7,1.7,0,0,1,1.6.8h.1v-3.5h1.8Zm-1.8-3v-.4a1.7,1.7,0,0,0-.3-1,1.8,1.8,0,0,0-.9-.4,1.2,1.2,0,0,0-1,.5,2.5,2.5,0,0,0-.3,1.3,2.3,2.3,0,0,0,.3,1.3,1.3,1.3,0,0,0,.9.4,1.1,1.1,0,0,0,.9-.5A1.6,1.6,0,0,0,83.4,110.7Z" stroke="#000" stroke-miterlimit="10" stroke-width="0.05"/><path d="M89.3,113.8A3.4,3.4,0,0,1,87,113a3.2,3.2,0,0,1-.9-2.3,3.2,3.2,0,0,1,.9-2.4,4,4,0,0,1,4.8,0,3.4,3.4,0,0,1,.8,2.3,2.9,2.9,0,0,1-.9,2.3A3,3,0,0,1,89.3,113.8Zm.1-4.9a1.1,1.1,0,0,0-1,.5,1.7,1.7,0,0,0-.4,1.3c0,1.1.5,1.7,1.4,1.7s1.3-.6,1.3-1.8S90.3,108.9,89.4,108.9Z" stroke="#000" stroke-miterlimit="10" stroke-width="0.05"/><path d="M13,128.2a1,1,0,0,1-.7-1.7l.7-.2a1.5,1.5,0,0,1,.8.2,1,1,0,0,1,0,1.4A1.1,1.1,0,0,1,13,128.2Z" stroke="#000" stroke-miterlimit="10" stroke-width="0.05"/><path d="M22.9,128.1H21l-3.5-5.3-.4-.7h0v6H15.3v-8.4h2.1l3.3,5.1a1.6,1.6,0,0,1,.4.7h0v-5.8h1.8Z" stroke="#000" stroke-miterlimit="10" stroke-width="0.05"/><path d="M29.5,128.1h-5v-8.4h4.9v1.5h-3v1.9h2.7v1.5H26.4v1.9h3.1Z" stroke="#000" stroke-miterlimit="10" stroke-width="0.05"/><path d="M36.6,121.2H34.2v6.9H32.3v-6.9H29.9v-1.5h6.7Z" stroke="#000" stroke-miterlimit="10" stroke-width="0.05"/><path d="M46.5,127.8a5.7,5.7,0,0,1-2.4.4,4.5,4.5,0,0,1-3.1-1.1,4.5,4.5,0,0,1-1.1-3.1,4.4,4.4,0,0,1,4.5-4.5,6.6,6.6,0,0,1,2.1.3v1.8a4.2,4.2,0,0,0-2-.5,2.6,2.6,0,0,0-2.6,2.8,2.6,2.6,0,0,0,2.5,2.7,3.7,3.7,0,0,0,2.1-.6Z" stroke="#000" stroke-miterlimit="10" stroke-width="0.05"/><path d="M50.3,128.2a3.6,3.6,0,0,1-2.4-.8,3.6,3.6,0,0,1-.8-2.3,3.2,3.2,0,0,1,.9-2.4,3.6,3.6,0,0,1,2.4-.8,3.2,3.2,0,0,1,2.3.8,3,3,0,0,1,.9,2.3,2.9,2.9,0,0,1-.9,2.3A3.2,3.2,0,0,1,50.3,128.2Zm.1-4.9a1.4,1.4,0,0,0-1.1.5,2.3,2.3,0,0,0-.3,1.3c0,1.1.4,1.7,1.4,1.7s1.3-.6,1.3-1.8S51.2,123.3,50.4,123.3Z" stroke="#000" stroke-miterlimit="10" stroke-width="0.05"/><path d="M58.4,123.7l-.8-.2a1.1,1.1,0,0,0-.9.5,1.6,1.6,0,0,0-.4,1.2v2.9H54.5v-6h1.8v1.1h.1c.3-.8.8-1.3,1.5-1.3h.5Z" stroke="#000" stroke-miterlimit="10" stroke-width="0.05"/><path d="M64.3,125.6H60.4c.1.9.6,1.3,1.6,1.3a3.5,3.5,0,0,0,1.8-.5v1.4a4.8,4.8,0,0,1-2.2.4,2.9,2.9,0,0,1-2.2-.8,2.8,2.8,0,0,1-.8-2.3,3.1,3.1,0,0,1,.8-2.3,2.9,2.9,0,0,1,2.2-.9,2.6,2.6,0,0,1,2.7,2.9Zm-1.7-1.2c0-.8-.4-1.2-1.1-1.2a.9.9,0,0,0-.7.3,1.8,1.8,0,0,0-.4.9Z" stroke="#000" stroke-miterlimit="10" stroke-width="0.05"/><path d="M71.7,130H70.2a7.3,7.3,0,0,1-1.9-5.2,7.5,7.5,0,0,1,1.9-5.1h1.5a7.9,7.9,0,0,0-1.8,5.1A8.4,8.4,0,0,0,71.7,130Z" stroke="#000" stroke-miterlimit="10" stroke-width="0.05"/><path d="M80,128.1H78.1l-3.5-5.3-.4-.7h0v6H72.4v-8.4h2.1l3.3,5.1a1.6,1.6,0,0,1,.4.7h0v-5.8H80Z" stroke="#000" stroke-miterlimit="10" stroke-width="0.05"/><path d="M86.4,128.1H84.7v-.9h-.1a1.9,1.9,0,0,1-1.7,1,2,2,0,0,1-1.4-.5,1.5,1.5,0,0,1-.5-1.3,1.9,1.9,0,0,1,2-2l1.7-.2c0-.7-.4-1-1.1-1a3.6,3.6,0,0,0-2,.6v-1.4l1-.3,1.2-.2a2.3,2.3,0,0,1,2.6,2.6Zm-.4-8.8a1.5,1.5,0,0,1-.4,1.2,1.1,1.1,0,0,1-.9.5,1.6,1.6,0,0,1-.9-.3l-.8-.2c-.3,0-.4.2-.4.6h-.9a2.5,2.5,0,0,1,.4-1.3,1,1,0,0,1,.9-.4l1,.3.7.2c.3,0,.4-.2.4-.6Zm-1.3,6.3v-.4l-1.1.2c-.6,0-.9.3-.9.8s.1.3.2.5l.6.2a.9.9,0,0,0,.8-.4A1,1,0,0,0,84.7,125.6Z" stroke="#000" stroke-miterlimit="10" stroke-width="0.05"/><path d="M90.4,128.2a3.4,3.4,0,0,1-2.3-.8,3.2,3.2,0,0,1-.9-2.3,3.2,3.2,0,0,1,.9-2.4,4,4,0,0,1,4.8,0,3.4,3.4,0,0,1,.8,2.3,2.9,2.9,0,0,1-.9,2.3A3,3,0,0,1,90.4,128.2Zm.1-4.9a1.1,1.1,0,0,0-1,.5,1.7,1.7,0,0,0-.4,1.3c0,1.1.5,1.7,1.4,1.7s1.3-.6,1.3-1.8S91.4,123.3,90.5,123.3Z" stroke="#000" stroke-miterlimit="10" stroke-width="0.05"/><path d="M26.4,135.5a1.1,1.1,0,0,1-.8-.3.9.9,0,0,1-.3-.7.7.7,0,0,1,.3-.6,1.1,1.1,0,0,1,.8-.3.9.9,0,0,1,.7.3.7.7,0,0,1,.3.6.8.8,0,0,1-.3.7A.9.9,0,0,1,26.4,135.5Zm.9,7H25.4v-6h1.9Z" stroke="#000" stroke-miterlimit="10" stroke-width="0.05"/><path d="M34.3,142.5H32.5v-3.4c0-.9-.3-1.4-1-1.4a.9.9,0,0,0-.8.4,1.4,1.4,0,0,0-.3.9v3.5H28.5v-6h1.9v.9h0a2.3,2.3,0,0,1,1.9-1.1c1.4,0,2,.8,2,2.5Z" stroke="#000" stroke-miterlimit="10" stroke-width="0.05"/><path d="M39.1,142.4l-1.2.2a1.8,1.8,0,0,1-2-2v-2.8H35v-1.3h.9v-1.3l1.9-.6v1.9h1.3v1.3H37.8v2.4c0,.7.2,1,.7,1l.6-.2Z" stroke="#000" stroke-miterlimit="10" stroke-width="0.05"/><path d="M45.2,140H41.3c.1.9.6,1.3,1.6,1.3a3.5,3.5,0,0,0,1.8-.5v1.4a4.8,4.8,0,0,1-2.2.4,3.1,3.1,0,0,1-2.2-.8,2.8,2.8,0,0,1-.8-2.3,3.6,3.6,0,0,1,.8-2.3,2.9,2.9,0,0,1,2.2-.9,2.6,2.6,0,0,1,2.7,2.9Zm-1.7-1.2c0-.8-.4-1.2-1-1.2a1.1,1.1,0,0,0-.8.3,1.8,1.8,0,0,0-.4.9Z" stroke="#000" stroke-miterlimit="10" stroke-width="0.05"/><path d="M49.9,138.1l-.8-.2a1.1,1.1,0,0,0-.9.5,2.1,2.1,0,0,0-.3,1.2v2.9H46v-6h1.9v1.1h0a1.7,1.7,0,0,1,1.6-1.3h.4Z" stroke="#000" stroke-miterlimit="10" stroke-width="0.05"/><path d="M55.5,142.5H53.7v-.9h0a1.9,1.9,0,0,1-1.8,1,2.2,2.2,0,0,1-1.4-.5,1.9,1.9,0,0,1-.5-1.3c0-1.2.7-1.9,2.1-2l1.6-.2c0-.7-.3-1-1-1a4.2,4.2,0,0,0-2.1.6v-1.4l1.1-.3,1.2-.2a2.3,2.3,0,0,1,2.6,2.6ZM53.7,140v-.4l-1,.2c-.6,0-1,.3-1,.8a.5.5,0,0,0,.3.5.8.8,0,0,0,.6.2.9.9,0,0,0,.8-.4A1.2,1.2,0,0,0,53.7,140Z" stroke="#000" stroke-miterlimit="10" stroke-width="0.05"/><path d="M60.3,142.4l-1.3.2c-1.3,0-1.9-.7-1.9-2v-2.8h-1v-1.3h1v-1.3l1.8-.6v1.9h1.4v1.3H58.9v2.4c0,.7.3,1,.8,1l.6-.2Z" stroke="#000" stroke-miterlimit="10" stroke-width="0.05"/><path d="M62,135.5a1,1,0,0,1-.8-.3.9.9,0,0,1-.3-.7.7.7,0,0,1,.3-.6,1,1,0,0,1,.8-.3.9.9,0,0,1,.7.3.7.7,0,0,1,.3.6.8.8,0,0,1-.3.7A.9.9,0,0,1,62,135.5Zm.9,7H61v-6h1.9Z" stroke="#000" stroke-miterlimit="10" stroke-width="0.05"/><path d="M69.8,136.5l-2.2,6H65.5l-2.1-6h2l1,3.7a4.4,4.4,0,0,1,.2,1h0c.1-.3.1-.6.2-1l1.1-3.7Z" stroke="#000" stroke-miterlimit="10" stroke-width="0.05"/><path d="M73.1,142.6a3.6,3.6,0,0,1-2.4-.8,3.1,3.1,0,0,1-.8-2.3,3.6,3.6,0,0,1,.8-2.4,3.7,3.7,0,0,1,2.5-.8,3.4,3.4,0,0,1,2.3.8,3,3,0,0,1,.8,2.3,2.8,2.8,0,0,1-.8,2.3A3.2,3.2,0,0,1,73.1,142.6Zm0-4.9a1.2,1.2,0,0,0-1,.5,2.2,2.2,0,0,0-.4,1.3c0,1.1.5,1.7,1.4,1.7s1.4-.6,1.4-1.8S74,137.7,73.1,137.7Z" stroke="#000" stroke-miterlimit="10" stroke-width="0.05"/><path d="M78.1,144.4H76.6a8.4,8.4,0,0,0,1.8-5.2,8.1,8.1,0,0,0-1.8-5.1h1.5a7.5,7.5,0,0,1,1.9,5.1A7.9,7.9,0,0,1,78.1,144.4Z" stroke="#000" stroke-miterlimit="10" stroke-width="0.05"/><path d="M207.3,84.8h-1V81H202v3.8h-1V76.4h1v3.7h4.3V76.4h1Z" fill="#1e1e1e" stroke="#1e1e1e" stroke-miterlimit="10" stroke-width="0.06"/><path d="M214.4,77.3H212v7.5h-1V77.3h-2.4v-.9h5.8Z" fill="#1e1e1e" stroke="#1e1e1e" stroke-miterlimit="10" stroke-width="0.06"/><path d="M220.9,77.3h-2.5v7.5h-.9V77.3H215v-.9h5.9Z" fill="#1e1e1e" stroke="#1e1e1e" stroke-miterlimit="10" stroke-width="0.06"/><path d="M223.1,81.6v3.2h-1V76.4h2.3a2.8,2.8,0,0,1,2.1.7,2.2,2.2,0,0,1,.8,1.8,2.5,2.5,0,0,1-.9,2,3.1,3.1,0,0,1-2.2.7Zm0-4.3v3.5h1a2.5,2.5,0,0,0,1.6-.5,1.9,1.9,0,0,0,.5-1.3c0-1.1-.6-1.7-1.9-1.7Z" fill="#1e1e1e" stroke="#1e1e1e" stroke-miterlimit="10" stroke-width="0.06"/><path d="M238.3,84.2a5.7,5.7,0,0,1-2.9.8,3.8,3.8,0,0,1-2.9-1.2,4.5,4.5,0,0,1-1.1-3.1,4.2,4.2,0,0,1,1.3-3.2,4.1,4.1,0,0,1,3.1-1.2,5.3,5.3,0,0,1,2.3.4v1.1a4.8,4.8,0,0,0-2.4-.6,3,3,0,0,0-2.3.9,3.7,3.7,0,0,0-.9,2.6,3.4,3.4,0,0,0,.8,2.5,3,3,0,0,0,2.3.9,4.7,4.7,0,0,0,1.7-.4V81.3h-1.9v-.9h2.9Z" fill="#1e1e1e" stroke="#1e1e1e" stroke-miterlimit="10" stroke-width="0.06"/><path d="M244.6,84.8h-4.5V76.4h4.3v.9h-3.3v2.8h3.1V81h-3.1v2.9h3.5Z" fill="#1e1e1e" stroke="#1e1e1e" stroke-miterlimit="10" stroke-width="0.06"/><path d="M251.1,77.3h-2.4v7.5h-1V77.3h-2.4v-.9h5.8Z" fill="#1e1e1e" stroke="#1e1e1e" stroke-miterlimit="10" stroke-width="0.06"/><path d="M261.3,81.7H259v2.4h-.8V81.7h-2.4v-.8h2.4V78.6h.8v2.3h2.3Z" fill="#1e1e1e" stroke="#1e1e1e" stroke-miterlimit="10" stroke-width="0.06"/><path d="M206,91.5h-2.5V99h-.9V91.5h-2.5v-.9H206Z" fill="#1e1e1e" stroke="#1e1e1e" stroke-miterlimit="10" stroke-width="0.06"/><path d="M208.4,99.2a2.6,2.6,0,0,1-2.1-.9,3.1,3.1,0,0,1-.8-2.2,3.6,3.6,0,0,1,.8-2.4,3.4,3.4,0,0,1,2.3-.8,2.9,2.9,0,0,1,2.1.8,3.3,3.3,0,0,1,.7,2.3,3.4,3.4,0,0,1-.8,2.3A2.8,2.8,0,0,1,208.4,99.2Zm.1-5.5a2,2,0,0,0-1.5.6,3,3,0,0,0-.5,1.8,2.5,2.5,0,0,0,.5,1.6,1.8,1.8,0,0,0,1.5.7,1.7,1.7,0,0,0,1.4-.6,2.6,2.6,0,0,0,.5-1.8,2.3,2.3,0,0,0-.5-1.7A1.7,1.7,0,0,0,208.5,93.7Z" fill="#1e1e1e" stroke="#1e1e1e" stroke-miterlimit="10" stroke-width="0.06"/><path d="M217.9,99h-1.4l-2.6-2.9h-.1V99h-.9V90.1h.9v5.7h.1l2.5-2.8h1.2l-2.7,2.9Z" fill="#1e1e1e" stroke="#1e1e1e" stroke-miterlimit="10" stroke-width="0.06"/><path d="M223.6,96.3h-4.2a2,2,0,0,0,.5,1.5,1.7,1.7,0,0,0,1.4.6,3.4,3.4,0,0,0,1.9-.7v.9a3.7,3.7,0,0,1-2.1.6,2.4,2.4,0,0,1-2-.9,3.2,3.2,0,0,1-.7-2.3,3.2,3.2,0,0,1,.7-2.2,2.7,2.7,0,0,1,2-.9,2.1,2.1,0,0,1,1.8.7,3.2,3.2,0,0,1,.7,2.2Zm-1-.9a1.6,1.6,0,0,0-.4-1.2,1.2,1.2,0,0,0-1.1-.5,2.1,2.1,0,0,0-1.2.5,1.7,1.7,0,0,0-.5,1.2Z" fill="#1e1e1e" stroke="#1e1e1e" stroke-miterlimit="10" stroke-width="0.06"/><path d="M229.9,99H229V95.6c0-1.3-.5-1.9-1.4-1.9a1.7,1.7,0,0,0-1.2.5,2.4,2.4,0,0,0-.5,1.4V99H225V93h.9v1h.1a2.1,2.1,0,0,1,1.9-1.1,1.8,1.8,0,0,1,1.5.6,2.7,2.7,0,0,1,.5,1.9Z" fill="#1e1e1e" stroke="#1e1e1e" stroke-miterlimit="10" stroke-width="0.06"/><path d="M240,99h-.9V98H239a2.1,2.1,0,0,1-2,1.2,2.2,2.2,0,0,1-1.8-.8,3.2,3.2,0,0,1-.7-2.2,3.6,3.6,0,0,1,.7-2.4,2.5,2.5,0,0,1,2-.9,1.7,1.7,0,0,1,1.8,1h.1V90.1h.9Zm-.9-2.7v-.9a1.7,1.7,0,0,0-1.7-1.7,1.7,1.7,0,0,0-1.4.6,2.7,2.7,0,0,0-.5,1.8,2.3,2.3,0,0,0,.5,1.7,1.5,1.5,0,0,0,1.3.6,1.8,1.8,0,0,0,1.3-.6A2.5,2.5,0,0,0,239.1,96.3Z" fill="#1e1e1e" stroke="#1e1e1e" stroke-miterlimit="10" stroke-width="0.06"/><path d="M246.7,96.3h-4.2a2.5,2.5,0,0,0,.5,1.5,1.8,1.8,0,0,0,1.4.6,3.4,3.4,0,0,0,1.9-.7v.9a3.3,3.3,0,0,1-2.1.6,2.5,2.5,0,0,1-2-.9,3.2,3.2,0,0,1-.7-2.3,3.3,3.3,0,0,1,.8-2.2,2.5,2.5,0,0,1,2-.9,2.4,2.4,0,0,1,1.8.7,3.8,3.8,0,0,1,.6,2.2Zm-1-.9a1.6,1.6,0,0,0-.4-1.2c-.2-.4-.6-.5-1.1-.5a1.6,1.6,0,0,0-1.1.5,2.3,2.3,0,0,0-.6,1.2Z" fill="#1e1e1e" stroke="#1e1e1e" stroke-miterlimit="10" stroke-width="0.06"/><path d="M255.6,99h-.9v-.9h-.1a2.1,2.1,0,0,1-3.2.6,1.4,1.4,0,0,1-.5-1.3c0-1.1.6-1.7,2-1.9l1.8-.3c0-1-.5-1.5-1.3-1.5a2.6,2.6,0,0,0-1.9.7v-1a3.9,3.9,0,0,1,2-.5c1.4,0,2.1.7,2.1,2.2Zm-.9-3-1.5.2-1,.3a1.2,1.2,0,0,0-.3.9.9.9,0,0,0,.3.7,1.1,1.1,0,0,0,.8.3,1.7,1.7,0,0,0,1.2-.5,2.1,2.1,0,0,0,.5-1.3Z" fill="#1e1e1e" stroke="#1e1e1e" stroke-miterlimit="10" stroke-width="0.06"/><path d="M261.4,98.7a2.8,2.8,0,0,1-1.6.5,2.7,2.7,0,0,1-2.1-.9,2.9,2.9,0,0,1-.8-2.1,3.2,3.2,0,0,1,.9-2.4,3,3,0,0,1,2.3-.9,3.5,3.5,0,0,1,1.4.3v1a2.3,2.3,0,0,0-1.5-.5,1.8,1.8,0,0,0-1.5.7,2.4,2.4,0,0,0-.6,1.7,2.1,2.1,0,0,0,.6,1.6,1.6,1.6,0,0,0,1.5.7,2,2,0,0,0,1.4-.6Z" fill="#1e1e1e" stroke="#1e1e1e" stroke-miterlimit="10" stroke-width="0.06"/><path d="M267.6,96.3h-4.2a2.5,2.5,0,0,0,.5,1.5,2,2,0,0,0,1.5.6,3.1,3.1,0,0,0,1.8-.7v.9a3.3,3.3,0,0,1-2.1.6,2.5,2.5,0,0,1-2-.9,3.7,3.7,0,0,1-.7-2.3,3.3,3.3,0,0,1,.8-2.2,2.5,2.5,0,0,1,2-.9,2.1,2.1,0,0,1,1.8.7,3.8,3.8,0,0,1,.6,2.2Zm-.9-.9a2.1,2.1,0,0,0-.4-1.2,1.3,1.3,0,0,0-1.1-.5,1.7,1.7,0,0,0-1.2.5,2.3,2.3,0,0,0-.6,1.2Z" fill="#1e1e1e" stroke="#1e1e1e" stroke-miterlimit="10" stroke-width="0.06"/><path d="M268.7,98.8v-1a2.7,2.7,0,0,0,1.7.6c.8,0,1.3-.3,1.3-.9a.8.8,0,0,0-.2-.4l-.2-.3-.5-.2-.5-.2-.7-.4-.5-.3c-.2-.2-.3-.3-.3-.5a1.3,1.3,0,0,1-.1-.6.8.8,0,0,1,.2-.7l.5-.6.7-.3h.9a3.2,3.2,0,0,1,1.4.3v.9a2.9,2.9,0,0,0-1.6-.4H270l-.3.3v.7l.3.3.4.2.5.2.7.4.6.3.3.5a1.3,1.3,0,0,1,.1.6,1.1,1.1,0,0,1-.2.8,1.2,1.2,0,0,1-.5.5l-.7.4h-.9A3.4,3.4,0,0,1,268.7,98.8Z" fill="#1e1e1e" stroke="#1e1e1e" stroke-miterlimit="10" stroke-width="0.06"/><path d="M273.7,98.8v-1a2.7,2.7,0,0,0,1.7.6c.9,0,1.3-.3,1.3-.9s-.1-.3-.1-.4l-.3-.3-.5-.2-.5-.2-.7-.4-.5-.3-.3-.5a1.3,1.3,0,0,1-.1-.6,1.4,1.4,0,0,1,.2-.7l.5-.6.7-.3h.9a3.2,3.2,0,0,1,1.4.3v.9a2.8,2.8,0,0,0-1.5-.4H275c-.1.1-.2.2-.2.3a.4.4,0,0,0-.1.3c0,.2,0,.3.1.4l.2.3.4.2.5.2.8.4.5.3c.1.2.3.3.3.5a1.4,1.4,0,0,1,.2.6,1.9,1.9,0,0,1-.2.8c-.2.2-.3.4-.6.5l-.7.4h-.9A3.8,3.8,0,0,1,273.7,98.8Z" fill="#1e1e1e" stroke="#1e1e1e" stroke-miterlimit="10" stroke-width="0.06"/><path d="M281.6,99.2a2.9,2.9,0,0,1-2.2-.9,3.1,3.1,0,0,1-.7-2.2,3.2,3.2,0,0,1,.8-2.4,3.1,3.1,0,0,1,2.2-.8,2.9,2.9,0,0,1,2.1.8,3.4,3.4,0,0,1,.8,2.3,3,3,0,0,1-.9,2.3A2.6,2.6,0,0,1,281.6,99.2Zm0-5.5a1.7,1.7,0,0,0-1.4.6,2.4,2.4,0,0,0-.6,1.8,2.1,2.1,0,0,0,.6,1.6,1.5,1.5,0,0,0,1.4.7,1.9,1.9,0,0,0,1.5-.6,3.2,3.2,0,0,0,.5-1.8,2.9,2.9,0,0,0-.5-1.7A1.9,1.9,0,0,0,281.6,93.7Z" fill="#1e1e1e" stroke="#1e1e1e" stroke-miterlimit="10" stroke-width="0.06"/><path d="M384.9,31v2.9H383V25.5h3c2.1,0,3.2.9,3.2,2.7a2.5,2.5,0,0,1-.9,2,4.1,4.1,0,0,1-2.5.8Zm0-4v2.6h.8c1,0,1.5-.5,1.5-1.4s-.5-1.2-1.5-1.2Z" fill="#fff" stroke="#fff" stroke-miterlimit="10" stroke-width="0.05"/><path d="M392.1,33.9h-1.9V25h1.9Z" fill="#fff" stroke="#fff" stroke-miterlimit="10" stroke-width="0.05"/><path d="M398.6,33.9h-1.7V33h-.1a1.9,1.9,0,0,1-1.7,1,2,2,0,0,1-1.4-.4,1.7,1.7,0,0,1-.5-1.4c0-1.1.7-1.8,2-2l1.7-.2c0-.7-.4-1-1.1-1a3.1,3.1,0,0,0-2,.7V28.3a2.3,2.3,0,0,1,1-.4H396c1.8,0,2.6.8,2.6,2.5Zm-1.7-2.4v-.4h-1.1c-.6.1-.9.4-.9.8a.8.8,0,0,0,.2.5c.1.2.3.2.6.2a1.1,1.1,0,0,0,.8-.3A1.2,1.2,0,0,0,396.9,31.5Z" fill="#fff" stroke="#fff" stroke-miterlimit="10" stroke-width="0.05"/><path d="M403.7,33.8a2.2,2.2,0,0,1-1.2.2,1.8,1.8,0,0,1-2-2V29.3h-1V27.9h1V26.6l1.9-.5v1.8h1.3v1.4h-1.3v2.4c0,.6.2.9.7.9h.6Z" fill="#fff" stroke="#fff" stroke-miterlimit="10" stroke-width="0.05"/><path d="M409.7,33.9H408V33h0a1.9,1.9,0,0,1-1.8,1,2,2,0,0,1-1.4-.4,2.2,2.2,0,0,1-.5-1.4c0-1.1.7-1.8,2.1-2L408,30c0-.7-.4-1-1.1-1a3.1,3.1,0,0,0-2,.7V28.3l1.1-.4h1.2a2.2,2.2,0,0,1,2.5,2.5ZM408,31.5v-.4h-1.1c-.6.1-.9.4-.9.8a.8.8,0,0,0,.2.5.7.7,0,0,0,.6.2,1.2,1.2,0,0,0,.9-.3A1.6,1.6,0,0,0,408,31.5Z" fill="#fff" stroke="#fff" stroke-miterlimit="10" stroke-width="0.05"/><path d="M415.1,26.4h-.7c-.6,0-.9.3-.9,1v.6h1.4v1.4h-1.4v4.6h-1.8V29.3h-1V27.9h1v-.7a2.1,2.1,0,0,1,.7-1.7,2.4,2.4,0,0,1,1.8-.6h.9Z" fill="#fff" stroke="#fff" stroke-miterlimit="10" stroke-width="0.05"/><path d="M418.7,34a3.2,3.2,0,0,1-2.4-.8,3.4,3.4,0,0,1,0-4.6,4,4,0,0,1,4.8,0,2.9,2.9,0,0,1,.8,2.2,3.6,3.6,0,0,1-.8,2.4A3.2,3.2,0,0,1,418.7,34Zm0-4.8a1.2,1.2,0,0,0-1,.4,2.5,2.5,0,0,0-.4,1.3c0,1.2.5,1.7,1.4,1.7s1.4-.6,1.4-1.7S419.6,29.2,418.7,29.2Z" fill="#fff" stroke="#fff" stroke-miterlimit="10" stroke-width="0.05"/><path d="M427.1,29.6l-.8-.2a1.3,1.3,0,0,0-1,.4A2.1,2.1,0,0,0,425,31v2.9h-1.9v-6H425V29h0a1.6,1.6,0,0,1,1.6-1.2h.5Z" fill="#fff" stroke="#fff" stroke-miterlimit="10" stroke-width="0.05"/><path d="M437.5,33.9h-1.9V30.5c0-.9-.3-1.3-.9-1.3a.9.9,0,0,0-.8.4,1.4,1.4,0,0,0-.3.9v3.4h-1.8V30.4c0-.8-.3-1.2-1-1.2a.9.9,0,0,0-.7.3,1.8,1.8,0,0,0-.3,1.1v3.3H428v-6h1.8v.9h0a2.7,2.7,0,0,1,.8-.7,2.7,2.7,0,0,1,1.2-.3,1.6,1.6,0,0,1,1.7,1.1,2.1,2.1,0,0,1,2-1.1c1.3,0,2,.8,2,2.4Z" fill="#fff" stroke="#fff" stroke-miterlimit="10" stroke-width="0.05"/><path d="M443.9,33.9h-1.7V33h0a1.9,1.9,0,0,1-1.8,1,2,2,0,0,1-1.4-.4,2.2,2.2,0,0,1-.5-1.4c0-1.1.7-1.8,2.1-2l1.6-.2c0-.7-.4-1-1.1-1a3.1,3.1,0,0,0-2,.7V28.3a2.3,2.3,0,0,1,1-.4h1.3a2.2,2.2,0,0,1,2.5,2.5Zm-1.7-2.4v-.4h-1.1c-.6.1-.9.4-.9.8a.8.8,0,0,0,.2.5.7.7,0,0,0,.6.2,1.4,1.4,0,0,0,.9-.3A1.6,1.6,0,0,0,442.2,31.5Z" fill="#fff" stroke="#fff" stroke-miterlimit="10" stroke-width="0.05"/><path d="M454.6,33.9h-1.9v-.8h0a2,2,0,0,1-1.8.9,2.5,2.5,0,0,1-1.9-.7,3.9,3.9,0,0,1-.6-2.3,3.3,3.3,0,0,1,.7-2.3,2.5,2.5,0,0,1,2-.9,1.5,1.5,0,0,1,1.6.8h0V25h1.9ZM452.8,31v-.5a1.4,1.4,0,0,0-1.3-1.3.9.9,0,0,0-.9.5,2.2,2.2,0,0,0-.4,1.3,1.6,1.6,0,0,0,.4,1.2,1.2,1.2,0,0,0,1.8,0A2.1,2.1,0,0,0,452.8,31Z" fill="#fff" stroke="#fff" stroke-miterlimit="10" stroke-width="0.05"/><path d="M461.5,31.4h-3.9c.1.9.6,1.3,1.7,1.3a3.3,3.3,0,0,0,1.7-.4v1.3a4.6,4.6,0,0,1-2.2.4,2.7,2.7,0,0,1-2.2-.8,2.9,2.9,0,0,1-.8-2.2,3.2,3.2,0,0,1,.9-2.4,2.5,2.5,0,0,1,2.1-.8,2.6,2.6,0,0,1,2,.7,3.2,3.2,0,0,1,.7,2.2Zm-1.7-1.1c0-.9-.3-1.3-1-1.3a.9.9,0,0,0-.8.4,1.9,1.9,0,0,0-.4.9Z" fill="#fff" stroke="#fff" stroke-miterlimit="10" stroke-width="0.05"/><path d="M384.8,41.4a1,1,0,0,1-.7-1.7.8.8,0,0,1,.7-.2c.4,0,.6,0,.8.2a1,1,0,0,1,0,1.4A1,1,0,0,1,384.8,41.4Zm1,6.9h-1.9v-6h1.9Z" fill="#fff" stroke="#fff" stroke-miterlimit="10" stroke-width="0.05"/><path d="M393.2,48.3h-1.9v-.8h0a2.1,2.1,0,0,1-1.9,1,2.5,2.5,0,0,1-1.8-.8,3.9,3.9,0,0,1-.6-2.3,3.3,3.3,0,0,1,.7-2.3,2.5,2.5,0,0,1,2-.9,1.5,1.5,0,0,1,1.6.8h0V39.4h1.9Zm-1.8-2.9v-.5a1.4,1.4,0,0,0-1.3-1.3.9.9,0,0,0-.9.5,1.7,1.7,0,0,0-.4,1.3,1.6,1.6,0,0,0,.4,1.2,1.2,1.2,0,0,0,1.8,0A2.1,2.1,0,0,0,391.4,45.4Z" fill="#fff" stroke="#fff" stroke-miterlimit="10" stroke-width="0.05"/><path d="M400.1,45.8h-3.9c.1.9.6,1.3,1.7,1.3a3.3,3.3,0,0,0,1.7-.4V48a4.8,4.8,0,0,1-2.2.5,2.8,2.8,0,0,1-2.2-.9,2.6,2.6,0,0,1-.8-2.2,3.6,3.6,0,0,1,.8-2.4,2.9,2.9,0,0,1,2.2-.8,2.6,2.6,0,0,1,2,.7,3.2,3.2,0,0,1,.7,2.2Zm-1.7-1.1c0-.9-.3-1.3-1-1.3a.9.9,0,0,0-.8.4,1.9,1.9,0,0,0-.4.9Z" fill="#fff" stroke="#fff" stroke-miterlimit="10" stroke-width="0.05"/><path d="M407,48.3h-1.8V45c0-1-.4-1.4-1-1.4a1.1,1.1,0,0,0-.8.3,1.7,1.7,0,0,0-.3,1v3.4h-1.9v-6h1.9v1h0a2,2,0,0,1,1.9-1.1c1.4,0,2,.8,2,2.4Z" fill="#fff" stroke="#fff" stroke-miterlimit="10" stroke-width="0.05"/><path d="M412.1,48.2a2.1,2.1,0,0,1-1.2.3,1.8,1.8,0,0,1-2-2.1V43.7H408V42.3h.9V41l1.9-.5v1.8h1.3v1.4h-1.3v2.4c0,.6.2.9.7.9h.6Z" fill="#fff" stroke="#fff" stroke-miterlimit="10" stroke-width="0.05"/><path d="M414.1,41.4a1.1,1.1,0,0,1-.8-.3,1,1,0,0,1,0-1.4,1.7,1.7,0,0,1,1.6,0,1,1,0,0,1,0,1.4A1.1,1.1,0,0,1,414.1,41.4Zm.9,6.9h-1.8v-6H415Z" fill="#fff" stroke="#fff" stroke-miterlimit="10" stroke-width="0.05"/><path d="M422.4,48.3h-1.8v-.8h0a2.4,2.4,0,0,1-1.9,1,2.5,2.5,0,0,1-1.8-.8,3.3,3.3,0,0,1-.7-2.3,3.4,3.4,0,0,1,.8-2.3,2.3,2.3,0,0,1,1.9-.9,1.7,1.7,0,0,1,1.7.8h0V39.4h1.8Zm-1.8-2.9v-.5a1.2,1.2,0,0,0-.3-.9,1,1,0,0,0-.9-.4,1.1,1.1,0,0,0-1,.5,2.3,2.3,0,0,0-.3,1.3,2.1,2.1,0,0,0,.3,1.2,1.3,1.3,0,0,0,1,.4,1.2,1.2,0,0,0,.9-.4A2.1,2.1,0,0,0,420.6,45.4Z" fill="#fff" stroke="#fff" stroke-miterlimit="10" stroke-width="0.05"/><path d="M429,48.3h-1.8v-.9h0a2,2,0,0,1-1.8,1.1,1.7,1.7,0,0,1-1.8-1.9c0-1.1.6-1.8,2-2l1.7-.2c0-.7-.4-1-1.1-1a3.5,3.5,0,0,0-2.1.7V42.7l1.1-.4h1.2c1.7,0,2.6.8,2.6,2.5Zm-1.7-2.4v-.4h-1.1c-.6.1-.9.4-.9.8s0,.4.2.5.3.2.6.2a1.1,1.1,0,0,0,.8-.3A1.8,1.8,0,0,0,427.3,45.9Z" fill="#fff" stroke="#fff" stroke-miterlimit="10" stroke-width="0.05"/><path d="M436.3,48.3h-1.8v-.8h0a2.4,2.4,0,0,1-1.9,1,2.2,2.2,0,0,1-1.8-.8,3.3,3.3,0,0,1-.7-2.3,3.4,3.4,0,0,1,.8-2.3,2.3,2.3,0,0,1,1.9-.9,1.8,1.8,0,0,1,1.7.8h0V39.4h1.8Zm-1.8-2.9v-.5a1.2,1.2,0,0,0-.3-.9,1.1,1.1,0,0,0-.9-.4,1.1,1.1,0,0,0-1,.5,2.3,2.3,0,0,0-.3,1.3,2.1,2.1,0,0,0,.3,1.2,1,1,0,0,0,.9.4,1.3,1.3,0,0,0,1-.4A2.1,2.1,0,0,0,434.5,45.4Z" fill="#fff" stroke="#fff" stroke-miterlimit="10" stroke-width="0.05"/><path d="M443.3,45.8h-3.9c0,.9.6,1.3,1.6,1.3a3.4,3.4,0,0,0,1.8-.4V48a4.8,4.8,0,0,1-2.2.5,3,3,0,0,1-2.3-.9,2.9,2.9,0,0,1-.8-2.2,3.2,3.2,0,0,1,.9-2.4,2.8,2.8,0,0,1,2.1-.8,2.8,2.8,0,0,1,2.1.7,3.8,3.8,0,0,1,.7,2.2Zm-1.7-1.1c0-.9-.4-1.3-1.1-1.3a1,1,0,0,0-.8.4,1.2,1.2,0,0,0-.3.9Z" fill="#fff" stroke="#fff" stroke-miterlimit="10" stroke-width="0.05"/><path d="M453.6,48.3h-1.9v-.8h0a2.3,2.3,0,0,1-1.9,1,2.5,2.5,0,0,1-1.8-.8,3.9,3.9,0,0,1-.7-2.3,3.4,3.4,0,0,1,.8-2.3,2.5,2.5,0,0,1,2-.9,1.6,1.6,0,0,1,1.6.8h0V39.4h1.9Zm-1.9-2.9v-.5a1.2,1.2,0,0,0-.3-.9,1,1,0,0,0-.9-.4.9.9,0,0,0-.9.5,1.7,1.7,0,0,0-.4,1.3,2.1,2.1,0,0,0,.3,1.2,1.3,1.3,0,0,0,1,.4,1.1,1.1,0,0,0,.9-.4A2.1,2.1,0,0,0,451.7,45.4Z" fill="#fff" stroke="#fff" stroke-miterlimit="10" stroke-width="0.05"/><path d="M460.1,48.3h-1.7v-.9h-.1a2,2,0,0,1-1.8,1.1,1.9,1.9,0,0,1-1.3-.5,1.7,1.7,0,0,1-.5-1.4c0-1.1.7-1.8,2-2l1.7-.2c0-.7-.4-1-1.1-1a3.1,3.1,0,0,0-2,.7V42.7a2.3,2.3,0,0,1,1-.4h1.2c1.8,0,2.6.8,2.6,2.5Zm-1.7-2.4v-.4h-1.1c-.6.1-.9.4-.9.8a.8.8,0,0,0,.2.5c.1.2.3.2.6.2a1.1,1.1,0,0,0,.8-.3A1.2,1.2,0,0,0,458.4,45.9Z" fill="#fff" stroke="#fff" stroke-miterlimit="10" stroke-width="0.05"/><path d="M405.2,62.7h-1.9v-5a10.9,10.9,0,0,1,.1-1.8h-.1a8.9,8.9,0,0,0-.2,1.1l-2,5.7h-1.6l-2-5.7c0-.1-.1-.5-.2-1.1h-.1a17,17,0,0,1,.1,2.2v4.6h-1.7V54.3h2.8l1.7,5,.3,1.2h0a3.4,3.4,0,0,1,.4-1.2l1.7-5h2.7Z" fill="#fff" stroke="#fff" stroke-miterlimit="10" stroke-width="0.05"/><path d="M407.8,55.8a1,1,0,0,1,0-2,1,1,0,0,1,.8.3,1,1,0,0,1,0,1.4A1,1,0,0,1,407.8,55.8Zm.9,6.9h-1.8v-6h1.8Z" fill="#fff" stroke="#fff" stroke-miterlimit="10" stroke-width="0.05"/><path d="M414.9,62.5a5,5,0,0,1-1.9.3,2.9,2.9,0,0,1-2.2-.8,2.8,2.8,0,0,1-.9-2.2,3.3,3.3,0,0,1,1-2.4,3.6,3.6,0,0,1,2.4-.8l1.6.2v1.6a2.2,2.2,0,0,0-1.3-.4,1.7,1.7,0,0,0-1.3.4,2.1,2.1,0,0,0-.5,1.3,1.7,1.7,0,0,0,.5,1.3,1.6,1.6,0,0,0,1.2.4,2.5,2.5,0,0,0,1.4-.4Z" fill="#fff" stroke="#fff" stroke-miterlimit="10" stroke-width="0.05"/><path d="M420,58.4l-.8-.2a1,1,0,0,0-.9.4,1.6,1.6,0,0,0-.4,1.2v2.9h-1.8v-6h1.8v1.1h0a1.7,1.7,0,0,1,1.6-1.2h.5Z" fill="#fff" stroke="#fff" stroke-miterlimit="10" stroke-width="0.05"/><path d="M423.7,62.8a3.2,3.2,0,0,1-2.4-.8,3.4,3.4,0,0,1,0-4.6,4,4,0,0,1,4.8,0,3.3,3.3,0,0,1,.8,2.2,3.6,3.6,0,0,1-.8,2.4A3.2,3.2,0,0,1,423.7,62.8Zm0-4.8a1.2,1.2,0,0,0-1,.4,1.8,1.8,0,0,0-.4,1.3c0,1.2.5,1.7,1.4,1.7s1.3-.6,1.3-1.7S424.6,58,423.7,58Z" fill="#fff" stroke="#fff" stroke-miterlimit="10" stroke-width="0.05"/><path d="M427.7,62.5V61l.9.5h1.7a.5.5,0,0,0,.3-.5.2.2,0,0,0-.2-.2l-.3-.3h-.4l-.5-.2-.6-.3-.5-.3-.3-.5c0-.2-.1-.4-.1-.6a1.2,1.2,0,0,1,.3-.9l.5-.6.9-.3h1.8l.8.2v1.4l-.8-.3h-1.4l-.2.2c0,.1-.1.1-.1.2s.1.2.2.3.1.1.2.2l.4.2h.4l.7.3.5.3c.1.2.3.3.3.5a2.3,2.3,0,0,1-.1,1.6,1.7,1.7,0,0,1-.6.6l-.9.3h-1A5.8,5.8,0,0,1,427.7,62.5Z" fill="#fff" stroke="#fff" stroke-miterlimit="10" stroke-width="0.05"/><path d="M436.3,62.8a3.2,3.2,0,0,1-2.4-.8,3.7,3.7,0,0,1,0-4.6,3.3,3.3,0,0,1,2.5-.8,3.1,3.1,0,0,1,2.3.8,2.9,2.9,0,0,1,.8,2.2,2.8,2.8,0,0,1-3.2,3.2Zm0-4.8a1.2,1.2,0,0,0-1,.4,2.5,2.5,0,0,0-.4,1.3c0,1.2.5,1.7,1.4,1.7s1.4-.6,1.4-1.7S437.2,58,436.3,58Z" fill="#fff" stroke="#fff" stroke-miterlimit="10" stroke-width="0.05"/><path d="M444.5,55.2h-.7c-.6,0-.9.3-.9,1v.6h1.4v1.4h-1.4v4.6h-1.8V58.1H440V56.7h1.1V56a2.4,2.4,0,0,1,.6-1.7,2.8,2.8,0,0,1,1.8-.6h1Z" fill="#fff" stroke="#fff" stroke-miterlimit="10" stroke-width="0.05"/><path d="M449,62.6a2.2,2.2,0,0,1-1.2.2,1.8,1.8,0,0,1-2-2V58.1h-.9V56.7h.9V55.4l1.9-.5v1.8H449v1.4h-1.3v2.4c0,.6.2.9.7.9h.6Z" fill="#fff" stroke="#fff" stroke-miterlimit="10" stroke-width="0.05"/><path d="M411.5,110.1h-2.1l-.6-1.9h-3l-.6,1.9h-2l3-8.4h2.3Zm-3.1-3.4-.9-2.8a6.4,6.4,0,0,1-.2-.7h0a1.9,1.9,0,0,1-.2.7l-.9,2.8Z" fill="#0072c6" stroke="#0072c6" stroke-miterlimit="10" stroke-width="0.05"/><path d="M414.4,107.2v2.9h-1.9v-8.4h3c2.1,0,3.2.9,3.2,2.6a2.7,2.7,0,0,1-1,2.1,3.6,3.6,0,0,1-2.4.8Zm0-4.1v2.6h.7c1.1,0,1.6-.4,1.6-1.3s-.5-1.3-1.6-1.3Z" fill="#0072c6" stroke="#0072c6" stroke-miterlimit="10" stroke-width="0.05"/><path d="M421.8,110.1h-1.9v-8.4h1.9Z" fill="#0072c6" stroke="#0072c6" stroke-miterlimit="10" stroke-width="0.05"/><path d="M432.7,110.1h-1.9v-.9h0a1.9,1.9,0,0,1-1.8,1,2.6,2.6,0,0,1-1.9-.8,4.4,4.4,0,0,1,.1-4.6,2.5,2.5,0,0,1,2-.9,1.7,1.7,0,0,1,1.6.8h0v-3.5h1.9Zm-1.8-3v-.4a1.3,1.3,0,0,0-.4-1,1.3,1.3,0,0,0-.9-.4,1.1,1.1,0,0,0-.9.5,2.5,2.5,0,0,0-.4,1.3,2.2,2.2,0,0,0,.4,1.3,1.3,1.3,0,0,0,.9.4,1.1,1.1,0,0,0,.9-.5A1.6,1.6,0,0,0,430.9,107.1Z" fill="#0072c6" stroke="#0072c6" stroke-miterlimit="10" stroke-width="0.05"/><path d="M437.1,110.2a3.6,3.6,0,0,1-2.4-.8,3.6,3.6,0,0,1-.8-2.3,2.9,2.9,0,0,1,.9-2.3,3.2,3.2,0,0,1,2.4-.9,2.9,2.9,0,0,1,2.3.9,2.8,2.8,0,0,1,.9,2.2,2.9,2.9,0,0,1-.9,2.3A3.2,3.2,0,0,1,437.1,110.2Zm.1-4.9a1.4,1.4,0,0,0-1.1.5,2.3,2.3,0,0,0-.3,1.3c0,1.1.4,1.7,1.4,1.7s1.3-.6,1.3-1.8S438,105.3,437.2,105.3Z" fill="#0072c6" stroke="#0072c6" stroke-miterlimit="10" stroke-width="0.05"/><path d="M405.2,124.6h-1.9v-5.1a12.1,12.1,0,0,1,.1-1.8h-.1c-.1.6-.2.9-.2,1.1l-2,5.8h-1.6l-2-5.7c0-.1-.1-.5-.2-1.2h-.1a18.6,18.6,0,0,1,.1,2.2v4.7h-1.7v-8.4h2.8l1.7,4.9.3,1.2h0a5.6,5.6,0,0,1,.4-1.2l1.7-4.9h2.7Z" fill="#0072c6" stroke="#0072c6" stroke-miterlimit="10" stroke-width="0.05"/><path d="M407.8,117.6a.9.9,0,0,1-.7-.3.9.9,0,0,1-.3-.6.8.8,0,0,1,.3-.7.9.9,0,0,1,.7-.3,1,1,0,0,1,.8.3.8.8,0,0,1,.3.7.7.7,0,0,1-.3.6A1,1,0,0,1,407.8,117.6Zm.9,7h-1.8v-6h1.8Z" fill="#0072c6" stroke="#0072c6" stroke-miterlimit="10" stroke-width="0.05"/><path d="M414.9,124.3a3.6,3.6,0,0,1-1.9.4,3.3,3.3,0,0,1-2.2-.8,2.9,2.9,0,0,1-.9-2.2,3.3,3.3,0,0,1,1-2.4,3.2,3.2,0,0,1,2.4-.9,3.5,3.5,0,0,1,1.6.3v1.6a2.4,2.4,0,0,0-1.3-.5,1.7,1.7,0,0,0-1.8,1.8,1.7,1.7,0,0,0,1.7,1.7,3.7,3.7,0,0,0,1.4-.4Z" fill="#0072c6" stroke="#0072c6" stroke-miterlimit="10" stroke-width="0.05"/><path d="M420,120.2h-.8a1,1,0,0,0-.9.4,1.6,1.6,0,0,0-.4,1.2v2.9h-1.8v-6h1.8v1.1h0a1.7,1.7,0,0,1,1.6-1.2h.5Z" fill="#0072c6" stroke="#0072c6" stroke-miterlimit="10" stroke-width="0.05"/><path d="M423.7,124.7a3.6,3.6,0,0,1-2.4-.8,3.2,3.2,0,0,1-.9-2.3,2.9,2.9,0,0,1,.9-2.3,3.6,3.6,0,0,1,4.8,0,3.1,3.1,0,0,1,.8,2.2,3.2,3.2,0,0,1-.8,2.3A3.2,3.2,0,0,1,423.7,124.7Zm0-4.9a1.2,1.2,0,0,0-1,.5,1.7,1.7,0,0,0-.4,1.3c0,1.1.5,1.7,1.4,1.7s1.3-.6,1.3-1.8S424.6,119.8,423.7,119.8Z" fill="#0072c6" stroke="#0072c6" stroke-miterlimit="10" stroke-width="0.05"/><path d="M427.7,124.4v-1.5l.9.4h1.7c.2-.1.3-.2.3-.4s-.1-.2-.2-.3l-.3-.2-.4-.2h-.5l-.6-.3a1,1,0,0,1-.5-.4l-.3-.4c0-.2-.1-.4-.1-.7a1.1,1.1,0,0,1,.3-.8,1,1,0,0,1,.5-.6l.9-.4h1.8l.8.2v1.4a1.3,1.3,0,0,0-.8-.3h-1.4c-.1,0-.1.1-.2.2a.3.3,0,0,0-.1.2l.2.3.2.2h.4l.4.2.7.2.5.4a.9.9,0,0,1,.3.5,1.3,1.3,0,0,1,.1.6c0,.4,0,.7-.2.9a1.3,1.3,0,0,1-.6.7l-.9.3h-1A5.8,5.8,0,0,1,427.7,124.4Z" fill="#0072c6" stroke="#0072c6" stroke-miterlimit="10" stroke-width="0.05"/><path d="M436.3,124.7a3.6,3.6,0,0,1-2.4-.8,3.1,3.1,0,0,1-.8-2.3,2.8,2.8,0,0,1,.8-2.3,3.3,3.3,0,0,1,2.5-.9,3.2,3.2,0,0,1,2.3.9,2.7,2.7,0,0,1,.8,2.2,2.8,2.8,0,0,1-.8,2.3A3.2,3.2,0,0,1,436.3,124.7Zm0-4.9a1.2,1.2,0,0,0-1,.5,2.2,2.2,0,0,0-.4,1.3c0,1.1.5,1.7,1.4,1.7s1.4-.6,1.4-1.8S437.2,119.8,436.3,119.8Z" fill="#0072c6" stroke="#0072c6" stroke-miterlimit="10" stroke-width="0.05"/><path d="M444.5,117.1h-.7a.8.8,0,0,0-.9.9v.7h1.4v1.3h-1.4v4.7h-1.8v-4.7H440v-1.3h1.1v-.8a2.1,2.1,0,0,1,.6-1.6,2.4,2.4,0,0,1,1.8-.7l1,.2Z" fill="#0072c6" stroke="#0072c6" stroke-miterlimit="10" stroke-width="0.05"/><path d="M449,124.5l-1.2.2a1.8,1.8,0,0,1-2-2v-2.8h-.9v-1.3h.9v-1.3l1.9-.6v1.9H449v1.3h-1.3v2.5c0,.6.2.9.7.9l.6-.2Z" fill="#0072c6" stroke="#0072c6" stroke-miterlimit="10" stroke-width="0.05"/><path d="M412.6,138.5a5.7,5.7,0,0,1-3.1.7,4.8,4.8,0,0,1-3.2-1.1,4.5,4.5,0,0,1-1.1-3.1,4.1,4.1,0,0,1,1.3-3.2,4.2,4.2,0,0,1,3.4-1.3,5.9,5.9,0,0,1,2.3.4v1.8a4.3,4.3,0,0,0-2.4-.6,2.6,2.6,0,0,0-1.9.8,2.7,2.7,0,0,0-.7,2,3,3,0,0,0,.6,2,2.4,2.4,0,0,0,1.8.7,1.8,1.8,0,0,0,1.1-.2v-1.6H409v-1.5h3.6Z" fill="#0072c6" stroke="#0072c6" stroke-miterlimit="10" stroke-width="0.05"/><path d="M418,134.7h-.8a1.3,1.3,0,0,0-1,.4,2.1,2.1,0,0,0-.3,1.2v2.9h-1.8v-6h1.8v1.1h0a1.6,1.6,0,0,1,1.6-1.2h.5Z" fill="#0072c6" stroke="#0072c6" stroke-miterlimit="10" stroke-width="0.05"/><path d="M423.8,139.1h-1.7v-.9H422a1.9,1.9,0,0,1-1.7,1,2,2,0,0,1-1.4-.5,1.9,1.9,0,0,1-.5-1.3c0-1.2.7-1.8,2.1-2l1.6-.2c0-.7-.4-1-1.1-1a3.6,3.6,0,0,0-2,.6v-1.4l1-.3,1.3-.2c1.7,0,2.5.9,2.5,2.6Zm-1.7-2.5v-.4l-1.1.2c-.6,0-.9.3-.9.8a.8.8,0,0,0,.2.5l.6.2a1.1,1.1,0,0,0,.9-.4A1.2,1.2,0,0,0,422.1,136.6Z" fill="#0072c6" stroke="#0072c6" stroke-miterlimit="10" stroke-width="0.05"/><path d="M427.2,138.4h-.1v3.4h-1.8v-8.7h1.8v.9h.1a2.1,2.1,0,0,1,1.9-1.1,2.2,2.2,0,0,1,1.8.8,4.4,4.4,0,0,1-.1,4.6,2.5,2.5,0,0,1-2,.9A1.8,1.8,0,0,1,427.2,138.4Zm-.1-2.5v.5a1.7,1.7,0,0,0,.3,1,1.1,1.1,0,0,0,.9.4,1.4,1.4,0,0,0,1-.5,2.6,2.6,0,0,0,.3-1.4c0-1-.4-1.6-1.2-1.6a1.1,1.1,0,0,0-.9.5A1.4,1.4,0,0,0,427.1,135.9Z" fill="#0072c6" stroke="#0072c6" stroke-miterlimit="10" stroke-width="0.05"/><path d="M438.5,139.1h-1.9v-3.4c0-.9-.3-1.4-.9-1.4a1.2,1.2,0,0,0-.8.4,1.4,1.4,0,0,0-.3.9v3.5h-1.9v-8.9h1.9V134h0a2.2,2.2,0,0,1,1.8-1.1c1.4,0,2.1.8,2.1,2.5Z" fill="#0072c6" stroke="#0072c6" stroke-miterlimit="10" stroke-width="0.05"/><path d="M186.8,9.9h-1.1l-.9-2.4h-3.5l-.9,2.4h-1.1l3.3-8.4h1Zm-2.3-3.2-1.3-3.6a3.5,3.5,0,0,1-.1-.6H183a1.1,1.1,0,0,1-.1.6l-1.3,3.6Z" fill="#1e1e1e" stroke="#1e1e1e" stroke-miterlimit="10" stroke-width="0.06"/><path d="M192.9,9.9H192v-1h0a2.3,2.3,0,0,1-2.1,1.1,1.9,1.9,0,0,1-1.8-.8,2.9,2.9,0,0,1-.7-2.2,3.6,3.6,0,0,1,.8-2.3,2.4,2.4,0,0,1,2-.9,2,2,0,0,1,1.8.9h0V1h.9ZM192,7.2V6.3a1.7,1.7,0,0,0-.5-1.2,1.3,1.3,0,0,0-1.2-.5,1.7,1.7,0,0,0-1.4.6,3,3,0,0,0-.5,1.8,2.5,2.5,0,0,0,.5,1.6,1.5,1.5,0,0,0,1.3.6,1.9,1.9,0,0,0,1.3-.5A2.5,2.5,0,0,0,192,7.2Z" fill="#1e1e1e" stroke="#1e1e1e" stroke-miterlimit="10" stroke-width="0.06"/><path d="M199.9,12.7H199V8.9h-.1a2,2,0,0,1-2,1.1,1.9,1.9,0,0,1-1.8-.8,2.9,2.9,0,0,1-.7-2.2,3.3,3.3,0,0,1,.7-2.3,2.6,2.6,0,0,1,2.1-.9,1.8,1.8,0,0,1,1.7.9h.1V3.9h.9ZM199,7.2V6.3a1.7,1.7,0,0,0-.5-1.2,1.5,1.5,0,0,0-1.3-.5,1.6,1.6,0,0,0-1.3.6,2.4,2.4,0,0,0-.5,1.8,1.9,1.9,0,0,0,.5,1.6,1.4,1.4,0,0,0,1.2.6,2.2,2.2,0,0,0,1.4-.5A2.5,2.5,0,0,0,199,7.2Z" fill="#1e1e1e" stroke="#1e1e1e" stroke-miterlimit="10" stroke-width="0.06"/><path d="M206.6,9.9h-.9V9h-.1a1.9,1.9,0,0,1-1.8,1c-1.4,0-2.2-.8-2.2-2.5V3.9h1V7.3c0,1.3.5,1.9,1.4,1.9a1.3,1.3,0,0,0,1.2-.5,1.9,1.9,0,0,0,.5-1.3V3.9h.9Z" fill="#1e1e1e" stroke="#1e1e1e" stroke-miterlimit="10" stroke-width="0.06"/><path d="M209,2.4l-.5-.2a.8.8,0,0,1-.2-.4.8.8,0,0,1,.2-.5l.5-.2.4.2a.8.8,0,0,1,.2.5.8.8,0,0,1-.2.4Zm.4,7.5h-.9v-6h.9Z" fill="#1e1e1e" stroke="#1e1e1e" stroke-miterlimit="10" stroke-width="0.06"/><path d="M214.4,4.9a.8.8,0,0,0-.7-.2,1.4,1.4,0,0,0-1.1.6,3,3,0,0,0-.4,1.5V9.9h-.9v-6h.9V5.1h.1a1.5,1.5,0,0,1,.6-.9,1.2,1.2,0,0,1,.9-.4h.6Z" fill="#1e1e1e" stroke="#1e1e1e" stroke-miterlimit="10" stroke-width="0.06"/><path d="M215.8,2.4l-.4-.2-.2-.4a.8.8,0,0,1,.2-.5l.4-.2.5.2a.8.8,0,0,1,.2.5.8.8,0,0,1-.2.4Zm.5,7.5h-1v-6h1Z" fill="#1e1e1e" stroke="#1e1e1e" stroke-miterlimit="10" stroke-width="0.06"/><path d="M221.3,4.9a.8.8,0,0,0-.7-.2,1.4,1.4,0,0,0-1.1.6,3,3,0,0,0-.4,1.5V9.9h-.9v-6h.9V5.1h0a2.2,2.2,0,0,1,.7-.9,1.2,1.2,0,0,1,.9-.4h.6Z" fill="#1e1e1e" stroke="#1e1e1e" stroke-miterlimit="10" stroke-width="0.06"/><path d="M228.2,9.8c-.2.2-.5.2-.9.2a1.5,1.5,0,0,1-1.6-1.7V4.7h-1V3.9h1V2.4l1-.3V3.9h1.5v.8h-1.5V8.1a2,2,0,0,0,.2.9l.7.2a.7.7,0,0,0,.6-.2Z" fill="#1e1e1e" stroke="#1e1e1e" stroke-miterlimit="10" stroke-width="0.06"/><path d="M231.9,10a2.5,2.5,0,0,1-2.1-.8A3.3,3.3,0,0,1,229,7a3.6,3.6,0,0,1,.8-2.4,2.9,2.9,0,0,1,2.2-.8,2.5,2.5,0,0,1,2.1.8,3.2,3.2,0,0,1,.8,2.3,3.6,3.6,0,0,1-.8,2.3A2.9,2.9,0,0,1,231.9,10Zm.1-5.4a2,2,0,0,0-1.5.6,2.9,2.9,0,0,0-.5,1.7,2.9,2.9,0,0,0,.5,1.7,2,2,0,0,0,1.5.6,1.7,1.7,0,0,0,1.4-.6,2.6,2.6,0,0,0,.5-1.7,2.9,2.9,0,0,0-.5-1.7A1.7,1.7,0,0,0,232,4.6Z" fill="#1e1e1e" stroke="#1e1e1e" stroke-miterlimit="10" stroke-width="0.06"/><path d="M241.3,9.9H240L237.3,7h0V9.9h-1V1h1V6.7h0l2.5-2.8h1.3l-2.8,2.9Z" fill="#1e1e1e" stroke="#1e1e1e" stroke-miterlimit="10" stroke-width="0.06"/><path d="M247,7.1h-4.2a2.5,2.5,0,0,0,.5,1.6,1.7,1.7,0,0,0,1.4.5,3.3,3.3,0,0,0,1.9-.6v.9a3.3,3.3,0,0,1-2.1.5,2.4,2.4,0,0,1-2-.8,3.2,3.2,0,0,1-.7-2.3,3.6,3.6,0,0,1,.8-2.3,2.8,2.8,0,0,1,2-.8,2.4,2.4,0,0,1,1.8.7,3.3,3.3,0,0,1,.6,2.1Zm-1-.8a1.8,1.8,0,0,0-.4-1.3,1.2,1.2,0,0,0-1.1-.4,1.3,1.3,0,0,0-1.1.5,2.3,2.3,0,0,0-.6,1.2Z" fill="#1e1e1e" stroke="#1e1e1e" stroke-miterlimit="10" stroke-width="0.06"/><path d="M253.4,9.9h-1V6.5c0-1.3-.5-1.9-1.4-1.9a1.7,1.7,0,0,0-1.2.5,2.2,2.2,0,0,0-.5,1.4V9.9h-.9v-6h.9v1h.1a2,2,0,0,1,1.9-1.1,1.8,1.8,0,0,1,1.5.6,2.4,2.4,0,0,1,.6,1.8Z" fill="#1e1e1e" stroke="#1e1e1e" stroke-miterlimit="10" stroke-width="0.06"/><path d="M204.3,30.8h-2.4v7.5h-1V30.8h-2.4v-.9h5.8Z" fill="#1e1e1e" stroke="#1e1e1e" stroke-miterlimit="10" stroke-width="0.06"/><path d="M206.7,38.4a2.6,2.6,0,0,1-2.1-.8,3.3,3.3,0,0,1-.8-2.2,3.2,3.2,0,0,1,.9-2.4,2.6,2.6,0,0,1,2.2-.8,2.5,2.5,0,0,1,2.1.8,3.2,3.2,0,0,1,.7,2.3,3.1,3.1,0,0,1-.8,2.3A2.6,2.6,0,0,1,206.7,38.4Zm.1-5.4a2,2,0,0,0-1.5.6,2.9,2.9,0,0,0-.5,1.7,2.4,2.4,0,0,0,.6,1.7,1.9,1.9,0,0,0,2.8,0,2.2,2.2,0,0,0,.5-1.7,2.3,2.3,0,0,0-.5-1.7A1.7,1.7,0,0,0,206.8,33Z" fill="#1e1e1e" stroke="#1e1e1e" stroke-miterlimit="10" stroke-width="0.06"/><path d="M216.2,38.3h-1.4l-2.6-2.9h0v2.9h-1V29.4h1V35h0l2.5-2.7H216l-2.8,2.9Z" fill="#1e1e1e" stroke="#1e1e1e" stroke-miterlimit="10" stroke-width="0.06"/><path d="M221.9,35.5h-4.2a2.5,2.5,0,0,0,.5,1.6,1.7,1.7,0,0,0,1.4.5,3.3,3.3,0,0,0,1.9-.6v.9a4.1,4.1,0,0,1-2.1.5,2.4,2.4,0,0,1-2-.8,3.2,3.2,0,0,1-.7-2.3,3.1,3.1,0,0,1,.8-2.3,2.7,2.7,0,0,1,1.9-.8,2.5,2.5,0,0,1,1.9.7,3.3,3.3,0,0,1,.6,2.1Zm-1-.8a1.8,1.8,0,0,0-.4-1.3,1.2,1.2,0,0,0-1.1-.4,1.3,1.3,0,0,0-1.1.5,2.3,2.3,0,0,0-.6,1.2Z" fill="#1e1e1e" stroke="#1e1e1e" stroke-miterlimit="10" stroke-width="0.06"/><path d="M228.3,38.3h-1V34.9c0-1.3-.5-1.9-1.4-1.9a1.3,1.3,0,0,0-1.2.5,2.1,2.1,0,0,0-.4,1.4v3.4h-1v-6h1v1h0a2,2,0,0,1,1.9-1.1,2.1,2.1,0,0,1,1.6.6,3,3,0,0,1,.5,1.8Z" fill="#1e1e1e" stroke="#1e1e1e" stroke-miterlimit="10" stroke-width="0.06"/><path d="M238.3,38.3h-.9v-1h0a2.3,2.3,0,0,1-2.1,1.1,1.9,1.9,0,0,1-1.8-.8,2.9,2.9,0,0,1-.7-2.2,3.4,3.4,0,0,1,.8-2.3,2.4,2.4,0,0,1,2-.9,2,2,0,0,1,1.8.9h0V29.4h.9Zm-.9-2.7v-.9a1.7,1.7,0,0,0-.5-1.2,1.3,1.3,0,0,0-1.2-.5,1.7,1.7,0,0,0-1.4.6,3,3,0,0,0-.5,1.8,2.5,2.5,0,0,0,.5,1.6,1.5,1.5,0,0,0,1.3.6,1.9,1.9,0,0,0,1.3-.5A2.5,2.5,0,0,0,237.4,35.6Z" fill="#1e1e1e" stroke="#1e1e1e" stroke-miterlimit="10" stroke-width="0.06"/><path d="M245,35.5h-4.2a2.5,2.5,0,0,0,.5,1.6,2,2,0,0,0,1.5.5,3,3,0,0,0,1.8-.6v.9a4.1,4.1,0,0,1-2.1.5,2.4,2.4,0,0,1-2-.8,3.7,3.7,0,0,1-.7-2.3,3.6,3.6,0,0,1,.8-2.3,2.8,2.8,0,0,1,2-.8,2.1,2.1,0,0,1,1.8.7A3.3,3.3,0,0,1,245,35Zm-.9-.8a2.5,2.5,0,0,0-.4-1.3,1.5,1.5,0,0,0-1.1-.4,1.3,1.3,0,0,0-1.2.5,2.3,2.3,0,0,0-.6,1.2Z" fill="#1e1e1e" stroke="#1e1e1e" stroke-miterlimit="10" stroke-width="0.06"/><path d="M253.9,38.3H253v-.9h-.1a1.9,1.9,0,0,1-1.8,1,2,2,0,0,1-1.4-.4,2.1,2.1,0,0,1-.5-1.3c0-1.1.7-1.8,2-2l1.8-.2c0-1-.4-1.5-1.3-1.5a2.8,2.8,0,0,0-1.9.7v-1a3.3,3.3,0,0,1,2-.5c1.4,0,2.1.7,2.1,2.2Zm-.9-3-1.5.2a1.5,1.5,0,0,0-1,.3,1,1,0,0,0-.3.8,1.1,1.1,0,0,0,.3.8l.8.2a1.3,1.3,0,0,0,1.2-.5,1.7,1.7,0,0,0,.5-1.2Z" fill="#1e1e1e" stroke="#1e1e1e" stroke-miterlimit="10" stroke-width="0.06"/><path d="M259.8,38a3.1,3.1,0,0,1-1.7.4,2.8,2.8,0,0,1-2.1-.8,3.2,3.2,0,0,1-.7-2.2,3.1,3.1,0,0,1,.8-2.3,3,3,0,0,1,2.3-.9,3.2,3.2,0,0,1,1.4.3v.9a2.6,2.6,0,0,0-1.5-.4,2,2,0,0,0-1.5.6,2.6,2.6,0,0,0-.6,1.8,2.1,2.1,0,0,0,.6,1.6,2,2,0,0,0,1.5.6,2.3,2.3,0,0,0,1.5-.5Z" fill="#1e1e1e" stroke="#1e1e1e" stroke-miterlimit="10" stroke-width="0.06"/><path d="M266,35.5h-4.3a2.1,2.1,0,0,0,.6,1.6,1.6,1.6,0,0,0,1.4.5,2.8,2.8,0,0,0,1.8-.6v.9a3.9,3.9,0,0,1-2,.5,2.2,2.2,0,0,1-2-.8,3.2,3.2,0,0,1-.8-2.3,3.6,3.6,0,0,1,.8-2.3,3,3,0,0,1,2-.8,2.1,2.1,0,0,1,1.8.7A2.8,2.8,0,0,1,266,35Zm-1-.8a2.5,2.5,0,0,0-.4-1.3,1.5,1.5,0,0,0-1.1-.4,1.3,1.3,0,0,0-1.2.5,2.3,2.3,0,0,0-.6,1.2Z" fill="#1e1e1e" stroke="#1e1e1e" stroke-miterlimit="10" stroke-width="0.06"/><path d="M267,38.1v-1a3.4,3.4,0,0,0,1.7.5c.9,0,1.3-.2,1.3-.8s-.1-.3-.1-.4l-.3-.3-.5-.2-.5-.3-.7-.3-.5-.3-.3-.5a1.3,1.3,0,0,1-.1-.6,2.4,2.4,0,0,1,.2-.8l.5-.5.7-.3h.9a3.2,3.2,0,0,1,1.4.2v1a2.8,2.8,0,0,0-1.5-.4h-.5l-.4.2c-.1.1-.2.2-.2.3a.4.4,0,0,0-.1.3c0,.2,0,.3.1.4l.2.3.4.2.5.2.8.3.5.4a.9.9,0,0,1,.3.5,1.1,1.1,0,0,1,.2.6,2.4,2.4,0,0,1-.2.8c-.2.2-.3.4-.6.5a.9.9,0,0,1-.7.3h-.9A3.8,3.8,0,0,1,267,38.1Z" fill="#1e1e1e" stroke="#1e1e1e" stroke-miterlimit="10" stroke-width="0.06"/><path d="M272,38.1v-1a3.4,3.4,0,0,0,1.7.5c.9,0,1.3-.2,1.3-.8s0-.3-.1-.4l-.3-.3-.4-.2-.6-.3-.7-.3-.5-.3-.3-.5a1.3,1.3,0,0,1-.1-.6,2.4,2.4,0,0,1,.2-.8l.5-.5a1.9,1.9,0,0,1,.8-.3h.8a3.2,3.2,0,0,1,1.4.2v1a2.4,2.4,0,0,0-1.5-.4h-.5l-.4.2c-.1.1-.2.2-.2.3a.4.4,0,0,0-.1.3c0,.2,0,.3.1.4l.2.3.4.2.6.2.7.3.5.4a1,1,0,0,1,.4.5c0,.1.1.4.1.6a2.4,2.4,0,0,1-.2.8l-.5.5a1.3,1.3,0,0,1-.8.3h-.9A4.1,4.1,0,0,1,272,38.1Z" fill="#1e1e1e" stroke="#1e1e1e" stroke-miterlimit="10" stroke-width="0.06"/><path d="M279.9,38.4a2.5,2.5,0,0,1-2.1-.8,2.9,2.9,0,0,1-.8-2.2,3.6,3.6,0,0,1,.8-2.4,2.9,2.9,0,0,1,2.2-.8,2.5,2.5,0,0,1,2.1.8,3.2,3.2,0,0,1,.8,2.3,3.6,3.6,0,0,1-.8,2.3A2.9,2.9,0,0,1,279.9,38.4ZM280,33a1.9,1.9,0,0,0-1.5.6,2.3,2.3,0,0,0-.5,1.7,2.3,2.3,0,0,0,.5,1.7,2,2,0,0,0,1.5.6,1.7,1.7,0,0,0,1.4-.6,2.6,2.6,0,0,0,.5-1.7,2.9,2.9,0,0,0-.5-1.7A1.7,1.7,0,0,0,280,33Z" fill="#1e1e1e" stroke="#1e1e1e" stroke-miterlimit="10" stroke-width="0.06"/><path d="M186.3,134.7h-1.1l-1.4-2.4-.4-.5c-.1-.2-.3-.3-.4-.4l-.4-.2h-1.3v3.6h-1v-8.4h3.5l.8.4a1.9,1.9,0,0,1,.6.7,3,3,0,0,1,.2,1,1.9,1.9,0,0,1-.2.8,1.5,1.5,0,0,1-.3.7l-.6.5-.8.3h0l.4.2.3.3.3.4a.9.9,0,0,0,.3.5Zm-5-7.5v3h2l.6-.3.3-.5a1.5,1.5,0,0,0,.1-.7,1.2,1.2,0,0,0-.4-1,1.7,1.7,0,0,0-1.3-.4Z" fill="#1e1e1e" stroke="#1e1e1e" stroke-miterlimit="10" stroke-width="0.06"/><path d="M191.8,131.9h-4.2a2.5,2.5,0,0,0,.5,1.6,2,2,0,0,0,1.4.5,2.8,2.8,0,0,0,1.9-.7v1a4.1,4.1,0,0,1-2.1.5,2.3,2.3,0,0,1-2-.8,3.2,3.2,0,0,1-.7-2.3,3.1,3.1,0,0,1,.8-2.3,2.3,2.3,0,0,1,1.9-.9,2.6,2.6,0,0,1,1.9.8,3.3,3.3,0,0,1,.6,2.1Zm-1-.8a1.8,1.8,0,0,0-.4-1.3,1.4,1.4,0,0,0-1.1-.4,1.5,1.5,0,0,0-1.1.4,1.8,1.8,0,0,0-.6,1.3Z" fill="#1e1e1e" stroke="#1e1e1e" stroke-miterlimit="10" stroke-width="0.06"/><path d="M192.8,134.5v-1.1a3,3,0,0,0,1.8.6c.8,0,1.2-.3,1.2-.8s0-.3-.1-.4-.1-.2-.3-.3l-.4-.3-.5-.2-.7-.3a1,1,0,0,1-.5-.4c-.2-.1-.3-.2-.3-.4a1.3,1.3,0,0,1-.1-.6,1.1,1.1,0,0,1,.2-.8l.5-.5a.9.9,0,0,1,.7-.3l.9-.2a3.5,3.5,0,0,1,1.4.3v1a2.9,2.9,0,0,0-1.6-.4h-.5l-.3.2-.3.3v.3c0,.2.1.3.1.4l.3.3.4.2.5.2.7.3.6.4.3.5c.1.1.1.3.1.6a1.4,1.4,0,0,1-.7,1.3l-.7.3h-.9A4.3,4.3,0,0,1,192.8,134.5Z" fill="#1e1e1e" stroke="#1e1e1e" stroke-miterlimit="10" stroke-width="0.06"/><path d="M199.3,133.8h-.1v3.6h-.9v-8.7h.9v1h.1a2.1,2.1,0,0,1,2-1.2,2,2,0,0,1,1.8.9,2.8,2.8,0,0,1,.7,2.1,4.3,4.3,0,0,1-.7,2.4,2.5,2.5,0,0,1-2,.9A1.9,1.9,0,0,1,199.3,133.8Zm-.1-2.4v.8a1.9,1.9,0,0,0,.5,1.3,1.7,1.7,0,0,0,1.2.5,1.5,1.5,0,0,0,1.4-.7,3,3,0,0,0,.5-1.8,2.5,2.5,0,0,0-.5-1.6,1.3,1.3,0,0,0-1.2-.5,1.7,1.7,0,0,0-1.4.5A2.5,2.5,0,0,0,199.2,131.4Z" fill="#1e1e1e" stroke="#1e1e1e" stroke-miterlimit="10" stroke-width="0.06"/><path d="M207.8,134.8a2.8,2.8,0,0,1-2.9-3,3.5,3.5,0,0,1,.8-2.4,2.9,2.9,0,0,1,2.2-.9,2.6,2.6,0,0,1,2.1.9,3.2,3.2,0,0,1,.8,2.3,3.6,3.6,0,0,1-.8,2.3A3.3,3.3,0,0,1,207.8,134.8Zm.1-5.4a1.9,1.9,0,0,0-1.5.6,3.1,3.1,0,0,0,0,3.4,2,2,0,0,0,1.5.6,1.7,1.7,0,0,0,1.4-.6,2.9,2.9,0,0,0,.5-1.7,2.6,2.6,0,0,0-.5-1.7A1.7,1.7,0,0,0,207.9,129.4Z" fill="#1e1e1e" stroke="#1e1e1e" stroke-miterlimit="10" stroke-width="0.06"/><path d="M219.2,134.6c-.2.2-.5.2-.9.2s-1.5-.6-1.5-1.7v-3.6h-3.2l-.4.2c-.1,0-.1.1-.2.2a.4.4,0,0,0-.1.3c0,.2,0,.3.1.4s.1.2.3.3l.3.2.6.2.7.3.5.4a1,1,0,0,1,.4.5c.1.1.1.3.1.6a2.4,2.4,0,0,1-.2.8,1.2,1.2,0,0,1-.5.5,1.9,1.9,0,0,1-.8.3h-.9a4.1,4.1,0,0,1-1.6-.3v-1.1a2.7,2.7,0,0,0,1.7.6c.9,0,1.3-.3,1.3-.8s0-.3-.1-.4l-.3-.3-.4-.3-.6-.2-.7-.3-.5-.4-.3-.4c0-.2-.1-.4-.1-.6a1.4,1.4,0,0,1,.2-.7l.5-.5.6-.3h3.6v-1.5l.9-.3v1.8h1.5v.8h-1.5v3.4a1.3,1.3,0,0,0,.2.8.9.9,0,0,0,.7.3l.6-.2Z" fill="#1e1e1e" stroke="#1e1e1e" stroke-miterlimit="10" stroke-width="0.06"/><path d="M224.8,134.7h-1v-1h0a1.9,1.9,0,0,1-1.9,1.1,1.6,1.6,0,0,1-1.9-1.7c0-1.1.7-1.8,2-2l1.8-.2q0-1.5-1.2-1.5a2.9,2.9,0,0,0-2,.7v-1a3.7,3.7,0,0,1,2.1-.6c1.4,0,2.1.8,2.1,2.3Zm-1-3h-1.4a1.9,1.9,0,0,0-1,.4c-.3.1-.4.4-.4.8a.8.8,0,0,0,.3.7,1.2,1.2,0,0,0,.9.3,1.3,1.3,0,0,0,1.1-.5,1.4,1.4,0,0,0,.5-1.3Z" fill="#1e1e1e" stroke="#1e1e1e" stroke-miterlimit="10" stroke-width="0.06"/><path d="M236.2,134.7h-.9v-3.8h-4.4v3.8h-1v-8.4h1V130h4.4v-3.7h.9Z" fill="#1e1e1e" stroke="#1e1e1e" stroke-miterlimit="10" stroke-width="0.06"/><path d="M243.4,127.2h-2.5v7.5H240v-7.5h-2.5v-.9h5.9Z" fill="#1e1e1e" stroke="#1e1e1e" stroke-miterlimit="10" stroke-width="0.06"/><path d="M249.9,127.2h-2.5v7.5h-.9v-7.5H244v-.9h5.9Z" fill="#1e1e1e" stroke="#1e1e1e" stroke-miterlimit="10" stroke-width="0.06"/><path d="M252.1,131.5v3.2h-1v-8.4h2.4a3.2,3.2,0,0,1,2,.6,2.7,2.7,0,0,1,0,3.8,3,3,0,0,1-2.3.8Zm0-4.3v3.4h1.1a2.2,2.2,0,0,0,1.5-.4,1.8,1.8,0,0,0,.6-1.4c0-1.1-.7-1.6-2-1.6Z" fill="#1e1e1e" stroke="#1e1e1e" stroke-miterlimit="10" stroke-width="0.06"/></svg>